<svg width="53" height="54" viewBox="0 0 53 54" fill="none" xmlns="http://www.w3.org/2000/svg">
<rect width="51.9737" height="52.0577" fill="black" fill-opacity="0" transform="translate(0.928223 1) rotate(-0.0688576)"/>
<path d="M52.5266 12.7775C52.5159 12.7773 52.5159 12.7773 52.5266 12.7775L42.5319 1.80049C42.2035 1.45275 41.6668 1.43467 41.3188 1.76251L36.3047 6.61634C35.9566 6.95526 35.9386 7.50899 36.2669 7.86781L36.8491 8.518L36.4248 8.93348C34.4555 9.24018 32.6285 10.1692 31.1819 11.5685L28.4627 14.2031L27.0333 12.6334C25.3818 10.8059 23.0761 9.73438 20.65 9.65842L18.3635 9.58428L17.4318 8.56392L18.0625 7.96278C18.4106 7.62386 18.4285 7.07013 18.1003 6.71131L13.3997 1.52028C13.0715 1.16146 12.5347 1.14338 12.1867 1.4823L1.52767 11.7911C1.17959 12.13 1.16163 12.6837 1.48987 13.0426L6.19073 18.2114C6.51897 18.5703 7.0557 18.5883 7.40378 18.2494L8.0345 17.6483L8.43689 18.0856C8.73258 20.117 9.63159 22.0011 10.9868 23.4923L16.99 30.0853L18.6525 31.8907C19.0979 32.3286 19.6853 32.58 20.2971 32.5991L20.3079 32.5992C21.7249 32.6399 22.9105 31.492 22.9618 30.0302C22.9654 29.7533 22.9261 29.4758 22.8544 29.2089C23.174 29.4015 23.5269 29.5168 23.8917 29.5438C23.917 30.8958 24.9334 32.017 26.2421 32.1337C26.2774 33.5413 27.3579 34.6855 28.7211 34.7365L28.7319 34.7366C29.4082 34.7565 30.0665 34.5103 30.5668 34.0293L33.1989 31.4822C33.3863 31.9388 33.5646 32.2625 34.097 32.6129C34.8423 33.1101 35.7986 33.0672 35.7986 33.0672C36.3577 33.0191 36.8872 32.7711 37.3004 32.3777L41.6945 28.1251C43.4567 26.4086 44.4971 24.0402 44.5834 21.5374L44.657 19.1895L45.6468 18.2274L46.229 18.8776C46.5573 19.2364 47.094 19.2545 47.4421 18.9156L52.4562 14.0618C52.826 13.701 52.8441 13.1362 52.5266 12.7775ZM7.48997 15.7577L6.85925 16.3588L3.33364 12.4794L12.731 3.38396L16.2566 7.26339L15.6259 7.86453L7.48997 15.7577ZM21.579 27.3642L19.0273 24.5611C18.7098 24.2024 18.1625 24.1731 17.8146 24.501C17.4666 24.8288 17.4378 25.3935 17.7553 25.7522C17.7659 25.7634 17.7659 25.7634 17.7765 25.7746L21.0268 29.3513C21.1857 29.5196 21.258 29.7421 21.255 29.9747C21.2379 30.462 20.8355 30.8445 20.3632 30.8273C20.1376 30.8354 19.9241 30.7329 19.7761 30.5537L12.2485 22.2679C11.0733 20.9785 10.3215 19.3289 10.1083 17.5645C10.0893 17.3759 10.0055 17.2087 9.87841 17.074L9.29623 16.4238L12.7441 13.0896L16.1919 9.75539L17.3672 11.0448C17.5261 11.2131 17.7395 11.3156 17.9649 11.3296L20.6056 11.4195C22.5808 11.4785 24.4489 12.3448 25.7934 13.8359L27.2227 15.4057L25.9719 16.6192L24.5425 15.0494C24.2143 14.6906 23.6776 14.6725 23.3295 15.0114C22.9814 15.3504 22.9634 15.9041 23.2917 16.2629L24.721 17.8327L21.2732 21.1669C20.7729 21.6478 20.4849 22.3199 20.4651 23.0177C20.4405 24.081 21.0184 25.0524 21.9576 25.5078C21.5959 26.0682 21.4691 26.7313 21.579 27.3642ZM43.2319 18.1184C43.0687 18.2824 42.9691 18.5027 42.9554 18.7352L42.8661 21.4596C42.7966 23.4973 41.9554 25.4141 40.5196 26.8135L36.1362 31.0662C35.9731 31.2192 35.7572 31.305 35.5317 31.3021C35.0594 31.2848 34.6888 30.8811 34.7059 30.3939C34.7089 30.1612 34.8084 29.941 34.9717 29.7769L39.3658 25.5243C39.7032 25.1853 39.7105 24.6203 39.3821 24.2726C39.0645 23.925 38.5276 23.918 38.1906 24.2349L35.0581 27.263L33.7966 28.4764L29.4024 32.7289C29.2393 32.8819 29.0234 32.9677 28.7979 32.9648C28.3256 32.9475 27.9552 32.5328 27.9721 32.0566C27.9751 31.824 28.0747 31.6037 28.2379 31.4396L33.8936 25.9737C34.231 25.6346 34.2383 25.0697 33.91 24.722C33.5923 24.3744 33.0554 24.3674 32.7184 24.6843L27.0626 30.1502C26.8996 30.3031 26.6837 30.389 26.4582 30.386C25.9859 30.3688 25.6154 29.954 25.6323 29.4778C25.6354 29.2452 25.7349 29.0249 25.8981 28.8609L31.5539 23.395C31.9019 23.056 31.9199 22.5023 31.5917 22.1435C31.2634 21.7847 30.7267 21.7666 30.3786 22.1055L24.7014 27.5711C24.5383 27.7241 24.3224 27.8099 24.0969 27.807C23.6246 27.7897 23.254 27.3861 23.2711 26.8988C23.2741 26.6662 23.3737 26.4459 23.5368 26.2929L29.1925 20.827C29.5406 20.4881 29.5585 19.9343 29.2303 19.5755C28.902 19.2167 28.3653 19.1986 28.0172 19.5375L24.1995 23.2326L23.6231 23.7901C23.46 23.9431 23.2441 24.0289 23.0186 24.026C22.5463 24.0087 22.1757 23.605 22.1928 23.1178C22.1958 22.8851 22.2953 22.6648 22.4586 22.5008L32.3998 12.8806C33.6296 11.6336 35.2184 10.8566 36.9289 10.6352C37.1117 10.6154 37.2739 10.5289 37.4045 10.3977L38.0352 9.79651L44.4935 16.905L43.2319 18.1184ZM46.9194 16.9921L38.1107 7.30465L41.8633 3.6531L50.6721 13.3405L46.9194 16.9921Z" fill="#593085"/>
<path d="M15.1477 31.124C15.465 31.4437 15.9933 31.4537 16.3204 31.1439L17.7239 29.7661L16.5181 28.5728L15.1463 29.9186C14.8086 30.2497 14.8198 30.7937 15.1477 31.124Z" fill="#593085"/>
<rect width="50.6876" height="27.549" fill="black" fill-opacity="0" transform="translate(2.12891 25.5073) rotate(-0.0688576)"/>
<path d="M22.0299 25.5474L21.9453 25.4835L21.956 25.6221L22.0299 25.5474Z" fill="#593085"/>
<path d="M52.6026 41.3093L47.8953 36.4078C47.5674 36.0669 47.0391 36.0568 46.7014 36.3879L46.0999 36.986L45.698 36.5705C45.3681 34.6187 44.4679 32.8276 43.1033 31.4105L40.353 28.5442L39.0971 29.6872L41.8898 32.5961C43.0745 33.8214 43.8371 35.3993 44.0716 37.0845C44.0929 37.2658 44.1776 37.4257 44.3046 37.5536L44.8969 38.1609L41.5623 41.4292L38.2277 44.6975L37.0535 43.4721C36.8948 43.3123 36.6834 43.2165 36.4615 43.2168L33.8625 43.1773C31.9184 43.1476 30.0686 42.3498 28.7251 40.9326L27.2971 39.4408L28.5106 38.2553L29.9387 39.747C30.2666 40.088 30.7949 40.098 31.1326 39.7669C31.4703 39.4358 31.4802 38.9024 31.1523 38.5615L29.7242 37.0697L33.0588 33.8014C33.5442 33.3315 33.8181 32.6804 33.8173 32.0084C33.8169 31.667 33.7531 31.3364 33.626 31.0272L31.9479 32.48C31.9268 32.512 31.8951 32.5441 31.8635 32.5761L22.2395 41.9965C21.0259 43.1927 19.4738 43.9626 17.7942 44.1993C17.6146 44.2209 17.4563 44.3064 17.3296 44.4346L16.7281 45.0327L10.2331 38.2879L11.4572 37.1023C11.6155 36.9421 11.7103 36.7287 11.7101 36.5047L11.7492 33.8804C11.7891 31.9175 12.5792 30.0604 13.9722 28.6933L15.3123 27.3796L14.6354 26.7083L14.6341 25.6629L12.7874 27.4679C11.0779 29.1555 10.0981 31.4502 10.0482 33.8611L10.0086 36.1227L9.04832 37.0626L8.45594 36.4446C8.12801 36.1036 7.59974 36.0936 7.26206 36.4247L2.40784 41.1776C2.07016 41.5087 2.06023 42.0421 2.38816 42.383L12.3952 52.7932C12.7231 53.1235 13.2514 53.1229 13.5891 52.8131L18.4433 48.0602C18.781 47.7291 18.7909 47.1957 18.463 46.8548L17.8706 46.2474L18.2822 45.8415C20.2152 45.5085 21.989 44.5997 23.3925 43.2219L26.0307 40.6371L27.4588 42.1289C29.1196 43.8657 31.3923 44.8657 33.7906 44.8948L36.041 44.9348L36.9719 45.9044L36.3704 46.5025C36.0327 46.8336 36.0228 47.367 36.3507 47.708L41.058 52.6094C41.386 52.9504 41.9142 52.9604 42.2519 52.6293L52.5618 42.5254C52.9207 42.1943 52.92 41.6502 52.6026 41.3093ZM13.0375 51.0003L4.21522 41.8048L7.85588 38.2374L16.6782 47.4329L13.0375 51.0003ZM41.7003 50.7952L38.1672 47.1191L38.7687 46.521L46.6621 38.7988L47.2636 38.2007L50.7967 41.8768L41.7003 50.7952Z" fill="#593085"/>
</svg>
