<?xml version="1.0" encoding="utf-8"?>
<svg version="1.1" id="Layer_1" xmlns="http://www.w3.org/2000/svg" xmlns:xlink="http://www.w3.org/1999/xlink" x="0px" y="0px"
	 viewBox="-22 -22 64 64" style="enable-background:new 0 0 20 20;" xml:space="preserve">
<style type="text/css">
	.st0{fill:#CE1126;}
	.st1{fill:#CCCCCC;}
</style>
<g id="Layer_1_1_">
	<circle class="st0" cx="10" cy="10" r="28.8000011"/>
	<path d="M25.8790016,17.7910004c-0.1230011-0.0900002-0.3299999-0.1500015-0.531002-0.1590004
		c-0.1829987-0.0090027-0.4439983-0.0660019-0.5909977-0.1410007c-0.3270016-0.1560001-0.6750011-0.1020012-0.9750004,0.1560001
		c-0.197998,0.1619987-0.3239975,0.1889992-1.0889988,0.2490005c-1.0710011,0.0870018-1.4130001,0.0870018-1.4130001,0.0149994
		c0-0.0299988,0.2700005-0.2280006,0.6090012-0.4379997c0.4560013-0.2999992,0.6450005-0.3839989,0.7919998-0.3540001
		c0.3239994,0.0600014,0.7259979-0.0959969,1.026001-0.4019985c0.2849998-0.2939987,0.3509979-0.3149986,1.0109978-0.2850018
		c0.1590023,0.0090027,0.0480003,0.0150013,0.2729988-0.0179977c-0.1020012-0.2669983-0.4919968-0.7800007-1.1369972-0.6120014
		c-0.2790031,0.0720005-0.4560013,0.0810013-0.6030006,0.0300007c-0.4169998-0.1469994-0.980999,0.1560001-1.1610012,0.6090012
		c-0.0869999,0.2339993-0.5039997,0.5789986-1.2600002,1.0410004l-0.5460014,0.3449974l-1.0649986-0.4109993
		c-1.1879997-0.4560013-2.1900005-0.9090004-2.1900005-0.980999c0-0.0359993,0.144001-0.2189999,0.3270016-0.4230003
		c0.1829987-0.197999,0.329998-0.3899994,0.329998-0.4109993c0-0.0240011-0.2039986-0.1500006-0.4620018-0.2729988
		c-1.6499996-0.8339996-2.8260002-2.006999-3.3150005-3.3270006c-0.3509989-0.9239988-0.1739988-1.1369991,0.2580013-0.3089991
		c0.3449993,0.6689987,0.5999994,0.9720011,1.0679998,1.269001c0.506999,0.3239994,0.7920008,0.3900003,0.9809999,0.2130003
		c0.2280006-0.2039995,0.1769981-0.4560013-0.1469994-0.8220005c-0.7259998-0.8280001-0.9330006-2.0760012-0.3390007-2.0760012
		c0.2280006,0,0.2580013,0.0360003,0.7199993,1.1009989c0.6450005,1.4880009,1.3050022,2.4840002,1.8270016,2.7480011
		c0.441,0.2280006,1.1579971,0.045001,1.2719994-0.3270006c0.0959969-0.3000011-0.0240021-0.4919987-0.531002-0.8160009
		c-0.7829971-0.5130014-1.3050003-1.3409986-1.5089989-2.4239988c-0.0660019-0.3509989-0.0600014-0.4410009,0.0509987-0.6030006
		c0.177002-0.2700005,0.309-0.177,0.8220024,0.5939999c0.9599991,1.4429998,2.691,3.342001,3.4019985,3.7349997
		c1.2600002,0.6960011,2.4990005,0.6689987,3.2490005-0.0810013c0.2040005-0.2039995,0.2700005-0.329999,0.2700005-0.5159998
		c0-0.3599997-0.2640018-0.5129986-0.8430004-0.4799995c-1.3139992,0.0570002-1.4430008,0.0419998-1.9470005-0.1889992
		c-0.9750004-0.4620008-1.9229984-1.5660009-2.6729984-3.1230011c-0.7020016-1.4520006-0.5340023-1.5269995,0.6629982-0.3120003
		c1.6140003,1.6409998,2.9160004,2.25,4.1130009,1.8990011c0.5790005-0.1710005,1.125-0.6870003,1.125-1.0770006
		c0-0.4169998-0.2040005-0.5400009-0.8339996-0.5040007c-0.2850018,0.0240011-0.8189983,0.0360003-1.1789989,0.0360003
		c-0.6090012,0.0090008-0.704998-0.0150003-1.1520004-0.2340002c-0.2700005-0.131999-0.7110004-0.4499989-1.0049992-0.7199993
		c-0.7679996-0.7110014-2.0580006-2.4840002-2.0580006-2.823c0-0.3449993,0.3060017-0.2099991,1.0980015,0.4859991
		c0.6450005,0.5639992,1.7910004,1.3439999,2.3129997,1.5870008c0.3000011,0.131999,0.4980011,0.1619997,1.0620003,0.1710005
		c0.6030006,0,0.7469997-0.0240011,1.0529995-0.1829996c0.473999-0.243001,0.6450005-0.4799995,0.6870003-0.9869986
		c0.0569992-0.717001-0.3000011-0.9000006-1.3380013-0.6330013C22.9120026,6.967001,22.144001,6.6970005,20.788002,5.3260012
		C20.1280022,4.651,19.894001,4.2910004,19.9810028,4.0810013c0.0749969-0.2039995,0.3659973-0.1079993,1.6199989,0.5219994
		C22.9720001,5.2990017,23.368,5.4370003,24.0130005,5.4370003c0.5730019,0,0.9360008-0.1140003,1.2900009-0.4229994
		c0.5370007-0.4560013,0.6689987-0.9720011,0.3299999-1.2990003c-0.2640018-0.2700005-0.7860012-0.2520003-1.3710003,0.0419998
		c-0.2849998,0.138-0.6089993,0.2460008-0.8730011,0.2639995c-0.9239979,0.0899992-2.2799988-0.4260006-2.9639988-1.1099997
		c-0.4560013-0.4559999-0.671999-0.8790007-0.5459995-1.0410004C20.0109997,1.7230005,20.2150021,1.75,20.7220001,1.9600005
		C21.7180004,2.3860011,22.198,2.5,22.9510002,2.5c0.8430023,0,1.355999-0.1290007,2.0820007-0.5399995
		C25.5970001,1.651,25.9660015,1.2550001,25.9660015,0.9790001c0-0.1079993-0.066-0.3090005-0.1469994-0.4409995
		c-0.2129993-0.3449993-0.597002-0.3300004-1.323,0.0659995c-1.4220009,0.7769995-2.4029999,0.888-3.3990021,0.3809996
		c-0.4169998-0.2130003-1.1369972-0.8939996-1.3289986-1.2600002c-0.1080017-0.2280006-0.1080017-0.2550001-0.0090008-0.3599997
		c0.1319981-0.1320004,0.230999-0.1170001,1.3290005,0.2849994c0.5489979,0.198,0.7919998,0.2520003,1.4370003,0.2730002
		c0.8639984,0.0360003,1.3829994-0.0510006,1.9469986-0.3179998c0.7560005-0.3449993,1.4880028-1.2390003,1.4880028-1.7969999
		c0-0.2700005-0.1710014-0.6209993-0.3299999-0.6870003c-0.3239994-0.1229997-0.4980011-0.0449996-0.9960003,0.474
		c-0.7769985,0.7919998-1.5479984,1.0949993-2.7719994,1.0949993c-1.3050003-0.0089993-1.8389988-0.2069993-1.8389988-0.6959996
		c0-0.336,0.2549992-0.5399995,0.7919998-0.6209993c1.6200008-0.2639995,3.4950008-1.1160007,4.5-2.0460005
		c0.5939999-0.5490003,0.8220005-0.9390006,0.816-1.4069996c-0.0089989-0.5369997-0.243-0.8969994-0.6599998-1.0109997
		c-0.3659992-0.1049995-0.6359997,0.0659995-1.0109997,0.651c-0.6299992,0.9899998-1.2660007,1.5330005-2.4899998,2.1480002
		C21.2590027-3.9409995,20.1250057-3.5540004,19.9120064-3.599C19.8460045-3.6140003,19.7440071-3.7429996,19.6840057-3.914
		c-0.177002-0.4979997-0.2070007-0.5040007-0.9389992-0.198c-0.3660011,0.1619997-1.1160011,0.4470005-1.6710014,0.6450005
		c-1.1159992,0.3959999-1.4880009,0.6389995-1.7550001,1.1580005c-0.1290064,0.2489991-0.1590042,0.4259992-0.1590042,1.2119994
		C15.151-0.263,15.1330013-0.1610003,14.986002,0.0579996c-0.2280006,0.3150001-0.4110003,0.4019995-0.881999,0.4019995
		c-0.6839991,0-1.0529995-0.4019995-1.0980005-1.1879997c-0.0360003-0.6359997,0.0749989-1.1820002,0.3900003-1.8270006
		c0.3089991-0.6539998,0.6660004-1.0440001,1.3470011-1.4940004c0.6450005-0.4260006,1.269001-0.6209993,2.1779995-0.7080002
		c0.8129997-0.0720005,1.6410007-0.3870006,1.8389988-0.789c-0.8310013,0.2490005-1.6679993-0.1079993-1.5959969-0.1500006
		c0.0749969-0.0419998,1.553997-0.0360003,1.7519989-0.0570002c0.6209984-0.0659995,0.8639984-0.2399998,1.2089996-0.4890003
		c0.3959999-0.2849994,0.6599998-0.5490003,0.5579987-0.7349997c-0.1049995-0.198-0.3959999-0.1619997-0.6030006,0.0659995
		c-0.1049995,0.1170001-0.2939987,0.3270006-0.4260006,0.4799995c-0.2339993,0.2639995-0.2850018,0.2849994-0.9899998,0.3959999
		c-0.5369987,0.0750003-0.6359997,0.0750003-0.9389992,0c-0.0959988-0.0659995-0.1829987-0.1560001-0.1829987-0.1890006
		c0-0.1049995,0.2939987-0.2670007,0.5639992-0.3270006c0.197998-0.0360003,0.6329994,0.1110005,0.9959984,0.2160001
		c-0.0810013-0.2039995-0.0810013-0.2219996-0.2039986-0.4650006c-0.177002-0.3449993-0.4890022-0.4710002-1.2719994-0.4920001
		c-0.5460052-0.0209942-0.7260017-0.0539947-0.8430042-0.1589942c-0.0899982-0.0809999-0.2189999-0.177-0.3000011-0.2189999
		c-0.0930004-0.0510006-0.230999-0.0780001-0.3959999-0.0839996c-0.4949999-0.0150003-1.2659998,0.1710005-2.0159998,0.5009995
		c-0.407999,0.1829996-0.5939999,0.2280006-1.0200005,0.2280006c-0.2939987,0-0.6600008-0.0360003-0.8220005-0.0809999
		c-0.5849991-0.1560001-0.6929998-0.1619997-0.6929998-0.0419998c0,0.138,0.4980011,0.5939999,0.8730011,0.7860003
		c0.2039995,0.1049995,0.2850008,0.1799998,0.2490005,0.2550001c-0.0510006,0.1530004-0.6149998,0.5369997-0.9630003,0.651
		c-0.3509989,0.1229997-0.342001,0.2609997,0.0389986,0.4470005c0.1710005,0.0809999,0.3060007,0.1799998,0.3149986,0.2280006
		c0.0090008,0.2130003-0.7259989,0.6900001-1.0529995,0.6900001c-0.407999,0-0.2550001,0.3239994,0.1889992,0.4169998
		c0.2519989,0.0510006,0.2490005,0.0780001,0.0300007,0.3209996c-0.243001,0.2789998-0.4620008,0.375-0.7020006,0.3239994
		c-0.2700005-0.0599999-0.3239994,0.0449996-0.1710005,0.3300004c0.1230011,0.2189999,0.1230011,0.2340002-0.0090008,0.3270006
		C10.2459993-2.3029995,10.1199999-2.2670007,10-2.2670007S9.7540007-2.3029995,9.6669998-2.3720002
		C9.5319996-2.4680004,9.5319996-2.4829993,9.657999-2.7020006C9.810998-2.987,9.7600002-3.092001,9.4869986-3.032001
		C9.2440004-2.9810004,9.0279989-3.0770006,8.7850008-3.3560004C8.5660009-3.599,8.5629997-3.6260009,8.8150015-3.677
		c0.4439993-0.0930004,0.5999994-0.414,0.1889992-0.414c-0.329999,0-1.0620003-0.4769998-1.0529995-0.6900001
		C7.9600019-4.823,8.0950022-4.9279995,8.2659998-5.0090008c0.3840008-0.1829996,0.3929987-0.3239994,0.0389986-0.4470005
		C7.9599991-5.5759997,7.3929987-5.9539995,7.3449993-6.1099997C7.3060007-6.1820002,7.3869991-6.263,7.5909986-6.3649998
		c0.375-0.1890006,0.8730011-0.6450005,0.8730011-0.7860003c0-0.1170001-0.1080008-0.1079993-0.6929998,0.0419998
		C7.605999-7.0640006,7.2399998-7.0280004,6.9460011-7.0280004c-0.4260006,0-0.6090002-0.0419998-1.0200005-0.2280006
		c-0.75-0.3300004-1.5209999-0.5159998-2.0159998-0.5009995C3.7479997-7.7479997,3.6099997-7.724,3.5170007-7.6729994
		c-0.0809999,0.0419998-0.2100005,0.138-0.2999997,0.2189999C3.0999994-7.349,2.9199996-7.3129997,2.3709993-7.2919998
		C1.5879989-7.2680001,1.2729988-7.1419992,1.099-6.7969999C0.9699993-6.5540004,0.9730005-6.5360003,0.8920007-6.3319993
		C1.2520003-6.4370003,1.6900001-6.5869994,1.888-6.5479994C2.1610003-6.4909992,2.4550004-6.323,2.4550004-6.2209988
		c0,0.0360003-0.0900006,0.1229997-0.1890006,0.198c-0.3029995,0.0750003-0.4019995,0.0750003-0.9390006,0
		C0.6219988-6.1339993,0.5709996-6.1549993,0.3369994-6.4189987C0.2020006-6.5720005,0.013-6.7849994-0.0919995-6.9019995
		c-0.2040009-0.2250009-0.4980011-0.2640009-0.6000009-0.0630012c-0.1019998,0.183001,0.1619997,0.4470005,0.558001,0.7320013
		C0.211-5.980999,0.4540009-5.8099999,1.0750003-5.743999c0.1950002,0.0239997,1.677,0.0149989,1.7520003,0.0599985
		c0.0720005,0.0419998-0.7620006,0.3989997-1.5960002,0.1500006c0.198,0.4019995,1.026,0.7139997,1.8389997,0.789
		c0.9060001,0.0900006,1.5330005,0.2849994,2.1780009,0.7080002c0.6839991,0.4470005,1.0379992,0.8400006,1.3470011,1.4940004
		c0.3149986,0.6450005,0.4260006,1.1879997,0.3900003,1.8270006c-0.0450039,0.782999-0.4170027,1.1849985-1.1010017,1.1849985
		c-0.4680004,0-0.6540012-0.0900006-0.881999-0.4019995C4.8549995-0.1519995,4.8399992-0.2540007,4.8310013-1.0880003
		c0-0.7830005-0.032999-0.9600005-0.1619997-1.2180004C4.4050007-2.8250003,4.0300007-3.0679998,2.914-3.4639997
		c-0.5579996-0.198-1.302-0.4830008-1.6680007-0.6450005c-0.7349997-0.3060007-0.7620006-0.2999997-0.9390006,0.198
		C0.2499986-3.7399998,0.144999-3.6110005,0.0789981-3.5960002c-0.2129974,0.0419998-1.3469982-0.3419995-2.060998-0.6959996
		c-1.224-0.6149998-1.8599997-1.1610003-2.4899998-2.151c-0.375-0.5850005-0.6450005-0.7529998-1.0109997-0.651
		C-5.9000006-6.974-6.1370006-6.6140003-6.1430001-6.0830002C-6.1519995-5.612-5.9240003-5.2249994-5.3270006-4.6729994
		c1.0050001,0.9299998,2.8800001,1.7789998,4.5,2.0460005c0.5369997,0.0809999,0.7919998,0.2849994,0.7919998,0.6209993
		c0,0.4890003-0.5369997,0.6900001-1.8389997,0.6959996c-1.224,0-1.9949999-0.3029995-2.7719994-1.0950007
		c-0.5009995-0.5189996-0.6779995-0.5939999-0.9990005-0.4709988c-0.1619997,0.0659995-0.3300004,0.414-0.3300004,0.6870003
		c0,0.5579996,0.7349997,1.4520006,1.4879994,1.7969999C-3.9229994-0.125-3.4039998-0.0380006-2.5399995-0.0739994
		c0.6450005-0.0239997,0.888-0.0780001,1.4370003-0.2730002c1.1010003-0.4019995,1.1940007-0.4169998,1.3289995-0.2849994
		C0.3280001-0.5300007,0.3280001-0.5,0.2169995-0.2719994C0.0279989,0.0940013-0.6920004,0.7720008-1.1090002,0.9880009
		c-0.9959993,0.5039992-1.974,0.3929987-3.3989997-0.3840008c-0.7260003-0.3959999-1.1099997-0.4080005-1.323-0.0659995
		C-5.9119997,0.670001-5.9779992,0.868001-5.9779992,0.9790001c0,0.2789998,0.3690004,0.6749997,0.9329996,0.9810004
		C-4.3189993,2.3710008-3.8059993,2.5-2.9630003,2.5c0.7559996,0,1.2299995-0.1140003,2.2290001-0.5399995
		C-0.224,1.75-0.0200005,1.7260003,0.112,1.8729997C0.2349997,2.0349994,0.0189996,2.461-0.4340005,2.914
		C-1.1210008,3.5980005-2.480001,4.1109991-3.4040012,4.0240011C-3.6650009,4-3.9890018,3.8980017-4.2740011,3.7570004
		c-0.5880003-0.2910004-1.1099997-0.3150001-1.3709993-0.0419998C-5.9840002,4.045001-5.849,4.5610008-5.3179998,5.0169992
		c0.3540001,0.3089991,0.7169995,0.4229994,1.2899995,0.4229994c0.6450005,0,1.0440001-0.1379986,2.4119997-0.8339996
		C-0.362,3.9759989-0.0710011,3.8799987,0.0039992,4.0839996C0.0939999,4.2910004-0.1400003,4.6479988-0.7999997,5.323
		c-1.3560004,1.3709993-2.1240005,1.6409998-3.6000009,1.2750006C-5.4409995,6.3339996-5.7979994,6.5140009-5.7379994,7.230999
		c0.0419998,0.5040007,0.2100005,0.7469988,0.6870003,0.9840002C-4.7420001,8.3800001-4.5980005,8.401-3.9979997,8.401
		c0.5640006-0.0090008,0.7589993-0.0360003,1.0620003-0.1710005C-2.414,7.9899998-1.2680001,7.2099991-0.6199999,6.6459999
		c0.7919998-0.6960011,1.0980005-0.8280001,1.0980005-0.4859991c0,0.3360014-1.2899995,2.1119986-2.0579996,2.823
		C-1.8770003,9.25-2.3179998,9.5679998-2.5880003,9.6999989c-0.4500003,0.2220011-0.5459991,0.243001-1.1519995,0.2370014
		c-0.3599997,0-0.8909998-0.0150003-1.1790004-0.0360003c-0.6300001-0.0360003-0.8339996,0.0870008-0.8339996,0.5040007
		c0,0.3900003,0.5460005,0.9060001,1.125,1.0770006c1.1940007,0.3509989,2.4990005-0.2550001,4.1129994-1.8990011
		c1.1939993-1.2180004,1.3649998-1.1400003,0.6630006,0.3120003c-0.75,1.5510006-1.6950002,2.657999-2.6729994,3.1230011
		c-0.5070004,0.2340002-0.6359997,0.2519989-1.9470005,0.1889992C-5.0509992,13.177-5.3150001,13.3300018-5.3150001,13.6870003
		c0,0.1829996,0.0659995,0.3120003,0.2700005,0.5159998c0.75,0.75,1.9860005,0.7740011,3.2489991,0.0810013
		c0.711-0.3959999,2.4420004-2.2919998,3.4019995-3.7349997c0.513-0.7679987,0.6450005-0.8640003,0.8220005-0.5939999
		c0.1079993,0.1619997,0.1140003,0.2519989,0.0510006,0.6030006c-0.2039995,1.0859985-0.7230005,1.9110003-1.5090008,2.4239988
		c-0.5070004,0.3239994-0.6240005,0.5130014-0.5310001,0.8160009c0.1170001,0.375,0.8339996,0.5550013,1.2719994,0.3270006
		c0.5219994-0.2640009,1.1820002-1.2600002,1.8270006-2.7480011c0.4619994-1.0620003,0.4919987-1.1009989,0.7199993-1.1009989
		c0.5939999,0,0.3869991,1.2509995-0.3389997,2.0760012c-0.3239994,0.3659992-0.375,0.6149998-0.1469994,0.8220005
		c0.1890006,0.177,0.4770012,0.1080008,0.980999-0.2130003c0.4680004-0.3000011,0.7259989-0.605999,1.0679998-1.269001
		c0.4320002-0.8280001,0.6119986-0.6120014,0.2580013,0.3089991c-0.4890003,1.3199987-1.6679993,2.4899998-3.3150001,3.3270006
		C2.5089993,15.451004,2.302,15.5800018,2.302,15.6010017c0,0.0240011,0.1469994,0.2130003,0.3300004,0.4109993
		c0.1829996,0.2040005,0.3270006,0.3900013,0.3270006,0.4230003c0,0.0720005-1.0020003,0.5279999-2.1900001,0.980999
		l-1.0590005,0.4109993L-0.836,17.4820023c-0.7559996-0.4620018-1.1729994-0.8070011-1.2600002-1.0410004
		c-0.177-0.4560022-0.7410007-0.7560005-1.1610003-0.6090012C-3.4039998,15.8830013-3.5809999,15.8740005-3.8600011,15.802
		C-4.5079999,15.6369991-4.8980002,16.1529999-5,16.4169998c0.2249994,0.0359993,0.1140003,0.0270004,0.2730002,0.0179977
		c0.6599994-0.0299988,0.7260003-0.0089989,1.0109997,0.2850018c0.2999997,0.309,0.7020006,0.4619999,1.026,0.4019985
		c0.1469994-0.0299988,0.336,0.0510025,0.7919998,0.3540001c0.336,0.2130013,0.6090002,0.4080009,0.6090002,0.4379997
		c0,0.0750008-0.3449993,0.0750008-1.4130006-0.0149994c-0.7620006-0.0569992-0.8909998-0.0870018-1.0889997-0.2490005
		c-0.2999997-0.2550011-0.6450005-0.3089981-0.9749994-0.1560001c-0.1469994,0.0720005-0.4050007,0.1319981-0.5910001,0.1410007
		c-0.198,0.0089989-0.4019995,0.0689983-0.5310001,0.1590004c-0.2130003,0.1619987-0.3569999,0.2459984-0.4559999,0.5639992
		C-5.948,18.3519974-6.0769992,18.3519974-5.789,18.3159981C-5.2999997,18.2439995-5.2429996,18.25-5.0900006,18.3879986
		C-4.9940004,18.4689999-4.8500009,18.579998-4.763,18.6279984c0.2189999,0.1080017,0.7260003,0.1020012,0.9689999-0.032999
		c0.1530004-0.0720005,0.5009995-0.1020012,1.2990003-0.1079998c0.6030006-0.0090027,1.125-0.0090027,1.164,0
		c0.0419998,0-0.1950002,0.1619987-0.5250006,0.3599987C-2.420001,19.1919975-2.474,19.2039986-2.9600005,19.1949997
		C-3.605001,19.185997-3.9710002,19.3779984-4.073,19.7889977c-0.0360003,0.1469994-0.1049995,0.4110012-0.1469994,0.5730019
		c-0.1049995,0.3899994-0.1409998,0.4499969,0.1439996,1.1189995c0.3120003-0.7350006,0.2069993-0.5129986,0.3029995-0.651001
		c0.1530004-0.2280006,0.2130003-0.2609978,0.5789995-0.2910004c0.5070004-0.0419998,0.7440004-0.197998,0.9329996-0.6030006
		c0.1229997-0.2789993,0.2609997-0.3959999,0.9359994-0.8129997c0.9240003-0.5699978,0.8670001-0.5699978,1.9080005-0.0869999
		c0.513,0.2430019,0.7020006,0.3659992,0.7919998,0.5340023c0.1530004,0.3089981,0.4829993,0.4259987,0.849,0.3179989
		c0.3449993-0.1049995,0.4949999-0.0450001,0.7319999,0.2850018c0.099,0.144001,0.1079993,0.1139984,0.2520003,0.2490005
		c0.039-0.2040005,0.0419998-0.2340012,0.0419998-0.4410019c0-0.3000011-0.0360003-0.3600006-0.4229994-0.7560005
		c-0.4559999-0.4560013-0.7319999-0.5789986-1.0620003-0.4529991c-0.1530004,0.0569992-0.2819996,0.0359993-0.6779995-0.144001
		c-0.4409995-0.198-0.612-0.3600006-0.3839993-0.3600006c0.0419998,0,0.7559996-0.2639999,1.5689993-0.5789986l1.4790001-0.573
		l0.2189999,0.177c0.4019995,0.3180008,1.0439987,0.6090012,1.323,0.6090012c0.2550001,0,0.2879992-0.0209999,0.3690004-0.2850018
		c0.1230011-0.4169998,0.980999-2.0670004,1.4429998-2.7719994c0.7679987-1.1879997,1.1910009-1.4969988,1.5390015-1.1159992
		C8.7520018,13.8520012,8.7850008,13.993001,8.776,14.4489994c-0.0150003,1.3409986-0.7769995,3.0930004-1.7819996,4.0830002
		c-0.5279989,0.527998-1.1070013,0.816-1.8120003,0.9179993C4.6419992,19.5219994,4.276,19.6599979,4.276,19.7980003
		c0,0.1469994,0.3599997,0.572998,0.5880003,0.6899986c0.198,0.1049995,0.3900003,0.1230011,0.8070002,0.1079998
		c0.506999-0.0240002,0.5999994-0.0479984,1.0830002-0.342001c0.474-0.2849998,0.5489988-0.3120003,0.6450005-0.2159996
		c0.0959988,0.0960007,0.1049995,0.1650009,0.0300007,0.4290009c-0.1529989,0.5699978-0.5610008,0.8310013-1.5150003,0.9510002
		c-0.9749994,0.1230011-1.3050013,0.420002-0.980999,0.8759995c0.2130003,0.2939987,0.5789995,0.4470005,1.0830002,0.4470005
		c0.5699987,0,1.0649986-0.2519989,1.7160015-0.8669987C8.0110054,21.6189995,8.2690039,21.427,8.3110037,21.4570007
		c0.1049995,0.0569992,0.0959988,0.6450005-0.0150003,1.0050011c-0.1049995,0.3449974-0.5639992,0.8880005-0.8430004,0.9959984
		c-0.1140032,0.0419998-0.3960028,0.132-0.6240034,0.1889992c-0.7979994,0.2189999-0.9119997,0.5310001-0.3480005,0.9029999
		c0.3659992,0.243,0.9749994,0.2609978,1.4219999,0.0479984c0.2939987-0.1319981,1.1009989-0.8879986,1.2540007-1.1610012
		c0.131999-0.243,0.2700005-0.0629997,0.2280006,0.2970009c-0.0300007,0.3000011-0.2039995,0.6389999-0.6030006,1.1940002
		c-0.3239994,0.441-0.2099991,1.0349998,0.3389997,1.8389988c0.3060007,0.453001,0.5699987,0.75,0.7530012,0.8879986v0.0240021
		c0.0419998,0.0359993,0.0839996,0.066,0.1140003,0.0779991c0.032999-0.0119991,0.0720005-0.0419998,0.1140003-0.0779991V27.654995
		c0.1800013-0.1379986,0.4470005-0.4350014,0.7530012-0.8879986c0.5489988-0.8070011,0.6629992-1.4009991,0.3389997-1.8389988
		c-0.3959999-0.5550022-0.573-0.8969994-0.6030006-1.1940002c-0.0419998-0.3600006,0.0959988-0.5400009,0.2280006-0.2970009
		c0.1529989,0.2700005,0.9599991,1.0290031,1.2540007,1.1610012c0.4470005,0.2129993,1.0529995,0.1919994,1.4219999-0.0479984
		c0.5639992-0.375,0.4499989-0.684-0.3480005-0.9029999C12.9190016,23.5900002,12.637002,23.5,12.5290012,23.4580002
		C12.25,23.3499985,11.788002,22.8039989,11.6860008,22.4620018c-0.1080008-0.3600006-0.1169987-0.9449997-0.0150003-1.0050011
		C11.7130003,21.427,11.9710016,21.6189995,12.25,21.8740005c0.6540012,0.6149998,1.1459999,0.8669987,1.7160015,0.8669987
		c0.506999,0,0.8730011-0.152998,1.0830002-0.4470005c0.3239994-0.4560013-0.0090008-0.7530022-0.980999-0.8759995
		c-0.9539995-0.1169987-1.3620014-0.3810005-1.5150003-0.9510002c-0.0749989-0.2640018-0.0660009-0.3330002,0.0300007-0.4290009
		c0.0959988-0.0959969,0.1679993-0.0689983,0.6450005,0.2159996c0.4830008,0.2939987,0.5789995,0.3210011,1.0830002,0.342001
		c0.4169998,0.0150013,0.6090002-0.0059986,0.8070002-0.1079998c0.2280006-0.1170006,0.5880003-0.5429993,0.5880003-0.6899986
		c0-0.1380005-0.3659992-0.276001-0.9060001-0.3480015c-0.7020006-0.1049995-1.2810001-0.3900013-1.8120003-0.9179993
		c-1.0050001-0.9899998-1.7669992-2.7419987-1.7819996-4.0830002c-0.0090008-0.4560013,0.0240011-0.5970011,0.131999-0.7199993
		c0.3449993-0.3809996,0.7650003-0.0720005,1.5390015,1.1159992c0.4620008,0.7020006,1.3199987,2.3549995,1.4429998,2.7719994
		c0.0810013,0.2640018,0.1080008,0.2850018,0.3690004,0.2850018c0.2790012,0,0.9179993-0.2939987,1.323-0.6090012l0.2189999-0.177
		l1.4790001,0.573c0.816,0.3149986,1.5269985,0.5789986,1.5689983,0.5789986c0.2280006,0,0.0570011,0.1620007-0.3839989,0.3600006
		c-0.3959999,0.1800003-0.5219994,0.2010002-0.6780014,0.144001c-0.3269997-0.1230011-0.6089993,0-1.0620003,0.4529991
		c-0.3899994,0.3959999-0.4229984,0.4560013-0.4229984,0.7560005c0,0.2039986,0.0030003,0.2340012,0.0419998,0.4410019
		c0.1469994-0.132,0.152998-0.1080017,0.2519989-0.2490005c0.2339993-0.3299999,0.3869991-0.387001,0.7320004-0.2850018
		c0.3660011,0.1079998,0.696003-0.0090008,0.8490009-0.3179989c0.0899982-0.1679993,0.2790012-0.2910004,0.7919998-0.5340023
		c1.0439987-0.4829998,0.9839993-0.4829998,1.907999,0.0869999c0.6750011,0.4169998,0.8129997,0.5370007,0.9360008,0.8129997
		c0.1889992,0.4020004,0.4260006,0.5580006,0.9329987,0.6030006c0.3660011,0.0300026,0.4260025,0.0660019,0.5790005,0.2910004
		c0.0959988,0.1410007-0.0090008-0.0839996,0.3029995,0.651001c0.2849998-0.6720009,0.2490005-0.7320023,0.144001-1.1189995
		c-0.0419998-0.1620007-0.1110001-0.4260025-0.1469994-0.5730019c-0.1049995-0.4109993-0.4680004-0.6030006-1.1130009-0.593998
		c-0.4829998,0.0089989-0.5400009-0.0030022-1.1040001-0.3480015c-0.3270016-0.198-0.5699978-0.3599987-0.5249996-0.3599987
		c0.0359993-0.0090027,0.5610008-0.0090027,1.1639977,0c0.8010006,0.0089989,1.1459999,0.0359993,1.2989998,0.1079998
		c0.243,0.1319981,0.75,0.1410007,0.968998,0.032999c0.0900002-0.0419998,0.2340012-0.1560001,0.3270016-0.2399998
		c0.152998-0.1379986,0.2070007-0.144001,0.6960011-0.0720005c0.2849998,0.0359993,0.1560001,0.0359993,0.5550003,0.0419998
		C26.2360001,18.0340004,26.092001,17.9529991,25.8790016,17.7910004z M15.3280001-6.2899995
		C15.4840002-6.3919992,15.1900015-6.6889992,15.5109997-6.677c0.0749989,0.0029998,0.1800013,0.0239997,0.3330002,0.0629997
		C16.0779991-6.5720005,16.1949997-6.3110008,16.0480003-6.164C15.901-6.0079999,15.0939999-5.9539995,14.9379997-6.0770006
		C14.6679993-6.8090005,15.1390009-6.164,15.3280001-6.2899995z M5.0589991-6.0739994
		C4.9029989-5.9509997,4.0959988-6.0079999,3.9489994-6.1609988C3.802-6.3079982,3.9159989-6.5659995,4.1529989-6.6109991
		c0.1529989-0.0419998,0.2609997-0.0629997,0.3330002-0.0659995c0.3240023-0.012002,0.0300007,0.2879992,0.1860008,0.3869991
		C4.8609991-6.164,5.3320007-6.8090005,5.0589991-6.0739994z"/>
</g>
<g id="Layer_2_1_">
</g>
<path class="st1" d="M10-18.5c15.5999985,0,28.5,12.9000006,28.5,28.5S25.5999985,38.5,10,38.5S-18.5,25.5999985-18.5,10
	S-5.5999994-18.5,10-18.5 M10-20C-6.5-20-20-6.5-20,10s13.5,30,30,30s30-13.5,30-30S26.5-20,10-20L10-20z"/>
</svg>
