<?xml version="1.0" encoding="utf-8"?>
<svg version="1.1" id="Layer_1" xmlns="http://www.w3.org/2000/svg" xmlns:xlink="http://www.w3.org/1999/xlink" x="0px" y="0px"
	 viewBox="-22 -22 64 64" style="enable-background:new 0 0 20 20;" xml:space="preserve">
<style type="text/css">
	.st0{fill:#FFFFFF;stroke:#B6B6B6;stroke-width:0.15;}
	.st1{fill:#DC171D;}
	.st2{fill:#00007B;}
	.st3{fill:#FFFFFF;}
	.st4{fill:#CCCCCC;}
</style>
<g id="Layer_1_1_">
	<circle class="st0" cx="10" cy="10" r="28.8000011"/>
	<path class="st1" d="M19.5999985,0.4000006v-17.526001C16.5909996-18.1879997,13.3719988-18.7999992,10-18.7999992
		s-6.5910001,0.6119995-9.5999994,1.6739998v17.526001H19.5999985L19.5999985,0.4000006z"/>
	<path class="st1" d="M19.5999985,19.5999985H0.4000006v17.5289993C3.4089999,38.1879997,6.6280012,38.8000031,10,38.8000031
		s6.5910015-0.6120033,9.5999985-1.6740036V19.5999985z"/>
	<path class="st2" d="M19.5999985,19.5999985h17.5289993C38.1909981,16.5939999,38.8030014,13.3719988,38.8030014,10
		s-0.6120033-6.5910001-1.6740036-9.5999994h-17.526001H0.4000006h-17.526001
		C-18.1879997,3.4089999-18.7999992,6.6280012-18.7999992,10s0.6119995,6.5910015,1.6739998,9.5999985h17.526001H19.5999985z"/>
	<polygon class="st3" points="10,1.198 9.2559996,3.4840002 10.3990011,3.8530006 	"/>
	<polygon class="st3" points="10,1.198 10.7440004,3.4840002 9.6009989,3.8530006 	"/>
	<polygon class="st3" points="12.282999,2.8569999 9.8830013,2.8569999 9.8830013,4.0600014 	"/>
	<polygon class="st3" points="12.282999,2.8569999 10.3389997,4.2700005 9.6340008,3.2979994 	"/>
	<polygon class="st3" points="7.717001,2.8569999 9.6610003,4.2700005 10.3630009,3.2979994 	"/>
	<polygon class="st3" points="7.717001,2.8569999 10.1169987,2.8569999 10.1169987,4.0600014 	"/>
	<polygon class="st3" points="11.4100008,5.5419998 10.6689987,3.2589993 9.5290012,3.6279998 	"/>
	<polygon class="st3" points="11.4100008,5.5419998 9.4689999,4.131999 10.177,3.1599994 	"/>
	<polygon class="st3" points="8.5899992,5.5419998 10.5310001,4.131999 9.823,3.1599994 	"/>
	<polygon class="st3" points="8.5899992,5.5419998 9.3310013,3.2589993 10.4709988,3.6279998 	"/>
	<polygon class="st3" points="22.7980003,6.5019989 22.0600014,8.7850008 23.1999989,9.1569996 	"/>
	<polygon class="st3" points="22.7980003,6.5019989 23.5419998,8.7850008 22.4020004,9.1569996 	"/>
	<polygon class="st3" points="25.0839996,8.1610003 22.6839981,8.1610003 22.6839981,9.3609991 	"/>
	<polygon class="st3" points="25.0839996,8.1610003 23.1399994,9.5710011 22.4350014,8.599 	"/>
	<polygon class="st3" points="20.5179977,8.1610003 22.4589996,9.5710011 23.1639977,8.599 	"/>
	<polygon class="st3" points="20.5179977,8.1610003 22.9179993,8.1610003 22.9179993,9.3609991 	"/>
	<polygon class="st3" points="24.2110023,10.8430004 23.4699993,8.5600014 22.3269997,8.9320002 	"/>
	<polygon class="st3" points="24.2110023,10.8430004 22.2700005,9.4329996 22.9749985,8.4610014 	"/>
	<polygon class="st3" points="21.3909988,10.8430004 23.3320007,9.4329996 22.6269989,8.4610014 	"/>
	<polygon class="st3" points="21.3909988,10.8430004 22.132,8.5600014 23.2719994,8.9320002 	"/>
	<polygon class="st3" points="15.3010006,13.9990005 14.5629997,16.2819996 15.7030001,16.6540012 	"/>
	<polygon class="st3" points="15.3010006,13.9990005 16.0419998,16.2819996 14.9019995,16.6540012 	"/>
	<polygon class="st3" points="17.5839996,15.657999 15.1839991,15.657999 15.1839991,16.8580017 	"/>
	<polygon class="st3" points="17.5839996,15.657999 15.6429987,17.0710011 14.9350014,16.0959988 	"/>
	<polygon class="st3" points="13.0179987,15.657999 14.9620008,17.0710011 15.6639986,16.0959988 	"/>
	<polygon class="st3" points="13.0179987,15.657999 15.4210005,15.657999 15.4210005,16.8580017 	"/>
	<polygon class="st3" points="16.7140007,18.3400002 15.9699993,16.0600014 14.829999,16.4319992 	"/>
	<polygon class="st3" points="16.7140007,18.3400002 14.7729988,16.9329987 15.4780006,15.9580002 	"/>
	<polygon class="st3" points="13.8909998,18.3400002 15.8320007,16.9329987 15.1269989,15.9580002 	"/>
	<polygon class="st3" points="13.8909998,18.3400002 14.6350002,16.0600014 15.7750006,16.4319992 	"/>
	<polygon class="st3" points="-2.7979994,6.5019989 -2.0599999,8.7850008 -3.2000003,9.1569996 	"/>
	<polygon class="st3" points="-2.7979994,6.5019989 -3.5419998,8.7850008 -2.4019995,9.1569996 	"/>
	<polygon class="st3" points="-5.0839996,8.1610003 -2.6840005,8.1610003 -2.6840005,9.3609991 	"/>
	<polygon class="st3" points="-5.0839996,8.1610003 -3.1400003,9.5710011 -2.4349999,8.599 	"/>
	<polygon class="st3" points="-0.5180001,8.1610003 -2.4589996,9.5710011 -3.164,8.599 	"/>
	<polygon class="st3" points="-0.5180001,8.1610003 -2.9180007,8.1610003 -2.9180007,9.3609991 	"/>
	<polygon class="st3" points="-4.211,10.8430004 -3.4699993,8.5600014 -2.3270006,8.9320002 	"/>
	<polygon class="st3" points="-4.211,10.8430004 -2.2700005,9.4329996 -2.9749994,8.4610014 	"/>
	<polygon class="st3" points="-1.3909998,10.8430004 -3.3319993,9.4329996 -2.6270003,8.4610014 	"/>
	<polygon class="st3" points="-1.3909998,10.8430004 -2.1320004,8.5600014 -3.2719994,8.9320002 	"/>
	<polygon class="st3" points="4.6989994,13.9990005 5.4370003,16.2819996 4.2969999,16.6540012 	"/>
	<polygon class="st3" points="4.6989994,13.9990005 3.9580002,16.2819996 5.0980005,16.6540012 	"/>
	<polygon class="st3" points="2.4160004,15.657999 4.8160009,15.657999 4.8160009,16.8580017 	"/>
	<polygon class="st3" points="2.4160004,15.657999 4.3570013,17.0710011 5.0649986,16.0959988 	"/>
	<polygon class="st3" points="6.9820013,15.657999 5.0379992,17.0710011 4.3360014,16.0959988 	"/>
	<polygon class="st3" points="6.9820013,15.657999 4.5789995,15.657999 4.5789995,16.8580017 	"/>
	<polygon class="st3" points="3.2860003,18.3400002 4.0300007,16.0600014 5.170001,16.4319992 	"/>
	<polygon class="st3" points="3.2860003,18.3400002 5.2270012,16.9329987 4.5219994,15.9580002 	"/>
	<polygon class="st3" points="6.1090002,18.3400002 4.1679993,16.9329987 4.8730011,15.9580002 	"/>
	<polygon class="st3" points="6.1090002,18.3400002 5.3649998,16.0600014 4.2249994,16.4319992 	"/>
</g>
<g id="Layer_2_1_">
</g>
<path class="st4" d="M10-18.5c15.5999985,0,28.5,12.9000006,28.5,28.5S25.5999985,38.5,10,38.5S-18.5,25.5999985-18.5,10
	S-5.5999994-18.5,10-18.5 M10-20C-6.5-20-20-6.5-20,10s13.5,30,30,30s30-13.5,30-30S26.5-20,10-20L10-20z"/>
</svg>
