<?xml version="1.0" encoding="utf-8"?>
<svg version="1.1" id="Layer_1" xmlns="http://www.w3.org/2000/svg" xmlns:xlink="http://www.w3.org/1999/xlink" x="0px" y="0px"
	 viewBox="-22 -22 64 64" style="enable-background:new 0 0 20 20;" xml:space="preserve">
<style type="text/css">
	.st0{fill:#CE1126;}
	.st1{fill:#F9D616;}
	.st2{fill:#CCCCCC;}
</style>
<g id="Layer_1_1_">
	<g>
		<path class="st0" d="M10-18.7999992C-5.9060001-18.7999992-18.8000011-5.9060001-18.8000011,10h57.6000061
			C38.8000031-5.9060001,25.9060001-18.7999992,10-18.7999992z"/>
		<path d="M38.8000031,10h-57.6000023c0,15.9060001,12.8939991,28.8000031,28.7999992,28.8000031
			S38.8000031,25.9060001,38.8000031,10z"/>
	</g>
	<g>
		<path class="st1" d="M26.2390003,26.6829987c-0.4470005-0.7259979-0.9990005-1.2599983-1.7160015-1.8959999
			c-0.7199993-0.6389999-1.7099991-1.3409977-2.448-2.0550003l-1.4009991,1.6409988
			c-0.0600014,0.0690002-0.0360012,0.2280006,0.0359993,0.2430019c1.5720005,0.2700005,2.0610008,0.828001,2.6910019,1.3589993
			c0.8429985,0.8549995,1.1879997,1.887001,1.7399979,2.2679996C26.1609993,28.9509983,26.8929977,27.7480011,26.2390003,26.6829987
			z M22.5579987,24.0760002c-0.1020012,0-0.1919994-0.0929985-0.1919994-0.1919994
			c0-0.1020012,0.0930004-0.1919994,0.1919994-0.1919994c0.0990009,0,0.1920013,0.0929985,0.1920013,0.1919994
			S22.6569996,24.0760002,22.5579987,24.0760002z M23.9799995,25.3149986c-0.1020012,0-0.1920013-0.0930004-0.1920013-0.1920013
			c0-0.1020012,0.0930023-0.1919994,0.1920013-0.1919994c0.1020012,0,0.1920013,0.0930004,0.1920013,0.1919994
			C24.1750011,25.2249985,24.0820007,25.3149986,23.9799995,25.3149986z M25.230999,26.5900002
			c-0.1020012,0-0.1920013-0.0930023-0.1920013-0.1920013S25.132,26.2059975,25.230999,26.2059975
			s0.1920013,0.0930023,0.1920013,0.1920013C25.4260006,26.4969978,25.3330002,26.5900002,25.230999,26.5900002z"/>
		<polygon class="st1" points="6.9520006,9.0100002 10,6.7960005 13.0479994,9.0100002 11.8840008,5.4279995 14.9320002,3.2139997 
			11.1639986,3.2139997 10,-0.3679996 8.8360014,3.2139997 5.0679998,3.2139997 8.1159992,5.4279995 		"/>
		<path class="st1" d="M13.5999994,20.5930004C12.4630003,20.9799995,11.2659998,21.2380009,10,21.2380009
			c-2.6999989,0-5.1479988-0.9990005-7.086-2.592001l-1.6409998,2.0009995
			C1.9630003,21.2140007,2.7250009,21.6970005,3.5140009,22.132l-0.5759997,1.0739975
			c0.8640003,0.4620018,1.7730002,0.8370018,2.7119994,1.1219997l0.3509989-1.157999
			c0.849,0.2669983,1.7340002,0.4410019,2.6459999,0.5340004l-0.1169987,1.2000027
			c0.9749994,0.0990009,1.9589996,0.0990009,2.9370003,0l-0.1169987-1.2089996
			c0.9119997-0.0899982,1.7939987-0.2609997,2.6459999-0.5219994l0.3509989,1.157999
			c0.4680004-0.1409988,0.9000006-0.375,1.3499994-0.5579987l-0.5909986-2.2860012L13.5999994,20.5930004z"/>
		<path class="st1" d="M21.2320023,10.0059996c0,3.4410009-1.5810013,6.4830008-4.0200005,8.5410013l3.1380005,2.1779976
			c0.4139977-0.3990002,0.8580017-0.7769985,1.223999-1.223999l-0.9360008-0.7679977
			c0.5730019-0.696003,1.071003-1.4430008,1.5-2.2440014l1.0680008,0.5699978
			c0.4620018-0.8639984,0.8370018-1.7729979,1.1219978-2.7119999l-1.1639977-0.3509989
			c0.2580013-0.8520012,0.4289989-1.7340002,0.519001-2.6459999l1.2150002,0.1199999
			C25,10.4919987,25,9.5109997,24.901001,8.5300007l-1.2060013,0.1199999
			c-0.0900002-0.9119997-0.2640018-1.7939987-0.5250015-2.6459999l1.1609993-0.3509989
			c-0.2849998-0.9389992-0.6629982-1.8449993-1.1219978-2.7119994l-1.0739994,0.573
			c-0.4320011-0.7979994-0.9300022-1.5479994-1.5059986-2.2379994l0.947998-0.7769995
			c-0.6240005-0.7590036-1.3169994-1.458003-2.0789986-2.0790038l-0.7800007,0.9539995
			c-0.6960011-0.5640006-1.4399986-1.0739994-2.2409992-1.4970002l0.5789986-1.086
			c-0.8639984-0.4619994-1.7729979-0.8369994-2.7119999-1.1220002l-0.3570013,1.1729994
			c-0.8220005-0.2490005-1.6739988-0.4229994-2.5529995-0.5159998l-0.2729988,2.5620003
			C16.8100014-0.5180001,21.2320023,4.2039995,21.2320023,10.0059996z"/>
		<path class="st1" d="M16.8249989,20.1669998c-2.9730005-2.0970001-6.0510006-4.2600002-8.6369991-6.6989994
			c-0.0570002-0.0539989-0.0600014-0.1469994-0.0059996-0.2010012c0.0570002-0.0600014,0.1469994-0.0629997,0.2039995-0.0059996
			c2.5710011,2.4210005,5.6400003,4.5810013,8.6040001,6.6689987c1.4609985,1.0290012,2.9699993,2.0879993,4.3979988,3.1679993
			l0.3959999-0.4649982C16.8519974,19.1079979,5.1760006,10.9989977,5.0289984,8.0439987
			c-2.3040004,4.5,0.6149998,7.1879997,2.4990005,8.2590008c4.7879992,2.7240009,7.9680004,4.5180016,12.9689989,7.8449993
			l0.7049999-0.8279991C19.7800007,22.2490005,18.2800007,21.1899986,16.8249989,20.1669998z"/>
	</g>
</g>
<g id="Layer_2_1_">
</g>
<path class="st2" d="M10-18.5c15.5999985,0,28.5,12.9000006,28.5,28.5S25.5999985,38.5,10,38.5S-18.5,25.5999985-18.5,10
	S-5.5999994-18.5,10-18.5 M10-20C-6.5-20-20-6.5-20,10s13.5,30,30,30s30-13.5,30-30S26.5-20,10-20L10-20z"/>
</svg>
