<?xml version="1.0" encoding="utf-8"?>
<svg version="1.1" id="Layer_1" xmlns="http://www.w3.org/2000/svg" xmlns:xlink="http://www.w3.org/1999/xlink" x="0px" y="0px"
	 viewBox="-22 -22 64 64" style="enable-background:new 0 0 20 20;" xml:space="preserve">
<style type="text/css">
	.st0{fill:#FFFFFF;stroke:#B6B6B6;stroke-width:0.15;}
	.st1{fill:#75AADB;}
	.st2{fill:#FCBF49;}
	.st3{fill:none;stroke:#843511;stroke-width:0.0768;}
	.st4{fill:#843511;}
	.st5{fill:none;stroke:#843511;stroke-width:0.0513;}
	.st6{fill:#CCCCCC;}
</style>
<g id="Layer_1_1_">
	<circle class="st0" cx="10" cy="10" r="28.8000011"/>
	<path class="st1" d="M10-18.7999992c-12.5340004,0-23.1690006,8.0219994-27.1259995,19.2000008h54.2519989
		C33.1689987-10.7779999,22.5340004-18.7999992,10-18.7999992z"/>
	<path class="st1" d="M37.1259995,19.5999985h-54.2519989C-13.1690006,30.7810001-2.5339999,38.8000031,10,38.8000031
		S33.1689987,30.7780018,37.1259995,19.5999985z"/>
	<path class="st2" d="M9.6040001,10l0.2939987,7.8510017c0,0,0,0.1469994,0.099,0.1469994s0.099-0.1469994,0.099-0.1469994
		L10.3959999,10"/>
	<path class="st3" d="M9.6040001,10l0.2939987,7.8510017c0,0,0,0.1469994,0.099,0.1469994s0.099-0.1469994,0.099-0.1469994
		L10.3959999,10"/>
	<polyline class="st4" points="9.8050013,10 10,15.3909998 10.1949987,10 	"/>
	<path class="st2" d="M9.2559996,12.5379992c-0.4530001,0.9869986-0.0629997,1.7939987-0.5159998,2.657999
		c-0.4530001,0.8639994-0.1710005,1.5719995-0.198,1.9709978c-0.032999,0.3959999-0.3540001,0.507-0.2729988,0.6000004
		s0.420001-0.0899982,0.552-0.6149998c0.131999-0.5279999-0.1829996-0.8279991,0.3570013-1.8869991
		s0.1109991-1.5360003,0.6540012-2.480999"/>
	<path class="st3" d="M9.2559996,12.5379992c-0.4530001,0.9869986-0.0629997,1.7939987-0.5159998,2.657999
		c-0.4530001,0.8639994-0.1710005,1.5719995-0.198,1.9709978c-0.032999,0.3959999-0.3540001,0.507-0.2729988,0.6000004
		s0.420001-0.0899982,0.552-0.6149998c0.131999-0.5279999-0.1829996-0.8279991,0.3570013-1.8869991
		s0.1109991-1.5360003,0.6540012-2.480999"/>
	<path class="st4" d="M9.3850002,12.7869997c-0.3509989,0.9840002,0.0209999,1.6350002-0.4530001,2.4720011
		c0.5250006-0.5970011,0.1800013-1.3709993,0.6359997-2.381999"/>
	<path class="st2" d="M10.3959999,10l-0.2939987-7.8540001c0,0,0-0.1469994-0.099-0.1469994s-0.099,0.1469994-0.099,0.1469994
		L9.6040001,10"/>
	<path class="st3" d="M10.3959999,10l-0.2939987-7.8540001c0,0,0-0.1469994-0.099-0.1469994s-0.099,0.1469994-0.099,0.1469994
		L9.6040001,10"/>
	<polyline class="st4" points="10.1949987,10 10,4.6090002 9.8050013,10 	"/>
	<path class="st2" d="M10.7440004,7.4620008c0.4530001-0.9869986,0.0629997-1.7939987,0.5159998-2.657999
		s0.1710005-1.5720005,0.198-1.9710002c0.032999-0.3959999,0.3540001-0.5070004,0.2729988-0.5999994
		c-0.0810013-0.0930004-0.420001,0.0900006-0.552,0.6149998c-0.131999,0.5280004,0.1829996,0.8280001-0.3599997,1.8870006
		c-0.5400009,1.0560007-0.1109991,1.5360003-0.6540012,2.480999"/>
	<path class="st3" d="M10.7440004,7.4620008c0.4530001-0.9869986,0.0629997-1.7939987,0.5159998-2.657999
		s0.1710005-1.5720005,0.198-1.9710002c0.032999-0.3959999,0.3540001-0.5070004,0.2729988-0.5999994
		c-0.0810013-0.0930004-0.420001,0.0900006-0.552,0.6149998c-0.131999,0.5280004,0.1829996,0.8280001-0.3599997,1.8870006
		c-0.5400009,1.0560007-0.1109991,1.5360003-0.6540012,2.480999"/>
	<path class="st4" d="M10.6149998,7.2130003c0.3509989-0.9840002-0.0179987-1.6350002,0.4530001-2.4720011
		c-0.5219994,0.5970011-0.177,1.3709993-0.6330013,2.381999"/>
	<path class="st2" d="M10,9.6040001L2.1459999,9.901c0,0-0.1469994,0-0.1469994,0.099s0.1469994,0.099,0.1469994,0.099
		L10,10.3959999"/>
	<path class="st3" d="M10,9.6040001L2.1459999,9.901c0,0-0.1469994,0-0.1469994,0.099s0.1469994,0.099,0.1469994,0.099
		L10,10.3959999"/>
	<polyline class="st4" points="10,9.8050013 4.6090002,10 10,10.1949987 	"/>
	<path class="st2" d="M7.4620008,9.2559996C6.4749994,8.8060007,5.6679993,9.1929998,4.8039989,8.7399998
		c-0.8639989-0.4499989-1.5719991-0.1679993-1.967999-0.198S2.3319993,8.1879997,2.2390003,8.269001
		c-0.0930004,0.0839996,0.0900006,0.420001,0.6149998,0.552c0.5280004,0.131999,0.8280001-0.1829996,1.8869991,0.3570013
		s1.5360003,0.1109991,2.480999,0.6540012"/>
	<path class="st3" d="M7.4620008,9.2559996C6.4749994,8.8060007,5.6679993,9.1929998,4.8039989,8.7399998
		c-0.8639989-0.4499989-1.5719991-0.1679993-1.967999-0.198S2.3319993,8.1879997,2.2390003,8.269001
		c-0.0930004,0.0839996,0.0900006,0.420001,0.6149998,0.552c0.5280004,0.131999,0.8280001-0.1829996,1.8869991,0.3570013
		s1.5360003,0.1109991,2.480999,0.6540012"/>
	<path class="st4" d="M7.2130003,9.3850002C6.2259989,9.0310001,5.5749989,9.4000006,4.7409992,8.9289989
		c0.5970011,0.5250006,1.3709993,0.1800013,2.381999,0.6359997"/>
	<path class="st2" d="M10,10.3959999l7.8510017-0.2939987c0,0,0.1469994,0,0.1469994-0.099s-0.1469994-0.099-0.1469994-0.099
		L10,9.6040001"/>
	<path class="st3" d="M10,10.3959999l7.8510017-0.2939987c0,0,0.1469994,0,0.1469994-0.099s-0.1469994-0.099-0.1469994-0.099
		L10,9.6040001"/>
	<polyline class="st4" points="10,10.1949987 15.3909998,10 10,9.8050013 	"/>
	<path class="st2" d="M12.5379992,10.7440004c0.9869986,0.4530001,1.7939987,0.0629997,2.657999,0.5159998
		c0.8639994,0.4530001,1.5719995,0.1710005,1.9709978,0.198c0.3959999,0.032999,0.507,0.3540001,0.6000004,0.2729988
		s-0.0899982-0.420001-0.6149998-0.552c-0.5279999-0.131999-0.8279991,0.1829996-1.8869991-0.3599997
		c-1.0560007-0.5400009-1.5360003-0.1109991-2.480999-0.6540012"/>
	<path class="st3" d="M12.5379992,10.7440004c0.9869986,0.4530001,1.7939987,0.0629997,2.657999,0.5159998
		c0.8639994,0.4530001,1.5719995,0.1710005,1.9709978,0.198c0.3959999,0.032999,0.507,0.3540001,0.6000004,0.2729988
		s-0.0899982-0.420001-0.6149998-0.552c-0.5279999-0.131999-0.8279991,0.1829996-1.8869991-0.3599997
		c-1.0560007-0.5400009-1.5360003-0.1109991-2.480999-0.6540012"/>
	<path class="st4" d="M12.7869997,10.6149998c0.9840002,0.3509989,1.6350002-0.0179987,2.4720011,0.4530001
		c-0.5970011-0.5250006-1.3709993-0.1800013-2.381999-0.6359997"/>
	<path class="st2" d="M9.7209988,9.7209988L4.3779984,15.480999c0,0-0.1049995,0.1049995-0.0360003,0.177
		c0.0689993,0.0689993,0.1739988-0.0360003,0.1739988-0.0360003l5.7629986-5.3430004"/>
	<path class="st3" d="M9.7209988,9.7209988L4.3779984,15.480999c0,0-0.1049995,0.1049995-0.0360003,0.177
		c0.0689993,0.0689993,0.1739988-0.0360003,0.1739988-0.0360003l5.7629986-5.3430004"/>
	<polyline class="st4" points="9.8620014,9.8620014 6.1870003,13.8129997 10.1379986,10.1379986 	"/>
	<path class="st2" d="M7.6810007,11.269001c-1.0200005,0.3809996-1.3170004,1.224-2.2440004,1.5150003
		C4.506999,13.0750017,4.2039995,13.7770023,3.901,14.0350008c-0.3029995,0.2580013-0.6090002,0.1080008-0.612,0.230999
		C3.2800007,14.3890009,3.6489997,14.5,4.1169987,14.2209988C4.5849991,13.9419975,4.573,13.506999,5.7039995,13.1409998
		s1.1639986-1.0050001,2.2139997-1.2900009"/>
	<path class="st3" d="M7.6810007,11.269001c-1.0200005,0.3809996-1.3170004,1.224-2.2440004,1.5150003
		C4.506999,13.0750017,4.2039995,13.7770023,3.901,14.0350008c-0.3029995,0.2580013-0.6090002,0.1080008-0.612,0.230999
		C3.2800007,14.3890009,3.6489997,14.5,4.1169987,14.2209988C4.5849991,13.9419975,4.573,13.506999,5.7039995,13.1409998
		s1.1639986-1.0050001,2.2139997-1.2900009"/>
	<path class="st4" d="M7.5909986,11.5360003C6.6459999,11.9830008,6.448,12.7089996,5.5269995,12.9610014
		c0.7919998-0.0510006,1.0949993-0.8430004,2.1330013-1.2359991"/>
	<path class="st2" d="M10.2790012,10.2790012l5.3430004-5.7629986c0,0,0.1049995-0.1049995,0.0360003-0.1739988
		s-0.1739988,0.0360003-0.1739988,0.0360003L9.7240028,9.7210045"/>
	<path class="st3" d="M10.2790012,10.2790012l5.3430004-5.7629986c0,0,0.1049995-0.1049995,0.0360003-0.1739988
		s-0.1739988,0.0360003-0.1739988,0.0360003L9.7240028,9.7210045"/>
	<polyline class="st4" points="10.1379986,10.1379986 13.8129997,6.1870003 9.8620014,9.8620014 	"/>
	<path class="st2" d="M12.3189993,8.730999c1.0200005-0.3809996,1.3139992-1.224,2.2440004-1.5150003
		s1.2330008-0.993001,1.5359993-1.2509995c0.3030014-0.2580013,0.6090012-0.1080008,0.6150017-0.230999
		C16.7229996,5.6109991,16.3540001,5.5,15.8859997,5.7790012c-0.4649992,0.2790012-0.4560013,0.7139997-1.5870008,1.079999
		s-1.1639986,1.0050001-2.2139997,1.2900009"/>
	<path class="st3" d="M12.3189993,8.730999c1.0200005-0.3809996,1.3139992-1.224,2.2440004-1.5150003
		s1.2330008-0.993001,1.5359993-1.2509995c0.3030014-0.2580013,0.6090012-0.1080008,0.6150017-0.230999
		C16.7229996,5.6109991,16.3540001,5.5,15.8859997,5.7790012c-0.4649992,0.2790012-0.4560013,0.7139997-1.5870008,1.079999
		s-1.1639986,1.0050001-2.2139997,1.2900009"/>
	<path class="st4" d="M12.4090014,8.4639997c0.9449987-0.4470005,1.1429987-1.170001,2.0639992-1.4250011
		c-0.7919998,0.0510006-1.0949993,0.8430004-2.1330013,1.2359991"/>
	<path class="st2" d="M10.2790012,9.7209988L4.5159998,4.3780012c0,0-0.1049995-0.1049995-0.1739988-0.0360003
		C4.276,4.4139986,4.3780012,4.5159998,4.3780012,4.5159998l5.3430004,5.7630014"/>
	<path class="st3" d="M10.2790012,9.7209988L4.5159998,4.3780012c0,0-0.1049995-0.1049995-0.1739988-0.0360003
		C4.276,4.4139986,4.3780012,4.5159998,4.3780012,4.5159998l5.3430004,5.7630014"/>
	<polyline class="st4" points="10.1379986,9.8620014 6.1870003,6.1870003 9.8620014,10.1379986 	"/>
	<path class="st2" d="M8.730999,7.6810007c-0.3780012-1.0200005-1.224-1.3170004-1.5150003-2.2440004
		C6.9249983,4.506999,6.2259989,4.2039995,5.9649992,3.901c-0.2579985-0.2999997-0.1049995-0.6060004-0.230999-0.6149998
		C5.6109991,3.2800007,5.5,3.6489997,5.7819996,4.1140003c0.276,0.4680004,0.7139997,0.4589996,1.079999,1.5899992
		s1.0080013,1.1639986,1.2900009,2.217001"/>
	<path class="st3" d="M8.730999,7.6810007c-0.3780012-1.0200005-1.224-1.3170004-1.5150003-2.2440004
		C6.9249983,4.506999,6.2259989,4.2039995,5.9649992,3.901c-0.2579985-0.2999997-0.1049995-0.6060004-0.230999-0.6149998
		C5.6109991,3.2800007,5.5,3.6489997,5.7819996,4.1140003c0.276,0.4680004,0.7139997,0.4589996,1.079999,1.5899992
		s1.0080013,1.1639986,1.2900009,2.217001"/>
	<path class="st4" d="M8.4639997,7.5909986C8.0200005,6.6490011,7.2969999,6.448,7.0389986,5.5240011
		c0.0510006,0.7919998,0.8430004,1.0949993,1.236002,2.1359997"/>
	<path class="st2" d="M9.7209988,10.2790012l5.7600002,5.3430004c0,0,0.1049995,0.1049995,0.1739988,0.0360003
		s-0.0360003-0.1739988-0.0360003-0.1739988l-5.3430004-5.7600002"/>
	<path class="st3" d="M9.7209988,10.2790012l5.7600002,5.3430004c0,0,0.1049995,0.1049995,0.1739988,0.0360003
		s-0.0360003-0.1739988-0.0360003-0.1739988l-5.3430004-5.7600002"/>
	<polyline class="st4" points="9.8620014,10.1379986 13.8129997,13.8129997 10.1379986,9.8620014 	"/>
	<path class="st2" d="M11.269001,12.3189993c0.3809996,1.0200005,1.224,1.3139992,1.5150003,2.2440004
		s0.993001,1.2330008,1.2509995,1.532999c0.2580013,0.3029995,0.1080008,0.6089993,0.230999,0.6149998
		c0.1230011,0.0090008,0.2340002-0.3600006-0.045001-0.8280001c-0.2790012-0.4649992-0.7139997-0.4560013-1.079999-1.5870008
		s-1.0050001-1.1640015-1.2900009-2.2139997"/>
	<path class="st3" d="M11.269001,12.3189993c0.3809996,1.0200005,1.224,1.3139992,1.5150003,2.2440004
		s0.993001,1.2330008,1.2509995,1.532999c0.2580013,0.3029995,0.1080008,0.6089993,0.230999,0.6149998
		c0.1230011,0.0090008,0.2340002-0.3600006-0.045001-0.8280001c-0.2790012-0.4649992-0.7139997-0.4560013-1.079999-1.5870008
		s-1.0050001-1.1640015-1.2900009-2.2139997"/>
	<path class="st4" d="M11.5360003,12.4090014c0.4470005,0.9449987,1.1729994,1.1429987,1.4279995,2.0639992
		c-0.0510006-0.7919998-0.8430004-1.0949993-1.2359991-2.1330013"/>
	<path class="st2" d="M9.6369991,9.8499994l-2.7330008,7.368001c0,0-0.0570002,0.1350002,0.0360003,0.1739979
		c0.0930004,0.0360012,0.1469994-0.098999,0.1469994-0.098999l3.276-7.1430016"/>
	<path class="st3" d="M9.6369991,9.8499994l-2.7330008,7.368001c0,0-0.0570002,0.1350002,0.0360003,0.1739979
		c0.0930004,0.0360012,0.1469994-0.098999,0.1469994-0.098999l3.276-7.1430016"/>
	<polyline class="st4" points="9.8199987,9.9250011 7.9389992,14.9799995 10.1800013,10.0749989 	"/>
	<path class="st2" d="M8.3439999,12.0579996c-0.795001,0.7409992-0.7469988,1.6350002-1.4940004,2.2590008
		c-0.7469988,0.6240005-0.7559996,1.3890009-0.9389992,1.743001c-0.1800013,0.3540001-0.519001,0.3330002-0.4770012,0.4499989
		c0.0389986,0.1140003,0.4229994,0.078001,0.7469988-0.3570004c0.3239994-0.4350023,0.1469994-0.8340006,1.0529995-1.6050005
		c0.9060001-0.7679987,0.6899986-1.3740005,1.5539989-2.0400009"/>
	<path class="st3" d="M8.3439999,12.0579996c-0.795001,0.7409992-0.7469988,1.6350002-1.4940004,2.2590008
		c-0.7469988,0.6240005-0.7559996,1.3890009-0.9389992,1.743001c-0.1800013,0.3540001-0.519001,0.3330002-0.4770012,0.4499989
		c0.0389986,0.1140003,0.4229994,0.078001,0.7469988-0.3570004c0.3239994-0.4350023,0.1469994-0.8340006,1.0529995-1.6050005
		c0.9060001-0.7679987,0.6899986-1.3740005,1.5539989-2.0400009"/>
	<path class="st4" d="M8.3620014,12.3399992C7.6600008,13.1140003,7.7530012,13.8580008,7,14.4460011
		c0.7110014-0.3509989,0.6870003-1.1970005,1.4969988-1.9589996"/>
	<path class="st2" d="M10.3630009,10.1500006l2.7299995-7.368001c0,0,0.0570002-0.1350002-0.0360003-0.1740003
		c-0.0930004-0.0360003-0.1469994,0.099-0.1469994,0.099l-3.276,7.1430001"/>
	<path class="st3" d="M10.3630009,10.1500006l2.7299995-7.368001c0,0,0.0570002-0.1350002-0.0360003-0.1740003
		c-0.0930004-0.0360003-0.1469994,0.099-0.1469994,0.099l-3.276,7.1430001"/>
	<polyline class="st4" points="10.1800013,10.0749989 12.0610008,5.0200005 9.8199987,9.9250011 	"/>
	<path class="st2" d="M11.6560001,7.9420004c0.795001-0.7409992,0.7469988-1.6350002,1.4940004-2.2590008
		c0.7469988-0.6240005,0.7559996-1.3890009,0.9389992-1.7429996C14.269001,3.586,14.6080008,3.6069999,14.5660009,3.4899998
		c-0.0389986-0.1140003-0.4229994-0.0780001-0.7469988,0.3569999s-0.1469994,0.8340011-1.0529995,1.605001
		c-0.9029989,0.7679987-0.6899986,1.3769989-1.5539989,2.0400009"/>
	<path class="st3" d="M11.6560001,7.9420004c0.795001-0.7409992,0.7469988-1.6350002,1.4940004-2.2590008
		c0.7469988-0.6240005,0.7559996-1.3890009,0.9389992-1.7429996C14.269001,3.586,14.6080008,3.6069999,14.5660009,3.4899998
		c-0.0389986-0.1140003-0.4229994-0.0780001-0.7469988,0.3569999s-0.1469994,0.8340011-1.0529995,1.605001
		c-0.9029989,0.7679987-0.6899986,1.3769989-1.5539989,2.0400009"/>
	<path class="st4" d="M11.6379986,7.6600008C12.3399992,6.8859997,12.2469988,6.1450005,13,5.5539989
		c-0.7110014,0.3509989-0.6870003,1.1970005-1.4969988,1.9589996"/>
	<path class="st2" d="M10.1500006,9.6369991l-7.368001-2.7329979c0,0-0.1350002-0.0570002-0.1740003,0.0360003
		c-0.0359988,0.0899992,0.099,0.1439981,0.099,0.1439981l7.1430001,3.276"/>
	<path class="st3" d="M10.1500006,9.6369991l-7.368001-2.7329979c0,0-0.1350002-0.0570002-0.1740003,0.0360003
		c-0.0359988,0.0899992,0.099,0.1439981,0.099,0.1439981l7.1430001,3.276"/>
	<polyline class="st4" points="10.0749989,9.8199987 5.0200005,7.9389992 9.9250011,10.1800013 	"/>
	<path class="st2" d="M7.9420004,8.3439999c-0.7409992-0.795001-1.6380014-0.7469988-2.2590008-1.4940004
		C5.0589991,6.1030006,4.2939987,6.0909986,3.9370003,5.9139986C3.586,5.7339973,3.6069999,5.3919992,3.4899998,5.4339991
		S3.4119997,5.8570013,3.8469996,6.1779995c0.4349999,0.3239994,0.8340011,0.1469994,1.605001,1.0529995
		c0.7679987,0.9029989,1.3769989,0.6899986,2.0400009,1.5539989"/>
	<path class="st3" d="M7.9420004,8.3439999c-0.7409992-0.795001-1.6380014-0.7469988-2.2590008-1.4940004
		C5.0589991,6.1030006,4.2939987,6.0909986,3.9370003,5.9139986C3.586,5.7339973,3.6069999,5.3919992,3.4899998,5.4339991
		S3.4119997,5.8570013,3.8469996,6.1779995c0.4349999,0.3239994,0.8340011,0.1469994,1.605001,1.0529995
		c0.7679987,0.9029989,1.3769989,0.6899986,2.0400009,1.5539989"/>
	<path class="st4" d="M7.6600008,8.3620014C6.8859997,7.6600008,6.1419992,7.7530012,5.5510006,7
		c0.3509989,0.7110014,1.1970005,0.6870003,1.9589996,1.4969988"/>
	<path class="st2" d="M9.8499994,10.3630009l7.368001,2.7299995c0,0,0.1350002,0.0570002,0.1739979-0.0360003
		c0.0360012-0.0930004-0.098999-0.1469994-0.098999-0.1469994l-7.1429987-3.276"/>
	<path class="st3" d="M9.8499994,10.3630009l7.368001,2.7299995c0,0,0.1350002,0.0570002,0.1739979-0.0360003
		c0.0360012-0.0930004-0.098999-0.1469994-0.098999-0.1469994l-7.1429987-3.276"/>
	<polyline class="st4" points="9.9250011,10.1800013 14.9799995,12.0610008 10.0749989,9.8199987 	"/>
	<path class="st2" d="M12.0579996,11.6560001c0.7409992,0.795001,1.6350002,0.7469988,2.2590008,1.4940004
		c0.6240005,0.7469988,1.3890009,0.7559996,1.743001,0.9389992c0.3540001,0.1800013,0.329998,0.5219994,0.4499989,0.4799995
		c0.1140003-0.0389986,0.078001-0.4229994-0.3570004-0.7469988c-0.4350023-0.3239994-0.8340006-0.1469994-1.6050005-1.0529995
		c-0.7679987-0.9029989-1.3740005-0.6899986-2.0400009-1.5539989"/>
	<path class="st3" d="M12.0579996,11.6560001c0.7409992,0.795001,1.6350002,0.7469988,2.2590008,1.4940004
		c0.6240005,0.7469988,1.3890009,0.7559996,1.743001,0.9389992c0.3540001,0.1800013,0.329998,0.5219994,0.4499989,0.4799995
		c0.1140003-0.0389986,0.078001-0.4229994-0.3570004-0.7469988c-0.4350023-0.3239994-0.8340006-0.1469994-1.6050005-1.0529995
		c-0.7679987-0.9029989-1.3740005-0.6899986-2.0400009-1.5539989"/>
	<path class="st4" d="M12.3399992,11.6379986C13.1140003,12.336998,13.8609991,12.2469988,14.4489994,13
		c-0.3509989-0.7110014-1.1970005-0.6870003-1.9589996-1.4969988"/>
	<path class="st2" d="M9.8499994,9.6369991l-7.1430001,3.276c0,0-0.1350002,0.0570002-0.099,0.1469994
		c0.0360003,0.0930004,0.1740003,0.0360003,0.1740003,0.0360003l7.368001-2.7299995"/>
	<path class="st3" d="M9.8499994,9.6369991l-7.1430001,3.276c0,0-0.1350002,0.0570002-0.099,0.1469994
		c0.0360003,0.0930004,0.1740003,0.0360003,0.1740003,0.0360003l7.368001-2.7299995"/>
	<polyline class="st4" points="9.9250011,9.8199987 5.0200005,12.0610008 10.0749989,10.1800013 	"/>
	<path class="st2" d="M7.3719988,10.2850008c-1.0860014-0.0389986-1.6860008,0.6269989-2.6519995,0.5400009
		c-0.9719996-0.0870008-1.5180001,0.4470005-1.8959999,0.5670004c-0.3779998,0.1230011-0.6030006-0.131999-0.6569996-0.0240011
		c-0.0540004,0.1109991,0.2459993,0.3540001,0.7800007,0.2729988c0.5369997-0.0780001,0.6929998-0.4859991,1.8809996-0.3900003
		c1.1850014,0.0959988,1.4610014-0.4830008,2.5410004-0.342001"/>
	<path class="st3" d="M7.3719988,10.2850008c-1.0860014-0.0389986-1.6860008,0.6269989-2.6519995,0.5400009
		c-0.9719996-0.0870008-1.5180001,0.4470005-1.8959999,0.5670004c-0.3779998,0.1230011-0.6030006-0.131999-0.6569996-0.0240011
		c-0.0540004,0.1109991,0.2459993,0.3540001,0.7800007,0.2729988c0.5369997-0.0780001,0.6929998-0.4859991,1.8809996-0.3900003
		c1.1850014,0.0959988,1.4610014-0.4830008,2.5410004-0.342001"/>
	<path class="st4" d="M7.1889992,10.4949999c-1.0439987,0.0510006-1.5059996,0.6450005-2.4570007,0.5279989
		c0.7530012,0.2550001,1.3320007-0.3599997,2.4449987-0.3239994"/>
	<path class="st2" d="M10.1500006,10.3630009l7.1429987-3.276c0,0,0.1350002-0.0570002,0.098999-0.1469994
		c-0.0359993-0.0930004-0.1739979-0.0360003-0.1739979-0.0360003l-7.368001,2.7329979"/>
	<path class="st3" d="M10.1500006,10.3630009l7.1429987-3.276c0,0,0.1350002-0.0570002,0.098999-0.1469994
		c-0.0359993-0.0930004-0.1739979-0.0360003-0.1739979-0.0360003l-7.368001,2.7329979"/>
	<polyline class="st4" points="10.0749989,10.1800013 14.9799995,7.9389992 9.9250011,9.8199987 	"/>
	<path class="st2" d="M12.6280012,9.7149992c1.0860014,0.0389986,1.6860008-0.6269989,2.6519995-0.5400009
		c0.972002,0.0870008,1.5179996-0.4470005,1.8959999-0.5699987c0.3780003-0.1230011,0.6030006,0.131999,0.6569996,0.0240011
		c0.0539989-0.1109991-0.2459984-0.3540001-0.7800007-0.2729988c-0.5370007,0.0810013-0.6929989,0.4859991-1.8809996,0.3929987
		c-1.1850014-0.0959988-1.4610014,0.4830008-2.5410004,0.342001"/>
	<path class="st3" d="M12.6280012,9.7149992c1.0860014,0.0389986,1.6860008-0.6269989,2.6519995-0.5400009
		c0.972002,0.0870008,1.5179996-0.4470005,1.8959999-0.5699987c0.3780003-0.1230011,0.6030006,0.131999,0.6569996,0.0240011
		c0.0539989-0.1109991-0.2459984-0.3540001-0.7800007-0.2729988c-0.5370007,0.0810013-0.6929989,0.4859991-1.8809996,0.3929987
		c-1.1850014-0.0959988-1.4610014,0.4830008-2.5410004,0.342001"/>
	<path class="st4" d="M12.8110008,9.5050001c1.0439987-0.0510006,1.5059996-0.6419992,2.4570007-0.5279989
		c-0.7530012-0.2550001-1.3320007,0.3599997-2.4449987,0.3239994"/>
	<path class="st2" d="M10.3630009,9.8499994L7.0839996,2.7069993c0,0-0.0570002-0.1350002-0.1469994-0.099
		c-0.0899992,0.039-0.032999,0.1740003-0.032999,0.1740003l2.7330008,7.368001"/>
	<path class="st3" d="M10.3630009,9.8499994L7.0839996,2.7069993c0,0-0.0570002-0.1350002-0.1469994-0.099
		c-0.0899992,0.039-0.032999,0.1740003-0.032999,0.1740003l2.7330008,7.368001"/>
	<polyline class="st4" points="10.1800013,9.9250011 7.9389992,5.0200005 9.8199987,10.0749989 	"/>
	<path class="st2" d="M9.7149992,7.3719988C9.7539978,6.2859974,9.0880003,5.685998,9.1749983,4.7199993
		c0.0870008-0.9719996-0.4470005-1.5180001-0.5699987-1.8959999C8.4849997,2.4429998,8.7399998,2.217999,8.631999,2.164
		C8.5179987,2.1160007,8.2750006,2.4099994,8.3530006,2.9470005C8.4339991,3.4840002,8.8389997,3.6400003,8.743001,4.8280001
		C8.6500006,6.0129986,9.2290001,6.2889986,9.0880003,7.3719988"/>
	<path class="st3" d="M9.7149992,7.3719988C9.7539978,6.2859974,9.0880003,5.685998,9.1749983,4.7199993
		c0.0870008-0.9719996-0.4470005-1.5180001-0.5699987-1.8959999C8.4849997,2.4429998,8.7399998,2.217999,8.631999,2.164
		C8.5179987,2.1160007,8.2750006,2.4099994,8.3530006,2.9470005C8.4339991,3.4840002,8.8389997,3.6400003,8.743001,4.8280001
		C8.6500006,6.0129986,9.2290001,6.2889986,9.0880003,7.3719988"/>
	<path class="st4" d="M9.5050001,7.1889992C9.4510012,6.1450005,8.8599997,5.6829996,8.9770012,4.7320013
		C8.7220011,5.4849997,9.3339996,6.0670004,9.3010006,7.177"/>
	<path class="st2" d="M9.6369991,10.1500006l3.276,7.1429987c0,0,0.0570002,0.1350002,0.1469994,0.098999
		c0.0930004-0.0359993,0.0360003-0.1739979,0.0360003-0.1739979l-2.7299995-7.368001"/>
	<path class="st3" d="M9.6369991,10.1500006l3.276,7.1429987c0,0,0.0570002,0.1350002,0.1469994,0.098999
		c0.0930004-0.0359993,0.0360003-0.1739979,0.0360003-0.1739979l-2.7299995-7.368001"/>
	<polyline class="st4" points="9.8199987,10.0749989 12.0610008,14.9799995 10.1800013,9.9250011 	"/>
	<path class="st2" d="M10.2850008,12.6280012c-0.0389986,1.0860014,0.6269989,1.6860008,0.5400009,2.6519995
		c-0.0870008,0.972002,0.4470005,1.5179996,0.5670004,1.8959999c0.1230011,0.3780003-0.131999,0.6030006-0.0240011,0.6569996
		c0.1109991,0.0539989,0.3540001-0.2459984,0.2729988-0.7800007c-0.0780001-0.5370007-0.4859991-0.6929989-0.3900003-1.8809996
		c0.0959988-1.1850014-0.4830008-1.4610014-0.342001-2.5410004"/>
	<path class="st3" d="M10.2850008,12.6280012c-0.0389986,1.0860014,0.6269989,1.6860008,0.5400009,2.6519995
		c-0.0870008,0.972002,0.4470005,1.5179996,0.5670004,1.8959999c0.1230011,0.3780003-0.131999,0.6030006-0.0240011,0.6569996
		c0.1109991,0.0539989,0.3540001-0.2459984,0.2729988-0.7800007c-0.0780001-0.5370007-0.4859991-0.6929989-0.3900003-1.8809996
		c0.0959988-1.1850014-0.4830008-1.4610014-0.342001-2.5410004"/>
	<path class="st4" d="M10.4949999,12.8110008c0.0510006,1.0439987,0.6450005,1.5059996,0.5279989,2.4570007
		c0.2550001-0.7530012-0.3599997-1.3320007-0.3239994-2.4449987"/>
	<circle class="st2" cx="10" cy="10" r="3.2010012"/>
	<circle class="st5" cx="10" cy="10" r="3.2010012"/>
	<path class="st4" d="M12.019001,9.3129997c-0.5670004-0.4919987-1.2779989-0.5670004-1.6739988-0.1949987
		c-0.2850008,0.3809996-0.2580013,0.8339996,0.0749989,1.3050013c-0.0269995,0-0.0749989,0.0269995-0.099,0.0479994
		C10.0749989,10,10.032999,9.5080013,10.198,9.0670004C10.7380009,8.6199999,11.4759989,8.5720005,12.019001,9.3129997"/>
	<path class="st4" d="M11.1309996,9.1629992c-0.3210011,0-0.3959999,0.0749989-0.5400009,0.1949987
		c-0.1469994,0.1230011-0.2220011,0.1020012-0.2459993,0.1230011c-0.0240011,0.0269995,0,0.099,0.0479994,0.0749989
		c0.0479994-0.0269995,0.1469994-0.0749989,0.2969999-0.1949987C10.836998,9.237998,10.9839973,9.237998,11.1339979,9.237998
		c0.4439993,0,0.6870003,0.3690004,0.7380009,0.3449993C11.920001,9.5560007,11.6230011,9.1629992,11.1309996,9.1629992"/>
	<path class="st4" d="M11.698,9.5830002c-0.3210011-0.3449993-0.9090014-0.3690004-1.157999,0.0269995h0.099
		c0.2490005-0.3959999,0.8370008-0.2220011,0.8880014-0.0479994v0.0479994"/>
	<circle class="st4" cx="11.0830002" cy="9.5560007" r="0.2220011"/>
	<path class="st4" d="M10.5400009,9.6040001c0.2490005,0.2220011,0.7890015,0.2459993,1.157999-0.0269995l-0.1739988-0.0269995
		c-0.2459993,0.2700005-0.6390009,0.2459993-0.8880014,0.0479994V9.5560007"/>
	<path class="st4" d="M11.7220011,9.7030001C11.3050013,10.0240011,10.8879986,10,10.6390009,9.8499994
		c-0.2459993-0.1469994-0.2459993-0.1949987-0.1949987-0.1949987s0.099,0.0479994,0.2939987,0.1469994
		C10.9360008,9.901,11.2299995,9.901,11.7220011,9.7030001"/>
	<path class="st4" d="M10.519001,10.4439993c0.0479994,0.0179987,0.0899992,0.0629997,0.0959988,0.1169987
		c0.0090008,0.0510006-0.0150003,0.1080008-0.0570002,0.1409998s-0.1049995,0.0360003-0.1500006,0.0150003
		c-0.0479994-0.0240011-0.0810013-0.0720005-0.0870008-0.1259995c-0.0269995,0.0479994-0.1230011,0.1949987-0.3210011,0.1949987
		H9.9520006L10,10.8609991c0.0479994,0,0.1949987,0,0.2939987-0.0749989
		c0.0389986,0.0600014,0.1109991,0.0959988,0.1860008,0.0959988c0.0720005,0,0.144001-0.0389986,0.1800013-0.1020012
		c0.0389986-0.0600014,0.045001-0.1409998,0.0179987-0.2070007C10.651,10.506999,10.5880003,10.4560013,10.519001,10.4439993"/>
	<path class="st4" d="M10.8129997,11.4759989c-0.2220011-0.1469994-0.3210011-0.3690004-0.5670004-0.3690004
		C10.198,11.1069984,10.099,11.1339979,10,11.1819973H9.9520006L10,11.256999c0.099,0,0.2459993-0.1230011,0.4169998-0.0269995
		C10.5909986,11.3320007,10.6870003,11.4279995,10.8129997,11.4759989"/>
	<path class="st4" d="M10.7380009,11.4759989C10.2460022,11.3289995,10.1470022,11.4279995,10,11.4279995H9.9520006L10,11.5269995
		C10.1949987,11.5269995,10.2969999,11.3800001,10.7380009,11.4759989"/>
	<path class="st4" d="M10.8129997,11.4759989C10.2729988,11.4279995,10.4439993,11.7459993,10,11.7459993H9.9520006L10,11.8239994
		C10.5400009,11.8239994,10.2969999,11.5269995,10.8129997,11.4759989"/>
	<path class="st4" d="M10.4439993,12.2650003c0-0.1140003-0.0479994-0.230999-0.1290007-0.3149986
		c-0.0839996-0.0810013-0.198-0.1259995-0.3149986-0.1259995s-0.230999,0.045001-0.3149986,0.1290007
		c-0.0839996,0.0810013-0.1290007,0.198-0.1290007,0.3149986c0.0479994-0.198,0.243001-0.3509989,0.4439993-0.3509989
		S10.3959999,12.0670004,10.4439993,12.2650003"/>
	<path class="st4" d="M7.980999,9.3129997c0.5670004-0.4919987,1.2810001-0.5670004,1.6739988-0.198
		c0.2850008,0.3780012,0.2580013,0.8339996-0.0749989,1.302c0.0269995,0,0.0749989,0.0269995,0.099,0.0479994
		c0.2490005-0.4680004,0.2910004-0.9599991,0.1260023-1.401C9.2619991,8.6199999,8.5240011,8.5720005,7.980999,9.3129997"/>
	<path class="st4" d="M8.8690004,9.1629992c0.3210011,0,0.3959999,0.0749989,0.5400009,0.1949987
		C9.5560007,9.480999,9.6309996,9.4599991,9.6550007,9.480999c0.0240011,0.0269995,0,0.099-0.0479994,0.0749989
		C9.5560007,9.5319996,9.4599991,9.480999,9.3129997,9.3609991C9.1629992,9.237998,9.0159998,9.237998,8.8690004,9.237998
		c-0.4439993,0-0.6899986,0.3690004-0.7409992,0.3449993C8.079999,9.5560007,8.3769989,9.1629992,8.8690004,9.1629992"/>
	<path class="st4" d="M8.302,9.5830002c0.3179998-0.3449993,0.9090014-0.3690004,1.157999,0.0240011h-0.099
		c-0.2489977-0.3930016-0.836998-0.2220011-0.8879986-0.0510006v0.0479994"/>
	<circle class="st4" cx="8.9169998" cy="9.5560007" r="0.2220011"/>
	<path class="st4" d="M9.4599991,9.6040001C9.2110014,9.8260012,8.6710005,9.8530006,8.302,9.5830002l0.1739988-0.0269995
		c0.2490005,0.2700005,0.6390009,0.2490005,0.8880014,0.0479994V9.5560007"/>
	<path class="st4" d="M8.2779989,9.7030001C8.6949987,10.0269995,9.1120014,10,9.3609991,9.8530006
		c0.2459993-0.1500006,0.2459993-0.198,0.1949987-0.198S9.4599991,9.7030001,9.2590008,9.802
		C9.0639992,9.901,8.7700005,9.901,8.2779989,9.7030001"/>
	<path class="st4" d="M9.480999,10.4439993C9.4329996,10.461998,9.3909998,10.506999,9.3850002,10.560998
		c-0.0090008,0.0510006,0.0150003,0.1080008,0.0570002,0.1409998s0.1049995,0.0360003,0.1500006,0.0150003
		c0.0479994-0.0240011,0.0839996-0.0720005,0.0870008-0.1259995c0.0269995,0.0479994,0.1230011,0.1949987,0.3210011,0.1949987
		h0.0479994L10,10.8609991c-0.0479994,0-0.1949987,0-0.2969999-0.0749989
		C9.6640015,10.8460016,9.592001,10.881999,9.5169992,10.881999c-0.0720005,0-0.144001-0.0389986-0.1800013-0.1020012
		c-0.0389986-0.0600014-0.045001-0.1409998-0.0179987-0.2070007C9.349,10.506999,9.4119997,10.4560013,9.480999,10.4439993"/>
	<path class="st4" d="M9.1870003,11.4759989c0.2220011-0.1469994,0.3210011-0.3690004,0.5670004-0.3690004
		c0.0479994,0,0.1469994,0.0269995,0.2490005,0.0749989h0.0479994L10,11.256999c-0.099,0-0.2490005-0.1230011-0.4169998-0.0269995
		C9.4090014,11.3320007,9.3129997,11.4279995,9.1870003,11.4759989"/>
	<path class="st4" d="M9.2619991,11.4759989c0.4919987-0.1469994,0.5909986-0.0479994,0.7409992-0.0479994h0.0479994L10,11.5269995
		C9.8050013,11.5269995,9.7030001,11.3800001,9.2619991,11.4759989"/>
	<path class="st4" d="M9.1870003,11.4759989C9.7270012,11.4279995,9.5560007,11.7459993,10,11.7459993h0.0479994L10,11.8239994
		C9.4599991,11.8239994,9.7030001,11.5269995,9.1870003,11.4759989"/>
	<path class="st4" d="M9.5560007,12.2650003c0-0.1140003,0.045001-0.230999,0.1290007-0.3149986
		C9.769001,11.8690004,9.8830013,11.8240023,10,11.8240023s0.230999,0.045001,0.3149986,0.1290007
		c0.0839996,0.0810013,0.1290007,0.198,0.1290007,0.3149986c-0.045001-0.198-0.243001-0.3509989-0.4439993-0.3509989
		C9.7989988,11.9139986,9.6040001,12.0670004,9.5560007,12.2650003"/>
</g>
<g id="Layer_2_1_">
</g>
<path class="st6" d="M10-18.5c15.5999985,0,28.5,12.9000006,28.5,28.5S25.5999985,38.5,10,38.5S-18.5,25.5999985-18.5,10
	S-5.5999994-18.5,10-18.5 M10-20C-6.5-20-20-6.5-20,10s13.5,30,30,30s30-13.5,30-30S26.5-20,10-20L10-20z"/>
</svg>
