<?xml version="1.0" encoding="utf-8"?>
<svg version="1.1" id="Layer_1" xmlns="http://www.w3.org/2000/svg" xmlns:xlink="http://www.w3.org/1999/xlink" x="0px" y="0px"
	 viewBox="-22 -22 64 64" style="enable-background:new 0 0 20 20;" xml:space="preserve">
<style type="text/css">
	.st0{fill:#4189DD;}
	.st1{fill:#F9D616;}
	.st2{fill:#FFFFFF;}
	.st3{fill:#D21034;}
	.st4{fill:#CCCCCC;}
</style>
<g id="Layer_1_1_">
	<path class="st0" d="M35.7700005,22.7980003h-51.5400009c0.5489998,1.1070004,1.1459999,2.1839981,1.8299999,3.2010002h47.8860016
		C34.6240005,24.9820023,35.2210007,23.9050007,35.7700005,22.7980003z"/>
	<path class="st0" d="M38.8000031,10c0-15.9060001-12.8940029-28.8000011-28.8000031-28.8000011
		c-5.7270012,0-11.0550003,1.6919994-15.539999,4.5749998l1.9799995,5.7750006l7.1610003,2.4359999l-7.1550007,2.4540009
		L-5.987,3.6010003l-2.454-7.1550007l-5.79-1.967999C-17.1110001-1.0399995-18.7999992,4.276-18.7999992,10
		c0,3.3719988,0.6119995,6.5910015,1.6739998,9.5999985h54.2519989C38.1879997,16.5909996,38.8000031,13.3719988,38.8000031,10z"/>
	<path class="st0" d="M31.4230022,29.1999989h-42.8460007C-6.1519995,35.0800018,1.4799995,38.8000031,10,38.8000031
		S26.1520004,35.0800018,31.4230022,29.1999989z"/>
	<path class="st0" d="M-6.7670007-13.3850002C-9.3260002-11.5460005-11.5670004-9.302-13.4029999-6.7399998l4.9559994-1.698
		L-6.7670007-13.3850002z"/>
	<path class="st1" d="M33.9430008,26.0019989h-47.8860016c0.7560005,1.1310005,1.6140003,2.1899986,2.5199995,3.2009983h42.8429985
		C32.3290024,28.1889992,33.1840019,27.1330013,33.9430008,26.0019989z"/>
	<path class="st1" d="M37.1259995,19.5999985h-54.2519989c0.3899994,1.1009998,0.8400002,2.1660004,1.355999,3.2010021h51.5429993
		C36.2859955,21.769001,36.7389984,20.698,37.1259995,19.5999985z"/>
	<path class="st2" d="M-5.987,3.6010003l2.4329996-7.1610003l7.1549993-2.4539995l-7.1609988-2.4330001l-1.9799995-5.7780008
		c-0.1500006,0.0959997-0.3059993,0.1800003-0.4530001,0.276l2.0280004,5.9100008l5.9669995,2.0279999l-5.961,2.0459991
		l-2.0310001,5.9640012l-2.0460005-5.961l-5.9219999-2.0160012c-0.099,0.1500006-0.1800003,0.3090005-0.2729998,0.4559999
		l5.7930002,1.9710002L-5.987,3.6010003z"/>
	<path class="st2" d="M-6.0380006-13.9219999c-0.2519989,0.1709995-0.4859991,0.3599997-0.7290001,0.5369997L-8.4470005-8.441
		l-4.9559994,1.7010002c-0.177,0.2429996-0.3660002,0.4799995-0.5370007,0.7290001l5.8980007-2.0249996L-6.0380006-13.9219999z"/>
	<path class="st3" d="M-5.9899998,1.9990005l2.0280004-5.9669995l5.961-2.0460005l-5.9640012-2.0250001l-2.0279989-5.9070005
		c-0.0150003,0.0059996-0.0270009,0.0150003-0.045001,0.0240002l-2.000999,5.8859997l-5.901001,2.0250006
		C-13.9429998-5.9990005-13.9490004-5.987-13.9580002-5.9749994l5.9249992,2.0159998L-5.9899998,1.9990005z"/>
</g>
<g id="Layer_2_1_">
</g>
<path class="st4" d="M10-18.5c15.5999985,0,28.5,12.9000006,28.5,28.5S25.5999985,38.5,10,38.5S-18.5,25.5999985-18.5,10
	S-5.5999994-18.5,10-18.5 M10-20C-6.5-20-20-6.5-20,10s13.5,30,30,30s30-13.5,30-30S26.5-20,10-20L10-20z"/>
</svg>
