<?xml version="1.0" encoding="utf-8"?>
<svg version="1.1" id="Layer_1" xmlns="http://www.w3.org/2000/svg" xmlns:xlink="http://www.w3.org/1999/xlink" x="0px" y="0px"
	 viewBox="-22 -22 64 64" style="enable-background:new 0 0 20 20;" xml:space="preserve">
<style type="text/css">
	.st0{fill:#0092C7;}
	.st1{fill:#EA0437;}
	.st2{fill:#00AE68;}
	.st3{fill:#FFFFFF;}
	.st4{fill:#CCCCCC;}
</style>
<g id="Layer_1_1_">
	<g>
		<path class="st0" d="M10-18.7999992c-12.5340004,0-23.1690006,8.0219994-27.1259995,19.2000008h54.2519989
			C33.1689987-10.7779999,22.5340004-18.7999992,10-18.7999992z"/>
		<path class="st1" d="M38.8000031,10c0-3.3719988-0.6120033-6.5910001-1.6740036-9.5999994h-54.2519989
			C-18.1879997,3.4089999-18.7999992,6.6280012-18.7999992,10s0.6119995,6.5910015,1.6739998,9.5999985h54.2519989
			C38.1879997,16.5909996,38.8000031,13.3719988,38.8000031,10z"/>
		<path class="st2" d="M37.1259995,19.5999985h-54.2519989C-13.1690006,30.7810001-2.5339999,38.8000031,10,38.8000031
			S33.1689987,30.7780018,37.1259995,19.5999985z"/>
	</g>
	<path class="st3" d="M8.2719994,16.7199993C4.5610008,16.7199993,1.552,13.7109985,1.552,10
		s3.0059996-6.7199993,6.7199993-6.7199993c1.3470011,0,2.5949993,0.4050007,3.6479988,1.0889997
		c-1.4639997-1.4970002-3.4980011-2.4329996-5.7600002-2.4329996c-4.4520006,0-8.0639992,3.6120014-8.0639992,8.0639992
		s3.612,8.0639992,8.0639992,8.0639992c2.2619991,0,4.2960005-0.9360008,5.7600002-2.4300013
		C10.8669987,16.3149986,9.6190004,16.7199993,8.2719994,16.7199993z"/>
	<polygon class="st3" points="17.3740005,13.0570002 15.1689987,12.0550013 14.3170004,14.3199987 13.4680004,12.052 
		11.2629986,13.0539989 12.2650003,10.849 10,9.9969988 12.2679987,9.1479988 11.2659998,6.9429998 13.4709988,7.9449987 
		14.323,5.6800013 15.1719999,7.948 17.3769989,6.9460011 16.375,9.151 18.6399994,10.0030012 16.3719978,10.8520012 	"/>
</g>
<g id="Layer_2_1_">
</g>
<path class="st4" d="M10-18.5c15.5999985,0,28.5,12.9000006,28.5,28.5S25.5999985,38.5,10,38.5S-18.5,25.5999985-18.5,10
	S-5.5999994-18.5,10-18.5 M10-20C-6.5-20-20-6.5-20,10s13.5,30,30,30s30-13.5,30-30S26.5-20,10-20L10-20z"/>
</svg>
