<?xml version="1.0" encoding="utf-8"?>
<svg version="1.1" id="Layer_1" xmlns="http://www.w3.org/2000/svg" xmlns:xlink="http://www.w3.org/1999/xlink" x="0px" y="0px"
	 viewBox="-22 -22 64 64" style="enable-background:new 0 0 20 20;" xml:space="preserve">
<style type="text/css">
	.st0{fill:#FFFFFF;stroke:#B6B6B6;stroke-width:0.15;}
	.st1{fill:#161796;}
	.st2{fill:#FFCD00;}
	.st3{fill:#CCCCCC;}
</style>
<g id="Layer_1_1_">
	<circle class="st0" cx="10" cy="10" r="28.8000011"/>
	<path class="st1" d="M22.9599991,33.0429993l-3.2160015,2.336998l1.2299995-3.7800007l-3.2160015-2.336998h3.9749985
		l1.2299995-3.7800007l1.2299995,3.7800007h3.9750004l-3.2160015,2.336998l0.8100014,2.4929981
		c2.0009995-1.3139992,3.8159981-2.8740005,5.4299984-4.6320019L-9.4610004-11.1890001
		c-1.0079994,0.927-1.9649992,1.9049997-2.8319998,2.9639997l0.4830008,1.4850006h3.9750004l-3.2190008,2.3369994
		l1.2300005,3.7799993L-13.04-2.9569993l-3.2160006,2.3369994L-15.158-3.9979997
		C-17.4710007,0.1450005-18.7999992,4.9179993-18.7999992,10c0,15.9060001,12.8939991,28.8000031,28.7999992,28.8000031
		c5.5109997,0,10.6409988-1.5750008,15.0180016-4.2630005L22.9599991,33.0429993z M-9.0559998,6.579999l1.23-3.7800007
		l-3.2190003-2.3399978h3.9749999l1.2299995-3.7799993l1.2299995,3.7800007h3.9750009l-3.2189999,2.336998l1.2299995,3.7800007
		L-5.8400006,4.243001L-9.0559998,6.579999z M-1.8560004,13.7800007L-0.6260009,10l-3.2189984-2.3399992h3.9749994
		l1.2299995-3.7800007l1.2299995,3.7800007h3.9749994l-3.2189984,2.336998l1.230001,3.7800007l-3.2160015-2.3339996
		L-1.8560004,13.7800007z M8.5600014,18.6429977l-3.2160015,2.3370018l1.2299995-3.7800007l-3.2189999-2.3399992H7.329999
		l1.2299995-3.7800007l1.2299995,3.7800007h3.9749994l-3.2160015,2.3370008l1.2299995,3.7800007L8.5600014,18.6429977z
		 M12.5439987,28.1799984l1.2299995-3.7800007l-3.2160015-2.3370018h3.9749994l1.2299995-3.7799988l1.2300005,3.7799988h3.9749985
		l-3.2160015,2.3370018l1.2299995,3.7800007l-3.2160015-2.3369999L12.5439987,28.1799984z"/>
	<path class="st2" d="M38.8000031,10c0-15.9060001-12.8940029-28.8000011-28.8000031-28.8000011
		c-7.5150003,0-14.3309994,2.901-19.4610004,7.6110001l40.6440048,40.6440048
		C35.8989983,24.3310013,38.8000031,17.5149994,38.8000031,10z"/>
</g>
<g id="Layer_2_1_">
</g>
<path class="st3" d="M10-18.5c15.5999985,0,28.5,12.9000006,28.5,28.5S25.5999985,38.5,10,38.5S-18.5,25.5999985-18.5,10
	S-5.5999994-18.5,10-18.5 M10-20C-6.5-20-20-6.5-20,10s13.5,30,30,30s30-13.5,30-30S26.5-20,10-20L10-20z"/>
</svg>
