<?xml version="1.0" encoding="utf-8"?>
<svg version="1.1" id="Layer_1" xmlns="http://www.w3.org/2000/svg" xmlns:xlink="http://www.w3.org/1999/xlink" x="0px" y="0px"
	 viewBox="-22 -22 64 64" style="enable-background:new 0 0 20 20;" xml:space="preserve">
<style type="text/css">
	.st0{fill:#00267F;}
	.st1{fill:#FFC726;}
	.st2{fill:#CCCCCC;}
</style>
<g id="Layer_1_1_">
	<path class="st0" d="M-18.7999992,10c0,10.6530018,5.7989988,19.932003,14.3999996,24.9150009V-14.915
		C-13.0010004-9.9320002-18.7999992-0.6530004-18.7999992,10z"/>
	<path class="st0" d="M38.8000031,10c0-10.6529999-5.7990036-19.9319992-14.4000015-24.9150009v49.8300018
		C33.0009995,29.9319973,38.8000031,20.6529999,38.8000031,10z"/>
	<path class="st1" d="M24.4000015-14.915C20.1609993-17.3719997,15.2530012-18.7999992,10-18.7999992
		S-0.1610003-17.3719997-4.4000006-14.915v49.8300018C-0.1610003,37.3720016,4.7469988,38.8000031,10,38.8000031
		s10.1609993-1.4280014,14.4000015-3.8850021V-14.915z"/>
	<path d="M10-3.9530001C9.0639992-1.4000006,8.1099997,1.2520003,6.0699987,3.2919998
		C6.7030001,3.0819993,7.8129997,2.8959999,8.5239983,2.914v10.7339993l-3.0269995,0.4499989
		c-0.1080008-0.0119991-0.1469994-0.1800013-0.1469994-0.4110003c-0.2910004-3.3330002-1.079999-6.1350002-1.9830008-9.0300007
		C3.3009992,4.2579956,2.151998,2.7489963,3.0369983,3.0129972C3.1449976,3.0279975,4.329999,3.507997,4.1439981,3.2769966
		c-1.6199985-1.6679964-3.974998-2.8709965-6.2669978-3.2279963c-0.2009997-0.0510006-0.3179998,0.0509992-0.138,0.2849994
		c3.0360003,4.677,5.5800004,10.1939993,5.5560007,16.7429981c1.1850014,0,4.0440016-0.6960011,5.2230005-0.6960011v7.5720005
		h2.954999v-7.5720005c1.1850014,0,4.0440016,0.6960011,5.2230005,0.6960011
		c-0.0209999-6.5490017,2.5229988-12.0629997,5.5560017-16.743c0.1800003-0.237,0.0629997-0.336-0.1380005-0.2849994
		c-2.2889977,0.3569999-4.644001,1.5599999-6.2609987,3.2280006c-0.1860008,0.2310004,0.9990015-0.2520003,1.1070013-0.2670007
		c0.8850002-0.2639995-0.2640018,1.2479997-0.3270016,1.6439996c-0.902998,2.8950005-1.6949978,5.6999989-1.9859982,9.0300007
		c0,0.230999-0.0360003,0.3990011-0.1469994,0.4110003l-3.0269995-0.4499989V2.9110003
		C12.1810064,2.8930001,13.2940073,3.0820007,13.9270058,3.289C11.8900003,1.2520003,10.9360008-1.4000006,10-3.9530001z"/>
</g>
<g id="Layer_2_1_">
</g>
<path class="st2" d="M10-18.5c15.5999985,0,28.5,12.9000006,28.5,28.5S25.5999985,38.5,10,38.5S-18.5,25.5999985-18.5,10
	S-5.5999994-18.5,10-18.5 M10-20C-6.5-20-20-6.5-20,10s13.5,30,30,30s30-13.5,30-30S26.5-20,10-20L10-20z"/>
</svg>
