<?xml version="1.0" encoding="utf-8"?>
<svg version="1.1" id="Layer_1" xmlns="http://www.w3.org/2000/svg" xmlns:xlink="http://www.w3.org/1999/xlink" x="0px" y="0px"
	 viewBox="-22 -22 64 64" style="enable-background:new 0 0 20 20;" xml:space="preserve">
<style type="text/css">
	.st0{fill:#FFFFFF;stroke:#B6B6B6;stroke-width:0.15;stroke-miterlimit:10;}
	.st1{fill:#CE1126;}
	.st2{fill:#CCCCCC;}
</style>
<g id="Layer_1_1_">
	<circle class="st0" cx="10" cy="10" r="28.8000011"/>
	<path class="st1" d="M38.8000031,10c0-15.9060001-12.8940029-28.8000011-28.8000031-28.8000011
		c-3.6989994,0-7.2210002,0.7229996-10.4699993,1.9920006L8.9499989-13.04L-5.4500017-7.2800007L8.9499989-1.5200005
		L-5.4500017,4.2399998L8.9499989,10l-14.4000006,5.7600002l14.4000006,5.7600002l-14.4000006,5.7600002l14.4000006,5.7600002
		l-9.420001,3.7680016C2.7789998,38.0769958,6.3010006,38.8000031,10,38.8000031
		C25.9060001,38.8000031,38.8000031,25.9060001,38.8000031,10z"/>
</g>
<g id="Layer_2_1_">
</g>
<path class="st2" d="M10-18.5c15.5999985,0,28.5,12.9000006,28.5,28.5S25.5999985,38.5,10,38.5S-18.5,25.5999985-18.5,10
	S-5.5999994-18.5,10-18.5 M10-20C-6.5-20-20-6.5-20,10s13.5,30,30,30s30-13.5,30-30S26.5-20,10-20L10-20z"/>
</svg>
