<?xml version="1.0" encoding="utf-8"?>
<svg version="1.1" id="Layer_1" xmlns="http://www.w3.org/2000/svg" xmlns:xlink="http://www.w3.org/1999/xlink" x="0px" y="0px"
	 viewBox="-22 -22 64 64" style="enable-background:new 0 0 20 20;" xml:space="preserve">
<style type="text/css">
	.st0{fill:#FFFFFF;stroke:#B6B6B6;stroke-width:0.15;}
	.st1{fill:#CE1126;}
	.st2{fill:#1EB53A;}
	.st3{fill:#CCCCCC;}
</style>
<g id="Layer_1_1_">
	<circle class="st0" cx="10" cy="10" r="28.8000011"/>
	<path class="st1" d="M10,26.3079987c-4.5600014,0-8.6789989-1.8689995-11.6459999-4.8780003l-10.8570004,6.5160007
		C-7.2260003,34.5550003,0.8859997,38.8000031,10,38.8000031s17.2260017-4.2449989,22.5029984-10.854002l-10.8569984-6.5160007
		C18.6789989,24.4389992,14.5600014,26.3079987,10,26.3079987z"/>
	<path class="st1" d="M10-6.401c4.5600014,0,8.6789989,1.8690004,11.6459999,4.8779998l10.8120003-6.4859996
		C27.1779995-14.5819998,19.0870018-18.7999992,10-18.7999992S-7.1779995-14.5819998-12.4580002-8.0060005l10.8120003,6.4860001
		C1.3209996-4.5289998,5.4399986-6.401,10-6.401z"/>
	<path class="st2" d="M-6.3560004,9.954999c0-1.698,0.2579999-3.3389997,0.7410007-4.8809996l-10.8210011-6.4920001
		C-17.9510002,2.0830002-18.7999992,5.9410009-18.7999992,10c0,4.0319996,0.8339996,7.8659992,2.3309994,11.348999
		l10.8540001-6.5159988C-6.0949993,13.2939987-6.3560004,11.6560001-6.3560004,9.954999z"/>
	<path class="st2" d="M26.355999,9.954999c0,1.698-0.2580013,3.3389997-0.7409992,4.8809996l10.854002,6.5159988
		C37.9660034,17.8659992,38.8000031,14.0319996,38.8000031,10c0-4.0589991-0.848999-7.9169998-2.3640022-11.4179993
		L25.6149998,5.0770006C26.0949993,6.6159992,26.355999,8.2540007,26.355999,9.954999z"/>
	<path class="st2" d="M8.8869991,3.4119997L10,5.3380003l1.1130009-1.9229994h2.2230005l-1.1130009-1.9229994l1.1130009-1.9229994
		h-2.2230005L10-2.3599997L8.8869991-0.4370003H6.6669998l1.1130009,1.9230008L6.6669998,3.4119997H8.8869991z M7.2669992-0.0889997
		h1.8239994L10-1.6669998l0.9090014,1.5780001h1.8239994l-0.9090014,1.5780001l0.9090014,1.5780001h-1.8239994L10,4.6419992
		L9.0909986,3.0640006H7.2669992l0.9090014-1.5780001L7.2669992-0.0889997z"/>
	<path class="st2" d="M19.552,14.1879997l1.1130009-1.9229994h-2.2199993l-1.1130009-1.9229994l-1.1130009,1.9229994h-2.2199993
		l1.1130009,1.9229994l-1.1130009,1.9230003h2.2199993l1.1130009,1.9229984l1.1130009-1.9229984h2.2199993L19.552,14.1879997z
		 M18.2439995,15.7659998l-0.9090004,1.5780001l-0.9090004-1.5780001h-1.8240004l0.9090014-1.5780001l-0.9090014-1.5780001
		h1.8240004l0.9090004-1.5780001l0.9090004,1.5780001h1.8240013l-0.9090023,1.5780001l0.9090023,1.5780001H18.2439995z"/>
	<path class="st2" d="M2.6680007,18.0369987l1.1129994-1.9229984h2.2199993l-1.1130009-1.9229994l1.1130009-1.9229994H3.7810001
		l-1.1129994-1.9229994l-1.1129994,1.9229994h-2.2199993l1.1129994,1.9229994l-1.1129994,1.9229994h2.2199993L2.6680007,18.0369987z
		 M-0.0650001,15.7659998l0.9089999-1.5780001l-0.9089999-1.5780001h1.8239994l0.9089999-1.5780001l0.9089999,1.5780001H5.401
		l-0.9090014,1.5780001L5.401,15.7659998H3.5800004l-0.9119997,1.5780001l-0.9089999-1.5780001H-0.0650001z"/>
	<polygon class="st1" points="9.0909986,3.0640006 10,4.6419992 10.9090014,3.0640006 12.7330008,3.0640006 11.8239994,1.4890003 
		12.7330008,-0.0889997 10.9090014,-0.0889997 10,-1.6669998 9.0909986,-0.0889997 7.2669992,-0.0889997 8.1760006,1.4890003 
		7.2669992,3.0640006 	"/>
	<polygon class="st1" points="20.0649986,15.7659998 19.1529999,14.1879997 20.0649986,12.6099997 18.2439995,12.6099997 
		17.3320007,11.0350008 16.420002,12.6099997 14.599,12.6099997 15.5080013,14.1879997 14.599,15.7659998 16.420002,15.7659998 
		17.3320007,17.3439999 18.2439995,15.7659998 	"/>
	<polygon class="st1" points="2.6680007,17.3439999 3.5800004,15.7659998 5.401,15.7659998 4.4919987,14.1879997 5.401,12.6099997 
		3.5800004,12.6099997 2.6680007,11.0350008 1.7559996,12.6099997 -0.0650001,12.6099997 0.8469996,14.1879997 
		-0.0650001,15.7659998 1.7559996,15.7659998 	"/>
</g>
<g id="Layer_2_1_">
</g>
<path class="st3" d="M10-18.5c15.5999985,0,28.5,12.9000006,28.5,28.5S25.5999985,38.5,10,38.5S-18.5,25.5999985-18.5,10
	S-5.5999994-18.5,10-18.5 M10-20C-6.5-20-20-6.5-20,10s13.5,30,30,30s30-13.5,30-30S26.5-20,10-20L10-20z"/>
</svg>
