<?xml version="1.0" encoding="utf-8"?>
<svg version="1.1" id="Layer_1" xmlns="http://www.w3.org/2000/svg" xmlns:xlink="http://www.w3.org/1999/xlink" x="0px" y="0px"
	 viewBox="-22 -22 64 64" style="enable-background:new 0 0 20 20;" xml:space="preserve">
<style type="text/css">
	.st0{fill:#FFFFFF;stroke:#B6B6B6;stroke-width:0.15;}
	.st1{fill:#F7E017;}
	.st2{fill:#CF1126;}
	.st3{fill:none;stroke:#000000;stroke-width:0.1668;}
	.st4{fill:none;stroke:#F7E017;stroke-width:0.0234;}
	.st5{fill:none;stroke:#F7E017;stroke-width:0.0066;}
	.st6{fill:#CCCCCC;}
</style>
<g id="Layer_1_1_">
	<circle class="st0" cx="10" cy="10" r="28.8000011"/>
	<path class="st1" d="M32.7970047,27.5500011l-50.7060051-10.566C-14.7860003,29.5090008-3.4940004,38.8000031,10,38.8000031
		C19.2910004,38.8000031,27.5319996,34.3779984,32.7970047,27.5500011z"/>
	<path class="st1" d="M10-18.7999992c-9.2910004,0-17.5319996,4.4189997-22.7970009,11.25L37.9150009,3.013
		C34.7859955-9.5089998,23.4939995-18.7999992,10-18.7999992z"/>
	<path d="M38.0019989,16.6330013L-18.323,4.9000006C-18.6200008,6.5589991-18.7999992,8.256999-18.7999992,10
		c0,2.4119997,0.3269997,4.7459993,0.8909988,6.9840012l50.7090034,10.5629997
		C35.2509995,24.3669987,37.0480042,20.6710014,38.0019989,16.6330013z"/>
	<rect x="9.4300013" y="5.1879997" class="st2" width="1.0379992" height="2.769001"/>
	<rect x="9.4300013" y="5.1879997" class="st3" width="1.0379992" height="2.769001"/>
	<path class="st2" d="M11.5030012,12.493001c-0.0119991-1.9019995,0.0539989-3.7259989,0.1860008-4.2449999
		c0.1290007-0.519001,0.3239994-0.6240005,0.5639992-0.8850002c-0.5699987-0.0600014-1.1970005,0.4890003-1.4880009,1.2120008
		c-0.1829996-0.8130026-0.5250006-1.3650026-0.8280001-1.6410027c-0.3000011,0.276-0.6569996,0.8370008-0.8189993,1.6500006
		c-0.2969999-0.605999-0.8190022-1.2810001-1.4370003-1.2059984c0.2189999,0.263998,0.4199982,0.3569984,0.5549984,0.8639975
		c0.131999,0.506999,0.2010012,2.3220005,0.1529989,4.2209988"/>
	<path class="st3" d="M11.5030012,12.493001c-0.0119991-1.9019995,0.0539989-3.7259989,0.1860008-4.2449999
		c0.1290007-0.519001,0.3239994-0.6240005,0.5639992-0.8850002c-0.5699987-0.0600014-1.1970005,0.4890003-1.4880009,1.2120008
		c-0.1829996-0.8130026-0.5250006-1.3650026-0.8280001-1.6410027c-0.3000011,0.276-0.6569996,0.8370008-0.8189993,1.6500006
		c-0.2969999-0.605999-0.8190022-1.2810001-1.4370003-1.2059984c0.2189999,0.263998,0.4199982,0.3569984,0.5549984,0.8639975
		c0.131999,0.506999,0.2010012,2.3220005,0.1529989,4.2209988"/>
	<path class="st2" d="M11.5959988,17.2480011c-0.0150003-2.2800007,0.0749989-4.2270012,0.198-4.8449993
		c0.1230011-0.618001,0.3239994-0.7349997,0.6090002-1.0019989c-0.6209993-0.0720005-1.2120008,0.1199999-1.5599985,1.1789989
		c-0.1920004-0.9840002-0.5760012-1.4699993-0.9029989-1.8000011c-0.3270006,0.3330002-0.717001,0.8339996-0.8969994,1.8120003
		c-0.3809996-1.0500011-0.9119997-1.2869997-1.5870008-1.1939993c0.2790012,0.2939987,0.5009995,0.4019995,0.6359997,1.0080013
		c0.1379986,0.6090002,0.1560001,2.5350008,0.1020012,4.8150015"/>
	<path class="st3" d="M11.5959988,17.2480011c-0.0150003-2.2800007,0.0749989-4.2270012,0.198-4.8449993
		c0.1230011-0.618001,0.3239994-0.7349997,0.6090002-1.0019989c-0.6209993-0.0720005-1.2120008,0.1199999-1.5599985,1.1789989
		c-0.1920004-0.9840002-0.5760012-1.4699993-0.9029989-1.8000011c-0.3270006,0.3330002-0.717001,0.8339996-0.8969994,1.8120003
		c-0.3809996-1.0500011-0.9119997-1.2869997-1.5870008-1.1939993c0.2790012,0.2939987,0.5009995,0.4019995,0.6359997,1.0080013
		c0.1379986,0.6090002,0.1560001,2.5350008,0.1020012,4.8150015"/>
	<path class="st2" d="M12.2259989,18.5109997c-0.0240011-0.5310001,0.0510006-1.2450008,0.1739988-1.5179996
		c0.1199999-0.2759991,0.2879992-0.4770012,0.4589996-0.7110004C12.1299973,16.177,11.388998,16.230999,10.9989977,17.2989998
		c-0.2519989-0.9750004-0.6359997-1.4850006-1.0500011-1.821002c-0.4139986,0.3330002-0.7740011,0.8399992-1.0290012,1.821002
		c-0.3929987-1.0680008-1.1369991-1.1310005-1.8869991-1.0170002C7.2039967,16.5159988,7.3779955,16.717001,7.5039949,16.993
		c0.1259995,0.2729988,0.2070007,0.9869995,0.1829996,1.5179996"/>
	<path class="st3" d="M12.2259989,18.5109997c-0.0240011-0.5310001,0.0510006-1.2450008,0.1739988-1.5179996
		c0.1199999-0.2759991,0.2879992-0.4770012,0.4589996-0.7110004C12.1299973,16.177,11.388998,16.230999,10.9989977,17.2989998
		c-0.2519989-0.9750004-0.6359997-1.4850006-1.0500011-1.821002c-0.4139986,0.3330002-0.7740011,0.8399992-1.0290012,1.821002
		c-0.3929987-1.0680008-1.1369991-1.1310005-1.8869991-1.0170002C7.2039967,16.5159988,7.3779955,16.717001,7.5039949,16.993
		c0.1259995,0.2729988,0.2070007,0.9869995,0.1829996,1.5179996"/>
	<rect x="9.5589991" y="-0.1879997" class="st2" width="0.7709999" height="2.1900001"/>
	<rect x="9.5589991" y="-0.1879997" class="st3" width="0.7709999" height="2.1900001"/>
	<path class="st2" d="M14.920001,26.8000011c0.1889992,0.1259995,0.9539995,0.2609997,2.3370008,0.0209999
		c2.4120007-0.4229984,2.3910007-2.802,6.1469994-1.6949978c-0.1709995-0.3390007-0.7619991-1.3800011-2.2290001-1.4220009
		c0.1499996-0.4890003,0.2519989-1.2089996-0.0209999-1.6560001c-0.2819996,0.6299992-0.7199993,0.9209995-1.0410004,1.1280003
		c-0.0990009-0.0509987-0.6660004-0.5159988-0.7259998-1.2149982c-0.0869999-1.3859997-0.7589989-1.6289997-0.8310013-1.5930004
		c-0.4350014-0.0119991-3.0479984,4.1219978-8.6399994,4.1459999c-5.5109997,0.0270004-8.2709999-4.1100006-8.5830002-4.1459999
		c-0.0720005-0.0359993-0.75,0.2070007-0.8309999,1.5930004c-0.0599999,0.6989994-0.6359997,1.1429996-0.7319999,1.203001
		c-0.3179998-0.1980019-0.75-0.4860001-1.0349994-1.1160011c-0.276,0.4470024-0.1710005,1.1669998-0.0209999,1.656002
		c-1.4639997,0.0419998-2.0579996,1.0830002-2.2290001,1.421999c3.7559996-1.1040001,3.7650003,1.2749996,6.1740003,1.6949978
		c1.3800001,0.2430019,2.0970011,0.1259995,2.2860003,0"/>
	<path class="st3" d="M14.920001,26.8000011c0.1889992,0.1259995,0.9539995,0.2609997,2.3370008,0.0209999
		c2.4120007-0.4229984,2.3910007-2.802,6.1469994-1.6949978c-0.1709995-0.3390007-0.7619991-1.3800011-2.2290001-1.4220009
		c0.1499996-0.4890003,0.2519989-1.2089996-0.0209999-1.6560001c-0.2819996,0.6299992-0.7199993,0.9209995-1.0410004,1.1280003
		c-0.0990009-0.0509987-0.6660004-0.5159988-0.7259998-1.2149982c-0.0869999-1.3859997-0.7589989-1.6289997-0.8310013-1.5930004
		c-0.4350014-0.0119991-3.0479984,4.1219978-8.6399994,4.1459999c-5.5109997,0.0270004-8.2709999-4.1100006-8.5830002-4.1459999
		c-0.0720005-0.0359993-0.75,0.2070007-0.8309999,1.5930004c-0.0599999,0.6989994-0.6359997,1.1429996-0.7319999,1.203001
		c-0.3179998-0.1980019-0.75-0.4860001-1.0349994-1.1160011c-0.276,0.4470024-0.1710005,1.1669998-0.0209999,1.656002
		c-1.4639997,0.0419998-2.0579996,1.0830002-2.2290001,1.421999c3.7559996-1.1040001,3.7650003,1.2749996,6.1740003,1.6949978
		c1.3800001,0.2430019,2.0970011,0.1259995,2.2860003,0"/>
	<path class="st2" d="M3.2680001,25.6120014c-1.3079996-0.0510006-3.8579993-2.0429993-3.4949999-2.4540005
		c0.1140003-0.1139984,0.6779995,0.0030022,1.6500006,0.684C2.8690004,24.8260002,4.1080008,27.9309998,9.901,27.9099998
		c5.9040012-0.0240002,7.1159983-3.0809975,8.5620012-4.0679989c0.9720001-0.684,1.5810013-0.7890015,1.6469994-0.6569996
		c0.3479996,0.3929977-2.2049999,2.3790016-3.5130024,2.4300003"/>
	<path class="st3" d="M3.2680001,25.6120014c-1.3079996-0.0510006-3.8579993-2.0429993-3.4949999-2.4540005
		c0.1140003-0.1139984,0.6779995,0.0030022,1.6500006,0.684C2.8690004,24.8260002,4.1080008,27.9309998,9.901,27.9099998
		c5.9040012-0.0240002,7.1159983-3.0809975,8.5620012-4.0679989c0.9720001-0.684,1.5810013-0.7890015,1.6469994-0.6569996
		c0.3479996,0.3929977-2.2049999,2.3790016-3.5130024,2.4300003"/>
	<path class="st2" d="M2.5239997,5.7039995c-2.7509995,4.631999,0.1079993,12.7469988,7.4579988,12.7469988
		c7.4129982,0,10.1279984-8.1719999,7.4069996-12.7739983 M1.4769998,5.5179987
		c-5.1660004,5.4449987-2.388,17.9580002,8.3519993,18.1380005C20.6259995,23.776001,23.776001,11.1400003,18.4119987,5.4909992"/>
	<path class="st3" d="M2.5239997,5.7039995c-2.7509995,4.631999,0.1079993,12.7469988,7.4579988,12.7469988
		c7.4129982,0,10.1279984-8.1719999,7.4069996-12.7739983 M1.4769998,5.5179987
		c-5.1660004,5.4449987-2.388,17.9580002,8.3519993,18.1380005C20.6259995,23.776001,23.776001,11.1400003,18.4119987,5.4909992"/>
	<path class="st1" d="M11.8659992,25.2519989c0.375,0.0839996,0.7199993,0.4709988,0.5789995,0.8699989
		c-0.1529989,0.4740009-0.7199993,0.5909996-0.9329996,0.5550022c-0.230999-0.1379986-0.0930004-0.3360004,0.6120014-0.4139996
		c0.4620008-0.1709995,0.0389986-0.4799995-0.3060007-0.6269989C11.631999,25.5550003,11.6920004,25.2159996,11.8659992,25.2519989z
		"/>
	<path class="st4" d="M11.8659992,25.2519989c0.375,0.0839996,0.7199993,0.4709988,0.5789995,0.8699989
		c-0.1529989,0.4740009-0.7199993,0.5909996-0.9329996,0.5550022c-0.230999-0.1379986-0.0930004-0.3360004,0.6120014-0.4139996
		c0.4620008-0.1709995,0.0389986-0.4799995-0.3060007-0.6269989C11.631999,25.5550003,11.6920004,25.2159996,11.8659992,25.2519989z
		"/>
	<path class="st1" d="M10.6989994,25.132c0.177-0.1980019,0.3179998,0.4079971,0.3540001,0.8310013
		c0.0510006,0.4109993,0.0570002,0.9209995-0.1080008,0.947998c-0.1020012,0.0179996-0.0179987-0.473999-0.1199999-0.9239979
		C10.6870003,25.4650002,10.6300001,25.2189999,10.6989994,25.132z"/>
	<path class="st4" d="M10.6989994,25.132c0.177-0.1980019,0.3179998,0.4079971,0.3540001,0.8310013
		c0.0510006,0.4109993,0.0570002,0.9209995-0.1080008,0.947998c-0.1020012,0.0179996-0.0179987-0.473999-0.1199999-0.9239979
		C10.6870003,25.4650002,10.6300001,25.2189999,10.6989994,25.132z"/>
	<path class="st1" d="M10.3000011,25.882c0.4379997,0.4259987-0.3060007,1.6559982-1.9289989,1.1189995
		C8.2780018,26.829998,9.0160027,26.9979973,9.538002,26.907999C10.5250006,26.7550011,10.1020012,25.6930008,10.3000011,25.882z"/>
	<path class="st4" d="M10.3000011,25.882c0.4379997,0.4259987-0.3060007,1.6559982-1.9289989,1.1189995
		C8.2780018,26.829998,9.0160027,26.9979973,9.538002,26.907999C10.5250006,26.7550011,10.1020012,25.6930008,10.3000011,25.882z"/>
	<path class="st1" d="M9.5050001,25.0389977c0.177-0.197998,0.0720005,0.4320011,0.1080008,0.8520012
		c0.0360003,0.3959999-0.0090008,0.882-0.1949987,0.8190002c-0.1020012-0.0480003,0.0660009-0.4949989-0.0389986-0.9150009
		C9.2650003,25.2669983,9.3730011,25.1710014,9.5050001,25.0389977z"/>
	<path class="st4" d="M9.5050001,25.0389977c0.177-0.197998,0.0720005,0.4320011,0.1080008,0.8520012
		c0.0360003,0.3959999-0.0090008,0.882-0.1949987,0.8190002c-0.1020012-0.0480003,0.0660009-0.4949989-0.0389986-0.9150009
		C9.2650003,25.2669983,9.3730011,25.1710014,9.5050001,25.0389977z"/>
	<path class="st1" d="M8.3890009,24.868c0.3120003-0.0030003,0.2280006,0.0870018,0.2039995,0.9120007
		c-0.0269995,0.9300022-0.8100014,1.0350018-0.993001,0.7769985c-0.1560001-0.197998-0.099-0.2579994-0.8010006-0.1919994
		c-0.1560001-0.078001-0.1500006-0.2490005-0.6629992-0.2040005c-0.131999,0.0240021-0.1259995-0.2280006-0.3659992-0.3780003
		c-0.4169998-0.2490005-0.5550013,0.1830006-1.3470011-0.2729988C4.375,25.4799995,4.0510006,25.276001,4.1080008,24.8740005
		c0.0600014-0.5100002-0.4019995,0.0629997-0.9119997-0.1619987c-0.0960016-0.0419998-0.3960013-0.1680031-0.6600008-0.3990021
		c-0.375-0.3210011,0.0180001-0.3869991,0.5219994-0.0569992c0.3120003,0.197998,0.7680001-0.2550011,0.7800007-0.7110023
		c0.0300007-0.4799995-0.2100005-0.6090012,0.1589999-0.5970001c0.2069993,0.0059986,0.1589999,0.8399982-0.1920004,1.2089996
		c-0.4680004,0.5099983-0.1530004,0.4109993,0.0150003,0.3869972c0.177-0.0419998,0.9719996-1.0319977,1.1069999-0.947998
		c0.2070007,0.1409988-0.6209993,0.7709999-0.4350014,1.3709984c0.0899992,0.2639999,0.5820007,0.5219994,0.9870014,0.5610008
		c0.4770012,0.0779991,0.4770012-0.5699997,0.6750011-0.4470005c0.2669992,0.177-0.5129986,0.5069981,0.3060007,0.75
		c0.1800013,0.0539989,0.2850008-0.4050007,0.3929987-0.3869991c0.2550001,0.0419998-0.1679993,0.5400009,0.2910004,0.6149998
		c0.3210011,0.0539989,0.2340002-0.4649982,0.4320002-0.4320011c0.230999-0.0149994,0.0150003,0.828001,0.651,0.7410011
		C8.4849997,26.3380013,8.0649986,24.8709984,8.3890009,24.868z"/>
	<path class="st4" d="M8.3890009,24.868c0.3120003-0.0030003,0.2280006,0.0870018,0.2039995,0.9120007
		c-0.0269995,0.9300022-0.8100014,1.0350018-0.993001,0.7769985c-0.1560001-0.197998-0.099-0.2579994-0.8010006-0.1919994
		c-0.1560001-0.078001-0.1500006-0.2490005-0.6629992-0.2040005c-0.131999,0.0240021-0.1259995-0.2280006-0.3659992-0.3780003
		c-0.4169998-0.2490005-0.5550013,0.1830006-1.3470011-0.2729988C4.375,25.4799995,4.0510006,25.276001,4.1080008,24.8740005
		c0.0600014-0.5100002-0.4019995,0.0629997-0.9119997-0.1619987c-0.0960016-0.0419998-0.3960013-0.1680031-0.6600008-0.3990021
		c-0.375-0.3210011,0.0180001-0.3869991,0.5219994-0.0569992c0.3120003,0.197998,0.7680001-0.2550011,0.7800007-0.7110023
		c0.0300007-0.4799995-0.2100005-0.6090012,0.1589999-0.5970001c0.2069993,0.0059986,0.1589999,0.8399982-0.1920004,1.2089996
		c-0.4680004,0.5099983-0.1530004,0.4109993,0.0150003,0.3869972c0.177-0.0419998,0.9719996-1.0319977,1.1069999-0.947998
		c0.2070007,0.1409988-0.6209993,0.7709999-0.4350014,1.3709984c0.0899992,0.2639999,0.5820007,0.5219994,0.9870014,0.5610008
		c0.4770012,0.0779991,0.4770012-0.5699997,0.6750011-0.4470005c0.2669992,0.177-0.5129986,0.5069981,0.3060007,0.75
		c0.1800013,0.0539989,0.2850008-0.4050007,0.3929987-0.3869991c0.2550001,0.0419998-0.1679993,0.5400009,0.2910004,0.6149998
		c0.3210011,0.0539989,0.2340002-0.4649982,0.4320002-0.4320011c0.230999-0.0149994,0.0150003,0.828001,0.651,0.7410011
		C8.4849997,26.3380013,8.0649986,24.8709984,8.3890009,24.868z"/>
	<path class="st1" d="M2.6170001,23.7790012c0.1829996-0.0389996,0.5009995-0.2099991,0.513-0.4859982
		c0.0269995-0.3030014-0.3959999-0.4080009-0.8969994-0.3270016c-0.2609997,0.0389996-0.711-0.1319981-0.9749994-0.3570004
		c-0.2639995-0.3270016-0.2639995-0.6990013-0.5789995-0.5400009C0.4420018,22.177,1.0060024,22.7800007,1.2850022,22.927
		c0.276,0.144001,0.7260003,0.1319981,0.7529998,0.342001C2.0590005,23.4759979,1.9299998,23.8029995,2.6170001,23.7790012z"/>
	<path class="st4" d="M2.6170001,23.7790012c0.1829996-0.0389996,0.5009995-0.2099991,0.513-0.4859982
		c0.0269995-0.3030014-0.3959999-0.4080009-0.8969994-0.3270016c-0.2609997,0.0389996-0.711-0.1319981-0.9749994-0.3570004
		c-0.2639995-0.3270016-0.2639995-0.6990013-0.5789995-0.5400009C0.4420018,22.177,1.0060024,22.7800007,1.2850022,22.927
		c0.276,0.144001,0.7260003,0.1319981,0.7529998,0.342001C2.0590005,23.4759979,1.9299998,23.8029995,2.6170001,23.7790012z"/>
	<path class="st1" d="M13.8280001,25.1920013c-0.1020012,0.0479984-0.1829996,0.9720001,0.3929987,0.9899979
		c0.7230005,0.0270004,1.0859985-0.3389988,1.2659998-0.4679985c0.3000011-0.2280006,0.8399992-0.684,0.5909986-1.0799999
		c-0.1259995-0.144001-0.1949987,0.2609997-0.3389997,0.5009995c-0.1949987,0.3480015-0.8699999,0.7590008-1.3859997,0.7049999
		C13.717001,25.8010006,13.9539995,25.1590004,13.8280001,25.1920013z"/>
	<path class="st4" d="M13.8280001,25.1920013c-0.1020012,0.0479984-0.1829996,0.9720001,0.3929987,0.9899979
		c0.7230005,0.0270004,1.0859985-0.3389988,1.2659998-0.4679985c0.3000011-0.2280006,0.8399992-0.684,0.5909986-1.0799999
		c-0.1259995-0.144001-0.1949987,0.2609997-0.3389997,0.5009995c-0.1949987,0.3480015-0.8699999,0.7590008-1.3859997,0.7049999
		C13.717001,25.8010006,13.9539995,25.1590004,13.8280001,25.1920013z"/>
	<path class="st1" d="M15.3100014,24.7659988c-0.1469994-0.1109982,0.3239994-0.2939987,0.375-0.4649982
		c0.0479994-0.1739979-0.2099991-0.3330002-0.0660009-0.5219994c0.1500006-0.2490005,0.1590014,0.4680004,0.3509989,0.4890003
		c0.5310001,0.0539989,0.152998,0.3959999-0.0479994,0.329998C15.6970005,24.5290012,15.4000006,24.8499985,15.3100014,24.7659988z"
		/>
	<path class="st4" d="M15.3100014,24.7659988c-0.1469994-0.1109982,0.3239994-0.2939987,0.375-0.4649982
		c0.0479994-0.1739979-0.2099991-0.3330002-0.0660009-0.5219994c0.1500006-0.2490005,0.1590014,0.4680004,0.3509989,0.4890003
		c0.5310001,0.0539989,0.152998,0.3959999-0.0479994,0.329998C15.6970005,24.5290012,15.4000006,24.8499985,15.3100014,24.7659988z"
		/>
	<path class="st1" d="M14.8990011,23.6800003C14.8630009,23.920002,15.0070019,23.9800034,15.052,23.842001
		C15.105999,23.5870018,14.9589996,23.467001,14.8990011,23.6800003z"/>
	<path class="st4" d="M14.8990011,23.6800003C14.8630009,23.920002,15.0070019,23.9800034,15.052,23.842001
		C15.105999,23.5870018,14.9589996,23.467001,14.8990011,23.6800003z"/>
	<path class="st1" d="M15.2860003,23.4339981c-0.0870008,0.0060005-0.099,0.3030014,0.0150003,0.3120003
		c0.1199999,0.0090027,0.0629997,0.2130013,0.1650009,0.2099991c0.1199999-0.0030003,0.1290007-0.3389988-0.0059996-0.3419991
		C15.3310013,23.6080017,15.3609991,23.4339981,15.2860003,23.4339981z"/>
	<path class="st4" d="M15.2860003,23.4339981c-0.0870008,0.0060005-0.099,0.3030014,0.0150003,0.3120003
		c0.1199999,0.0090027,0.0629997,0.2130013,0.1650009,0.2099991c0.1199999-0.0030003,0.1290007-0.3389988-0.0059996-0.3419991
		C15.3310013,23.6080017,15.3609991,23.4339981,15.2860003,23.4339981z"/>
	<path class="st1" d="M16.243,23.3769989c-0.1020012,0.1290016-0.2939978-0.4949989,0.3540001-0.5849991
		c0.309,0.0270004,0.5699997,0.5369987,0.5400009,1.0229988c-0.0119972,0.1800003-0.0179977,0.5880013-0.1169968,0.7890015
		c-0.0839996,0.1889992-0.3810005,0.8160019-0.5250015,0.7590008c-0.144001-0.0539989,0.0359993-0.3179989,0.2790012-0.6810017
		c0.1949978-0.296999,0.2700005-1.1219978,0.1739979-1.2659988c-0.0960007-0.144001-0.2010002,0.3630009-0.4079971,0.4709988
		c-0.1739998,0.0899982-0.3540001-0.1739979-0.3810005-0.3000011c-0.0240021-0.1500015,0.1140003-0.243,0.2070007-0.0629997
		c0.0720005,0.1350002,0.3029995-0.132,0.2970009-0.3239994C16.6720009,22.8969994,16.4680004,23.1399994,16.243,23.3769989z"/>
	<path class="st4" d="M16.243,23.3769989c-0.1020012,0.1290016-0.2939978-0.4949989,0.3540001-0.5849991
		c0.309,0.0270004,0.5699997,0.5369987,0.5400009,1.0229988c-0.0119972,0.1800003-0.0179977,0.5880013-0.1169968,0.7890015
		c-0.0839996,0.1889992-0.3810005,0.8160019-0.5250015,0.7590008c-0.144001-0.0539989,0.0359993-0.3179989,0.2790012-0.6810017
		c0.1949978-0.296999,0.2700005-1.1219978,0.1739979-1.2659988c-0.0960007-0.144001-0.2010002,0.3630009-0.4079971,0.4709988
		c-0.1739998,0.0899982-0.3540001-0.1739979-0.3810005-0.3000011c-0.0240021-0.1500015,0.1140003-0.243,0.2070007-0.0629997
		c0.0720005,0.1350002,0.3029995-0.132,0.2970009-0.3239994C16.6720009,22.8969994,16.4680004,23.1399994,16.243,23.3769989z"/>
	<path class="st1" d="M17.6379986,21.9880009c-0.0810013,0.1169987-0.3630009,0.3809986-0.4169998,0.4890003
		s-0.0629997,0.3000011,0.0269985,0.4799995c0.0900002,0.1800003,0.2820015,0.4680004,0.2460003,0.7350006
		c-0.0360012,0.2609978-0.2159977,0.8069992-0.1169987,0.7589989c0.098999-0.0450001,0.342001-0.5789986,0.2910004-0.9869976
		c-0.0539989-0.407999-0.2459984-0.6330013-0.2070007-0.7679996c0.0389977-0.1349964,0.2609997-0.3899994,0.3089981-0.5610008
		c0.045002-0.1739979-0.0269985-0.6329994-0.0899982-0.671999c-0.0629997-0.0360012-0.2910004,0.0450001-0.2189999,0.198
		C17.5270004,21.8170013,17.6829987,21.723999,17.6379986,21.9880009z"/>
	<path class="st4" d="M17.6379986,21.9880009c-0.0810013,0.1169987-0.3630009,0.3809986-0.4169998,0.4890003
		s-0.0629997,0.3000011,0.0269985,0.4799995c0.0900002,0.1800003,0.2820015,0.4680004,0.2460003,0.7350006
		c-0.0360012,0.2609978-0.2159977,0.8069992-0.1169987,0.7589989c0.098999-0.0450001,0.342001-0.5789986,0.2910004-0.9869976
		c-0.0539989-0.407999-0.2459984-0.6330013-0.2070007-0.7679996c0.0389977-0.1349964,0.2609997-0.3899994,0.3089981-0.5610008
		c0.045002-0.1739979-0.0269985-0.6329994-0.0899982-0.671999c-0.0629997-0.0360012-0.2910004,0.0450001-0.2189999,0.198
		C17.5270004,21.8170013,17.6829987,21.723999,17.6379986,21.9880009z"/>
	<path class="st1" d="M18.0129986,22.2010002c-0.1020012,0.0930023-0.0510006,0.597002,0.0899982,0.4169998
		C18.2290001,22.4379997,18.0939999,22.1169987,18.0129986,22.2010002z"/>
	<path class="st4" d="M18.0129986,22.2010002c-0.1020012,0.0930023-0.0510006,0.597002,0.0899982,0.4169998
		C18.2290001,22.4379997,18.0939999,22.1169987,18.0129986,22.2010002z"/>
	<path class="st1" d="M15.3520012,25.948c-0.0479994,0.222002,0.1710005,0.2910004,0.230999,0.1650009
		C15.6519995,25.8759995,15.4360008,25.7469978,15.3520012,25.948z"/>
	<path class="st4" d="M15.3520012,25.948c-0.0479994,0.222002,0.1710005,0.2910004,0.230999,0.1650009
		C15.6519995,25.8759995,15.4360008,25.7469978,15.3520012,25.948z"/>
	<path class="st1" d="M15.6820002,25.7590008c-0.0689993,0.1800022,0.2459993,0.198,0.3329992,0.0959988
		C16.1230011,25.6599998,15.8050013,25.5939999,15.6820002,25.7590008z"/>
	<path class="st4" d="M15.6820002,25.7590008c-0.0689993,0.1800022,0.2459993,0.198,0.3329992,0.0959988
		C16.1230011,25.6599998,15.8050013,25.5939999,15.6820002,25.7590008z"/>
	<path class="st2" d="M2.5750003,23.1429977C2.4039998,23.0680008,2.4160004,23.4099998,2.4970002,23.5
		C2.5750003,23.5930004,3.0369997,23.355999,2.5750003,23.1429977z"/>
	<path class="st4" d="M2.5750003,23.1429977C2.4039998,23.0680008,2.4160004,23.4099998,2.4970002,23.5
		C2.5750003,23.5930004,3.0369997,23.355999,2.5750003,23.1429977z"/>
	<path class="st2" d="M10.0150003,4.5340014C8.3199987,4.8730011,7.1560001,5.8659992,7.704999,6.204999
		C8.0379992,6.427,9.6069984,5.8149986,9.9370003,5.2989988c0.6030006,0.9179993,2.2320013,1.2630014,2.6280012,1.0589991"/>
	<path class="st3" d="M10.0150003,4.5340014C8.3199987,4.8730011,7.1560001,5.8659992,7.704999,6.204999
		C8.0379992,6.427,9.6069984,5.8149986,9.9370003,5.2989988c0.6030006,0.9179993,2.2320013,1.2630014,2.6280012,1.0589991"/>
	<path class="st2" d="M1.2310004,3.9879994c0.2819996,0.4349999,1.737,1.4819999,2.7839999,1.5599999
		c1.0499983,0.0780001,3.4260006,0.564002,3.8850002,0.3599997c0.4620008-0.2039995,1.7640009-1.1009989,2.0939999-0.9449987
		c0.329999,0.1529989,2.2740011,1.2270012,2.9880009,1.1999989c0.717001-0.0269995,5.3399992-1.3320007,5.4959993-1.5839996
		c0.1529999-0.2550001-0.9210014-0.9210005-1.6110001-0.9210005C16.177,3.6580005,1.2310004,4.0150003,1.2310004,3.9879994z"/>
	<path class="st2" d="M5.2989988,6.0970011c0.0090008,0.2609997,0.2099991,0.4499989,0.6899986,0.4560013
		C6.7989988,6.5710011,8.166997,6.1870031,8.9799967,5.269001"/>
	<path class="st3" d="M5.2989988,6.0970011c0.0090008,0.2609997,0.2099991,0.4499989,0.6899986,0.4560013
		C6.7989988,6.5710011,8.166997,6.1870031,8.9799967,5.269001"/>
	<path class="st2" d="M2.875,5.7130003C2.8330002,5.9320002,3.1959996,6.217001,3.9039998,6.2230005
		c0.7050004,0.0090008,3.1740003-0.2910004,3.9660001-1.1190004"/>
	<path class="st3" d="M2.875,5.7130003C2.8330002,5.9320002,3.1959996,6.217001,3.9039998,6.2230005
		c0.7050004,0.0090008,3.1740003-0.2910004,3.9660001-1.1190004"/>
	<path class="st2" d="M1.2039995,5.0469999C0.823,5.5360003,2.0349994,5.7099991,2.7579999,5.7039995
		c0.7260003-0.0090008,2.5950007-0.0179987,3.4290004-0.6419992"/>
	<path class="st3" d="M1.2039995,5.0469999C0.823,5.5360003,2.0349994,5.7099991,2.7579999,5.7039995
		c0.7260003-0.0090008,2.5950007-0.0179987,3.4290004-0.6419992"/>
	<path class="st2" d="M-0.1190004,4.2249994C-0.4819999,4.704999,0.7359991,5.1279984,2.2209988,5.0949993
		c1.3649998-0.0360003,2.7540007-0.506999,2.7540007-0.506999"/>
	<path class="st3" d="M-0.1190004,4.2249994C-0.4819999,4.704999,0.7359991,5.1279984,2.2209988,5.0949993
		c1.3649998-0.0360003,2.7540007-0.506999,2.7540007-0.506999"/>
	<path class="st2" d="M14.5539989,6.0970011c-0.0090008,0.2609997-0.2099991,0.4499989-0.6899986,0.4560013
		c-0.8100014,0.0179987-2.1779995-0.3659992-2.9940004-1.2840014"/>
	<path class="st3" d="M14.5539989,6.0970011c-0.0090008,0.2609997-0.2099991,0.4499989-0.6899986,0.4560013
		c-0.8100014,0.0179987-2.1779995-0.3659992-2.9940004-1.2840014"/>
	<path class="st2" d="M16.9780006,5.7130003c0.0419998,0.2189999-0.3210011,0.506999-1.0290012,0.5159998
		s-3.177-0.2969999-3.9689999-1.1190004"/>
	<path class="st3" d="M16.9780006,5.7130003c0.0419998,0.2189999-0.3210011,0.506999-1.0290012,0.5159998
		s-3.177-0.2969999-3.9689999-1.1190004"/>
	<path class="st2" d="M18.6399994,5.0589991c0.3810005,0.4890003-0.8189983,0.6540012-1.5450001,0.6450005
		C16.3689995,5.6949987,14.5,5.6860008,13.6660004,5.0620003"/>
	<path class="st3" d="M18.6399994,5.0589991c0.3810005,0.4890003-0.8189983,0.6540012-1.5450001,0.6450005
		C16.3689995,5.6949987,14.5,5.6860008,13.6660004,5.0620003"/>
	<path class="st2" d="M19.9749985,4.2189999c0.3630028,0.4799995-0.8579998,0.9090014-2.3399982,0.8790007
		c-1.3649998-0.0360003-2.7540007-0.506999-2.7540007-0.506999"/>
	<path class="st3" d="M19.9749985,4.2189999c0.3630028,0.4799995-0.8579998,0.9090014-2.3399982,0.8790007
		c-1.3649998-0.0360003-2.7540007-0.506999-2.7540007-0.506999"/>
	<path class="st2" d="M2.7880006,4.1829996c-1.8840008,0.2730017-2.7510009,0.131999-3.1230011-0.0479994
		c-0.4710002-0.2070007-1.2749991-0.8339996-0.0869994-0.8580008c0.7860003-0.0119991,1.1820002,0.045001,2.0789995,0.0419998
		c2.289-0.0300007,5.592001-1.836,6.5910015-1.8419995C9.1779995,1.4680004,9.427,1.9000006,9.9580002,1.9060001
		C10.5009995,1.9119997,10.6779995,1.4680004,11.6080008,1.474C12.6099997,1.4829993,15.913002,3.289,18.1989994,3.3159995
		c0.8969994,0.0059996,1.2900009-0.0540004,2.0760021-0.039c1.1879997,0.0239997,0.3839989,0.6539998-0.0870018,0.8580008
		c-0.375,0.1800013-1.2449989,0.3210011-3.1290016,0.045001"/>
	<path class="st3" d="M2.7880006,4.1829996c-1.8840008,0.2730017-2.7510009,0.131999-3.1230011-0.0479994
		c-0.4710002-0.2070007-1.2749991-0.8339996-0.0869994-0.8580008c0.7860003-0.0119991,1.1820002,0.045001,2.0789995,0.0419998
		c2.289-0.0300007,5.592001-1.836,6.5910015-1.8419995C9.1779995,1.4680004,9.427,1.9000006,9.9580002,1.9060001
		C10.5009995,1.9119997,10.6779995,1.4680004,11.6080008,1.474C12.6099997,1.4829993,15.913002,3.289,18.1989994,3.3159995
		c0.8969994,0.0059996,1.2900009-0.0540004,2.0760021-0.039c1.1879997,0.0239997,0.3839989,0.6539998-0.0870018,0.8580008
		c-0.375,0.1800013-1.2449989,0.3210011-3.1290016,0.045001"/>
	<path class="st2" d="M9.9189987-2.5819993c-0.8849974,0.0419998-2.105999-0.1110005-2.4929981,0.881999
		C6.8289995-0.5720005,6.9969988,0.7089996,7.2640009,0.7390003C7.7440004,0.7900009,7.7890015-0.5419998,7.993001-0.5419998
		c0.2130003-0.0029998,0.2130003,1.1580005,0.6300001,1.1489997c0.3120003-0.0089993,0.506999-1.1669998,0.605999-1.1580005
		s0.3029995,1.1160007,0.6960011,1.1160007c0.420001,0,0.5999994-1.1040001,0.6960011-1.1160007
		c0.099-0.0089993,0.2939987,1.1489997,0.605999,1.1580005c0.4169998,0.0089993,0.4169998-1.1519995,0.6300001-1.1489997
		C12.0610008-0.539,12.151,0.7869997,12.6310024,0.7299995c0.2669992-0.0269995,0.3990011-1.302-0.1949987-2.4299998
		C12.0489988-2.6929998,10.8039989-2.5399995,9.9189987-2.5819993z"/>
	<path class="st3" d="M9.9189987-2.5819993c-0.8849974,0.0419998-2.105999-0.1110005-2.4929981,0.881999
		C6.8289995-0.5720005,6.9969988,0.7089996,7.2640009,0.7390003C7.7440004,0.7900009,7.7890015-0.5419998,7.993001-0.5419998
		c0.2130003-0.0029998,0.2130003,1.1580005,0.6300001,1.1489997c0.3120003-0.0089993,0.506999-1.1669998,0.605999-1.1580005
		s0.3029995,1.1160007,0.6960011,1.1160007c0.420001,0,0.5999994-1.1040001,0.6960011-1.1160007
		c0.099-0.0089993,0.2939987,1.1489997,0.605999,1.1580005c0.4169998,0.0089993,0.4169998-1.1519995,0.6300001-1.1489997
		C12.0610008-0.539,12.151,0.7869997,12.6310024,0.7299995c0.2669992-0.0269995,0.3990011-1.302-0.1949987-2.4299998
		C12.0489988-2.6929998,10.8039989-2.5399995,9.9189987-2.5819993z"/>
	<path class="st2" d="M7.795001-2.1799998c0.2399998,0.3989997,2.0939999,0.3930001,2.1960011,0.3930001
		c0.1049995,0,1.7220011,0.0209999,2.1030006-0.3720002"/>
	<path class="st3" d="M7.795001-2.1799998c0.2399998,0.3989997,2.0939999,0.3930001,2.1960011,0.3930001
		c0.1049995,0,1.7220011,0.0209999,2.1030006-0.3720002"/>
	<path class="st2" d="M9.5860014-6.3499994v3.9420004c0,0,0.0240011,0.2219996,0.3480005,0.2280006
		c0.3239994,0.0059996,0.375-0.1829996,0.375-0.2130003L10.2940016-6.355999"/>
	<path class="st3" d="M9.5860014-6.3499994v3.9420004c0,0,0.0240011,0.2219996,0.3480005,0.2280006
		c0.3239994,0.0059996,0.375-0.1829996,0.375-0.2130003L10.2940016-6.355999"/>
	<path class="st2" d="M9.967001-5.8909998C11.4520006-5.9689999,11.8930016-5.0899992,12.3100014-4.901
		c0.420001,0.1890006,0.6120014,0.2670007,1.1820002,0.2280006c0.5699987-0.0360003-0.9899998,0.9539995-0.9899998,0.9899998
		l0.5699987,1.0289998c-0.5340014,0.0750003-1.5419998-0.4169998-1.9410009-0.6840005
		c-0.4530001-0.2670007-0.9510012-0.1140003-1.1400003-0.1530004L9.967001-5.8909998z"/>
	<path class="st3" d="M9.967001-5.8909998C11.4520006-5.9689999,11.8930016-5.0899992,12.3100014-4.901
		c0.420001,0.1890006,0.6120014,0.2670007,1.1820002,0.2280006c0.5699987-0.0360003-0.9899998,0.9539995-0.9899998,0.9899998
		l0.5699987,1.0289998c-0.5340014,0.0750003-1.5419998-0.4169998-1.9410009-0.6840005
		c-0.4530001-0.2670007-0.9510012-0.1140003-1.1400003-0.1530004L9.967001-5.8909998z"/>
	<ellipse class="st2" cx="9.9370003" cy="-7.0939999" rx="0.8549995" ry="0.8189993"/>
	<ellipse class="st3" cx="9.9370003" cy="-7.0939999" rx="0.8549995" ry="0.8189993"/>
	<path class="st1" d="M0.7600002,12.4870014c-0.1110005,0.1590014-0.2100005-0.2580013-0.5999994,0.0360003
		c-0.2189999,0.1860008-0.3090005,0.474-0.3060007,1.0739994c0,0.5100002,0.2940001,0.849,0.4650006,0.8160009
		c0.2579999-0.0360003,0.1229997-0.6569996,0.4050007-0.7679987c0.4050007-0.1920004,0.9840002,0.1020012,1.086,0.474
		c0.1019998,0.375-0.1920004,0.7800007-0.5100002,0.7349997c-0.1799998-0.0689993,0.1019998-0.3270006,0.1229997-0.4410009
		c0.0239997-0.1109991,0.0540004-0.4859991-0.2160001-0.5880003s-0.2280006,0.2700005-0.237,0.375
		c-0.0120006,0.1020012-0.2039995,0.4169998-0.4169998,0.4050007c-0.2160001-0.0119991-0.5549998-0.0119991-0.8939996-0.375
		c-0.1799998-0.1860008-0.3959999-0.6899986-0.2039995-1.3260012c0.1920004-0.6330013,0.5219994-0.6899986,0.6989994-0.7020006
		C0.3400006,12.1960011,0.8049998,12.3070002,0.7600002,12.4870014z"/>
	<path class="st4" d="M0.7600002,12.4870014c-0.1110005,0.1590014-0.2100005-0.2580013-0.5999994,0.0360003
		c-0.2189999,0.1860008-0.3090005,0.474-0.3060007,1.0739994c0,0.5100002,0.2940001,0.849,0.4650006,0.8160009
		c0.2579999-0.0360003,0.1229997-0.6569996,0.4050007-0.7679987c0.4050007-0.1920004,0.9840002,0.1020012,1.086,0.474
		c0.1019998,0.375-0.1920004,0.7800007-0.5100002,0.7349997c-0.1799998-0.0689993,0.1019998-0.3270006,0.1229997-0.4410009
		c0.0239997-0.1109991,0.0540004-0.4859991-0.2160001-0.5880003s-0.2280006,0.2700005-0.237,0.375
		c-0.0120006,0.1020012-0.2039995,0.4169998-0.4169998,0.4050007c-0.2160001-0.0119991-0.5549998-0.0119991-0.8939996-0.375
		c-0.1799998-0.1860008-0.3959999-0.6899986-0.2039995-1.3260012c0.1920004-0.6330013,0.5219994-0.6899986,0.6989994-0.7020006
		C0.3400006,12.1960011,0.8049998,12.3070002,0.7600002,12.4870014z"/>
	<path class="st1" d="M0.2979994,15.1240005C0.112,15.0219994,0.3699999,14.6560001-0.1190004,14.7850008
		c-0.1950002,0.0539989,0.2940001,0.6209993,0.5100002,0.6450005C0.6220002,15.4090014,0.5560007,15.2530012,0.2979994,15.1240005z"
		/>
	<path class="st4" d="M0.2979994,15.1240005C0.112,15.0219994,0.3699999,14.6560001-0.1190004,14.7850008
		c-0.1950002,0.0539989,0.2940001,0.6209993,0.5100002,0.6450005C0.6220002,15.4090014,0.5560007,15.2530012,0.2979994,15.1240005z"
		/>
	<path class="st1" d="M0.8170004,15.4300013c0.1019998,0.4649992,0.198,0.4229994,0.2160001,0.6570005
		c0.0089993,0.296999-0.4979997,0.1709995-0.5640006,0.3059998c-0.0689993,0.1350002-0.1589999,0.4860001,0.1710005,0.5100002
		c0.3270006,0.0240002,0.7979994-0.1049995,0.8939996,0.1230011C1.789,17.6680031,2.3350005,17.5720024,2.5869994,17.4760017
		C2.875,17.3620014,3.5499997,16.7500038,3.7030001,16.6990013c0.2310004-0.0839996-0.2160001-0.2519989-0.474-0.0240002
		c-0.0659995,0.0689983-0.6329999,0.6450005-0.927,0.6569996C2.086,17.3560028,1.7559996,16.8100014,1.7680001,16.6209984
		c0.0239997-0.1349983,0.5189996-0.0240002,0.5880003-0.3059998c0.0510006-0.2010002,0.0570002-0.4169998-0.1019998-0.4289989
		s-0.9030004,0.0899992-0.927-0.0240011c-0.1350002-0.3270006,0.1350002-0.4649992,0.0360003-0.5550013
		C1.2459993,15.2590008,0.8259997,15.1929998,0.8170004,15.4300013z"/>
	<path class="st4" d="M0.8170004,15.4300013c0.1019998,0.4649992,0.198,0.4229994,0.2160001,0.6570005
		c0.0089993,0.296999-0.4979997,0.1709995-0.5640006,0.3059998c-0.0689993,0.1350002-0.1589999,0.4860001,0.1710005,0.5100002
		c0.3270006,0.0240002,0.7979994-0.1049995,0.8939996,0.1230011C1.789,17.6680031,2.3350005,17.5720024,2.5869994,17.4760017
		C2.875,17.3620014,3.5499997,16.7500038,3.7030001,16.6990013c0.2310004-0.0839996-0.2160001-0.2519989-0.474-0.0240002
		c-0.0659995,0.0689983-0.6329999,0.6450005-0.927,0.6569996C2.086,17.3560028,1.7559996,16.8100014,1.7680001,16.6209984
		c0.0239997-0.1349983,0.5189996-0.0240002,0.5880003-0.3059998c0.0510006-0.2010002,0.0570002-0.4169998-0.1019998-0.4289989
		s-0.9030004,0.0899992-0.927-0.0240011c-0.1350002-0.3270006,0.1350002-0.4649992,0.0360003-0.5550013
		C1.2459993,15.2590008,0.8259997,15.1929998,0.8170004,15.4300013z"/>
	<path class="st1" d="M3.3309999,17.2299995C3.0910001,17.4819984,2.461,17.8840008,2.461,18.1660004
		c0,0.1619987,0.177,0.4109993,0.3239994,0.4709988c0.2160001,0.0869999,0.5490003,0.0629997,0.8040004-0.1319981
		C3.8709993,18.2709999,4,18.0340004,3.8800001,17.9949989c-0.4320002-0.1230011-0.4439993,0.4710007-0.651,0.4920006
		c-0.198,0.0179977-0.5009995-0.3030014-0.1049995-0.6990013S4.0689993,16.9929981,4.0479994,16.882
		C4.0300007,16.7649994,3.5020003,17.0559998,3.3309999,17.2299995z"/>
	<path class="st4" d="M3.3309999,17.2299995C3.0910001,17.4819984,2.461,17.8840008,2.461,18.1660004
		c0,0.1619987,0.177,0.4109993,0.3239994,0.4709988c0.2160001,0.0869999,0.5490003,0.0629997,0.8040004-0.1319981
		C3.8709993,18.2709999,4,18.0340004,3.8800001,17.9949989c-0.4320002-0.1230011-0.4439993,0.4710007-0.651,0.4920006
		c-0.198,0.0179977-0.5009995-0.3030014-0.1049995-0.6990013S4.0689993,16.9929981,4.0479994,16.882
		C4.0300007,16.7649994,3.5020003,17.0559998,3.3309999,17.2299995z"/>
	<path class="st1" d="M2.2990003,18.8919983c-0.0180001,0.1590023,0.4050007,0.1620007,0.4799995,0.0209999
		C2.836,18.8079987,2.3200002,18.7330017,2.2990003,18.8919983z"/>
	<path class="st4" d="M2.2990003,18.8919983c-0.0180001,0.1590023,0.4050007,0.1620007,0.4799995,0.0209999
		C2.836,18.8079987,2.3200002,18.7330017,2.2990003,18.8919983z"/>
	<path class="st1" d="M3.7269998,18.9969978C3.487,19.2489967,3.7570004,19.5339985,3.9370003,19.7649975
		c0.1020012,0.1230011,0.3330002,0.2490005,0.4770012,0.3060017c0.2159986,0.0869999,0.6479988,0.053997,0.9000006-0.1410007
		c0.2879992-0.2339993,0.3089991-0.6420002,0.1350002-0.6420002c-0.4499989-0.0059986-0.1350002,0.6000004-0.342001,0.6150017
		c-0.198,0.0179977-0.7559996-0.1080017-1.026-0.684c-0.1560001-0.3389988,0.2850008-0.4019985,0.2189999-0.5489979
		C4.2370014,18.5139999,3.901,18.823,3.7269998,18.9969978z"/>
	<path class="st4" d="M3.7269998,18.9969978C3.487,19.2489967,3.7570004,19.5339985,3.9370003,19.7649975
		c0.1020012,0.1230011,0.3330002,0.2490005,0.4770012,0.3060017c0.2159986,0.0869999,0.6479988,0.053997,0.9000006-0.1410007
		c0.2879992-0.2339993,0.3089991-0.6420002,0.1350002-0.6420002c-0.4499989-0.0059986-0.1350002,0.6000004-0.342001,0.6150017
		c-0.198,0.0179977-0.7559996-0.1080017-1.026-0.684c-0.1560001-0.3389988,0.2850008-0.4019985,0.2189999-0.5489979
		C4.2370014,18.5139999,3.901,18.823,3.7269998,18.9969978z"/>
	<path class="st1" d="M4.894001,18.9729996C4.9870014,19.1020012,5.302,18.823,5.2659998,18.6640015
		C5.2390003,18.5529995,4.8010006,18.8409996,4.894001,18.9729996z"/>
	<path class="st4" d="M4.894001,18.9729996C4.9870014,19.1020012,5.302,18.823,5.2659998,18.6640015
		C5.2390003,18.5529995,4.8010006,18.8409996,4.894001,18.9729996z"/>
	<path class="st1" d="M5.5269995,20.170002c-0.0119991,0.1829987,0.0389986,0.4319992-0.177,0.441
		s-0.4890003-0.2819996-0.704999-0.2729988s-0.3089991,0.177-0.2819996,0.2640018
		c0.0269995,0.0929985,0.3959999,0.197998,1.0410004,0.1590004c0.6390009-0.0419998,0.4980011,0.3479996,0.948,0.3180008
		C6.802,21.043005,6.868001,20.899004,6.8320007,20.7970047c-0.0360003-0.1020012-0.4139986-0.0359993-0.5550013-0.0569992
		c-0.1409998-0.0270004-0.3929987-0.2519989-0.4229994-0.4410019c-0.0360003-0.1889992-0.0360003-0.5219994,0.131999-0.5249996
		C6.2949982,19.7680054,6.151,20.0530052,6.1660004,20.1550026c0.0119991,0.0900002,0.1109991,0.1800022,0.2490005,0.0209999
		c0.1800013-0.2129993,0.0839996-0.5459995-0.0930004-0.6660004C6.1450005,19.3869991,5.5629997,19.7199993,5.5269995,20.170002z"/>
	<path class="st4" d="M5.5269995,20.170002c-0.0119991,0.1829987,0.0389986,0.4319992-0.177,0.441
		s-0.4890003-0.2819996-0.704999-0.2729988s-0.3089991,0.177-0.2819996,0.2640018
		c0.0269995,0.0929985,0.3959999,0.197998,1.0410004,0.1590004c0.6390009-0.0419998,0.4980011,0.3479996,0.948,0.3180008
		C6.802,21.043005,6.868001,20.899004,6.8320007,20.7970047c-0.0360003-0.1020012-0.4139986-0.0359993-0.5550013-0.0569992
		c-0.1409998-0.0270004-0.3929987-0.2519989-0.4229994-0.4410019c-0.0360003-0.1889992-0.0360003-0.5219994,0.131999-0.5249996
		C6.2949982,19.7680054,6.151,20.0530052,6.1660004,20.1550026c0.0119991,0.0900002,0.1109991,0.1800022,0.2490005,0.0209999
		c0.1800013-0.2129993,0.0839996-0.5459995-0.0930004-0.6660004C6.1450005,19.3869991,5.5629997,19.7199993,5.5269995,20.170002z"/>
	<path class="st1" d="M7.1140003,20.1999989c-0.032999,0.3299999-0.2669992,0.3540001-0.243001,0.4740009
		c0.0360003,0.1379967,0.1199999,0.1800003,0.177,0.5249996c0.032999,0.1709995,0.243001,0.2399998,0.506999,0.2250004
		c0.2159986-0.0060005,0.3659992-0.3000031,0.506999-0.2910004c0.198,0.0119972,0.0360003,0.4619999,0.4980011,0.4589996
		c0.375-0.0030022,0.4680004-0.3240013,0.5999994-0.3299999c0.131999-0.0090008,0.1140003,0.375,0.4229994,0.375
		s0.4410009-0.3480015,0.5820007-0.3570004c0.1500006,0.0089989,0.1500006,0.375,0.6090002,0.3479996
		s0.7979994-0.0930004,0.9060001-0.1800003c0.1080008-0.0930023,0.1590014-0.3929996,0.3089991-0.4050026
		c0.1500006-0.0179977,0.3840008,0.2820015,0.5909986,0.2820015s0.6390009-0.5250015,0.7709999-0.5340023
		s0.243001,0.3239994,0.5400009,0.3239994c0.4680004-0.0090008,0.5219994-0.6120014,0.7380009-0.6419983
		c0.3929987-0.0360012,0.4050007-0.1980019,0.4260006-0.2400017c0.0389986-0.1169968-0.0030012-0.6629982-0.0930004-0.9119987
		c-0.0419998-0.132-0.5400009-1.2419987-0.7619991-1.2659988c-0.2249994-0.0270004-0.1590014,0.2999992-0.0269995,0.4889984
		c0.131999,0.1889992,0.8160009,1.0799999,0.7230005,1.3380013s-0.573-0.1080017-0.9570007-0.1080017
		c-0.5340014,0-0.8549995,1.0770016-1.2299995,1.1160011c-0.1650009,0.0179977-0.3389997-0.1410007-0.2819996-0.2580032
		c0.1080008-0.1679993,0.2340002-0.5639992-0.1800013-0.5069981c-0.4139986,0.0570011-0.8370008,0.2519989-0.7709999,0.4740009
		c0.0660009,0.2249985,0.3179998,0.4499969,0.0389986,0.5400009c-0.2729988,0.0929985-0.75,0.1139984-0.9780006,0.0389977
		c-0.2340002-0.0749989-0.0930004-0.5999985-0.2340002-0.5999985c-0.1590014,0-0.1679993,0.6149979-0.3929987,0.6329994
		c-0.2249994,0.0179996-0.4229994-0.0749969-0.474-0.2519989c-0.0479994-0.1769981,0.0839996-0.3929977-0.0660009-0.4139977
		c-0.1500006-0.0270004-0.3000011,0.6899986-0.5250006,0.6750011c-0.2249994-0.0179996-0.2340002-0.066-0.3659992-0.2070007
		s0.1140003-0.6210003-0.1080008-0.6660004C8.145997,20.3079987,7.9209976,21.060997,7.770997,21.0519981
		c-0.1500006-0.0090027-0.375-0.0179996-0.4410009-0.1679993c-0.0360003-0.0750008-0.0240011-0.5429993-0.0179987-0.7320023
		C7.3089991,20.0589981,7.099,20.1009979,7.1140003,20.1999989z"/>
	<path class="st4" d="M7.1140003,20.1999989c-0.032999,0.3299999-0.2669992,0.3540001-0.243001,0.4740009
		c0.0360003,0.1379967,0.1199999,0.1800003,0.177,0.5249996c0.032999,0.1709995,0.243001,0.2399998,0.506999,0.2250004
		c0.2159986-0.0060005,0.3659992-0.3000031,0.506999-0.2910004c0.198,0.0119972,0.0360003,0.4619999,0.4980011,0.4589996
		c0.375-0.0030022,0.4680004-0.3240013,0.5999994-0.3299999c0.131999-0.0090008,0.1140003,0.375,0.4229994,0.375
		s0.4410009-0.3480015,0.5820007-0.3570004c0.1500006,0.0089989,0.1500006,0.375,0.6090002,0.3479996
		s0.7979994-0.0930004,0.9060001-0.1800003c0.1080008-0.0930023,0.1590014-0.3929996,0.3089991-0.4050026
		c0.1500006-0.0179977,0.3840008,0.2820015,0.5909986,0.2820015s0.6390009-0.5250015,0.7709999-0.5340023
		s0.243001,0.3239994,0.5400009,0.3239994c0.4680004-0.0090008,0.5219994-0.6120014,0.7380009-0.6419983
		c0.3929987-0.0360012,0.4050007-0.1980019,0.4260006-0.2400017c0.0389986-0.1169968-0.0030012-0.6629982-0.0930004-0.9119987
		c-0.0419998-0.132-0.5400009-1.2419987-0.7619991-1.2659988c-0.2249994-0.0270004-0.1590014,0.2999992-0.0269995,0.4889984
		c0.131999,0.1889992,0.8160009,1.0799999,0.7230005,1.3380013s-0.573-0.1080017-0.9570007-0.1080017
		c-0.5340014,0-0.8549995,1.0770016-1.2299995,1.1160011c-0.1650009,0.0179977-0.3389997-0.1410007-0.2819996-0.2580032
		c0.1080008-0.1679993,0.2340002-0.5639992-0.1800013-0.5069981c-0.4139986,0.0570011-0.8370008,0.2519989-0.7709999,0.4740009
		c0.0660009,0.2249985,0.3179998,0.4499969,0.0389986,0.5400009c-0.2729988,0.0929985-0.75,0.1139984-0.9780006,0.0389977
		c-0.2340002-0.0749989-0.0930004-0.5999985-0.2340002-0.5999985c-0.1590014,0-0.1679993,0.6149979-0.3929987,0.6329994
		c-0.2249994,0.0179996-0.4229994-0.0749969-0.474-0.2519989c-0.0479994-0.1769981,0.0839996-0.3929977-0.0660009-0.4139977
		c-0.1500006-0.0270004-0.3000011,0.6899986-0.5250006,0.6750011c-0.2249994-0.0179996-0.2340002-0.066-0.3659992-0.2070007
		s0.1140003-0.6210003-0.1080008-0.6660004C8.145997,20.3079987,7.9209976,21.060997,7.770997,21.0519981
		c-0.1500006-0.0090027-0.375-0.0179996-0.4410009-0.1679993c-0.0360003-0.0750008-0.0240011-0.5429993-0.0179987-0.7320023
		C7.3089991,20.0589981,7.099,20.1009979,7.1140003,20.1999989z"/>
	<path class="st1" d="M14.6679993,18.1660004c0.407999,0.618,0.7769995,1.4609985,1.0050001,1.5030022
		c0.1529989,0.0240002-0.4709988-1.1219997-0.6839991-1.3800011C14.8179998,18.0250015,14.3170004,17.6230011,14.6679993,18.1660004
		z"/>
	<path class="st4" d="M14.6679993,18.1660004c0.407999,0.618,0.7769995,1.4609985,1.0050001,1.5030022
		c0.1529989,0.0240002-0.4709988-1.1219997-0.6839991-1.3800011C14.8179998,18.0250015,14.3170004,17.6230011,14.6679993,18.1660004
		z"/>
	<path class="st1" d="M7.0780001,19.6750011C7.0179987,19.8250008,7.0390015,19.9720001,7.144001,19.948
		C7.2490005,19.927,7.3840008,19.6750011,7.3480005,19.6240005C7.3120003,19.5789986,7.1590014,19.5369987,7.0780001,19.6750011z"/>
	<path class="st4" d="M7.0780001,19.6750011C7.0179987,19.8250008,7.0390015,19.9720001,7.144001,19.948
		C7.2490005,19.927,7.3840008,19.6750011,7.3480005,19.6240005C7.3120003,19.5789986,7.1590014,19.5369987,7.0780001,19.6750011z"/>
	<path class="st1" d="M15.8709993,18.4420013c0,0.3360004,0.2370024,0.7169991,0.6810007,0.6929989
		s0.927-0.5160007,0.9659977-1.0170002c0.0360012-0.5039997-0.5849991-0.8730011-0.7409973-0.7619972
		c-0.156002,0.1079998,0.0569992,0.4829998,0.4560013,0.5069981c0.1709995,0.0119991,0.1139984,0.342001-0.2099991,0.6089993
		c-0.3420029,0.2700005-0.8460007,0.2640018-0.972002,0.078001C15.9520006,18.2800007,15.868001,18.2770004,15.8709993,18.4420013z"
		/>
	<path class="st4" d="M15.8709993,18.4420013c0,0.3360004,0.2370024,0.7169991,0.6810007,0.6929989
		s0.927-0.5160007,0.9659977-1.0170002c0.0360012-0.5039997-0.5849991-0.8730011-0.7409973-0.7619972
		c-0.156002,0.1079998,0.0569992,0.4829998,0.4560013,0.5069981c0.1709995,0.0119991,0.1139984,0.342001-0.2099991,0.6089993
		c-0.3420029,0.2700005-0.8460007,0.2640018-0.972002,0.078001C15.9520006,18.2800007,15.868001,18.2770004,15.8709993,18.4420013z"
		/>
	<path class="st1" d="M16.1409988,17.4220009c-0.066,0.1319981,0.0690002,0.441,0.2159996,0.4259987
		C16.5040016,17.8330002,16.1860008,17.3320007,16.1409988,17.4220009z"/>
	<path class="st4" d="M16.1409988,17.4220009c-0.066,0.1319981,0.0690002,0.441,0.2159996,0.4259987
		C16.5040016,17.8330002,16.1860008,17.3320007,16.1409988,17.4220009z"/>
	<path class="st1" d="M17.4399986,17.1819992c0.0870018,0.1980019,0.1889992,0.5040016,0.3719978,0.5040016
		c0.1800022,0,0.3270016,0.0480003,0.3270016,0.2010002s-0.4740009,0.6660004-0.4890003,0.8370018
		c-0.0270004,0.2970009,0.1889992,0.2790012,0.2939987,0.1169987s0.3899994-0.9150009,0.4470005-1.125
		c0.0269985-0.1650009,0.230999-0.4740009,0.2399998-0.7979984c-0.0119991-0.3630028,0.3239994-0.0690002,0.4830017-0.0540009
		c0.1469994,0.0060005,0.3089981-0.2639999,0.3269997-0.4619999c0.0209999-0.1949978-0.1560001-0.230999-0.1560001-0.4050007
		c0-0.099,0.1860008-0.4110003,0.1949978-0.6209993c0.0209999-0.1829996-0.362999-0.7199993-0.5249996-0.7139997
		c-0.1319981,0.0059996-0.0209999,0.2010012,0.0570011,0.2879992c0.0779991,0.0839996,0.2729988,0.2580013,0.2010002,0.4110003
		c-0.1259995,0.3000011-0.7409992,0.3780012-0.7679977,0.6989994c-0.0300026,0.230999,0.0299988,0.9599991-0.1620007,0.9599991
		s-0.342001-0.4560013-0.6359997-0.4560013C17.3199997,16.5579987,17.3709984,17.0290012,17.4399986,17.1819992z"/>
	<path class="st4" d="M17.4399986,17.1819992c0.0870018,0.1980019,0.1889992,0.5040016,0.3719978,0.5040016
		c0.1800022,0,0.3270016,0.0480003,0.3270016,0.2010002s-0.4740009,0.6660004-0.4890003,0.8370018
		c-0.0270004,0.2970009,0.1889992,0.2790012,0.2939987,0.1169987s0.3899994-0.9150009,0.4470005-1.125
		c0.0269985-0.1650009,0.230999-0.4740009,0.2399998-0.7979984c-0.0119991-0.3630028,0.3239994-0.0690002,0.4830017-0.0540009
		c0.1469994,0.0060005,0.3089981-0.2639999,0.3269997-0.4619999c0.0209999-0.1949978-0.1560001-0.230999-0.1560001-0.4050007
		c0-0.099,0.1860008-0.4110003,0.1949978-0.6209993c0.0209999-0.1829996-0.362999-0.7199993-0.5249996-0.7139997
		c-0.1319981,0.0059996-0.0209999,0.2010012,0.0570011,0.2879992c0.0779991,0.0839996,0.2729988,0.2580013,0.2010002,0.4110003
		c-0.1259995,0.3000011-0.7409992,0.3780012-0.7679977,0.6989994c-0.0300026,0.230999,0.0299988,0.9599991-0.1620007,0.9599991
		s-0.342001-0.4560013-0.6359997-0.4560013C17.3199997,16.5579987,17.3709984,17.0290012,17.4399986,17.1819992z"/>
	<path class="st1" d="M17.920002,14.4219999c0.0089989,0.1290007,0.2789993,0.6899986,0.441,0.6899986
		c0.230999,0-0.1049995-0.2640009-0.0839996-0.3630009s0.3509998-0.2459993,0.2159977-0.2790012
		C18.2530022,14.3950005,17.907999,14.2480011,17.920002,14.4219999z"/>
	<path class="st4" d="M17.920002,14.4219999c0.0089989,0.1290007,0.2789993,0.6899986,0.441,0.6899986
		c0.230999,0-0.1049995-0.2640009-0.0839996-0.3630009s0.3509998-0.2459993,0.2159977-0.2790012
		C18.2530022,14.3950005,17.907999,14.2480011,17.920002,14.4219999z"/>
	<path class="st1" d="M17.8990021,13.6929998c0.0479984,0.1800013,0.7979984,0.4560013,1.1159973,0.5429993
		c0.3240013,0.0930004,0.7140007,0.474,0.8610001,0.3480005s-0.9840012-0.573-1.1550007-0.6359997
		C18.5559998,13.8879986,17.8659992,13.5100002,17.8990021,13.6929998z"/>
	<path class="st4" d="M17.8990021,13.6929998c0.0479984,0.1800013,0.7979984,0.4560013,1.1159973,0.5429993
		c0.3240013,0.0930004,0.7140007,0.474,0.8610001,0.3480005s-0.9840012-0.573-1.1550007-0.6359997
		C18.5559998,13.8879986,17.8659992,13.5100002,17.8990021,13.6929998z"/>
	<path class="st1" d="M20.157999,14.8659992c0.2790012,0.0059996,0.1259995-0.5429993,0.0539989-0.6810007
		c-0.0690002-0.131999-0.177,0.2519989-0.1619987,0.3630009C20.0680008,14.6619997,20.0739994,14.8599997,20.157999,14.8659992z"/>
	<path class="st4" d="M20.157999,14.8659992c0.2790012,0.0059996,0.1259995-0.5429993,0.0539989-0.6810007
		c-0.0690002-0.131999-0.177,0.2519989-0.1619987,0.3630009C20.0680008,14.6619997,20.0739994,14.8599997,20.157999,14.8659992z"/>
	<path class="st1" d="M18.5319996,12.118001c-0.0030003,0.1230011,0.7709999,0.0360003,1.1309986,0.131999
		c0.156002,0.0419998,0.684,0.3270006,0.7830009,0.2580013c0.1109982-0.1469994-0.7200012-0.4620008-1.1940002-0.4620008
		C19.0959988,12.052,18.5319996,11.9709988,18.5319996,12.118001z"/>
	<path class="st4" d="M18.5319996,12.118001c-0.0030003,0.1230011,0.7709999,0.0360003,1.1309986,0.131999
		c0.156002,0.0419998,0.684,0.3270006,0.7830009,0.2580013c0.1109982-0.1469994-0.7200012-0.4620008-1.1940002-0.4620008
		C19.0959988,12.052,18.5319996,11.9709988,18.5319996,12.118001z"/>
	<path class="st1" d="M18.3249989,12.4749994c-0.1379986,0.1500006,0.4680004,0.3149986,1.0049992,0.3330002
		c0.5400009,0.0209999,0.8850021,0.342001,0.8370018,0.5820007c-0.0779991,0.3990011-0.75,0.1409998-0.6660004,0.3570013
		c0.0480003,0.1679993,0.342001,0.1080008,0.3780022,0.2879992c0.0240002,0.1800013,0.2129993,0.2130003,0.2010002-0.0119991
		c0-0.1800013,0.4169998-0.4709988,0.4050007-0.5550013c-0.0209999-0.1679993-0.2729988-0.7559996-0.9150009-0.8189993
		C18.9339981,12.5860014,18.5050011,12.2769995,18.3249989,12.4749994z"/>
	<path class="st4" d="M18.3249989,12.4749994c-0.1379986,0.1500006,0.4680004,0.3149986,1.0049992,0.3330002
		c0.5400009,0.0209999,0.8850021,0.342001,0.8370018,0.5820007c-0.0779991,0.3990011-0.75,0.1409998-0.6660004,0.3570013
		c0.0480003,0.1679993,0.342001,0.1080008,0.3780022,0.2879992c0.0240002,0.1800013,0.2129993,0.2130003,0.2010002-0.0119991
		c0-0.1800013,0.4169998-0.4709988,0.4050007-0.5550013c-0.0209999-0.1679993-0.2729988-0.7559996-0.9150009-0.8189993
		C18.9339981,12.5860014,18.5050011,12.2769995,18.3249989,12.4749994z"/>
	<path class="st2" d="M1.1350002,16.3959999c-0.0869994-0.0480003-0.3959999,0.2280006-0.2819996,0.2879982
		C1.0599999,16.8039989,1.2670007,16.4709988,1.1350002,16.3959999z"/>
	<path class="st5" d="M1.1350002,16.3959999c-0.0869994-0.0480003-0.3959999,0.2280006-0.2819996,0.2879982
		C1.0599999,16.8039989,1.2670007,16.4709988,1.1350002,16.3959999z"/>
	<path class="st2" d="M1.7979994,16.0690002c-0.1500006-0.0179996-0.2219996,0.2999992-0.099,0.3179989
		C2.0170007,16.4319992,2.0800004,16.1020012,1.7979994,16.0690002z"/>
	<path class="st5" d="M1.7979994,16.0690002c-0.1500006-0.0179996-0.2219996,0.2999992-0.099,0.3179989
		C2.0170007,16.4319992,2.0800004,16.1020012,1.7979994,16.0690002z"/>
	<path class="st2" d="M17.8840008,16.9570007c-0.0689983,0-0.2939987,0.098999-0.2159977,0.2519989
		c0.0779991,0.1529999,0.296999,0.1590004,0.3959999,0.0690002C18.1599998,17.1940002,18.1389999,16.9599991,17.8840008,16.9570007z
		"/>
	<path class="st5" d="M17.8840008,16.9570007c-0.0689983,0-0.2939987,0.098999-0.2159977,0.2519989
		c0.0779991,0.1529999,0.296999,0.1590004,0.3959999,0.0690002C18.1599998,17.1940002,18.1389999,16.9599991,17.8840008,16.9570007z
		"/>
	<path class="st2" d="M18.7600002,16.2879982c0.0240002,0.1710014,0.1469994,0.1410007,0.2460003,0.1049995
		c0.1109982-0.0479984,0.144001-0.1949978,0.0359993-0.2519989C18.9250011,16.0839996,18.7390003,16.1650009,18.7600002,16.2879982z
		"/>
	<path class="st5" d="M18.7600002,16.2879982c0.0240002,0.1710014,0.1469994,0.1410007,0.2460003,0.1049995
		c0.1109982-0.0479984,0.144001-0.1949978,0.0359993-0.2519989C18.9250011,16.0839996,18.7390003,16.1650009,18.7600002,16.2879982z
		"/>
	<path class="st2" d="M13.7080002,20.2449989c-0.1500006,0.3330002-0.0209999,0.6600018,0.2189999,0.597002
		s0.4799995-0.5219994,0.3029995-0.6689987C14.0529995,20.0229988,13.8070002,20.0229988,13.7080002,20.2449989z"/>
	<path class="st5" d="M13.7080002,20.2449989c-0.1500006,0.3330002-0.0209999,0.6600018,0.2189999,0.597002
		s0.4799995-0.5219994,0.3029995-0.6689987C14.0529995,20.0229988,13.8070002,20.0229988,13.7080002,20.2449989z"/>
	<path class="st2" d="M-6.5629997,6.4360008C-7.1240005,6.381999-8.3959999,6.1269989-8.4500008,6.381999
		c-0.0509996,0.2550001,0.6900005,3.2370014,1.0710001,3.6210022c0.3839993,0.3840008,2.1660004,1.1970005,2.3430004,1.0980005
		c0.1799998-0.1049995-0.3569999-1.9649992-0.5609994-2.295001C-5.8009992,8.4760017-6.4129992,7.276-6.3590002,7.2249994
		C-6.3079996,7.1710005-6.5900006,6.4360008-6.5629997,6.4360008z"/>
	<path class="st2" d="M-7.6820002,6.3310013c0.1350002-0.717001,0.9689999,0.1409998,0.888,1.0770006
		C-6.836,7.7259989-6.6619997,8.0739994-6.4879994,8.2449999"/>
	<path class="st3" d="M-7.6820002,6.3310013c0.1350002-0.717001,0.9689999,0.1409998,0.888,1.0770006
		C-6.836,7.7259989-6.6619997,8.0739994-6.4879994,8.2449999"/>
	<path class="st2" d="M-6.9650006,6.3640003l-0.032999,0.045001c0.4169998-0.7080002,0.8220005,0.3000011,0.8850002,1.4610014"/>
	<path class="st3" d="M-6.9650006,6.3640003l-0.032999,0.045001c0.4169998-0.7080002,0.8220005,0.3000011,0.8850002,1.4610014"/>
	<path class="st2" d="M-8.4049997,6.2559996C-8.4289999,5.677-7.4899998,5.5090008-7.5469999,7.605999
		c0.4110003,0.2640009,0.8939996,1.2810001,0.9179993,1.6409998c0.3090005,0.0720005,0.8220005,0.4530001,0.948,0.7680016"/>
	<path class="st3" d="M-8.4049997,6.2559996C-8.4289999,5.677-7.4899998,5.5090008-7.5469999,7.605999
		c0.4110003,0.2640009,0.8939996,1.2810001,0.9179993,1.6409998c0.3090005,0.0720005,0.8220005,0.4530001,0.948,0.7680016"/>
	<path class="st2" d="M-6.0949993,17.8719978c0.0419998-1.5959969,0.0689993-5.0130005-0.099-5.3849993
		c-0.2940001-0.6839991-1.7700005-1.4820013-2.2200003-2.5589991c-0.4530001-1.1400003-0.8339996-3.7440004-0.6539993-4.0620003
		c0.2399998-0.4499989,1.0409994,0.5579996,0.8219995,1.6679993c0.9659986,1.1340008,0.7619991,1.8120003,0.9389992,1.9560013
		c0.5969996,0.4589996,1.5059996,0.7740011,1.6679993,1.1850014c0.3300004,0.7349997-0.0720005-1.0410004-0.336-1.4040012
		c-0.2670007-0.3599997-0.7260003-1.157999-0.4110003-1.3499994c0.3150001-0.1949987,0.8699999,0.3149986,0.9420004,0.4589996
		S-4.6220002,9.349-4.4030004,9.5410004c0.3870006,0.2910004,1.362,0.9389992,1.3410001,1.4940004
		c0,0.9000006,0.0780001,6.8070002,0.0780001,6.8070002"/>
	<path class="st3" d="M-6.0949993,17.8719978c0.0419998-1.5959969,0.0689993-5.0130005-0.099-5.3849993
		c-0.2940001-0.6839991-1.7700005-1.4820013-2.2200003-2.5589991c-0.4530001-1.1400003-0.8339996-3.7440004-0.6539993-4.0620003
		c0.2399998-0.4499989,1.0409994,0.5579996,0.8219995,1.6679993c0.9659986,1.1340008,0.7619991,1.8120003,0.9389992,1.9560013
		c0.5969996,0.4589996,1.5059996,0.7740011,1.6679993,1.1850014c0.3300004,0.7349997-0.0720005-1.0410004-0.336-1.4040012
		c-0.2670007-0.3599997-0.7260003-1.157999-0.4110003-1.3499994c0.3150001-0.1949987,0.8699999,0.3149986,0.9420004,0.4589996
		S-4.6220002,9.349-4.4030004,9.5410004c0.3870006,0.2910004,1.362,0.9389992,1.3410001,1.4940004
		c0,0.9000006,0.0780001,6.8070002,0.0780001,6.8070002"/>
	<path class="st2" d="M-6.2780004,19.9749985c0,0-0.0059996,0.6420002-0.0059996,0.6540031
		c0.2789998,0.3389988,1.4400001,0.3780003,1.7009997,0.3780003c0.2520003-0.0090008,1.3499994,0.0119991,1.6049995-0.4050007
		c0.0059996-0.0119991,0.0150003-0.5429993,0.0150003-0.6899986"/>
	<path class="st3" d="M-6.2780004,19.9749985c0,0-0.0059996,0.6420002-0.0059996,0.6540031
		c0.2789998,0.3389988,1.4400001,0.3780003,1.7009997,0.3780003c0.2520003-0.0090008,1.3499994,0.0119991,1.6049995-0.4050007
		c0.0059996-0.0119991,0.0150003-0.5429993,0.0150003-0.6899986"/>
	<path class="st2" d="M-6.3289995,19.0270004c-0.3239994,0.0719986-0.4050007,0.4679985-0.1799998,0.7530003
		c0.1829996,0.2339993,0.948,0.5009995,1.8270006,0.519001c0.8759995,0.0179996,2.0399995-0.2850018,2.0939999-0.7679996
		c0.0180001-0.4829998-0.4349999-0.4560013-0.3839993-0.4350014"/>
	<path class="st3" d="M-6.3289995,19.0270004c-0.3239994,0.0719986-0.4050007,0.4679985-0.1799998,0.7530003
		c0.1829996,0.2339993,0.948,0.5009995,1.8270006,0.519001c0.8759995,0.0179996,2.0399995-0.2850018,2.0939999-0.7679996
		c0.0180001-0.4829998-0.4349999-0.4560013-0.3839993-0.4350014"/>
	<path class="st2" d="M-6.3289995,18.1359997c-0.3239994,0.0720005-0.3839993,0.4770012-0.1560001,0.7619991
		c0.1829996,0.2340012,0.9600005,0.5550003,1.836,0.573S-2.6629992,19.132-2.6090002,18.6459999
		C-2.5910001,18.1629982-2.9240003,18.204998-2.948,18.217001"/>
	<path class="st3" d="M-6.3289995,18.1359997c-0.3239994,0.0720005-0.3839993,0.4770012-0.1560001,0.7619991
		c0.1829996,0.2340012,0.9600005,0.5550003,1.836,0.573S-2.6629992,19.132-2.6090002,18.6459999
		C-2.5910001,18.1629982-2.9240003,18.204998-2.948,18.217001"/>
	<path class="st2" d="M-4.5050001,18.6310005c1.164,0.0179977,1.914-0.5550022,1.914-0.8580017
		c0-0.3059998-0.375-0.3239994-0.6090002-0.2340012c-0.2340002,0.0900002-0.5910001,0.3180008-1.3410001,0.3240013
		C-5.3090005,17.8869991-5.9899998,17.322998-6.224,17.343998c-0.2340002,0.0179977-0.414,0.2700005-0.3389997,0.5400009
		C-6.4699993,18.1450005-5.651,18.670002-4.5050001,18.6310005z"/>
	<path class="st3" d="M-4.5050001,18.6310005c1.164,0.0179977,1.914-0.5550022,1.914-0.8580017
		c0-0.3059998-0.375-0.3239994-0.6090002-0.2340012c-0.2340002,0.0900002-0.5910001,0.3180008-1.3410001,0.3240013
		C-5.3090005,17.8869991-5.9899998,17.322998-6.224,17.343998c-0.2340002,0.0179977-0.414,0.2700005-0.3389997,0.5400009
		C-6.4699993,18.1450005-5.651,18.670002-4.5050001,18.6310005z"/>
	<path class="st2" d="M26.5629997,6.4360008c0.5610008-0.0510006,1.8359985-0.3060007,1.8869991-0.0510006
		c0.0510006,0.2519989-0.6870003,3.2370014-1.0710011,3.6209993c-0.3840008,0.3840008-2.1660004,1.1970005-2.3430004,1.0980005
		c-0.1800022-0.1020012,0.3570004-1.9620008,0.5610008-2.295001c0.2040005-0.329999,0.816-1.5300007,0.7619991-1.5810013
		C26.3079987,7.1710005,26.5900002,6.4360008,26.5629997,6.4360008z"/>
	<path class="st2" d="M27.6819992,6.3310013c-0.1349983-0.717001-0.9720001,0.1409998-0.8880005,1.0739994
		c0.0389977,0.3179998-0.1379986,0.6660004-0.3089981,0.8370008"/>
	<path class="st3" d="M27.6819992,6.3310013c-0.1349983-0.717001-0.9720001,0.1409998-0.8880005,1.0739994
		c0.0389977,0.3179998-0.1379986,0.6660004-0.3089981,0.8370008"/>
	<path class="st2" d="M26.9650002,6.3640003l0.0329971,0.0389986c-0.4169998-0.7080002-0.8249969,0.3000011-0.8849983,1.4639997"/>
	<path class="st3" d="M26.9650002,6.3640003l0.0329971,0.0389986c-0.4169998-0.7080002-0.8249969,0.3000011-0.8849983,1.4639997"/>
	<path class="st2" d="M28.4050007,6.2559996C28.4289989,5.677,27.4899998,5.5090008,27.5470009,7.605999
		C27.1389999,7.8699999,26.6529999,8.8869991,26.632,9.2469988c-0.309,0.0720005-0.8220024,0.4530001-0.9480019,0.7650003"/>
	<path class="st3" d="M28.4050007,6.2559996C28.4289989,5.677,27.4899998,5.5090008,27.5470009,7.605999
		C27.1389999,7.8699999,26.6529999,8.8869991,26.632,9.2469988c-0.309,0.0720005-0.8220024,0.4530001-0.9480019,0.7650003"/>
	<path class="st2" d="M26.0949993,17.8719978c-0.0419998-1.5959969-0.0689983-5.0130005,0.0990009-5.3849993
		c0.2939987-0.6839991,1.7700005-1.4820013,2.2200012-2.5589991c0.4529972-1.1400003,0.8339996-3.7440004,0.6509972-4.0620003
		c-0.2399998-0.4530001-1.038002,0.5550013-0.8220005,1.6679993c-0.9659977,1.1369991-0.7590008,1.8149986-0.9389992,1.9589996
		c-0.597002,0.4589996-1.5059986,0.7740011-1.6650009,1.1850014c-0.3299999,0.7349997,0.0720005-1.0410004,0.3360004-1.4040012
		C26.2390003,8.9109974,26.698,8.112998,26.3829994,7.9209976c-0.3150024-0.1920004-0.8700008,0.3149986-0.9420013,0.4589996
		s-0.8220005,0.9689999-1.0379982,1.1610003c-0.387001,0.2910004-1.3619995,0.9389992-1.3409996,1.4940004
		c0,0.9000006-0.0779991,6.8070011-0.0779991,6.8070011"/>
	<path class="st3" d="M26.0949993,17.8719978c-0.0419998-1.5959969-0.0689983-5.0130005,0.0990009-5.3849993
		c0.2939987-0.6839991,1.7700005-1.4820013,2.2200012-2.5589991c0.4529972-1.1400003,0.8339996-3.7440004,0.6509972-4.0620003
		c-0.2399998-0.4530001-1.038002,0.5550013-0.8220005,1.6679993c-0.9659977,1.1369991-0.7590008,1.8149986-0.9389992,1.9589996
		c-0.597002,0.4589996-1.5059986,0.7740011-1.6650009,1.1850014c-0.3299999,0.7349997,0.0720005-1.0410004,0.3360004-1.4040012
		C26.2390003,8.9109974,26.698,8.112998,26.3829994,7.9209976c-0.3150024-0.1920004-0.8700008,0.3149986-0.9420013,0.4589996
		s-0.8220005,0.9689999-1.0379982,1.1610003c-0.387001,0.2910004-1.3619995,0.9389992-1.3409996,1.4940004
		c0,0.9000006-0.0779991,6.8070011-0.0779991,6.8070011"/>
	<path class="st2" d="M26.2779999,19.9749985c0,0,0.0059986,0.6420002,0.0059986,0.6540031
		c-0.2790012,0.3389988-1.4399986,0.3780003-1.7010021,0.3780003c-0.2519989-0.0090008-1.3470001,0.0119991-1.6049995-0.4050007
		c-0.0059986-0.0119991-0.0149994-0.5429993-0.0149994-0.6899986"/>
	<path class="st3" d="M26.2779999,19.9749985c0,0,0.0059986,0.6420002,0.0059986,0.6540031
		c-0.2790012,0.3389988-1.4399986,0.3780003-1.7010021,0.3780003c-0.2519989-0.0090008-1.3470001,0.0119991-1.6049995-0.4050007
		c-0.0059986-0.0119991-0.0149994-0.5429993-0.0149994-0.6899986"/>
	<path class="st2" d="M26.3289986,19.0270004c0.3240013,0.0719986,0.4050026,0.4679985,0.1800022,0.7530003
		c-0.1830006,0.2339993-0.948,0.5009995-1.8270016,0.519001c-0.8759995,0.0179996-2.0400009-0.2850018-2.093998-0.7679996
		c-0.0179996-0.4829998,0.4350014-0.4560013,0.3839989-0.4350014"/>
	<path class="st3" d="M26.3289986,19.0270004c0.3240013,0.0719986,0.4050026,0.4679985,0.1800022,0.7530003
		c-0.1830006,0.2339993-0.948,0.5009995-1.8270016,0.519001c-0.8759995,0.0179996-2.0400009-0.2850018-2.093998-0.7679996
		c-0.0179996-0.4829998,0.4350014-0.4560013,0.3839989-0.4350014"/>
	<path class="st2" d="M26.3289986,18.1359997c0.3240013,0.0720005,0.3840027,0.4770012,0.156002,0.7619991
		c-0.1830006,0.2340012-0.9630013,0.5550003-1.8360023,0.573c-0.8790016,0.0179996-1.9860001-0.3389988-2.0400009-0.8249989
		c-0.0179977-0.4830017,0.3180008-0.4410019,0.3390007-0.4289989"/>
	<path class="st3" d="M26.3289986,18.1359997c0.3240013,0.0720005,0.3840027,0.4770012,0.156002,0.7619991
		c-0.1830006,0.2340012-0.9630013,0.5550003-1.8360023,0.573c-0.8790016,0.0179996-1.9860001-0.3389988-2.0400009-0.8249989
		c-0.0179977-0.4830017,0.3180008-0.4410019,0.3390007-0.4289989"/>
	<path class="st2" d="M24.5050011,18.6310005c-1.1639996,0.0179977-1.9139996-0.5550022-1.9139996-0.8580017
		c0-0.3059998,0.3780003-0.3239994,0.6089993-0.2340012c0.2340012,0.0900002,0.5909996,0.3180008,1.3409996,0.3240013
		c0.7679977,0.0240002,1.4489994-0.5400009,1.6829987-0.519001c0.2340012,0.0179977,0.4139996,0.2700005,0.3390007,0.5400009
		C26.4699993,18.1450005,25.651001,18.670002,24.5050011,18.6310005z"/>
	<path class="st3" d="M24.5050011,18.6310005c-1.1639996,0.0179977-1.9139996-0.5550022-1.9139996-0.8580017
		c0-0.3059998,0.3780003-0.3239994,0.6089993-0.2340012c0.2340012,0.0900002,0.5909996,0.3180008,1.3409996,0.3240013
		c0.7679977,0.0240002,1.4489994-0.5400009,1.6829987-0.519001c0.2340012,0.0179977,0.4139996,0.2700005,0.3390007,0.5400009
		C26.4699993,18.1450005,25.651001,18.670002,24.5050011,18.6310005z"/>
</g>
<g id="Layer_2_1_">
</g>
<path class="st6" d="M10-18.5c15.5999985,0,28.5,12.9000006,28.5,28.5S25.5999985,38.5,10,38.5S-18.5,25.5999985-18.5,10
	S-5.5999994-18.5,10-18.5 M10-20C-6.5-20-20-6.5-20,10s13.5,30,30,30s30-13.5,30-30S26.5-20,10-20L10-20z"/>
</svg>
