<?xml version="1.0" encoding="utf-8"?>
<svg version="1.1" id="Layer_1" xmlns="http://www.w3.org/2000/svg" xmlns:xlink="http://www.w3.org/1999/xlink" x="0px" y="0px"
	 viewBox="-22 -22 64 64" style="enable-background:new 0 0 20 20;" xml:space="preserve">
<style type="text/css">
	.st0{fill:#CE1126;}
	.st1{fill:#F9D616;}
	.st2{fill:#007A3D;}
	.st3{fill:#CCCCCC;}
</style>
<g id="Layer_1_1_">
	<path class="st0" d="M10-18.7999992c-12.539999,0-23.1599998,8.0100002-27.1199989,19.2000008h54.2400017
		C33.159996-10.79,22.5400009-18.7999992,10-18.7999992z"/>
	<path class="st1" d="M38.8000031,10c0-3.3599997-0.6000061-6.5999994-1.6800003-9.5999994h-54.2400055
		c-1.0799999,3-1.6799984,6.2399998-1.6799984,9.5999994s0.5999985,6.5999985,1.6800003,9.5999985h54.2400017
		C38.1999969,16.5999985,38.8000031,13.3599997,38.8000031,10z"/>
	<path class="st2" d="M37.1200027,19.5999985h-54.2400055C-13.1599998,30.7900009-2.5399995,38.8000031,10,38.8000031
		S33.159996,30.7900009,37.1200027,19.5999985z"/>
</g>
<g id="Layer_2_1_">
</g>
<path class="st3" d="M10-18.5c15.5999985,0,28.5,12.9000006,28.5,28.5S25.5999985,38.5,10,38.5S-18.5,25.5999985-18.5,10
	S-5.5999994-18.5,10-18.5 M10-20C-6.5-20-20-6.5-20,10s13.5,30,30,30s30-13.5,30-30S26.5-20,10-20L10-20z"/>
</svg>
