<?xml version="1.0" encoding="utf-8"?>
<svg version="1.1" id="Layer_1" xmlns="http://www.w3.org/2000/svg" xmlns:xlink="http://www.w3.org/1999/xlink" x="0px" y="0px"
	 viewBox="-22 -22 64 64" style="enable-background:new 0 0 20 20;" xml:space="preserve">
<style type="text/css">
	.st0{fill:#00ABC9;}
	.st1{fill:#FAE042;}
	.st2{fill:#CCCCCC;}
</style>
<g id="Layer_1_1_">
	<path class="st0" d="M37.1200027,19.5999985H-7.7600002l-7.3800001,4.4400024
		C-10.2200003,32.8300018-0.7999997,38.8000031,10,38.8000031C22.5400009,38.8000031,33.159996,30.7900009,37.1200027,19.5999985z"
		/>
	<path class="st0" d="M37.1200027,0.4000006C33.159996-10.79,22.5400009-18.7999992,10-18.7999992
		c-10.7999992,0-20.2199993,5.9699993-25.1399994,14.7600002l7.3800001,4.4400001H37.1200027L37.1200027,0.4000006z"/>
	<path class="st1" d="M8.2299995,10l-15.9899998,9.5999985h44.909996c1.0499992-3,1.6799965-6.2399988,1.6799965-9.5999985
		s-0.5999985-6.5999994-1.6799965-9.5999994h-44.909996L8.2299995,10z"/>
	<path d="M8.2299995,10L-7.7600002,0.4000006l-7.3800001-4.4400001C-17.4500008,0.1300001-18.7999992,4.9000006-18.7999992,10
		s1.3499985,9.8699989,3.6599989,14.0400009l7.3800001-4.4099998L8.2299995,10z"/>
</g>
<g id="Layer_2_1_">
</g>
<path class="st2" d="M10-18.5c15.5999985,0,28.5,12.9000006,28.5,28.5S25.5999985,38.5,10,38.5S-18.5,25.5999985-18.5,10
	S-5.5999994-18.5,10-18.5 M10-20C-6.5-20-20-6.5-20,10s13.5,30,30,30s30-13.5,30-30S26.5-20,10-20L10-20z"/>
</svg>
