<?xml version="1.0" encoding="utf-8"?>
<svg version="1.1" id="Layer_1" xmlns="http://www.w3.org/2000/svg" xmlns:xlink="http://www.w3.org/1999/xlink" x="0px" y="0px"
	 viewBox="-22 -22 64 64" style="enable-background:new 0 0 20 20;" xml:space="preserve">
<style type="text/css">
	.st0{fill:#FFFFFF;stroke:#B6B6B6;stroke-width:0.15;stroke-miterlimit:10;}
	.st1{fill:#009900;}
	.st2{fill:#CC0000;}
	.st3{fill:#CCCCCC;}
</style>
<g id="Layer_1_1_">
	<circle class="st0" cx="10" cy="10" r="28.8000011"/>
	<path class="st1" d="M37.1200027,19.5999985H-5.9899998v14.3400002C-1.4299998,37,4.0899992,38.8000031,10,38.8000031
		C22.5400009,38.8000031,33.159996,30.7900009,37.1200027,19.5999985z"/>
	<path class="st2" d="M37.1200027,19.5999985c1.0500031-3,1.6800003-6.2399988,1.6800003-9.5999985
		c0-15.9000006-12.9000015-28.8000011-28.8000031-28.8000011C4.0899992-18.7999992-1.4299998-17-5.9899998-13.9400005v33.5400009
		H37.1200027z"/>
	<g>
		<rect x="-17.5100002" y="3.6099997" class="st2" width="0.6299999" height="1.2900009"/>
		<polygon class="st2" points="-12.71,-3.4400001 -12.71,-2.1500006 -12.4099998,-2.1500006 -12.0799999,-2.1500006 
			-12.0799999,-3.4400001 -12.4099998,-3.4400001 		"/>
		<path class="st2" d="M-13.6700001-4.4000006h0.3299999v0.9600005h0.329999v-0.9600005h0.3299999v-0.9599991h0.3299999h0.329999
			v0.9599991h0.3299999v0.9600005h0.3299999v-0.9600005h0.3299999v-0.9599991h0.3299999v-0.9600005h-0.4199972v-0.9600005
			h-0.3300009v-0.9599991H-11.75v0.9600005h-0.3299999v0.9600005h-0.3299999H-12.71v-0.9600019h-0.3000002
			C-13.25-6.980001-13.460001-6.6800013-13.7000008-6.3800001v0.0599999h-0.0299997
			C-13.8199997-6.1699996-13.9099998-6.0499997-14-5.9000006v0.5399995h0.3299999
			C-13.6700001-5.3599997-13.6700001-4.4000006-13.6700001-4.4000006z M-11.75-6.3200002h0.3299999v0.9600005H-11.75V-6.3200002z
			 M-13.3699999-6.3200002H-13.04v0.9600005h-0.3299999V-6.3200002z"/>
		<rect x="-7.9099994" y="22.1500015" class="st2" width="0.6300001" height="1.2900009"/>
		<polygon class="st2" points="-12.0799999,23.4399986 -12.0799999,22.1500015 -12.4099998,22.1500015 -12.71,22.1500015 
			-12.71,23.4399986 -12.4099998,23.4399986 		"/>
		<rect x="-7.9099994" y="28.2399998" class="st2" width="0.6300001" height="1.2900009"/>
		<path class="st2" d="M-7.6099997,30.7900009h-0.6300001V29.5h-0.6300001v-1.2900009h-0.6599998v-1.2900009h-0.6300001v1.2900009
			H-10.79V29.5h-0.3299999c0.3299999,0.3600025,0.6300001,0.6899986,0.96,1.0200005V29.5h0.6300001v1.2900009h0.6300001v0.8999977
			C-8.75,31.8100014-8.6300001,31.9299984-8.5100002,32.0500031h0.2399998v0.2099991
			c0.2999997,0.2699966,0.6300001,0.4799957,0.9600005,0.7199974v-0.9299965h-0.2999997V30.7900009z"/>
		<polygon class="st2" points="-11.4500008,10.329999 -11.75,10.329999 -11.75,10 -11.75,9.670001 -11.4500008,9.670001 
			-11.4500008,9.0400009 -11.1199999,9.0400009 -11.1199999,8.4100008 -11.75,8.4100008 -11.75,9.0400009 -12.0799999,9.0400009 
			-12.0799999,9.670001 -12.4099998,9.670001 -12.71,9.670001 -12.71,9.0400009 -13.04,9.0400009 -13.04,8.4100008 
			-13.6700001,8.4100008 -13.6700001,9.0400009 -13.3699999,9.0400009 -13.3699999,9.670001 -13.04,9.670001 -13.04,10 
			-13.04,10.329999 -13.3699999,10.329999 -13.3699999,10.9599991 -13.6700001,10.9599991 -13.6700001,11.5899992 
			-13.04,11.5899992 -13.04,10.9599991 -12.71,10.9599991 -12.71,10.329999 -12.4099998,10.329999 -12.0799999,10.329999 
			-12.0799999,10.9599991 -11.75,10.9599991 -11.75,11.5899992 -11.1199999,11.5899992 -11.1199999,10.9599991 
			-11.4500008,10.9599991 		"/>
		<rect x="-7.9099994" y="15.1300001" class="st2" width="0.6300001" height="1.2900009"/>
		<path class="st2" d="M-11.1199999,26.3199997H-10.79v-0.9599991h-0.3299999v-0.9599991h-0.3300009v-0.9599991H-11.75v0.9599991
			h-0.3299999v0.9599991h-0.3299999H-12.71v-0.9599991H-13.04v-0.9599991h-0.3299999v0.9599991h-0.3000002v0.9599991H-14v0.5400009
			c0.0900002,0.1499996,0.1800003,0.2700005,0.2699995,0.4200001h0.0299997v0.0600014
			c0.21,0.3000011,0.4500008,0.6000004,0.6900005,0.8999996h0.2699995v-0.9599991h0.3299999h0.3299999v0.9599991h0.329999v0.9600029
			h0.3299999v-0.9599991h0.3299999C-11.1199999,27.2800007-11.1199999,26.3199997-11.1199999,26.3199997z M-13.04,26.3199997
			h-0.3299999v-0.9599991H-13.04V26.3199997z M-11.4500008,26.3199997H-11.75v-0.9599991h0.3299999L-11.4500008,26.3199997
			L-11.4500008,26.3199997z"/>
		<path class="st2" d="M-8.5699997,23.4399986v0.9599991h-0.3000002v0.9599991h-0.3300009v0.9599991h0.3299999v0.9599991h0.3299999
			v0.9599991h0.3299999V27.279995h0.3299994v-0.9599991h0.3300004v-0.9599991h-0.3599982v-0.9599953h-0.3300004v-0.9599991
			C-8.2399998,23.4400024-8.5699997,23.4400024-8.5699997,23.4399986z M-8.2399998,26.3199997h-0.3299999v-0.9599991h0.329999
			L-8.2399998,26.3199997L-8.2399998,26.3199997z"/>
		<rect x="-17.5100002" y="15.1300001" class="st2" width="0.6299999" height="1.2900009"/>
		<polygon class="st2" points="-13.6700001,10 -13.6700001,9.3699999 -14.3299999,9.3699999 -14.3299999,10 -14.3299999,10.6300001 
			-13.6700001,10.6300001 		"/>
		<polygon class="st2" points="-12.71,11.920001 -12.71,13.2099991 -12.4099998,13.2099991 -12.0799999,13.2099991 
			-12.0799999,11.920001 -12.4099998,11.920001 		"/>
		<polygon class="st2" points="-16.8800011,10 -16.8800011,9.3699999 -17.5100002,9.3699999 -17.5100002,10 -17.5100002,10.6300001 
			-16.8800011,10.6300001 		"/>
		<path class="st2" d="M-12.0799999,28.4799995v-0.2399998h-0.21
			C-12.2300005,28.3300018-12.1400003,28.3899975-12.0799999,28.4799995z"/>
		<rect x="-7.9099994" y="3.6099997" class="st2" width="0.6300001" height="1.2900009"/>
		<polygon class="st2" points="-7.9099994,10 -7.9099994,10.6300001 -7.2800007,10.6300001 -7.2800007,10 -7.2800007,9.3699999 
			-7.9099994,9.3699999 		"/>
		<rect x="-7.9099994" y="-3.4400001" class="st2" width="0.6300001" height="1.2899995"/>
		<rect x="-7.9099994" y="-9.5299997" class="st2" width="0.6300001" height="1.2900002"/>
		<polygon class="st2" points="-11.1199999,10 -11.1199999,10.6300001 -10.4899998,10.6300001 -10.4899998,10 
			-10.4899998,9.3699999 -11.1199999,9.3699999 		"/>
		<path class="st2" d="M-7.9099994,6.1600008h-0.6600003v0.9599991h-0.6300011V8.079999h-0.329999V7.1199999h-0.6300001V6.1600008
			H-10.79V5.1999989h-0.6600008V4.2399998h-0.6299992V2.9500003h0.6300001V1.3599997h0.6300001V0.0700002h0.6300001v1.5900006
			h-0.3000002V3.25h0.3299999v1.2900009h0.6300001v1.2900009h0.329999V4.5699987h0.6300011V3.2800007h0.6299996V1.6900001h0.3300004
			V0.4000006h-0.2999997v-1.2900009h-0.6600003v-1.2600002h-0.3000002v-1.2899995h-0.6599998v-1.2899995h-0.6300001v1.2899995
			H-10.79v1.2899995h-0.6600008v1.2899995h-0.6299992v1.5900006h-0.3299999H-12.71v-1.6199999h-0.6599998v-1.2600002H-14v-1.2899995
			h-0.6300001v-1.2899995h-0.0900002C-14.8999996-4.4000006-15.1099997-4.0999994-15.29-3.7999997v0.3599997h-0.1800003
			c-0.1499996,0.2999997-0.3000002,0.6300001-0.4499998,0.9600005v0.3300004h-0.1499996
			C-16.1300011-2.0599999-16.1900005-1.9400001-16.25-1.8200002v0.9299998h-0.4200001
			c-0.0900002,0.2100005-0.1499996,0.4199996-0.210001,0.5999994v0.6900015h-0.2399998
			c-0.0299988,0.0599999-0.0599995,0.1199999-0.0899982,0.2099991v1.0800004h0.329998v1.5900006H-16.25v1.2900009h0.6300001
			v1.2900009H-15.29V4.5699987h0.6300001V3.2800007h0.3299999V1.6900001h-0.3000002V0.0700002H-14v1.2899995h0.6300001v1.5899992
			h0.6300001v1.2900009h-0.6300001v0.9599991H-14v0.9599991h-0.6300001V7.119997H-15.29v0.9599991h-0.3000002V7.1199999H-16.25
			V6.1600008h-0.6300011V5.1999989h-0.6299992v1.2900009h0.3299999v0.9599991h0.6300011v0.9599991h0.3299999V9.369997h0.6299992V10
			v0.6300001H-16.25v0.9599991h-0.2999992v0.9599991h-0.6599998v0.9599991h-0.3000011v1.2900009h0.6299992v-0.9599991H-16.25
			v-0.9599991h0.6300001V11.920001H-15.29v0.9599991h0.6300001v0.9599991H-14v0.9599991h0.6300001v0.9599991h0.6300001v1.2900019
			h-0.6300001v1.5899982H-14v1.2900009h-0.6300001v-1.5899982h0.3299999V16.75h-0.3299999v-1.2900009H-15.29v-1.2900009h-0.3000002
			v1.2900009H-16.25V16.75h-0.6300011v1.5900002h-0.329998v1.079998c0.0299988,0.0600014,0.0599995,0.1500015,0.0599995,0.2099991
			h0.2399998v0.6599998c0.0900002,0.2099991,0.1499996,0.420002,0.2099991,0.6000004h0.4200001v0.9300022
			c0.0600014,0.1199989,0.1200008,0.2099991,0.1499996,0.329998h0.1500006v0.329998
			c0.1500006,0.3299999,0.3000002,0.6300011,0.4499998,0.9599991h0.1800003v0.3600006
			c0.1799994,0.329998,0.3599997,0.5999985,0.5699997,0.9300003h0.0900002v-1.2900009H-14v-1.2900009h0.6300001V20.859993h0.6300001
			v-1.5899982h0.3299999h0.3299999v1.5899982h0.6299992v1.2900009h0.6300011v1.2900009h0.6599998v1.2900009h0.6300001v-1.2900009
			h0.6300001v-1.2900009h0.3299999V20.859993h0.6299996v-1.2599945h0.3300004v-1.2900009h-0.2999997v-1.5899982h-0.6600003
			v-1.2900009h-0.6300011v-1.2900009h-0.329999v1.2900009h-0.6300001v1.2900009h-0.3299999v1.5899982h0.3299999v1.5900002H-10.79
			v-1.2900009h-0.6600008v-1.5900002h-0.6299992v-1.29h0.6300001v-0.9299955h0.6300001v-0.9599991h0.6300001V12.880003h0.6300001
			v-0.9599991h0.3599987v0.9599991h0.6300011v0.9599991h0.6299996v0.9599991h0.6300001v-1.2900009h-0.2999997v-0.9599991h-0.6300001
			v-0.9599991h-0.3299999V10.630003h-0.6300011V10V9.3699999h0.6300011V8.4100008h0.329999V7.4499989h0.6299996V6.4899998h0.3300004
			V5.1999989h-0.6299987V6.1600008z M-9.5299997,10.6300001h-0.6300001v0.9599991h-0.3299999v0.9599991h-0.6300001v0.9599991H-11.75
			v0.9599991h-0.6599998H-13.04v-0.9599991h-0.6300001v-0.9599991h-0.6599998v-0.9599991h-0.3000002v-0.9599991H-15.29V10V9.3699999
			h0.6300001V8.4100008h0.3299999V7.4499989h0.6300001V6.4899998h0.6300001V5.5300007h0.6300001h0.6300001v0.9599991h0.6300001
			v0.9599991h0.6300001v0.9599991h0.3299999V9.369997h0.6300001V10C-9.5299997,10-9.5299997,10.6300001-9.5299997,10.6300001z"/>
		<path class="st2" d="M-8.2399998-12.29v0.21h-0.2400007C-8.6300001-11.96-8.75-11.8400002-8.8699999-11.7200003v0.9000006
			h-0.6599998v1.29h-0.6300001v-1.0199995c-0.3299999,0.329999-0.6599998,0.6899996-0.96,1.0199995H-10.79v1.29h0.6300001v1.2899995
			h0.6300001v-1.2899995h0.6300001v-1.29h0.6300001V-10.79h0.6299992v-1.29h0.3300004v-0.9300003
			C-7.6099997-12.7699995-7.9400001-12.5299997-8.2399998-12.29z"/>
		<polygon class="st2" points="-12.0799999,8.079999 -12.0799999,6.7900009 -12.4099998,6.7900009 -12.71,6.7900009 
			-12.71,8.079999 -12.4099998,8.079999 		"/>
		<path class="st2" d="M-12.0799999-8.4800005c-0.0600004,0.0900002-0.1500006,0.1500006-0.21,0.2400007h0.21
			C-12.0799999-8.2399998-12.0799999-8.4800005-12.0799999-8.4800005z"/>
		<path class="st2" d="M-8.5699997-8.2399998v0.9600005h-0.3000002v0.9600005h-0.3300009v0.9600005h0.3299999v0.9599977h0.3299999
			v0.9600005h0.3299999v-0.9600005h0.3299994v-0.9599991h0.3300004v-0.9600005h-0.3599982v-0.9600005h-0.3300004v-0.9599991
			H-8.5699997z M-8.2399998-5.3599997h-0.3299999v-0.9600005h0.329999L-8.2399998-5.3599997L-8.2399998-5.3599997z"/>
	</g>
</g>
<g id="Layer_2_1_">
</g>
<path class="st3" d="M10-18.5c15.5999985,0,28.5,12.9000006,28.5,28.5S25.5999985,38.5,10,38.5S-18.5,25.5999985-18.5,10
	S-5.5999994-18.5,10-18.5 M10-20C-6.5-20-20-6.5-20,10s13.5,30,30,30s30-13.5,30-30S26.5-20,10-20L10-20z"/>
</svg>
