<?xml version="1.0" encoding="utf-8"?>
<svg version="1.1" id="Layer_1" xmlns="http://www.w3.org/2000/svg" xmlns:xlink="http://www.w3.org/1999/xlink" x="0px" y="0px"
	 viewBox="-22 -22 64 64" style="enable-background:new 0 0 20 20;" xml:space="preserve">
<style type="text/css">
	.st0{fill:#FFFFFF;stroke:#B6B6B6;stroke-width:0.15;stroke-miterlimit:10;}
	.st1{fill:#ED2224;}
	.st2{fill:#CCCCCC;}
</style>
<circle class="st0" cx="10" cy="10" r="28.8000011"/>
<circle class="st0" cx="10" cy="10" r="28.8000011"/>
<path class="st1" d="M-18.7999992,10c0,8.4299984,3.6299992,15.9899998,9.4200001,21.2399998v-42.4799995
	C-15.1700001-5.9899998-18.7999992,1.5700002-18.7999992,10z"/>
<path class="st1" d="M38.8000031,10c0-8.7600002-3.9300003-16.6199989-10.1100044-21.9000015v43.7999992
	C34.8700027,26.6199989,38.8000031,18.7600002,38.8000031,10z"/>
<path class="st1" d="M17.5,16.5100002l7.5300007-6.1199999L23.4699993,9.670001
	c-0.6899986-0.2399998-0.5100002-0.6300001-0.2399998-1.5599985l1.1399994-4.1699996l-4.3799992,0.9299998
	c-0.4200001,0.0600014-0.7199993-0.2099991-0.7800007-0.4499989l-0.5699997-1.9799995l-3.4499979,3.8699999
	c-0.4799995,0.6300001-1.5,0.6300001-1.170001-0.8100014l1.4699993-7.829999l-1.9799995,1.0200005
	c-0.5699987,0.2999997-1.1099997,0.3599997-1.4100008-0.1799998L9.3699999-6.5899963L6.6400003-1.4899969
	C6.3399992-0.9499974,5.7700005-0.9799967,5.2000017-1.3099971L3.1900001-2.3900003l1.4700007,7.829999
	C4.9899998,6.9100008,4,6.9100008,3.4899998,6.2800007L0.0399995,2.4099994l-0.5700002,1.980001
	c-0.0599999,0.2399998-0.329999,0.5100002-0.7799993,0.4499989l-4.3499994-0.9299998L-4.519999,8.079999
	c0.2399983,0.9300013,0.4499989,1.3200016-0.2400012,1.5600014l-1.5599999,0.7199993l7.5299993,6.1199999
	C1.5099988,16.7199993,1.6599994,17.1399994,1.5399995,17.5l-0.6599994,2.1599998
	c2.5800004-0.2999992,4.920001-0.5699978,7.5-0.8699989c0.2399998,0,0.5999994,0.1800003,0.5999994,0.4499989l-0.329999,7.9200001
	h1.2600002l-0.1800013-7.8599987c0-0.2700005,0.3599997-0.4799995,0.5699987-0.4799995
	c2.579999,0.3000011,4.920001,0.5699978,7.500001,0.8700008l-0.6600018-2.1600018
	C17.0500011,17.1399994,17.1999989,16.7199993,17.5,16.5100002z"/>
<path class="st2" d="M10-18.5c15.5999985,0,28.5,12.9000006,28.5,28.5S25.5999985,38.5,10,38.5S-18.5,25.5999985-18.5,10
	S-5.5999994-18.5,10-18.5 M10-20C-6.5-20-20-6.5-20,10s13.5,30,30,30s30-13.5,30-30S26.5-20,10-20L10-20z"/>
</svg>
