<?xml version="1.0" encoding="utf-8"?>
<svg version="1.1" id="Layer_1" xmlns="http://www.w3.org/2000/svg" xmlns:xlink="http://www.w3.org/1999/xlink" x="0px" y="0px"
	 viewBox="-22 -22 64 64" style="enable-background:new 0 0 20 20;" xml:space="preserve">
<style type="text/css">
	.st0{fill:#007FFF;}
	.st1{fill:#F7D618;}
	.st2{fill:#CE1021;}
	.st3{fill:#CCCCCC;}
</style>
<g id="Layer_1_1_">
	<circle class="st0" cx="10" cy="10" r="28.8000011"/>
	<path class="st1" d="M-11.3839998,4.8520012l6.4079995-4.6469994l6.4080005,4.6500006l-2.448-7.5240026l6.407999-4.6499991
		h-7.920001L-4.901-14.6119995c-0.0629997,0.0359993-0.1259995,0.0749998-0.1890006,0.1139994l-2.3339996,7.1790009h-5.5470004
		c-0.2789993,0.368999-0.573,0.7289987-0.8339996,1.1159992l4.8690014,3.5339999L-11.3839998,4.8520012z"/>
	<path class="st1" d="M33.3100014-6.8660007l-49.1610031,29.4990025c0.3629999,0.7440014,0.7559996,1.467001,1.1819992,2.171999
		L34.6720047-4.802C34.2429962-5.513,33.7959976-6.2000003,33.3100014-6.8660007z"/>
	<path class="st1" d="M38.269001,4.5610008L-8.1050005,32.3860016c0.6899996,0.5579987,1.4070005,1.0919991,2.1479998,1.586998
		L38.6529961,7.2069979C38.5719986,6.3070002,38.4370003,5.4279995,38.269001,4.5610008z"/>
	<path class="st2" d="M34.6689987-4.802L-14.6690006,24.802c1.7399998,2.8950005,3.9540005,5.4660015,6.5700006,7.5840015
		L38.2749977,4.5579996C37.6240005,1.1859994,36.3820038-1.961,34.6689987-4.802z"/>
</g>
<g id="Layer_2_1_">
</g>
<path class="st3" d="M10-18.5c15.5999985,0,28.5,12.9000006,28.5,28.5S25.5999985,38.5,10,38.5S-18.5,25.5999985-18.5,10
	S-5.5999994-18.5,10-18.5 M10-20C-6.5-20-20-6.5-20,10s13.5,30,30,30s30-13.5,30-30S26.5-20,10-20L10-20z"/>
</svg>
