<?xml version="1.0" encoding="utf-8"?>
<svg version="1.1" id="Layer_1" xmlns="http://www.w3.org/2000/svg" xmlns:xlink="http://www.w3.org/1999/xlink" x="0px" y="0px"
	 viewBox="-22 -22 64 64" style="enable-background:new 0 0 20 20;" xml:space="preserve">
<style type="text/css">
	.st0{fill:#D72526;}
	.st1{fill:#FFFFFF;}
	.st2{fill:#CCCCCC;}
</style>
<path class="st0" d="M10-18.7999992C-5.9060001-18.7999992-18.8000011-5.9060001-18.8000011,10S-5.9060016,38.8000031,10,38.8000031
	S38.8000031,25.9060001,38.8000031,10S25.9060001-18.7999992,10-18.7999992z"/>
<polygon class="st1" points="15.7600002,-9.2000008 4.2399998,-9.2000008 4.2399998,4.2399998 -9.2000008,4.2399998 
	-9.2000008,15.7600002 4.2399998,15.7600002 4.2399998,29.1999989 15.7600002,29.1999989 15.7600002,15.7600002 
	29.1999989,15.7600002 29.1999989,4.2399998 15.7600002,4.2399998 "/>
<path class="st2" d="M10-18.5c15.5999985,0,28.5,12.9000006,28.5,28.5S25.5999985,38.5,10,38.5S-18.5,25.5999985-18.5,10
	S-5.5999994-18.5,10-18.5 M10-20C-6.5-20-20-6.5-20,10s13.5,30,30,30s30-13.5,30-30S26.5-20,10-20L10-20z"/>
</svg>
