<?xml version="1.0" encoding="utf-8"?>
<svg version="1.1" id="Layer_1" xmlns="http://www.w3.org/2000/svg" xmlns:xlink="http://www.w3.org/1999/xlink" x="0px" y="0px"
	 viewBox="-22 -22 64 64" style="enable-background:new 0 0 20 20;" xml:space="preserve">
<style type="text/css">
	.st0{fill:#FFFFFF;stroke:#B6B6B6;stroke-width:0.15;stroke-miterlimit:10;}
	.st1{fill:#0035AD;}
	.st2{fill:#D42E12;}
	.st3{fill:#FFFFFF;}
	.st4{fill:#CCCCCC;}
</style>
<g id="Layer_1_1_">
	<circle class="st0" cx="10" cy="10" r="28.8000011"/>
	<path class="st1" d="M10-18.7999992C-5.9060001-18.7999992-18.8000011-5.9060001-18.8000011,10H10V-18.7999992z"/>
	<path class="st2" d="M38.8000031,10H10h-28.7999992c0,15.9060001,12.8939991,28.8000031,28.7999992,28.8000031
		S38.8000031,25.9060001,38.8000031,10z"/>
	<polygon class="st3" points="-1.7839999,-3.5510006 2.4489994,-6.6259995 -2.7830005,-6.6259995 -4.4000006,-11.6000004 
		-6.0170007,-6.6259995 -11.2489996,-6.6259995 -7.0159998,-3.5510006 -8.6300001,1.4260006 -4.4000006,-1.6489997 
		-0.1699996,1.4260006 	"/>
</g>
<g id="Layer_2_1_">
</g>
<path class="st4" d="M10-18.5c15.5999985,0,28.5,12.9000006,28.5,28.5S25.5999985,38.5,10,38.5S-18.5,25.5999985-18.5,10
	S-5.5999994-18.5,10-18.5 M10-20C-6.5-20-20-6.5-20,10s13.5,30,30,30s30-13.5,30-30S26.5-20,10-20L10-20z"/>
</svg>
