<?xml version="1.0" encoding="utf-8"?>
<svg version="1.1" id="Layer_1" xmlns="http://www.w3.org/2000/svg" xmlns:xlink="http://www.w3.org/1999/xlink" x="0px" y="0px"
	 viewBox="-22 -22 64 64" style="enable-background:new 0 0 20 20;" xml:space="preserve">
<style type="text/css">
	.st0{fill:#FFFFFF;stroke:#B6B6B6;stroke-width:0.15;stroke-miterlimit:10;}
	.st1{fill:#003893;}
	.st2{fill:#CE1126;}
	.st3{fill:#FCD116;}
	.st4{fill:#CCCCCC;}
</style>
<g id="Layer_1_1_">
	<circle class="st0" cx="10" cy="10" r="28.8000011"/>
	<path class="st1" d="M10-18.7999992C-5.9060001-18.7999992-18.8000011-5.9060001-18.8000011,10h57.6000061
		C38.8000031-5.9060001,25.9060001-18.7999992,10-18.7999992z"/>
	<path class="st1" d="M34.9150009,24.4000015H-14.915C-9.9320002,33.0009995-0.6529989,38.8000031,10,38.8000031
		S29.9319973,33.0009995,34.9150009,24.4000015z"/>
	<path class="st2" d="M38.3679962,14.8000011H-18.368c0.2789993,1.652998,0.6930008,3.2549992,1.2420006,4.8000011h54.2519989
		C37.6750031,18.0550003,38.0890045,16.4529991,38.3679962,14.8000011z"/>
	<polygon class="st3" points="2.6799998,-0.0800004 2.0349994,1.9089999 -0.0590005,1.9089999 1.6329999,3.1389995 
		0.9879994,5.1309996 2.6799998,3.901 4.3719988,5.1309996 3.7269998,3.1389995 5.4189987,1.9089999 3.3280001,1.9089999 	"/>
	<polygon class="st3" points="-5.7860003,2.6710005 -6.4310007,4.6600008 -8.5220003,4.6600008 -6.8270006,5.8900003 
		-7.4749994,7.8759995 -5.7860003,6.6490011 -4.0910001,7.8759995 -4.7360005,5.8900003 -3.0469999,4.6600008 -5.138,4.6600008 	"/>
	<polygon class="st3" points="-11.0150003,9.8709993 -11.6599998,11.8599997 -13.7539997,11.8599997 -12.0620003,13.0899992 
		-12.71,15.0760012 -11.0150003,13.849 -9.323,15.0760012 -9.9710007,13.0899992 -8.276,11.8599997 -10.3699999,11.8599997 	"/>
	<polygon class="st3" points="-11.0150003,18.769001 -11.6599998,20.7609997 -13.7539997,20.7609997 -12.0620003,21.9880009 
		-12.71,23.9799995 -11.0150003,22.75 -9.323,23.9799995 -9.9710007,21.9880009 -8.276,20.7609997 -10.3699999,20.7609997 	"/>
	<polygon class="st3" points="-5.7860003,25.9689999 -6.4310007,27.9610023 -8.5220003,27.9610023 -6.8270006,29.1879997 
		-7.4749994,31.1799984 -5.7860003,29.9499989 -4.0910001,31.1799984 -4.7360005,29.1879997 -3.0469999,27.9610023 
		-5.138,27.9610023 	"/>
	<polygon class="st3" points="2.6799998,28.7199993 2.0349994,30.7089996 -0.0590005,30.7089996 1.6329999,31.9389992 
		0.9879994,33.9309998 2.6799998,32.7009964 4.3719988,33.9309998 3.7269998,31.9389992 5.4189987,30.7089996 3.3280001,30.7089996 
			"/>
	<polygon class="st3" points="11.1429987,25.9689999 10.4980011,27.9610023 8.4040012,27.9610023 10.099,29.1879997 
		9.4510012,31.1799984 11.1429987,29.9499989 12.8380003,31.1799984 12.1899986,29.1879997 13.881999,27.9610023 
		11.7879992,27.9610023 	"/>
	<polygon class="st3" points="16.375,9.8709993 15.7270012,11.8599997 13.6359997,11.8599997 15.3310013,13.0899992 
		14.6829996,15.0760012 16.375,13.849 18.0670013,15.0760012 17.4220009,13.0899992 19.1110001,11.8599997 17.0200005,11.8599997 	
		"/>
	<polygon class="st3" points="16.375,18.769001 15.7270012,20.7609997 13.6359997,20.7609997 15.3310013,21.9880009 
		14.6829996,23.9799995 16.375,22.75 18.0670013,23.9799995 17.4220009,21.9880009 19.1110001,20.7609997 17.0200005,20.7609997 	
		"/>
	<polygon class="st3" points="11.1429987,2.6710005 10.4980011,4.6600008 8.4040012,4.6600008 10.099,5.8900003 
		9.4510012,7.8759995 11.1429987,6.6490011 12.8380003,7.8759995 12.1899986,5.8900003 13.881999,4.6600008 11.7879992,4.6600008 	
		"/>
</g>
<g id="Layer_2_1_">
</g>
<path class="st4" d="M10-18.5c15.5999985,0,28.5,12.9000006,28.5,28.5S25.5999985,38.5,10,38.5S-18.5,25.5999985-18.5,10
	S-5.5999994-18.5,10-18.5 M10-20C-6.5-20-20-6.5-20,10s13.5,30,30,30s30-13.5,30-30S26.5-20,10-20L10-20z"/>
</svg>
