<?xml version="1.0" encoding="utf-8"?>
<svg version="1.1" id="Layer_1" xmlns="http://www.w3.org/2000/svg" xmlns:xlink="http://www.w3.org/1999/xlink" x="0px" y="0px"
	 viewBox="-22 -22 64 64" style="enable-background:new 0 0 20 20;" xml:space="preserve">
<style type="text/css">
	.st0{fill:#FFFFFF;stroke:#B6B6B6;stroke-width:0.15;stroke-miterlimit:10;}
	.st1{fill:#D7141A;}
	.st2{fill:#11457E;}
	.st3{fill:#CCCCCC;}
</style>
<g id="Layer_1_1_">
	<circle class="st0" cx="10" cy="10" r="28.8000011"/>
	<path class="st1" d="M38.8000031,10H10l-23.9580002,15.9719982C-8.7950001,33.7060013,0.0040007,38.8000031,10,38.8000031
		C25.9060001,38.8000031,38.8000031,25.9060001,38.8000031,10z"/>
	<path class="st2" d="M-13.9580002-5.9719996C-17.0149994-1.4030004-18.7999992,4.0899992-18.7999992,10
		s1.7849998,11.4030018,4.8419991,15.9719982L10,10L-13.9580002-5.9719996z"/>
</g>
<g id="Layer_2_1_">
</g>
<path class="st3" d="M10-18.5c15.5999985,0,28.5,12.9000006,28.5,28.5S25.5999985,38.5,10,38.5S-18.5,25.5999985-18.5,10
	S-5.5999994-18.5,10-18.5 M10-20C-6.5-20-20-6.5-20,10s13.5,30,30,30s30-13.5,30-30S26.5-20,10-20L10-20z"/>
</svg>
