<?xml version="1.0" encoding="utf-8"?>
<svg version="1.1" id="Layer_1" xmlns="http://www.w3.org/2000/svg" xmlns:xlink="http://www.w3.org/1999/xlink" x="0px" y="0px"
	 viewBox="-22 -22 64 64" style="enable-background:new 0 0 20 20;" xml:space="preserve">
<style type="text/css">
	.st0{fill:#FFFFFF;stroke:#B6B6B6;stroke-width:0.15;stroke-miterlimit:10;}
	.st1{fill:#6AB2E7;}
	.st2{fill:#12AD2B;}
	.st3{fill:#FF0000;}
	.st4{fill:#CCCCCC;}
</style>
<g id="Layer_1_1_">
	<circle class="st0" cx="10" cy="10" r="28.8000011"/>
	<path class="st1" d="M31.0839996,10h7.7160034c0-15.9060001-12.8940029-28.8000011-28.8000031-28.8000011
		c-6.7800007,0-13.0020008,2.3579998-17.9220009,6.2820005l14.0639992,8.118L31.0839996,10z"/>
	<path class="st2" d="M38.8000031,10h-7.7160034L6.1419992,24.4000015l-14.0640011,8.118
		C-3.0020003,36.4419975,3.2199993,38.8000031,10,38.8000031C25.9060001,38.8000031,38.8000031,25.9060001,38.8000031,10z"/>
	<polygon class="st3" points="-2.1740003,4.2399998 -0.8809996,8.2209988 3.3070002,8.2209988 -0.0800004,10.6810007 
		1.2130003,14.6590014 -2.1740003,12.1989994 -5.5579996,14.6590014 -4.2650003,10.6810007 -7.6519995,8.2209988 
		-3.4669995,8.2209988 	"/>
</g>
<g id="Layer_2_1_">
</g>
<path class="st4" d="M10-18.5c15.5999985,0,28.5,12.9000006,28.5,28.5S25.5999985,38.5,10,38.5S-18.5,25.5999985-18.5,10
	S-5.5999994-18.5,10-18.5 M10-20C-6.5-20-20-6.5-20,10s13.5,30,30,30s30-13.5,30-30S26.5-20,10-20L10-20z"/>
</svg>
