<?xml version="1.0" encoding="utf-8"?>
<svg version="1.1" id="Layer_1" xmlns="http://www.w3.org/2000/svg" xmlns:xlink="http://www.w3.org/1999/xlink" x="0px" y="0px"
	 viewBox="-22 -22 64 64" style="enable-background:new 0 0 20 20;" xml:space="preserve">
<style type="text/css">
	.st0{fill:#FFFFFF;stroke:#B6B6B6;stroke-width:0.15;stroke-miterlimit:10;}
	.st1{fill:#003F87;}
	.st2{fill:#CE1126;}
	.st3{fill:none;stroke:#000000;stroke-width:0.0936;}
	.st4{opacity:0.9961;fill:#003F87;enable-background:new    ;}
	.st5{fill:none;stroke:#000000;stroke-width:0.0936;stroke-linejoin:round;}
	.st6{fill:#FFCE00;}
	.st7{fill:#FFFFFF;}
	.st8{fill:none;stroke:#000000;stroke-width:0.0468;}
	.st9{fill:none;stroke:#000000;stroke-width:0.075;}
	.st10{fill:none;stroke:#241A0D;stroke-width:0.1404;}
	.st11{fill:none;stroke:#9D9698;stroke-width:0.0468;}
	.st12{fill:#007B63;}
	.st13{fill:none;stroke:#003D00;stroke-width:0.075;}
	.st14{fill:none;stroke:#003E00;stroke-width:0.075;}
	.st15{fill:none;stroke:#003D00;stroke-width:0.0468;}
	.st16{fill:#D21034;}
	.st17{opacity:0.9961;fill:#CE1126;enable-background:new    ;}
	.st18{fill:#CCCCCC;}
</style>
<g id="Layer_1_1_">
	<circle class="st0" cx="10" cy="10" r="28.8000011"/>
	<path class="st1" d="M3.4149995-18.0139999C-7.3309999-15.4969997-15.7579994-6.9799995-18.1189995,3.8289995H3.4179993
		v-21.8429985H3.4149995z"/>
	<path class="st2" d="M-18.1189995,16.1710014c2.3610001,10.8089981,10.7880001,19.3260002,21.5369987,21.8430023V16.1710033
		C3.4179993,16.1710033-18.1189995,16.1710033-18.1189995,16.1710014z"/>
	<path class="st1" d="M16.5849991,38.0139999c10.7490005-2.5170059,19.1760025-11.0370026,21.5370026-21.8430023H16.5850029
		C16.5849991,16.1710014,16.5849991,38.0139999,16.5849991,38.0139999z"/>
	<path class="st2" d="M38.1189957,3.8289995C35.7579956-6.9799995,27.3309975-15.4969997,16.5819969-18.0139999V3.8289995
		H38.1189957z"/>
	<path class="st3" d="M16.3780022,6.0369997c-0.0240021-0.4680004-0.3060017-0.6149998-0.3060017-0.6149998"/>
	<path class="st3" d="M16.2370014,6.0699987c-0.0240002-0.4680004-0.3060007-0.6149998-0.3060007-0.6149998"/>
	<path class="st3" d="M16.0839996,6.0760012c-0.0240021-0.4680004-0.3060007-0.6149998-0.3060007-0.6149998"/>
	<path class="st3" d="M15.9429998,6.1330013c-0.0240011-0.4680004-0.3060007-0.6149998-0.3060007-0.6149998"/>
	<path class="st3" d="M15.7929993,6.1960011c-0.0240011-0.4680004-0.3060007-0.6149998-0.3060007-0.6149998"/>
	<path class="st3" d="M15.6519995,6.2709999c-0.0209999-0.4680004-0.3060007-0.6149998-0.3060007-0.6149998"/>
	<path class="st4" d="M16.1710014,5.4399986c-0.5250015-1.4100008-0.7410002-1.6080008-0.8310022-1.7100005
		c-0.0930004-0.1079993-1.0319996-0.4050007-1.0319996-0.4050007l-0.2609997,0.5850019c0,0,0.8010006,0.3899989,0.9720011,0.7529998
		c0.1710005,0.3599997,0.2939987,1.0200005,0.2939987,1.0200005s0.3540001-0.1500006,0.4770012-0.1949987
		C15.9100008,5.4399986,16.1710014,5.4699993,16.1710014,5.4399986z"/>
	<path class="st3" d="M16.1710014,5.4399986c-0.5250015-1.4100008-0.7410002-1.6080008-0.8310022-1.7100005
		c-0.0930004-0.1079993-1.0319996-0.4050007-1.0319996-0.4050007l-0.2609997,0.5850019c0,0,0.8010006,0.3899989,0.9720011,0.7529998
		c0.1710005,0.3599997,0.2939987,1.0200005,0.2939987,1.0200005s0.3540001-0.1500006,0.4770012-0.1949987
		C15.9100008,5.4399986,16.1710014,5.4699993,16.1710014,5.4399986z"/>
	<path class="st1" d="M15.756999,4.4350014c-0.8310013-0.3449993-1.0949993-0.1650009-1.3859997-0.2399998
		c-0.2939987-0.0749989-0.9239988-0.2399998-0.9840002-0.3930001C13.3269978,3.6520009,13.927,2.9170012,13.927,2.9170012
		l0.420001,0.4379997c0.2729988,0.2849994,0.927,0.0300007,1.157999,0.5310001L15.756999,4.4350014z"/>
	<path class="st5" d="M15.756999,4.4350014c-0.8310013-0.3449993-1.0949993-0.1650009-1.3859997-0.2399998
		c-0.2939987-0.0749989-0.9239988-0.2399998-0.9840002-0.3930001C13.3269978,3.6520009,13.927,2.9170012,13.927,2.9170012
		l0.420001,0.4379997c0.2729988,0.2849994,0.927,0.0300007,1.157999,0.5310001L15.756999,4.4350014z"/>
	<path class="st3" d="M14.8630009,4.1199999c-0.1230011,0.1650009-0.9630003-0.3419995-1.170001-0.3900003
		c-0.2340002-0.0689993-0.3239994,0.0599999-0.3239994,0.0599999"/>
	<path class="st4" d="M11.1190004,2.4219999c0.0600014,0,1.2449999-0.1170001,2.2769995,0.0750003
		c1.0649986,0.1829996,1.6860008,0.5700002,1.6920004,0.8099999c0.0150003,0.4680004-0.2159986,0.8399992-0.2459993,0.8280001
		c-0.032999-0.0150003,0-0.2100005-0.2609997-0.2849994c-0.2609997-0.0750003-1.4759989-0.4680004-1.8029995-0.4799995
		c-0.3239994-0.0150003-1.2600002,0.0300007-1.4040012,0.0150003c-0.1379986-0.0150003-0.4919987-0.0900006-0.4919987-0.2550001
		S11.1070013,2.4550004,11.1190004,2.4219999z"/>
	<path class="st3" d="M11.1190004,2.4219999c0.0600014,0,1.2449999-0.1170001,2.2769995,0.0750003
		c1.0649986,0.1829996,1.6860008,0.5700002,1.6920004,0.8099999c0.0150003,0.4680004-0.2159986,0.8399992-0.2459993,0.8280001
		c-0.032999-0.0150003,0-0.2100005-0.2609997-0.2849994c-0.2609997-0.0750003-1.4759989-0.4680004-1.8029995-0.4799995
		c-0.3239994-0.0150003-1.2600002,0.0300007-1.4040012,0.0150003c-0.1379986-0.0150003-0.4919987-0.0900006-0.4919987-0.2550001
		S11.1070013,2.4550004,11.1190004,2.4219999z"/>
	<path class="st3" d="M11.8060007,3.0609994C11.7910004,3.112,11.8210011,3.2259989,11.6259995,3.204999
		c-0.2010012-0.0150003-0.3000011-0.1560001-0.4830008-0.1350002c-0.177,0.0209999-0.2010012,0.1350002-0.2010012,0.1350002"/>
	<path class="st3" d="M3.6339993,6.0129986c0.0240011-0.4649992,0.3060007-0.6149998,0.3060007-0.6149998"/>
	<path class="st3" d="M3.7780004,6.0460005C3.802,5.5780001,4.0839996,5.4310007,4.0839996,5.4310007"/>
	<path class="st3" d="M3.9310007,6.0579996c0.0209999-0.4680004,0.3029995-0.618001,0.3029995-0.618001"/>
	<path class="st3" d="M4.0720005,6.1120014C4.0960016,5.644001,4.3780012,5.4970016,4.3780012,5.4970016"/>
	<path class="st3" d="M4.2249994,6.1750011c0.0209999-0.4680004,0.3029995-0.6149998,0.3029995-0.6149998"/>
	<path class="st3" d="M4.3659992,6.2469988c0.0209999-0.4680004,0.3060007-0.6119986,0.3060007-0.6119986"/>
	<path class="st4" d="M3.8439999,5.4219999c0.5250006-1.4100008,0.7409992-1.6080008,0.8310013-1.7100005
		s1.0319996-0.4050007,1.0319996-0.4050007l0.2609997,0.5850005c0,0-0.8010006,0.3900003-0.9720011,0.7530012
		C4.8249989,5.0050001,4.704999,5.6650009,4.704999,5.6650009S4.3509989,5.5150003,4.2279978,5.4700022
		C4.1049995,5.4219999,3.8439999,5.4489994,3.8439999,5.4219999z"/>
	<path class="st3" d="M3.8439999,5.4219999c0.5250006-1.4100008,0.7409992-1.6080008,0.8310013-1.7100005
		s1.0319996-0.4050007,1.0319996-0.4050007l0.2609997,0.5850005c0,0-0.8010006,0.3900003-0.9720011,0.7530012
		C4.8249989,5.0050001,4.704999,5.6650009,4.704999,5.6650009S4.3509989,5.5150003,4.2279978,5.4700022
		C4.1049995,5.4219999,3.8439999,5.4489994,3.8439999,5.4219999z"/>
	<path class="st1" d="M4.2609997,4.4139986C5.092001,4.0689993,5.355999,4.2489977,5.6469994,4.1739988
		s0.9239988-0.2399998,0.9840002-0.3900003s-0.5400009-0.888-0.5400009-0.888L5.6710005,3.3400006
		C5.401,3.6220002,4.7440004,3.3700013,4.5130014,3.868001L4.2609997,4.4139986z"/>
	<path class="st5" d="M4.2609997,4.4139986C5.092001,4.0689993,5.355999,4.2489977,5.6469994,4.1739988
		s0.9239988-0.2399998,0.9840002-0.3900003s-0.5400009-0.888-0.5400009-0.888L5.6710005,3.3400006
		C5.401,3.6220002,4.7440004,3.3700013,4.5130014,3.868001L4.2609997,4.4139986z"/>
	<path class="st3" d="M5.1519995,4.099c0.1230011,0.1650009,0.9630003-0.3419995,1.170001-0.3930001
		c0.2340002-0.0689993,0.3239994,0.0599999,0.3239994,0.0599999"/>
	<path class="st4" d="M8.8929987,2.4039998c-0.0600014,0-1.2449999-0.1199999-2.2800007,0.0750003
		C5.5509977,2.6619997,4.9269972,3.0490003,4.9209976,3.2919998C4.9060001,3.7540007,5.1369991,4.1290007,5.1669998,4.1140003
		c0.032999-0.0150003,0-0.2100005,0.2609997-0.2849994S6.9039984,3.3640003,7.230999,3.3490014
		c0.3239994-0.0150003,1.2629986,0.0300007,1.4040012,0.0150003c0.1350002-0.0150003,0.4890003-0.0900006,0.4890003-0.2520003
		C9.1240005,2.9439993,8.9110003,2.4310007,8.8929987,2.4039998z"/>
	<path class="st3" d="M8.8929987,2.4039998c-0.0600014,0-1.2449999-0.1199999-2.2800007,0.0750003
		C5.5509977,2.6619997,4.9269972,3.0490003,4.9209976,3.2919998C4.9060001,3.7540007,5.1369991,4.1290007,5.1669998,4.1140003
		c0.032999-0.0150003,0-0.2100005,0.2609997-0.2849994S6.9039984,3.3640003,7.230999,3.3490014
		c0.3239994-0.0150003,1.2629986,0.0300007,1.4040012,0.0150003c0.1350002-0.0150003,0.4890003-0.0900006,0.4890003-0.2520003
		C9.1240005,2.9439993,8.9110003,2.4310007,8.8929987,2.4039998z"/>
	<path class="st3" d="M8.2089996,3.0430007c0.0150003,0.0510006-0.0150003,0.1649995,0.177,0.1439996
		C8.5870008,3.1719999,8.6860008,3.0310001,8.8719988,3.052c0.1740017,0.0180001,0.198,0.1350002,0.198,0.1350002"/>
	<path class="st4" d="M9.9730005,1.6959996C8.5059996,1.7169995,8.1130009,1.927,8.0469999,2.1759992
		C7.9840002,2.4069996,8.2180004,3.0759997,8.2180004,3.0759997S8.467001,2.6079993,9.9880009,2.6229997
		C11.512002,2.638,11.8120003,3.0429993,11.8120003,3.0429993s0.1949987-0.6599994,0.1800013-0.888
		C11.9770012,1.9359994,11.355999,1.6929998,9.9730005,1.6959996z"/>
	<path class="st3" d="M9.9730005,1.6959996C8.5059996,1.7169995,8.1130009,1.927,8.0469999,2.1759992
		C7.9840002,2.4069996,8.2180004,3.0759997,8.2180004,3.0759997S8.467001,2.6079993,9.9880009,2.6229997
		C11.512002,2.638,11.8120003,3.0429993,11.8120003,3.0429993s0.1949987-0.6599994,0.1800013-0.888
		C11.9770012,1.9359994,11.355999,1.6929998,9.9730005,1.6959996z"/>
	<polygon class="st6" points="12.0009995,3.151 12.0579996,2.5449996 12.1209993,2.5479994 12.0699987,3.0850005 
		12.2889986,3.1060004 12.282999,3.1749997 	"/>
	
		<rect x="12.1157131" y="2.8506639" transform="matrix(0.0945023 -0.9955246 0.9955246 0.0945023 8.3800535 14.9745474)" class="st6" width="0.6119834" height="0.0599985"/>
	<polygon class="st6" points="12.9310007,3.2230005 13.0300007,2.6199999 13.3509989,2.6710005 13.342001,2.7429996 
		13.0780001,2.698 13.0479994,2.8839993 13.2939987,2.9229994 13.2819996,2.9920001 13.0360003,2.9559999 13,3.1599994 
		13.276,3.2020006 13.2640009,3.2739997 	"/>
	<polygon class="st6" points="13.8699999,3.4450002 14.0589991,2.9379997 13.9179993,2.8930001 13.9389992,2.8239994 
		14.2810001,2.9409995 14.2540007,3.0070004 14.1130009,2.9589996 13.927,3.4660001 	"/>
	<path class="st6" d="M12.5290012,3.1959996l0.0570002-0.6090002l0.1710005,0.0150003
		c0.0360003,0.0029998,0.0600014,0.0120006,0.0810013,0.0269995c0.0209999,0.0150003,0.0360003,0.0360003,0.0419998,0.0599999
		s0.0150003,0.0540004,0.0119991,0.0809999s-0.0090008,0.0479994-0.0240011,0.0720005
		c-0.0119991,0.0239997-0.0300007,0.039-0.0510006,0.0510006c0.0269995,0.0150003,0.045001,0.0360003,0.0570002,0.0599999
		c0.0119991,0.0269995,0.0179987,0.0570002,0.0150003,0.0960002c-0.0090008,0.0300007-0.0150003,0.0540004-0.0269995,0.0809999
		c-0.0119991,0.0239997-0.0240011,0.039-0.0360003,0.0510006c-0.0150003,0.0120006-0.032999,0.0209999-0.0510006,0.0269995
		C12.7540007,3.2139997,12.7299995,3.2139997,12.6999989,3.211L12.5290012,3.1959996z M12.6219988,2.8510003l0.099,0.0089993
		c0.0269995,0.0029998,0.045001,0.0029998,0.0570002-0.0029998c0.0150003-0.0059996,0.0300007-0.0150003,0.0360003-0.0300007
		C12.823,2.8119988,12.8289995,2.7939987,12.8319979,2.7759986c0.0030012-0.0209999,0-0.0360003-0.0059996-0.0540004
		S12.810998,2.6919975,12.7959976,2.685998c-0.0119991-0.0059996-0.0360003-0.0120006-0.0660009-0.0150003l-0.0899992-0.0089993
		L12.6219988,2.8510003z M12.5949993,3.1300001l0.1109991,0.0089993c0.0209999,0.0029998,0.032999,0.0029998,0.0389986,0
		c0.0150003-0.0029998,0.0269995-0.0059996,0.0360003-0.0150003c0.0090008-0.0089993,0.0179987-0.0180001,0.0269995-0.0330005
		c0.0059996-0.0150003,0.0119991-0.0330005,0.0150003-0.0510006c0.0030012-0.0239997,0-0.0419998-0.0090008-0.0599999
		c-0.0059996-0.0180001-0.0179987-0.0330005-0.032999-0.0360003c-0.0150003-0.0089993-0.0360003-0.0150003-0.0660009-0.0180001
		l-0.1049995-0.0089993L12.5949993,3.1300001z"/>
	<path class="st6" d="M13.3480005,3.289l0.1710005-0.5880003l0.1920004,0.0510006
		c0.0360003,0.0120006,0.0660009,0.0239997,0.0839996,0.039s0.0300007,0.0360003,0.032999,0.0689993
		c0.0030012,0.0300007,0.0030012,0.0599999-0.0090008,0.0930004c-0.0119991,0.039-0.032999,0.0750003-0.0600014,0.099
		c-0.0300007,0.0239997-0.0660009,0.0330005-0.1080008,0.0300007c0.0119991,0.0150003,0.0209999,0.0269995,0.0269995,0.039
		c0.0119991,0.0269995,0.0209999,0.0540004,0.0269995,0.0930004l0.0300007,0.1799998l-0.074996-0.0180016l-0.0240011-0.138
		c-0.0059996-0.039-0.0119991-0.0720005-0.0179987-0.0930004c-0.0059996-0.0239997-0.0119991-0.0360003-0.0179987-0.0449996
		s-0.0150003-0.0180001-0.0240011-0.0239997C13.5700016,3.073,13.5580025,3.0670004,13.5430021,3.0639992l-0.0629997-0.0209999
		l-0.0749989,0.2579999L13.3480005,3.289z M13.5009995,2.9799995l0.1230011,0.0360003
		C13.651,3.0249991,13.6719999,3.0249991,13.6900015,3.0219994s0.032999-0.0120006,0.0419998-0.0269995
		c0.0119991-0.0150003,0.0209999-0.0330005,0.0269995-0.0479994c0.0090008-0.0300007,0.0059996-0.0510006-0.0030012-0.0750003
		C13.7469988,2.8510003,13.7230005,2.836,13.6929998,2.8270006l-0.1379986-0.0360003L13.5009995,2.9799995z"/>
	<path class="st6" d="M14.4940004,3.7000003l0.2099991-0.573l0.1469994,0.0510006
		c0.0360003,0.0120006,0.0570002,0.0239997,0.0720005,0.0360003c0.0209999,0.0180001,0.0360003,0.0360003,0.045001,0.0629997
		c0.0150003,0.0360003,0.0179987,0.0720005,0.0150003,0.1140003c-0.0030012,0.0419998-0.0150003,0.0930004-0.032999,0.1409998
		c-0.0179987,0.0419998-0.0360003,0.0809999-0.0539989,0.1110005c-0.0209999,0.0330005-0.0389986,0.0540004-0.0600014,0.0750003
		c-0.0209999,0.0209999-0.0389986,0.0330005-0.0570002,0.0360003c-0.0179987,0.0089993-0.0360003,0.0120006-0.0600014,0.0120006
		s-0.045001-0.0059996-0.0720005-0.0150003L14.4940004,3.7000003z M14.5720005,3.6550007l0.0930004,0.0330005
		c0.0300007,0.0089993,0.0510006,0.0150003,0.0689993,0.0120006c0.0209999,0,0.0360003-0.0059996,0.0479994-0.0180001
		c0.0209999-0.0150003,0.0389986-0.0360003,0.0570002-0.0599999C14.8569984,3.592001,14.875,3.5590019,14.8900003,3.5140023
		c0.0209999-0.0599999,0.032999-0.1079993,0.0300007-0.1469994c-0.0030012-0.0360003-0.0119991-0.0659995-0.0300007-0.0839996
		c-0.0119991-0.0150003-0.0360003-0.0269995-0.0689993-0.0360003l-0.0899992-0.0330005L14.5720005,3.6550007z"/>
	<path class="st6" d="M14.0500011,3.5170007l0.375-0.5189996l0.0600014,0.0209999l-0.0360003,0.6329999l-0.0660009-0.0180001
		l0.0150003-0.1890006l-0.1800013-0.0599999l-0.1080008,0.1589999L14.0500011,3.5170007z M14.2600002,3.3250003l0.144001,0.0479994
		l0.0150003-0.1740003c0.0030012-0.0510006,0.0090008-0.0960002,0.0150003-0.1290007
		C14.413002,3.105999,14.3950033,3.138998,14.3710022,3.1719985L14.2600002,3.3250003z"/>
	<polygon class="st6" points="9.8139992,2.5089993 9.8139992,1.9719996 9.6490011,1.9719996 9.6490011,1.9000006 
		10.045001,1.9000006 10.045001,1.9719996 9.8830013,1.9719996 9.8830013,2.5089993 	"/>
	
		<rect x="10.3940573" y="2.1678185" transform="matrix(0.0427993 -0.9990837 0.9990837 0.0427993 8.0433054 12.7968836)" class="st6" width="0.6120114" height="0.0660006"/>
	<path class="st6" d="M8.7910004,2.5960002L8.6800013,1.9960008l0.1860008-0.0330005
		c0.0299978-0.0029998,0.0569973-0.006001,0.0779972-0.006001c0.0269995,0,0.0479994,0.0059996,0.0660009,0.0180001
		C9.0310001,1.987,9.0460005,2.0050001,9.0579996,2.026C9.073,2.0499997,9.0849991,2.0739994,9.0909986,2.1040001
		c0.0090008,0.0510006,0.0060024,0.0960002-0.0149975,0.138C9.052,2.2780004,9.006999,2.3049998,8.9379997,2.3200002
		L8.8120003,2.3410001l0.045001,0.2459993L8.7910004,2.5960002z M8.7969999,2.2689996l0.1290007-0.0239997
		C8.9680004,2.2390003,8.9949999,2.224,9.0100002,2.2000003s0.0179987-0.0479994,0.0119991-0.0869994
		C9.0159998,2.0860014,9.006999,2.0680013,8.9919987,2.0530009S8.961998,2.0260015,8.9439993,2.0230002
		c-0.0119991-0.0029998-0.032999,0-0.0629997,0.0059996L8.7550001,2.0560007L8.7969999,2.2689996z"/>
	<path class="st6" d="M9.1719999,2.5089993L9.3189993,1.888l0.0720005-0.0059996l0.2519989,0.5939999L9.5649986,2.4790001
		L9.4899998,2.302L9.2800007,2.3170004L9.2409992,2.5029998L9.1719999,2.5089993z M9.295001,2.2509995l0.1710005-0.0120006
		L9.4000006,2.0709996C9.381999,2.0230002,9.3669987,1.9780006,9.3549995,1.948
		C9.3520012,1.987,9.3459988,2.0289998,9.3370008,2.0650001L9.295001,2.2509995z"/>
	<path class="st6" d="M10.1169987,2.5089993V1.9000006h0.2249994c0.045001,0,0.0780001,0.0059996,0.1049995,0.0180001
		c0.0240011,0.0120006,0.0419998,0.0300007,0.0539989,0.0570002c0.0150003,0.0300007,0.0209999,0.0570002,0.0209999,0.0930004
		c0,0.0419998-0.0119991,0.0809999-0.0360003,0.1079993C10.4619951,2.2060013,10.4289961,2.224,10.3779955,2.2330008
		c0.0179987,0.0120006,0.032999,0.0209999,0.0389986,0.0330005c0.0209999,0.0209999,0.0360003,0.0479994,0.0539989,0.0809999
		l0.0870008,0.1680007h-0.0839996l-0.0660009-0.1259995c-0.0209999-0.0360003-0.0360003-0.0629997-0.0479994-0.0839996
		c-0.0150003-0.0209999-0.0240011-0.0330005-0.0360003-0.039c-0.0090008-0.0089993-0.0209999-0.0150003-0.0300007-0.0180001
		s-0.0209999-0.0029998-0.0360003-0.0029998h-0.0780001v0.2700005L10.1169987,2.5089993L10.1169987,2.5089993z
		 M10.1829996,2.1669998h0.144001c0.032999,0,0.0539989-0.0029998,0.0720005-0.0120006s0.0300007-0.0209999,0.0389986-0.0360003
		c0.0090008-0.0180001,0.0150003-0.0360003,0.0150003-0.0540004c0-0.0300007-0.0090008-0.0510006-0.0269995-0.0720005
		c-0.0179987-0.0180001-0.0419998-0.0300007-0.0810013-0.0300007H10.185998V2.166997
		C10.185998,2.166997,10.1829996,2.166997,10.1829996,2.1669998z"/>
	<path class="st6" d="M10.8520012,2.5269995l0.3000011-0.5670004l0.0720005,0.0120006l0.0959988,0.6359997L11.2450027,2.592999
		l-0.0269995-0.1920004l-0.2070007-0.0360003l-0.0870008,0.1740003L10.8520012,2.5269995z M11.0410004,2.3049998
		l0.1679993,0.0300007l-0.0209999-0.177c-0.0059996-0.0510006-0.0119991-0.099-0.0119991-0.1290007
		c-0.0150003,0.0360003-0.0300007,0.0750003-0.0479994,0.1079993L11.0410004,2.3049998z"/>
	
		<rect x="6.305316" y="2.7495046" transform="matrix(0.9891669 -0.1467951 0.1467951 0.9891669 -0.3798549 0.9637546)" class="st6" width="0.0690016" height="0.6120204"/>
	<path class="st6" d="M7.0570002,3.0219994l0.0629997-0.0119991c0.0059996,0.0300007,0.0150003,0.0540004,0.0300007,0.0720005
		C7.1619997,3.1030006,7.1800013,3.118001,7.2039995,3.1240005c0.0240011,0.0089993,0.0510006,0.0150003,0.0810013,0.0120006
		C7.3060007,3.1329999,7.329999,3.1270003,7.3509989,3.1179996c0.0209999-0.0119991,0.0300007-0.0269995,0.0390015-0.0419998
		c0.0059996-0.0180001,0.0119991-0.0360003,0.0090008-0.0540004c0-0.0209999-0.0090008-0.0360003-0.0179987-0.0479994
		C7.3719988,2.9619994,7.3540001,2.9500003,7.329999,2.9409995C7.3179998,2.9379997,7.2879992,2.9290004,7.2370014,2.9199996
		C7.189002,2.9110003,7.1560001,2.8989997,7.1350002,2.8899989c-0.0240011-0.0119991-0.045001-0.0299993-0.0570002-0.0509992
		C7.0629997,2.8179998,7.0539989,2.7940001,7.0510006,2.7639995C7.0479994,2.7340002,7.0539989,2.7039995,7.0660009,2.6799998
		C7.0780001,2.6499991,7.099,2.6320004,7.1230011,2.6140003c0.0269995-0.0180001,0.0570002-0.0270009,0.0929976-0.0300007
		c0.0360003-0.0029998,0.0720005,0,0.1020012,0.0150003c0.032999,0.0120006,0.0539989,0.0330005,0.0720005,0.0570002
		C7.407999,2.6829996,7.420001,2.7130003,7.4260006,2.7520003L7.3599997,2.7609997
		C7.3540001,2.7189999,7.3389997,2.6920004,7.3149986,2.677c-0.0179987-0.0209999-0.0509977-0.0269995-0.086998-0.0239997
		C7.1860008,2.6560001,7.1560001,2.6680007,7.1380014,2.6890006c-0.0180016,0.0179987-0.0240011,0.039-0.0210028,0.0659995
		c0.0030012,0.0209999,0.0090008,0.039,0.0240011,0.0510006c0.0150003,0.0119991,0.0479994,0.0239997,0.1049995,0.032999
		C7.3000011,2.8480005,7.342001,2.8599997,7.3630009,2.8690004c0.032999,0.0150003,0.0539989,0.0330005,0.0720005,0.0570002
		c0.0149975,0.0239997,0.0239983,0.0539989,0.0269995,0.0839996s0,0.0629997-0.0150003,0.0960002
		C7.4350014,3.1360011,7.4140015,3.157001,7.3869991,3.1780009C7.3569984,3.1960011,7.3269978,3.2080016,7.2910004,3.2110014
		c-0.045001,0.0029998-0.0870008,0-0.1169987-0.0150003C7.144001,3.1810007,7.1169987,3.1599994,7.0930004,3.1270003
		C7.0749989,3.0999994,7.0600014,3.0609994,7.0570002,3.0219994z"/>
	<path class="st6" d="M6.5379992,2.9860005C6.5500011,3.0579996,6.5770006,3.1149998,6.6130009,3.151
		c0.0389986,0.039,0.0839996,0.0510006,0.131999,0.0449996c0.0510006-0.0089993,0.0899992-0.0360003,0.1140003-0.0809999
		c0.0300007-0.0479994,0.0360003-0.1079993,0.0240011-0.1859994C6.8740005,2.8809996,6.8649998,2.836,6.8439999,2.8029995
		C6.8260012,2.7669992,6.802,2.7429996,6.7719994,2.7279992C6.7419987,2.7100005,6.7120008,2.7039995,6.6760006,2.7100005
		c-0.045001,0.0059996-0.0870008,0.032999-0.1140003,0.0749989S6.526,2.8959999,6.5379992,2.9860005z M6.4689999,2.9949999
		C6.4539995,2.8930001,6.4659986,2.8150001,6.5050001,2.7490005c0.0360003-0.0599999,0.0899992-0.099,0.1589985-0.1080008
		c0.045001-0.0059996,0.0930004,0,0.131999,0.0239997c0.0389986,0.0209999,0.0749989,0.0510006,0.1020012,0.099
		c0.0270023,0.0420012,0.0419998,0.0960002,0.0540018,0.1560001c0.0090008,0.0599999,0.0059996,0.1140003-0.0059996,0.1680007
		C6.9339991,3.1389995,6.9100008,3.1810007,6.8740005,3.211C6.8380003,3.2410007,6.802,3.2589993,6.7570019,3.2650003
		c-0.0479994,0.0059996-0.0930004,0-0.131999-0.0239997c-0.0450039-0.0210013-0.0780029-0.0540004-0.1050024-0.099
		C6.4959993,3.0969996,6.4780006,3.0490003,6.4689999,2.9949999z"/>
	<path class="st6" d="M5.8659992,3.5079999L5.677,2.9290004l0.1679993-0.0510006
		c0.0389986-0.0150003,0.0689993-0.0209999,0.0899992-0.0209999c0.032999,0,0.0570002,0.0059996,0.0870008,0.0209999
		c0.0360003,0.0180001,0.0629997,0.0419998,0.0899992,0.0809999c0.0240011,0.0360003,0.0420027,0.0809999,0.0600014,0.1320004
		C6.1899986,3.1329999,6.1960011,3.1749997,6.1989994,3.211c0.0030012,0.0360003,0,0.0689993-0.0059996,0.0960002
		C6.1870003,3.3339996,6.1779995,3.3549995,6.1660004,3.3729997S6.1359997,3.4060001,6.118001,3.4179993
		C6.0970011,3.4329996,6.073,3.4450002,6.0429993,3.4539995L5.8659992,3.5079999z M5.9110003,3.4210005L6.0159998,3.388
		C6.0460005,3.3820004,6.073,3.3699999,6.0849991,3.3549995c0.0179987-0.0150003,0.0300007-0.0300007,0.0360003-0.0419998
		c0.0090008-0.0269995,0.012002-0.0509992,0.012002-0.0869994C6.1300001,3.1929998,6.1240005,3.1539998,6.1090002,3.112
		C6.0849991,3.052,6.0639992,3.0040007,6.0369997,2.9799995C6.006999,2.9499989,5.9830008,2.9379997,5.9530001,2.9349999
		c-0.0209999-0.0029998-0.0479994,0-0.0870008,0.0120006L5.7640009,2.9769998L5.9110003,3.4210005z"/>
	<path class="st7" d="M5.7700005,4.5489988l0.7740011,0.7559996v6.0360003c0,0.474,0.5159998,1.0050001,1.0319996,1.0050001
		h1.2900009c0.7740011,0,1.1610003,0.6269989,1.1610003,0.6269989s0.3900003-0.6390009,1.1610003-0.6269989l1.401,0.0209999
		c0.4050007,0.0059996,0.9210005-0.5219994,0.9210005-1.026V5.302l0.7740011-0.7559996H5.7700005V4.5489988z"/>
	<path class="st3" d="M5.7700005,4.5489988l0.7740011,0.7559996v6.0360003c0,0.474,0.5159998,1.0050001,1.0319996,1.0050001
		h1.2900009c0.7740011,0,1.1610003,0.6269989,1.1610003,0.6269989s0.3900003-0.6390009,1.1610003-0.6269989l1.401,0.0209999
		c0.4050007,0.0059996,0.9210005-0.5219994,0.9210005-1.026V5.302l0.7740011-0.7559996H5.7700005V4.5489988z"/>
	<polygon class="st2" points="10.6719999,4.5489988 10.6719999,8.0679998 13.5100002,8.0679998 13.5100002,5.302 
		14.2840014,4.5489988 	"/>
	<polygon class="st8" points="10.6719999,4.5489988 10.6719999,8.0679998 13.5100002,8.0679998 13.5100002,5.302 
		14.2840014,4.5489988 	"/>
	<polygon class="st1" points="5.7700005,4.5489988 9.381999,4.5489988 9.381999,8.0679998 6.5439987,8.0679998 6.5439987,5.302 	"/>
	<polygon class="st8" points="5.7700005,4.5489988 9.381999,4.5489988 9.381999,8.0679998 6.5439987,8.0679998 6.5439987,5.302 	"/>
	<path class="st2" d="M6.5439987,9.3249989h2.8410015v3.144001l-0.2580013-0.1259995H7.5760012
		c-0.5159998,0-1.0319996-0.5040007-1.0319996-1.0050001C6.5440016,11.3380003,6.5440016,9.3249989,6.5439987,9.3249989z"/>
	<path class="st8" d="M6.5439987,9.3249989h2.8410015v3.144001l-0.2580013-0.1259995H7.5760012
		c-0.5159998,0-1.0319996-0.5040007-1.0319996-1.0050001C6.5440016,11.3380003,6.5440016,9.3249989,6.5439987,9.3249989z"/>
	<path class="st1" d="M13.5100002,9.3249989h-2.8410015v3.144001L10.927,12.3430004h1.5479994
		c0.5159998,0,1.0319996-0.5040007,1.0319996-1.0050001V9.3249989H13.5100002z"/>
	<path class="st8" d="M13.5100002,9.3249989h-2.8410015v3.144001L10.927,12.3430004h1.5479994
		c0.5159998,0,1.0319996-0.5040007,1.0319996-1.0050001V9.3249989H13.5100002z"/>
	<path class="st3" d="M5.7700005,4.5489988l0.7740011,0.7559996v6.0360003c0,0.474,0.5159998,1.0050001,1.0319996,1.0050001
		h1.2900009c0.7740011,0,1.1610003,0.6269989,1.1610003,0.6269989s0.3900003-0.6390009,1.1610003-0.6269989l1.401,0.0209999
		c0.4050007,0.0059996,0.9210005-0.5219994,0.9210005-1.026V5.302l0.7740011-0.7559996H5.7700005V4.5489988z"/>
	<polygon class="st6" points="9.8979988,6.5589991 9.8979988,7.5670004 10.1560001,7.5670004 10.1560001,6.5589991 
		10.4139986,6.5589991 10.4139986,6.3070002 10.1560001,6.3070002 10.1560001,6.0579996 9.8979988,6.0579996 9.8979988,6.3070002 
		9.6400003,6.3070002 9.6400003,6.5589991 	"/>
	<polygon class="st9" points="9.8979988,6.5589991 9.8979988,7.5670004 10.1560001,7.5670004 10.1560001,6.5589991 
		10.4139986,6.5589991 10.4139986,6.3070002 10.1560001,6.3070002 10.1560001,6.0579996 9.8979988,6.0579996 9.8979988,6.3070002 
		9.6400003,6.3070002 9.6400003,6.5589991 	"/>
	<line class="st10" x1="10.1829996" y1="7.8070002" x2="8.1309996" y2="5.0949993"/>
	<polygon class="st6" points="8.0439987,5.1490011 7.8280001,4.6899986 8.2419987,5.0319996 	"/>
	<path class="st2" d="M9.2020006,7.1169987C9.1870003,7.1469994,8.9410009,8.1549978,8.9410009,8.1549978
		S9.756999,8.2719994,9.7419987,8.2299995c-0.0150003-0.045001-0.1080008-0.6899986-0.1529989-0.7349997
		C9.5410004,7.4439993,9.2199993,7.177,9.2020006,7.1169987z"/>
	<path class="st7" d="M8.5240011,6.427L8.3859997,7.7919998c0,0,0.9239988,0.8129997,0.9090014,0.704999
		C9.282999,8.3919992,9.2199993,7.1140003,9.2199993,7.1140003L8.5240011,6.427z"/>
	<path class="st1" d="M7.7530012,5.599l-0.045001,1.5030012c0,0,0.8160009,0.6600008,0.8160009,0.5999994
		s0.0780001-1.2149992,0.0780001-1.2149992L7.7530012,5.599z"/>
	<line class="st9" x1="7.7380009" y1="5.5839996" x2="7.6929998" y2="6.8620014"/>
	<line class="st10" x1="10.0660009" y1="7.8909998" x2="7.6540012" y2="5.4790001"/>
	<polygon class="st6" points="7.5760012,5.5419998 7.2969999,5.1159992 7.7530012,5.401 	"/>
	<path class="st7" d="M7.3179998,6.0579996v3.7740011c0,0.7559996,0.7679987,1.2960005,1.2900009,1.2600002
		c0.5219994-0.0360003,1.2900009-0.2519989,1.2900009-0.2519989V8.0679998L7.3179998,6.0579996z"/>
	<path class="st9" d="M7.3179998,6.0579996v3.7740011c0,0.7559996,0.7679987,1.2960005,1.2900009,1.2600002
		c0.5219994-0.0360003,1.2900009-0.2519989,1.2900009-0.2519989V8.0679998L7.3179998,6.0579996z"/>
	<path class="st2" d="M7.3179998,9.073v0.7559996c0,0.7559996,0.7679987,1.2960005,1.2900009,1.2600002
		c0.5219994-0.0360003,1.2900009-0.2519989,1.2900009-0.2519989C9.3820019,10.5850019,8.092001,11.3410015,8.092001,9.3280001
		C7.8339996,9.3249989,7.5760012,9.3249989,7.3179998,9.073z"/>
	<path class="st1" d="M8.1219988,6.6459999L8.0919981,8.8239994C7.8189993,8.7850008,7.5760012,8.6829996,7.3179998,8.5720005
		V6.0579996L8.1219988,6.6459999z"/>
	<path class="st2" d="M8.8330002,7.2669992v1.6829996c0,0,0.1829996-0.0300007,0.4919987,0.0899992
		s0.5849991,0.2399998,0.5849991,0.2399998V8.0620003L8.8330002,7.2669992z"/>
	<path class="st1" d="M9.8349991,9.8320007c0,0-0.5699987-0.2850008-0.7080002-0.3000011
		C8.9859991,9.5200005,8.8029995,9.5469999,8.8029995,9.5469999s-0.032999,0.2580013-0.0150003,0.407999
		c0.0150003,0.1500006,0.2490005,0.2249994,0.3239994,0.2249994s0.7230005-0.0749989,0.7230005-0.0749989V9.8320007
		L9.8349991,9.8320007z"/>
	<path class="st9" d="M7.3179998,6.0579996v3.7740011c0,0.7559996,0.7679987,1.2960005,1.2900009,1.2600002
		c0.5219994-0.0360003,1.2900009-0.2519989,1.2900009-0.2519989V8.0679998L7.3179998,6.0579996z"/>
	<line class="st10" x1="9.9279995" y1="8.0620003" x2="7.2459993" y2="5.9320002"/>
	<polygon class="st6" points="7.177,6.0040007 6.8499994,5.6109991 7.3389997,5.842001 	"/>
	<line class="st10" x1="9.9100008" y1="7.7650003" x2="11.9649992" y2="5.0529995"/>
	<polygon class="st6" points="12.0489988,5.1040001 12.2679987,4.6450005 11.8509989,4.9899998 	"/>
	<path class="st2" d="M10.894001,7.0720005c0.0150003,0.0300007,0.2609997,1.0379992,0.2609997,1.0379992
		s-0.8160009,0.1199999-0.8010006,0.0749989s0.1080008-0.6899986,0.1529989-0.7349997
		C10.552,7.4019995,10.8759995,7.131999,10.894001,7.0720005z"/>
	<path class="st7" d="M11.5689993,6.3790007l0.1379986,1.3649998c0,0-0.9239988,0.8100014-0.9060001,0.704999
		c0.0150003-0.1080008,0.0780001-1.3830013,0.0780001-1.3830013L11.5689993,6.3790007z"/>
	<path class="st1" d="M12.3399992,5.5570002l0.045001,1.5c0,0-0.8160009,0.6600008-0.8160009,0.6030006
		c0-0.0600014-0.0780001-1.2149992-0.0780001-1.2149992L12.3399992,5.5570002z"/>
	<line class="st9" x1="12.3549995" y1="5.5419998" x2="12.4029989" y2="6.8170004"/>
	<line class="st10" x1="10.0269995" y1="7.8459988" x2="12.4420004" y2="5.4310007"/>
	<polygon class="st6" points="12.5200005,5.5 12.7989988,5.0710011 12.3399992,5.355999 	"/>
	<path class="st7" d="M12.7750006,6.0100002v3.7740011c0,0.7559996-0.7679987,1.2960005-1.2900009,1.2600002
		c-0.5219994-0.0360003-1.2900009-0.2519989-1.2900009-0.2519989V8.0229988L12.7750006,6.0100002z"/>
	<path class="st9" d="M12.7750006,6.0100002v3.7740011c0,0.7559996-0.7679987,1.2960005-1.2900009,1.2600002
		c-0.5219994-0.0360003-1.2900009-0.2519989-1.2900009-0.2519989V8.0229988L12.7750006,6.0100002z"/>
	<path class="st2" d="M12.7750006,9.0279989v0.7559996c0,0.7559996-0.7679987,1.2960005-1.2900009,1.2600002
		c-0.5219994-0.0360003-1.2900009-0.2519989-1.2900009-0.2519989c0.5159998-0.2519989,1.8060007,0.5040007,1.8060007-1.5090008
		C12.2619991,9.2800007,12.5200005,9.2800007,12.7750006,9.0279989z"/>
	<path class="st1" d="M11.974,6.6009989l0.032999,2.1779995c0.2729988-0.0360003,0.5159998-0.1379986,0.7740011-0.2519989V6.0100002
		L11.974,6.6009989z"/>
	<path class="st2" d="M11.2600002,7.2220011v1.6829996c0,0-0.1829996-0.0300007-0.4919987,0.0899992
		s-0.5849991,0.2399998-0.5849991,0.2399998V8.0200005L11.2600002,7.2220011z"/>
	<path class="st1" d="M10.2580013,9.7900009c0,0,0.5699987-0.2850008,0.7080002-0.3000011s0.3239994,0.0150003,0.3239994,0.0150003
		S11.323,9.7600002,11.3050013,9.9100008c-0.0150003,0.1500006-0.2459993,0.2249994-0.3239994,0.2249994
		s-0.7230005-0.0749989-0.7230005-0.0749989V9.7900009z"/>
	<path class="st9" d="M12.7750006,6.0100002v3.7740011c0,0.7559996-0.7679987,1.2960005-1.2900009,1.2600002
		c-0.5219994-0.0360003-1.2900009-0.2519989-1.2900009-0.2519989V8.0229988L12.7750006,6.0100002z"/>
	<line class="st10" x1="10.1679993" y1="8.0200005" x2="12.8470011" y2="5.8840008"/>
	<polygon class="st6" points="12.9160004,5.9589996 13.243001,5.5660009 12.756999,5.7969999 	"/>
	<path class="st2" d="M10.4770012,10.6929998c0.0570002,0.0660009,0.276,0.3480005,0.3330002,0.2790012
		c0.0570002-0.0660009-0.1379986-0.5820007-0.2070007-0.8520012c-0.0689993-0.2669992-0.230999-0.573-0.243001-0.9869986
		s-0.2640009,0.045001-0.2640009,0.045001L10.4770012,10.6929998z"/>
	<path class="st9" d="M10.4770012,10.6929998c0.0570002,0.0660009,0.276,0.3480005,0.3330002,0.2790012
		c0.0570002-0.0660009-0.1379986-0.5820007-0.2070007-0.8520012c-0.0689993-0.2669992-0.230999-0.573-0.243001-0.9869986
		s-0.2640009,0.045001-0.2640009,0.045001L10.4770012,10.6929998z"/>
	<path class="st2" d="M10.2580013,11.5119991l0.4949999,0.0240011c0,0-0.1619997-0.651-0.2070007-1.0319996
		s-0.4620008-1.5269995-0.4620008-1.5269995L10.2580013,11.5119991z"/>
	<path class="st9" d="M10.2580013,11.5119991l0.4949999,0.0240011c0,0-0.1619997-0.651-0.2070007-1.0319996
		s-0.4620008-1.5269995-0.4620008-1.5269995L10.2580013,11.5119991z"/>
	<path class="st7" d="M9.901,8.8690004C9.8919992,8.8900003,9.1989994,9.967001,9.1989994,10.5279989
		c0,0.5610008,0.3239994,0.8969994,0.4379997,1.0770006s0.3929987,0.7530012,0.3929987,0.7530012
		s0.3330002-0.6269989,0.3690004-0.8759995s-0.1259995-1.2900009-0.0810013-1.6920004s0.3570013-1.355999,0.3570013-1.355999
		L9.901,8.8690004z"/>
	<path class="st9" d="M9.901,8.8690004C9.8919992,8.8900003,9.1989994,9.967001,9.1989994,10.5279989
		c0,0.5610008,0.3239994,0.8969994,0.4379997,1.0770006s0.3929987,0.7530012,0.3929987,0.7530012
		s0.3330002-0.6269989,0.3690004-0.8759995s-0.1259995-1.2900009-0.0810013-1.6920004s0.3570013-1.355999,0.3570013-1.355999
		L9.901,8.8690004z"/>
	<path class="st1" d="M9.901,8.8690004C9.8919992,8.8900003,9.1989994,9.967001,9.1989994,10.5279989
		c0,0.5610008,0.3239994,0.8969994,0.4379997,1.0770006c-0.0240011-0.3599997-0.0539989-0.6839991-0.0360003-1.1429987
		c0.0510006-1.1910009,0.8280001-1.8959999,0.8280001-1.8959999L9.901,8.8690004z"/>
	<path class="st2" d="M10.1800013,8.5539989c0,0.2010012-0.276,0.8070002-0.276,1.368001
		c0,0.2790012,0.1109991,0.9329996,0.144001,1.4730005c0.032999,0.5400009-0.0179987,0.9630003-0.0179987,0.9630003
		s0.3330002-0.6269989,0.3690004-0.8759995s-0.1259995-1.2900009-0.0810013-1.6920004s0.3570013-1.355999,0.3570013-1.355999
		L10.1800013,8.5539989z"/>
	<path class="st9" d="M9.901,8.8690004C9.8919992,8.8900003,9.1989994,9.967001,9.1989994,10.5279989
		c0,0.5610008,0.3239994,0.8969994,0.4379997,1.0770006s0.3929987,0.7530012,0.3929987,0.7530012
		s0.3330002-0.6269989,0.3690004-0.8759995s-0.1259995-1.2900009-0.0810013-1.6920004s0.3570013-1.355999,0.3570013-1.355999
		L9.901,8.8690004z"/>
	<path class="st2" d="M9.7989988,8.6199999C9.6369991,8.7550001,9.7509995,9.0699987,9.7509995,9.0699987
		s0.1140003-0.1350002,0.3330002-0.1230011s0.3570013,0.3360014,0.3570013,0.3360014s0.1379986-0.1020012,0.1619997-0.3149986
		C10.6269989,8.7550001,10.1679993,8.5209999,9.7989988,8.6199999z"/>
	<path class="st9" d="M9.7989988,8.6199999C9.6369991,8.7550001,9.7509995,9.0699987,9.7509995,9.0699987
		s0.1140003-0.1350002,0.3330002-0.1230011s0.3570013,0.3360014,0.3570013,0.3360014s0.1379986-0.1020012,0.1619997-0.3149986
		C10.6269989,8.7550001,10.1679993,8.5209999,9.7989988,8.6199999z"/>
	<path d="M9.3100014,7.7650003L9.7600002,8.920001c0,0,0.198-0.0870008,0.3270006-0.1290007
		c0.1259995-0.045001,0.2819996-0.0179987,0.2819996-0.0179987s0.2099991-0.1109991,0.3120003-0.1529989
		c0.1140003-0.0360003,0.3239994-0.0389986,0.3239994-0.0389986l0.032999-0.045001c0,0-1.5660009-0.894001-1.7039995-0.849
		L9.3100014,7.7650003z"/>
	<path class="st3" d="M9.3100014,7.7650003L9.7600002,8.920001c0,0,0.198-0.0870008,0.3270006-0.1290007
		c0.1259995-0.045001,0.2819996-0.0179987,0.2819996-0.0179987s0.2099991-0.1109991,0.3120003-0.1529989
		c0.1140003-0.0360003,0.3239994-0.0389986,0.3239994-0.0389986l0.032999-0.045001c0,0-1.5660009-0.894001-1.7039995-0.849
		L9.3100014,7.7650003z"/>
	<path class="st7" d="M9.3399992,7.6629992l0.4499989,1.1550007c0,0,0.198-0.0870008,0.3270006-0.1290007
		c0.1259995-0.045001,0.2819996-0.0179987,0.2819996-0.0179987s0.2099991-0.1109991,0.3120003-0.1500006
		c0.1140003-0.0360003,0.3239994-0.0389986,0.3239994-0.0389986l-0.4499989-1.2659998c0,0-0.1739988,0.0179987-0.3179998,0.0660009
		c-0.1080008,0.0389986-0.2700005,0.1889992-0.2700005,0.1889992C9.9160004,7.4649992,9.7779989,7.4499989,9.6400003,7.4949999
		C9.5080013,7.5460005,9.3909998,7.605999,9.3399992,7.6629992z"/>
	<path class="st3" d="M9.3399992,7.6629992l0.4499989,1.1550007c0,0,0.198-0.0870008,0.3270006-0.1290007
		c0.1259995-0.045001,0.2819996-0.0179987,0.2819996-0.0179987s0.2099991-0.1109991,0.3120003-0.1500006
		c0.1140003-0.0360003,0.3239994-0.0389986,0.3239994-0.0389986l-0.4499989-1.2659998c0,0-0.1739988,0.0179987-0.3179998,0.0660009
		c-0.1080008,0.0389986-0.2700005,0.1889992-0.2700005,0.1889992C9.9160004,7.4649992,9.7779989,7.4499989,9.6400003,7.4949999
		C9.5080013,7.5460005,9.3909998,7.605999,9.3399992,7.6629992z"/>
	<line class="st11" x1="9.9969988" y1="7.4709988" x2="10.4229994" y2="8.6710005"/>
	<path class="st11" d="M9.4090014,7.7409992C9.5590019,7.6179981,9.8170004,7.5460005,10.0300007,7.573"/>
	<path class="st11" d="M9.4570007,7.881999c0.1500006-0.1230011,0.407999-0.1949987,0.6209993-0.1679993"/>
	<path class="st11" d="M9.5019989,8.0350008c0.1500006-0.1230011,0.4080019-0.1950016,0.6210022-0.1650009"/>
	<path class="st11" d="M9.5469999,8.1939993C9.6970005,8.0709982,9.954999,7.9990005,10.1679993,8.026"/>
	<path class="st11" d="M9.6340008,8.3590002c0.1500006-0.1230011,0.407999-0.1949987,0.6209993-0.1679993"/>
	<path class="st11" d="M9.6760006,8.5150003c0.1500006-0.1230011,0.407999-0.1949987,0.6209993-0.1679993"/>
	<path class="st11" d="M9.7449999,8.6679993C9.8950005,8.5449982,10.1529989,8.4730005,10.3659992,8.5"/>
	<path class="st11" d="M10.045001,7.5760012c0.1290007-0.1409998,0.3599997-0.2370014,0.573-0.2399998"/>
	<path class="st11" d="M10.0870008,7.7530012c0.1290007-0.1409998,0.3599997-0.2399998,0.5760012-0.2399998"/>
	<path class="st11" d="M10.1259995,7.8759995c0.1290007-0.1409998,0.3599997-0.2370014,0.573-0.2399998"/>
	<path class="st11" d="M10.2010012,8.0379992c0.1290007-0.1409998,0.3599997-0.2399998,0.573-0.2399998"/>
	<path class="st11" d="M10.2370014,8.2030001c0.1290007-0.1409998,0.3599997-0.2370014,0.5760012-0.2399998"/>
	<path class="st11" d="M10.3120003,8.3439999c0.1290007-0.1409998,0.3599997-0.2370014,0.573-0.2399998"/>
	<path class="st11" d="M10.3690004,8.4940004c0.1290007-0.1409998,0.3599997-0.2399998,0.5760012-0.2399998"/>
	<path class="st3" d="M9.3399992,7.6629992l0.4499989,1.1550007c0,0,0.198-0.0870008,0.3270006-0.1290007
		c0.1259995-0.045001,0.2819996-0.0179987,0.2819996-0.0179987s0.2099991-0.1109991,0.3120003-0.1500006
		c0.1140003-0.0360003,0.3239994-0.0389986,0.3239994-0.0389986l-0.4499989-1.2659998c0,0-0.1739988,0.0179987-0.3179998,0.0660009
		c-0.1080008,0.0389986-0.2700005,0.1889992-0.2700005,0.1889992C9.9160004,7.4649992,9.7779989,7.4499989,9.6400003,7.4949999
		C9.5080013,7.5460005,9.3909998,7.605999,9.3399992,7.6629992z"/>
	<path class="st12" d="M8.5240011,15.6429987c0.0600014-0.0300007,0.7080002-0.420001,1.0469999-0.7199993
		c0.3389997-0.3000011,0.6479988-0.6899986,1.0169992-1.0500011c0.3690004-0.3599997,0.5550013-0.2700005,0.7409992-0.6899986
		c0.1829996-0.420001,0.0930004-0.5939999,0.0930004-1.0140009c0.1259995,0.0030012,0.177,0.131999,0.2519989,0.2790012
		c0.0360003,0.0749989,0.1949987-0.5040007,0.1889992-0.3330002c-0.0059996,0.1889992-0.0090008,0.6240005,0.0059996,0.6030006
		c0.0600014-0.0899992,0.3239994-0.6779995,0.3239994-0.6779995s-0.1230011,0.8100014-0.0930004,0.7199993
		C12.1329956,12.670001,12.4389963,12.25,12.4389963,12.25v0.5100002c0,0,0.2249994-0.3599997,0.276-0.6300001
		c0.0600014-0.0300007,0.1829996,0.3599997,0.2490005,0.2700005c0.0600014-0.0899992,0.1230011-0.6300001,0.2159986-0.5699987
		s0.1529989,0.329999,0.1529989,0.329999s-0.0600014-1.743001,0.032999-1.7099991
		c0.0930004,0.0300007,0.3089991,0.0899992,0.3089991,0.0899992V9.8800001c0,0,0.2490005,0.7800007,0.276,0.8699999
		c0.032999,0.0899992-0.032999-0.6300001-0.0930004-0.8100014s-0.1230011-0.5400009-0.1230011-0.5400009
		s0.3179998,0.4499989,0.3719988,0.5400009c0-0.0899992-0.2490005-0.8699999-0.3120003-0.8699999
		c-0.0600014,0-0.3389997,0.329999-0.276,0.3000011c0.0600014-0.0300007,0.2159986-0.6899986,0.3089991-0.6899986
		s0.276,0.4770012,0.243001,0.4229994l-0.1800013-1.026l0.2490005,0.4499989c0,0,0.0600014-0.2700005,0-0.420001
		s-0.0930004-0.3900003-0.0930004-0.3900003s0.1829996,0.2399998,0.1560001,0.1800013c-0.032999-0.0600014,0-0.5400009,0-0.5400009
		s0.1290007,0.2819996,0.1619997,0.3389997c0.032999,0.0600014,0.1469994,0.230999,0.1469994,0.230999V7.717001l0.1619997,0.1350002
		c0,0-0.3449993-0.7349997-0.5009995-0.7619991c-0.1529989-0.0300007-0.3690004,0.2399998-0.3690004,0.2399998
		s0.276-0.4799995,0.3690004-0.4799995h0.1230011l-0.0930004-0.5100002c0,0,0.6149998,0.8399992,0.5849991,0.7199993
		c-0.032999-0.1199999-0.276-0.6899986-0.3089991-0.9000006c-0.032999-0.2099991-0.1230011-0.5699987-0.1230011-0.5699987
		s0.2159986,0.3000011,0.276,0.3900003s0.2490005,0.4499989,0.2490005,0.3929987c0-0.0600014-0.032999-0.7530012-0.032999-0.7530012
		l0.3089991,0.6600008L15.4329882,5.5l0.1529989,0.7530012c0,0,0.1230011-0.3599997,0.1529989-0.5100002
		c0.032999-0.1500006,0.1230011-0.1500006,0.1230011-0.1500006s-0.032999,0.6300001-0.032999,0.6899986
		c0,0.0600014-0.0600014,0.3929987-0.0600014,0.3929987s0.276-0.5699987,0.3389997-0.6899986
		C16.1679878,5.8659992,16.4169846,5.776,16.4169846,5.776s-0.1230011,0.2700005-0.152998,0.3599997
		c-0.032999,0.0899992-0.3690004,0.7800007-0.3089991,0.7800007c0.0600004,0,0.3089991-0.3599997,0.4620008-0.3599997
		c0.1529999,0,0.4319992,0.3900003,0.3689995,0.420001c-0.0600014,0.0300007-0.3089981-0.1199999-0.3990002-0.1199999
		s-0.8310013,0.8100014-0.7080002,0.7800007s0.5550022-0.4859991,0.5550022-0.4859991s-0.1529999,0.3690004-0.0930023,0.3360014
		c0.0600014-0.0300007,0.5250015-0.3000011,0.5250015-0.3000011s-0.6779995,0.5999994-0.5849991,0.5999994
		s0.4620018-0.1800013,0.4620018-0.1800013l-0.4620018,0.5699987c0,0,0.3810005-0.2490005,0.5100002-0.2490005
		s0.3869991,0.099,0.3869991,0.099s-0.4620018,0.0300007-0.5250015,0.0600014
		C16.3929863,8.1160021,15.9279881,8.776,16.0539875,8.7160015c0.1230011-0.0600014,0.3690014-0.329999,0.3690014-0.329999
		L16.269989,8.7760029l0.6479988-0.3900003l-0.894001,0.9300013c0,0,0.6149998-0.4799995,0.7080002-0.4499989
		s0.5250015,0.5100002,0.5250015,0.5100002s-0.5550022-0.2700005-0.6150017-0.2700005
		c-0.0599976,0-0.8940001,1.0500011-0.7679977,0.9899998c0.1230011-0.0600014,0.552-0.3000011,0.6779995-0.3000011
		c0.1230011,0,0.3389988,0.5400009,0.2759991,0.5400009s-0.3389988-0.1500006-0.3990002-0.1500006
		s-0.7679987,0.420001-0.7679987,0.420001s0.5250006-0.0899992,0.6780005-0.1199999
		c0.152998-0.0300007,0.4619999,0,0.5849991-0.0600014c0.1230011-0.0600014,0.4619999-0.1800013,0.4619999-0.1800013
		s-0.3540001,0.2249994-0.5400009,0.375s-0.5069981,0.1949987-0.5069981,0.1949987l0.5849991,0.0600014
		c0,0-0.8010025,0.2490005-1.0019999,0.3239994c-0.1800013,0.0780001-0.3149986,0.1500006-0.4379997,0.2130003
		c0.0930004,0,0.5460005-0.0269995,0.6689997-0.0269995c0.1199989,0,0.7080002,0.0899992,0.7080002,0.0899992
		s-0.7709999,0.1199999-0.8640013,0.1199999c-0.0930004,0-0.2159986,0.0899992-0.2159986,0.0899992L16.61199,11.776
		l-0.5550022,0.0899992c0,0,0.3990021,0.144001,0.4920006,0.1739988c0.0929985,0.0300007,0.3689995,0.2189999,0.3689995,0.2189999
		s-0.7080002-0.1500006-0.8610001-0.1500006c-0.1559992,0-0.3929977,0.0360003-0.3929977,0.0360003
		s0.2700005,0.0150003,0.407999,0.0899992c0.1079998,0.045001,0.1379986,0.1109991,0.1379986,0.1109991l-0.3990011-0.0300007
		c0,0,0.276,0.2099991,0.3690004,0.2399998s0.1830006,0.1199999,0.1830006,0.1199999l-0.6150007-0.0600014l0.5250006,0.3900003
		c0,0-0.5550013-0.1199999-0.6479988-0.1199999h-0.0930004c0,0,0.276,0.2099991,0.3389997,0.3000011
		c0.0600014,0.0899992,0.1230011,0.2099991,0.1230011,0.2099991s-0.2490005-0.0600014-0.3690004-0.1199999
		c-0.1230011-0.0600014-0.3389997-0.0899992-0.3389997-0.0899992l0.276,0.3000011L15.099988,13.395997l0.2459993,0.3599997
		l-0.4620008-0.1500006c0,0,0.2159986,0.1199999,0.2159986,0.2099991s-0.0930004,0.5100002-0.1560001,0.4499989
		c-0.0600014-0.0600014-0.0930004-0.3000011-0.1529989-0.3900003c-0.0600014-0.0899992-0.1529989-0.1500006-0.1529989-0.1500006
		s-0.1800013-0.0839996-0.3179998-0.0899992c0.032999,0.0600014,0.3630009,0.2700005,0.407999,0.3360014l-0.5849991-0.0689993
		c0,0,0.5550013,0.2700005,0.4620008,0.2700005s-3.0510006-0.2399998-3.2340002-0.2399998s-1.0770006,1.0229988-1.2630014,1.1130009
		c-0.1829996,0.0899992-0.6149998,0.5999994-0.8010006,0.6300001c-0.1829996,0.0300007-0.4320002,0.1500006-0.4320002,0.1500006
		L8.5240011,15.6429987z"/>
	<path class="st13" d="M8.5240011,15.6429987c0.0600014-0.0300007,0.7080002-0.420001,1.0469999-0.7199993
		c0.3389997-0.3000011,0.6479988-0.6899986,1.0169992-1.0500011c0.3690004-0.3599997,0.5550013-0.2700005,0.7409992-0.6899986
		c0.1829996-0.420001,0.0930004-0.5939999,0.0930004-1.0140009c0.1259995,0.0030012,0.177,0.131999,0.2519989,0.2790012
		c0.0360003,0.0749989,0.1949987-0.5040007,0.1889992-0.3330002c-0.0059996,0.1889992-0.0090008,0.6240005,0.0059996,0.6030006
		c0.0600014-0.0899992,0.3239994-0.6779995,0.3239994-0.6779995s-0.1230011,0.8100014-0.0930004,0.7199993
		C12.1329956,12.670001,12.4389963,12.25,12.4389963,12.25v0.5100002c0,0,0.2249994-0.3599997,0.276-0.6300001
		c0.0600014-0.0300007,0.1829996,0.3599997,0.2490005,0.2700005c0.0600014-0.0899992,0.1230011-0.6300001,0.2159986-0.5699987
		s0.1529989,0.329999,0.1529989,0.329999s-0.0600014-1.743001,0.032999-1.7099991
		c0.0930004,0.0300007,0.3089991,0.0899992,0.3089991,0.0899992V9.8800001c0,0,0.2490005,0.7800007,0.276,0.8699999
		c0.032999,0.0899992-0.032999-0.6300001-0.0930004-0.8100014s-0.1230011-0.5400009-0.1230011-0.5400009
		s0.3179998,0.4499989,0.3719988,0.5400009c0-0.0899992-0.2490005-0.8699999-0.3120003-0.8699999
		c-0.0600014,0-0.3389997,0.329999-0.276,0.3000011c0.0600014-0.0300007,0.2159986-0.6899986,0.3089991-0.6899986
		s0.276,0.4770012,0.243001,0.4229994l-0.1800013-1.026l0.2490005,0.4499989c0,0,0.0600014-0.2700005,0-0.420001
		s-0.0930004-0.3900003-0.0930004-0.3900003s0.1829996,0.2399998,0.1560001,0.1800013c-0.032999-0.0600014,0-0.5400009,0-0.5400009
		s0.1290007,0.2819996,0.1619997,0.3389997c0.032999,0.0600014,0.1469994,0.230999,0.1469994,0.230999V7.717001l0.1619997,0.1350002
		c0,0-0.3449993-0.7349997-0.5009995-0.7619991c-0.1529989-0.0300007-0.3690004,0.2399998-0.3690004,0.2399998
		s0.276-0.4799995,0.3690004-0.4799995h0.1230011l-0.0930004-0.5100002c0,0,0.6149998,0.8399992,0.5849991,0.7199993
		c-0.032999-0.1199999-0.276-0.6899986-0.3089991-0.9000006c-0.032999-0.2099991-0.1230011-0.5699987-0.1230011-0.5699987
		s0.2159986,0.3000011,0.276,0.3900003s0.2490005,0.4499989,0.2490005,0.3929987c0-0.0600014-0.032999-0.7530012-0.032999-0.7530012
		l0.3089991,0.6600008L15.4329882,5.5l0.1529989,0.7530012c0,0,0.1230011-0.3599997,0.1529989-0.5100002
		c0.032999-0.1500006,0.1230011-0.1500006,0.1230011-0.1500006s-0.032999,0.6300001-0.032999,0.6899986
		c0,0.0600014-0.0600014,0.3929987-0.0600014,0.3929987s0.276-0.5699987,0.3389997-0.6899986
		C16.1679878,5.8659992,16.4169846,5.776,16.4169846,5.776s-0.1230011,0.2700005-0.152998,0.3599997
		c-0.032999,0.0899992-0.3690004,0.7800007-0.3089991,0.7800007c0.0600004,0,0.3089991-0.3599997,0.4620008-0.3599997
		c0.1529999,0,0.4319992,0.3900003,0.3689995,0.420001c-0.0600014,0.0300007-0.3089981-0.1199999-0.3990002-0.1199999
		s-0.8310013,0.8100014-0.7080002,0.7800007s0.5550022-0.4859991,0.5550022-0.4859991s-0.1529999,0.3690004-0.0930023,0.3360014
		c0.0600014-0.0300007,0.5250015-0.3000011,0.5250015-0.3000011s-0.6779995,0.5999994-0.5849991,0.5999994
		s0.4620018-0.1800013,0.4620018-0.1800013l-0.4620018,0.5699987c0,0,0.3810005-0.2490005,0.5100002-0.2490005
		s0.3869991,0.099,0.3869991,0.099s-0.4620018,0.0300007-0.5250015,0.0600014
		C16.3929863,8.1160021,15.9279881,8.776,16.0539875,8.7160015c0.1230011-0.0600014,0.3690014-0.329999,0.3690014-0.329999
		L16.269989,8.7760029l0.6479988-0.3900003l-0.894001,0.9300013c0,0,0.6149998-0.4799995,0.7080002-0.4499989
		s0.5250015,0.5100002,0.5250015,0.5100002s-0.5550022-0.2700005-0.6150017-0.2700005
		c-0.0599976,0-0.8940001,1.0500011-0.7679977,0.9899998c0.1230011-0.0600014,0.552-0.3000011,0.6779995-0.3000011
		c0.1230011,0,0.3389988,0.5400009,0.2759991,0.5400009s-0.3389988-0.1500006-0.3990002-0.1500006
		s-0.7679987,0.420001-0.7679987,0.420001s0.5250006-0.0899992,0.6780005-0.1199999
		c0.152998-0.0300007,0.4619999,0,0.5849991-0.0600014c0.1230011-0.0600014,0.4619999-0.1800013,0.4619999-0.1800013
		s-0.3540001,0.2249994-0.5400009,0.375s-0.5069981,0.1949987-0.5069981,0.1949987l0.5849991,0.0600014
		c0,0-0.8010025,0.2490005-1.0019999,0.3239994c-0.1800013,0.0780001-0.3149986,0.1500006-0.4379997,0.2130003
		c0.0930004,0,0.5460005-0.0269995,0.6689997-0.0269995c0.1199989,0,0.7080002,0.0899992,0.7080002,0.0899992
		s-0.7709999,0.1199999-0.8640013,0.1199999c-0.0930004,0-0.2159986,0.0899992-0.2159986,0.0899992L16.61199,11.776
		l-0.5550022,0.0899992c0,0,0.3990021,0.144001,0.4920006,0.1739988c0.0929985,0.0300007,0.3689995,0.2189999,0.3689995,0.2189999
		s-0.7080002-0.1500006-0.8610001-0.1500006c-0.1559992,0-0.3929977,0.0360003-0.3929977,0.0360003
		s0.2700005,0.0150003,0.407999,0.0899992c0.1079998,0.045001,0.1379986,0.1109991,0.1379986,0.1109991l-0.3990011-0.0300007
		c0,0,0.276,0.2099991,0.3690004,0.2399998s0.1830006,0.1199999,0.1830006,0.1199999l-0.6150007-0.0600014l0.5250006,0.3900003
		c0,0-0.5550013-0.1199999-0.6479988-0.1199999h-0.0930004c0,0,0.276,0.2099991,0.3389997,0.3000011
		c0.0600014,0.0899992,0.1230011,0.2099991,0.1230011,0.2099991s-0.2490005-0.0600014-0.3690004-0.1199999
		c-0.1230011-0.0600014-0.3389997-0.0899992-0.3389997-0.0899992l0.276,0.3000011L15.099988,13.395997l0.2459993,0.3599997
		l-0.4620008-0.1500006c0,0,0.2159986,0.1199999,0.2159986,0.2099991s-0.0930004,0.5100002-0.1560001,0.4499989
		c-0.0600014-0.0600014-0.0930004-0.3000011-0.1529989-0.3900003c-0.0600014-0.0899992-0.1529989-0.1500006-0.1529989-0.1500006
		s-0.1800013-0.0839996-0.3179998-0.0899992c0.032999,0.0600014,0.3630009,0.2700005,0.407999,0.3360014l-0.5849991-0.0689993
		c0,0,0.5550013,0.2700005,0.4620008,0.2700005s-3.0510006-0.2399998-3.2340002-0.2399998s-1.0770006,1.0229988-1.2630014,1.1130009
		c-0.1829996,0.0899992-0.6149998,0.5999994-0.8010006,0.6300001c-0.1829996,0.0300007-0.4320002,0.1500006-0.4320002,0.1500006
		L8.5240011,15.6429987z"/>
	<path class="st13" d="M11.3919992,13.4050007c0,0,0.3929987-0.4019995,0.4350014-0.5100002
		s0.0660009-0.1889992,0.0660009-0.1889992"/>
	<path class="st13" d="M11.5870008,13.4680004c0.3239994-0.2130003,0.5310001-0.7530012,0.5310001-0.7530012"/>
	<path class="st13" d="M12.1540012,13.2550001c0.1529989-0.1080008,0.2910004-0.5130014,0.2910004-0.5130014"/>
	<path class="st13" d="M12.2409992,13.4890003c0.5999994-0.4139986,0.5880003-1.1879997,0.5880003-1.1879997"/>
	<path class="st13" d="M12.6099997,13.506999c0.5880003-0.6479988,0.5760012-1.5599985,0.5760012-1.5599985"/>
	<path class="st13" d="M12.8050013,13.5939999c0.5009995-0.2640009,0.5009995-1.467001,0.5009995-1.5479994v-0.0870008"/>
	<path class="st13" d="M13.6240005,12.8199987c-0.0119991-0.6989994-0.2280006-1.2299995-0.2280006-1.2299995"/>
	<path class="st13" d="M13.7860003,12.5620003c0.0209999-0.795001-0.2819996-1.3050013-0.2819996-1.3050013"/>
	<path class="st13" d="M13.8520012,12.5109997c0.1829996-1.8060007-0.2189999-1.9649992-0.2189999-1.9649992"/>
	<path class="st13" d="M14.1130009,11.7490005c0.0660009-0.7619991-0.1529989-1.0410004-0.1529989-1.0410004"/>
	<path class="st13" d="M14.3620014,11.2390003c0.0749989-0.5610008-0.2729988-1.2960005-0.2729988-1.2960005"/>
	<path class="st13" d="M14.3950005,12.2230005c1.2629986-0.8280001,1.3380003-0.5400009,1.3380003-0.5400009"/>
	<path class="st13" d="M14.079999,12.8620014c1.3950005-0.9570007,1.644001-0.7230005,1.644001-0.7230005"/>
	<path class="st13" d="M14.8210011,12.5319996c0.9899998-0.0629997,0.948,0.1080008,0.948,0.1080008"/>
	<path class="st13" d="M14.4849997,13.0209999c0.782999-0.0510006,0.782999,0.1710005,0.782999,0.1710005"/>
	<path class="st13" d="M14.8449993,10.5040007c0.9599991-1.0949993,1.1429987-1.157999,1.1429987-1.157999"/>
	<path class="st13" d="M14.8089991,10.7679987c0.9720011-0.6359997,1.0770006-0.7230005,1.0770006-0.7230005"/>
	<path class="st13" d="M14.7130003,11.2900009c0.7080002-0.6899986,1.0140009-0.7230005,1.0140009-0.7230005"/>
	<path class="st13" d="M14.7130003,11.5870008c1.2209988-0.9570007,1.7309999-0.7619991,1.7309999-0.7619991"/>
	<path class="st13" d="M14.5389986,11.875c0.6419992-0.4139986,0.8730011-0.4139986,1.0019989-0.4680004"/>
	<path class="st13" d="M15.2230005,7.9780006c-0.230999-1.1340008-0.3719988-1.6049995-0.3719988-1.6049995"/>
	<path class="st13" d="M15.1269989,6.2709999c0.2399998,0.3599997,0.3179998,1.0200005,0.3060007,1.125
		c-0.0119991,0.1080008-0.1409998,0.605999-0.1409998,0.605999"/>
	<path class="st13" d="M15.4959993,6.0460005C15.4510012,6.6400003,15.526,6.7900009,15.526,6.7900009"/>
	<path class="st13" d="M15.4749994,7.3929987c0.1529989-0.2640009,0.3239994-0.8189993,0.3239994-0.8189993"/>
	<path class="st13" d="M15.9399986,6.8859997c-0.2399998,0.6269989-0.7080002,1.677-0.7199993,1.743001L15.2109985,8.689002"/>
	<path class="st13" d="M15.1479988,9.3160009c0.7080002-1.4040012,0.9360008-1.5810013,0.9360008-1.5810013"/>
	<path class="st13" d="M15.1810007,9.5290012c0.8160009-1.1340008,0.9239988-1.401,0.9239988-1.401"/>
	<path class="st13" d="M15.0400009,10.0360003c0.9239988-1.1789989,1.2750015-1.2960005,1.2750015-1.2960005"/>
	<path class="st13" d="M14.5720005,10.6750011c-0.1080008-1.0410004-0.5250006-1.6049995-0.5250006-1.6049995"/>
	<path class="st13" d="M14.125,8.5300007c0.4589996,0.7230005,0.5250006,1.6049995,0.5250006,1.6049995"/>
	<path class="st13" d="M14.1910009,7.881999c0.7080002,1.157999,0.5550013,1.8360014,0.5550013,1.8360014"/>
	<path class="st13" d="M14.4940004,7.927c0.6419992,1.2209988,0.3719988,2.1330013,0.3719988,2.1330013"/>
	<path class="st13" d="M14.6920004,7.8730011C15.052,8.7850008,15.0280018,9.2080002,15.0280018,9.2080002"/>
	<path class="st13" d="M14.2659998,6.8320007c1.0679998,0.9990005,0.8370008,1.5419998,0.8370008,1.5419998"/>
	<path class="st13" d="M14.0019989,12.4360008c0.3719988-0.8609991,0.4139986-0.9959993,0.4139986-0.9959993
		s-0.0870008,0.4890003-0.099,0.6359997c-0.0119991,0.1500006-0.1529989,0.5310001-0.1529989,0.5310001"/>
	<path class="st13" d="M13.2519989,13.2220011C13.9929981,13.0840025,14.776,13.5610008,14.776,13.5610008"/>
	<path class="st13" d="M13.1529989,13.4680004c0.7740011,0.0629997,1.1970005,0.1710005,1.1970005,0.1710005"/>
	<path class="st13" d="M13.4709988,12.9040012c0.4019995,0.0209999,1.5899992,0.4770012,1.5899992,0.4770012"/>
	<path class="st14" d="M11.7130003,12.4000006c0,0,0.0150003,0.2700005-0.045001,0.420001s-0.0930004,0.1949987-0.0930004,0.1949987
		"/>
	<path class="st12" d="M11.170001,15.8649998c-1.0109997-0.5009995-2.0880003-1.8929987-2.3249989-1.9499989
		c-0.2370014-0.0600014-2.6939993,0.3599997-2.670001,0.2910004c0.0239983-0.0660009,0.0689993-0.4260006,0.185998-0.6060019
		c0.1140003-0.1800013,0.4139986-0.3599997,0.3690004-0.3599997s-0.6689987,0.0240011-0.6689987,0.0240011
		s-0.276,0.3359985-0.3930016,0.3779984c-0.1140003,0.045001-0.6209993,0.0899992-0.7380009,0.1590014
		c-0.1140003,0.0660009-0.3239994,0.2669992-0.3239994,0.2669992s-0.045001-0.2490005-0.045001-0.3149986
		c0-0.0660009,0.0930004-0.2010012,0.0930004-0.2010012s-0.5760012,0.0240011-0.506999,0
		c0.0689993-0.0240011,0.0930004-0.1800013,0.1829996-0.2910004c0.0930004-0.1109991,0.2070007-0.2490005,0.3690004-0.2910004
		l0.3239994-0.0930004L4.75,12.7449999c0,0,0.276-0.1350002,0.3449993-0.1350002s0.3449993-0.0660009,0.3449993-0.0660009
		s-0.2070007-0.2249994-0.2070007-0.3149986s-0.2070007,0.3360014-0.3690004,0.3809996
		c-0.1619997,0.045001-0.4830008,0.0899992-0.6450005,0.0899992s-0.3930001,0.2490005-0.3930001,0.2490005
		s-0.0659966-0.2490005-0.0449967-0.3389997c0.0239997-0.0899992,0.1140003-0.1350002,0.1140003-0.1350002l-0.2520003,0.0240011
		c0,0,0.0689993-0.3360014,0.0930004-0.3809996s0.138-0.2490005,0.138-0.2490005s-0.1829996-0.1350002-0.2310004-0.2249994
		c-0.0449996-0.0899992-0.1140003-0.3149986-0.1140003-0.3149986h0.4829993c0.1140003,0,0.4139986,0.1350002,0.4139986,0.1350002
		s-0.1140003-0.1800013-0.1140003-0.2490005c0-0.0660009-0.0930004-0.2249994-0.045001-0.2249994
		c0.045001,0,0.3690004,0.2010012,0.3690004,0.2010012s-0.0930004-0.4260006-0.230999-0.5159998
		s-0.7589993-0.2010012-0.8729997-0.3599997c-0.1140003-0.1590014-0.276-0.717001-0.3239994-0.8520012
		C3.1630006,9.3310013,3.0250006,9.2650003,3.0250006,9.2650003H3.394001c0,0-0.0449996-0.2249994-0.0689993-0.3599997
		C3.3010006,8.7790012,3.3699999,8.5780001,3.3699999,8.5780001s0.1619997,0.2669992,0.2520003,0.2669992
		s0.2310004,0.1560001,0.2310004,0.1560001l0.0239997-0.1560001L4.1529989,9.204999c0,0,0.0240011-0.2490005,0.0689993-0.2910004
		c0.045001-0.045001,0.1619997-0.0899992,0.1619997-0.0899992s0.0240011,0.1560001,0.045001,0.2039995
		s0.1619997,0.3809996,0.1619997,0.4499989c0,0.0660009-0.045001,0.8070002-0.045001,0.8759995
		c0,0.0660009,0.276,0.5820007,0.276,0.5820007V10.395997c0-0.1350002-0.1619997-0.4260006-0.1379986-0.5400009
		C4.704999,9.7419958,4.7259989,9.5619974,4.7259989,9.5619974S4.8639975,9.810998,4.9089985,9.8289967
		c0.045001,0.0240011,0.1829996,0.2669992,0.1829996,0.2669992l0.1619997-0.2910004c0,0-0.3929987-0.3149986-0.4379997-0.4499989
		c-0.041997-0.1289978-0.0899992-0.4199953-0.0899992-0.4199953s-0.276-0.1350002-0.3689976-0.2250023
		C4.2669992,8.6199999,3.8980002,7.993001,3.8980002,7.993001h0.138c0,0-0.138-0.2910004-0.138-0.4260006
		s0.0239997-0.4019995,0.0239997-0.4019995S4.0600014,7.276,4.0810013,7.3210011S4.288002,7.387002,4.288002,7.387002
		S4.0119991,6.7840014,4.0119991,6.5350008s0.3690004-0.717001,0.3690004-0.717001l0.1829996,0.2910004l0.3690004-0.5400009
		c0,0,0.1619997,0.2490005,0.1619997,0.3149986v0.2910004c0,0,0.230999,0.0240011,0.276,0.0240011
		S5.532999,6.2889986,5.532999,6.2889986S5.3499994,6.3580008,5.2810001,6.4239988
		C5.2120008,6.493001,5.1400003,6.7840014,5.0710011,6.802C5.0019989,6.8260012,4.704999,7.0269995,4.6359997,7.0959988
		C4.5639992,7.1619997,4.4949999,7.5670004,4.4949999,7.5670004S4.7259989,7.8790007,4.75,7.993001
		c0.0240011,0.1109991,0.045001,0.4019995,0.045001,0.4019995s0.1169987,0.1350002,0.2069979,0.1140003
		c0.0930004-0.0240011,0.1860008-0.1590014,0.1619997-0.2490005s-0.276-0.3149986-0.3000011-0.4229994
		c-0.020997-0.111002,0.0240011-0.8520012,0.0240011-0.8520012L5.256999,7.1860008c0,0,0.2070007-0.2010012,0.2519989-0.3149986
		c0.0480022-0.111002,0.1170015-0.4260035,0.1170015-0.4260035l0.1619997,0.4680004c0,0,0.1140003-0.2010012,0.230999-0.2490005
		c0.1140003-0.0419998,0.3449993-0.1800013,0.3449993-0.1800013S6.2679987,6.7600002,6.2679987,6.802
		c0,0.045001,0.0240011,0.8280001-0.0240011,0.9179993C6.1989994,7.8129997,5.6020012,8.3740005,5.5570002,8.4189987
		c-0.0510006,0.045001-0.0510006,0.3810024-0.0510006,0.3810024l0.4379997-0.3809996c0,0,0.045001,0.2010012,0.0689993,0.3149986
		c0.0240011,0.1109991,0.0240011,0.2249994,0.0240011,0.2249994s0.230999-0.0660009,0.3000011-0.1109991
		c0.0689993-0.0479994,0.2069979,0.0419998,0.2069979,0.0419998S6.4749994,9.0699987,6.4300013,9.1120014
		C6.381999,9.1600008,6.2199993,9.5860014,6.151,9.6519995C6.0820007,9.7209988,5.6679993,9.8769989,5.6230011,9.9429998
		c-0.045001,0.0660009-0.3929987,0.4499989-0.4830008,0.5820007C5.0469999,10.6600008,5.0469999,10.927,5.0469999,10.927
		s0.1379986-0.4019995,0.2519989-0.4919987s0.3929987-0.4019995,0.3929987-0.4019995l0.0689993,0.3360014
		c0,0,0.2519989-0.1800013,0.3449993-0.2010012s0.5760012-0.1350002,0.5760012-0.1350002s-0.3209982,0.2669992-0.3209982,0.3359985
		c0,0.0660009-0.045001,0.4260006-0.1619997,0.5159998c-0.1140003,0.0899992-0.6689987,0.4260006-0.7139997,0.4499989
		c-0.045001,0.0240011-0.0930004,0.2010012-0.0930004,0.2669992c0,0.0660009,0.0689993,0.1590014,0.0689993,0.1590014
		s0.0689993-0.1590014,0.1619997-0.2490005s0.0689993-0.2910004,0.0689993-0.2910004s0.2070007,0.2010012,0.230999,0.2910004
		c0.0240011,0.0899992,0.045001,0.5610008,0.0240011,0.6750011c-0.0240011,0.1109991-0.045001,0.3809996,0,0.4499989
		c0.045001,0.0660009,0.2519989,0.2910004,0.3000011,0.2910004s-0.276-0.5849991-0.230999-0.8520012
		c0.045001-0.2669992,0.230999-0.4499989,0.276-0.5849991S6.3520012,11.224,6.3520012,11.224
		s0.2010012,0.2340002,0.243001,0.3389997c0.0629997-0.0959988,0.131999-0.1560001,0.2220011-0.2099991
		c0.0479994,0.0570002,0.1949987,0.4680004,0.230999,0.5849991C7.1260023,11.8179998,7.2280035,11.6829996,7.3150015,11.599
		c0.0870008,0.1230011,0.2130003,0.4589996,0.1800013,0.618001c-0.0660009,0.2070007-0.1679993,0.375-0.3060007,0.4649992
		c-0.1379986,0.0899992-0.2519989,0.1350002-0.2519989,0.1350002s0.3239994,0.1109991,0.4139986,0.1109991
		c0.0930004,0,0.230999,0.0660009,0.230999,0.0660009l-0.5070019,0.1560001c0,0,0.6209993,0.0660009,0.6209993,0.0240011
		s0-0.2910004-0.0689993-0.4260006s-0.0930004-0.2910004-0.0930004-0.2910004s0.2070007,0.0660009,0.3000011,0.0660009
		s0.2519989,0.0240011,0.2519989-0.0240011c0-0.0419998-0.1829996-0.4019995-0.1379986-0.4019995
		s0.6450005,0.5400009,0.6450005,0.4499989c0-0.0899992,0.2550001-0.5610008,0.2550001-0.5610008s0.2189999,0.407999,0.243001,0.474
		s0.0300007,0.243001,0.0300007,0.3990011s-0.1619997,0.3809996-0.1619997,0.3809996s0.3239994,0.4919987,0.5310001,0.6719999
		s0.7650003,0.9449987,1.355999,1.302c0.3060007,0.1829996,0.3239994,0.1800013,0.5760012,0.3149986L11.170001,15.8649998z"/>
	<path class="st15" d="M11.170001,15.8649998c-1.0109997-0.5009995-2.0880003-1.8929987-2.3249989-1.9499989
		c-0.2370014-0.0600014-2.6939993,0.3599997-2.670001,0.2910004c0.0239983-0.0660009,0.0689993-0.4260006,0.185998-0.6060019
		c0.1140003-0.1800013,0.4139986-0.3599997,0.3690004-0.3599997s-0.6689987,0.0240011-0.6689987,0.0240011
		s-0.276,0.3359985-0.3930016,0.3779984c-0.1140003,0.045001-0.6209993,0.0899992-0.7380009,0.1590014
		c-0.1140003,0.0660009-0.3239994,0.2669992-0.3239994,0.2669992s-0.045001-0.2490005-0.045001-0.3149986
		c0-0.0660009,0.0930004-0.2010012,0.0930004-0.2010012s-0.5760012,0.0240011-0.506999,0
		c0.0689993-0.0240011,0.0930004-0.1800013,0.1829996-0.2910004c0.0930004-0.1109991,0.2070007-0.2490005,0.3690004-0.2910004
		l0.3239994-0.0930004L4.75,12.7449999c0,0,0.276-0.1350002,0.3449993-0.1350002s0.3449993-0.0660009,0.3449993-0.0660009
		s-0.2070007-0.2249994-0.2070007-0.3149986s-0.2070007,0.3360014-0.3690004,0.3809996
		c-0.1619997,0.045001-0.4830008,0.0899992-0.6450005,0.0899992s-0.3930001,0.2490005-0.3930001,0.2490005
		s-0.0659966-0.2490005-0.0449967-0.3389997c0.0239997-0.0899992,0.1140003-0.1350002,0.1140003-0.1350002l-0.2520003,0.0240011
		c0,0,0.0689993-0.3360014,0.0930004-0.3809996s0.138-0.2490005,0.138-0.2490005s-0.1829996-0.1350002-0.2310004-0.2249994
		c-0.0449996-0.0899992-0.1140003-0.3149986-0.1140003-0.3149986h0.4829993c0.1140003,0,0.4139986,0.1350002,0.4139986,0.1350002
		s-0.1140003-0.1800013-0.1140003-0.2490005c0-0.0660009-0.0930004-0.2249994-0.045001-0.2249994
		c0.045001,0,0.3690004,0.2010012,0.3690004,0.2010012s-0.0930004-0.4260006-0.230999-0.5159998
		s-0.7589993-0.2010012-0.8729997-0.3599997c-0.1140003-0.1590014-0.276-0.717001-0.3239994-0.8520012
		C3.1630006,9.3310013,3.0250006,9.2650003,3.0250006,9.2650003H3.394001c0,0-0.0449996-0.2249994-0.0689993-0.3599997
		C3.3010006,8.7790012,3.3699999,8.5780001,3.3699999,8.5780001s0.1619997,0.2669992,0.2520003,0.2669992
		s0.2310004,0.1560001,0.2310004,0.1560001l0.0239997-0.1560001L4.1529989,9.204999c0,0,0.0240011-0.2490005,0.0689993-0.2910004
		c0.045001-0.045001,0.1619997-0.0899992,0.1619997-0.0899992s0.0240011,0.1560001,0.045001,0.2039995
		s0.1619997,0.3809996,0.1619997,0.4499989c0,0.0660009-0.045001,0.8070002-0.045001,0.8759995
		c0,0.0660009,0.276,0.5820007,0.276,0.5820007V10.395997c0-0.1350002-0.1619997-0.4260006-0.1379986-0.5400009
		C4.704999,9.7419958,4.7259989,9.5619974,4.7259989,9.5619974S4.8639975,9.810998,4.9089985,9.8289967
		c0.045001,0.0240011,0.1829996,0.2669992,0.1829996,0.2669992l0.1619997-0.2910004c0,0-0.3929987-0.3149986-0.4379997-0.4499989
		c-0.041997-0.1289978-0.0899992-0.4199953-0.0899992-0.4199953s-0.276-0.1350002-0.3689976-0.2250023
		C4.2669992,8.6199999,3.8980002,7.993001,3.8980002,7.993001h0.138c0,0-0.138-0.2910004-0.138-0.4260006
		s0.0239997-0.4019995,0.0239997-0.4019995S4.0600014,7.276,4.0810013,7.3210011S4.288002,7.387002,4.288002,7.387002
		S4.0119991,6.7840014,4.0119991,6.5350008s0.3690004-0.717001,0.3690004-0.717001l0.1829996,0.2910004l0.3690004-0.5400009
		c0,0,0.1619997,0.2490005,0.1619997,0.3149986v0.2910004c0,0,0.230999,0.0240011,0.276,0.0240011
		S5.532999,6.2889986,5.532999,6.2889986S5.3499994,6.3580008,5.2810001,6.4239988
		C5.2120008,6.493001,5.1400003,6.7840014,5.0710011,6.802C5.0019989,6.8260012,4.704999,7.0269995,4.6359997,7.0959988
		C4.5639992,7.1619997,4.4949999,7.5670004,4.4949999,7.5670004S4.7259989,7.8790007,4.75,7.993001
		c0.0240011,0.1109991,0.045001,0.4019995,0.045001,0.4019995s0.1169987,0.1350002,0.2069979,0.1140003
		c0.0930004-0.0240011,0.1860008-0.1590014,0.1619997-0.2490005s-0.276-0.3149986-0.3000011-0.4229994
		c-0.020997-0.111002,0.0240011-0.8520012,0.0240011-0.8520012L5.256999,7.1860008c0,0,0.2070007-0.2010012,0.2519989-0.3149986
		c0.0480022-0.111002,0.1170015-0.4260035,0.1170015-0.4260035l0.1619997,0.4680004c0,0,0.1140003-0.2010012,0.230999-0.2490005
		c0.1140003-0.0419998,0.3449993-0.1800013,0.3449993-0.1800013S6.2679987,6.7600002,6.2679987,6.802
		c0,0.045001,0.0240011,0.8280001-0.0240011,0.9179993C6.1989994,7.8129997,5.6020012,8.3740005,5.5570002,8.4189987
		c-0.0510006,0.045001-0.0510006,0.3810024-0.0510006,0.3810024l0.4379997-0.3809996c0,0,0.045001,0.2010012,0.0689993,0.3149986
		c0.0240011,0.1109991,0.0240011,0.2249994,0.0240011,0.2249994s0.230999-0.0660009,0.3000011-0.1109991
		c0.0689993-0.0479994,0.2069979,0.0419998,0.2069979,0.0419998S6.4749994,9.0699987,6.4300013,9.1120014
		C6.381999,9.1600008,6.2199993,9.5860014,6.151,9.6519995C6.0820007,9.7209988,5.6679993,9.8769989,5.6230011,9.9429998
		c-0.045001,0.0660009-0.3929987,0.4499989-0.4830008,0.5820007C5.0469999,10.6600008,5.0469999,10.927,5.0469999,10.927
		s0.1379986-0.4019995,0.2519989-0.4919987s0.3929987-0.4019995,0.3929987-0.4019995l0.0689993,0.3360014
		c0,0,0.2519989-0.1800013,0.3449993-0.2010012s0.5760012-0.1350002,0.5760012-0.1350002s-0.3209982,0.2669992-0.3209982,0.3359985
		c0,0.0660009-0.045001,0.4260006-0.1619997,0.5159998c-0.1140003,0.0899992-0.6689987,0.4260006-0.7139997,0.4499989
		c-0.045001,0.0240011-0.0930004,0.2010012-0.0930004,0.2669992c0,0.0660009,0.0689993,0.1590014,0.0689993,0.1590014
		s0.0689993-0.1590014,0.1619997-0.2490005s0.0689993-0.2910004,0.0689993-0.2910004s0.2070007,0.2010012,0.230999,0.2910004
		c0.0240011,0.0899992,0.045001,0.5610008,0.0240011,0.6750011c-0.0240011,0.1109991-0.045001,0.3809996,0,0.4499989
		c0.045001,0.0660009,0.2519989,0.2910004,0.3000011,0.2910004s-0.276-0.5849991-0.230999-0.8520012
		c0.045001-0.2669992,0.230999-0.4499989,0.276-0.5849991S6.3520012,11.224,6.3520012,11.224
		s0.2010012,0.2340002,0.243001,0.3389997c0.0629997-0.0959988,0.131999-0.1560001,0.2220011-0.2099991
		c0.0479994,0.0570002,0.1949987,0.4680004,0.230999,0.5849991C7.1260023,11.8179998,7.2280035,11.6829996,7.3150015,11.599
		c0.0870008,0.1230011,0.2130003,0.4589996,0.1800013,0.618001c-0.0660009,0.2070007-0.1679993,0.375-0.3060007,0.4649992
		c-0.1379986,0.0899992-0.2519989,0.1350002-0.2519989,0.1350002s0.3239994,0.1109991,0.4139986,0.1109991
		c0.0930004,0,0.230999,0.0660009,0.230999,0.0660009l-0.5070019,0.1560001c0,0,0.6209993,0.0660009,0.6209993,0.0240011
		s0-0.2910004-0.0689993-0.4260006s-0.0930004-0.2910004-0.0930004-0.2910004s0.2070007,0.0660009,0.3000011,0.0660009
		s0.2519989,0.0240011,0.2519989-0.0240011c0-0.0419998-0.1829996-0.4019995-0.1379986-0.4019995
		s0.6450005,0.5400009,0.6450005,0.4499989c0-0.0899992,0.2550001-0.5610008,0.2550001-0.5610008s0.2189999,0.407999,0.243001,0.474
		s0.0300007,0.243001,0.0300007,0.3990011s-0.1619997,0.3809996-0.1619997,0.3809996s0.3239994,0.4919987,0.5310001,0.6719999
		s0.7650003,0.9449987,1.355999,1.302c0.3060007,0.1829996,0.3239994,0.1800013,0.5760012,0.3149986L11.170001,15.8649998z"/>
	<path class="st15" d="M3.8289995,12.3220005c0.1619997-0.1800013,0.3449993-0.1109991,0.4830008-0.1800013
		c0.1379986-0.0660009,0.3929987-0.2010012,0.3929987-0.2010012"/>
	<path class="st15" d="M5.0949993,11.6469994c-0.276,0.1800013-0.506999,0.605999-0.6209993,0.6750011
		c-0.1140003,0.0660009-0.4139986,0.1350002-0.4139986,0.1350002"/>
	<path class="st15" d="M4.1290007,12.5649986c0,0,0.3929987-0.0240011,0.4830008-0.1109991
		c0.0930004-0.0899992,0.2519989-0.2010012,0.2519989-0.2010012"/>
	<line class="st15" x1="5.7609997" y1="11.6230011" x2="5.7609997" y2="12.0310001"/>
	<path class="st15" d="M4.5429993,13.375c0.4139986-0.045001,0.9449987-0.1800013,0.9000006-0.1800013"/>
	<path class="st15" d="M4.9119997,13.6209993c0.4620008,0.0240011,0.9000006-0.4499989,0.9000006-0.4499989"/>
	<path class="st15" d="M5.0710011,12.9489994c0.552,0.3149986,1.8389997,0.1109991,1.8389997,0.1109991"/>
	<path class="st15" d="M6.5679998,11.9169998c-0.045001,0.8759995-0.0930004,0.8759995-0.0930004,0.8759995"/>
	<path class="st15" d="M6.2919998,12.3879986c0.0240011-0.2490005,0.045001-0.3360014,0.045001-0.3360014"/>
	<path class="st15" d="M6.4060001,11.6049995c0,0.045001-0.0240011,0.3149986-0.0240011,0.3149986"/>
	<path class="st15" d="M6.7960005,12.6340008c0.1140003-0.2249994,0.1140003-0.4260006,0.1140003-0.4260006"/>
	<line class="st15" x1="6.7750006" y1="12.0970011" x2="6.7509995" y2="12.2530012"/>
	<path class="st15" d="M7.1650009,12.2530012c-0.0930004,0.2249994-0.1379986,0.2249994-0.1379986,0.2249994"/>
	<path class="st15" d="M7.5999994,12.5469999c0.276,0.1350002,0.7139997,0.5610008,0.7139997,0.5610008"/>
	<path class="st15" d="M8.1309996,12.5229988c0.230999,0.1350002,0.4379997,0.4260006,0.4379997,0.4260006"/>
	<path class="st15" d="M8.5930004,12.6130009c0.3000011,0.3149986,0.0689993,0.6929998,0.0689993,0.6929998"/>
	<line class="st15" x1="8.9139986" y1="12.3399992" x2="8.8449993" y2="12.8800001"/>
	<path class="st15" d="M3.1179996,9.3609991C3.441999,9.4509983,3.5109997,9.6519995,3.579999,9.7419987
		s0.0239997,0.2249994,0.1140003,0.3360014c0.0930004,0.1109991,0.2520003,0.2490005,0.2520003,0.2490005"/>
	<path class="st15" d="M3.3939996,9.3160009c0.5999994,0.045001,0.414,0.5159998,0.4619994,0.5820007
		s0.138,0.3599997,0.230999,0.4019995c0.0930004,0.045001,0.1140003,0,0.1829996,0.0899992s0.1619997,0.2910004,0.1619997,0.2910004
		"/>
	<path class="st15" d="M3.3699999,8.8690004c0,0,0.0449996,0.0240011,0.1829996,0.1800013
		c0.138,0.1590014,0.0900006,0.2910004,0.0900006,0.2910004"/>
	<path class="st15" d="M3.9879994,9.1120014C3.8740005,9.427,4.0810013,9.7869997,4.0810013,9.7869997"/>
	<path class="st15" d="M4.1739988,9.2259989C4.4499989,9.427,4.243001,9.8289995,4.243001,9.8289995"/>
	<line class="st15" x1="4.2189999" y1="10.0360003" x2="4.198" y2="10.3690004"/>
	<path class="st15" d="M4.9570007,9.0460005c0.1829996,0.0899992,0.2070007,0.3360014,0.2070007,0.3360014"/>
	<path class="st15" d="M5.6679993,10.1230011c0,0-0.1619997,0.4499989-0.276,0.605999
		c-0.1140003,0.1590014-0.1140003,0.1800013-0.1140003,0.1800013"/>
	<path class="st15" d="M5.2330008,11.3800001c0.1619997-0.5400009,0.4379997-0.6269989,0.4379997-0.6269989"/>
	<path class="st15" d="M5.5059996,10.9539995c0.4830008-0.1800013,0.8520012-0.7619991,0.8520012-0.7619991"/>
	<path class="st15" d="M3.8740005,11.9620008c0.506999-0.2910004,0.506999-0.1350002,0.7349997-0.2010012
		c0.230999-0.0660009,0.3449993-0.2249994,0.3449993-0.2249994"/>
	<path class="st15" d="M3.6010003,11.4909992c0.3239994-0.0660009,0.8069987,0.2010012,0.8069987,0.2010012"/>
	<path class="st15" d="M4.3120003,11.1550007c0.4139986,0.0419998,0.506999,0.3809996,0.506999,0.3809996"/>
	<path class="st15" d="M4.8430004,12.8139992c0.8039989-0.0660009,0.8280001,0.0660009,0.8280001,0.0660009"/>
	<path class="st15" d="M5.4639997,12.1390009c-0.0240011-0.2910004-0.0240011-0.3599997-0.0240011-0.3599997"/>
	<path class="st15" d="M5.256999,10.3029995c0.3449993-0.605999,0.7110014-0.9659986,0.7110014-0.9659986"/>
	<path class="st15" d="M5.9229994,9.5620003c0.1829996-0.1350002,0.552-0.6750011,0.552-0.6750011"/>
	<path class="st15" d="M5.3950005,9.5379992c-0.045001-0.782999-0.1379986-0.8759995,0-1.1190004
		C5.532999,8.170001,5.8330002,7.993001,5.8780012,7.8580008c0.0479994-0.1350002,0.1619997-0.3599997,0.1619997-0.6300001
		s0.230999-0.4919987,0.230999-0.4919987"/>
	<path class="st15" d="M5.8060007,6.9399986c0.2069979,0.894001-0.5070019,1.2300024-0.552,1.4100008
		C5.2120008,8.5300007,5.3499994,9.0699987,5.3499994,9.0699987"/>
	<path class="st15" d="M3.9190001,8.0379992c0.414,0.2910004,0.7379994,0.605999,0.7379994,0.605999"/>
	<path class="st15" d="M4.0810013,8.0620003c0.0689993,0,0.2519989,0.1350002,0.3929987,0.1800013
		c0.1379986,0.045001,0.3239994,0.1350002,0.3239994,0.1350002"/>
	<path class="st15" d="M3.9429998,7.2519989c0.0449996,0.3150015,0.4140015,0.4920015,0.506999,0.6270018
		c0.0930004,0.1350002,0.0689993,0.2490005,0.0689993,0.2490005"/>
	<line class="st15" x1="5.256999" y1="12.2530012" x2="5.256999" y2="11.9379997"/>
	<path class="st15" d="M5.2120008,8.0169992c-0.0240011-0.3599997,0.045001-0.8280001,0.045001-0.8280001"/>
	<path class="st15" d="M5.6020012,7.0510006c0,0.4499989-0.1829996,0.8280001-0.1829996,0.8280001"/>
	<path class="st15" d="M5.2120008,7.8580008C5.0949993,7.5880003,5.1190004,7.5429993,5.0710011,7.3659992
		S4.980999,7.1409998,4.980999,7.1409998"/>
	<path class="st15" d="M4.474,7.3869991c0.0209999-0.651,0.2519989-0.7169981,0.2070007-0.9179993
		c-0.045001-0.2010012-0.0930004-0.3149986-0.0930004-0.3149986"/>
	<path class="st15" d="M5.1190004,6.1750011C4.8640003,6.2889986,4.6810007,6.579999,4.6810007,6.579999"/>
	<path class="st15" d="M4.5880003,7.0749989c0.1379986-0.3149986,0.276-0.5159998,0.4139986-0.6300001
		s0.3239994-0.0660009,0.3239994-0.0660009"/>
	<path class="st15" d="M4.3570013,6.1750011C4.3360014,6.3790007,4.4260006,6.6009989,4.4260006,6.6009989"/>
	<path class="st15" d="M4.6569996,6.4000006c0.1829996-0.2910004,0.230999-0.7409992,0.230999-0.7409992"/>
	<path class="st15" d="M5.6230011,9.5620003c0.0449982-0.4680004,0.3209982-1.0319996,0.3209982-1.0319996"/>
	<ellipse class="st16" cx="4.3360014" cy="7.3389997" rx="0.1469994" ry="0.1679993"/>
	<ellipse class="st15" cx="4.3360014" cy="7.3389997" rx="0.1469994" ry="0.1679993"/>
	<ellipse class="st16" cx="4.5760012" cy="7.5789995" rx="0.1469994" ry="0.1679993"/>
	<ellipse class="st15" cx="4.5760012" cy="7.5789995" rx="0.1469994" ry="0.1679993"/>
	<ellipse class="st16" cx="5.1309996" cy="8.7669992" rx="0.1469994" ry="0.1679993"/>
	<ellipse class="st15" cx="5.1309996" cy="8.7669992" rx="0.1469994" ry="0.1679993"/>
	<ellipse class="st16" cx="5.4250011" cy="8.9410009" rx="0.1469994" ry="0.1679993"/>
	<ellipse class="st15" cx="5.4250011" cy="8.9410009" rx="0.1469994" ry="0.1679993"/>
	<ellipse class="st16" cx="4.3480005" cy="10.6839991" rx="0.1469994" ry="0.1679993"/>
	<ellipse class="st15" cx="4.3480005" cy="10.6839991" rx="0.1469994" ry="0.1679993"/>
	<ellipse class="st16" cx="5.0679998" cy="11.0469999" rx="0.1469994" ry="0.1679993"/>
	<ellipse class="st15" cx="5.0679998" cy="11.0469999" rx="0.1469994" ry="0.1679993"/>
	<ellipse class="st16" cx="5.4909992" cy="12.4780006" rx="0.1469994" ry="0.1679993"/>
	<ellipse class="st15" cx="5.4909992" cy="12.4780006" rx="0.1469994" ry="0.1679993"/>
	<ellipse class="st16" cx="6.2530012" cy="12.8709993" rx="0.1469994" ry="0.1679993"/>
	<ellipse class="st15" cx="6.2530012" cy="12.8709993" rx="0.1469994" ry="0.1679993"/>
	<ellipse class="st16" cx="6.6459999" cy="12.855999" rx="0.1469994" ry="0.1679993"/>
	<ellipse class="st15" cx="6.6459999" cy="12.855999" rx="0.1469994" ry="0.1679993"/>
	<ellipse class="st16" cx="7.849" cy="13.1259995" rx="0.1469994" ry="0.1679993"/>
	<ellipse class="st15" cx="7.849" cy="13.1259995" rx="0.1469994" ry="0.1679993"/>
	<path class="st9" d="M16.519001,15.4329996c-0.1829987-0.3000011-0.3089981-0.329999-0.3089981-0.329999"/>
	<path class="st9" d="M16.4560013,15.5379992c-0.1829987-0.3000011-0.3089981-0.329999-0.3089981-0.329999"/>
	<path class="st9" d="M16.3659992,15.6280012c-0.1830006-0.3000011-0.309-0.329999-0.309-0.329999"/>
	<path class="st9" d="M16.3029995,15.7299995c-0.1830006-0.3000011-0.3089991-0.329999-0.3089991-0.329999"/>
	<path class="st9" d="M16.2130013,15.8079996c-0.1830006-0.3000011-0.309-0.329999-0.309-0.329999"/>
	<path class="st9" d="M16.1500015,15.9129992c-0.1830006-0.3000011-0.309-0.329999-0.309-0.329999"/>
	<path class="st9" d="M16.0569992,15.9880009c-0.1829987-0.3000011-0.3089981-0.329999-0.3089981-0.329999"/>
	<path class="st9" d="M15.9969988,16.0930004c-0.1829996-0.3000011-0.3089991-0.329999-0.3089991-0.329999"/>
	<path class="st9" d="M15.9189987,16.1679993c-0.1829996-0.3000011-0.3089991-0.329999-0.3089991-0.329999"/>
	<path class="st17" d="M16.3180008,15.1779995c-0.4470015-0.4350014-1.0019999-0.2850008-1.2480021-0.3149986
		c-0.1469994-0.1350002-0.4560013-0.2969999-0.6839991-0.2010012c-0.230999,0.0959988-0.3630009,0.5849991-0.3630009,0.651
		c0,0.1350002,0.2459993,0.2399998,0.4470005,0.2550001s0.6629992,0.0150003,0.8160009,0.0300007
		c0.1560001,0.0150003,0.3690004,0.2700005,0.3690004,0.2700005S16.1020012,15.295001,16.3180008,15.1779995z"/>
	<path class="st9" d="M16.3180008,15.1779995c-0.4470015-0.4350014-1.0019999-0.2850008-1.2480021-0.3149986
		c-0.1469994-0.1350002-0.4560013-0.2969999-0.6839991-0.2010012c-0.230999,0.0959988-0.3630009,0.5849991-0.3630009,0.651
		c0,0.1350002,0.2459993,0.2399998,0.4470005,0.2550001s0.6629992,0.0150003,0.8160009,0.0300007
		c0.1560001,0.0150003,0.3690004,0.2700005,0.3690004,0.2700005S16.1020012,15.295001,16.3180008,15.1779995z"/>
	<path class="st17" d="M15.0250006,15.1479988c0-0.2249994-0.1500006-0.3449993-0.2939987-0.3149986
		c-0.1949987,0.0419998-0.9570007,0.3719988-1.2480011,0.3900003c-0.2609997,0.0150003-0.7080002-0.2550001-0.7080002-0.420001
		s0.6479988-0.3900003,0.6479988-0.3900003l0.4470005,0.1350002c0,0,0.5699987-0.2700005,0.9060001-0.2700005
		c0.3389997,0,0.5400009,0.2099991,0.5250006,0.375C15.2889986,14.8179998,15.0250006,15.1779995,15.0250006,15.1479988z"/>
	<path class="st9" d="M15.0250006,15.1479988c0-0.2249994-0.1500006-0.3449993-0.2939987-0.3149986
		c-0.1949987,0.0419998-0.9570007,0.3719988-1.2480011,0.3900003c-0.2609997,0.0150003-0.7080002-0.2550001-0.7080002-0.420001
		s0.6479988-0.3900003,0.6479988-0.3900003l0.4470005,0.1350002c0,0,0.5699987-0.2700005,0.9060001-0.2700005
		c0.3389997,0,0.5400009,0.2099991,0.5250006,0.375C15.2889986,14.8179998,15.0250006,15.1779995,15.0250006,15.1479988z"/>
	<path class="st9" d="M15.0579996,15.0579996c-0.0150003,0.1500006-0.1230011,0.2399998-0.3540001,0.2249994
		s-0.4620008-0.0899992-0.5250006-0.0899992c-0.0600014,0-0.1529989,0.1049995-0.1529989,0.1049995"/>
	<path class="st9" d="M3.5200005,15.4329996c0.1829996-0.3000011,0.3090005-0.329999,0.3090005-0.329999"/>
	<path class="st9" d="M3.5800004,15.5379992c0.1829996-0.3000011,0.3090005-0.329999,0.3090005-0.329999"/>
	<path class="st9" d="M3.6729994,15.6280012c0.1829996-0.3000011,0.3090005-0.329999,0.3090005-0.329999"/>
	<path class="st9" d="M3.7360005,15.7299995c0.1829996-0.3000011,0.3090005-0.329999,0.3090005-0.329999"/>
	<path class="st9" d="M3.8289995,15.8079996c0.1829996-0.3000011,0.3089991-0.329999,0.3089991-0.329999"/>
	<path class="st9" d="M3.8889995,15.9129992C4.0720005,15.612998,4.198,15.5830002,4.198,15.5830002"/>
	<path class="st9" d="M3.9819999,15.9880009c0.183001-0.3000011,0.3090005-0.329999,0.3090005-0.329999"/>
	<path class="st9" d="M4.045001,16.0930004c0.1829996-0.3000011,0.3089991-0.329999,0.3089991-0.329999"/>
	<path class="st9" d="M4.1199999,16.1679993c0.1829996-0.3000011,0.3089991-0.329999,0.3089991-0.329999"/>
	<path class="st17" d="M3.7180004,15.1779995c0.4470005-0.4350014,1.0019989-0.2850008,1.2480011-0.3149986
		c0.1469994-0.1350002,0.4560013-0.2969999,0.6839991-0.2010012c0.230999,0.0959988,0.3630009,0.5849991,0.3630009,0.651
		c0,0.1350002-0.2490005,0.2399998-0.4470005,0.2550001C5.3649998,15.5830002,4.9030018,15.5830002,4.75,15.5980005
		c-0.1529989,0.0150003-0.3690004,0.2700005-0.3690004,0.2700005S3.9340005,15.295001,3.7180004,15.1779995z"/>
	<path class="st9" d="M3.7180004,15.1779995c0.4470005-0.4350014,1.0019989-0.2850008,1.2480011-0.3149986
		c0.1469994-0.1350002,0.4560013-0.2969999,0.6839991-0.2010012c0.230999,0.0959988,0.3630009,0.5849991,0.3630009,0.651
		c0,0.1350002-0.2490005,0.2399998-0.4470005,0.2550001C5.3649998,15.5830002,4.9030018,15.5830002,4.75,15.5980005
		c-0.1529989,0.0150003-0.3690004,0.2700005-0.3690004,0.2700005S3.9340005,15.295001,3.7180004,15.1779995z"/>
	<path class="st17" d="M5.0140009,15.1479988c0-0.2249994,0.1500006-0.3449993,0.2939987-0.3149986
		C5.5029984,14.875,6.2650003,15.204999,6.5560007,15.2230005c0.2609997,0.0150003,0.7080002-0.2550001,0.7080002-0.420001
		s-0.6479988-0.3900003-0.6479988-0.3900003l-0.4470005,0.1350002c0,0-0.5699987-0.2700005-0.9090014-0.2700005
		c-0.3389997,0-0.5400009,0.2099991-0.5250006,0.375C4.7530012,14.8179998,5.0140009,15.1779995,5.0140009,15.1479988z"/>
	<path class="st9" d="M5.0140009,15.1479988c0-0.2249994,0.1500006-0.3449993,0.2939987-0.3149986
		C5.5029984,14.875,6.2650003,15.204999,6.5560007,15.2230005c0.2609997,0.0150003,0.7080002-0.2550001,0.7080002-0.420001
		s-0.6479988-0.3900003-0.6479988-0.3900003l-0.4470005,0.1350002c0,0-0.5699987-0.2700005-0.9090014-0.2700005
		c-0.3389997,0-0.5400009,0.2099991-0.5250006,0.375C4.7530012,14.8179998,5.0140009,15.1779995,5.0140009,15.1479988z"/>
	<path class="st9" d="M4.9840002,15.0579996c0.0150003,0.1500006,0.1230011,0.2399998,0.3540001,0.2249994
		s0.4620008-0.0899992,0.5250006-0.0899992s0.1560001,0.1049995,0.1560001,0.1049995"/>
	<path class="st17" d="M10.0810013,13.2850008c-3.0180016-0.0689993-4.2509995,0.5100002-4.2659998,0.9300013
		s0.3690004,0.7530012,0.5699987,0.7530012s0.7020006-0.2580013,0.6839991-0.3630009
		C6.9909992,14.5600014,6.9790001,14.5,7.0300007,14.4730005c0.0629997-0.0360003,1.1550007-0.2550001,3.0629997-0.2550001
		s2.9880009,0.1920004,3.0030012,0.2550001c0.0179987,0.0780001-0.1409998,0.1199999-0.2399998,0.230999
		c0.4229994-0.0419998,0.5340014,0.2220011,0.7349997,0.2370014c0.2010012,0.0150003,0.5849991-0.2700005,0.6030006-0.6899986
		C14.2089996,13.8100014,12.9310007,13.3480005,10.0810013,13.2850008z"/>
	<path class="st9" d="M10.0810013,13.2850008c-3.0180016-0.0689993-4.2509995,0.5100002-4.2659998,0.9300013
		s0.3690004,0.7530012,0.5699987,0.7530012s0.7020006-0.2580013,0.6839991-0.3630009
		C6.9909992,14.5600014,6.9790001,14.5,7.0300007,14.4730005c0.0629997-0.0360003,1.1550007-0.2550001,3.0629997-0.2550001
		s2.9880009,0.1920004,3.0030012,0.2550001c0.0179987,0.0780001-0.1409998,0.1199999-0.2399998,0.230999
		c0.4229994-0.0419998,0.5340014,0.2220011,0.7349997,0.2370014c0.2010012,0.0150003,0.5849991-0.2700005,0.6030006-0.6899986
		C14.2089996,13.8100014,12.9310007,13.3480005,10.0810013,13.2850008z"/>
	<polygon class="st6" points="6.8110008,14.2989988 6.6490011,13.8280001 6.9279995,13.7349997 6.9429998,13.7889986 
		6.7180004,13.8640003 6.769001,14.0109997 6.9820013,13.9389992 7,13.9959993 6.7869997,14.0679998 6.8439999,14.2270012 
		7.0810013,14.1459999 7.099,14.2060013 	"/>
	<path class="st6" d="M7.7740011,13.5999994l0.0570002-0.0059996l0.0269995,0.2969999
		c0.0059996,0.0510006,0.0030012,0.0959988-0.0030012,0.1230011c-0.0090008,0.032999-0.0240011,0.0570002-0.0479994,0.0780001
		C7.782999,14.1130009,7.75,14.1280012,7.704999,14.1280012c-0.0419998,0.0059996-0.0749989,0-0.1049995-0.0150003
		S7.552,14.0770006,7.5369997,14.0440016s-0.0240011-0.0720005-0.0300007-0.1290007L7.4799995,13.618001l0.0570002-0.0059996
		l0.0269995,0.2969999c0.0030012,0.045001,0.0119991,0.0780001,0.0209999,0.099s0.0240011,0.0360003,0.0389986,0.045001
		s0.0389986,0.0150003,0.0660009,0.0119991c0.0419998-0.0030012,0.0720005-0.0179987,0.0899992-0.0389986
		c0.0179987-0.0240011,0.0240011-0.0689993,0.0150003-0.131999L7.7740011,13.5999994z"/>
	<polygon class="st6" points="8.3800001,14.0410004 8.3800001,13.5460005 8.4370003,13.5460005 8.4370003,13.980999 
		8.6409998,13.980999 8.6409998,14.0410004 	"/>
	<rect x="8.7459993" y="13.5250006" class="st6" width="0.0600014" height="0.5159998"/>
	<path class="st6" d="M9.1989994,13.8640003l0.0479994,0.0179987c-0.0119991,0.0570002-0.0300007,0.1020012-0.0539989,0.131999
		c-0.0269995,0.0300007-0.0570002,0.045001-0.099,0.045001s-0.0720005-0.0119991-0.099-0.0360003
		s-0.0419998-0.0570002-0.0570002-0.1020012c-0.0150003-0.0419998-0.0209999-0.0930004-0.0209999-0.1409998
		c0-0.0539989,0.0090008-0.1049995,0.0240011-0.144001s0.0360003-0.0720005,0.0629997-0.0930004
		s0.0570002-0.032999,0.0899992-0.032999c0.0360003,0,0.0689993,0.0150003,0.0930004,0.0389986
		c0.0269995,0.0269995,0.0419998,0.0629997,0.0510006,0.1109991l-0.045001,0.0150003
		c-0.0090008-0.0360003-0.0209999-0.0660009-0.0360003-0.0839996c-0.0179987-0.0179987-0.0360003-0.0269995-0.0600014-0.0269995
		c-0.0300007,0-0.0510006,0.0090008-0.0720005,0.0300007s-0.032999,0.045001-0.0389986,0.0780001
		C8.9769983,13.7049961,8.974,13.737998,8.974,13.7739983c0,0.045001,0.0059996,0.0839996,0.0150003,0.1169987
		s0.0240011,0.0570002,0.0419998,0.0749989C9.052,13.9839945,9.0699987,13.9929953,9.0939999,13.9929953
		c0.0300007,0,0.0510006-0.0119991,0.0689993-0.0360003C9.1779995,13.9449987,9.1929998,13.9119997,9.1989994,13.8640003z"/>
	<path class="st6" d="M10.8790007,14.0290012v-0.4830008h0.0899992l0.1080008,0.342001
		c0.0090008,0.032999,0.0179987,0.0539989,0.0209999,0.0720005c0.0059996-0.0179987,0.0150003-0.0419998,0.0240011-0.0780001
		l0.1080008-0.3360014h0.0780001v0.4830008h-0.0570002v-0.4050007l-0.1290007,0.4050007h-0.0510006l-0.1290007-0.4110003v0.4110003
		H10.8790007z"/>
	<rect x="11.3919992" y="13.5579996" class="st6" width="0.0600014" height="0.4949999"/>
	<polygon class="st6" points="11.5600014,14.0620003 11.5600014,13.5639992 11.6140003,13.5639992 11.8060007,13.9539995 
		11.8060007,13.5639992 11.8540001,13.5639992 11.8540001,14.0620003 11.8029995,14.0620003 11.6080008,13.6719999 
		11.6080008,14.0620003 	"/>
	<rect x="11.9890003" y="13.5880003" class="st6" width="0.0629997" height="0.4709988"/>
	<path class="st6" d="M12.427,13.9630003l0.0510006,0.0240011c-0.0179987,0.0570002-0.0419998,0.099-0.0749989,0.1230011
		c-0.032999,0.0269995-0.0689993,0.0360003-0.1109991,0.0360003c-0.0419998-0.0059996-0.0780001-0.0209999-0.1049995-0.045001
		c-0.0269995-0.0269995-0.0419998-0.0600014-0.0510006-0.1080008C12.1270018,13.948,12.1240034,13.9000006,12.130003,13.849
		c0.0059996-0.0539989,0.0179987-0.1020012,0.0360003-0.1409998c0.0209999-0.0389986,0.045001-0.0689993,0.0780001-0.0870008
		c0.032999-0.0179987,0.0660009-0.0269995,0.1020012-0.0240011c0.0389986,0.0030012,0.0720005,0.0209999,0.099,0.0479994
		s0.0389986,0.0689993,0.045001,0.1169987l-0.0539989,0.0119991c-0.0059996-0.0389986-0.0150003-0.0689993-0.032999-0.0870008
		c-0.0150003-0.0209999-0.0360003-0.0300007-0.0629997-0.032999c-0.032999-0.0030012-0.0570002,0.0030012-0.0810013,0.0209999
		s-0.0389986,0.0419998-0.0510006,0.0720005c-0.0119991,0.032999-0.0209999,0.0660009-0.0240011,0.1020012
		c-0.0059996,0.0419998-0.0030012,0.0839996,0.0030012,0.1169987c0.0059996,0.0360003,0.0209999,0.0600014,0.0360003,0.0780001
		c0.0209999,0.0179987,0.0389986,0.0300007,0.0660009,0.032999c0.0300007,0.0030012,0.0570002-0.0059996,0.0810013-0.0269995
		C12.4000006,14.0379992,12.4150009,14.0050001,12.427,13.9630003z"/>
	<polygon class="st6" points="12.9219999,14.256999 13.032999,13.7380009 13.0870008,13.75 13.2159986,14.2060013 
		13.3000011,13.795001 13.3509989,13.8070002 13.243001,14.3260012 13.1889992,14.3139992 13.0600014,13.8580008 
		12.9759989,14.269001 	"/>
	<path class="st6" d="M6.3609991,14.1789989l0.1080008-0.045001c0.0240011-0.0090008,0.0389986-0.0209999,0.0479994-0.032999
		c0.0119991-0.0119991,0.0179987-0.0269995,0.0179987-0.0389986c0-0.0179987-0.0030012-0.032999-0.0090008-0.0479994
		c-0.0090008-0.0240011-0.0240011-0.0360003-0.0419998-0.045001c-0.0209999-0.0090008-0.0419998-0.0090008-0.0689993,0.0059996
		L6.2979994,14.026L6.3609991,14.1789989z M6.4210005,14.467001l-0.2010012-0.4770012l0.1679993-0.0720005
		C6.4239988,13.9029989,6.448,13.8969994,6.4689999,13.8969994s0.0389986,0.0090008,0.0600014,0.0269995
		c0.0209999,0.0179987,0.0360003,0.0389986,0.045001,0.0660009c0.0150003,0.0360003,0.0179987,0.0660009,0.0090008,0.099
		c-0.0090008,0.032999-0.0300007,0.0570002-0.0600014,0.0780001c0.0179987,0.0030012,0.0300007,0.0059996,0.0389986,0.0119991
		c0.0240011,0.0119991,0.0419998,0.0269995,0.0689993,0.045001l0.1199999,0.1020012l-0.0599985,0.0239983l-0.0930004-0.0780001
		C6.5710011,14.2479982,6.5500011,14.2330008,6.5350008,14.224c-0.0150003-0.0119991-0.0300007-0.0179987-0.0360003-0.0209999
		c-0.0090008-0.0030012-0.0209999-0.0030012-0.0300007-0.0030012c-0.0059996,0-0.0150003,0.0030012-0.0300007,0.0090008
		L6.381999,14.2359991l0.0899992,0.2130003L6.4210005,14.467001z"/>
	<path class="st6" d="M7.1920004,13.9150009l0.1080008-0.0240011c0.0360003-0.0090008,0.0600014-0.0209999,0.0720005-0.0389986
		c0.0119991-0.0209999,0.0150003-0.0419998,0.0090008-0.0720005c-0.0059996-0.0209999-0.0150003-0.0360003-0.0269995-0.0510006
		s-0.0269995-0.0209999-0.0389986-0.0240011c-0.0119991,0-0.0300007,0-0.0510006,0.0059996L7.156003,13.7349997
		L7.1920004,13.9150009z M7.1949987,14.1850014l-0.1109991-0.4950027l0.1590014-0.032999
		C7.2730017,13.651,7.2910004,13.6479988,7.3090019,13.6479988c0.0209999,0,0.0389986,0.0030012,0.0570002,0.0119991
		c0.0179987,0.0090008,0.032999,0.0240011,0.0419998,0.0389986c0.0150003,0.0209999,0.0240011,0.0389986,0.0300007,0.0629997
		c0.0090008,0.0419998,0.0059996,0.0810013-0.0090008,0.1140003c-0.0150003,0.0360003-0.0539989,0.0570002-0.1109991,0.0689993
		l-0.1080036,0.0270052l0.045001,0.2010012L7.1949987,14.1850014z"/>
	<path class="st6" d="M8.0290012,14.0169992l0.1020012-0.0059996c0.0179987,0,0.0300007-0.0030012,0.0360003-0.0059996
		c0.0119991-0.0030012,0.0209999-0.0090008,0.0300007-0.0150003s0.0150003-0.0179987,0.0179987-0.0300007
		c0.0059996-0.0150003,0.0059996-0.0300007,0.0059996-0.0419998c0-0.0209999-0.0059996-0.0360003-0.0150003-0.0479994
		c-0.0090008-0.0150003-0.0209999-0.0240011-0.0360003-0.0300007s-0.0360003-0.0059996-0.0570002-0.0059996l-0.0930004,0.0090008
		L8.0290012,14.0169992z M8.0169992,13.7860003l0.0870008-0.0059996c0.0240011-0.0030012,0.0389986-0.0059996,0.0479994-0.0090008
		c0.0150003-0.0059996,0.0240011-0.0150003,0.0300007-0.0269995s0.0090008-0.0269995,0.0090008-0.0419998
		c0-0.0179987-0.0059996-0.032999-0.0119991-0.0419998c-0.0059996-0.0119991-0.0179987-0.0209999-0.0300007-0.0240011
		c-0.0119991-0.0030012-0.032999-0.0059996-0.0600014-0.0030012L8.0079985,13.638998L8.0169992,13.7860003z M7.980999,14.079999
		L7.948,13.5759983l0.1500006-0.0090008c0.032999-0.0030012,0.0539989,0.0030012,0.0749989,0.0119991
		c0.0209999,0.0090008,0.0360003,0.0240011,0.045001,0.0419998c0.0119991,0.0209999,0.0179987,0.0419998,0.0209999,0.0660009
		c0,0.0240011-0.0030012,0.0419998-0.0119991,0.0600014c-0.0090008,0.0209999-0.0209999,0.0360003-0.0389986,0.0479994
		c0.0269995,0.0059996,0.0419998,0.0209999,0.0570002,0.0419998c0.0179987,0.0209999,0.0269995,0.045001,0.0300007,0.0749989
		c0,0.0240011,0,0.045001-0.0090008,0.0660009c-0.0059996,0.0209999-0.0150003,0.0360003-0.0269995,0.0479994
		s-0.0269995,0.0209999-0.0419998,0.0300007c-0.0179987,0.0059996-0.0360003,0.0119991-0.0629997,0.0119991L7.980999,14.079999z"/>
	<path class="st6" d="M9.4239988,13.8249989h0.1379986l-0.041997-0.1439981
		c-0.0150003-0.045001-0.0240011-0.0810013-0.0300007-0.111002c-0.0059996,0.0360003-0.0119991,0.0660009-0.0240011,0.1020012
		L9.4239988,13.8249989z M9.3070002,14.0410004l0.1590014-0.5279989h0.0570002l0.1679993,0.5279989H9.6309996L9.579999,13.881999
		H9.4090014l-0.045001,0.1590014H9.3070002z"/>
	<path class="st6" d="M10.0629997,13.980999h0.0899992c0.0300007,0,0.0479994-0.0030012,0.0629997-0.0090008
		s0.0300007-0.0150003,0.0360003-0.0269995C10.2669992,13.927,10.276,13.9089985,10.2819996,13.8789978
		c0.0090008-0.0300007,0.0119991-0.0600014,0.0119991-0.1020012c0-0.0539989-0.0090008-0.0959988-0.0240011-0.1230011
		c-0.0150003-0.0300007-0.032999-0.0479994-0.0510006-0.0570002c-0.0150003-0.0059996-0.0360003-0.0119991-0.0720005-0.0119991
		h-0.0869951L10.0629997,13.980999L10.0629997,13.980999z M10.0090008,14.0410004v-0.5159998h0.144001
		c0.032999,0,0.0570002,0.0030012,0.0749989,0.0059996c0.0240011,0.0059996,0.0419998,0.0209999,0.0600014,0.0360003
		c0.0240011,0.0240011,0.0360003,0.0510006,0.0479994,0.0899992c0.0119991,0.0360003,0.0179987,0.0780001,0.0179987,0.1199999
		c0,0.0389986-0.0030012,0.0749989-0.0119991,0.1049995c-0.0090008,0.0300007-0.0179987,0.0539989-0.0300007,0.0749989
		c-0.0119991,0.0209999-0.0240011,0.0360003-0.0360003,0.045001s-0.0300007,0.0209999-0.0479994,0.0269995
		c-0.0209999,0.0059996-0.0389986,0.0090008-0.0660009,0.0090008L10.0090008,14.0410004L10.0090008,14.0410004z"/>
	<path class="st6" d="M10.4890003,13.782999c0,0.0629997,0.0119991,0.1140003,0.0360003,0.1500006
		s0.0539989,0.0539989,0.0899992,0.0539989s0.0660009-0.0179987,0.0899992-0.0539989
		c0.0240011-0.0360003,0.0360003-0.0899992,0.0360003-0.1590014c0-0.0419998-0.0059996-0.0810013-0.0150003-0.1109991
		c-0.0090008-0.032999-0.0240011-0.0570002-0.0419998-0.0749989c-0.0209999-0.0179987-0.0389986-0.0269995-0.0629997-0.0269995
		c-0.0360003,0-0.0629997,0.0179987-0.0899992,0.0510006C10.5009995,13.6479988,10.4890003,13.7080002,10.4890003,13.782999z
		 M10.4410009,13.782999c0-0.0870008,0.0179987-0.1560001,0.0479994-0.2039995
		c0.032999-0.0479994,0.0749989-0.0749989,0.1259995-0.0749989c0.0360003,0,0.0629997,0.0119991,0.0930004,0.0360003
		c0.0269995,0.0240011,0.0479994,0.0539989,0.0600014,0.099c0.0150003,0.0389986,0.0209999,0.0899992,0.0209999,0.1409998
		c0,0.0539989-0.0090008,0.1020012-0.0240011,0.144001s-0.0360003,0.0749989-0.0629997,0.0959988
		c-0.0300007,0.0240011-0.0570002,0.032999-0.0899992,0.032999c-0.0360003,0-0.0660009-0.0119991-0.0930004-0.0360003
		s-0.0479994-0.0570002-0.0600014-0.099C10.4470005,13.8730011,10.4410009,13.8310013,10.4410009,13.782999z"/>
	<path class="st6" d="M12.6459999,13.9510012l0.1379986,0.032999l-0.0119991-0.1560001
		c-0.0030012-0.045001-0.0059996-0.0870008-0.0059996-0.1140003c-0.0119991,0.032999-0.0269995,0.0629997-0.0419998,0.0959988
		L12.6459999,13.9510012z M12.4840002,14.1400003l0.2669992-0.4919987l0.0570002,0.0150003l0.0570002,0.5639992L12.802,14.2120008
		l-0.0150003-0.1710005l-0.1739988-0.0360003l-0.0780001,0.1500006L12.4840002,14.1400003z"/>
	<path class="st6" d="M13.4830008,14.1879997l0.1230011,0.0600014l0.0209999-0.1560001
		c0.0059996-0.045001,0.0119991-0.0870008,0.0179987-0.1140003c-0.0179987,0.0300007-0.0360003,0.0570002-0.0600014,0.0839996
		L13.4830008,14.1879997z M13.2879992,14.3380003l0.3480005-0.420001l0.0510006,0.0269995l-0.0600014,0.5639992L13.573,14.4819984
		l0.0209999-0.1710005l-0.1529989-0.0749989l-0.1049995,0.1290007L13.2879992,14.3380003z"/>
	<path class="st2" d="M11.4610014,14.7640009c-0.4919987-0.2099991-0.7559996-0.045001-0.7559996-0.045001l0.0150003,0.329999
		c0,0,0.230999,0,0.3239994,0.045001s0.3089991,0.1500006,0.3089991,0.1500006L11.4610014,14.7640009z"/>
	<path class="st9" d="M11.4610014,14.7640009c-0.4919987-0.2099991-0.7559996-0.045001-0.7559996-0.045001l0.0150003,0.329999
		c0,0,0.230999,0,0.3239994,0.045001s0.3089991,0.1500006,0.3089991,0.1500006L11.4610014,14.7640009z"/>
	<path class="st2" d="M8.5870008,14.7879992c0.4919987-0.2099991,0.7559996-0.045001,0.7559996-0.045001l-0.0150003,0.329999
		c0,0-0.230999,0-0.3239994,0.045001s-0.3089991,0.1500006-0.3089991,0.1500006L8.5870008,14.7879992z"/>
	<path class="st9" d="M8.5870008,14.7879992c0.4919987-0.2099991,0.7559996-0.045001,0.7559996-0.045001l-0.0150003,0.329999
		c0,0-0.230999,0-0.3239994,0.045001s-0.3089991,0.1500006-0.3089991,0.1500006L8.5870008,14.7879992z"/>
	<path class="st2" d="M9.7419987,14.6739988v0.4799995c0.0240011,0.0300007,0.1080008,0.0660009,0.2609997,0.0660009
		c0.1560001,0,0.2609997-0.0660009,0.2609997-0.0660009v-0.5039978c0,0-0.1710005-0.0600014-0.2939987-0.045001
		C9.8499994,14.6230011,9.7719994,14.644001,9.7419987,14.6739988z"/>
	<path class="st9" d="M9.7419987,14.6739988v0.4799995c0.0240011,0.0300007,0.1080008,0.0660009,0.2609997,0.0660009
		c0.1560001,0,0.2609997-0.0660009,0.2609997-0.0660009v-0.5039978c0,0-0.1710005-0.0600014-0.2939987-0.045001
		C9.8499994,14.6230011,9.7719994,14.644001,9.7419987,14.6739988z"/>
	<path class="st2" d="M10.2640009,15.1839991c0.0780001,0.1350002,0.6240005,0.0899992,0.6390009-0.0300007
		s0.0090008-0.2939987,0.0090008-0.2939987h-0.6479988C10.2640038,14.8599997,10.2640038,15.1839991,10.2640009,15.1839991z"/>
	<path class="st9" d="M10.2640009,15.1839991c0.0780001,0.1350002,0.6240005,0.0899992,0.6390009-0.0300007
		s0.0090008-0.2939987,0.0090008-0.2939987h-0.6479988C10.2640038,14.8599997,10.2640038,15.1839991,10.2640009,15.1839991z"/>
	<path class="st2" d="M10.2640009,14.6500006c0.0780001-0.0300007,0.276-0.1080008,0.4320002-0.0899992
		C10.849,14.5750017,10.927,14.6650009,10.927,14.6650009l-0.0300007,0.4349985
		c-0.032999-0.0479994-0.1500006-0.1080008-0.230999-0.1049995c-0.1500006,0.0059996-0.2609997,0.0600014-0.3990011,0.1350002
		v-0.4799995H10.2640009z"/>
	<path class="st9" d="M10.2640009,14.6500006c0.0780001-0.0300007,0.276-0.1080008,0.4320002-0.0899992
		C10.849,14.5750017,10.927,14.6650009,10.927,14.6650009l-0.0300007,0.4349985
		c-0.032999-0.0479994-0.1500006-0.1080008-0.230999-0.1049995c-0.1500006,0.0059996-0.2609997,0.0600014-0.3990011,0.1350002
		v-0.4799995H10.2640009z"/>
	<path class="st2" d="M9.7419987,15.1929998c-0.0780001,0.1350002-0.6240005,0.0899992-0.6390009-0.0300007
		S9.093997,14.8690004,9.093997,14.8690004h0.6479988C9.7419958,14.8690004,9.7419958,15.1929998,9.7419987,15.1929998z"/>
	<path class="st9" d="M9.7419987,15.1929998c-0.0780001,0.1350002-0.6240005,0.0899992-0.6390009-0.0300007
		S9.093997,14.8690004,9.093997,14.8690004h0.6479988C9.7419958,14.8690004,9.7419958,15.1929998,9.7419987,15.1929998z"/>
	<path class="st2" d="M9.7419987,14.6590014c-0.0780001-0.0300007-0.276-0.1049995-0.4320002-0.0899992
		c-0.1529989,0.0150003-0.230999,0.1080008-0.230999,0.1080008l0.032999,0.4350014
		c0.032999-0.0479994,0.1500006-0.1080008,0.230999-0.1049995c0.1500006,0.0059996,0.2609997,0.0600014,0.3990011,0.1350002
		V14.6590014z"/>
	<path class="st9" d="M9.7419987,14.6590014c-0.0780001-0.0300007-0.276-0.1049995-0.4320002-0.0899992
		c-0.1529989,0.0150003-0.230999,0.1080008-0.230999,0.1080008l0.032999,0.4350014
		c0.032999-0.0479994,0.1500006-0.1080008,0.230999-0.1049995c0.1500006,0.0059996,0.2609997,0.0600014,0.3990011,0.1350002
		V14.6590014z"/>
</g>
<g id="Layer_2_1_">
</g>
<path class="st18" d="M10-18.5c15.5999985,0,28.5,12.9000006,28.5,28.5S25.5999985,38.5,10,38.5S-18.5,25.5999985-18.5,10
	S-5.5999994-18.5,10-18.5 M10-20C-6.5-20-20-6.5-20,10s13.5,30,30,30s30-13.5,30-30S26.5-20,10-20L10-20z"/>
</svg>
