<svg xmlns="http://www.w3.org/2000/svg" fill="#fff" viewBox="0 0 89 89">
  <path d="M840.98,148.548a10.383,10.383,0,1,0-13.961,0,13.366,13.366,0,0,0-10.819,13.1v5.933a1.483,1.483,0,0,0,1.483,1.484h32.634a1.483,1.483,0,0,0,1.483-1.484V161.65A13.366,13.366,0,0,0,840.98,148.548Zm-14.4-7.665A7.417,7.417,0,1,1,834,148.3,7.425,7.425,0,0,1,826.583,140.883Zm22.25,25.217H819.167v-4.45a10.4,10.4,0,0,1,10.383-10.383h8.9a10.4,10.4,0,0,1,10.383,10.383v4.45ZM814.28,198.981a10.383,10.383,0,1,0-13.961,0,13.367,13.367,0,0,0-10.819,13.1v5.934a1.482,1.482,0,0,0,1.483,1.483h32.634a1.483,1.483,0,0,0,1.483-1.483v-5.934A13.367,13.367,0,0,0,814.28,198.981Zm-14.4-7.664a7.417,7.417,0,1,1,7.417,7.416A7.425,7.425,0,0,1,799.883,191.317Zm22.25,25.216H792.467v-4.45A10.4,10.4,0,0,1,802.85,201.7h8.9a10.4,10.4,0,0,1,10.383,10.383v4.45Zm45.548-17.552a10.383,10.383,0,1,0-13.962,0,13.367,13.367,0,0,0-10.819,13.1v5.934a1.482,1.482,0,0,0,1.483,1.483h32.634a1.483,1.483,0,0,0,1.483-1.483v-5.934A13.367,13.367,0,0,0,867.681,198.981Zm-14.4-7.664a7.417,7.417,0,1,1,7.417,7.416A7.425,7.425,0,0,1,853.283,191.317Zm22.25,25.216H845.867v-4.45A10.4,10.4,0,0,1,856.25,201.7h8.9a10.4,10.4,0,0,1,10.383,10.383v4.45Zm-77.105-38.614-2.964.116c0.041,1.022.122,2.057,0.244,3.075l2.946-.353C798.541,179.818,798.465,178.863,798.428,177.919Zm-2.722-6.038c-0.12,1.011-.2,2.045-0.242,3.073l2.964,0.116c0.037-.95.113-1.9,0.224-2.839Zm14.915-26.076c-0.811.619-1.611,1.28-2.378,1.968l1.984,2.208c0.706-.635,1.443-1.246,2.192-1.816Zm-11.528,14.258c-0.436.927-.84,1.882-1.2,2.845l2.777,1.043c0.334-.887.706-1.769,1.108-2.621Zm-2.172,5.774c-0.282.981-.527,1.991-0.73,3l2.909,0.586c0.187-.927.412-1.859,0.674-2.765Zm9.114-15.91c-0.711.748-1.393,1.527-2.034,2.317l2.307,1.866c0.59-.73,1.222-1.451,1.877-2.14Zm9.769-7.455c-0.9.479-1.792,1.006-2.661,1.565l1.608,2.5c0.8-.518,1.625-1,2.45-1.443Zm-13.645,12.243c-0.58.847-1.132,1.725-1.641,2.614l2.574,1.474c0.468-.818.979-1.63,1.514-2.41Zm24.813,56.674-0.586,2.909c1,0.2,2.025.363,3.05,0.483l0.344-2.945C828.838,211.724,827.892,211.574,826.972,211.389Zm14.149-.018c-0.921.187-1.866,0.34-2.812,0.456l0.358,2.946c1.023-.125,2.047-0.291,3.043-0.493Zm-5.648.683c-0.948.037-1.906,0.041-2.848,0l-0.117,2.964c0.494,0.021.992,0.029,1.5,0.029q0.8,0,1.588-.034Zm24.289-64.269-1.981,2.207c0.706,0.635,1.391,1.3,2.039,1.985l2.154-2.039C861.271,149.2,860.528,148.472,859.762,147.785Zm4.243,4.468-2.307,1.866c0.592,0.731,1.165,1.5,1.7,2.284l2.446-1.677C865.264,153.879,864.646,153.047,864.005,152.253Zm8.53,22.705-2.963.116c0.019,0.467.028,0.939,0.028,1.409s-0.009.961-.028,1.441l2.963,0.115q0.032-.774.032-1.559C872.567,175.972,872.556,175.463,872.535,174.958Zm-5.047-17.622-2.575,1.476c0.47,0.821.912,1.671,1.315,2.525l2.684-1.267C868.476,159.145,868,158.225,867.488,157.336Zm2.624,5.578-2.777,1.044c0.332,0.884.632,1.793,0.893,2.7l2.852-.817C870.8,164.857,870.472,163.872,870.112,162.914Zm1.7,5.926-2.907.584c0.187,0.929.338,1.875,0.448,2.813l2.946-.351C872.174,170.872,872.01,169.847,871.807,168.84Zm-16.941-24.8-1.606,2.5c0.792,0.51,1.575,1.06,2.33,1.637l1.8-2.36C856.573,145.191,855.725,144.6,854.866,144.043Zm-5.433-2.913-1.189,2.717c0.865,0.378,1.726.8,2.561,1.245l1.4-2.614C851.305,141.991,850.37,141.537,849.433,141.13Z" transform="translate(-789.5 -130.5)"/>
</svg>
