<svg xmlns="http://www.w3.org/2000/svg" fill="#fff" viewBox="0 0 89 89">
  <path d="M500.5,130a17.8,17.8,0,1,0,17.8,17.8A17.82,17.82,0,0,0,500.5,130Zm0,32.633A14.833,14.833,0,1,1,515.333,147.8,14.85,14.85,0,0,1,500.5,162.633Zm0,20.767a17.8,17.8,0,1,0,17.8,17.8A17.82,17.82,0,0,0,500.5,183.4Zm0,32.633a14.81,14.81,0,0,1-11.839-5.933H491.6a1.483,1.483,0,0,0,1.483-1.483V198.434l6.466,5.388a1.48,1.48,0,0,0,1.9,0l6.468-5.388v10.183A1.483,1.483,0,0,0,509.4,210.1h2.938A14.807,14.807,0,0,1,500.5,216.033Zm10.383-8.9V195.267a1.483,1.483,0,0,0-2.432-1.14l-7.951,6.625-7.949-6.625a1.484,1.484,0,0,0-2.434,1.14v11.866h-3.2a14.833,14.833,0,1,1,27.172,0h-3.2ZM527.2,156.7A17.8,17.8,0,1,0,545,174.5,17.82,17.82,0,0,0,527.2,156.7Zm0,32.633A14.833,14.833,0,1,1,542.033,174.5,14.85,14.85,0,0,1,527.2,189.333ZM473.8,156.7a17.8,17.8,0,1,0,17.8,17.8A17.82,17.82,0,0,0,473.8,156.7Zm0,32.633A14.833,14.833,0,1,1,488.633,174.5,14.85,14.85,0,0,1,473.8,189.333Zm33.133-42.224a5.174,5.174,0,0,0-4.208-8.209h-0.742v-2.967h-2.966V138.9h-1.484a1.482,1.482,0,0,0-1.483,1.483v14.834a1.483,1.483,0,0,0,1.483,1.483h1.484v2.967h2.966V156.7h2.225A5.179,5.179,0,0,0,506.933,147.109Zm-7.916-5.242h3.708a2.225,2.225,0,0,1,0,4.45h-3.708v-4.45Zm5.191,11.866h-5.191v-4.45h5.191A2.225,2.225,0,0,1,504.208,153.733Zm19.156,26.7,12.3-12.3a1.483,1.483,0,0,0-1.048-2.532h-5.934v-2.967h-2.966V165.6H518.3v2.967h12.736l-12.3,12.3a1.483,1.483,0,0,0,1.048,2.532h5.934v2.967h2.966V183.4H536.1v-2.967H523.364Zm-52.531,0v-6.347l3.436-1.145-0.939-2.814-2.5.831v-6.841h-2.966v7.83l-3.436,1.145,0.938,2.816,2.5-.833v6.842a1.483,1.483,0,0,0,1.483,1.483h11.867v-2.967H470.833ZM524.957,142.8l5.465-.955-0.51-2.922-8.987,1.572a1.483,1.483,0,0,0-.542,2.712,37.528,37.528,0,0,1,11.411,11.411l2.5-1.593A40.591,40.591,0,0,0,524.957,142.8Zm-45.934-2.1a40.535,40.535,0,0,0-10.225,9.341l-0.955-5.465-2.924.51,1.571,8.988a1.49,1.49,0,0,0,1.173,1.2,1.428,1.428,0,0,0,.29.03,1.486,1.486,0,0,0,1.252-.687,37.483,37.483,0,0,1,11.411-11.411Zm1.6,65.092a37.517,37.517,0,0,1-11.411-11.411l-2.5,1.593a40.582,40.582,0,0,0,9.34,10.224l-5.464.956,0.508,2.922,8.988-1.571A1.484,1.484,0,0,0,480.619,205.794Zm53.891-10.87a1.485,1.485,0,0,0-2.715-.541,37.494,37.494,0,0,1-11.411,11.411l1.593,2.5a40.535,40.535,0,0,0,10.225-9.341l0.955,5.465,2.924-.51Z" transform="translate(-456 -130)"/>
</svg>
