<svg xmlns="http://www.w3.org/2000/svg" fill="#fff" viewBox="0 0 80.5 80.5">
  <path d="M540.475,356.833V331.342A1.342,1.342,0,0,0,539.133,330H501.567a1.342,1.342,0,0,0-1.342,1.342v25.491h-2.683V342.075a1.342,1.342,0,0,0-1.342-1.342H485.467a1.342,1.342,0,0,0-1.342,1.342v14.758a4.025,4.025,0,0,0,0,8.05H497.1l-2.876,6.709H474.733v-5.367H472.05v25.492h2.683v-4.025h13.544l14.631,2.659v8.074H466.683V339.392h18.784v-2.684H465.342A1.342,1.342,0,0,0,464,338.05v71.108a1.342,1.342,0,0,0,1.342,1.342h41.591a6.716,6.716,0,0,0,6.709-6.708v-4.025a1.342,1.342,0,0,0-1.342-1.342h-6.708v-8.618l13.991-3.5a1.34,1.34,0,0,0,.715-0.455l13.907-17.118a3.969,3.969,0,0,0,.666-3.854h5.6A4.025,4.025,0,0,0,540.475,356.833Zm-2.683-24.15v3.835a5.363,5.363,0,0,1-3.835-3.835h3.835Zm-34.884,0h3.835a5.363,5.363,0,0,1-3.835,3.835v-3.835Zm0,6.588a8.06,8.06,0,0,0,6.588-6.588H531.2a8.06,8.06,0,0,0,6.588,6.588v5.609a8.06,8.06,0,0,0-6.588,6.588H509.5a8.06,8.06,0,0,0-6.588-6.588v-5.608Zm34.884,8.361v3.835h-3.835A5.363,5.363,0,0,1,537.792,347.632Zm-34.884,0a5.363,5.363,0,0,1,3.835,3.835h-3.835v-3.835Zm0,6.518h34.884v2.683H502.908V354.15Zm-16.1-10.733h8.05V346.1h-8.05v-2.683Zm0,5.366h8.05v2.684h-8.05v-2.684Zm0,5.367h8.05v2.683h-8.05V354.15Zm24.15,46.958v2.684a4.03,4.03,0,0,1-4.025,4.025h-40.25v-6.709h44.275Zm21.165-34.065L518.5,383.814l-15.385,3.847-14.474-2.631a1.373,1.373,0,0,0-.24-0.022H474.733V374.275h20.374a1.34,1.34,0,0,0,1.233-.813l3.676-8.579h2.962l-1.152,9.226a1.334,1.334,0,0,0,.382,1.115l5.367,5.366a1.341,1.341,0,0,0,.948.393h5.367a1.337,1.337,0,0,0,.948-0.393l15.32-15.319A1.325,1.325,0,0,1,532.123,367.043Zm-27.555,6.748,1.115-8.908h5.294c-0.009.047-.028,0.09-0.036,0.139L508.778,378Zm6.88,4.509,2.14-12.837a0.689,0.689,0,0,1,.682-0.58,0.692,0.692,0,0,1,.685.777l-1.028,8.219-2.208,4.421h-0.271Zm6.106-13.417h0.873l-0.893,1.786,0.084-.676A3.358,3.358,0,0,0,517.554,364.883Zm3.58,0.587a1.053,1.053,0,0,1,.948-0.587,1.059,1.059,0,0,1,.946,1.532l-2.191,4.382-4.733,4.734Zm4.534-.587h1.083l-0.931.931A3.75,3.75,0,0,0,525.668,364.883Zm14.807-2.683h-56.35a1.342,1.342,0,1,1,0-2.683h56.35A1.342,1.342,0,1,1,540.475,362.2ZM520.35,335.367a6.708,6.708,0,1,0,6.708,6.708A6.715,6.715,0,0,0,520.35,335.367Zm0,10.733a4.025,4.025,0,1,1,4.025-4.025A4.03,4.03,0,0,1,520.35,346.1Zm-48.3,14.758h2.683v2.684H472.05v-2.684Zm0-5.366h2.683v2.683H472.05v-2.683Zm0-5.367h2.683v2.683H472.05v-2.683Z" transform="translate(-464 -330)"/>
</svg>
