<svg xmlns="http://www.w3.org/2000/svg" fill="#fff" viewBox="0 0 78.969 80.313">
  <path  d="M203.57,358.036a9.21,9.21,0,1,0-11.33,1.033,6.581,6.581,0,0,0-2.887,5.442v9.213h-5.265v-6.581A9.222,9.222,0,0,0,175.967,358a9.214,9.214,0,1,0-12.715,0,9.222,9.222,0,0,0-8.121,9.142v6.581h-5.265v-9.213a6.581,6.581,0,0,0-2.887-5.442,9.218,9.218,0,1,0-11.33-1.033,6.575,6.575,0,0,0-5.527,6.475v19.743a6.6,6.6,0,0,0,5.265,6.449v19.876h2.633V390.836h11.846v18.427a1.316,1.316,0,0,0,1.316,1.316h7.9a1.316,1.316,0,0,0,1.316-1.316V388.2h7.9v19.744h-5.265v2.632h13.163v-2.632h-5.265V388.2h7.9v21.06a1.316,1.316,0,0,0,1.316,1.316h7.9a1.316,1.316,0,0,0,1.316-1.316V390.836H201.2v19.743h2.633V390.7a6.593,6.593,0,0,0,5.265-6.449V364.511A6.575,6.575,0,0,0,203.57,358.036Zm-12.9-6.688a6.582,6.582,0,1,1,6.582,6.581A6.589,6.589,0,0,1,190.669,351.348Zm-27.641,0a6.582,6.582,0,1,1,6.582,6.581A6.589,6.589,0,0,1,163.028,351.348Zm8.631,9.214-2.049,5.465-2.05-5.465h4.1Zm-13.9,6.581a6.589,6.589,0,0,1,6.582-6.581h0.4l3.629,9.676a1.316,1.316,0,0,0,2.465,0l3.627-9.676h0.405a6.589,6.589,0,0,1,6.581,6.581v6.581h-5.265a1.317,1.317,0,0,0-1.316,1.317v5.265h-10.53v-5.265a1.317,1.317,0,0,0-1.317-1.317h-5.265v-6.581Zm-22.376-15.795a6.582,6.582,0,1,1,6.581,6.581A6.589,6.589,0,0,1,135.387,351.348Zm22.376,56.6H152.5V389.519a1.316,1.316,0,0,0-1.316-1.316H136.7a3.953,3.953,0,0,1-3.948-3.949V364.511a3.953,3.953,0,0,1,3.948-3.949h6.582a3.953,3.953,0,0,1,3.948,3.949v10.53a1.317,1.317,0,0,0,1.317,1.316h13.162v3.949H143.285V368.459h-2.633v13.163a1.317,1.317,0,0,0,1.316,1.316h11.847a3.953,3.953,0,0,1,3.948,3.949v21.06Zm21.208-22.376H160.248a6.564,6.564,0,0,0-1.171-2.633h21.065A6.564,6.564,0,0,0,178.971,385.571Zm27.493-1.317a3.953,3.953,0,0,1-3.948,3.949H188.037a1.316,1.316,0,0,0-1.316,1.316v18.428h-5.265v-21.06a3.953,3.953,0,0,1,3.948-3.949h11.847a1.317,1.317,0,0,0,1.316-1.316V368.459h-2.633v11.847H177.507v-3.949h13.162a1.317,1.317,0,0,0,1.317-1.316v-10.53a3.953,3.953,0,0,1,3.948-3.949h6.582a3.953,3.953,0,0,1,3.948,3.949v19.743Zm-38.171-10.53h2.633v2.633h-2.633v-2.633Zm-5.265-43.436H144.6a1.317,1.317,0,0,0-1.316,1.317v6.581A1.316,1.316,0,0,0,144.6,339.5h5.265v2.633a1.317,1.317,0,0,0,2.106,1.053l4.913-3.686h6.143a1.317,1.317,0,0,0,1.317-1.316v-6.581A1.317,1.317,0,0,0,163.028,330.288Zm-1.316,6.582h-5.265a1.318,1.318,0,0,0-.79.263L152.5,339.5v-1.316a1.316,1.316,0,0,0-1.316-1.316h-5.265v-3.949h15.795v3.949Zm14.479-2.633h2.632v2.633h-2.632v-2.633Zm5.265,0h2.632v2.633h-2.632v-2.633Zm5.265,0h2.632v2.633h-2.632v-2.633Z" transform="translate(-130.125 -330.281)"/>
</svg>
