<svg xmlns="http://www.w3.org/2000/svg" fill="#fff" viewBox="0 0 85.44 82.781">
  <path  d="M1150.03,146.35h-0.73a8.01,8.01,0,1,0-11.9,0h-0.72a6.681,6.681,0,0,0-6.68,6.675v9.345a1.337,1.337,0,0,0,1.34,1.335h4v16.02a1.336,1.336,0,0,0,1.34,1.335h13.35a1.334,1.334,0,0,0,1.33-1.335v-16.02h4.01a1.335,1.335,0,0,0,1.33-1.335v-9.345A6.679,6.679,0,0,0,1150.03,146.35Zm-6.68-10.68a5.34,5.34,0,1,1-5.34,5.34A5.342,5.342,0,0,1,1143.35,135.67Zm10.68,25.365h-2.67v-8.01h-2.67V178.39h-4V163.705h-2.67V178.39h-4.01V153.025h-2.67v8.01h-2.67v-8.01a4.013,4.013,0,0,1,4.01-4h13.35a4.011,4.011,0,0,1,4,4v8.01Zm-4,36.046h-0.73a8.01,8.01,0,1,0-11.9,0h-0.72a6.681,6.681,0,0,0-6.68,6.675V213.1a1.337,1.337,0,0,0,1.34,1.335h4v1.335h2.67V203.756h-2.67v8.01h-2.67v-8.01a4.013,4.013,0,0,1,4.01-4h13.35a4.011,4.011,0,0,1,4,4v8.01h-2.67v-8.01h-2.67v12.015h2.67v-1.335h4.01a1.335,1.335,0,0,0,1.33-1.335v-9.345A6.678,6.678,0,0,0,1150.03,197.081Zm-6.68,0a5.341,5.341,0,1,1,5.34-5.34A5.349,5.349,0,0,1,1143.35,197.081Zm36.05-50.731h-0.73a8.01,8.01,0,1,0-11.9,0h-0.72a6.681,6.681,0,0,0-6.68,6.675v9.345a1.337,1.337,0,0,0,1.34,1.335h4v16.02a1.336,1.336,0,0,0,1.34,1.335h13.35a1.334,1.334,0,0,0,1.33-1.335v-16.02h4.01a1.335,1.335,0,0,0,1.33-1.335v-9.345A6.679,6.679,0,0,0,1179.4,146.35Zm-6.68-10.68a5.34,5.34,0,1,1-5.34,5.34A5.342,5.342,0,0,1,1172.72,135.67Zm10.68,25.365h-2.67v-8.01h-2.67V178.39h-4V163.705h-2.67V178.39h-4.01V153.025h-2.67v8.01h-2.67v-8.01a4.013,4.013,0,0,1,4.01-4h13.35a4.011,4.011,0,0,1,4,4v8.01Zm25.37-14.685h-0.73a8.01,8.01,0,1,0-11.9,0h-0.72a6.681,6.681,0,0,0-6.68,6.675v9.345a1.337,1.337,0,0,0,1.34,1.335h4v16.02a1.336,1.336,0,0,0,1.34,1.335h13.35a1.334,1.334,0,0,0,1.33-1.335v-16.02h4.01a1.335,1.335,0,0,0,1.33-1.335v-9.345A6.679,6.679,0,0,0,1208.77,146.35Zm-6.68-10.68a5.34,5.34,0,1,1-5.34,5.34A5.342,5.342,0,0,1,1202.09,135.67Zm10.68,25.365h-2.67v-8.01h-2.67V178.39h-4V163.705h-2.67V178.39h-4.01V153.025h-2.67v8.01h-2.67v-8.01a4.013,4.013,0,0,1,4.01-4h13.35a4.011,4.011,0,0,1,4,4v8.01Zm-33.37,36.046h-0.73a8.01,8.01,0,1,0-11.9,0h-0.72a6.681,6.681,0,0,0-6.68,6.675V213.1a1.337,1.337,0,0,0,1.34,1.335h4v1.335h2.67V203.756h-2.67v8.01h-2.67v-8.01a4.013,4.013,0,0,1,4.01-4h13.35a4.011,4.011,0,0,1,4,4v8.01h-2.67v-8.01h-2.67v12.015h2.67v-1.335h4.01a1.335,1.335,0,0,0,1.33-1.335v-9.345A6.678,6.678,0,0,0,1179.4,197.081Zm-6.68,0a5.341,5.341,0,1,1,5.34-5.34A5.349,5.349,0,0,1,1172.72,197.081Zm36.05,0h-0.73a8.01,8.01,0,1,0-11.9,0h-0.72a6.681,6.681,0,0,0-6.68,6.675V213.1a1.337,1.337,0,0,0,1.34,1.335h4v1.335h2.67V203.756h-2.67v8.01h-2.67v-8.01a4.013,4.013,0,0,1,4.01-4h13.35a4.011,4.011,0,0,1,4,4v8.01h-2.67v-8.01h-2.67v12.015h2.67v-1.335h4.01a1.335,1.335,0,0,0,1.33-1.335v-9.345A6.678,6.678,0,0,0,1208.77,197.081Zm-6.68,0a5.341,5.341,0,1,1,5.34-5.34A5.349,5.349,0,0,1,1202.09,197.081Z" transform="translate(-1130 -133)"/>
</svg>
