<?xml version="1.0" encoding="utf-8"?>
<svg version="1.1" id="Layer_1" xmlns="http://www.w3.org/2000/svg" xmlns:xlink="http://www.w3.org/1999/xlink" x="0px" y="0px"
	 viewBox="-22 -22 64 64" style="enable-background:new 0 0 20 20;" xml:space="preserve">
<style type="text/css">
	.st0{fill:#243E90;}
	.st1{fill:#FFCD05;}
	.st2{fill:#CCCCCC;}
</style>
<circle class="st0" cx="10" cy="10" r="28.8000011"/>
<polygon class="st1" points="8.2209988,-6.5479994 10.1080008,-7.9219999 11.9980011,-6.5479994 11.2779989,-8.7679996 
	13.1679993,-10.1420002 10.8310013,-10.1420002 10.1080008,-12.3649998 9.3879986,-10.1420002 7.0510006,-10.1420002 
	8.9410009,-8.7679996 "/>
<polygon class="st1" points="8.2209988,32.0530014 10.1080008,30.6789989 11.9980011,32.0530014 11.2779989,29.8330002 
	13.1679993,28.4589996 10.8310013,28.4589996 10.1080008,26.2360001 9.3879986,28.4589996 7.0510006,28.4589996 
	8.9410009,29.8330002 "/>
<polygon class="st1" points="-10.3579998,10.5310001 -11.0809994,12.7540007 -9.191,11.3800001 -7.3010006,12.7540007 
	-8.0240002,10.5310001 -6.1309996,9.1569996 -8.4679995,9.1569996 -9.191,6.9339991 -9.9110003,9.1569996 -12.2510004,9.1569996 "/>
<polygon class="st1" points="-1.4299998,-3.9619994 0.4600005,-5.336 2.3499994,-3.9619994 1.6270003,-6.1849999 
	3.5170007,-7.5590005 1.1799998,-7.5590005 0.4600005,-9.7789993 -0.263,-7.5590005 -2.5999994,-7.5590005 -0.7100005,-6.1849999 
	"/>
<polygon class="st1" points="-8.4949999,3.1030006 -6.6049995,1.7290001 -4.7150006,3.1030006 -5.4379997,0.8800001 
	-3.5449996,-0.4940004 -5.8820004,-0.4940004 -6.6049995,-2.7139997 -7.3250003,-0.4940004 -9.665,-0.4940004 -7.7719994,0.8800001 
	"/>
<polygon class="st1" points="-5.8820004,18.8079987 -6.6049995,16.5849991 -7.3250003,18.8079987 -9.665,18.8079987 
	-7.7719994,20.1819992 -8.4949999,22.4050007 -6.6049995,21.0310001 -4.7150006,22.4050007 -5.4379997,20.1819992 
	-3.5449996,18.8079987 "/>
<polygon class="st1" points="-1.4299998,29.4699993 0.4600005,28.0959988 2.3499994,29.4699993 1.6270003,27.2439995 
	3.5170007,25.8730011 1.1799998,25.8730011 0.4600005,23.6469994 -0.263,25.8730011 -2.5999994,25.8730011 -0.7100005,27.2439995 
	"/>
<polygon class="st1" points="28.6870003,9.1569996 26.3499985,9.1569996 28.2429981,10.5310001 27.5200005,12.7540007 
	29.4099979,11.3800001 31.3000011,12.7540007 30.5769978,10.5310001 32.4700012,9.1569996 30.1299973,9.1569996 
	29.4099979,6.9339991 "/>
<polygon class="st1" points="17.8689995,-3.9619994 19.7590008,-5.336 21.6490021,-3.9619994 20.9289989,-6.1849999 
	22.8190002,-7.5590005 20.4820023,-7.5590005 19.7590008,-9.7789993 19.0359993,-7.5590005 16.7019997,-7.5590005 
	18.592001,-6.1849999 "/>
<polygon class="st1" points="24.9339981,3.1030006 26.8239994,1.7290001 28.7140026,3.1030006 27.9909992,0.8800001 
	29.8840008,-0.4940004 27.5439987,-0.4940004 26.8239994,-2.7139997 26.1009979,-0.4940004 23.7669983,-0.4940004 
	25.6569996,0.8800001 "/>
<polygon class="st1" points="24.9339981,22.4050007 26.8239994,21.0310001 28.7140026,22.4050007 27.9909992,20.1819992 
	29.8840008,18.8079987 27.5470009,18.8079987 26.8239994,16.5849991 26.1009979,18.8079987 23.7669983,18.8079987 
	25.6569996,20.1819992 "/>
<polygon class="st1" points="17.8689995,29.4699993 19.7590008,28.0959988 21.6490021,29.4699993 20.9289989,27.2439995 
	22.8190002,25.8730011 20.4820023,25.8730011 19.7590008,23.6469994 19.0359993,25.8730011 16.7019997,25.8730011 
	18.592001,27.2439995 "/>
<path class="st2" d="M10-18.5c15.5999985,0,28.5,12.9000006,28.5,28.5S25.5999985,38.5,10,38.5S-18.5,25.5999985-18.5,10
	S-5.5999994-18.5,10-18.5 M10-20C-6.5-20-20-6.5-20,10s13.5,30,30,30s30-13.5,30-30S26.5-20,10-20L10-20z"/>
</svg>
