<?xml version="1.0" encoding="utf-8"?>
<svg version="1.1" id="Layer_1" xmlns="http://www.w3.org/2000/svg" xmlns:xlink="http://www.w3.org/1999/xlink" x="0px" y="0px"
	 viewBox="-22 -22 64 64" style="enable-background:new 0 0 20 20;" xml:space="preserve">
<style type="text/css">
	.st0{fill:#FFFFFF;stroke:#B6B6B6;stroke-width:0.15;stroke-miterlimit:10;}
	.st1{fill:#E8112D;}
	.st2{fill:#CCCCCC;}
</style>
<circle class="st0" cx="10" cy="10" r="28.8000011"/>
<path class="st1" d="M38.4220047,5.5539989H14.4460011v-23.9759998C12.9909992-18.6469994,11.5150003-18.7999992,10-18.7999992
	s-2.9909992,0.1529999-4.4460011,0.3779984V5.5539989h-23.9759998C-18.6469994,7.0090008-18.7999992,8.4849997-18.7999992,10
	s0.1529999,2.9909992,0.3779984,4.4460011H5.5539989v23.9760036C7.0090008,38.6469994,8.4849997,38.8000031,10,38.8000031
	s2.9909992-0.1530037,4.4460011-0.3779984V14.4460011h23.9760036C38.6469994,12.9909992,38.8000031,11.5150003,38.8000031,10
	S38.6469994,7.0090008,38.4220047,5.5539989z"/>
<path class="st1" d="M-4.6699996-3.3380003c0-0.5219994,0.0900006-1.0349994,0.1560001-1.5479994
	c-1.0559993,0.2100005-2.1300001,0.3209996-3.2069993,0.3779998c0.0570002-1.0770006,0.1710005-2.151,0.3779998-3.2069993
	C-7.862-7.6519995-8.375-7.5620003-8.8970003-7.5620003s-1.0349998-0.0900006-1.5479994-0.1560001
	c0.2069998,1.0590005,0.3210001,2.1300001,0.3779993,3.2070007c-1.0769997-0.0570002-2.1509991-0.1680007-3.21-0.375
	c0.0690002,0.5159998,0.1590004,1.026,0.1590004,1.5479994s-0.0900002,1.0349994-0.1590004,1.5479994
	c1.059-0.2069993,2.1300001-0.3209996,3.2070007-0.3779998c-0.0539999,1.0770006-0.1680002,2.151-0.3780003,3.2100005
	c0.5159998-0.0689993,1.0320005-0.1589999,1.5480003-0.1589999c0.5219994,0,1.0349998,0.0900006,1.5479999,0.1560001
	c-0.2069993-1.0559993-0.3209996-2.1300001-0.3779998-3.2069993C-6.6469994-2.1110005-5.573-1.9970002-4.5139995-1.7899995
	C-4.5830002-2.3029995-4.6699996-2.8189993-4.6699996-3.3380003z"/>
<path class="st1" d="M33.1179962-3.3380003c0-0.5219994,0.090004-1.0349994,0.156002-1.5479994
	c-1.0559959,0.2069993-2.1299973,0.3209996-3.2070007,0.3779998c0.0569973-1.0770006,0.1709976-2.151,0.3779984-3.2069993
	c-0.5160027,0.0689993-1.0290012,0.1560001-1.5480022,0.1560001s-1.0350018-0.0900006-1.5479984-0.1560001
	c0.2070007,1.0590005,0.3209991,2.1300001,0.3780003,3.2070007c-1.0770016-0.0570002-2.1509991-0.1710005-3.2070007-0.3779998
	c0.0689983,0.5159998,0.1560001,1.0289998,0.1560001,1.5479994c0,0.5219994-0.0900002,1.0349994-0.1560001,1.5479994
	c1.059-0.2069993,2.1299992-0.3209996,3.2070007-0.3779998c-0.0570011,1.0770006-0.1709995,2.151-0.3780003,3.2070007
	c0.5159988-0.0689993,1.0289974-0.1560001,1.5479984-0.1560001s1.0349979,0.0900006,1.5480022,0.1560001
	c-0.2070007-1.0560007-0.3210011-2.1300001-0.3779984-3.2070007c1.0769978,0.0570002,2.1509972,0.1710005,3.2070007,0.3779998
	C33.2080002-2.3029995,33.1179962-2.8189993,33.1179962-3.3380003z"/>
<path class="st1" d="M-4.6699996,23.3380013c0-0.5219994,0.0900006-1.0350018,0.1560001-1.5480003
	c-1.0559993,0.2070007-2.1300001,0.3210011-3.2069993,0.3780022c0.0570002-1.0770016,0.1710005-2.151001,0.3779998-3.2070007
	c-0.5159998,0.0689983-1.0289998,0.1559982-1.5479999,0.1559982c-0.5220003,0-1.0349998-0.0899982-1.5480003-0.1559982
	c0.2069998,1.0589981,0.3210001,2.1299992,0.3780003,3.2070007c-1.0770006-0.0570011-2.151001-0.1710014-3.2070007-0.3780022
	c0.0690002,0.5159988,0.1560001,1.0290012,0.1560001,1.5480003c0,0.5219994-0.0900002,1.0349998-0.1560001,1.5479984
	c1.059-0.2070007,2.1300001-0.3210011,3.2070007-0.3780003c-0.0570011,1.0769997-0.1710005,2.1509991-0.3780003,3.2070007
	c0.5159998-0.0690002,1.0289993-0.156002,1.5480003-0.156002c0.5219994,0,1.0349998,0.0900002,1.5479999,0.156002
	c-0.2069993-1.0560017-0.3209996-2.1300011-0.3779998-3.2070007c1.0770006,0.0569992,2.151,0.1709995,3.2070007,0.3780003
	C-4.5830002,24.3699989-4.6699996,23.8600006-4.6699996,23.3380013z"/>
<path class="st1" d="M33.1179962,23.3380013c0-0.5219994,0.090004-1.0350018,0.156002-1.5480003
	c-1.0559959,0.2070007-2.1299973,0.3210011-3.2070007,0.3780022c0.0569973-1.0770016,0.1709976-2.151001,0.3779984-3.2070007
	c-0.5160027,0.0689983-1.0290012,0.1559982-1.5480022,0.1559982s-1.0350018-0.0899982-1.5479984-0.1559982
	c0.2070007,1.0589981,0.3209991,2.1299992,0.3780003,3.2070007c-1.0770016-0.0570011-2.1509991-0.1710014-3.2070007-0.3780022
	c0.0689983,0.5159988,0.1560001,1.0290012,0.1560001,1.5480003c0,0.5219994-0.0900002,1.0349998-0.1560001,1.5479984
	c1.059-0.2070007,2.1299992-0.3210011,3.2070007-0.3780003c-0.0570011,1.0769997-0.1709995,2.1509991-0.3780003,3.2070007
	c0.5159988-0.0690002,1.0289974-0.156002,1.5479984-0.156002s1.0349979,0.0900002,1.5480022,0.156002
	c-0.2070007-1.0560017-0.3210011-2.1300011-0.3779984-3.2070007c1.0769978,0.0569992,2.1509972,0.1709995,3.2070007,0.3780003
	C33.2080002,24.3699989,33.1179962,23.8600006,33.1179962,23.3380013z"/>
<path class="st2" d="M10-18.5c15.5999985,0,28.5,12.9000006,28.5,28.5S25.5999985,38.5,10,38.5S-18.5,25.5999985-18.5,10
	S-5.5999994-18.5,10-18.5 M10-20C-6.5-20-20-6.5-20,10s13.5,30,30,30s30-13.5,30-30S26.5-20,10-20L10-20z"/>
</svg>
