<?xml version="1.0" encoding="utf-8"?>
<svg version="1.1" id="Layer_1" xmlns="http://www.w3.org/2000/svg" xmlns:xlink="http://www.w3.org/1999/xlink" x="0px" y="0px"
	 viewBox="-22 -22 64 64" style="enable-background:new 0 0 20 20;" xml:space="preserve">
<style type="text/css">
	.st0{fill:#006B3F;}
	.st1{fill:#FCD116;}
	.st2{fill:#CE1126;}
	.st3{fill:#CCCCCC;}
</style>
<path class="st0" d="M37.1259995,19.5999985h-54.2519989C-13.1690006,30.7810001-2.5339999,38.8000031,10,38.8000031
	S33.1689987,30.7780018,37.1259995,19.5999985z"/>
<path class="st1" d="M38.8000031,10c0-3.3719988-0.6120033-6.5910001-1.6740036-9.5999994h-54.2519989
	C-18.1879997,3.4089999-18.7999992,6.6280012-18.7999992,10s0.6119995,6.5910015,1.6739998,9.5999985h54.2519989
	C38.1879997,16.5909996,38.8000031,13.3719988,38.8000031,10z"/>
<path class="st2" d="M10-18.7999992c-12.5340004,0-23.1690006,8.0219994-27.1259995,19.2000008h54.2519989
	C33.1689987-10.7779999,22.5340004-18.7999992,10-18.7999992z"/>
<polygon points="-0.0949993,7.7320013 7.618001,7.7320013 10,0.4000006 12.381999,7.7320013 20.0949993,7.7320013 
	13.8549995,12.2679987 16.2370014,19.5999985 10,15.0699987 3.763,19.5999985 6.1450005,12.2679987 "/>
<path class="st3" d="M10-18.5c15.5999985,0,28.5,12.9000006,28.5,28.5S25.5999985,38.5,10,38.5S-18.5,25.5999985-18.5,10
	S-5.5999994-18.5,10-18.5 M10-20C-6.5-20-20-6.5-20,10s13.5,30,30,30s30-13.5,30-30S26.5-20,10-20L10-20z"/>
</svg>
