<?xml version="1.0" encoding="utf-8"?>
<svg version="1.1" id="Layer_1" xmlns="http://www.w3.org/2000/svg" xmlns:xlink="http://www.w3.org/1999/xlink" x="0px" y="0px"
	 viewBox="-22 -22 64 64" style="enable-background:new 0 0 20 20;" xml:space="preserve">
<style type="text/css">
	.st0{fill:#FFFFFF;stroke:#B6B6B6;stroke-width:0.15;stroke-miterlimit:10;}
	.st1{fill:#DA000C;}
	.st2{fill:#F8D80E;}
	.st3{fill:none;stroke:#000000;stroke-width:0.2343;}
	.st4{fill:none;stroke:#000000;stroke-width:0.2343;stroke-linecap:square;}
	.st5{fill:none;}
	.st6{fill:none;stroke:#000000;stroke-width:0.18;}
	.st7{fill:none;stroke:#000000;stroke-width:0.2343;stroke-linecap:round;}
	.st8{fill:none;stroke:#000000;stroke-width:0.24;}
	.st9{fill:#CCCCCC;}
</style>
<circle class="st0" cx="10" cy="10" r="28.8000011"/>
<path class="st1" d="M37.0569992,19.7859993h-54.1139984C-13.0489998,30.8679981-2.4650006,38.8000031,10,38.8000031
	S33.0490036,30.8679981,37.0569992,19.7859993z"/>
<path class="st2" d="M5.4489994,34.8910027v1.8149986H9.336998v-1.8149986H8.1219988v0.9090004H6.579999v-0.906002H5.4489994
	V34.8910027z M5.4489994,32.4009972v1.8090019H6.579999v-0.9059982h1.5419998v0.9059982H9.336998v-1.8090019H5.4489994z"/>
<path class="st3" d="M5.4489994,34.8910027v1.8149986H9.336998v-1.8149986H8.1219988v0.9090004H6.579999v-0.906002H5.4489994
	V34.8910027z M5.4489994,32.4009972v1.8090019H6.579999v-0.9059982h1.5419998v0.9059982H9.336998v-1.8090019H5.4489994z"/>
<rect x="-3.3709993" y="7.3690004" width="26.7449989" height="9.9000006"/>
<polyline class="st1" points="4.1109991,15.8199987 -4.6820002,15.8199987 -6.6290007,17.1009979 -6.6290007,18.4599991 
	4.1109991,18.4599991 "/>
<polyline class="st4" points="4.1109991,15.8199987 -4.6820002,15.8199987 -6.6290007,17.1009979 -6.6290007,18.4599991 
	4.1109991,18.4599991 "/>
<polyline class="st1" points="15.8890009,15.8199987 24.6819992,15.8199987 26.6290016,17.1009979 26.6290016,18.4599991 
	15.8890009,18.4599991 "/>
<polyline class="st4" points="15.8890009,15.8199987 24.6819992,15.8199987 26.6290016,17.1009979 26.6290016,18.4599991 
	15.8890009,18.4599991 "/>
<line class="st5" x1="-6.6290007" y1="17.1009979" x2="26.6290016" y2="17.1009979"/>
<line class="st4" x1="-6.6290007" y1="17.1009979" x2="26.6290016" y2="17.1009979"/>
<polygon class="st1" points="3.8259997,16.4830017 1.6240005,17.545002 1.6240005,19.1259995 10,19.1259995 18.3759995,19.1259995 
	18.3759995,17.545002 16.1739998,16.4830017 10,16.4830017 "/>
<polygon class="st3" points="3.8259997,16.4830017 1.6240005,17.545002 1.6240005,19.1259995 10,19.1259995 18.3759995,19.1259995 
	18.3759995,17.545002 16.1739998,16.4830017 10,16.4830017 "/>
<path class="st2" d="M13.8909998,14.9560013c-0.3029995,0.0899992-0.6839991,0.2819996-1.1519995,0.5400009
	s-1.0050001,0.5880013-1.5119991,0.9210014c-0.375,0.2490005-0.6870003,0.4949989-0.9990005,0.737999
	c-0.1080008,0.0839996-0.2550001,0.1739998-0.3509989,0.2519989c-0.1080008,0.0960007-0.1829996,0.1830006-0.2729988,0.2729988
	c-0.0570002,0.0600014-0.1350002,0.1170006-0.1800013,0.177002c-0.1199999,0.1469994-0.2399998,0.2729988-0.2399998,0.5400009
	c0,0.0479984,0,0.098999,0.0059996,0.1469994c0.177-0.2099991,0.4229994-0.3540001,0.7020006-0.387001
	c0.0030012,0,0.0059996,0,0.0090008,0c0.0059996,0,0.0209999,0,0.0300007,0h0.0059996c0.0300007-0.0030003,0.0479994,0,0.0780001,0
	s0.0479994-0.0030003,0.0780001,0c0.0419998,0.0030022,0.0810013,0.0150013,0.1199999,0.0209999
	c0.0150003-0.0149994,0.0269995-0.0299988,0.0419998-0.0419998c0.0510006-0.0450001,0.0780001-0.0810013,0.1409998-0.1319981
	c0.1230011-0.1079998,0.3270006-0.2399998,0.4830008-0.3599987c0.2519989-0.1920013,0.4859991-0.3780022,0.7860003-0.5760021
	c0.4890003-0.3239994,1.0080013-0.6390018,1.454999-0.8879986c0.4470005-0.2490005,0.8430004-0.4260006,0.9990005-0.4709988
	L13.8909998,14.9560013z"/>
<path class="st6" d="M13.8909998,14.9560013c-0.3029995,0.0899992-0.6839991,0.2819996-1.1519995,0.5400009
	s-1.0050001,0.5880013-1.5119991,0.9210014c-0.375,0.2490005-0.6870003,0.4949989-0.9990005,0.737999
	c-0.1080008,0.0839996-0.2550001,0.1739998-0.3509989,0.2519989c-0.1080008,0.0960007-0.1829996,0.1830006-0.2729988,0.2729988
	c-0.0570002,0.0600014-0.1350002,0.1170006-0.1800013,0.177002c-0.1199999,0.1469994-0.2399998,0.2729988-0.2399998,0.5400009
	c0,0.0479984,0,0.098999,0.0059996,0.1469994c0.177-0.2099991,0.4229994-0.3540001,0.7020006-0.387001
	c0.0030012,0,0.0059996,0,0.0090008,0c0.0059996,0,0.0209999,0,0.0300007,0h0.0059996c0.0300007-0.0030003,0.0479994,0,0.0780001,0
	s0.0479994-0.0030003,0.0780001,0c0.0419998,0.0030022,0.0810013,0.0150013,0.1199999,0.0209999
	c0.0150003-0.0149994,0.0269995-0.0299988,0.0419998-0.0419998c0.0510006-0.0450001,0.0780001-0.0810013,0.1409998-0.1319981
	c0.1230011-0.1079998,0.3270006-0.2399998,0.4830008-0.3599987c0.2519989-0.1920013,0.4859991-0.3780022,0.7860003-0.5760021
	c0.4890003-0.3239994,1.0080013-0.6390018,1.454999-0.8879986c0.4470005-0.2490005,0.8430004-0.4260006,0.9990005-0.4709988
	L13.8909998,14.9560013z"/>
<line class="st7" x1="10.9899998" y1="16.6120014" x2="10.9899998" y2="17.4939995"/>
<line class="st7" x1="11.5360003" y1="16.2280006" x2="11.5360003" y2="17.1009979"/>
<line class="st7" x1="12.0760012" y1="15.8890009" x2="12.0760012" y2="16.7590008"/>
<line class="st7" x1="12.6219988" y1="15.5560007" x2="12.6219988" y2="16.4499989"/>
<line class="st5" x1="1.6209993" y1="17.5419998" x2="18.3790016" y2="17.5419998"/>
<line class="st3" x1="1.6209993" y1="17.5419998" x2="18.3790016" y2="17.5419998"/>
<path class="st1" d="M0.4299998,10.131999c1.263,0,2.2979994,1.0529995,2.2979994,2.3549995v3.3270006h1.6530004V3.2139997
	h-9.0629997v12.5999994h2.8140006v-3.3270006C-1.8679996,11.2390003-0.8510003,10.131999,0.4299998,10.131999z"/>
<path class="st4" d="M0.4299998,10.131999c1.263,0,2.2979994,1.0529995,2.2979994,2.3549995v3.3270006h1.6530004V3.2139997
	h-9.0629997v12.5999994h2.8140006v-3.3270006C-1.8679996,11.2390003-0.8510003,10.131999,0.4299998,10.131999z"/>
<rect x="-1.5800004" y="-5.3060007" width="4.1669998" height="7.6409998"/>
<path class="st1" d="M-5.5609994,2.1909995h7.868999v1.0230002h-7.868999V2.1909995z M2.5750003,1.1469994H-1.073v-1.2929993
	h-2.6729994v1.2929993h-1.8150001v-1.2929993h-1.0830002v2.349h9.2189999"/>
<path class="st3" d="M-5.5609994,2.1909995h7.868999v1.0230002h-7.868999V2.1909995z M2.5750003,1.1469994H-1.073v-1.2929993
	h-2.6729994v1.2929993h-1.8150001v-1.2929993h-1.0830002v2.349h9.2189999"/>
<path class="st1" d="M-2.4379997-8.0840006v7.9380007H-1.073v-2.1810007c0-0.8189993,0.5759997-1.4849997,1.3829999-1.5269995
	c0.0269995,0,0.0510006,0,0.0780001,0c0.8430004,0,1.5269995,0.6840005,1.5269995,1.5269995v2.1810007h1.302v-7.9380007H-2.4379997z
	"/>
<path class="st3" d="M-2.4379997-8.0840006v7.9380007H-1.073v-2.1810007c0-0.8189993,0.5759997-1.4849997,1.3829999-1.5269995
	c0.0269995,0,0.0510006,0,0.0780001,0c0.8430004,0,1.5269995,0.6840005,1.5269995,1.5269995v2.1810007h1.302v-7.9380007H-2.4379997z
	"/>
<rect x="6.579999" y="-10.1719999" width="6.5970011" height="11.9849997"/>
<path class="st1" d="M11.5269995-8.3660002h0.6540012v2.5080009h-0.6540012V-8.3660002z M7.8189993-8.3660002h0.6540012v2.5080009
	H7.8189993V-8.3660002z M9.6760006-9.0409994H10h0.3239994V-5.612H10H9.6760006V-9.0409994z M6.118001-10.1659994v10.0259991
	h2.0970011v-2.9729991c0-0.6840005,0.4410009-1.638,1.7850008-1.638c1.3470011,0,1.7850008,0.9539995,1.7850008,1.638v2.9760003
	h2.0970011v-10.0290003H10H6.118001z"/>
<path class="st3" d="M11.5269995-8.3660002h0.6540012v2.5080009h-0.6540012V-8.3660002z M7.8189993-8.3660002h0.6540012v2.5080009
	H7.8189993V-8.3660002z M9.6760006-9.0409994H10h0.3239994V-5.612H10H9.6760006V-9.0409994z M6.118001-10.1659994v10.0259991
	h2.0970011v-2.9729991c0-0.6840005,0.4410009-1.638,1.7850008-1.638c1.3470011,0,1.7850008,0.9539995,1.7850008,1.638v2.9760003
	h2.0970011v-10.0290003H10H6.118001z"/>
<polygon class="st1" points="5.4100008,-11.6059999 5.4100008,-10.1809998 10,-10.1809998 14.5899992,-10.1809998 
	14.5899992,-11.6059999 10,-11.6059999 "/>
<polygon class="st4" points="5.4100008,-11.6059999 5.4100008,-10.1809998 10,-10.1809998 14.5899992,-10.1809998 
	14.5899992,-11.6059999 10,-11.6059999 "/>
<polygon class="st1" points="4.5429993,-13.2679996 4.5429993,-11.6059999 10,-11.6059999 15.4570007,-11.6059999 
	15.4570007,-13.2679996 14.0830002,-13.2679996 14.0830002,-12.3529997 12.5379992,-12.3529997 12.5379992,-13.2679996 
	10.7740011,-13.2679996 10.7740011,-12.3529997 10,-12.3529997 9.2259989,-12.3529997 9.2259989,-13.2679996 7.4620008,-13.2679996 
	7.4620008,-12.3529997 5.9169998,-12.3529997 5.9169998,-13.2679996 "/>
<polygon class="st4" points="4.5429993,-13.2679996 4.5429993,-11.6059999 10,-11.6059999 15.4570007,-11.6059999 
	15.4570007,-13.2679996 14.0830002,-13.2679996 14.0830002,-12.3529997 12.5379992,-12.3529997 12.5379992,-13.2679996 
	10.7740011,-13.2679996 10.7740011,-12.3529997 10,-12.3529997 9.2259989,-12.3529997 9.2259989,-13.2679996 7.4620008,-13.2679996 
	7.4620008,-12.3529997 5.9169998,-12.3529997 5.9169998,-13.2679996 "/>
<rect x="-2.9299998" y="-9.1610003" class="st1" width="6.5819993" height="1.0740001"/>
<rect x="-2.9299998" y="-9.1610003" class="st4" width="6.5819993" height="1.0740001"/>
<polygon class="st1" points="-3.776,-11.2189999 -3.776,-9.1610003 4.1230011,-9.1610003 4.1230011,-11.2189999 
	2.9080005,-11.2189999 2.9080005,-10.1719999 1.4349999,-10.1719999 1.4349999,-11.2189999 -0.8060007,-11.2189999 
	-0.8060007,-10.1719999 -2.276,-10.1719999 -2.276,-11.2189999 "/>
<polygon class="st4" points="-3.776,-11.2189999 -3.776,-9.1610003 4.1230011,-9.1610003 4.1230011,-11.2189999 
	2.9080005,-11.2189999 2.9080005,-10.1719999 1.4349999,-10.1719999 1.4349999,-11.2189999 -0.8060007,-11.2189999 
	-0.8060007,-10.1719999 -2.276,-10.1719999 -2.276,-11.2189999 "/>
<rect x="9.3370008" y="24.7719994" class="st2" width="1.1219988" height="13.0739994"/>
<rect x="9.3370008" y="24.7719994" class="st3" width="1.1219988" height="13.0739994"/>
<path class="st2" d="M6.6999989,22.4589996H6.0760012v0.9990005h0.6239977L9.901,25.3150024l3.2010012-1.8570023h0.6240005
	v-0.9990005h-0.6240005L9.901,20.6019974L6.6999989,22.4589996z M9.8979988,21.5649986l2.3909998,1.3950005l-2.3909998,1.3859997
	l-2.3879986-1.3859997L9.8979988,21.5649986z"/>
<path class="st8" d="M6.6999989,22.4589996H6.0760012v0.9990005h0.6239977L9.901,25.3150024l3.2010012-1.8570023h0.6240005
	v-0.9990005h-0.6240005L9.901,20.6019974L6.6999989,22.4589996z M9.8979988,21.5649986l2.3909998,1.3950005l-2.3909998,1.3859997
	l-2.3879986-1.3859997L9.8979988,21.5649986z"/>
<path class="st2" d="M6.1479988,14.9859991l-0.263998,0.7440004c0.8640003,0.3120003,2.0910015,0.9179993,3.0720005,1.5119991
	c0.4919987,0.296999,0.9210005,0.5879993,1.2149992,0.828001c0.1469994,0.1199989,0.2609997,0.2339993,0.3239994,0.3089981
	c0.0090008,0.0090008,0.0179987,0.0209999,0.0209999,0.0300007c0,0.0030003,0,0.0059986,0,0.0059986
	c0.0059996,0.012001,0.0119991,0.0209999,0.0150003,0.0300026c-0.0059996,0.0509987-0.0150003,0.1049995-0.0300007,0.1409988
	c0,0.0030022-0.0059996,0.0119991-0.0090008,0.0149994v0.0060005l-0.0059996,0.0060005
	c-0.0059996,0.0059986-0.0090008,0.0149994-0.0150003,0.0209999c0,0-0.0059996,0.0059986-0.0090008,0.0059986
	c0,0.0030003-0.0059996,0.0059986-0.0059996,0.0090008c-0.0030012,0.0030022-0.0119991,0.0060005-0.0150003,0.0090008
	c-0.0059996,0.0030003-0.0150003,0.0119991-0.0209999,0.0150013c-0.032999,0.0149994-0.0839996,0.0209999-0.1710005,0.0209999
	c-0.0479994,0-0.0899992-0.0090027-0.1169987-0.0150013c-0.0119991-0.0030003-0.0269995-0.0030003-0.0360003-0.0090008
	c-0.0030012,0-0.0119991-0.0060005-0.0150003-0.0060005c-0.0090008-0.0030003-0.0150003-0.0089989-0.0209999-0.0149994
	c-0.0030012-0.0030022-0.0059996-0.0060005-0.0090008-0.0090008l-0.0059996-0.0059986
	c-0.0030012-0.0030022-0.0059996-0.012001-0.0090008-0.0150013h-0.0059996c0,0-0.0059996,0-0.0090008,0s-0.0059996,0-0.0059996,0
	c-0.0030012,0-0.0119991,0-0.0150003,0c-0.0240011,0-0.0419998-0.0030003-0.0629997,0
	c-0.2580013,0.0269985-0.4770012,0.2099991-0.5460005,0.4649982v0.0060005c0,0,0.0059996,0.0060005,0.0090008,0.0090008
	s0.0119991,0.0119991,0.0150003,0.0150013c0.1800013,0.218998,0.4890003,0.3659973,0.8339996,0.3659973
	c0.3659992,0,0.6839991-0.152998,0.8580008-0.3809986c0.177-0.2280006,0.2189999-0.4859982,0.2189999-0.6960011
	c0-0.2459984-0.1080008-0.3899994-0.2249994-0.5279999c-0.1140003-0.1379967-0.2640009-0.2729988-0.4350014-0.4139977
	c-0.3449993-0.2819996-0.795001-0.5849991-1.3079996-0.894001C8.3380003,15.9489994,7.0930004,15.3280001,6.1479988,14.9859991z"/>
<path class="st6" d="M6.1479988,14.9859991l-0.263998,0.7440004c0.8640003,0.3120003,2.0910015,0.9179993,3.0720005,1.5119991
	c0.4919987,0.296999,0.9210005,0.5879993,1.2149992,0.828001c0.1469994,0.1199989,0.2609997,0.2339993,0.3239994,0.3089981
	c0.0090008,0.0090008,0.0179987,0.0209999,0.0209999,0.0300007c0,0.0030003,0,0.0059986,0,0.0059986
	c0.0059996,0.012001,0.0119991,0.0209999,0.0150003,0.0300026c-0.0059996,0.0509987-0.0150003,0.1049995-0.0300007,0.1409988
	c0,0.0030022-0.0059996,0.0119991-0.0090008,0.0149994v0.0060005l-0.0059996,0.0060005
	c-0.0059996,0.0059986-0.0090008,0.0149994-0.0150003,0.0209999c0,0-0.0059996,0.0059986-0.0090008,0.0059986
	c0,0.0030003-0.0059996,0.0059986-0.0059996,0.0090008c-0.0030012,0.0030022-0.0119991,0.0060005-0.0150003,0.0090008
	c-0.0059996,0.0030003-0.0150003,0.0119991-0.0209999,0.0150013c-0.032999,0.0149994-0.0839996,0.0209999-0.1710005,0.0209999
	c-0.0479994,0-0.0899992-0.0090027-0.1169987-0.0150013c-0.0119991-0.0030003-0.0269995-0.0030003-0.0360003-0.0090008
	c-0.0030012,0-0.0119991-0.0060005-0.0150003-0.0060005c-0.0090008-0.0030003-0.0150003-0.0089989-0.0209999-0.0149994
	c-0.0030012-0.0030022-0.0059996-0.0060005-0.0090008-0.0090008l-0.0059996-0.0059986
	c-0.0030012-0.0030022-0.0059996-0.012001-0.0090008-0.0150013h-0.0059996c0,0-0.0059996,0-0.0090008,0s-0.0059996,0-0.0059996,0
	c-0.0030012,0-0.0119991,0-0.0150003,0c-0.0240011,0-0.0419998-0.0030003-0.0629997,0
	c-0.2580013,0.0269985-0.4770012,0.2099991-0.5460005,0.4649982v0.0060005c0,0,0.0059996,0.0060005,0.0090008,0.0090008
	s0.0119991,0.0119991,0.0150003,0.0150013c0.1800013,0.218998,0.4890003,0.3659973,0.8339996,0.3659973
	c0.3659992,0,0.6839991-0.152998,0.8580008-0.3809986c0.177-0.2280006,0.2189999-0.4859982,0.2189999-0.6960011
	c0-0.2459984-0.1080008-0.3899994-0.2249994-0.5279999c-0.1140003-0.1379967-0.2640009-0.2729988-0.4350014-0.4139977
	c-0.3449993-0.2819996-0.795001-0.5849991-1.3079996-0.894001C8.3380003,15.9489994,7.0930004,15.3280001,6.1479988,14.9859991z"/>
<line class="st7" x1="9.5620003" y1="16.7560005" x2="9.4899998" y2="17.5090008"/>
<line class="st7" x1="10.1860008" y1="17.1429977" x2="9.9940004" y2="17.8780022"/>
<line class="st7" x1="10.8549995" y1="17.6529999" x2="10.4499989" y2="18.2229996"/>
<line class="st7" x1="11.0589991" y1="19.0389977" x2="10.4709988" y2="18.7270012"/>
<line class="st7" x1="11.2449999" y1="18.4210014" x2="10.5699987" y2="18.4840012"/>
<line class="st7" x1="10.375" y1="19.3959999" x2="10.3270006" y2="18.8050003"/>
<line class="st7" x1="10.1259995" y1="18.7209988" x2="9.5710011" y2="19.1290016"/>
<line class="st7" x1="7.4499989" y1="15.6099997" x2="7.4499989" y2="16.3120003"/>
<line class="st7" x1="8.8659992" y1="16.3570023" x2="8.8659992" y2="17.1520004"/>
<line class="st7" x1="8.1610003" y1="15.9849997" x2="8.1610003" y2="16.7320023"/>
<path class="st2" d="M11.1519995,19.0419998c-0.0119991,0.0179977-0.0240011,0.0389977-0.0360003,0.0569992
	c-0.0959988,0.1200008-0.2280006,0.222002-0.3869991,0.2880001v1.7010021l0.4499989,0.2579994v-2.072998
	c0-0.0810013-0.0059996-0.1590023-0.0209999-0.2340012C11.1610003,19.0419998,11.1550007,19.0419998,11.1519995,19.0419998z
	 M9.8530006,18.1629982c-0.5219994,0.0810013-0.9210005,0.5550022-0.9210005,1.1130028v2.4839993
	c0,0.6120014,0.4859991,1.1159992,1.0830002,1.1159992c0.0150003,0,0.0269995,0,0.0419998,0s0.0269995,0,0.0419998,0
	c0.4229994,0,0.7919998-0.2580013,0.9720011-0.6240005l-0.3869991-0.2340012
	c-0.0959988,0.2400017-0.3239994,0.3990021-0.5849991,0.3990021c-0.0119991,0-0.0209999,0-0.0300007,0
	c-0.0030012,0-0.0119991,0-0.0150003,0s-0.0119991,0-0.0150003,0c-0.0090008,0-0.0179987,0-0.0300007,0
	c-0.3480005,0-0.6330013-0.2879982-0.6330013-0.6599998v-2.4840012c0-0.375,0.2850008-0.6540012,0.6330013-0.6540012
	c0.0119991,0,0.0209999,0,0.0300007,0c0.0030012,0,0.0119991,0,0.0150003,0s0.0119991,0,0.0150003,0
	c0.0090008,0,0.0179987,0,0.0300007,0c0.099,0,0.1889992,0.0240002,0.2729988,0.0629997c0,0,0.0059996,0,0.0090008,0
	c0.0179987-0.0030003,0.0360003-0.0090008,0.0479994-0.0150013c0.0059996-0.0030003,0.0179987-0.0119972,0.0209999-0.0149994
	c0-0.0030022,0.0059996-0.0060005,0.0059996-0.0090008c0,0,0.0059996,0,0.0090008,0c0,0,0.0059996-0.0059986,0.0090008-0.0090008
	l0.0059996-0.0060005c0.0059996-0.0059986,0.0119991-0.0149994,0.0150003-0.0209999V18.600996l0.0090008-0.0059986
	c0-0.0030022,0.0059996-0.012001,0.0059996-0.0150013c0.0150003-0.0360012,0.0240011-0.0899982,0.0300007-0.1410007
	c-0.0030012-0.0059986-0.0090008-0.0179977-0.0150003-0.0299988v-0.0060005
	c-0.0059996-0.0090008-0.0150003-0.0209999-0.0209999-0.0300007c-0.045001-0.0539989-0.1230011-0.1259995-0.2189999-0.2099991
	h-0.0059996c-0.0059996-0.0030003-0.0209999-0.0059986-0.0300007-0.0090008c0,0-0.0059996,0-0.0090008,0s-0.0119991,0-0.0150003,0
	h-0.0059996c-0.0059996,0-0.0119991,0-0.0150003,0c-0.0059996,0-0.0209999,0-0.0300007,0
	c-0.0269995-0.0030022-0.0479994,0-0.0780001,0c-0.0179987,0-0.0269995,0-0.0419998,0s-0.0269995,0-0.0419998,0
	c-0.0300007,0-0.0479994-0.0030022-0.0780001,0c-0.0059996,0-0.0209999,0-0.0300007,0c-0.0030012,0-0.0119991,0-0.0150003,0
	s-0.0059996,0-0.0059996,0c-0.0030012,0-0.0119991,0-0.0150003,0c0,0-0.0059996,0-0.0090008,0
	C9.8620014,18.1660004,9.855999,18.1629982,9.8530006,18.1629982z"/>
<path d="M10.099,22.993h-0.0839996c-0.6600008,0-1.1970005-0.5519981-1.1970005-1.2359982v-2.480999
	c0-0.605999,0.4320002-1.1280003,1.0050001-1.2270012l0.0300007-0.0570011l0.0870008,0.0540009h0.1739988v-0.1650009
	l0.1350002,0.1349983l0.0899992-0.0419998l0.0090008,0.0810013l0.0389986,0.0480003
	c0.0870008,0.0779991,0.1619997,0.1469994,0.2039995,0.198l0.0629997,0.1169987l-0.0030012,0.0359993
	c-0.0090008,0.078001-0.0209999,0.132-0.0360003,0.1739998v0.0600014l-0.0479994,0.0179977v0.0629997l-0.1020012,0.0060005
	c0,0-0.0269995,0.0119991-0.0539989,0.0179977l-0.1469994,0.0419998v-0.0719986
	c-0.0510006-0.0209999-0.1080008-0.0300026-0.1679993-0.0300026h-0.0839996c-0.2910004,0-0.519001,0.2370033-0.519001,0.5400009
	v2.480999c0,0.3060017,0.2280006,0.5429993,0.519001,0.5429993h0.0839996c0.2070007,0,0.3959999-0.1289997,0.474-0.3269997
	l0.0510006-0.1259995l0.5939999,0.3570023l-0.045001,0.0959969C10.9720011,22.717001,10.5460005,22.993,10.099,22.993z
	 M9.8649998,18.2770004L9.8649998,18.2770004c-0.4649992,0.0719986-0.8189993,0.5009995-0.8189993,0.9990005V21.757
	c0,0.5519981,0.4350014,1.0049992,0.9689999,1.0049992H10.099c0.3270006,0,0.6390009-0.1800022,0.8160009-0.4680004
	l-0.1829996-0.1110001c-0.1350002,0.2190018-0.3719988,0.3540001-0.6300001,0.3540001h-0.0839996
	c-0.420001,0-0.75-0.3389988-0.75-0.7769985v-2.480999c0-0.4320011,0.3270006-0.7709999,0.75-0.7709999h0.0839996
	c0.099,0,0.1889992,0.0209999,0.2790012,0.0570011v-0.0150013l0.0300007-0.0209999c0-0.0090008,0.0059996-0.0300007,0.0119991-0.066
	l-0.0030012-0.0030022c-0.0510006-0.0600014-0.1109991-0.1140003-0.1800013-0.1800003l-0.131999-0.0030022
	c-0.0209999,0-0.0209999,0.0030022-0.0419998,0l-0.177,0.0030022C9.8769989,18.2800007,9.8709993,18.2800007,9.8649998,18.2770004z
	 M11.2960005,21.5500011l-0.6810007-0.3959999v-1.842001l0.0689993-0.032999
	c0.1379986-0.0570011,0.2550001-0.1469994,0.342001-0.2519989l0.0600014-0.1020012h0.1560001l0.0269995,0.0899982
	c0.0179987,0.078001,0.0269995,0.1620007,0.0269995,0.2580032V21.5500011z"/>
<path class="st1" d="M19.5699997,10.131999c-1.2630024,0-2.2980003,1.0529995-2.2980003,2.3549995v3.3270006h-1.6529989V3.2139997
	h9.0629988v12.5999994H21.868v-3.3270006C21.868,11.2390003,20.8509979,10.131999,19.5699997,10.131999z"/>
<path d="M24.7960014,15.9310007h-3.0389996v-3.4410009c0-1.2149992-1.0019989-2.2409992-2.1899986-2.2409992
	c-1.203001,0-2.1870003,1.0080013-2.1870003,2.2409992v3.4379997h-1.875V3.1030006h9.2880001
	C24.7960014,3.1030006,24.7960014,15.9310007,24.7960014,15.9310007z M21.9820023,15.7030001h2.5860004v-12.375h-8.8380032v12.375
	h1.4250011v-3.2130003c0-1.3620014,1.0799999-2.4660015,2.4120007-2.4660015c1.3079987,0,2.4119987,1.1309996,2.4119987,2.4660015
	v3.2130003H21.9820023z"/>
<polygon class="st1" points="2.5180001,3.2139997 2.5180001,4.2490005 10,4.2490005 17.4820023,4.2490005 17.4820023,3.2139997 
	10,3.2139997 "/>
<path d="M17.5959988,4.3599997H2.4039998V3.0999994h15.1860008L17.5959988,4.3599997L17.5959988,4.3599997z M2.6290007,4.1350002
	h14.7359991V3.3250003H2.6290007V4.1350002z"/>
<rect x="17.4129982" y="-5.3060007" width="4.1669998" height="7.6409998"/>
<path class="st1" d="M25.5610008,2.1909995h-7.8689995v1.0230002h7.8689995V2.1909995z M17.4250011,1.1469994h3.6450005v-1.2929993
	h2.6760006v1.2929993h1.8149986v-1.2929993h1.0830002v2.349h-9.2189999"/>
<path d="M25.6689987,3.3280001h-8.0939999V2.3170004h-0.1560001V2.0889997h9.1080017v-2.1239991h-0.8610001v1.2930007h-2.0369987
	v-1.2930007h-2.4510021v1.2930007h-3.7619991V1.0360003h3.5369987v-1.2960005h2.901001V1.032999h1.5870018v-1.2929993h1.3110008
	v2.5739994h-1.0860023L25.6689987,3.3280001L25.6689987,3.3280001z M17.8059998,3.1030006h7.6410007V2.3170004h-7.6410007V3.1030006
	z"/>
<path class="st1" d="M22.4379997-8.0840006v7.9380007H21.073v-2.1810007c0-0.8189993-0.5760021-1.4849997-1.3830013-1.5269995
	c-0.0270004,0-0.0510006,0-0.0779991,0c-0.8430023,0-1.5270004,0.6840005-1.5270004,1.5269995v2.1810007h-1.302v-7.9380007
	H22.4379997z"/>
<path d="M22.5489998-0.0349994h-1.5900002v-2.2920012c0-0.7680001-0.5460014-1.3770003-1.2750015-1.4130006h-0.0419998
	c-0.8069992,0-1.4429989,0.6329999-1.4429989,1.4130006v2.2919998h-1.5269985v-8.1599989h5.8769989V-0.0349994z
	 M21.1870003-0.2600002h1.1399994v-7.7099991h-5.4300003v7.7099991h1.0769997v-2.0670004
	c0-0.9000006,0.7380028-1.638,1.6380024-1.638h0.0810013c0.8490009,0.0419998,1.4909992,0.7470002,1.4909992,1.638
	C21.1870003-2.3270006,21.1870003-0.2600002,21.1870003-0.2600002z"/>
<polygon class="st1" points="1.9060001,-0.1459999 1.9060001,3.2139997 10,3.2139997 18.0939999,3.2139997 18.0939999,-0.1459999 
	16.5610008,-0.1459999 16.5610008,1.1469994 14.5209999,1.1469994 14.5209999,-0.1459999 11.7850008,-0.1459999 
	11.7850008,1.1469994 10,1.1469994 8.2149992,1.1469994 8.2149992,-0.1459999 5.4790001,-0.1459999 5.4790001,1.1469994 
	3.4390006,1.1469994 3.4390006,-0.1459999 "/>
<path d="M18.2080002,3.3280001H1.7949996v-3.5880003h1.7579999V1.032999h1.8149986v-1.2929993h2.9609985V1.032999h3.3480005
	v-1.2929993h2.9610014V1.032999h1.8120003v-1.2929993h1.7609997L18.2080002,3.3280001L18.2080002,3.3280001z M2.0200005,3.1030006
	h15.9599991v-3.138h-1.3110008v1.2930007h-2.2589979v-1.2930007h-2.5109997v1.2930007H8.1009989v-1.2930007H5.5899992v1.2930007
	H3.3280001v-1.2930007H2.0200005V3.1030006z"/>
<rect x="16.3509979" y="-9.1610003" class="st1" width="6.5820007" height="1.0740001"/>
<path d="M23.0439987-7.9699993h-6.8039989v-1.302001h6.8039989V-7.9699993z M16.4620018-8.1949997h6.3570004v-0.8520002h-6.3569984
	C16.4620037-9.0469999,16.4620037-8.1949997,16.4620018-8.1949997z"/>
<polygon class="st1" points="23.776001,-11.2189999 23.776001,-9.1610003 15.8769989,-9.1610003 15.8769989,-11.2189999 
	17.092001,-11.2189999 17.092001,-10.1719999 18.5649986,-10.1719999 18.5649986,-11.2189999 20.8059998,-11.2189999 
	20.8059998,-10.1719999 22.276001,-10.1719999 22.276001,-11.2189999 "/>
<path d="M23.8869991-9.0469999h-8.1209993v-2.2860003h1.4399977v1.0469999h1.2480011v-1.0469999h2.4659996v1.0469999h1.2480011
	v-1.0469999h1.7249985L23.8869991-9.0469999L23.8869991-9.0469999z M15.9909992-9.2720003h7.6709995v-1.8359995h-1.2719994
	v1.0469999h-1.6949978v-1.0469999h-2.0160007v1.0469999h-1.6949978v-1.0469999h-0.9899998v1.8359995H15.9909992z"/>
<rect x="9.3370008" y="25.9029999" class="st2" width="1.1219988" height="11.2650003"/>
<path d="M10.5699987,37.2789993H9.2230005V25.7919998h1.3470011C10.5700016,25.7919998,10.5700016,37.2789993,10.5699987,37.2789993
	z M9.4510012,37.0540009h0.9000006V26.013998H9.4510012V37.0540009z"/>
<path class="st1" d="M3.8530006,4.2490005v12.2280006h2.8919992v-4.5749989c0-2.1569996,1.4399986-3.1710005,3.2550001-3.1710005
	c1.7459993,0,3.2550001,1.0140009,3.2550001,3.1710005v4.5749989h2.8890009V4.2490005H10H3.8530006z"/>
<path d="M16.1469994,16.5880013h-2.8890009c-0.0600014,0-0.1109991-0.0510025-0.1109991-0.1110001v-4.5749989
	c0-2.2559996-1.6230011-3.0600014-3.144001-3.0600014c-1.9680004,0-3.1409998,1.1429987-3.1409998,3.0600014v4.5749989
	c0,0.0600014-0.0510006,0.1110001-0.1109991,0.1110001H3.8530006c-0.0599999,0-0.1110005-0.0510025-0.1110005-0.1110001V4.2490005
	c0-0.0600014,0.0510006-0.1109991,0.1110005-0.1109991H16.144001c0.0600014,0,0.1110001,0.0510006,0.1110001,0.1109991V16.473999
	C16.2580013,16.5369987,16.2070007,16.5880013,16.1469994,16.5880013z M13.3690004,16.3630009h2.6639986v-12h-12.066v12h2.664
	v-4.4639997c0-2.0250006,1.2900009-3.2819996,3.3659992-3.2819996c2.0489988,0,3.3690004,1.2900009,3.3690004,3.2819996
	L13.3690004,16.3630009L13.3690004,16.3630009z"/>
<path class="st9" d="M10-18.5c15.5999985,0,28.5,12.9000006,28.5,28.5S25.5999985,38.5,10,38.5S-18.5,25.5999985-18.5,10
	S-5.5999994-18.5,10-18.5 M10-20C-6.5-20-20-6.5-20,10s13.5,30,30,30s30-13.5,30-30S26.5-20,10-20L10-20z"/>
</svg>
