<?xml version="1.0" encoding="utf-8"?>
<svg version="1.1" id="Layer_1" xmlns="http://www.w3.org/2000/svg" xmlns:xlink="http://www.w3.org/1999/xlink" x="0px" y="0px"
	 viewBox="-22 -22 64 64" style="enable-background:new 0 0 20 20;" xml:space="preserve">
<style type="text/css">
	.st0{fill:#CE1126;}
	.st1{fill:#FCD116;}
	.st2{fill:#009460;}
	.st3{fill:#CCCCCC;}
</style>
<path class="st0" d="M-18.7999992,10c0,10.6530018,5.7989988,19.932003,14.3999996,24.9150009V-14.915
	C-13.0010004-9.9320002-18.7999992-0.6530004-18.7999992,10z"/>
<path class="st1" d="M24.4000015-14.915C20.1609993-17.3719997,15.2530012-18.7999992,10-18.7999992
	S-0.1610003-17.3719997-4.4000006-14.915v49.8300018C-0.1610003,37.3720016,4.7469988,38.8000031,10,38.8000031
	s10.1609993-1.4280014,14.4000015-3.8850021V-14.915z"/>
<path class="st2" d="M38.8000031,10c0-10.6529999-5.7990036-19.9319992-14.4000015-24.9150009v49.8300018
	C33.0009995,29.9319973,38.8000031,20.6529999,38.8000031,10z"/>
<path class="st3" d="M10-18.5c15.5999985,0,28.5,12.9000006,28.5,28.5S25.5999985,38.5,10,38.5S-18.5,25.5999985-18.5,10
	S-5.5999994-18.5,10-18.5 M10-20C-6.5-20-20-6.5-20,10s13.5,30,30,30s30-13.5,30-30S26.5-20,10-20L10-20z"/>
</svg>
