<?xml version="1.0" encoding="utf-8"?>
<svg version="1.1" id="Layer_1" xmlns="http://www.w3.org/2000/svg" xmlns:xlink="http://www.w3.org/1999/xlink" x="0px" y="0px"
	 viewBox="-22 -22 64 64" style="enable-background:new 0 0 20 20;" xml:space="preserve">
<style type="text/css">
	.st0{fill:#DE2910;}
	.st1{fill:#FFFFFF;}
	.st2{fill:#CCCCCC;}
</style>
<circle class="st0" cx="10" cy="10" r="28.8000011"/>
<g>
	<path class="st1" d="M9.0250006,9.4840002C8.1669998,8.7490005,7.5159998,7.6899986,7.1739988,6.448
		C6.6639986,4.5880003,6.9580002,2.5899992,7.9779978,0.9639997L8.1939964,1.099
		C7.2099991,2.6649995,6.9279995,4.5909986,7.4169998,6.3850002C7.7860003,7.7199993,8.5720005,8.842001,9.5529995,9.5379992
		c-1.6500006-1.8089991-1.0050001-4.7159986,1.5510006-5.8679996c1.6920004-0.7589993,3.0570002-3.888,1.8060007-5.8350005
		c-1.1159992-1.737-0.8310013-3.612,1.1190004-4.6170001C4.7080002-7.4180007,0.2529998,4.7860003,9.0250006,9.4840002z
		 M8.5119991-1.4959993L9.2889986-0.776l0.9840002-0.3900003L9.8260012-0.2030001l0.6719999,0.8189993L9.4510012,0.487
		L8.8840008,1.3809996L8.6739988,0.3430004L7.651,0.0789995l0.9239988-0.5189996L8.5119991-1.4959993z"/>
	<path class="st1" d="M10.1949987,14.545001c-0.6810007,1.8029985-2.0939999,3.2490015-3.8730011,3.9630003l-0.0930004-0.2339993
		c1.7159986-0.684,3.0780001-2.0790005,3.7320013-3.8190002c0.4890003-1.2989988,0.5100002-2.6669998,0.1259995-3.8100014
		c0.2700005,2.4329996-1.9589996,4.4069996-4.7070007,3.8339996c-1.8150001-0.3780012-4.7579999,1.3499994-4.8900003,3.6569996
		c-0.1170001,2.0610008-1.4489994,3.4140015-3.6209993,3.0749989c7.1669998,5.9969978,17.9489994-1.2600002,13.6140003-10.2149992
		C10.7469988,12.0970011,10.651,13.3389997,10.1949987,14.545001z M5.0140009,19.2970009l-0.5670004,0.894001l-0.2070007-1.0410004
		l-1.026-0.2640018l0.9210005-0.519001L4.0720005,17.310997L4.849,18.0279999l0.9840002-0.3900013l-0.4439993,0.9629993
		l0.6750011,0.8190002L5.0140009,19.2970009z"/>
	<path class="st1" d="M11.092001,9.8289995c1.1219988,0.0930004,2.2740011,0.5639992,3.2790012,1.368001
		c1.5059996,1.2060013,2.4420013,2.9940004,2.5710011,4.9110012l-0.2519989,0.0179977
		c-0.1230011-1.842001-1.0290012-3.5670004-2.4780006-4.730999c-1.0830002-0.8669987-2.3790007-1.3110008-3.5849991-1.2960005
		c2.4000006,0.4949999,3.5849991,3.2249994,2.1929998,5.6610003c-0.9210005,1.6109982-0.1860008,4.941,1.9680004,5.7810001
		c1.9229994,0.75,2.7960005,2.4329987,1.8060007,4.3950005C24.5139999,20.9709988,20.9470005,8.4759989,11.092001,9.8289995z
		 M16.9090004,18.2859993l-0.5669994,0.894001l-0.2070007-1.0379982l-1.0229988-0.2639999l0.9209995-0.519001l-0.066-1.059
		l0.7769985,0.7199993l0.9840012-0.3899994l-0.4440002,0.9629993l0.6750031,0.8189983L16.9090004,18.2859993z"/>
	<path class="st1" d="M10.2399998,8.9139986c0.4350014-1.0439987,1.2419987-1.9890003,2.3160009-2.6999989
		c1.6140003-1.0589991,3.6029997-1.3979988,5.4630003-0.927l-0.0600014,0.243001
		C16.1679993,5.0770006,14.2480011,5.4040012,12.6939993,6.427c-1.1610003,0.7619991-1.9830008,1.8599997-2.3399992,3.0090008
		c1.2120008-2.1269989,4.1760006-2.4150009,6.0629997-0.3360014c1.2449989,1.3740005,4.644001,1.7039995,6.1049995-0.0870008
		c1.3079987-1.599,3.177-1.907999,4.7370014-0.3599997C24.9820023-0.4130006,11.9949999-0.8839993,10.2399998,8.9139986z
		 M19.7019997,6.6820002l-0.5669994,0.894001l-0.2070007-1.0410004l-1.0259991-0.2640009l0.9239979-0.5159998l-0.0659981-1.0560007
		l0.7769985,0.7199993l0.9840012-0.3900003l-0.4440002,0.9599991l0.6750031,0.8189993L19.7019997,6.6820002z"/>
	<path class="st1" d="M9.1719999,10.7559996C8.2120008,11.3439999,7,11.6379986,5.7130003,11.5810013
		c-1.9260006-0.0899992-3.7349997-0.9870014-4.9649992-2.4599991l0.191999-0.1620026
		c1.1849999,1.4189987,2.9279995,2.282999,4.7849994,2.3699999c1.3859997,0.0629997,2.6970005-0.3389997,3.6629992-1.0560007
		c-2.2320013,1.0080013-4.7969999-0.5009995-5.0999994-3.2910004C4.0839996,5.1400003,1.5310001,2.875-0.7039995,3.4630003
		c-1.9980011,0.5249991-3.6929998-0.3240008-4.0440001-2.4960008C-8.2399998,9.6400003,1.9929996,17.6529999,9.1719999,10.7559996z
		 M-0.5089993,7.3389997l-0.0630012-1.0529995l0.7769995,0.717001l0.9810004-0.3869991L0.7419987,7.5760012l0.6749997,0.8189993
		L0.3669987,8.269001l-0.566999,0.8909998l-0.2069993-1.038002l-1.026-0.2669992L-0.5089993,7.3389997z"/>
</g>
<path class="st2" d="M10-18.5c15.5999985,0,28.5,12.9000006,28.5,28.5S25.5999985,38.5,10,38.5S-18.5,25.5999985-18.5,10
	S-5.5999994-18.5,10-18.5 M10-20C-6.5-20-20-6.5-20,10s13.5,30,30,30s30-13.5,30-30S26.5-20,10-20L10-20z"/>
</svg>
