<?xml version="1.0" encoding="utf-8"?>
<svg version="1.1" id="Layer_1" xmlns="http://www.w3.org/2000/svg" xmlns:xlink="http://www.w3.org/1999/xlink" x="0px" y="0px"
	 viewBox="-22 -22 64 64" style="enable-background:new 0 0 20 20;" xml:space="preserve">
<style type="text/css">
	.st0{fill:#FFFFFF;stroke:#B6B6B6;stroke-width:0.15;}
	.st1{fill:#00298C;}
	.st2{fill:#DE1818;}
	.st3{fill:#FFFFFF;}
	.st4{fill:none;stroke:#DE1818;stroke-width:0.1602;stroke-linecap:round;}
	.st5{fill:#087BA5;}
	.st6{fill:none;stroke:#3477D9;stroke-width:0.0501;}
	.st7{fill:none;stroke:#FFFFFF;stroke-width:0.0456;}
	.st8{fill:#FFFA00;}
	.st9{fill:none;stroke:#CCA300;stroke-width:0.0501;}
	.st10{fill:#CCA300;}
	.st11{fill:#663D19;}
	.st12{fill:none;stroke:#CCA300;stroke-width:0.0201;}
	.st13{fill:none;stroke:#000082;stroke-width:0.0501;}
	.st14{fill:none;stroke:#E61717;stroke-width:0.0501;}
	.st15{fill:none;stroke:#CC0000;stroke-width:0.0501;}
	.st16{fill:#8E3737;}
	.st17{fill:none;stroke:#8F3636;stroke-width:0.0501;}
	.st18{fill:none;stroke:#EFD608;stroke-width:0.0501;}
	.st19{fill:#664C00;}
	.st20{fill:none;stroke:#664C00;stroke-width:0.0501;}
	.st21{fill:none;stroke:#FFFFFF;stroke-width:0.0501;}
	.st22{fill:none;stroke:#000000;stroke-width:0.0501;}
	.st23{fill:none;stroke:#FFC700;stroke-width:0.0501;}
	.st24{fill:#FFC500;}
	.st25{fill:#FFC700;}
	.st26{fill:none;stroke:#DE1818;stroke-width:0.1602;}
	.st27{fill:none;stroke:#DE1818;stroke-width:0.1533;}
	.st28{fill:none;stroke:#FFFFFF;stroke-width:0.0513;}
	.st29{fill:none;stroke:#FFFFFF;stroke-width:0.0507;}
	.st30{fill:#CCCCCC;}
</style>
<circle class="st0" cx="10" cy="10" r="28.8000011"/>
<path class="st1" d="M37.1259995,19.5999985h-54.2519989C-13.1690006,30.7810001-2.5339999,38.8000031,10,38.8000031
	S33.1689987,30.7780018,37.1259995,19.5999985z"/>
<path class="st2" d="M10-18.7999992c-12.5340004,0-23.1690006,8.0219994-27.1259995,19.2000008h54.2519989
	C33.1689987-10.7779999,22.5340004-18.7999992,10-18.7999992z"/>
<path class="st3" d="M-1.4450002,0.1240005C2.0919995-1.1359997,6.0100002-1.8109994,9.8410015-1.823
	c3.8339996-0.0089993,7.7399998,0.5910001,11.6010017,1.9769998l2.8740005-5.7960005l-2.019001-3.5219998
	c0,0-3.605999,1.4789991-3.6359997,1.4789991s-2.5410004-2.7659998-2.5410004-2.7659998l-3.2249994,1.9499998l-3.0300007-2.316
	L7.0180016-8.5370007L3.6939993-10.46L1.2639995-7.5770006l-3.6359997-1.5539999l-1.9439993,3.4860001L-1.4450002,0.1240005z"/>
<path class="st4" d="M-1.4450002,0.1240005C2.0919995-1.1359997,6.0100002-1.8109994,9.8410015-1.823
	c3.8339996-0.0089993,7.7399998,0.5910001,11.6010017,1.9769998l2.8740005-5.7960005l-2.019001-3.5219998
	c0,0-3.605999,1.4789991-3.6359997,1.4789991s-2.5410004-2.7659998-2.5410004-2.7659998l-3.2249994,1.9499998l-3.0300007-2.316
	L7.0180016-8.5370007L3.6939993-10.46L1.2639995-7.5770006l-3.6359997-1.5539999l-1.9439993,3.4860001L-1.4450002,0.1240005z"/>
<path class="st5" d="M16.980999-1.4840002L18.625-7.3010006l3.5250015-1.4309998l1.8570004,3.1199989l-2.6670017,5.4510012
	C19.8100014-0.7730002,18.9880009-1.0399995,16.980999-1.4840002z"/>
<path class="st6" d="M16.980999-1.4840002L18.625-7.3010006l3.5250015-1.4309998l1.8570004,3.1199989l-2.6670017,5.4510012
	C19.8100014-0.7730002,18.9880009-1.0399995,16.980999-1.4840002z"/>
<path class="st5" d="M7.6989994-2.1170001l-0.552-6.0239997l2.7989988-2.2260008l2.9250011,2.2200003l-0.5159998,6.0360012
	C10.7440004-2.198,9.592001-2.1950002,7.6989994-2.1170001z"/>
<path class="st6" d="M7.6989994-2.1170001l-0.552-6.0239997l2.7989988-2.2260008l2.9250011,2.2200003l-0.5159998,6.0360012
	C10.7440004-2.198,9.592001-2.1950002,7.6989994-2.1170001z"/>
<path class="st5" d="M-1.3070002-0.1669998l-2.6129994-5.5230002l1.7460008-3.0510001l3.6179996,1.5749998L2.974-1.4660001
	C1.3239994-1.1240005,0.448-0.8449993-1.3070002-0.1669998z"/>
<path class="st6" d="M-1.3070002-0.1669998l-2.6129994-5.5230002l1.7460008-3.0510001l3.6179996,1.5749998L2.974-1.4660001
	C1.3239994-1.1240005,0.448-0.8449993-1.3070002-0.1669998z"/>
<path class="st3" d="M-1.862-2.9390006c0.8010006,0.0780001,1.362,0.0360003,2.052-0.198
	c0.8159995-0.3839993,1.0739994-0.8280001,1.3200002-1.1849999c0.1920004,0.6959996,0.1199999,1.3530006-0.8010006,1.8900003
	C-0.1220002-2-1.3129997-2.1290007-1.862-2.9390006z"/>
<path class="st7" d="M-1.862-2.9390006c0.8010006,0.0780001,1.362,0.0360003,2.052-0.198
	c0.8159995-0.3839993,1.0739994-0.8280001,1.3200002-1.1849999c0.1920004,0.6959996,0.1199999,1.3530006-0.8010006,1.8900003
	C-0.1220002-2-1.3129997-2.1290007-1.862-2.9390006z"/>
<polygon class="st8" points="10.7080002,-7.2050004 10.5489988,-7.1690001 10.5550013,-6.8839993 10.3630009,-6.8389997 
	10.2280006,-6.5900006 10.3120003,-6.5120006 10.2490005,-6.323 10.3000011,-6.2570004 10.3509989,-6.1010003 10.4799995,-6.086 
	10.5159998,-5.9030004 10.7199993,-5.8729997 10.9090014,-5.7349997 10.9239988,-5.6539998 11.1400003,-5.6480002 
	11.2900009,-5.5999994 11.8089991,-5.6599994 11.8780012,-5.7680001 11.8840008,-5.9119997 12.1629992,-5.9210005 
	12.1899986,-6.1550007 12.3370008,-6.1550007 12.3160009,-6.4160004 12.4389992,-6.4039998 12.4090014,-6.5300007 
	12.3339996,-6.6320004 12.3160009,-6.7940001 12.0999994,-7.0070004 12.052,-7.2860003 11.907999,-7.3519998 11.9019995,-7.5380006 
	12.0579996,-7.7540007 12.0460005,-7.8410001 11.8990011,-7.8439999 11.7879992,-7.7540007 11.644001,-7.7390003 
	11.644001,-7.6729994 11.6800013,-7.5469999 11.5150003,-7.5469999 11.5090008,-7.7420001 11.2719994,-7.8560004 
	11.0500011,-7.7059999 11.0410004,-7.5319996 10.9329996,-7.5020003 10.8249989,-7.664 10.6330013,-7.7360005 
	10.5310001,-7.7420001 10.5279989,-7.6160007 10.7259989,-7.3579993 "/>
<polygon class="st9" points="10.7080002,-7.2050004 10.5489988,-7.1690001 10.5550013,-6.8839993 10.3630009,-6.8389997 
	10.2280006,-6.5900006 10.3120003,-6.5120006 10.2490005,-6.323 10.3000011,-6.2570004 10.3509989,-6.1010003 10.4799995,-6.086 
	10.5159998,-5.9030004 10.7199993,-5.8729997 10.9090014,-5.7349997 10.9239988,-5.6539998 11.1400003,-5.6480002 
	11.2900009,-5.5999994 11.8089991,-5.6599994 11.8780012,-5.7680001 11.8840008,-5.9119997 12.1629992,-5.9210005 
	12.1899986,-6.1550007 12.3370008,-6.1550007 12.3160009,-6.4160004 12.4389992,-6.4039998 12.4090014,-6.5300007 
	12.3339996,-6.6320004 12.3160009,-6.7940001 12.0999994,-7.0070004 12.052,-7.2860003 11.907999,-7.3519998 11.9019995,-7.5380006 
	12.0579996,-7.7540007 12.0460005,-7.8410001 11.8990011,-7.8439999 11.7879992,-7.7540007 11.644001,-7.7390003 
	11.644001,-7.6729994 11.6800013,-7.5469999 11.5150003,-7.5469999 11.5090008,-7.7420001 11.2719994,-7.8560004 
	11.0500011,-7.7059999 11.0410004,-7.5319996 10.9329996,-7.5020003 10.8249989,-7.664 10.6330013,-7.7360005 
	10.5310001,-7.7420001 10.5279989,-7.6160007 10.7259989,-7.3579993 "/>
<line class="st9" x1="12.1960011" y1="-6.1610003" x2="12.151" y2="-6.3140006"/>
<line class="st9" x1="12.3129997" y1="-6.4160004" x2="12.2409992" y2="-6.5239997"/>
<polygon class="st10" points="10.3179998,-6.5330005 10.5429993,-6.5479994 10.5880003,-6.3439999 10.6629992,-6.2780004 
	10.6779995,-5.9089999 10.75,-5.8759995 10.7709999,-6.026 10.948,-6.0380006 10.980999,-5.7379994 10.9389992,-5.7020006 
	10.9570007,-5.6569996 11.1639986,-5.6599994 11.2149992,-5.7379994 11.3349991,-5.7470002 11.3830013,-5.6599994 
	11.4160004,-5.7739997 11.5300007,-5.8159995 11.6199999,-5.6719999 11.7729988,-5.6929998 11.6800013,-5.7830005 
	11.6409998,-5.9749994 11.8540001,-6.0889997 11.9410009,-5.948 12.0159998,-5.948 11.9229994,-6.1099997 11.9229994,-6.4459996 
	12.0849991,-6.6649995 12.3129997,-6.6890006 12.3129997,-6.7819996 12.0849991,-6.9890003 12.0250006,-7.2739997 
	11.8990011,-7.3369994 11.8630009,-7.3010006 11.7220011,-7.2860003 11.8630009,-7.0819993 11.8630009,-6.9470005 
	11.9260006,-6.914 11.9139986,-6.5419998 11.7580013,-6.5180001 11.743001,-6.3109994 11.644001,-6.2150006 11.5839996,-6.0200005 
	11.4909992,-5.9030004 11.3170004,-5.9000006 11.2120008,-6.0020003 11.1939993,-6.1430001 11.1219988,-6.164 
	11.0830002,-6.3200002 10.9630003,-6.3859997 10.9570007,-6.4790001 10.8370008,-6.5300007 10.8220005,-6.6170001 
	10.7619991,-6.6589999 10.7559996,-6.8870006 10.8609991,-6.9050007 10.8039989,-6.9769998 10.782999,-7.0430007 
	10.782999,-7.1090002 10.8699999,-7.1929998 10.7139997,-7.211 10.5639992,-7.1480002 10.5610008,-6.875 10.3869991,-6.8179998 
	10.2459993,-6.5960002 "/>
<polygon class="st9" points="10.3179998,-6.5330005 10.5429993,-6.5479994 10.5880003,-6.3439999 10.6629992,-6.2780004 
	10.6779995,-5.9089999 10.75,-5.8790007 10.7709999,-6.026 10.948,-6.0380006 10.980999,-5.7379994 10.9389992,-5.7020006 
	10.9570007,-5.6569996 11.1639986,-5.6599994 11.2149992,-5.7379994 11.3349991,-5.7470002 11.3830013,-5.6599994 
	11.4160004,-5.7739997 11.5300007,-5.8159995 11.6199999,-5.6719999 11.7729988,-5.6929998 11.6800013,-5.7830005 
	11.6409998,-5.9749994 11.8540001,-6.0889997 11.9410009,-5.948 12.0159998,-5.948 11.9229994,-6.1099997 11.9229994,-6.4459996 
	12.0849991,-6.6649995 12.3129997,-6.6890006 12.3129997,-6.7819996 12.0849991,-6.9890003 12.0250006,-7.2739997 
	11.8990011,-7.3369994 11.8630009,-7.3010006 11.7220011,-7.2860003 11.8630009,-7.0819993 11.8630009,-6.9470005 
	11.9260006,-6.914 11.9139986,-6.5419998 11.7580013,-6.5180001 11.743001,-6.3109994 11.644001,-6.2150006 11.5839996,-6.0200005 
	11.4909992,-5.9030004 11.3170004,-5.9000006 11.2120008,-6.0020003 11.1939993,-6.1430001 11.1219988,-6.164 
	11.0830002,-6.3200002 10.9630003,-6.3859997 10.9570007,-6.4790001 10.8370008,-6.5300007 10.8220005,-6.6170001 
	10.7619991,-6.6589999 10.7559996,-6.8870006 10.8609991,-6.9050007 10.8039989,-6.9769998 10.782999,-7.0430007 
	10.782999,-7.1090002 10.8699999,-7.1929998 10.7139997,-7.211 10.5639992,-7.1480002 10.5610008,-6.875 10.3869991,-6.8179998 
	10.2459993,-6.5960002 "/>
<path class="st11" d="M11.2030001-6.1610003l0.1140003-0.0659995l-0.0030012-0.1320004l-0.1109991-0.0269995l-0.0419998-0.0419998
	l0.1230011,0.0209999l0.1560001-0.0089993l0.0510006-0.0269995C11.467001-6.388998,11.4550018-6.394999,11.4490023-6.394999
	c-0.0030012,0-0.0870008,0.0419998-0.0870008,0.0419998l0.0059996,0.1259995c0,0,0.2640009,0.0360003,0.2609997,0.0360003
	s0,0.0479994-0.0090008,0.0479994s-0.2729988-0.0570002-0.2729988-0.0570002l-0.1679993,0.1019998L11.2030001-6.1610003z"/>
<path class="st12" d="M11.2030001-6.1610003l0.1140003-0.0659995l-0.0030012-0.1320004l-0.1109991-0.0269995l-0.0419998-0.0419998
	l0.1230011,0.0209999l0.1560001-0.0089993l0.0510006-0.0269995C11.467001-6.388998,11.4550018-6.394999,11.4490023-6.394999
	c-0.0030012,0-0.0870008,0.0419998-0.0870008,0.0419998l0.0059996,0.1259995c0,0,0.2640009,0.0360003,0.2609997,0.0360003
	s0,0.0479994-0.0090008,0.0479994s-0.2729988-0.0570002-0.2729988-0.0570002l-0.1679993,0.1019998L11.2030001-6.1610003z"/>
<path class="st10" d="M11.8719988-6.9439993l-0.1560001,0.1170001l-0.0959988,0.1739988L11.5689993-6.644001l-0.1500006-0.198
	l-0.1710005,0.0029998c0,0-0.0959988,0.2310004-0.0959988,0.237c0,0.0029998-0.0689993-0.0089993-0.0689993-0.0089993
	l-0.1800013-0.1920004c0,0-0.0539989-0.099-0.045001-0.099s0.4499989,0.0029998,0.4499989,0.0029998l-0.0059996-0.2069993
	c0,0-0.0689993-0.0209999-0.1049995-0.0419998c0.0269995-0.0089993,0.2459993-0.0089993,0.2459993-0.0089993l-0.0959988,0.0629997
	V-6.914l0.3900003,0.0029998L11.8719988-6.9439993z"/>
<path class="st9" d="M11.8719988-6.9439993l-0.1560001,0.1170001l-0.0959988,0.1739988L11.5689993-6.644001l-0.1500006-0.198
	l-0.1710005,0.0029998c0,0-0.0959988,0.2310004-0.0959988,0.237c0,0.0029998-0.0689993-0.0089993-0.0689993-0.0089993
	l-0.1800013-0.1920004c0,0-0.0539989-0.099-0.045001-0.099s0.4499989,0.0029998,0.4499989,0.0029998l-0.0059996-0.2069993
	c0,0-0.0689993-0.0209999-0.1049995-0.0419998c0.0269995-0.0089993,0.2459993-0.0089993,0.2459993-0.0089993l-0.0959988,0.0629997
	V-6.914l0.3900003,0.0029998L11.8719988-6.9439993z"/>
<path class="st11" d="M11.0739994-6.8419995h0.0360003c0.0179987,0,0.032999,0.0150003,0.032999,0.0330005v0.0360003
	c0,0.0180001-0.0150003,0.0330005-0.032999,0.0330005h-0.0360003c-0.0179987,0-0.032999-0.0150003-0.032999-0.0330005v-0.0390015
	C11.0410004-6.8270006,11.0529995-6.8419995,11.0739994-6.8419995z"/>
<path class="st11" d="M11.5600014-6.8629994h0.0360003c0.0179987,0,0.032999,0.0150003,0.032999,0.0330005v0.0360003
	c0,0.0180001-0.0150003,0.0330005-0.032999,0.0330005h-0.0360003c-0.0179987,0-0.032999-0.0150003-0.032999-0.0330005v-0.0360017
	C11.5300007-6.8480005,11.545001-6.8629994,11.5600014-6.8629994z"/>
<path class="st9" d="M10.8100014-7.1749997C10.9750023-7.2379994,11.0890026-7.289,11.2900009-7.3099999
	c0.1889992-0.0209999,0.3360014,0.0059996,0.506999,0.0360003"/>
<polygon class="st10" points="10.9000006,-7.5200005 10.7650003,-7.5200005 10.5789995,-7.7150006 10.6839991,-7.7030001 
	10.8100014,-7.6489997 "/>
<polygon class="st9" points="10.9000006,-7.5200005 10.7650003,-7.5200005 10.5789995,-7.7150006 10.6839991,-7.7030001 
	10.8100014,-7.6489997 "/>
<polygon class="st10" points="11.7010012,-7.5949993 12.0009995,-7.8200002 11.9019995,-7.8319993 11.7910004,-7.7329993 
	11.6560001,-7.7119994 "/>
<polygon class="st9" points="11.7010012,-7.5949993 12.0009995,-7.8200002 11.9019995,-7.8319993 11.7910004,-7.7329993 
	11.6560001,-7.7119994 "/>
<polygon class="st10" points="11.5240011,-7.5529995 11.0529995,-7.5349994 11.0560007,-7.586 11.2299995,-7.6040001 
	11.2509995,-7.6699996 11.302,-7.6699996 11.3409986,-7.6040001 11.5059996,-7.5770006 "/>
<polygon class="st9" points="11.5240011,-7.5529995 11.0529995,-7.5349994 11.0560007,-7.586 11.2299995,-7.6040001 
	11.2509995,-7.6699996 11.302,-7.6699996 11.3409986,-7.6040001 11.5059996,-7.5770006 "/>
<polygon class="st10" points="11.5,-7.7299995 11.3349991,-7.724 11.323,-7.8140006 "/>
<polygon class="st9" points="11.5,-7.7299995 11.3349991,-7.724 11.323,-7.8140006 "/>
<polygon class="st10" points="11.224,-7.8079996 11.2120008,-7.7210002 11.0529995,-7.6939993 "/>
<polygon class="st9" points="11.224,-7.8079996 11.2120008,-7.7210002 11.0529995,-7.6939993 "/>
<polygon class="st10" points="10.3239994,-6.1970005 10.4050007,-6.3980002 10.3330002,-6.539 10.2609997,-6.3319993 "/>
<polygon class="st9" points="10.3239994,-6.1970005 10.4050007,-6.3980002 10.3330002,-6.539 10.2609997,-6.3319993 "/>
<polygon class="st10" points="10.4859991,-6.0889997 10.5880003,-6.3289995 10.3959999,-6.1370006 "/>
<polygon class="st9" points="10.4859991,-6.0889997 10.5880003,-6.3289995 10.3959999,-6.1370006 "/>
<polygon class="st8" points="8.1070013,-7.1209993 7.948,-7.0850005 7.9539995,-6.7999997 7.7619991,-6.7550001 
	7.6269989,-6.5059996 7.7110014,-6.4279995 7.6479988,-6.2390003 7.6989994,-6.1729994 7.75,-6.0200005 7.8790007,-6.0020003 
	7.9119997,-5.8189993 8.1190004,-5.789 8.3079996,-5.6539998 8.3199987,-5.5700002 8.5389986,-5.5640006 8.6889992,-5.5159998 
	9.2080002,-5.5759997 9.2769995,-5.6810007 9.282999,-5.8280001 9.5620003,-5.8369994 9.5860014,-6.0709996 9.7359991,-6.0709996 
	9.7149992,-6.3319993 9.8380003,-6.3200002 9.8079996,-6.4459996 9.7330008,-6.5479994 9.7149992,-6.7100005 9.4959993,-6.9229994 
	9.4510012,-7.2020006 9.3100014,-7.2680001 9.3010006,-7.4569993 9.4599991,-7.6729994 9.4449987,-7.7570004 9.2979994,-7.7600002 
	9.1870003,-7.6729994 9.0429993,-7.6550007 9.0429993,-7.5889997 9.0789995,-7.4630003 8.9139986,-7.4630003 8.9050007,-7.6580005 
	8.6679993,-7.7719994 8.4520006,-7.6220002 8.4370003,-7.4509997 8.3320007,-7.4180007 8.224,-7.5800004 8.0290012,-7.6519995 
	7.9300013,-7.6580005 7.9239988,-7.5319996 8.125,-7.2739997 "/>
<polygon class="st9" points="8.1070013,-7.1209993 7.948,-7.0850005 7.9539995,-6.7999997 7.7619991,-6.7550001 
	7.6269989,-6.5059996 7.7110014,-6.4279995 7.6479988,-6.2390003 7.6989994,-6.1729994 7.75,-6.0200005 7.8790007,-6.0020003 
	7.9119997,-5.8189993 8.1190004,-5.789 8.3079996,-5.6539998 8.3199987,-5.5700002 8.5389986,-5.5640006 8.6889992,-5.5159998 
	9.2080002,-5.5759997 9.2769995,-5.6810007 9.282999,-5.8280001 9.5620003,-5.8369994 9.5860014,-6.0709996 9.7359991,-6.0709996 
	9.7149992,-6.3319993 9.8380003,-6.3200002 9.8079996,-6.4459996 9.7330008,-6.5479994 9.7149992,-6.7100005 9.4959993,-6.9229994 
	9.4510012,-7.2020006 9.3100014,-7.2680001 9.3010006,-7.4569993 9.4599991,-7.6729994 9.4449987,-7.7570004 9.2979994,-7.7600002 
	9.1870003,-7.6729994 9.0429993,-7.6550007 9.0429993,-7.5889997 9.0789995,-7.4630003 8.9139986,-7.4630003 8.9050007,-7.6580005 
	8.6679993,-7.7719994 8.4520006,-7.6220002 8.4370003,-7.4509997 8.3320007,-7.4180007 8.224,-7.5800004 8.0290012,-7.6519995 
	7.9300013,-7.6580005 7.9239988,-7.5319996 8.125,-7.2739997 "/>
<line class="st9" x1="9.592001" y1="-6.0770006" x2="9.5469999" y2="-6.2329993"/>
<line class="st9" x1="9.7120008" y1="-6.3319993" x2="9.6400003" y2="-6.4400001"/>
<polygon class="st10" points="7.717001,-6.4520006 7.9420004,-6.461 7.9840002,-6.2600002 8.0620003,-6.1939993 
	8.0770006,-5.8220005 8.1490011,-5.7949996 8.1669998,-5.9420004 8.3439999,-5.9539995 8.3800001,-5.6569996 8.3349991,-5.6179996 
	8.3530006,-5.573 8.5629997,-5.5759997 8.6140003,-5.6569996 8.7370014,-5.6630006 8.7819996,-5.5759997 8.8149986,-5.6900001 
	8.9289989,-5.7319999 9.019001,-5.5880003 9.1719999,-5.6090002 9.0789995,-5.6989994 9.0400009,-5.8909998 9.2530012,-6.0050001 
	9.3399992,-5.8640003 9.4150009,-5.8640003 9.3220005,-6.026 9.3220005,-6.362 9.4840002,-6.5809999 9.7120008,-6.6049995 
	9.7120008,-6.698 9.4840002,-6.9050007 9.4239988,-7.1900001 9.2979994,-7.2529998 9.2619991,-7.2169995 9.1209993,-7.2020006 
	9.2619991,-6.9979997 9.2619991,-6.8629994 9.3249989,-6.8270006 9.3160009,-6.4580002 9.1569996,-6.4340005 9.1419992,-6.2299995 
	9.0429993,-6.1309996 8.9830008,-5.9390006 8.8869991,-5.8189993 8.7130003,-5.8159995 8.6109991,-5.9180007 8.5959988,-6.0590005 
	8.5209999,-6.0800004 8.4820013,-6.2360005 8.3620014,-6.3049998 8.3530006,-6.3950005 8.2359991,-6.4489994 8.2209988,-6.5330005 
	8.1639986,-6.5720005 8.157999,-6.8060007 8.2600002,-6.8179998 8.2030001,-6.8930001 8.1820002,-6.9589996 8.1820002,-7.0280004 
	8.269001,-7.1090002 8.1130009,-7.1270003 7.9630003,-7.0640006 7.9599991,-6.7910004 7.782999,-6.737 7.6419992,-6.5150003 "/>
<polygon class="st9" points="7.717001,-6.4520006 7.9420004,-6.461 7.9840002,-6.2600002 8.0620003,-6.1939993 
	8.0770006,-5.8220005 8.1490011,-5.7949996 8.1669998,-5.9420004 8.3439999,-5.9539995 8.3800001,-5.6569996 8.3349991,-5.6179996 
	8.3530006,-5.573 8.5629997,-5.5759997 8.6140003,-5.6569996 8.7370014,-5.6630006 8.7819996,-5.5759997 8.8149986,-5.6900001 
	8.9289989,-5.7319999 9.019001,-5.5880003 9.1719999,-5.6090002 9.0789995,-5.6989994 9.0400009,-5.8909998 9.2530012,-6.0050001 
	9.3399992,-5.8640003 9.4150009,-5.8640003 9.3220005,-6.026 9.3220005,-6.362 9.4840002,-6.5809999 9.7120008,-6.6049995 
	9.7120008,-6.698 9.4840002,-6.9050007 9.4239988,-7.1900001 9.2979994,-7.2529998 9.2619991,-7.2169995 9.1209993,-7.2020006 
	9.2619991,-6.9979997 9.2619991,-6.8629994 9.3249989,-6.8270006 9.3160009,-6.4580002 9.1569996,-6.4340005 9.1419992,-6.2299995 
	9.0429993,-6.1309996 8.9830008,-5.9390006 8.8869991,-5.8189993 8.7130003,-5.8159995 8.6109991,-5.9180007 8.5959988,-6.0590005 
	8.5209999,-6.0800004 8.4820013,-6.2360005 8.3620014,-6.3049998 8.3530006,-6.3950005 8.2359991,-6.4489994 8.2209988,-6.5330005 
	8.1639986,-6.5720005 8.157999,-6.8060007 8.2600002,-6.8179998 8.2030001,-6.8930001 8.1820002,-6.9589996 8.1820002,-7.0280004 
	8.269001,-7.1090002 8.1130009,-7.1270003 7.9630003,-7.0640006 7.9599991,-6.7910004 7.782999,-6.737 7.6419992,-6.5150003 "/>
<path class="st11" d="M8.6020012-6.0770006l0.1140003-0.0659995L8.7130003-6.2750006L8.6020012-6.302l-0.0419998-0.039
	l0.1229982,0.0209999l0.1560001-0.0120006l0.0479994-0.0269995C8.8690004-6.3049998,8.8509989-6.3079996,8.8449993-6.3079996
	c-0.0030012,0-0.0870008,0.0419998-0.0870008,0.0419998L8.763998-6.1400003c0,0,0.2640009,0.0360003,0.2609997,0.0360003
	s0,0.0479994-0.0090008,0.0479994S8.7429981-6.1130009,8.7429981-6.1130009L8.5780001-6.0139995L8.6020012-6.0770006z"/>
<path class="st12" d="M8.6020012-6.0770006l0.1140003-0.0659995L8.7130003-6.2750006L8.6020012-6.302l-0.0419998-0.039
	l0.1229982,0.0209999l0.1560001-0.0120006l0.0479994-0.0269995C8.8690004-6.3049998,8.8509989-6.3079996,8.8449993-6.3079996
	c-0.0030012,0-0.0870008,0.0419998-0.0870008,0.0419998L8.763998-6.1400003c0,0,0.2640009,0.0360003,0.2609997,0.0360003
	s0,0.0479994-0.0090008,0.0479994S8.7429981-6.1130009,8.7429981-6.1130009L8.5780001-6.0139995L8.6020012-6.0770006z"/>
<path class="st10" d="M9.2709999-6.8599997L9.1149998-6.7399998L9.019001-6.5689993L8.9649992-6.5599999l-0.1500006-0.198
	L8.6469994-6.7520003c0,0-0.0959988,0.2310004-0.0959988,0.237c0,0.0029998-0.0689993-0.0089993-0.0689993-0.0089993
	L8.302-6.7160001c0,0-0.0539989-0.099-0.045001-0.099c0.0090008,0,0.4499989,0.0029998,0.4499989,0.0029998L8.7010012-7.0219994
	c0,0-0.0689993-0.0209999-0.1049995-0.0419998C8.6230011-7.0729985,8.842001-7.0729985,8.842001-7.0729985L8.7459993-7.0100002
	v0.1799998l0.3900003,0.0029998L9.2709999-6.8599997z"/>
<path class="st9" d="M9.2709999-6.8599997L9.1149998-6.7399998L9.019001-6.5689993L8.9649992-6.5599999l-0.1500006-0.198
	L8.6469994-6.7520003c0,0-0.0959988,0.2310004-0.0959988,0.237c0,0.0029998-0.0689993-0.0089993-0.0689993-0.0089993
	L8.302-6.7160001c0,0-0.0539989-0.099-0.045001-0.099c0.0090008,0,0.4499989,0.0029998,0.4499989,0.0029998L8.7010012-7.0219994
	c0,0-0.0689993-0.0209999-0.1049995-0.0419998C8.6230011-7.0729985,8.842001-7.0729985,8.842001-7.0729985L8.7459993-7.0100002
	v0.1799998l0.3900003,0.0029998L9.2709999-6.8599997z"/>
<path class="st11" d="M8.4699993-6.7579999h0.0360003c0.0179987,0,0.032999,0.0150003,0.032999,0.0330005v0.0360003
	c0,0.0180001-0.0150003,0.0330005-0.032999,0.0330005H8.4699993c-0.0179987,0-0.032999-0.0150003-0.032999-0.0330005v-0.0360003
	C8.4399986-6.7429996,8.4520006-6.7579999,8.4699993-6.7579999z"/>
<path class="st11" d="M8.9589996-6.7789998h0.0360003c0.0179987,0,0.032999,0.0150003,0.032999,0.0330005v0.0359988
	c0,0.0180001-0.0150003,0.0330005-0.032999,0.0330005H8.9589996c-0.0179987,0-0.032999-0.0150003-0.032999-0.0330005v-0.0359988
	C8.9289989-6.7639995,8.9439993-6.7789998,8.9589996-6.7789998z"/>
<path class="st9" d="M8.2089996-7.0939999c0.1650009-0.0629997,0.2790012-0.1140003,0.4799995-0.1350002
	c0.189002-0.0180001,0.3360014,0.0059996,0.5040007,0.039"/>
<polygon class="st10" points="8.2989988,-7.4359994 8.1639986,-7.4359994 7.9780006,-7.6309996 8.0860014,-7.6190004 
	8.2089996,-7.5650001 "/>
<polygon class="st9" points="8.2989988,-7.4359994 8.1639986,-7.4359994 7.9780006,-7.6309996 8.0860014,-7.6190004 
	8.2089996,-7.5650001 "/>
<polygon class="st10" points="9.0999994,-7.5109997 9.3969994,-7.7390003 9.3010006,-7.7479997 9.1899986,-7.6489997 
	9.0550013,-7.6279998 "/>
<polygon class="st9" points="9.0999994,-7.5109997 9.3969994,-7.7390003 9.3010006,-7.7479997 9.1899986,-7.6489997 
	9.0550013,-7.6279998 "/>
<polygon class="st10" points="8.9229994,-7.4660001 8.4520006,-7.4509997 8.454999,-7.5020003 8.6290007,-7.5200005 
	8.6500006,-7.586 8.7010012,-7.586 8.7399998,-7.5230002 8.9050007,-7.4929996 "/>
<polygon class="st9" points="8.9229994,-7.4660001 8.4520006,-7.4509997 8.454999,-7.5020003 8.6290007,-7.5200005 
	8.6500006,-7.586 8.7010012,-7.586 8.7399998,-7.5230002 8.9050007,-7.4929996 "/>
<polygon class="st10" points="8.8959999,-7.6430001 8.7370014,-7.6400003 8.7220011,-7.7299995 "/>
<polygon class="st9" points="8.8959999,-7.6430001 8.7370014,-7.6400003 8.7220011,-7.7299995 "/>
<polygon class="st10" points="8.6230011,-7.724 8.6109991,-7.6370006 8.4520006,-7.6099997 "/>
<polygon class="st9" points="8.6230011,-7.724 8.6109991,-7.6370006 8.4520006,-7.6099997 "/>
<polygon class="st10" points="7.7259989,-6.1129994 7.8039989,-6.3140006 7.7320013,-6.4520006 7.6600008,-6.2479997 "/>
<polygon class="st9" points="7.7259989,-6.1129994 7.8039989,-6.3140006 7.7320013,-6.4520006 7.6600008,-6.2479997 "/>
<polygon class="st10" points="7.8850002,-6.0050001 7.9840002,-6.2420001 7.7979994,-6.0499997 "/>
<polygon class="st9" points="7.8850002,-6.0050001 7.9840002,-6.2420001 7.7979994,-6.0499997 "/>
<path class="st1" d="M12.3969994-2.1199999l0.5219994-6.0419998l3.2010002-1.8389997l2.4750004,2.6820002l-1.6499996,5.8200002
	C15.3459988-1.8259997,14.4310007-1.9669995,12.3969994-2.1199999z"/>
<path class="st13" d="M12.3969994-2.1199999l0.5219994-6.0419998l3.2010002-1.8389997l2.4750004,2.6820002l-1.6499996,5.8200002
	C15.3459988-1.8259997,14.4310007-1.9669995,12.3969994-2.1199999z"/>
<polygon class="st8" points="9.4570007,-4.8649998 9.2979994,-4.8259997 9.3039989,-4.5410004 9.1090002,-4.4990005 
	8.974,-4.2470002 9.0579996,-4.1690001 8.9949999,-3.9829993 9.0460005,-3.9169998 9.0999994,-3.7609997 9.2290001,-3.7429996 
	9.2619991,-3.5629997 9.4659986,-3.5300007 9.6610003,-3.3950005 9.6729994,-3.3109994 9.8890009,-3.3049998 10.0360003,-3.2600002 
	10.5550013,-3.3170004 10.6240005,-3.4249997 10.6300001,-3.5720005 10.9090014,-3.5780001 10.9360008,-3.8120003 
	11.0830002,-3.8120003 11.0649986,-4.0759997 11.1879997,-4.0640006 11.157999,-4.1870003 11.079999,-4.2919998 
	11.0649986,-4.4509997 10.8459988,-4.664 10.7979994,-4.9429998 10.6600008,-5.0120006 10.6479988,-5.198 10.8070002,-5.414 
	10.7919998,-5.5009995 10.6450005,-5.5040007 10.5400009,-5.414 10.3929987,-5.3959999 10.3929987,-5.3300004 
	10.4289989,-5.2069993 10.2609997,-5.2069993 10.2550001,-5.3989997 10.0209999,-5.5159998 9.7989988,-5.3629994 
	9.7869997,-5.1920004 9.6789989,-5.1589999 9.5710011,-5.3209996 9.381999,-5.3930001 9.2769995,-5.3989997 9.2740011,-5.276 
	9.4720011,-5.0150003 "/>
<polygon class="st9" points="9.4570007,-4.8649998 9.2979994,-4.8259997 9.3039989,-4.5410004 9.1090002,-4.4990005 
	8.974,-4.2470002 9.0579996,-4.1690001 8.9949999,-3.9829993 9.0460005,-3.9169998 9.0999994,-3.7609997 9.2290001,-3.7429996 
	9.2619991,-3.5629997 9.4659986,-3.5300007 9.6610003,-3.3950005 9.6729994,-3.3109994 9.8890009,-3.3049998 10.0360003,-3.2600002 
	10.5550013,-3.3170004 10.6240005,-3.4249997 10.6300001,-3.5720005 10.9090014,-3.5780001 10.9360008,-3.8120003 
	11.0830002,-3.8120003 11.0649986,-4.0759997 11.1879997,-4.0640006 11.157999,-4.1870003 11.079999,-4.2919998 
	11.0649986,-4.4509997 10.8459988,-4.664 10.7979994,-4.9429998 10.6600008,-5.0120006 10.6479988,-5.198 10.8070002,-5.414 
	10.7919998,-5.5009995 10.6450005,-5.5040007 10.5400009,-5.414 10.3929987,-5.3959999 10.3929987,-5.3300004 
	10.4289989,-5.2069993 10.2609997,-5.2069993 10.2550001,-5.3989997 10.0209999,-5.5159998 9.7989988,-5.3629994 
	9.7869997,-5.1920004 9.6789989,-5.1589999 9.5710011,-5.3209996 9.381999,-5.3930001 9.2769995,-5.3989997 9.2740011,-5.276 
	9.4720011,-5.0150003 "/>
<line class="st9" x1="10.9420004" y1="-3.8179998" x2="10.9000006" y2="-3.974"/>
<line class="st9" x1="11.0589991" y1="-4.0759997" x2="10.9870014" y2="-4.1810007"/>
<polygon class="st10" points="9.0639992,-4.1929998 9.2919998,-4.2050004 9.3339996,-4.0040007 9.4119997,-3.9349999 
	9.4239988,-3.5689993 9.4959993,-3.5360003 9.5200005,-3.6829996 9.6939993,-3.698 9.7299995,-3.3980002 9.6850014,-3.3590002 
	9.7030001,-3.3140006 9.9129992,-3.3170004 9.9639997,-3.3980002 10.0839996,-3.4069996 10.1290007,-3.3170004 
	10.1650009,-3.4310007 10.276,-3.4730005 10.3659992,-3.3319993 10.5219994,-3.3530006 10.4260006,-3.4400001 
	10.3900003,-3.6350002 10.6030006,-3.7459993 10.6870003,-3.6049995 10.7650003,-3.6049995 10.6719999,-3.7700005 
	10.6719999,-4.1030006 10.8339996,-4.3220005 11.0589991,-4.349 11.0589991,-4.4390006 10.8339996,-4.6489997 
	10.7740011,-4.9340005 10.6450005,-4.9970002 10.6120014,-4.9580002 10.4680004,-4.9429998 10.6120014,-4.7390003 
	10.6120014,-4.6040001 10.6750011,-4.5709996 10.6629992,-4.2020006 10.5040007,-4.1749997 10.4890003,-3.9710002 
	10.3929987,-3.8720002 10.329999,-3.6799998 10.2399998,-3.5629997 10.0629997,-3.5599999 9.9610014,-3.6589999 
	9.9429998,-3.7999997 9.8709993,-3.8239994 9.8289995,-3.9799995 9.7120008,-4.0460005 9.7030001,-4.1389995 9.5860014,-4.1900001 
	9.5710011,-4.2769995 9.5109997,-4.3129997 9.5050001,-4.5469999 9.6070013,-4.5620003 9.5500011,-4.6370006 9.5319996,-4.7030001 
	9.5319996,-4.7689996 9.6159992,-4.8530006 9.4599991,-4.8679996 9.3129997,-4.8049998 9.3100014,-4.5319996 9.1330013,-4.4780006 
	8.9919987,-4.2559996 "/>
<polygon class="st9" points="9.0639992,-4.1929998 9.2919998,-4.2050004 9.3339996,-4.0040007 9.4119997,-3.9349999 
	9.4239988,-3.5689993 9.4959993,-3.5360003 9.5200005,-3.6829996 9.6939993,-3.698 9.7299995,-3.3980002 9.6850014,-3.3590002 
	9.7030001,-3.3140006 9.9129992,-3.3170004 9.9639997,-3.3980002 10.0839996,-3.4069996 10.1290007,-3.3170004 
	10.1650009,-3.4310007 10.276,-3.4730005 10.3659992,-3.3319993 10.5219994,-3.3530006 10.4260006,-3.4400001 
	10.3900003,-3.6350002 10.6030006,-3.7459993 10.6870003,-3.6049995 10.7650003,-3.6049995 10.6719999,-3.7700005 
	10.6719999,-4.1030006 10.8339996,-4.3220005 11.0589991,-4.349 11.0589991,-4.4390006 10.8339996,-4.6489997 
	10.7740011,-4.9340005 10.6450005,-4.9970002 10.6120014,-4.9580002 10.4680004,-4.9429998 10.6120014,-4.7390003 
	10.6120014,-4.6040001 10.6750011,-4.5709996 10.6629992,-4.2020006 10.5040007,-4.1749997 10.4890003,-3.9710002 
	10.3929987,-3.8720002 10.329999,-3.6799998 10.2399998,-3.5629997 10.0629997,-3.5599999 9.9610014,-3.6589999 
	9.9429998,-3.7999997 9.8709993,-3.8239994 9.8289995,-3.9799995 9.7120008,-4.0460005 9.7030001,-4.1389995 9.5860014,-4.1900001 
	9.5710011,-4.2769995 9.5109997,-4.3129997 9.5050001,-4.5469999 9.6070013,-4.5620003 9.5500011,-4.6370006 9.5319996,-4.7030001 
	9.5319996,-4.7689996 9.6159992,-4.8530006 9.4599991,-4.8679996 9.3129997,-4.8049998 9.3100014,-4.5319996 9.1330013,-4.4780006 
	8.9919987,-4.2559996 "/>
<path class="st11" d="M9.9520006-3.8179998l0.1140003-0.0659995L10.0629997-4.013L9.9520006-4.0399995l-0.045001-0.0419998
	l0.1230011,0.0209999L10.1860008-4.073l0.0539989-0.0269995C10.2159986-4.0459991,10.2039995-4.0489988,10.198-4.0489988
	c-0.0030012,0-0.0870008,0.0419998-0.0870008,0.0419998l0.0059996,0.1229997c0,0,0.2640009,0.0360003,0.2609997,0.0360003
	s0,0.0479994-0.0090008,0.0479994s-0.2729988-0.0570002-0.2729988-0.0570002L9.9250011-3.7550001L9.9520006-3.8179998z"/>
<path class="st12" d="M9.9520006-3.8179998l0.1140003-0.0659995L10.0629997-4.013L9.9520006-4.0399995l-0.045001-0.0419998
	l0.1230011,0.0209999L10.1860008-4.073l0.0539989-0.0269995C10.2159986-4.0459991,10.2039995-4.0489988,10.198-4.0489988
	c-0.0030012,0-0.0870008,0.0419998-0.0870008,0.0419998l0.0059996,0.1229997c0,0,0.2640009,0.0360003,0.2609997,0.0360003
	s0,0.0479994-0.0090008,0.0479994s-0.2729988-0.0570002-0.2729988-0.0570002L9.9250011-3.7550001L9.9520006-3.8179998z"/>
<path class="st10" d="M10.618001-4.6010003l-0.1560001,0.1170001l-0.0960016,0.1740003l-0.0510006,0.0089993l-0.1500006-0.198
	H9.9909992c0,0-0.0959988,0.2310004-0.0959988,0.237S9.8260012-4.2709999,9.8260012-4.2709999L9.6519995-4.4600005
	c0,0-0.0539989-0.099-0.045001-0.099s0.4499989,0.0029998,0.4499989,0.0029998l-0.0030012-0.2100005
	c0,0-0.0689993-0.0209999-0.1049995-0.0419998c0.0269995-0.0089993,0.2459993-0.0089993,0.2459993-0.0089993l-0.0959988,0.0629997
	v0.1799998l0.3900003,0.0029998L10.618001-4.6010003z"/>
<path class="st9" d="M10.618001-4.6010003l-0.1560001,0.1170001l-0.0960016,0.1740003l-0.0510006,0.0089993l-0.1500006-0.198
	H9.9909992c0,0-0.0959988,0.2310004-0.0959988,0.237S9.8260012-4.2709999,9.8260012-4.2709999L9.6519995-4.4600005
	c0,0-0.0539989-0.099-0.045001-0.099s0.4499989,0.0029998,0.4499989,0.0029998l-0.0030012-0.2100005
	c0,0-0.0689993-0.0209999-0.1049995-0.0419998c0.0269995-0.0089993,0.2459993-0.0089993,0.2459993-0.0089993l-0.0959988,0.0629997
	v0.1799998l0.3900003,0.0029998L10.618001-4.6010003z"/>
<path class="st11" d="M9.8199987-4.5020003H9.855999c0.0179987,0,0.032999,0.0150003,0.032999,0.0330005v0.0360003
	c0,0.0180001-0.0150003,0.0330005-0.032999,0.0330005H9.8199987c-0.0209999,0-0.0360003-0.0150003-0.0360003-0.0330005v-0.0360003
	C9.7869997-4.487,9.802-4.5020003,9.8199987-4.5020003z"/>
<path class="st11" d="M10.3089991-4.5200005h0.0360003c0.0179987,0,0.032999,0.0150003,0.032999,0.0330005v0.0360003
	c0,0.0180001-0.0150003,0.0330005-0.032999,0.0330005h-0.0360003c-0.0179987,0-0.032999-0.0150003-0.032999-0.0330005v-0.039
	C10.276-4.5079999,10.2910004-4.5200005,10.3089991-4.5200005z"/>
<path class="st9" d="M9.5560007-4.8350005c0.1650009-0.0629997,0.2790012-0.1140003,0.4799995-0.1350002
	c0.1889992-0.0209999,0.3360014,0.0059996,0.506999,0.0360003"/>
<polygon class="st10" points="9.6459999,-5.177 9.5140009,-5.177 9.3249989,-5.3720002 9.4329996,-5.3629994 9.5560007,-5.3060007 
	"/>
<polygon class="st9" points="9.6459999,-5.177 9.5140009,-5.177 9.3249989,-5.3720002 9.4329996,-5.3629994 9.5560007,-5.3060007 
	"/>
<polygon class="st10" points="10.4499989,-5.2520003 10.75,-5.4799995 10.6479988,-5.4920001 10.5400009,-5.3900003 
	10.4050007,-5.3720002 "/>
<polygon class="st9" points="10.4499989,-5.2520003 10.75,-5.4799995 10.6479988,-5.4920001 10.5400009,-5.3900003 
	10.4050007,-5.3720002 "/>
<polygon class="st10" points="10.2700005,-5.2100005 9.802,-5.1920004 9.8050013,-5.2429996 9.9759989,-5.2609997 
	9.9969988,-5.3270006 10.0479994,-5.3270006 10.0899992,-5.2639995 10.2550001,-5.2340002 "/>
<polygon class="st9" points="10.2700005,-5.2100005 9.802,-5.1920004 9.8050013,-5.2429996 9.9759989,-5.2609997 
	9.9969988,-5.3270006 10.0479994,-5.3270006 10.0899992,-5.2639995 10.2550001,-5.2340002 "/>
<polygon class="st10" points="10.2490005,-5.3870006 10.0839996,-5.3809996 10.0720005,-5.4710002 "/>
<polygon class="st9" points="10.2490005,-5.3870006 10.0839996,-5.3809996 10.0720005,-5.4710002 "/>
<polygon class="st10" points="9.9699993,-5.4650006 9.9610014,-5.3779998 9.802,-5.3540001 "/>
<polygon class="st9" points="9.9699993,-5.4650006 9.9610014,-5.3779998 9.802,-5.3540001 "/>
<polygon class="st10" points="9.073,-3.8569999 9.1540012,-4.0579996 9.0820007,-4.1989994 9.0100002,-3.9920001 "/>
<polygon class="st9" points="9.073,-3.8569999 9.1540012,-4.0579996 9.0820007,-4.1989994 9.0100002,-3.9920001 "/>
<polygon class="st10" points="9.2380009,-3.7459993 9.3339996,-3.9860005 9.1450005,-3.7910004 "/>
<polygon class="st9" points="9.2380009,-3.7459993 9.3339996,-3.9860005 9.1450005,-3.7910004 "/>
<path class="st2" d="M13.1889992-3.2030001l-0.1619997,0.1859994l0.0119991,0.1589999l0.3330002-0.0059996
	c0.1080008-0.0269995,0.131999-0.0629997,0.1560001-0.1079993C13.560998-3.026,13.5399981-3.0559993,13.5459976-3.1279998
	L13.1889992-3.2030001z"/>
<path class="st14" d="M13.1889992-3.2030001l-0.1619997,0.1859994l0.0119991,0.1589999l0.3330002-0.0059996
	c0.1080008-0.0269995,0.131999-0.0629997,0.1560001-0.1079993C13.560998-3.026,13.5399981-3.0559993,13.5459976-3.1279998
	L13.1889992-3.2030001z"/>
<path class="st2" d="M13.980999-2.7559996l-0.1469994,0.1140003l-0.0150003,0.1439996l0.2969999,0.0209999
	C14.224-2.4920001,14.2390003-2.5100002,14.2659998-2.552C14.302-2.6030006,14.2929993-2.5999994,14.3079996-2.6719999
	L13.980999-2.7559996z"/>
<path class="st14" d="M13.980999-2.7559996l-0.1469994,0.1140003l-0.0150003,0.1439996l0.2969999,0.0209999
	C14.224-2.4920001,14.2390003-2.5100002,14.2659998-2.552C14.302-2.6030006,14.2929993-2.5999994,14.3079996-2.6719999
	L13.980999-2.7559996z"/>
<path class="st2" d="M15.2919998-3.1370006l-0.1560001,0.1589999l0.0059996,0.1199999l0.3149986,0.0120006
	c0.1080008-0.0269995,0.0899992-0.0209999,0.1230011-0.0750003c0.032999-0.0540004,0.0240011-0.0629997,0.032999-0.1350002
	L15.2919998-3.1370006z"/>
<path class="st14" d="M15.2919998-3.1370006l-0.1560001,0.1589999l0.0059996,0.1199999l0.3149986,0.0120006
	c0.1080008-0.0269995,0.0899992-0.0209999,0.1230011-0.0750003c0.032999-0.0540004,0.0240011-0.0629997,0.032999-0.1350002
	L15.2919998-3.1370006z"/>
<path class="st2" d="M16.2130013-2.8519998L16.032999-2.6989994v0.1530004l0.3330002,0.0300007
	C16.473999-2.5429978,16.4799995-2.5729985,16.507-2.6119986c0.0359993-0.0540004,0.0179977-0.0570002,0.0269985-0.1290007
	L16.2130013-2.8519998z"/>
<path class="st14" d="M16.2130013-2.8519998L16.032999-2.6989994v0.1530004l0.3330002,0.0300007
	C16.473999-2.5429978,16.4799995-2.5729985,16.507-2.6119986c0.0359993-0.0540004,0.0179977-0.0570002,0.0269985-0.1290007
	L16.2130013-2.8519998z"/>
<path class="st2" d="M13.9720011-6.8090005l0.6300001,0.4169998c0.1169987-0.099,0.3630009-0.039,0.4620008-0.0120006
	c0.1739988,0.0449996,0.2939987,0.1469994,0.4470005,0.177c0.276,0.0689993,0.6090002,0.1170001,0.8580008,0.0900006
	C16.6210022-6.164,16.8310051-6.2960005,17.0170021-6.3890009v-0.0599999H16.894001
	C16.6930008-6.3770003,16.4140015-6.3740005,16.198-6.4010015c-0.2159986-0.0300007-0.2729988-0.1229997-0.5939999-0.2189999
	l-0.0269995-0.0599999c0.3900003,0.0180001,0.4680014,0.0089993,0.6300001-0.0629997
	c0.1590004-0.0419998,0.230999-0.1350002,0.3239994-0.198l-0.0030003-0.0720005L16.4139977-7.019001
	c-0.1499996,0.1019998-0.2490005,0.1170001-0.4770002,0.099c-0.2099991-0.0209999-0.3990011-0.1409998-0.5400009-0.1439996
	c-0.1500006,0-0.144001-0.0720005-0.2879992-0.0780001c-0.230999-0.0209999-0.4770012,0.0120006-0.6960011,0.0629997
	C14.1429987-7.0009995,14.1040001-6.9349999,13.9720011-6.8090005z"/>
<path class="st15" d="M13.9720011-6.8090005l0.6300001,0.4169998c0.1169987-0.099,0.3630009-0.039,0.4620008-0.0120006
	c0.1739988,0.0449996,0.2939987,0.1469994,0.4470005,0.177c0.276,0.0689993,0.6090002,0.1170001,0.8580008,0.0900006
	C16.6210022-6.164,16.8310051-6.2960005,17.0170021-6.3890009v-0.0599999H16.894001
	C16.6930008-6.3770003,16.4140015-6.3740005,16.198-6.4010015c-0.2159986-0.0300007-0.2729988-0.1229997-0.5939999-0.2189999
	l-0.0269995-0.0599999c0.3900003,0.0180001,0.4680014,0.0089993,0.6300001-0.0629997
	c0.1590004-0.0419998,0.230999-0.1350002,0.3239994-0.198l-0.0030003-0.0720005L16.4139977-7.019001
	c-0.1499996,0.1019998-0.2490005,0.1170001-0.4770002,0.099c-0.2099991-0.0209999-0.3990011-0.1409998-0.5400009-0.1439996
	c-0.1500006,0-0.144001-0.0720005-0.2879992-0.0780001c-0.230999-0.0209999-0.4770012,0.0120006-0.6960011,0.0629997
	C14.1429987-7.0009995,14.1040001-6.9349999,13.9720011-6.8090005z"/>
<path class="st16" d="M14.0949993-6.8989997c0.0600014,0.0150003,0.1259995,0.0330005,0.1800013,0.0570002
	C14.323-6.8119988,14.3110008-6.8119988,14.3649998-6.776c-0.0090008-0.0479994-0.0059996-0.0449996-0.0389986-0.0869994
	c-0.0360003-0.039-0.0899992-0.0750003-0.1350002-0.1079993L14.0949993-6.8989997z"/>
<path class="st17" d="M14.0949993-6.8989997c0.0600014,0.0150003,0.1259995,0.0330005,0.1800013,0.0570002
	C14.323-6.8119988,14.3110008-6.8119988,14.3649998-6.776c-0.0090008-0.0479994-0.0059996-0.0449996-0.0389986-0.0869994
	c-0.0360003-0.039-0.0899992-0.0750003-0.1350002-0.1079993L14.0949993-6.8989997z"/>
<path class="st16" d="M14.6199999-6.4520006c0-0.0540004-0.0269995-0.1019998-0.0479994-0.1500006
	c-0.0209999-0.0449996-0.0360003-0.0869994-0.0780001-0.1350002c0.0479994,0.0150003,0.0749989,0.0360003,0.1169987,0.0839996
	c0.0389986,0.0479994,0.0389986,0.099,0.0479994,0.1710005L14.6199999-6.4520006z"/>
<path class="st17" d="M14.6199999-6.4520006c0-0.0540004-0.0269995-0.1019998-0.0479994-0.1500006
	c-0.0209999-0.0449996-0.0360003-0.0869994-0.0780001-0.1350002c0.0479994,0.0150003,0.0749989,0.0360003,0.1169987,0.0839996
	c0.0389986,0.0479994,0.0389986,0.099,0.0479994,0.1710005L14.6199999-6.4520006z"/>
<path class="st16" d="M14.7399998-7.112c0.0150003,0.0360003,0.0419998,0.0629997,0.0660009,0.1439996
	c0.0209999,0.0720005,0.032999,0.177,0.032999,0.177c-0.0090008-0.0540004,0.0059996-0.1140003-0.0030012-0.1710005
	s-0.0360003-0.1019998-0.045001-0.1560001L14.7399998-7.112z"/>
<path class="st17" d="M14.7399998-7.112c0.0150003,0.0360003,0.0419998,0.0629997,0.0660009,0.1439996
	c0.0209999,0.0720005,0.032999,0.177,0.032999,0.177c-0.0090008-0.0540004,0.0059996-0.1140003-0.0030012-0.1710005
	s-0.0360003-0.1019998-0.045001-0.1560001L14.7399998-7.112z"/>
<polygon class="st16" points="15.2530012,-7.0819993 15.2800007,-6.7789998 15.3070002,-7.0609994 "/>
<polygon class="st17" points="15.2530012,-7.0819993 15.2800007,-6.7789998 15.3070002,-7.0609994 "/>
<path class="st16" d="M15.1300001-6.4550004c0.0119991-0.0479994,0.0090008-0.099,0.0030012-0.1469994
	s-0.0240011-0.0900006-0.0389986-0.1469994c0.0479994,0.039,0.0689993,0.0960002,0.0959988,0.1500006
	C15.1870003-6.5419998,15.1719999-6.4940004,15.1300001-6.4550004z"/>
<path class="st17" d="M15.1300001-6.4550004c0.0119991-0.0479994,0.0090008-0.099,0.0030012-0.1469994
	s-0.0240011-0.0900006-0.0389986-0.1469994c0.0479994,0.039,0.0689993,0.0960002,0.0959988,0.1500006
	C15.1870003-6.5419998,15.1719999-6.4940004,15.1300001-6.4550004z"/>
<path class="st16" d="M15.6550007-6.5900006c0.0030012,0,0.0179987,0.1049995-0.0090008,0.177
	c-0.0240011,0.0750003-0.0389986,0.0780001-0.0839996,0.1170001C15.6190004-6.3380003,15.670001-6.3530006,15.6879997-6.401
	C15.7120008-6.4699993,15.6639986-6.5780001,15.6550007-6.5900006z"/>
<path class="st17" d="M15.6550007-6.5900006c0.0030012,0,0.0179987,0.1049995-0.0090008,0.177
	c-0.0240011,0.0750003-0.0389986,0.0780001-0.0839996,0.1170001C15.6190004-6.3380003,15.670001-6.3530006,15.6879997-6.401
	C15.7120008-6.4699993,15.6639986-6.5780001,15.6550007-6.5900006z"/>
<path class="st16" d="M15.7480011-6.6859994c-0.0360003,0.0059996-0.0419998-0.1469994-0.0660009-0.2189999
	c0.0150003-0.0089993,0.032999-0.0059996,0.045001,0.0300007C15.7480011-6.8569999,15.7419987-6.7490005,15.7480011-6.6859994z"/>
<path class="st17" d="M15.7480011-6.6859994c-0.0360003,0.0059996-0.0419998-0.1469994-0.0660009-0.2189999
	c0.0150003-0.0089993,0.032999-0.0059996,0.045001,0.0300007C15.7480011-6.8569999,15.7419987-6.7490005,15.7480011-6.6859994z"/>
<polygon class="st16" points="16.1110001,-6.7459993 16.1259995,-6.8720002 16.1650009,-6.8779998 16.1650009,-6.7670007 "/>
<polygon class="st17" points="16.1110001,-6.7459993 16.1259995,-6.8720002 16.1650009,-6.8779998 16.1650009,-6.7670007 "/>
<path class="st16" d="M16.0839996-6.4099994c0.0240021,0.0360003,0.0629997,0.0839996,0.0690002,0.1229997
	C16.1589985-6.2449999,16.1439972-6.224,16.1140003-6.1610003l0.0570011,0.0029998
	c0.0329971-0.0510006,0.0389977-0.0869994,0.0359993-0.1259995c-0.0060005-0.039-0.0240021-0.0809999-0.0660019-0.1110005
	L16.0839996-6.4099994z"/>
<path class="st17" d="M16.0839996-6.4099994c0.0240021,0.0360003,0.0629997,0.0839996,0.0690002,0.1229997
	C16.1589985-6.2449999,16.1439972-6.224,16.1140003-6.1610003l0.0570011,0.0029998
	c0.0329971-0.0510006,0.0389977-0.0869994,0.0359993-0.1259995c-0.0060005-0.039-0.0240021-0.0809999-0.0660019-0.1110005
	L16.0839996-6.4099994z"/>
<polygon class="st16" points="16.5159988,-6.3800001 16.5279999,-6.2030001 16.5789986,-6.2269998 16.5670013,-6.3800001 "/>
<polygon class="st17" points="16.5159988,-6.3800001 16.5279999,-6.2030001 16.5789986,-6.2269998 16.5670013,-6.3800001 "/>
<path class="st8" d="M13.9329996-6.776c-0.144001,0.039-0.1920004,0.1199999-0.2640009,0.1859994l-0.3989983-0.2039995
	c-0.0660009,0.0540004-0.0899992,0.1320004-0.0600014,0.2100005c0.032999,0.0780001,0.1590014,0.2009997,0.2490005,0.2609997
	c-0.0240011,0.1079993-0.0539989,0.1890006-0.0959988,0.2880006C13.3210011-5.927,13.2250023-5.7919998,13.2220011-5.7469988
	C13.2160015-5.6989994,13.198-5.5879989,13.2730017-5.5639992c0.0749989,0.0300007,0.3149986-0.0209999,0.3959999-0.0150003
	c-0.0150003,0.0419998-0.0419998,0.1170001-0.0360003,0.1500006c0.0119991,0.0330005,0.032999,0.0419998,0.099,0.0449996
	c-0.0209999,0.039-0.0600014,0.0900006-0.0389986,0.1140003c0.0479994,0.0360003,0.1080008,0.0330005,0.1560001,0.0300007
	c-0.0300007,0.0360003-0.0720005,0.0780001-0.1199999,0.1229997c-0.0810013,0.0780001-0.1710005,0.1649995-0.2099991,0.2100005
	c-0.0660009,0.0900006-0.0720005,0.1829996,0.0570002,0.177c-0.045001,0.0510006-0.0930004,0.1049995-0.0870008,0.1500006
	c0.0119991,0.0540004,0.0360003,0.0900006,0.1290007,0.0599999c-0.0539989,0.1199999-0.0179987,0.2310004,0,0.3569999
	c-0.045001,0.0960002-0.0269995,0.1829996-0.0360003,0.2969999c-0.0959988,0.0510006-0.1080008,0.1199999-0.1679993,0.2280006
	c-0.0539989,0.1140003-0.1560001,0.1469994-0.2130003,0.3959999l0.3659992,0.0930004
	c0.0150003-0.0510006,0.0600014-0.0839996,0.0749989-0.1350002s0.0119991-0.1140003,0.0059996-0.1710005
	c0.0720005-0.1079993,0.2220011-0.3239994,0.2669992-0.4409995c0.0810013-0.0419998,0.1379986-0.0689993,0.198-0.0689993
	s0.099,0.0360003,0.1619997,0.0689993c-0.0300007,0.099-0.1080008,0.2039995-0.1109991,0.3419995v0.3779998
	c-0.0150003,0.0960002-0.1230011,0.0960002-0.1679993,0.3779998l0.329999,0.0869994
	c0.0539989-0.0960002,0.144001-0.1079993,0.1679993-0.1469994l0.0240011-0.3959999
	c0.0389986-0.1829996,0.3029995-0.3389997,0.3060007-0.5399995c0.0959988,0,0.1290007,0.0089993,0.1679993-0.0120006
	c0.0479994-0.0180001,0.0660009-0.0449996,0.1080008-0.0809999c0.0150003,0.0599999,0.0629997,0.0659995,0.1049995,0.0659995
	c0.0389986,0,0.1199999-0.0570002,0.1560001-0.0809999c0.0240011,0.0330005,0.0360003,0.0629997,0.0839996,0.0750003
	s0.1860008-0.0089993,0.243001-0.0239997l-0.2700005,0.4440007c-0.0119991,0.0419998,0.0030012,0.0689993-0.0179987,0.1170001
	c-0.0209999,0.0449996-0.0600014,0.0659995-0.0780001,0.1079993l0.3089991,0.0720005l0.0479994-0.1290007
	c0.0629997-0.0269995,0.1169987-0.0419998,0.1529989-0.0839996s0.0360003-0.1199999,0.0539989-0.1680007
	c0.1049995-0.0750003,0.2700005-0.2429996,0.3869991-0.3779998c0.0779991,0.0150003,0.1889992,0.0780001,0.2340012,0.177
	c0.0059986,0.1049995,0.0149994,0.2969999-0.0360012,0.4290004l-0.198,0.3120003l-0.0240021,0.0510006l0.3149986,0.1110005
	l0.1980019-0.1530004l0.0089989-0.2189999c0.1020012-0.177,0.2430019-0.2730002,0.3810005-0.3870006
	c0-0.0059996,0.0149994-0.2340002,0.0090008-0.2429996c-0.0360012-0.0269995-0.0570011-0.0120006-0.0689983-0.0570002
	c-0.012001-0.0449996-0.0030022-0.177,0.0030003-0.2280006c0.0209999-0.0239997,0.0600014-0.0510006,0.0600014-0.0750003
	c-0.0539989-0.0599999-0.0360012-0.2130003-0.0209999-0.3330002c-0.0030003-0.138,0.1800022-0.2999997,0.2099991-0.3779998V-5
	C17.323-5.0360003,17.2989998-5.0540004,17.2960014-5.0869994c0-0.0300007,0.0359993-0.0809999,0.0600014-0.1110005
	l0.0389977-0.0659995l-0.0060005-0.3449993c-0.0119972-0.0360003-0.0419998-0.099-0.0749969-0.1049995
	c-0.0330009-0.0059996-0.078001,0.0300007-0.1110001,0.0659995l-0.1800003,0.1320004
	c-0.0870018,0.0269995-0.1620007,0.0360003-0.3149986,0l-0.2310028,0.0059981
	C16.3570023-5.474,16.2940025-5.4710002,16.177-5.5220008L16.0390015-5.519001
	c-0.0419998,0.0239997-0.1020012,0.0599999-0.1500006,0.0689993c-0.045001,0.0089993-0.1080008,0.0120006-0.1560001-0.0029998
	c-0.3540001,0.0239997-0.2640009,0.0479994-0.3690004,0.0720005c-0.0810013-0.0150003-0.0539989-0.0540004-0.3719988-0.0570002
	l-0.1230011-0.0360003c-0.1590014-0.1049995-0.2790012-0.2700005-0.3869991-0.4650006
	c0.3270006-0.0960002,0.4680004-0.1920004,0.5670004-0.4169998l-0.4649992,0.0180001L13.9329996-6.776z"/>
<path class="st18" d="M13.9329996-6.776c-0.144001,0.039-0.1920004,0.1199999-0.2640009,0.1859994l-0.3989983-0.2039995
	c-0.0660009,0.0540004-0.0899992,0.1320004-0.0600014,0.2100005c0.032999,0.0780001,0.1590014,0.2009997,0.2490005,0.2609997
	c-0.0240011,0.1079993-0.0539989,0.1890006-0.0959988,0.2880006C13.3210011-5.927,13.2250023-5.7919998,13.2220011-5.7469988
	C13.2160015-5.6989994,13.198-5.5879989,13.2730017-5.5639992c0.0749989,0.0300007,0.3149986-0.0209999,0.3959999-0.0150003
	c-0.0150003,0.0419998-0.0419998,0.1170001-0.0360003,0.1500006c0.0119991,0.0330005,0.032999,0.0419998,0.099,0.0449996
	c-0.0209999,0.039-0.0600014,0.0900006-0.0389986,0.1140003c0.0479994,0.0360003,0.1080008,0.0330005,0.1560001,0.0300007
	c-0.0300007,0.0360003-0.0720005,0.0780001-0.1199999,0.1229997c-0.0810013,0.0780001-0.1710005,0.1649995-0.2099991,0.2100005
	c-0.0660009,0.0900006-0.0720005,0.1829996,0.0570002,0.177c-0.045001,0.0510006-0.0930004,0.1049995-0.0870008,0.1500006
	c0.0119991,0.0540004,0.0360003,0.0900006,0.1290007,0.0599999c-0.0539989,0.1199999-0.0179987,0.2310004,0,0.3569999
	c-0.045001,0.0960002-0.0269995,0.1829996-0.0360003,0.2969999c-0.0959988,0.0510006-0.1080008,0.1199999-0.1679993,0.2280006
	c-0.0539989,0.1140003-0.1560001,0.1469994-0.2130003,0.3959999l0.3659992,0.0930004
	c0.0150003-0.0510006,0.0600014-0.0839996,0.0749989-0.1350002s0.0119991-0.1140003,0.0059996-0.1710005
	c0.0720005-0.1079993,0.2220011-0.3239994,0.2669992-0.4409995c0.0810013-0.0419998,0.1379986-0.0689993,0.198-0.0689993
	s0.099,0.0360003,0.1619997,0.0689993c-0.0300007,0.099-0.1080008,0.2039995-0.1109991,0.3419995v0.3779998
	c-0.0150003,0.0960002-0.1230011,0.0960002-0.1679993,0.3779998l0.329999,0.0869994
	c0.0539989-0.0960002,0.144001-0.1079993,0.1679993-0.1469994l0.0240011-0.3959999
	c0.0389986-0.1829996,0.3029995-0.3389997,0.3060007-0.5399995c0.0959988,0,0.1290007,0.0089993,0.1679993-0.0120006
	c0.0479994-0.0180001,0.0660009-0.0449996,0.1080008-0.0809999c0.0150003,0.0599999,0.0629997,0.0659995,0.1049995,0.0659995
	c0.0389986,0,0.1199999-0.0570002,0.1560001-0.0809999c0.0240011,0.0330005,0.0360003,0.0629997,0.0839996,0.0750003
	s0.1860008-0.0089993,0.243001-0.0239997l-0.2700005,0.4440007c-0.0119991,0.0419998,0.0030012,0.0689993-0.0179987,0.1170001
	c-0.0209999,0.0449996-0.0600014,0.0659995-0.0780001,0.1079993l0.3089991,0.0720005l0.0479994-0.1290007
	c0.0629997-0.0269995,0.1169987-0.0419998,0.1529989-0.0839996s0.0360003-0.1199999,0.0539989-0.1680007
	c0.1049995-0.0750003,0.2700005-0.2429996,0.3869991-0.3779998c0.0779991,0.0150003,0.1889992,0.0780001,0.2340012,0.177
	c0.0059986,0.1049995,0.0149994,0.2969999-0.0360012,0.4290004l-0.198,0.3120003l-0.0240021,0.0510006l0.3149986,0.1110005
	l0.1980019-0.1530004l0.0089989-0.2189999c0.1020012-0.177,0.2430019-0.2730002,0.3810005-0.3870006
	c0-0.0059996,0.0149994-0.2340002,0.0090008-0.2429996c-0.0360012-0.0269995-0.0570011-0.0120006-0.0689983-0.0570002
	c-0.012001-0.0449996-0.0030022-0.177,0.0030003-0.2280006c0.0209999-0.0239997,0.0600014-0.0510006,0.0600014-0.0750003
	c-0.0539989-0.0599999-0.0360012-0.2130003-0.0209999-0.3330002c-0.0030003-0.138,0.1800022-0.2999997,0.2099991-0.3779998V-5
	C17.323-5.0360003,17.2989998-5.0540004,17.2960014-5.0869994c0-0.0300007,0.0359993-0.0809999,0.0600014-0.1110005
	l0.0389977-0.0659995l-0.0060005-0.3449993c-0.0119972-0.0360003-0.0419998-0.099-0.0749969-0.1049995
	c-0.0330009-0.0059996-0.078001,0.0300007-0.1110001,0.0659995l-0.1800003,0.1320004
	c-0.0870018,0.0269995-0.1620007,0.0360003-0.3149986,0l-0.2310028,0.0059981
	C16.3570023-5.474,16.2940025-5.4710002,16.177-5.5220008L16.0390015-5.519001
	c-0.0419998,0.0239997-0.1020012,0.0599999-0.1500006,0.0689993c-0.045001,0.0089993-0.1080008,0.0120006-0.1560001-0.0029998
	c-0.3540001,0.0239997-0.2640009,0.0479994-0.3690004,0.0720005c-0.0810013-0.0150003-0.0539989-0.0540004-0.3719988-0.0570002
	l-0.1230011-0.0360003c-0.1590014-0.1049995-0.2790012-0.2700005-0.3869991-0.4650006
	c0.3270006-0.0960002,0.4680004-0.1920004,0.5670004-0.4169998l-0.4649992,0.0180001L13.9329996-6.776z"/>
<path class="st19" d="M13.7709999-6.2030001l0.131999,0.0540004c0.0179987,0.0209999,0.045001,0.039,0.0689993,0.0419998
	c0.0209999,0,0.0360003-0.0209999,0.0539989-0.0360003l0.1199999-0.0629997
	c-0.0720005-0.0120006-0.0959988-0.0540004-0.1710005-0.0540004C13.9029989-6.2570004,13.8459988-6.2180004,13.7709999-6.2030001z"
	/>
<path class="st20" d="M13.7709999-6.2030001l0.131999,0.0540004c0.0179987,0.0209999,0.045001,0.039,0.0689993,0.0419998
	c0.0209999,0,0.0360003-0.0209999,0.0539989-0.0360003l0.1199999-0.0629997
	c-0.0720005-0.0120006-0.0959988-0.0540004-0.1710005-0.0540004C13.9029989-6.2570004,13.8459988-6.2180004,13.7709999-6.2030001z"
	/>
<path class="st10" d="M14.0109997-4.6489997c0,0.0120006-0.0179987,0.0209999-0.0300007,0.0059996
	c-0.0119991-0.1560001-0.045001-0.2609997-0.0930004-0.3839993C13.9449987-4.9370003,13.9899998-4.7869997,14.0109997-4.6489997z"/>
<path class="st9" d="M14.0109997-4.6489997c0,0.0120006-0.0179987,0.0209999-0.0300007,0.0059996
	c-0.0119991-0.1560001-0.045001-0.2609997-0.0930004-0.3839993C13.9449987-4.9370003,13.9899998-4.7869997,14.0109997-4.6489997z"/>
<path class="st10" d="M14.7850008-4.6339993C14.8120003-4.625,14.8480005-4.625,14.8570013-4.6459999
	c0.0119991-0.0330005-0.0240011-0.0689993-0.0360003-0.1079993c-0.0419998-0.0869994-0.0689993-0.1799998-0.0870008-0.2219996
	C14.7130003-4.9879994,14.6950016-4.9879994,14.698-4.9669995C14.7220011-4.8859997,14.7700005-4.6610003,14.7850008-4.6339993z"/>
<path class="st9" d="M14.7850008-4.6339993C14.8120003-4.625,14.8480005-4.625,14.8570013-4.6459999
	c0.0119991-0.0330005-0.0240011-0.0689993-0.0360003-0.1079993c-0.0419998-0.0869994-0.0689993-0.1799998-0.0870008-0.2219996
	C14.7130003-4.9879994,14.6950016-4.9879994,14.698-4.9669995C14.7220011-4.8859997,14.7700005-4.6610003,14.7850008-4.6339993z"/>
<path class="st10" d="M15.2110014-4.6790004C15.2140026-4.6610003,15.151-4.6879997,15.1390009-4.7090011
	c0-0.039-0.0870008-0.3449993-0.0720005-0.3569999c0.0179987-0.0089993,0.0749989,0.1019998,0.0930004,0.1530004
	C15.1600008-4.8829999,15.1989994-4.7750006,15.2110014-4.6790004z"/>
<path class="st9" d="M15.2110014-4.6790004C15.2140026-4.6610003,15.151-4.6879997,15.1390009-4.7090011
	c0-0.039-0.0870008-0.3449993-0.0720005-0.3569999c0.0179987-0.0089993,0.0749989,0.1019998,0.0930004,0.1530004
	C15.1600008-4.8829999,15.1989994-4.7750006,15.2110014-4.6790004z"/>
<path class="st10" d="M15.1479988-4.0549998c0,0.0209999,0.0479994,0.0029998,0.0689993-0.0120006
	C15.2739983-4.157001,15.3429976-4.25,15.3669987-4.2860003c0.0119991-0.0360003,0.0749989-0.2819996,0.0539989-0.2789998
	c-0.0059996-0.0059996-0.0600014,0.1199999-0.131999,0.2490005C15.2199993-4.1900001,15.1479988-4.0670004,15.1479988-4.0549998z"/>
<path class="st9" d="M15.1479988-4.0549998c0,0.0209999,0.0479994,0.0029998,0.0689993-0.0120006
	C15.2739983-4.157001,15.3429976-4.25,15.3669987-4.2860003c0.0119991-0.0360003,0.0749989-0.2819996,0.0539989-0.2789998
	c-0.0059996-0.0059996-0.0600014,0.1199999-0.131999,0.2490005C15.2199993-4.1900001,15.1479988-4.0670004,15.1479988-4.0549998z"/>
<path class="st10" d="M15.5770006-4.1840005c-0.0209999,0.0089993,0.0389986-0.2100005,0.045001-0.2520003
	c0.0119991-0.0599999,0.0269995-0.1740003,0.0510006-0.3179998C15.7060013-4.5499997,15.6669998-4.3369994,15.5770006-4.1840005z"/>
<path class="st9" d="M15.5770006-4.1840005c-0.0209999,0.0089993,0.0389986-0.2100005,0.045001-0.2520003
	c0.0119991-0.0599999,0.0269995-0.1740003,0.0510006-0.3179998C15.7060013-4.5499997,15.6669998-4.3369994,15.5770006-4.1840005z"/>
<path class="st10" d="M15.8289995-4.862c-0.0150003,0.0120006-0.1949987-0.2910004-0.1800013-0.2910004
	c0.0059996-0.0150003,0.1529989,0.1890006,0.177,0.2249994C15.8320007-4.9099994,15.8439999-4.8829999,15.8289995-4.862z"/>
<path class="st9" d="M15.8289995-4.862c-0.0150003,0.0120006-0.1949987-0.2910004-0.1800013-0.2910004
	c0.0059996-0.0150003,0.1529989,0.1890006,0.177,0.2249994C15.8320007-4.9099994,15.8439999-4.8829999,15.8289995-4.862z"/>
<path class="st10" d="M16.2580013-4.6370006C16.243-4.6490011,16.2490005-4.7449999,16.2220001-4.8500009
	c-0.0269985-0.1079993-0.0719986-0.2069993-0.0629997-0.237c0.0090027-0.0150003,0.0360012-0.0089993,0.0600014,0.0120006
	c0.012001,0.0570002,0.0360012,0.2789998,0.0690002,0.4229994C16.2910004-4.6370006,16.2729988-4.6279998,16.2580013-4.6370006z"/>
<path class="st9" d="M16.2580013-4.6370006C16.243-4.6490011,16.2490005-4.7449999,16.2220001-4.8500009
	c-0.0269985-0.1079993-0.0719986-0.2069993-0.0629997-0.237c0.0090027-0.0150003,0.0360012-0.0089993,0.0600014,0.0120006
	c0.012001,0.0570002,0.0360012,0.2789998,0.0690002,0.4229994C16.2910004-4.6370006,16.2729988-4.6279998,16.2580013-4.6370006z"/>
<path class="st10" d="M16.5579987-4.9039998c-0.0179977-0.0150003,0.0360012,0.1049995,0.078001,0.2459993
	c0.0389996,0.1409998,0.0600014,0.3930001,0.0689983,0.375c0.0270004-0.0180001,0.0240021-0.039,0.0629997-0.0479994
	c0.0419998-0.0089993,0.1980019,0.0059996,0.1889992-0.0059996c-0.098999-0.0869994-0.1860008-0.1589999-0.2519989-0.2520003
	C16.6389999-4.6849999,16.5939999-4.8079996,16.5579987-4.9039998z"/>
<path class="st9" d="M16.5579987-4.9039998c-0.0179977-0.0150003,0.0360012,0.1049995,0.078001,0.2459993
	c0.0389996,0.1409998,0.0600014,0.3930001,0.0689983,0.375c0.0270004-0.0180001,0.0240021-0.039,0.0629997-0.0479994
	c0.0419998-0.0089993,0.1980019,0.0059996,0.1889992-0.0059996c-0.098999-0.0869994-0.1860008-0.1589999-0.2519989-0.2520003
	C16.6389999-4.6849999,16.5939999-4.8079996,16.5579987-4.9039998z"/>
<path class="st3" d="M18.0789986-5.3569999c0.9029999,0.1890006,1.7400017,0.4080005,2.5740013,0.6779995
	C21.4869995-4.4089999,22.2849979-4.0850005,23.0949993-3.737l-1.355999,2.7390003
	c-0.7559986-0.2880006-1.5030003-0.5219994-2.25-0.7589993C18.7449989-2,18.0159988-2.2130003,17.257-2.4439993
	L18.0789986-5.3569999z"/>
<path class="st21" d="M18.0789986-5.3569999c0.9029999,0.1890006,1.7400017,0.4080005,2.5740013,0.6779995
	C21.4869995-4.4089999,22.2849979-4.0850005,23.0949993-3.737l-1.355999,2.7390003
	c-0.7559986-0.2880006-1.5030003-0.5219994-2.25-0.7589993C18.7449989-2,18.0159988-2.2130003,17.257-2.4439993
	L18.0789986-5.3569999z"/>
<path class="st2" d="M17.8959999-4.7089996c0,0,1.2600002,0.2819996,2.4840012,0.6749997
	C21.6040001-3.638,22.795002-3.1339993,22.7919998-3.1339993c-0.0090008,0-0.7679977,1.5629997-0.7679977,1.5629997
	C21.2859993-1.8649998,20.512001-2.138,19.7470016-2.3869991c-0.7649994-0.2490005-1.5300007-0.4829993-2.3160019-0.6660004
	L17.8959999-4.7089996z"/>
<path class="st14" d="M17.8959999-4.7089996c0,0,1.2600002,0.2819996,2.4840012,0.6749997
	C21.6040001-3.638,22.795002-3.1339993,22.7919998-3.1339993c-0.0090008,0-0.7679977,1.5629997-0.7679977,1.5629997
	C21.2859993-1.8649998,20.512001-2.138,19.7470016-2.3869991c-0.7649994-0.2490005-1.5300007-0.4829993-2.3160019-0.6660004
	L17.8959999-4.7089996z"/>
<path d="M18.0040016-3.9409995c0.1230011-0.0689993,0.2070007-0.0900006,0.2729988-0.2009997h0.4469986l0.0060005,0.1619997
	c0.1080017,0.0510006,0.1739998,0.1079993,0.2819996,0.1649995c0.1079998,0.0510006,0.2640018,0.099,0.375,0.1530004
	l0.9629993,0.0839996c0.1290016,0.0209999,0.3149986,0.0750003,0.4260025,0.1409998
	c0.1109982,0.0659995,0.1829987,0.1469994,0.2459984,0.2520003c0.198,0.0689993,0.3959999,0.1079993,0.5999985,0.1409998
	c0.2040005,0.0300007,0.4589996,0.0419998,0.6570015,0.0510006c0.098999,0.0360003,0.098999,0.0839996,0.0509987,0.1350002
	c0,0-0.1079998,0.1469994-0.4049988,0.1500006c-0.2970009,0-0.6330032-0.1680007-0.7800026-0.1439996
	c0.0060005,0.0900006,0.1620007,0.276,0.3360023,0.3480005l-0.0060005,0.4260006l-0.0779991,0.0689993l-0.0870018-0.0570002
	c0.0690002-0.1019998,0.045002-0.2189999,0.0179996-0.3209996c-0.066-0.0960002-0.0749989-0.1350002-0.198-0.1409998
	c-0.1469994-0.0300007-0.2519989-0.0659995-0.4379997-0.1950002L20.6199989-2.711
	c-0.0389977,0.0720005-0.0810013,0.1199999-0.1739979,0.1619997l-0.1889992-0.0120006c0,0-0.4350014-0.0960002-0.4350014-0.1019998
	s-0.0059986-0.0659995,0.0059986-0.0720005c0.012001-0.0059996,0.1500015-0.0059996,0.1620007-0.0059996
	C20.0830002-2.711,20.2750015-2.711,20.2750015-2.711L20.269001-2.8759995l0.2910004-0.0180001
	C20.5-3.0949993,20.4820023-3.224,20.2120018-3.2719994l-0.8460007,0.0239997l0.012001,0.1170001
	c-0.2130013-0.0300007-0.597002-0.0360003-0.7919998,0.0330005c-0.1140022,0.0120006-0.2790031,0.0689993-0.3540001,0.0689993
	l-0.0870018-0.0239997c-0.0569992-0.0180001-0.0569992-0.0360003-0.0359993-0.0839996
	c0.3659973-0.0300007,0.4229984-0.0570002,0.5340004-0.1079993c0.0060005-0.0360003-0.0389977-0.1079993-0.0569992-0.1110005
	c-0.230999-0.0120006-0.4110012,0.0059996-0.4740009-0.0059996c-0.0990009-0.0300007-0.230999-0.0780001-0.230999-0.0839996
	s-0.0179996-0.0900006-0.0119991-0.0900006s0.1500015,0.039,0.1560001,0.039
	c0.1560001,0.0300007,0.4229984,0.0180001,0.4859982-0.0180001l0.0060005-0.1229997
	c-0.0060005-0.0540004-0.045002-0.1079993-0.0569992-0.1110005c-0.012001-0.0059996-0.2519989-0.0360003-0.3360023-0.0360003
	C17.9830017-3.8029995,18.0040016-3.8720002,18.0040016-3.9409995z"/>
<path class="st22" d="M18.0040016-3.9409995c0.1230011-0.0689993,0.2070007-0.0900006,0.2729988-0.2009997h0.4469986
	l0.0060005,0.1619997c0.1080017,0.0510006,0.1739998,0.1079993,0.2819996,0.1649995
	c0.1079998,0.0510006,0.2640018,0.099,0.375,0.1530004l0.9629993,0.0839996
	c0.1290016,0.0209999,0.3149986,0.0750003,0.4260025,0.1409998c0.1109982,0.0659995,0.1829987,0.1469994,0.2459984,0.2520003
	c0.198,0.0689993,0.3959999,0.1079993,0.5999985,0.1409998c0.2040005,0.0300007,0.4589996,0.0419998,0.6570015,0.0510006
	c0.098999,0.0360003,0.098999,0.0839996,0.0509987,0.1350002c0,0-0.1079998,0.1469994-0.4049988,0.1500006
	c-0.2970009,0-0.6330032-0.1680007-0.7800026-0.1439996c0.0060005,0.0900006,0.1620007,0.276,0.3360023,0.3480005
	l-0.0060005,0.4260006l-0.0779991,0.0689993l-0.0870018-0.0570002c0.0690002-0.1019998,0.045002-0.2189999,0.0179996-0.3209996
	c-0.066-0.0960002-0.0749989-0.1350002-0.198-0.1409998c-0.1469994-0.0300007-0.2519989-0.0659995-0.4379997-0.1950002
	L20.6199989-2.711c-0.0389977,0.0720005-0.0810013,0.1199999-0.1739979,0.1619997l-0.1889992-0.0120006
	c0,0-0.4350014-0.0960002-0.4350014-0.1019998s-0.0059986-0.0659995,0.0059986-0.0720005
	c0.012001-0.0059996,0.1500015-0.0059996,0.1620007-0.0059996C20.0830002-2.711,20.2750015-2.711,20.2750015-2.711
	L20.269001-2.8759995l0.2910004-0.0180001C20.5-3.0949993,20.4820023-3.224,20.2120018-3.2719994l-0.8460007,0.0239997
	l0.012001,0.1170001c-0.2130013-0.0300007-0.597002-0.0360003-0.7919998,0.0330005
	c-0.1140022,0.0120006-0.2790031,0.0689993-0.3540001,0.0689993l-0.0870018-0.0239997
	c-0.0569992-0.0180001-0.0569992-0.0360003-0.0359993-0.0839996c0.3659973-0.0300007,0.4229984-0.0570002,0.5340004-0.1079993
	c0.0060005-0.0360003-0.0389977-0.1079993-0.0569992-0.1110005c-0.230999-0.0120006-0.4110012,0.0059996-0.4740009-0.0059996
	c-0.0990009-0.0300007-0.230999-0.0780001-0.230999-0.0839996s-0.0179996-0.0900006-0.0119991-0.0900006
	s0.1500015,0.039,0.1560001,0.039c0.1560001,0.0300007,0.4229984,0.0180001,0.4859982-0.0180001l0.0060005-0.1229997
	c-0.0060005-0.0540004-0.045002-0.1079993-0.0569992-0.1110005c-0.012001-0.0059996-0.2519989-0.0360003-0.3360023-0.0360003
	C17.9830017-3.8029995,18.0040016-3.8720002,18.0040016-3.9409995z"/>
<path class="st3" d="M19.8520012-2.9420004c0.1290016,0.039,0.2249985,0.0540004,0.4169998,0.0659995l0.2910004-0.0180001
	C20.5-3.0950007,20.4820023-3.2240014,20.2120018-3.2720008l-0.8460007,0.0239997l0.012001,0.1170001
	C19.6359997-3.0319996,19.7590008-2.9810004,19.8520012-2.9420004z"/>
<path class="st22" d="M19.8520012-2.9420004c0.1290016,0.039,0.2249985,0.0540004,0.4169998,0.0659995l0.2910004-0.0180001
	C20.5-3.0950007,20.4820023-3.2240014,20.2120018-3.2720008l-0.8460007,0.0239997l0.012001,0.1170001
	C19.6359997-3.0319996,19.7590008-2.9810004,19.8520012-2.9420004z"/>
<path class="st1" d="M3.0159998-1.487L1.4829993-7.1989994L3.823-10.0309992l3.276,1.8719997l0.5550013,6.0510001
	C5.9830008-1.9849997,4.9000006-1.823,3.0159998-1.487z"/>
<path class="st13" d="M3.0159998-1.487L1.4829993-7.1989994L3.823-10.0309992l3.276,1.8719997l0.5550013,6.0510001
	C5.9830008-1.9849997,4.9000006-1.823,3.0159998-1.487z"/>
<polygon class="st8" points="-2.4680004,-6.2449999 -1.9069996,-5.8099999 -2.0089993,-5.0479994 -1.289,-5.3480005 
	-0.7160001,-4.9130006 -0.6350002,-5.6149998 -0.0440001,-5.849 -0.5360003,-6.3170004 -0.4249997,-7.0159998 
	-1.1359997,-6.7609997 -1.6550007,-7.1900001 -1.7719994,-6.5269995 "/>
<polygon class="st23" points="-2.4680004,-6.2449999 -1.9069996,-5.8099999 -2.0089993,-5.0479994 -1.289,-5.3480005 
	-0.7160001,-4.9130006 -0.6350002,-5.6149998 -0.0440001,-5.849 -0.5360003,-6.3170004 -0.4249997,-7.0159998 
	-1.1359997,-6.7609997 -1.6550007,-7.1900001 -1.7719994,-6.5269995 "/>
<path class="st24" d="M-2.4530001-6.2420001l2.4030004,0.3900003l-0.5969996,0.2459993l-0.5790009-0.414
	c0,0,0.5159998,1.0889997,0.5100002,1.0830002S-1.2650003-5.336-1.2800007-5.3540001l0.0480008-0.6660004
	c0,0-0.7650003,0.9660001-0.7650003,0.9600005s0.1110005-0.7559996,0.1110005-0.7559996L-2.4530001-6.2420001z"/>
<polygon class="st25" points="-1.7810001,-6.5150003 -1.2230005,-6.0410004 -1.6580005,-7.1870003 "/>
<path class="st25" d="M-1.1450005-6.7399998c0.0059996,0.0059996-0.0869994,0.6959996-0.0809999,0.6959996
	c0.0570002-0.0750003,0.7979994-0.9600005,0.7919998-0.9569993C-0.4400001-7.0009995-1.1329999-6.7340002-1.1450005-6.7399998z"/>
<polygon class="st8" points="20.4370003,-7.2169995 20.5779991,-6.5269995 19.9959984,-6.0109997 20.7459984,-5.7830005 
	20.8990021,-5.0839996 21.4179993,-5.5759997 22.0240021,-5.375 21.9580002,-6.0469999 22.4980011,-6.5120006 
	21.7900009,-6.7700005 21.6760006,-7.4240003 21.151001,-6.9920001 "/>
<polygon class="st23" points="20.4370003,-7.2169995 20.5779991,-6.5269995 19.9959984,-6.0109997 20.7459984,-5.7830005 
	20.8990021,-5.0839996 21.4179993,-5.5759997 22.0240021,-5.375 21.9580002,-6.0469999 22.4980011,-6.5120006 
	21.7900009,-6.7700005 21.6760006,-7.4240003 21.151001,-6.9920001 "/>
<path class="st25" d="M20.4430008-7.2050004l1.5779991,1.8209996l-0.6149998-0.1920004l-0.1709995-0.6810007
	c0,0-0.3240013,1.1610003-0.3240013,1.1519995c0-0.0089993-0.152998-0.6539998-0.1590004-0.6779995l0.473999-0.474
	c0,0-1.2179985,0.2520003-1.2149982,0.2490005c0.0030003-0.0059996,0.5820007-0.5100002,0.5820007-0.5100002L20.4430008-7.2050004z"
	/>
<polygon class="st25" points="21.1450005,-6.9979997 21.2619991,-6.2839999 21.6850014,-7.4359994 "/>
<path class="st25" d="M21.7810001-6.7700005c0,0.0089993-0.519001,0.474-0.5129986,0.4769998
	c0.0930004-0.0239997,1.2330017-0.2219996,1.2270012-0.2249994C22.4919987-6.5209999,21.7869987-6.7579999,21.7810001-6.7700005z"/>
<path class="st2" d="M1.4949999-7.1749997c0.8309999-0.3959999,1.7639995-0.7080002,2.7509995-0.8429999
	c0.948-0.1350002,1.8959999-0.1469994,2.8649998-0.1440001c0,0,0.1259995,1.4879994,0.1259995,1.5
	C6.4749994-6.6589999,5.907999-6.6710005,4.5610008-6.4970002C3.2169995-6.3109994,2.6649995-6.1519995,1.849-5.8400006
	L1.4949999-7.1749997z"/>
<path class="st14" d="M1.4949999-7.1749997c0.8309999-0.3959999,1.7639995-0.7080002,2.7509995-0.8429999
	c0.948-0.1350002,1.8959999-0.1469994,2.8649998-0.1440001c0,0,0.1259995,1.4879994,0.1259995,1.5
	C6.4749994-6.6589999,5.907999-6.6710005,4.5610008-6.4970002C3.2169995-6.3109994,2.6649995-6.1519995,1.849-5.8400006
	L1.4949999-7.1749997z"/>
<path class="st2" d="M2.2059999-4.5410004c-0.0120006,0,0.4199996,1.5750003,0.4199996,1.5750003
	c0.8010006-0.2009997,1.6140003-0.3540001,2.427-0.4680004S6.7330008-3.6140003,7.519001-3.6680007l-0.1380014-1.532999
	C6.5500011-5.2520003,5.6049995-5.2520003,4.75-5.1409998C3.8950005-5.0269995,3.0609994-4.8289995,2.2059999-4.5410004z"/>
<path class="st14" d="M2.2059999-4.5410004c-0.0120006,0,0.4199996,1.5750003,0.4199996,1.5750003
	c0.8010006-0.2009997,1.6140003-0.3540001,2.427-0.4680004S6.7330008-3.6140003,7.519001-3.6680007l-0.1380014-1.532999
	C6.5500011-5.2520003,5.6049995-5.2520003,4.75-5.1409998C3.8950005-5.0269995,3.0609994-4.8289995,2.2059999-4.5410004z"/>
<path class="st3" d="M-1.6129994,0.3220005h23.2259998v14.8920021C21.0220032,21.0130005,15.448,25.3480034,10.3540001,25.3180027
	C4.8549995,25.5580025-1.2259989,21.0580025-1.664,15.1660032L-1.6129994,0.3220005z"/>
<path class="st26" d="M-1.6129994,0.3220005h23.2259998v14.8920021C21.0220032,21.0130005,15.448,25.3480034,10.3540001,25.3180027
	C4.8549995,25.5580025-1.2259989,21.0580025-1.664,15.1660032L-1.6129994,0.3220005z"/>
<path class="st2" d="M-1.1270003,0.8439999h22.2570019v14.2739983c-0.5639992,5.559-5.9070005,9.7139988-10.7880001,9.6810017
	c-5.2709999,0.230999-11.0970001-4.0830002-11.5169992-9.729001L-1.1270003,0.8439999z"/>
<path class="st27" d="M-1.1270003,0.8439999h22.2570019v14.2739983c-0.5639992,5.559-5.9070005,9.7139988-10.7880001,9.6810017
	c-5.2709999,0.230999-11.0970001-4.0830002-11.5169992-9.729001L-1.1270003,0.8439999z"/>
<rect x="3.3519998" y="0.9190001" class="st3" width="4.4280009" height="4.7579999"/>
<path class="st3" d="M16.6569996,15.2199993v4.7040005l2.4960003,0.0119972
	c1.2060013-1.8059998,1.7339993-3.572998,1.8449974-4.7159977C20.9799995,15.2199993,16.6720009,15.217001,16.6569996,15.2199993z"
	/>
<path class="st28" d="M16.6569996,15.2199993v4.7040005l2.4960003,0.0119972
	c1.2060013-1.8059998,1.7339993-3.572998,1.8449974-4.7159977C20.9799995,15.2199993,16.6720009,15.217001,16.6569996,15.2199993z"
	/>
<path class="st3" d="M12.2290001,19.9720001v4.5150013c1.9169998-0.3869991,3.4919987-1.3439999,4.3830013-1.9890003
	l-0.0090008-2.5290012L12.2290001,19.9720001z"/>
<path class="st29" d="M12.2290001,19.9720001v4.5150013c1.9169998-0.3869991,3.4919987-1.3439999,4.3830013-1.9890003
	l-0.0090008-2.5290012L12.2290001,19.9720001z"/>
<path class="st3" d="M3.3850002,19.9720001l0.0089993,2.5229988c1.506001,1.0649986,3.2279992,1.7099991,4.3770003,1.9500008
	l-0.0150003-4.4730015L3.3850002,19.9720001z"/>
<path class="st29" d="M3.3850002,19.9720001l0.0089993,2.5229988c1.506001,1.0649986,3.2279992,1.7099991,4.3770003,1.9500008
	l-0.0150003-4.4730015L3.3850002,19.9720001z"/>
<path class="st3" d="M-1.0490003,15.2199993c0.1409998,1.842001,0.9689999,3.4919987,1.7969999,4.6469994l2.5800004,0.0539989
	v-4.7009983H-1.0490003z"/>
<path class="st28" d="M-1.0490003,15.2199993c0.1409998,1.842001,0.9689999,3.4919987,1.7969999,4.6469994l2.5800004,0.0539989
	v-4.7009983H-1.0490003z"/>
<rect x="-1.073" y="5.677" class="st3" width="4.4279995" height="4.7580013"/>
<rect x="7.7800007" y="5.677" class="st3" width="4.4279995" height="4.7580013"/>
<rect x="12.204999" y="0.8980002" class="st3" width="4.4279995" height="4.7579999"/>
<rect x="16.6330013" y="5.677" class="st3" width="4.4279995" height="4.7580013"/>
<rect x="3.3519998" y="10.4350014" class="st3" width="4.4280009" height="4.7580013"/>
<rect x="12.204999" y="10.4350014" class="st3" width="4.4279995" height="4.7580013"/>
<rect x="7.7800007" y="15.1929998" class="st3" width="4.4279995" height="4.7579985"/>
<path class="st10" d="M14.3740005-4.7030001c-0.0150003,0.0180001-0.0479994-0.2100005-0.0600014-0.2490005
	c-0.0150003-0.0599999-0.045001-0.1680007-0.0839996-0.3090005C14.3409986-5.0869994,14.3979988-4.8770003,14.3740005-4.7030001z"/>
<path class="st9" d="M14.3740005-4.7030001c-0.0150003,0.0180001-0.0479994-0.2100005-0.0600014-0.2490005
	c-0.0150003-0.0599999-0.045001-0.1680007-0.0839996-0.3090005C14.3409986-5.0869994,14.3979988-4.8770003,14.3740005-4.7030001z"/>
<path class="st30" d="M10-18.5c15.5999985,0,28.5,12.9000006,28.5,28.5S25.5999985,38.5,10,38.5S-18.5,25.5999985-18.5,10
	S-5.5999994-18.5,10-18.5 M10-20C-6.5-20-20-6.5-20,10s13.5,30,30,30s30-13.5,30-30S26.5-20,10-20L10-20z"/>
</svg>
