<?xml version="1.0" encoding="utf-8"?>
<svg version="1.1" id="Layer_1" xmlns="http://www.w3.org/2000/svg" xmlns:xlink="http://www.w3.org/1999/xlink" x="0px" y="0px"
	 viewBox="-22 -22 64 64" style="enable-background:new 0 0 20 20;" xml:space="preserve">
<style type="text/css">
	.st0{fill:#FFFFFF;stroke:#B6B6B6;stroke-width:0.15;}
	.st1{fill:#CE1126;}
	.st2{fill:#008751;}
	.st3{fill:#CCCCCC;}
</style>
<circle class="st0" cx="10" cy="10" r="28.8000011"/>
<path class="st1" d="M10-18.7999992c-12.5340004,0-23.1690006,8.0219994-27.1259995,19.2000008h54.2519989
	C33.1689987-10.7779999,22.5340004-18.7999992,10-18.7999992z"/>
<path class="st2" d="M37.1259995,19.5999985h-54.2519989C-13.1690006,30.7810001-2.5339999,38.8000031,10,38.8000031
	S33.1689987,30.7780018,37.1259995,19.5999985z"/>
<path class="st3" d="M10-18.5c15.5999985,0,28.5,12.9000006,28.5,28.5S25.5999985,38.5,10,38.5S-18.5,25.5999985-18.5,10
	S-5.5999994-18.5,10-18.5 M10-20C-6.5-20-20-6.5-20,10s13.5,30,30,30s30-13.5,30-30S26.5-20,10-20L10-20z"/>
</svg>
