<?xml version="1.0" encoding="utf-8"?>
<svg version="1.1" id="Layer_1" xmlns="http://www.w3.org/2000/svg" xmlns:xlink="http://www.w3.org/1999/xlink" x="0px" y="0px"
	 viewBox="-22 -22 64 64" style="enable-background:new 0 0 20 20;" xml:space="preserve">
<style type="text/css">
	.st0{fill:#FFFFFF;stroke:#B6B6B6;stroke-width:0.15;stroke-miterlimit:10;}
	.st1{fill:#FF9932;}
	.st2{fill:#128807;}
	.st3{fill:#000080;}
	.st4{fill:#CCCCCC;}
</style>
<circle class="st0" cx="10" cy="10" r="28.8000011"/>
<path class="st1" d="M10-18.7999992c-12.5340004,0-23.1690006,8.0219994-27.1259995,19.2000008h54.2519989
	C33.1689987-10.7779999,22.5340004-18.7999992,10-18.7999992z"/>
<path class="st2" d="M37.1259995,19.5999985h-54.2519989C-13.1690006,30.7810001-2.5339999,38.8000031,10,38.8000031
	S33.1689987,30.7780018,37.1259995,19.5999985z"/>
<g>
	<path class="st3" d="M10,1.0720005c-4.9320002,0-8.9279995,3.9959993-8.9279995,8.9279995S5.0679998,18.9279995,10,18.9279995
		S18.9279995,14.9320002,18.9279995,10S14.9320002,1.0720005,10,1.0720005z M9.4360008,17.8120003
		c0.0030012-0.2399998-0.1560001-0.4560013-0.3990011-0.4860001c-0.2519989-0.0359993-0.4799995,0.144001-0.5279989,0.3929996
		c-0.1829996-0.0360012-0.3570013-0.0990009-0.5369997-0.1469994l1.4610014-4.3499994C9.4090014,12.823,9.5980005,11.7490005,10,10
		c-0.5250006,1.7130003-0.9000006,2.7419987-1.1219988,3.0780001l-0.9060001,4.4969988
		c-0.1800013-0.0479984-0.3599997-0.1079998-0.5400009-0.1679993c0.0660009-0.2339993-0.032999-0.4829998-0.2580013-0.5790005
		c-0.230999-0.0959969-0.4799995,0.0150013-0.5970011,0.2280006c-0.1710005-0.0839996-0.329999-0.1739979-0.4919987-0.2669983
		l2.5350008-3.8189993C8.698,12.5739994,9.1600008,11.5839996,10,10c-0.9510012,1.5209999-1.5780001,2.4119997-1.8809996,2.6850014
		l-2.0400009,4.1040001c-0.1590014-0.0930004-0.3330002-0.1619987-0.4859991-0.2639999
		C5.743001,16.3150024,5.7039995,16.0240021,5.5,15.868001c-0.1949987-0.1500006-0.4620008-0.1080008-0.6269989,0.0629997
		c-0.144001-0.1230011-0.3060007-0.2280006-0.4379997-0.3599997l3.4620008-3.0570002
		C8.0770006,12.1479988,8.7790012,11.3139992,10,10c-1.3139992,1.2209988-2.1479988,1.9229994-2.5109997,2.105999
		l-3.0570002,3.4620008c-0.131999-0.131999-0.2370014-0.2939987-0.3599997-0.4379997
		C4.2459993,14.9620008,4.2850008,14.698,4.1350002,14.5030012c-0.1589999-0.2070007-0.4500003-0.243001-0.6599994-0.0930004
		c-0.1049995-0.1529989-0.1740003-0.3239994-0.2639995-0.4859991l4.1040001-2.0400009
		C7.5880003,11.5780001,8.4790001,10.9510012,10,10c-1.5839996,0.8399992-2.5739994,1.302-2.9699993,1.3830013l-3.8189993,2.5350008
		c-0.0960002-0.1619997-0.1829996-0.3239994-0.2670007-0.4919987c0.2160001-0.1140003,0.3239994-0.3659992,0.2280006-0.5970011
		c-0.0960002-0.2280006-0.3449993-0.3270006-0.5789995-0.2580013c-0.0599999-0.177-0.1170001-0.3540001-0.1680007-0.5400009
		L6.9219999,11.125C7.2580013,10.9000006,8.2869997,10.5250006,10,10c-1.7490005,0.4019995-2.823,0.5909986-3.2280006,0.5670004
		l-4.3499994,1.4610014c-0.0479994-0.1800013-0.1110005-0.3509989-0.1469994-0.5369997
		c0.2520003-0.045001,0.4260006-0.2729988,0.3930001-0.5279989c-0.0330005-0.243001-0.2490005-0.3990011-0.4860005-0.3990011
		C2.1729994,10.375,2.1279998,10.1920004,2.1279998,10s0.0419998-0.375,0.0570002-0.5639992
		C2.4249997,9.439002,2.638,9.2800007,2.6679993,9.0369997c0.0360003-0.2519989-0.1439996-0.4799995-0.3930001-0.5279989
		c0.0360003-0.1829996,0.099-0.3570013,0.1469994-0.5369997l4.3500009,1.4610014C7.177,9.4090014,8.2509995,9.5980005,10,10
		C8.2869997,9.4749994,7.2580013,9.0999994,6.9219999,8.8780012L2.4249997,7.9689999
		C2.4729991,7.7889986,2.532999,7.6090002,2.5930004,7.4289989c0.2340002,0.0660009,0.4829993-0.032999,0.5789995-0.2580013
		c0.0960002-0.230999-0.0150003-0.4799995-0.2280006-0.5970011c0.0809999-0.1710005,0.1740003-0.329999,0.2639995-0.4919987
		l3.8190007,2.5350008C7.4260006,8.698,8.4160004,9.1600008,10,10C8.4790001,9.0489988,7.5880003,8.4219999,7.3149986,8.1190004
		L3.211,6.0760012c0.0930004-0.1590014,0.1619997-0.329999,0.2639995-0.4830008
		C3.6849999,5.743001,3.9759989,5.7039995,4.131999,5.5c0.1500006-0.1949987,0.1080008-0.4620008-0.0629997-0.6269989
		c0.1230011-0.144001,0.2280006-0.3060007,0.3599997-0.4379997l3.0570002,3.4620008C7.8520012,8.0770006,8.6860008,8.7790012,10,10
		C8.7790012,8.6860008,8.0770006,7.8520012,7.894001,7.4890003L4.4320002,4.4320002
		C4.5670004,4.3000011,4.7290001,4.198,4.8699999,4.0720005C5.0379992,4.2459993,5.302,4.2850008,5.5,4.1350002
		c0.2070007-0.1589999,0.2459993-0.4500003,0.0959988-0.6599994C5.7459993,3.3729997,5.920001,3.3040004,6.0789995,3.211
		l2.0400009,4.1039987C8.4219999,7.5880003,9.0489988,8.4790001,10,10C9.1600008,8.4160004,8.698,7.4260006,8.6169987,7.0300007
		L6.0820007,3.2080002c0.1619997-0.0930004,0.3239994-0.1829996,0.4919987-0.2670007
		c0.1170015,0.2160001,0.3659992,0.3240008,0.5970011,0.2280006C7.3990011,3.073,7.5009995,2.8239994,7.4320002,2.5900006
		c0.177-0.0570002,0.3540001-0.1140003,0.5400009-0.1649995l0.9060001,4.4969988C9.0999994,7.2580013,9.4749994,8.2869997,10,10
		C9.5980005,8.2509995,9.4090014,7.177,9.4329996,6.7719994L7.9720011,2.4249997
		C8.1520023,2.3770003,8.323,2.3139992,8.5090008,2.2780004c0.045001,0.2520003,0.2700005,0.4260006,0.5279989,0.3930001
		C9.2800007,2.638,9.4389992,2.4249997,9.4360008,2.1849999C9.625,2.1729994,9.8079996,2.1279998,10,2.1279998
		s0.375,0.0419998,0.5639992,0.0570002c-0.0030012,0.2399998,0.1560001,0.4559999,0.3990011,0.4860005
		c0.2519989,0.0360003,0.4799995-0.1439996,0.5279989-0.3930001c0.1829996,0.0360003,0.3570013,0.099,0.5369997,0.1469994
		l-1.4610014,4.3500009C10.5909986,7.177,10.4019995,8.2509995,10,10c0.5250006-1.7130003,0.9000006-2.7419987,1.1219988-3.0780001
		l0.9060001-4.4970002c0.1800013,0.0479994,0.3599997,0.1079993,0.5400009,0.1680007
		c-0.0660009,0.2340002,0.032999,0.4829993,0.2580013,0.5789995c0.230999,0.0960002,0.4799995-0.0150003,0.5970011-0.2280006
		c0.1710005,0.0839996,0.329999,0.177,0.4919987,0.2670007l-2.5319996,3.8190007C11.302,7.4260006,10.8399992,8.4160004,10,10
		c0.9510012-1.5209999,1.5780001-2.4119997,1.8809996-2.6850014l2.0400009-4.1040001
		c0.1590014,0.0930004,0.3330002,0.1619997,0.4859991,0.2639995C14.256999,3.6849985,14.2960005,3.9759974,14.5,4.1349974
		c0.1949987,0.1500006,0.4620008,0.1080008,0.6269989-0.0629997c0.144001,0.1230011,0.3060007,0.2280006,0.4379997,0.3599997
		l-3.4620008,3.0570002C11.9229994,7.8520012,11.2209988,8.6860008,10,10
		c1.3139992-1.2209988,2.1479988-1.9229994,2.5109997-2.105999l3.0570002-3.4620008
		c0.131999,0.131999,0.2370014,0.2939987,0.3599997,0.4379997C15.7540007,5.0379992,15.7149992,5.302,15.8649998,5.4969988
		c0.1590023,0.2039995,0.4499989,0.243001,0.6569996,0.0930004c0.1049995,0.1529989,0.1739998,0.3239994,0.2639999,0.4859991
		l-4.1039991,2.0400009C12.4119997,8.4219999,11.5209999,9.0489988,10,10c1.5839996-0.8399992,2.5739994-1.302,2.9699993-1.3830013
		l3.8189983-2.5350008c0.0960007,0.1619997,0.1860008,0.3239994,0.2670002,0.4919987
		c-0.2159977,0.1140003-0.3239994,0.3659992-0.2280006,0.5970011c0.0959988,0.2280006,0.3449993,0.3270006,0.5760021,0.2580013
		c0.0600014,0.177,0.1169968,0.3540001,0.1679993,0.5400009L13.0779972,8.875C12.7419987,9.0999994,11.7130003,9.4749994,10,10
		c1.7490005-0.4019995,2.823-0.5909986,3.2280006-0.5670004l4.3470001-1.4610014
		c0.0480003,0.1800013,0.1110001,0.3509989,0.1469994,0.5369997c-0.2519989,0.045001-0.4259987,0.2729988-0.3929977,0.5279989
		c0.032999,0.243001,0.2490005,0.3990011,0.4860001,0.3990011C17.829998,9.625,17.875,9.8079996,17.875,10
		s-0.0419998,0.375-0.0569992,0.5639992c-0.2400017-0.0030012-0.4560013,0.1560001-0.4860001,0.3990011
		c-0.0359993,0.2519989,0.144001,0.4799995,0.3929977,0.5279989c-0.0359993,0.1829996-0.098999,0.3570013-0.1469994,0.5369997
		l-4.3470001-1.4610014C12.823,10.5909986,11.7490005,10.4019995,10,10
		c1.7130003,0.5250006,2.7419987,0.9000006,3.0780001,1.1219988l4.4969988,0.9060001
		c-0.0479984,0.1800013-0.1079998,0.3599997-0.1679993,0.5400009c-0.2339993-0.0660009-0.4829998,0.032999-0.5760021,0.2580013
		c-0.0959969,0.230999,0.0150013,0.4799995,0.2280006,0.5970011c-0.0839996,0.1710005-0.1739979,0.329999-0.2669983,0.4919987
		l-3.8189993-2.5350008C12.5739994,11.302,11.5839996,10.8399992,10,10
		c1.5209999,0.9510012,2.4119997,1.5780001,2.6850014,1.8809996l4.1040001,2.0400009
		c-0.0930004,0.1590014-0.1619987,0.3330002-0.2639999,0.4859991C16.3150024,14.256999,16.0240021,14.2960005,15.868001,14.5
		c-0.1500006,0.1949987-0.1080008,0.4620008,0.0629997,0.6269989c-0.1230011,0.144001-0.2280006,0.3060007-0.3599997,0.4379997
		l-3.0570002-3.4620008C12.1480017,11.9229965,11.314002,11.2209988,10,9.9999971
		c1.2209988,1.3139992,1.9229994,2.1479988,2.105999,2.5109997l3.4620008,3.0570002
		c-0.131999,0.131999-0.2939987,0.2370014-0.4379997,0.3599997c-0.1679993-0.1739988-0.4320002-0.2130003-0.6269989-0.0629997
		c-0.2039995,0.1590014-0.243001,0.4499979-0.0930004,0.6569986c-0.1529989,0.1049995-0.3239994,0.1739998-0.4859991,0.2640018
		l-2.0400009-4.1040001C11.5780001,12.4119997,10.9510012,11.5209999,10,10
		c0.8399992,1.5839996,1.302,2.5739994,1.3830013,2.9699993l2.5350008,3.8189983
		c-0.1619997,0.0960007-0.3239994,0.1830006-0.4919987,0.2670002c-0.1140003-0.2159977-0.3659992-0.3239994-0.5970011-0.2280006
		c-0.2280006,0.0959988-0.3270006,0.3449993-0.2580013,0.5790005c-0.177,0.0600014-0.3540001,0.1169968-0.5400009,0.1679993
		L11.125,13.0779972C10.9000006,12.7419987,10.5250006,11.7130003,10,10c0.4019995,1.7490005,0.5909986,2.823,0.5670004,3.2280006
		l1.4610014,4.3499985c-0.1800013,0.0480003-0.3509989,0.1110001-0.5369997,0.1469994
		c-0.045001-0.2519989-0.2729988-0.4259987-0.5279989-0.3929977c-0.243001,0.032999-0.3990011,0.2490005-0.3990011,0.4860001
		C10.3750029,17.8330002,10.1920033,17.875,10.0000029,17.875S9.625,17.8269997,9.4360008,17.8120003z"/>
	<path class="st3" d="M10,10c-0.0629997,1.7910004-0.1619997,2.8800001-0.2879992,3.2640009L10,17.8719978l0.2879992-4.6079998
		C10.1619997,12.8800001,10.0629997,11.7910004,10,10z"/>
	<path class="st3" d="M2.1279998,10l4.6079993,0.2879992C7.1199999,10.1619997,8.2089996,10.0629997,10,10
		C8.2089996,9.9370003,7.1199999,9.8380003,6.7359991,9.7120008L2.1279998,10z"/>
	<path class="st3" d="M10,2.1279998L9.7120008,6.7359991C9.8380003,7.1199999,9.9370003,8.2089996,10,10
		c0.0629997-1.7910004,0.1619997-2.8800001,0.2879992-3.2640009L10,2.1279998z"/>
	<path class="st3" d="M17.8719978,10L13.263998,9.7120008C12.8800001,9.8380003,11.7910004,9.9370003,10,10
		c1.7910004,0.0629997,2.8800001,0.1619997,3.2640009,0.2879992L17.8719978,10z"/>
</g>
<path class="st4" d="M10-18.5c15.5999985,0,28.5,12.9000006,28.5,28.5S25.5999985,38.5,10,38.5S-18.5,25.5999985-18.5,10
	S-5.5999994-18.5,10-18.5 M10-20C-6.5-20-20-6.5-20,10s13.5,30,30,30s30-13.5,30-30S26.5-20,10-20L10-20z"/>
</svg>
