<?xml version="1.0" encoding="utf-8"?>
<svg version="1.1" id="Layer_1" xmlns="http://www.w3.org/2000/svg" xmlns:xlink="http://www.w3.org/1999/xlink" x="0px" y="0px"
	 viewBox="-22 -22 64 64" style="enable-background:new 0 0 20 20;" xml:space="preserve">
<style type="text/css">
	.st0{fill:#FFFFFF;stroke:#B6B6B6;stroke-width:0.15;stroke-miterlimit:10;}
	.st1{fill:#CE1126;}
	.st2{fill:#009E60;}
	.st3{fill:#CCCCCC;}
</style>
<circle class="st0" cx="10" cy="10" r="28.8000011"/>
<path class="st1" d="M10-18.7999992c-12.0179996,0-22.3050003,7.368-26.6219978,17.823h53.2439995
	C32.3050003-11.4320002,22.0179977-18.7999992,10-18.7999992z"/>
<path d="M36.9609985,20.0559998h-53.9219971C-12.8719997,30.9939976-2.3599997,38.8000031,10,38.8000031
	S32.8720016,30.9939976,36.9609985,20.0559998z"/>
<path class="st2" d="M6.9399986,10.2189999c0-3.1500006,0.0269995-4.5269995,0.0870008-4.5689993
	c0.0479994-0.0300007,0.2520018,0.1350002,0.4560013,0.3659992C7.6870003,6.25,8.0529995,6.625,8.2960005,6.8499994
	C8.677,7.2039995,8.7160015,7.2700005,8.599,7.3480005c-0.3959999,0.2580013-0.3840008,0.1800013-0.3840008,3.1739988v2.8139992
	h0.7619991c0.6810007,0,0.8039989-0.0269995,1.1159992-0.2249994c0.3900003-0.2490005,0.4139986-0.2159986,0.2220011,0.2790012
	c-0.0720005,0.1829996-0.1529989,0.5489988-0.1800013,0.8129997l-0.0449982,0.4770012l-1.5749989,0.0240011l-1.5750017,0.020997
	V10.2189999z M-10.3400002,16.8549995C-10.5199995,16.782999-10.8079996,16.5489998-11,16.3239994
	c-0.3570004-0.4260006-0.4379997-0.6240005-0.198-0.4830008c0.3570004,0.21,1.0679998,0.3449984,1.323,0.2519999
	c0.9329996-0.3360023,1.1429996-1.6920013,0.3990002-2.5530005C-9.6199999,13.375-9.7399998,13.1800013-9.7399998,13.1080008
	s0.1560001-0.2039995,0.3450003-0.2939987c0.2639999-0.1259995,0.3959999-0.2669992,0.5640001-0.6090002
	C-8.6569996,11.8600025-8.585,11.7850008-8.507,11.8600025c0.1170006,0.1080008,0.5190005,1.1459999,0.5190005,1.3439999
	c0,0.1080008,0.1439996,0.1290007,0.7979994,0.1290007h0.8010006l-0.1229997-0.3239994
	c-0.0689993-0.1800013-0.1799998-0.420001-0.2520003-0.5369997C-6.875,12.2860031-6.875,12.2530041-6.769999,12.1690044
	c0.0659995-0.0510006,0.2880006-0.2220011,0.4920001-0.3780012s0.3959999-0.3509989,0.4229994-0.4350014
	c0.0720005-0.2070007,0.513-0.8039989,0.5939999-0.8039989c0.0360003,0,0.0659995,0.6240005,0.0659995,1.3890009v1.3890009
	h4.9890003H4.782999v-1.9890003V9.3580008L4.5040007,9.1719999l-0.276-0.1889992L3.9459996,9.217001L3.6669998,9.4510012v1.4219999
	v1.4219999h-4.1909995c-2.3040004,0-4.1909995-0.0150003-4.1909995-0.0360003c0-0.0300007,2.0850005-3.0930004,2.3399992-3.4350014
	c0.0540004-0.0749989,0.1859994-0.2669992,0.2940001-0.4379997c0.1079993-0.1650009,0.2160001-0.3239994,0.2429996-0.3449993
	c0.0269995-0.0240011,0.1350002-0.1800013,0.2429996-0.3480005c0.105001-0.1679993,0.2280006-0.3480005,0.2730002-0.4050007
	c0.0449996-0.0539989,0.8010006-1.157999,1.6799998-2.4449987c0.8790007-1.2899995,1.6199999-2.3460002,1.6530004-2.349
	C2.0410004,2.4910007,2.086,2.599,2.1099997,2.7280006c0.1320004,0.7260003,0.2340002,1.1309996,0.336,1.355999
	C2.5780001,4.3659992,2.5,4.4770012,2.1489997,4.4890003c-0.1679993,0.0029984-0.552,0.5159998-2.3519998,3.1409998
	c-1.1879997,1.7249994-2.1660004,3.1679993-2.1810007,3.2039995s1.0529995,0.0689993,2.3729997,0.0689993h2.4030004V9.9699993
	c0-0.5129986,0.0300007-0.9720011,0.0599999-1.0229988c0.1500006-0.2280006,1.737-1.4340019,1.848002-1.4040012
	c0.0689993,0.0209999,0.4919987,0.342001,0.9449987,0.7139997l0.8160009,0.6779995v2.8950005v2.8950005h-6.933001H-7.802
	l-0.138,0.5579996c-0.1679997,0.6719999-0.4410005,1.1550007-0.8069997,1.4279995
	C-9.0950003,16.9689999-9.8780003,17.0379982-10.3400002,16.8549995z M-6.9290004,17.1280022l-0.4949999-0.5429993
	l0.5009995-0.5400009l0.5009995-0.5400019l0.4949999,0.5460005l0.4949999,0.5429993l-0.5009995,0.5400009l-0.5009995,0.5400009
	L-6.9290004,17.1280022z"/>
<path class="st2" d="M19.2070007,3.9669995C19.0149994,3.823,18.6070023,3.0879989,18.592001,2.8540001
	c-0.0150013-0.198,0.0209999-0.2609997,0.1499996-0.2819996c0.230999-0.0360003,0.3330002,0.1290007,0.5100021,0.8010006
	C19.3959999,3.9190001,19.3840008,4.0959988,19.2070007,3.9669995z M18.2380009,5.401
	c-0.1410007-0.0570002-0.3029995-0.1560001-0.3599987-0.2220011c-0.0870018-0.1020012-0.0419998-0.1080008,0.2729988-0.0600014
	c0.5699978,0.0899992,0.9179993-0.0179987,1.2359982-0.3719988l0.2790012-0.3149986l0.3899994,0.1500006
	c0.2130013,0.0839996,0.4379997,0.1290007,0.4950008,0.1049995c0.152998-0.0629997,0.4320011-0.5429993,0.4050007-0.6959996
	c-0.0359993-0.1859994,0.1230011-0.1589999,0.2220001,0.039c0.1889992,0.3900003,0.0330009,0.881999-0.3330002,1.0319996
	c-0.1800003,0.0749989-0.3509979,0.0749989-0.6419983,0.0090008c-0.3570023-0.0839996-0.4139977-0.0749989-0.5699997,0.0839996
	C19.2790012,5.5090008,18.7480011,5.6049995,18.2380009,5.401z M24.5439987,10.1409998
	c0-3.1619997,0.0270004-4.545001,0.0870018-4.5839996c0.0479984-0.032999,0.2549992,0.131999,0.4619999,0.3690004
	c0.2040005,0.2340002,0.5699978,0.6120014,0.816,0.8339996c0.3840027,0.3570013,0.4230003,0.4229994,0.3060017,0.5009995
	c-0.3959999,0.2609997-0.3840008,0.1800013-0.3840008,3.1860008v2.8260012h0.782999
	c0.7080002,0,0.8100014-0.0209999,1.0889988-0.2249994c0.1679993-0.1230011,0.3240032-0.2039995,0.3480015-0.1800013
	c0.0239983,0.0269995-0.0209999,0.2159986-0.0990009,0.420001c-0.0779991,0.2040024-0.1650009,0.5909986-0.1889992,0.8520012
	l-0.0479984,0.4770012l-1.5810013,0.0240011l-1.5869999,0.0240011v-4.5240068H24.5439987z M17.5749989,12.7030001v-0.5670004
	h-0.3149986c-0.4200001,0-0.8070011,0.3959999-0.8070011,0.8339996v0.3000011h0.5610008h0.5610008L17.5749989,12.7030001
	L17.5749989,12.7030001z M15.1870003,13.5550013c0.0389986-1.2659998,0.1619997-1.698,0.5909986-2.1090002
	c0.3270006-0.3149986,0.8009996-0.4649992,1.3439989-0.4260006l0.4080009,0.0300007l0.0269985-0.519001
	c0.032999-0.6569996-0.0240002-0.894001-0.2250004-0.9630003c-0.243-0.0839996-0.1919994-0.3570013,0.1020012-0.5550013
	c0.144001-0.099,0.4920006-0.4320002,0.7770004-0.75C18.4959984,7.948,18.757,7.6929998,18.7929993,7.6929998
	s0.0629997,1.256999,0.0629997,2.7869997v2.7869997h0.5610008h0.5610008v-2.868001
	c0-2.4899998-0.0179977-2.8859997-0.1259995-3.0030012c-0.0690002-0.0749989-0.1590004-0.1379986-0.198-0.1379986
	c-0.1800022,0-0.0510006-0.3480005,0.1830006-0.5100002c0.144001-0.099,0.4919968-0.4320002,0.7740002-0.7440004
	c0.2819996-0.3120003,0.5429993-0.5460005,0.5790005-0.5219994c0.0359993,0.0240011,0.066,1.7850008,0.066,3.9179993v3.8699999
	h0.5610008h0.5610008V9.3070002V5.3409986l-0.1980038-0.1919975c-0.1079998-0.1049995-0.197998-0.2370014-0.197998-0.2939987
	s0.2519989-0.3239994,0.5519981-0.5909986c0.3060017-0.2670007,0.6300011-0.6060004,0.7259998-0.75
	c0.407999-0.6240005,0.4019985-0.7169995,0.4019985,5.4389992v5.7060013H19.407999h-4.2540007L15.1870003,13.5550013z"/>
<path class="st3" d="M10-18.5c15.5999985,0,28.5,12.9000006,28.5,28.5S25.5999985,38.5,10,38.5S-18.5,25.5999985-18.5,10
	S-5.5999994-18.5,10-18.5 M10-20C-6.5-20-20-6.5-20,10s13.5,30,30,30s30-13.5,30-30S26.5-20,10-20L10-20z"/>
</svg>
