<?xml version="1.0" encoding="utf-8"?>
<svg version="1.1" id="Layer_1" xmlns="http://www.w3.org/2000/svg" xmlns:xlink="http://www.w3.org/1999/xlink" x="0px" y="0px"
	 viewBox="-22 -22 64 64" style="enable-background:new 0 0 20 20;" xml:space="preserve">
<style type="text/css">
	.st0{fill:#FFFFFF;stroke:#B6B6B6;stroke-width:0.15;stroke-miterlimit:10;}
	.st1{fill:#239F40;}
	.st2{fill:#DA0000;}
	.st3{fill:#CCCCCC;}
</style>
<circle class="st0" cx="10" cy="10" r="28.8000011"/>
<path class="st1" d="M-13.1389999,0.4450002h0.4589996v-0.4589996h4.125v0.4589996h0.4589996v-0.4589996h4.1250005v0.4589996
	h0.4589996v-0.4589996h4.125v0.4589996h0.4589996v-0.4589996h4.1250014v0.4589996h0.4589996v-0.4589996h4.1219988v0.4589996
	h0.4589996v-0.4589996h4.125v0.4589996h0.4589996v-0.4589996h4.125001v0.4589996h0.4589996v-0.4589996h4.125v0.4589996h0.4589996
	v-0.4589996h4.1249962v0.4589996h0.4589996v-0.4589996h4.125v0.4589996h0.4589996v-0.4589996h3.836998
	C36.9369965-0.1669998,36.885994-0.323,36.8259926-0.4729991H34.989994v-0.9180007h-1.3740005v0.9149995h-0.4589996v-1.3709993
	h2.2919998v0.9149995h1.2089996c-0.0629997-0.1530004-0.1230011-0.3060007-0.1860008-0.4589996h-0.5639992v-0.4559999h0.3419991
	c-0.0690002-0.1560001-0.1469955-0.3059993-0.2219963-0.4589996h-2.8710022v-0.4590011h2.6489983
	C31.0779972-12.257,21.3160019-18.7999992,10-18.7999992c-11.3969994,0-21.2159996,6.6359997-25.8869991,16.2390003v0.2520003
	h-0.1230011C-16.0820007-2.1530004-16.1599998-2-16.2320004-1.8469996h0.8010006v-0.9180007h0.4619999v1.8330002h0.4589996
	v-1.8330002h0.4590006v1.8330002h0.4590006v-1.8330002h0.4589996v2.289h-2.2980003v-0.9149995h-1.0200005
	c-0.066,0.1530004-0.1259995,0.3059993-0.1889992,0.4619994h0.7529993v0.4589996h-0.9210005
	c-0.0569992,0.1500006-0.1079998,0.3059993-0.1679993,0.4589996h3.8369999
	C-13.1389999-0.0139995-13.1389999,0.4450002-13.1389999,0.4450002z M34.0540009-0.9290004h0.4589996v0.4589996h-0.4589996
	V-0.9290004z M25.3509979-0.4730005H24.888998v-0.4559999h0.4589996L25.3509979-0.4730005L25.3509979-0.4730005z
	 M30.3879986-1.8469996v-0.9180007h0.4589996v1.8330002h0.4589996v-1.8330002h0.4589996v1.8330002h0.4590015v-1.8330002h0.4589996
	v2.289h-2.2890034v-0.9149995h-1.3740005v0.4589996h0.9150009v0.4589996h-1.3740005v-1.3739991H30.3879986z M23.973999-2.7650003
	h5.9549999v0.4589996H23.973999V-2.7650003z M23.973999-1.8469996h2.2889996v0.9149995h1.3740005v-0.4589996h-0.9150009v-0.4559999
	h1.3740005v1.3740005h-2.2890015v-0.9180007h-1.3740005v0.9149995h-0.4589996
	C23.9739971-0.4760003,23.9739971-1.8469996,23.973999-1.8469996z M16.1860008-0.4730005h-0.4589996v-0.4559999h0.4589996
	V-0.4730005z M21.2259979-2.7650003h0.4589996v1.8330002h0.4589996v-1.8330002h0.4560013v1.8330002h0.4589996v-1.8330002h0.4589996
	v2.289h-2.2889977v-0.9149995h-1.3769989v0.4589996h0.9150009v0.4589996h-1.3740005v-1.3739991h1.8330002L21.2259979-2.7650003
	L21.2259979-2.7650003z M14.8120003-2.7650003h5.954998v0.4589996h-5.954998V-2.7650003z M14.8120003-1.8469996h2.2890015v0.9149995
	h1.3740005v-0.4589996h-0.9150009v-0.4559999h1.3740005v1.3740005h-2.2890015v-0.9180007h-1.3740005v0.9149995h-0.4589996
	V-1.8469996z M7.0209999-0.4730005H6.5649986v-0.4559999h0.4589996C7.0209999-0.9290004,7.0209999-0.4730005,7.0209999-0.4730005z
	 M12.0610008-2.7650003h0.4589996v1.8330002h0.4589996v-1.8330002h0.4589996v1.8330002h0.4589996v-1.8330002h0.4589996v2.289
	h-2.2919998v-0.9149995h-1.3740005v0.4589996h0.9150009v0.4589996h-1.3709993v-1.3739991h1.8330002v-0.9180007H12.0610008z
	 M5.6469994-2.7650003h5.954999v0.4589996h-5.954999V-2.7650003z M5.6469994-1.8469996h2.2919998v0.9149995h1.3740005v-0.4589996
	H8.3950005v-0.4559999H9.769001v1.3740005H7.4799995v-0.9180007H6.105999v0.9149995H5.6469994V-1.8469996z M-2.1409998-0.4730005
	h-0.4589996v-0.4559999h0.4589996V-0.4730005z M2.8989997-2.7650003h0.4589996v1.8330002H3.816999v-1.8330002H4.276v1.8330002
	h0.4589996v-1.8330002h0.4589996v2.289H2.8989997v-0.9149995H1.5250006v0.4589996h0.9149995v0.4589996H1.0659995v-1.3739991
	h1.8330002V-2.7650003z M-3.5150003-2.7650003h5.9550004v0.4589996h-5.9550004V-2.7650003z M-3.5150003-1.8469996h2.289v0.9149995
	H0.151v-0.4589996h-0.9180007v-0.4559999h1.3740005v1.3740005h-2.2919998v-0.9180007h-1.3740005v0.9149995h-0.4559999V-1.8469996z
	 M-11.3059998-0.4730005h-0.4590006v-0.4559999h0.4589996C-11.3060007-0.9290004-11.3060007-0.4730005-11.3059998-0.4730005z
	 M-6.2659998-2.7650003h0.4589996v1.8330002h0.4589996v-1.8330002h0.4619994v1.8330002h0.4589996v-1.8330002h0.4589996v2.289
	h-2.297998v-0.9149995h-1.3740005v0.4589996h0.9149995v0.4589996H-8.099v-1.3739991h1.8330002V-2.7650003z M-12.6800003-2.7650003
	h5.9550009v0.4589996h-5.9550009V-2.7650003z M-12.6800003-1.8469996h2.2890005v0.9149995h1.3739996v-0.4589996h-0.9119997
	v-0.4559999h1.3739996v1.3740005h-2.2919998v-0.9180007h-1.3740005v0.9149995h-0.4589996V-1.8469996z"/>
<path class="st2" d="M35.788002,22.7649994h-0.8190002v-0.9150009h-1.3740005v0.9150009h-0.4589996v-1.3740005h2.2919998v0.9150009
	h0.5790024c0.0719986-0.152998,0.1499939-0.3029976,0.2219963-0.4589996H35.887001v-0.4589996h0.5639954
	c0.0660019-0.152998,0.1259995-0.3059998,0.1860046-0.4589996h-3.5009995v-0.4589996h3.6689987
	c0.0599976-0.1499996,0.1110001-0.3059998,0.1679993-0.4589996h-3.836998V19.552002h-0.4560013v0.4589996h-4.1250019V19.552002
	h-0.4589996v0.4589996h-4.125V19.552002h-0.4589996v0.4589996h-4.125V19.552002h-0.4589996v0.4589996h-4.125V19.552002h-0.4589996
	v0.4589996h-4.1219988V19.552002H9.769001v0.4589996H5.6469994V19.552002H5.1879997v0.4589996H1.0659995V19.552002H0.6069999
	v0.4589996h-4.1220002V19.552002H-3.974v0.4589996h-4.125V19.552002h-0.4560003v0.4589996h-4.125V19.552002h-0.4589996v0.4589996
	h-3.8339996c0.0569992,0.1529999,0.1079998,0.309,0.1679993,0.4589996h0.9180002v0.4589996h-0.7529993
	c0.0629997,0.1529999,0.1229992,0.3060017,0.1859989,0.4589996h1.0230007v-0.9150009h0.4619999v1.8330002h0.4589996v-1.8330002
	h0.4590006v1.8330002h0.4590006v-1.8330002h0.4589996v2.2889996h-2.2980003v-0.9150009h-0.8010006
	c0.0690002,0.1560001,0.1470013,0.3060017,0.2220001,0.4589996h0.1199999v0.2519989
	C-11.2159996,32.1640015-1.3969994,38.8000031,10,38.8000031C21.3160019,38.8000031,31.0779972,32.2570038,35.788002,22.7649994z
	 M34.0540009,22.3059998h0.4589996v0.4589996h-0.4589996V22.3059998z M-12.6800003,20.4729996h5.9550009v0.4589996h-5.9550009
	V20.4729996z M-11.3059998,22.7649994h-0.4590006v-0.4589996h0.4589996
	C-11.3060007,22.3059998-11.3060007,22.7649994-11.3059998,22.7649994z M-8.5550003,22.7649994h-2.2919998v-0.9150009h-1.3740005
	v0.9150009h-0.4589996v-1.3740005h2.2890005v0.9150009h1.3739996v-0.4589996h-0.9119997v-0.4589996h1.3739996V22.7649994z
	 M-3.974,22.7649994h-2.2919998v-0.9150009h-1.3740005v0.4589996h0.9149995v0.4589996H-8.099v-1.3740005h1.8330002v-0.9150009
	h0.4589996v1.8330002h0.4589996v-1.8330002h0.4619994v1.8330002h0.4589996v-1.8330002h0.4589996v2.2860031H-3.974z
	 M-3.5150003,20.4729996h5.9550004v0.4589996h-5.9550004V20.4729996z M-2.1409998,22.7649994h-0.4589996v-0.4589996h0.4589996
	V22.7649994z M0.6069999,22.7649994h-2.2919998v-0.9150009h-1.3740005v0.9150009h-0.4559999v-1.3740005h2.289v0.9150009H0.151
	v-0.4589996h-0.9180007v-0.4589996h1.3740005V22.7649994L0.6069999,22.7649994z M5.1879997,22.7649994h-2.289v-0.9150009H1.5250006
	v0.4589996h0.9149995v0.4589996H1.0659995v-1.3740005h1.8330002v-0.9150009h0.4589996v1.8330002H3.816999v-1.8330002H4.276
	v1.8330002h0.4589996v-1.8330002h0.4589996v2.2860031H5.1879997z M7.0209999,22.7649994H6.5649986v-0.4589996h0.4589996
	C7.0209999,22.3059998,7.0209999,22.7649994,7.0209999,22.7649994z M9.769001,22.7649994H7.4799995v-0.9150009H6.105999v0.9150009
	H5.6469994v-1.3740005h2.2919998v0.9150009h1.3740005v-0.4589996H8.3950005v-0.4589996H9.769001V22.7649994z M5.6469994,20.9289989
	v-0.4589996h5.954999v0.4589996H5.6469994z M14.3530006,22.7649994h-2.2919998v-0.9150009h-1.3740005v0.4589996h0.9150009v0.4589996
	h-1.3709993v-1.3740005h1.8330002v-0.9150009h0.4589996v1.8330002h0.4589996v-1.8330002h0.4589996v1.8330002h0.4589996v-1.8330002
	h0.4589996C14.3530006,20.4759979,14.3530006,22.7649994,14.3530006,22.7649994z M14.8120003,20.4729996h5.954998v0.4589996
	h-5.954998V20.4729996z M16.1860008,22.7649994h-0.4589996v-0.4589996h0.4589996V22.7649994z M18.9339981,22.7649994h-2.2889977
	v-0.9150009h-1.3740005v0.9150009h-0.4589996v-1.3740005h2.2890015v0.9150009h1.3740005v-0.4589996h-0.9150009v-0.4589996h1.3740005
	C18.9340019,21.3880005,18.9340019,22.7649994,18.9339981,22.7649994z M23.5149994,22.7649994h-2.2889977v-0.9150009h-1.3769989
	v0.4589996h0.9150009v0.4589996h-1.3740005v-1.3740005h1.8330002v-0.9150009h0.4589996v1.8330002h0.4589996v-1.8330002h0.4589996
	v1.8330002h0.4589996v-1.8330002h0.4589996L23.5149994,22.7649994L23.5149994,22.7649994z M23.973999,20.4729996h5.9549999
	v0.4589996H23.973999V20.4729996z M25.3509979,22.7649994H24.888998v-0.4589996h0.4589996L25.3509979,22.7649994
	L25.3509979,22.7649994z M28.0990028,22.7649994h-2.2890015v-0.9150009h-1.3740005v0.9150009h-0.4589996v-1.3740005h2.2890015
	v0.9150009h1.3740005v-0.4589996h-0.9150009v-0.4589996h1.3740005V22.7649994z M29.9289989,22.7649994h-1.3740005v-1.3740005
	h1.8330002v-0.9150009h0.4589996v1.8330002h0.4589996v-1.8330002h0.4589996v1.8330002h0.4590015v-1.8330002h0.4589996v2.2889996
	h-2.2890034v-0.9150009h-1.3740005v0.4589996h0.9150009C29.9289989,22.3059998,29.9289989,22.7649994,29.9289989,22.7649994z"/>
<g>
	<path class="st2" d="M8.5,3.0159998c0.2370014,0.1320004,0.519001,0.1859994,0.7860003,0.1469994
		C9.5560007,3.1240005,9.8110008,2.9920001,10,2.7999997c0.1889992,0.1950002,0.4439993,0.3239994,0.7139997,0.3629994
		C10.980999,3.1989994,11.2629986,3.1479988,11.5,3.0159998c0.2370014-0.1320004,0.4260006-0.3449993,0.5340014-0.5969996
		s0.1259995-0.5369997,0.0600014-0.7979994c-0.2099991,0.3389997-0.5670004,0.5850005-0.9599991,0.6599994
		C10.7409992,2.3530006,10.3210011,2.2570004,10,2.0139995c-0.3210011,0.243001-0.7409992,0.3390012-1.1340008,0.2670007
		c-0.3929987-0.0750003-0.75-0.3209996-0.9599991-0.6599994c-0.0660009,0.2639995-0.045001,0.5489988,0.0599985,0.7979994
		C8.0739994,2.6710005,8.2629986,2.8839993,8.5,3.0159998z"/>
	<path class="st2" d="M11.4759989,16.5880013C12.724,15.901,13.7889986,14.8809996,14.5059996,13.6479988
		c0.9420004-1.6199999,1.2810001-3.5760012,0.9389992-5.4179993c-0.342001-1.8389997-1.3649998-3.5460005-2.8289995-4.7160001
		c0.9720011,1.3290009,1.5479994,2.9400001,1.6350002,4.5840011s-0.3179998,3.3089991-1.1429987,4.730999
		c-0.5639992,0.9689999-1.3320007,1.8060007-2.2259989,2.4840002l0.1650009-11.4090004L10,3.0609994L8.9530001,3.9130006
		L9.118001,15.3220005C8.224,14.644001,7.4560013,13.8070002,6.8920021,12.8380003
		c-0.8310013-1.4279995-1.236002-3.0899992-1.1460028-4.7370014c0.0870008-1.6409998,0.663002-3.2550001,1.6350002-4.5839982
		C5.920001,4.6899986,4.8969994,6.394001,4.5550013,8.2359991S4.552,12.0339985,5.4940004,13.6539984
		c0.717001,1.2330008,1.7819996,2.2530012,3.0300007,2.9400015c-1.2030001,0.4110012-2.493001,0.5610008-3.7590008,0.4110012
		c1.3830013,0.5519981,2.9189987,0.6809998,4.3829985,0.4079971L9.151,17.5270004L10,18.5080013l0.849-0.980999l0.0030012-0.1140003
		c1.4639997,0.2700005,3,0.1469994,4.3830013-0.407999C13.9749994,17.1520004,12.6820002,17.0019989,11.4759989,16.5880013z"/>
	<path class="st2" d="M16.9449997,5.3649998c-0.8729992-1.0140009-2.0549994-1.7579999-3.3450003-2.1060004
		c0.948,0.6870003,1.7519989,1.5779986,2.3399992,2.5890012c0.5909996,1.0109997,0.9720001,2.1479988,1.1070023,3.3120003
		c0.1349983,1.1639986,0.0269985,2.3549995-0.321003,3.4770012c-0.3479996,1.1220016-0.9239979,2.1689987-1.6889982,3.0570002
		c1.1789999-0.6359997,2.1570005-1.6290007,2.7719984-2.8170004c0.6150017-1.1879997,0.8700008-2.5589991,0.7170029-3.8880014
		C18.3759995,7.6600008,17.8149986,6.3790007,16.9449997,5.3649998z"/>
	<path class="st2" d="M3.2709999,12.6369991c-0.3419995-1.1190004-0.4530001-2.3129997-0.3209996-3.4770012
		c0.138-1.1639986,0.5159998-2.2979965,1.1100011-3.3119974c0.5879974-1.0140009,1.3919992-1.9020009,2.3399992-2.5890012
		C5.1099997,3.6099997,3.9279995,4.3509989,3.0549998,5.3649998c-0.8699999,1.0140009-1.4309993,2.295001-1.5869994,3.6240005
		c-0.1530004,1.3289995,0.099,2.6999989,0.7169995,3.8879986c0.6149998,1.1879997,1.5960002,2.1810007,2.7720008,2.8170004
		C4.1949987,14.8060007,3.6160007,13.7590008,3.2709999,12.6369991z"/>
</g>
<path class="st3" d="M10-18.5c15.5999985,0,28.5,12.9000006,28.5,28.5S25.5999985,38.5,10,38.5S-18.5,25.5999985-18.5,10
	S-5.5999994-18.5,10-18.5 M10-20C-6.5-20-20-6.5-20,10s13.5,30,30,30s30-13.5,30-30S26.5-20,10-20L10-20z"/>
</svg>
