<?xml version="1.0" encoding="utf-8"?>
<svg version="1.1" id="Layer_1" xmlns="http://www.w3.org/2000/svg" xmlns:xlink="http://www.w3.org/1999/xlink" x="0px" y="0px"
	 viewBox="-22 -22 64 64" style="enable-background:new 0 0 20 20;" xml:space="preserve">
<style type="text/css">
	.st0{fill:#FFFFFF;stroke:#B6B6B6;stroke-width:0.15;stroke-miterlimit:10;}
	.st1{fill:#003897;}
	.st2{fill:#D72828;}
	.st3{fill:#CCCCCC;}
</style>
<circle class="st0" cx="10" cy="10" r="28.8000011"/>
<path class="st1" d="M38.0620003,3.6010003C35.1489983-9.2210007,23.7039986-18.7999992,10-18.7999992
	c-0.5429993,0-1.0739994,0.0509987-1.6109991,0.0809994V3.6010003H38.0620003z"/>
<path class="st1" d="M-4.4089999-14.9090004c-6.8160005,3.9510002-11.855999,10.6079998-13.6529999,18.5100002h13.6500006
	L-4.4089999-14.9090004L-4.4089999-14.9090004z"/>
<path class="st1" d="M38.0620003,16.3990021H8.3890009v22.3199997C8.9260006,38.7490005,9.4570007,38.8000031,10,38.8000031
	C23.7039986,38.8000031,35.1489983,29.2209988,38.0620003,16.3990021z"/>
<path class="st1" d="M-18.0620003,16.3990021c1.7970009,7.9019985,6.8340015,14.5589981,13.6500006,18.5100021V16.399004
	C-4.4119997,16.399004-18.0620003,16.399004-18.0620003,16.3990021z"/>
<path class="st2" d="M38.6139984,13.2010012C38.7280006,12.1479988,38.8000031,11.0830002,38.8000031,10
	s-0.0720024-2.1479988-0.1860046-3.2010012H5.1910009v-25.1639977c-2.2260003,0.375-4.3770003,0.9720001-6.3990011,1.8299999V6.802
	h-17.4060001c-0.1140003,1.0500011-0.1859989,2.1149998-0.1859989,3.198s0.0719986,2.1479988,0.1859989,3.2010012h17.4000015
	V36.538002c2.0219994,0.8549995,4.1729994,1.4550018,6.3990011,1.8300018V13.2040052
	C5.1879997,13.2010012,38.6139984,13.2010012,38.6139984,13.2010012z"/>
<path class="st3" d="M10-18.5c15.5999985,0,28.5,12.9000006,28.5,28.5S25.5999985,38.5,10,38.5S-18.5,25.5999985-18.5,10
	S-5.5999994-18.5,10-18.5 M10-20C-6.5-20-20-6.5-20,10s13.5,30,30,30s30-13.5,30-30S26.5-20,10-20L10-20z"/>
</svg>
