<?xml version="1.0" encoding="utf-8"?>
<svg version="1.1" id="Layer_2_1_" xmlns="http://www.w3.org/2000/svg" xmlns:xlink="http://www.w3.org/1999/xlink" x="0px" y="0px"
	 viewBox="-22 -22 64 64" style="enable-background:new 0 0 20 20;" xml:space="preserve">
<style type="text/css">
	.st0{fill:none;}
	.st1{fill:#308A2A;}
	.st2{fill:#F9DA00;}
	.st3{fill:#CCCCCC;}
</style>
<g>
	<path class="st0" d="M8.8120003,38.7399979C9.2110014,38.7580032,9.6009989,38.8000031,10,38.8000031
		s0.7890015-0.0419998,1.1879997-0.0600052H8.8120003z"/>
	<path class="st1" d="M34.2729988,25.4560013L10,13.3210011l-24.2729988,12.1350002
		c4.9139996,7.697998,13.3740005,12.8850021,23.0849991,13.2839966h2.3730011
		C20.9020004,38.3410034,29.3589973,33.1539993,34.2729988,25.4560013z"/>
	<path class="st1" d="M34.2729988-5.4559999C29.1609974-13.4720001,20.2120018-18.7999992,10-18.7999992
		S-9.1610003-13.4720001-14.2729998-5.4559999L10,6.6789989L34.2729988-5.4559999z"/>
	<path d="M-16.9279995-0.1430001C-18.1159992,3.0159998-18.7999992,6.4239988-18.7999992,10s0.684,6.9840012,1.8719997,10.1430016
		L3.3579993,10L-16.9279995-0.1430001z"/>
	<path d="M36.9280014,20.1429977C38.1159973,16.9840012,38.8000031,13.5760012,38.8000031,10
		s-0.6840057-6.9840002-1.8720016-10.1429996L16.6419983,10L36.9280014,20.1429977z"/>
	<path class="st2" d="M34.2729988,25.4560013c1.0620003-1.6619987,1.9500008-3.4410019,2.6550026-5.3129997L16.6419983,10
		L36.9280014-0.1430001c-0.7050018-1.8720002-1.5930023-3.651-2.6550026-5.3129997L10,6.6789989L-14.2729998-5.4559999
		C-15.335-3.7940001-16.2229996-2.0150003-16.9279995-0.1430001L3.3579993,10l-20.2860012,10.1430016
		c0.7049999,1.8719978,1.5930004,3.651001,2.6550007,5.3129997L10,13.3210011L34.2729988,25.4560013z"/>
</g>
<path class="st3" d="M10-18.5c15.5999985,0,28.5,12.9000006,28.5,28.5S25.5999985,38.5,10,38.5S-18.5,25.5999985-18.5,10
	S-5.5999994-18.5,10-18.5 M10-20C-6.5-20-20-6.5-20,10s13.5,30,30,30s30-13.5,30-30S26.5-20,10-20L10-20z"/>
</svg>
