<?xml version="1.0" encoding="utf-8"?>
<svg version="1.1" id="Layer_1" xmlns="http://www.w3.org/2000/svg" xmlns:xlink="http://www.w3.org/1999/xlink" x="0px" y="0px"
	 viewBox="-22 -22 64 64" style="enable-background:new 0 0 20 20;" xml:space="preserve">
<style type="text/css">
	.st0{fill:#FFFFFF;stroke:#B6B6B6;stroke-width:0.15;stroke-miterlimit:10;}
	.st1{fill:#006600;}
	.st2{fill:#BB0000;}
	.st3{fill:none;stroke:#000000;stroke-width:0.375;stroke-miterlimit:10;}
	.st4{fill:#FFFFFF;}
	.st5{fill:#CCCCCC;}
</style>
<circle class="st0" cx="10" cy="10" r="28.8000011"/>
<path d="M10-7.2800007c1.5600014,0,3.8609991,3.0029998,5.4329996,5.7600002h20.9550018
	C31.9419975-11.6870003,21.8079987-18.7999992,10-18.7999992s-21.9419994,7.112999-26.3880005,17.2799988H4.5670004
	C6.1390009-4.2769995,8.4399986-7.2800007,10-7.2800007z"/>
<path class="st1" d="M36.3880005,21.5200005H15.4329967c-1.5689993,2.757-3.8730011,5.7600002-5.4329996,5.7600002
	s-3.8609991-3.0030003-5.4329996-5.7600002h-20.954998C-11.9419994,31.6870003-1.8079996,38.8000031,10,38.8000031
	S31.9419975,31.6870003,36.3880005,21.5200005z"/>
<path class="st2" d="M4.5670004,21.5200005c1.5689993,2.757,3.8730011,5.7600002,5.4329996,5.7600002
	s3.8609991-3.0030003,5.4329996-5.7600002c0.6029997-1.0559998,1.1070013-2.0820007,1.4070005-2.8800011h20.637001
	C38.3320007,15.9129992,38.8000031,13.0090008,38.8000031,10s-0.4680023-5.9129992-1.3230019-8.6400003h-20.637001
	c-0.3000031-0.7979994-0.8040009-1.8239994-1.4070005-2.8800001C13.8609991-4.2769995,11.5600014-7.2800007,10-7.2800007
	S6.1390009-4.2769995,4.5670004-1.5200005c-0.6030006,1.0560007-1.1069999,2.0820007-1.407001,2.8800001h-20.6369991
	c-0.8550014,2.7270012-1.323,5.6309996-1.323,8.6400003s0.4679985,5.9129992,1.323,8.6399994H3.1599994
	C3.4600005,19.4379997,3.9639997,20.4640007,4.5670004,21.5200005z"/>
<path d="M-0.2869997,27.0999985l0.6240005,0.3600006L17.1520023-1.6669998
	c0.980999-0.2609997,1.5240002-1.1970005,2.0610008-2.1329999c0.3599987-0.6240005,1.8000011-3.1199999,2.4209995-6.3600001
	C19.144001-8,17.7039986-5.5070004,17.3439999-4.8800001c-0.5400009,0.9359994-1.0799999,1.8720002-0.8189983,2.8530006
	L-0.2869997,27.0999985z"/>
<path class="st3" d="M-0.2869997,27.0999985l0.6240005,0.3600006L17.1520023-1.6669998
	c0.980999-0.2609997,1.5240002-1.1970005,2.0610008-2.1329999c0.3599987-0.6240005,1.8000011-3.1199999,2.4209995-6.3600001
	C19.144001-8,17.7039986-5.5070004,17.3439999-4.8800001c-0.5400009,0.9359994-1.0799999,1.8720002-0.8189983,2.8530006
	L-0.2869997,27.0999985z"/>
<path class="st4" d="M-0.2869997,27.0999985l0.6240005,0.3600006L17.1520023-1.6669998
	c0.980999-0.2609997,1.5240002-1.1970005,2.0610008-2.1329999c0.3599987-0.6240005,1.8000011-3.1199999,2.4209995-6.3600001
	C19.144001-8,17.7039986-5.5070004,17.3439999-4.8800001c-0.5400009,0.9359994-1.0799999,1.8720002-0.8189983,2.8530006
	L-0.2869997,27.0999985z"/>
<path d="M20.2869987,27.0999985l-0.6240005,0.3600006L2.8480005-1.6669998
	C1.8640003-1.9310007,1.3239994-2.8640003,0.7839999-3.7999997c-0.3599997-0.6240005-1.7999997-3.1199999-2.4210005-6.3600001
	C0.8560004-8,2.2960005-5.5070004,2.6560001-4.8800001c0.5399995,0.9359994,1.0800004,1.8720002,0.8189993,2.8530006
	L20.2869987,27.0999985z"/>
<path class="st3" d="M20.2869987,27.0999985l-0.6240005,0.3600006L2.8480005-1.6669998
	C1.8640003-1.9310007,1.3239994-2.8640003,0.7839999-3.7999997c-0.3599997-0.6240005-1.7999997-3.1199999-2.4210005-6.3600001
	C0.8560004-8,2.2960005-5.5070004,2.6560001-4.8800001c0.5399995,0.9359994,1.0800004,1.8720002,0.8189993,2.8530006
	L20.2869987,27.0999985z"/>
<path class="st4" d="M20.2869987,27.0999985l-0.6240005,0.3600006L2.8480005-1.6669998
	C1.8640003-1.9310007,1.3239994-2.8640003,0.7839999-3.7999997c-0.3599997-0.6240005-1.7999997-3.1199999-2.4210005-6.3600001
	C0.8560004-8,2.2960005-5.5070004,2.6560001-4.8800001c0.5399995,0.9359994,1.0800004,1.8720002,0.8189993,2.8530006
	L20.2869987,27.0999985z"/>
<path d="M16.8400002,18.6399994C17.9199982,15.7600002,18.6399994,12.8800001,18.6399994,10
	s-0.7199974-5.7600002-1.7999992-8.6400003C15.7600002,4.2399998,15.0399981,7.1199999,15.0399981,10
	S15.7600002,15.7600002,16.8400002,18.6399994"/>
<path d="M3.1599994,18.6399994C2.079999,15.7600002,1.3599997,12.8800001,1.3599997,10S2.079999,4.2399998,3.1599994,1.3599997
	C4.2399998,4.2399998,4.9599991,7.1199999,4.9599991,10S4.2399998,15.7600002,3.1599994,18.6399994"/>
<ellipse class="st4" cx="10" cy="10" rx="1.4399986" ry="2.1600008"/>
<path class="st4" d="M10.3599997,12.105999c0,0,1.4399986,2.8800001,1.4399986,7.5600014s-1.4399986,7.5600014-1.4399986,7.5600014
	V12.105999z"/>
<path class="st4" d="M9.6400003,7.894001c0,0-1.4399986-2.8800001-1.4399986-7.5599999s1.4399986-7.5599999,1.4399986-7.5599999
	V7.894001z"/>
<path class="st4" d="M9.6400003,12.105999c0,0-1.4399986,2.8800001-1.4399986,7.5600014s1.4399986,7.5600014,1.4399986,7.5600014
	V12.105999z"/>
<path class="st4" d="M10.3599997,7.894001c0,0,1.4399986-2.8800001,1.4399986-7.5599999s-1.4399986-7.5599999-1.4399986-7.5599999
	V7.894001z"/>
<path class="st5" d="M10-18.5c15.5999985,0,28.5,12.9000006,28.5,28.5S25.5999985,38.5,10,38.5S-18.5,25.5999985-18.5,10
	S-5.5999994-18.5,10-18.5 M10-20C-6.5-20-20-6.5-20,10s13.5,30,30,30s30-13.5,30-30S26.5-20,10-20L10-20z"/>
</svg>
