<?xml version="1.0" encoding="utf-8"?>
<svg version="1.1" id="Layer_1" xmlns="http://www.w3.org/2000/svg" xmlns:xlink="http://www.w3.org/1999/xlink" x="0px" y="0px"
	 viewBox="-22 -22 64 64" style="enable-background:new 0 0 20 20;" xml:space="preserve">
<style type="text/css">
	.st0{fill:#FFFFFF;stroke:#B6B6B6;stroke-width:0.15;stroke-miterlimit:10;}
	.st1{fill:#FFC61E;}
	.st2{fill:#CE1126;}
	.st3{fill:#3A75C4;}
	.st4{fill:#3D8E33;}
	.st5{fill:#FFFFFF;}
	.st6{fill:#CCCCCC;}
</style>
<circle class="st0" cx="10" cy="10" r="28.8000011"/>
<path class="st1" d="M34.9150009-4.4000006C29.9319973-13.0010004,20.6529999-18.7999992,10-18.7999992
	c-6.8640003,0-13.1580009,2.4119987-18.1079998,6.4169998L5.1999989-4.4000006H34.9150009z"/>
<path class="st2" d="M5.1999989,24.4000015h29.7150021C37.3720016,20.1609993,38.8000031,15.2530012,38.8000031,10h-9.6000042
	L5.1999989,24.4000015z"/>
<path class="st3" d="M34.9150009,24.4000015H5.1999989l-13.3050003,7.9830017
	C-3.1580005,36.3880005,3.1359997,38.8000031,10,38.8000031C20.6529999,38.8000031,29.9319973,33.0009995,34.9150009,24.4000015z"/>
<path class="st4" d="M29.1999989,10l-24-14.4000006l-13.3079987-7.9829988
	C-14.6239996-7.1030006-18.7999992,0.9580002-18.7999992,10s4.1759987,17.1030006,10.6919994,22.3830032l13.3079987-7.9830017
	L29.1999989,10z"/>
<path class="st5" d="M-2.4799995,22.9599991c1.0560007,0,2.0969996-0.1800003,3.1199999-0.4379997
	c-2.2650003-0.573-4.3919992-1.7039986-6.045001-3.3569984C-7.8049998,16.7649994-9.2000008,13.3929987-9.2000008,10
	S-7.802,3.2349997-5.4050007,0.8349991C-3.7520003-0.8180013-1.625-1.9490008,0.6400003-2.5220008
	c-1.0230002-0.2579999-2.0640006-0.4379997-3.1199999-0.4379997c-3.3930001,0-6.7650003,1.3980002-9.165,3.7949996
	S-15.4400005,6.6070013-15.4400005,10s1.3980007,6.7649994,3.7950001,9.1650009
	C-9.2449999,21.5620003-5.8729997,22.9599991-2.4799995,22.9599991z"/>
<polygon class="st5" points="0.4000006,20.1910019 1.8129997,21.217001 1.2700005,19.5579987 2.6829996,18.5319996 
	0.9400001,18.5319996 0.4000006,16.8759995 -0.1400003,18.5319996 -1.8829999,18.5319996 -0.4730005,19.5579987 
	-1.0100002,21.217001 "/>
<polygon class="st5" points="0.9400001,-0.0170007 0.4000006,-1.6760006 -0.1400003,-0.0170007 -1.8829999,-0.0170007 
	-0.4730005,1.0089993 -1.0100002,2.6649995 0.4000006,1.6420007 1.8129997,2.6649995 1.2700005,1.0089993 2.6829996,-0.0170007 "/>
<polygon class="st5" points="-0.4730005,7.1920004 -1.0100002,8.8509989 0.4000006,7.8249989 1.8129997,8.8509989 
	1.2700005,7.1920004 2.6829996,6.1660004 0.9400001,6.1660004 0.4000006,4.506999 -0.1400003,6.1660004 -1.8829999,6.1660004 "/>
<polygon class="st5" points="0.9400001,12.349 0.4000006,10.6899986 -0.1400003,12.349 -1.8829999,12.349 -0.4730005,13.375 
	-1.0100002,15.0340014 0.4000006,14.0080013 1.8129997,15.0340014 1.2700005,13.375 2.6829996,12.349 "/>
<path class="st6" d="M10-18.5c15.5999985,0,28.5,12.9000006,28.5,28.5S25.5999985,38.5,10,38.5S-18.5,25.5999985-18.5,10
	S-5.5999994-18.5,10-18.5 M10-20C-6.5-20-20-6.5-20,10s13.5,30,30,30s30-13.5,30-30S26.5-20,10-20L10-20z"/>
</svg>
