<?xml version="1.0" encoding="utf-8"?>
<svg version="1.1" id="Layer_1" xmlns="http://www.w3.org/2000/svg" xmlns:xlink="http://www.w3.org/1999/xlink" x="0px" y="0px"
	 viewBox="-22 -22 64 64" style="enable-background:new 0 0 20 20;" xml:space="preserve">
<style type="text/css">
	.st0{fill:#FFFFFF;stroke:#B6B6B6;stroke-width:0.15;stroke-miterlimit:10;}
	.st1{fill:#009977;}
	.st2{fill:#CE1126;}
	.st3{fill:#CCCCCC;}
</style>
<circle class="st0" cx="10" cy="10" r="28.8000011"/>
<path class="st1" d="M37.1259995,0.4000006C33.1689987-10.7779999,22.5340004-18.7999992,10-18.7999992
	c-7.086,0-13.5629997,2.5679989-18.5789986,6.8129997L10,0.4000006H37.1259995z"/>
<path class="st2" d="M37.1259995,19.5999985H10L-8.5789995,31.9870014c5.013,4.244997,11.493,6.8130016,18.5789986,6.8130016
	C22.5340004,38.8000031,33.1689987,30.7780018,37.1259995,19.5999985z"/>
<path d="M10,0.4000006L-8.5790005-11.9869995C-14.8249998-6.7039995-18.7999992,1.1799998-18.7999992,10
	s3.9749994,16.7039986,10.2209997,21.9870014L10,19.5999985V0.4000006z"/>
<path class="st3" d="M10-18.5c15.5999985,0,28.5,12.9000006,28.5,28.5S25.5999985,38.5,10,38.5S-18.5,25.5999985-18.5,10
	S-5.5999994-18.5,10-18.5 M10-20C-6.5-20-20-6.5-20,10s13.5,30,30,30s30-13.5,30-30S26.5-20,10-20L10-20z"/>
</svg>
