<?xml version="1.0" encoding="utf-8"?>
<svg version="1.1" id="Layer_1" xmlns="http://www.w3.org/2000/svg" xmlns:xlink="http://www.w3.org/1999/xlink" x="0px" y="0px"
	 viewBox="-22 -22 64 64" style="enable-background:new 0 0 20 20;" xml:space="preserve">
<style type="text/css">
	.st0{fill:#9C1E3D;}
	.st1{fill:#FFCE00;}
	.st2{fill:#FF7300;}
	.st3{fill:#007229;}
	.st4{fill:#CCCCCC;}
</style>
<circle class="st0" cx="10" cy="10" r="28.8000011"/>
<path class="st1" d="M10.4169998,34.0060043V-14h15.4919987C21.3459988-17.0300007,15.8830013-18.7999992,10-18.7999992
	S-1.349-17.0270004-5.9089999-14H5.6140003v47.9940033h-11.526C-1.349,37.0270004,4.1169987,38.8000031,10,38.8000031
	c5.8769989,0,11.3400002-1.7700043,15.8969994-4.7939987H10.4169998z"/>
<path class="st2" d="M5.6109991-14H-5.9090014c-2.6339998,1.7520008-4.9440002,3.9300003-6.8730001,6.4260006v35.1450005
	c1.9260006,2.4929981,4.2390003,4.677,6.8730001,6.4260006H5.6140003L5.6109991-14L5.6109991-14z"/>
<path class="st3" d="M-18.7999992,10c0,6.6240005,2.2589989,12.7080002,6.0179996,17.5739994V-7.5739994
	C-16.5410004-2.7080002-18.7999992,3.3759995-18.7999992,10z"/>
<g>
	<path class="st1" d="M33.5439987,23.5030022c-1.0649986,0-1.0649986,1.0620003-1.3320007,1.8599987
		c0.9150009,0.1469994,1.2539978-0.4139996,1.9740028-1.0830002c0.1020012,0.2099991-0.5009995,0.75-0.5459976,1.092001
		c0.2939987,0.0240021,0.531002-0.0209999,0.7410011-0.0900002c0.4679985-0.7409973,0.882-1.5149994,1.2779999-2.2979984
		C35.1220016,23.7490005,34.3359985,23.2390003,33.5439987,23.5030022z"/>
	<path class="st1" d="M35.6740036,22.9720001c0.0779953-0.098999,0.1200027-0.218998,0.1769981-0.3330002
		c-0.0600014,0.1200008-0.1349983,0.230999-0.1950035,0.3509998C35.6620026,22.980999,35.6679993,22.980999,35.6740036,22.9720001z"
		/>
	<path class="st1" d="M38.8000031,10c0-1.355999-0.1259995-2.6820002-0.3090057-3.9899998l-0.9329987-1.1879997
		C37.5009995,4.75,37.5159988,4.6419992,37.5879974,4.5880003c0.0749969-0.0570002,0.1800003-0.0419998,0.2369995,0.0300007
		l0.1110039,0.1409998l0.4560013,0.5789995c-0.0300026-0.1739988-0.0480003-0.3480005-0.0810013-0.5219994
		c-0.0779991-0.4289989-0.1650009-0.849-0.2609978-1.2719994C37.762001,3.3250017,37.375,3.0040021,36.7809982,2.4610014
		c-0.0659943-0.0629997-0.0719986-0.1710005-0.0119972-0.237s0.1709976-0.0720005,0.2370033-0.0120006
		c0.0419998,0.039,0.0900002,0.0780001,0.132,0.1140003c0.2609978,0.237,0.5249977,0.4680004,0.7709999,0.6719999
		c-0.0569992-0.2310004-0.1139984-0.4619994-0.1800003-0.6900001c-0.1019974-0.3690004-0.1919937-0.7440004-0.3089981-1.1069999
		c-0.4410019-0.2520003-0.8310013-0.5820007-1.1609993-0.8610005c-0.1860008-0.1619997-0.3479958-0.2999997-0.4890022-0.3959999
		c-0.0749969-0.0540004-0.0929985-0.1589999-0.0390015-0.2340002c0.0510025-0.0750003,0.1620026-0.0960002,0.2310028-0.039
		c0.0509987,0.0360003,0.1139984,0.0960002,0.1739998,0.1409998c0.1110039,0.0900006,0.218998,0.1740003,0.3419991,0.276
		c0.2190018,0.1859994,0.477005,0.3959999,0.75,0.5880003C37.1290054,0.388,37.0240021,0.1060004,36.9130096-0.1789989
		c-0.2310028-0.612-0.4740067-1.2089996-0.7470016-1.7999997c-0.5280037-0.2520003-1.1160011-0.0570002-1.7070007,0.3900003
		c1.125,0.1290007,1.4759979,0.8729997,1.4759979,0.8729997c-1.2089996,0.1079993-4.2599983,1.0650001-4.2599983,1.0650001
		s1.0079994-0.9390006-0.1799984-1.0889997c-1.9950027-0.1140003-0.9570007,1.8540001,0.4470005,2.6820002l0.7980042-0.5310001
		c0.5339966,1.0620003,0.8009987,1.3319993,1.8659973,1.5960002V1.9539995
		c0.4770012,0.5999994,0.947998,0.9810004,1.3530006,1.3919992c0.7470016,0.4920001,1.0139961,1.0770006,1.1369972,1.8929987
		c0.012001,0.0240011,0.0180054,0.0479994,0.0180054,0.0749989c0,0.0930004-0.0720024,0.1679993-0.1679993,0.1679993
		c-0.0029984,0-0.0029984,0-0.0029984,0c-0.0029984,0-0.0029984,0-0.0060043,0c-0.0359955,0-0.0690002-0.0090008-0.0990028-0.032999
		c-0.3569984-0.2609997-0.8190041-0.3959999-1.3650017-0.3959999c-0.5400009,0-1.0199966,0.1290007-1.2269974,0.1860008
		c-0.090004,0.0269995-0.1200027,0.0300007-0.1380005,0.032999c-0.0419998,0-0.0810013-0.0150003-0.1110001-0.0419998
		c-0.0390091-0.0389957-0.0570107-0.0899963-0.0570107-0.1379957c0.0029984-0.0360003,0.0089989-0.0899992,0.0149956-0.1469994
		c0.012001-0.1049995,0.0419998-0.3900003,0.0210037-0.5129986c-0.5550003,0.1529989-1.0410004,0.2189999-1.4670029,0.2189999
		c-0.4409981,0-0.9419975-0.0810013-1.3859997-0.3330002c-0.2729988-0.0780001-0.4919987-0.1500006-0.573-0.1889992
		c0.0629997,0.1350002,0.4050007,0.9899998,0.4680004,1.6560001c0.0659981,0.6660004-0.3120003,0.7559996-0.8010006,1.3079996
		c0.8279972,0.552,2.2560043-1.1490011,2.2560043-1.1490011s-0.1050034,1.1610003-0.3390045,1.9050007
		c0.8700027-0.3210011,0.8730011-1.9050007,0.8730011-1.9050007h0.5339966c0,0-0.5400009,1.2449999,0.5610046,1.776
		c-0.189003-1.7159986,0.7709961-1.776,0.7709961-1.776l-0.288002,1.3320007
		c0.5400009,0.045001,0.8160019-0.4919987,1.0979996-0.9870014C36.6279907,6.538002,35.9829941,7.1260023,36.2469902,7.927
		c-0.1170006,0.045001-0.2040024,0.0930004-0.3149986,0.1379986c-0.1289978,0.0539989-0.2580032,0.1080008-0.375,0.1650009
		c-0.8730011,0.4050007-1.4309998,0.8010006-2.2859955,1.4429998c-1.8899994,1.2600002-2.5979996,3.1800013-1.9080009,5.1119986
		c0.1830025,0.3990011,0.3869991,0.7860003,0.6509972,1.1070013c0.3689957,0.3660002,0.8639984,0.915,1.2419968,1.4759989
		c0.5910034,0.4680004,1.2330017,0.8669987,1.8840027,1.355999l-0.2670021-4.7879992
		c0.3419991,1.6230011,0.3390007,1.875,0.3390007,3.2039995c0.2310028,1.3890018,1.2089996,3.7680016,0.7590027,5.2380009
		C37.7680016,18.6189995,38.8000031,14.4339991,38.8000031,10z M36.0849991,1.8610005
		c-0.0600014,0.0300007-0.1259995,0.0419998-0.1889992,0.0419998c-0.2729988,0-0.4950027-0.2459993-0.6150017-0.6719999
		c-0.1139984-0.4080005-0.1110001-0.927,0.1679993-1.0980005c0.0419998-0.0269995,0.090004-0.039,0.1440048-0.039
		c0.3239975,0,0.7319946,0.5609994,0.8279953,1.0020003C36.4869995,1.4559999,36.3700027,1.7319999,36.0849991,1.8610005z
		 M37.0390015,6.802c0.0060043-0.0749989,0.0600014-0.1409998,0.1380005-0.1529989
		c0.0810013-0.0030012,0.1529999,0.0300007,0.1799965,0.099c0.0750008,0.1710005,0.1679993,0.3330002,0.2519989,0.5009995
		c0.2010002,0.3900003,0.4169998,0.7530012,0.6089973,0.9539995c-0.1499977-0.7230005-0.1499977-1.302-0.1320038-1.6290007
		c0.0090027-0.1619997,0.0210037-0.2790012,0.0210037-0.2939987c0.0149956-0.0930004,0.1200027-0.1650009,0.185997-0.1409998
		c0.0930023,0.0119991,0.156002,0.099,0.1440048,0.1860008c-0.0029984,0.0090008-0.1350021,0.9780006,0.1889954,2.1689987
		c0.0149994,0.0510006,0.0029984,0.1080008-0.0329971,0.1469994c-0.0270004,0.0389986-0.0749969,0.0629997-0.1230011,0.0629997
		c-0.0029984,0-0.0060043,0-0.0090027,0c-0.3869972-0.0179987-0.7890015-0.618001-1.0739975-1.1369991
		c-0.0209999-0.0360003-0.0419998-0.0720005-0.0600014-0.1049995l-0.0149956,0.2099991l-0.0180054,0.2700005
		c-0.0060005,0.0899992-0.0719986,0.1710005-0.1799965,0.1560001c-0.0929985-0.0059996-0.1620026-0.0839996-0.156002-0.1800013
		L37.0390015,6.802z"/>
	<path class="st1" d="M35.5839996,0.427c-0.0359955,0.0330005-0.0930023,0.336,0.0149994,0.7139997
		c0.0690002,0.2490005,0.1919937,0.4290004,0.2970009,0.4290004c0.0180016,0,0.0359993-0.0029998,0.0569954-0.0150003
		c0.0779991-0.0360003,0.1800003-0.1079993,0.1470032-0.336C36.0400009,0.8410001,35.6949997,0.4450002,35.5839996,0.427z"/>
	<path class="st1" d="M35.4819984,4.7139997c0.4679985,0,0.882,0.0899992,1.2360039,0.2609997
		c-0.1410065-0.6600008-0.4109993-1.1040001-1.1430054-1.5029998c-0.0569954-0.0089993-0.1110001-0.0150003-0.1709976-0.0150003
		c-0.2819977,0-0.4769974,0.1320004-0.4769974,0.1320004c-0.0300026,0.0180001-0.0600052,0.0300007-0.0960007,0.0300007h-0.0960007
		c-1.0109978,0-3.1739998-0.0419998-4.1489964-0.3900003c0.1919975,0.4470005,0.6660004,1.0830002,1.9379978,1.0830002
		c0.4109993,0,0.8789978-0.0689993,1.3920059-0.2039995c0.0419998-0.0360003,0.2279968-0.0360003,0.3119965,0.0570002
		c0.1200027,0.131999,0.1140022,0.3900003,0.0810013,0.7110014C34.5639992,4.8100014,34.9960022,4.7139997,35.4819984,4.7139997z"/>
	<path class="st1" d="M33.5200005,18.5860023c0-0.7469997-1.1879997-2.0100021-1.698-2.5200005
		c-0.4680004-0.5580006-0.7560024-1.2600012-1.0319996-1.9410019c-0.4950027-1.2089996-0.9209976-2.2559996-2.1540012-2.2559996
		c-0.1140003,0-0.2339973,0.0090008-0.3600025,0.0269995c-0.0390015,0.1020012-0.1200027,0.2669992-0.2670021,0.3690004
		c0.1020012,0.2070007,0.177,0.4320002,0.0900021,0.618001c-0.0390015,0.0870008-0.1079998,0.1590014-0.2040005,0.2099991
		c0.1229992,0.1469994,0.2279987,0.3239994,0.189003,0.506999c-0.0270023,0.1259995-0.1110001,0.2280006-0.2609997,0.3120003
		c0.0179996,0.0240011,0.0360012,0.0419998,0.0510006,0.0600014c0.1350002,0.1590014,0.2519989,0.2939987,0.2160015,0.4649992
		c-0.0239983,0.1199999-0.1140003,0.2249994-0.3000011,0.3330002c0.3720016,0.420001,0.638998,0.9840002,0.7890015,1.6920013
		c0.0060024,0.0299988,0.0090008,0.0479984,0.0149975,0.0600014c0.0060024,0.0209999,0.0060024,0.0419998,0,0.0629997
		c-0.0359974,0.1739979-0.1169987,0.2700005-0.2670021,0.4499969c-0.0990028,0.1230011-0.2339973,0.2910004-0.4200001,0.5460014
		c0.2249985,0.2099991,0.7859993,0.4770012,1.1129971,0.4770012c0.0659981,0,0.1169987-0.0119991,0.144001-0.0359993
		c0.1499977-0.0870018,0.2160015-0.4680023,0.2250023-0.7020016c0-0.0600014,0.0390015-0.1079998,0.0959988-0.1259995
		c0.0119991-0.0030003,0.0270023-0.0030003,0.0359974-0.0030003c0.0449982,0,0.0839996,0.0209999,0.1079979,0.0600014
		c0.8969994,1.3349991,1.698,2.0760002,2.4599972,2.2649994C32.8569984,19.7770004,33.5200005,19.2669983,33.5200005,18.5860023z"/>
	<path class="st1" d="M26.9980011,10.4169998c-0.198-2.4029989-0.1829987-13.2030001,0.4709988-15.960001
		c-1.6319981,1.8480005-2.3819981,10.9080009-2.6789989,14.4810009c-0.0629997,0.7860003-0.1080017,1.323-0.144001,1.5930004
		c0.230999,0.0629997,0.6479988,0.1379986,1.1159992,0.1379986C26.1310005,10.6689987,26.6230011,10.6240005,26.9980011,10.4169998z
		"/>
	<path class="st1" d="M27.4210014,19.7380009C26.8510017,19.5550003,26.5,19.4799995,26.4820023,19.0180016
		c0.1919994-0.4680004,0.4439983-1.1070023-0.1650009-1.7669983c0.4439983,0.1049995,1.2809982,0.1079998,1.6769981-0.2190018
		c0.0330029-0.0269985,0.0480003-0.0600014,0.0719986-0.0929985c0.1740017-0.2070007,0.2040024-0.507-0.0629997-0.96
		c-0.0300007-0.0839996-0.7469978-0.1679993-1.2449989,0.6090002c-0.4980011-0.782999-0.9960003-0.7080002-1.8240013,0.0539989
		c-0.4619999-0.342001-0.0929985-0.7080002-1.2449989-0.7740011c-0.9119987,0.276-0.5789986,1.9620008,1.8810005,1.4070005
		c0.053997,0-0.9690018,0.6359978-0.2490005,1.6020012c-0.0839996,0.5699978-0.4680023,0.9510002-1.0500031,0.8849983
		c0.4680023-0.4439983,0.4980011-1.7399979-0.7740002-1.1879997c-1.4909992,2.1000004,2.0459995,1.6020012,2.0459995,1.6020012
		c0.045002,0.9120007-0.6839981,0.6090012-0.9389992,1.2450008c0.2850018,0.2399998,0.6240005,0.4229984,0.8549995,0.1379986
		c0,0,0.0540009,0.6090012,0.4680023,0.8549995c0.4980011-0.2220001,0.2220001-0.9959984,0.2220001-0.9959984
		c0.4680004,0.1829987,0.7740021,0.1469994,0.9689999-0.1080017c-0.1469994-0.4680004-0.4619999-0.5820007-0.9120007-0.6629982
		c-0.0089989-0.1469994-0.0179977-0.2970009-0.0299988-0.4440002
		C31.7050018,20.6290016,26.2060013,16.3810005,27.4210014,19.7380009z"/>
	<path class="st1" d="M28.6930027,10.4530001c0.0839996-1.0050001-1.796999-1.2900009-1.1070004,0.0300007
		c-0.0600014,0.045001-0.1679993,0.0689993-0.2400017,0.1080008c-0.1079998,0.0600014-0.2249985,0.1140003-0.3540001,0.1619997
		c-0.0959969,0.0389986-0.1889992,0.0839996-0.2910004,0.1109991c-0.7950001,0.1949987-1.7519989,0.1020012-2.3849983-0.3630009
		c-0.1500015-0.1080008-0.3299999-0.1889992-0.4320011-0.3509989c1.059-1.0319996-1.1700001-1.1519995-1.3830013-0.1920004
		C22.2639999,11.9890003,28.4650021,12.2290001,28.6930027,10.4530001z"/>
	<path class="st1" d="M15.7600002-11.7889996c-0.2280006-0.2010002-0.6540012-0.3270006-1.1280012-0.3270006
		c-0.5610008,0-1.0620003,0.1800003-1.269001,0.4560003L13.2699976-11.54L13.1619968-11.651
		c-0.0090008-0.0089998-0.8850002-0.9030008-1.2960005-1.2480001c-0.0749989,0.0390005-0.1379986,0.0960007-0.1800013,0.1410007
		c0.0870008,0.0839996,0.1800013,0.165,0.2729988,0.2459993c0.3179998,0.276,0.6810007,0.5880003,0.881999,1.1940002
		l0.0240011,0.066l-0.0419998,0.0570002c-0.3599997,0.4800005-0.5849991,1.4729996-0.3270006,2.2410002
		C13.1799927-7.816999,14.9529943-7.664,16.3779926-7.5409989c0.6630001,0.0570002,1.2600002,0.1079993,1.6830006,0.2520003
		c-0.1920013-0.3959999-0.420002-0.882-0.651001-1.3889999C16.8220005-9.9289999,16.1739998-11.3479996,15.7600002-11.7889996z"/>
	<path class="st1" d="M13.1619997,29.3200016c-0.243001,0.2700005-0.3719988,0.8129997-0.3179998,1.3710022
		c0.045001,0.4680004,0.2099991,0.8520012,0.4439993,1.0290012l0.1230011,0.0959988l-0.1109991,0.1049938
		c-0.0090008,0.0090008-0.9060001,0.8820038-1.2509995,1.2959976c0.0389986,0.0749969,0.0959988,0.1380005,0.1409998,0.1800003
		c0.0839996-0.0839996,0.1619997-0.1800003,0.243001-0.2700043c0.276-0.3209991,0.5880003-0.6839981,1.1970005-0.8879967
		l0.0629997-0.0239983l0.0570002,0.0419998c0.5340014,0.3959999,1.5599985,0.5580025,2.2409992,0.3269958
		c1.1400003-0.684,1.29-2.4569988,1.4100008-3.882c0.0600014-0.663002,0.1079998-1.2600002,0.2519989-1.6829987
		c-0.3959999,0.1919994-0.8819981,0.4169998-1.3830013,0.6509991C15.0250006,28.2519989,13.605999,28.9030018,13.1619997,29.3200016
		z"/>
	<path class="st1" d="M27.5229988,11.9919987c-0.1080017-0.1109991-0.2700005-0.1230011-0.3840008-0.1230011
		c-0.1560001,0-0.3449993,0.0300007-0.5639992,0.0629997c-0.2880001,0.045001-0.6120014,0.099-0.9780006,0.099c0,0,0,0-0.0030003,0
		c-0.3810005-0.0030012-0.7380028-0.0629997-1.0500031-0.1169987c-0.572998-0.1020012-0.9869976-0.1199999-1.1729984,0.1199999
		c-0.0179996,0.0240011-0.0300007,0.0510006-0.0360012,0.0810013c-0.0149994,0.1199999,0.0240021,0.2340002,0.1080017,0.3270006
		c0.3479996,0.3959999,1.4880009,0.4439993,1.9650002,0.4470005h0.0479984c0.3449993,0,2.0760021-0.0300007,2.171999-0.605999
		C27.625,12.1660004,27.592001,12.0670004,27.5229988,11.9919987z"/>
	<path class="st1" d="M26.1310005,13.0389986c-0.2460003,0.0360003-0.5009995,0.0780001-0.7380028,0.0839996h-0.0509987
		c-0.2640018,0-0.5489998-0.0510006-0.8010025-0.0959988c-0.2249985-0.0389986-0.4350014-0.0780001-0.6119976-0.0780001
		c-0.0899982,0-0.3630009,0-0.4950008,0.2280006c-0.0179977,0.0300007-0.0269985,0.0600014-0.0240002,0.0899992
		c0.0209999,0.5250006,0.9659977,0.6240005,1.9799995,0.6600008c0.0600014,0.0030012,0.1140003,0.0030012,0.177,0.0030012
		c0.7110023,0,1.6199989-0.131999,1.8359985-0.506999c0.0270004-0.0419998,0.032999-0.0899992,0.0149994-0.1379986
		c-0.1109982-0.3210011-0.4799995-0.3210011-0.6030006-0.3210011
		C26.6140003,12.9610014,26.3800011,12.9969988,26.1310005,13.0389986z"/>
	<path class="st1" d="M26.3110008,13.9959993c-0.3029995,0.0510006-0.618,0.1020012-0.8879986,0.1080008h-0.078001
		c-0.2579994,0-0.5369987-0.0360003-0.7740002-0.0660009c-0.1949978-0.0269995-0.3659992-0.0479994-0.4980011-0.0479994
		c-0.3360004,0-0.3900013,0.1739988-0.3869991,0.2370014c-0.0240021,0.0959988,0.0030022,0.1889992,0.0660019,0.276
		c0.2249985,0.2879992,1.0169983,0.4229994,1.652998,0.4260006h0.0119991c0.5760002,0,2.0339985-0.2280006,2.0400009-0.7979994
		C27.427,13.9810019,27.295002,13.906003,27.0610008,13.906003C26.875,13.9060001,26.6020012,13.9510012,26.3110008,13.9959993z"/>
	<path class="st1" d="M25.1230011,15.7960005c0.1739998,0,0.3479996-0.0059996,0.519001-0.0209999
		c0.6149998-0.045001,1.8120003-0.2609997,1.9260006-0.7559996c0.0059986-0.0209999,0.0030003-0.0419998,0-0.0629997
		c0-0.0030012,0-0.0059996,0-0.0059996c-0.0090008-0.0360003-0.0360012-0.0870008-0.0930004-0.1259995
		c-0.045002-0.0360003-0.1080017-0.0629997-0.2189999-0.0629997c-0.152998,0-0.375,0.045001-0.6540012,0.099
		c-0.3210011,0.0600014-0.6839981,0.131999-1.0200005,0.1500006c-0.1080017,0.0059996-0.2249985,0.0059996-0.342001,0.0059996
		c-0.3179989,0.0030012-0.6420002-0.0150003-0.9060001-0.0150003c-0.4020004,0-0.5789986,0.0360003-0.6720009,0.1350002
		c-0.0450001,0.0479994-0.066,0.1080008-0.0600014,0.198C23.6860008,15.7149992,24.4749985,15.7960005,25.1230011,15.7960005z"/>
</g>
<path class="st4" d="M10-18.5c15.5999985,0,28.5,12.9000006,28.5,28.5S25.5999985,38.5,10,38.5S-18.5,25.5999985-18.5,10
	S-5.5999994-18.5,10-18.5 M10-20C-6.5-20-20-6.5-20,10s13.5,30,30,30s30-13.5,30-30S26.5-20,10-20L10-20z"/>
</svg>
