<svg xmlns="http://www.w3.org/2000/svg" width="16.75" height="23.094" viewBox="0 0 16.75 23.094">
  <metadata><?xpacket begin="﻿" id="W5M0MpCehiHzreSzNTczkc9d"?>
<x:xmpmeta xmlns:x="adobe:ns:meta/" x:xmptk="Adobe XMP Core 5.6-c140 79.160451, 2017/05/06-01:08:21        ">
   <rdf:RDF xmlns:rdf="http://www.w3.org/1999/02/22-rdf-syntax-ns#">
      <rdf:Description rdf:about=""/>
   </rdf:RDF>
</x:xmpmeta>
                                                                                                    
                                                                                                    
                                                                                                    
                                                                                                    
                                                                                                    
                                                                                                    
                                                                                                    
                                                                                                    
                                                                                                    
                                                                                                    
                                                                                                    
                                                                                                    
                                                                                                    
                                                                                                    
                                                                                                    
                                                                                                    
                                                                                                    
                                                                                                    
                                                                                                    
                                                                                                    
                           
<?xpacket end="w"?></metadata>
<defs>
    <style>
      .cls-1 {
        fill: #fff;
        fill-rule: evenodd;
      }
    </style>
  </defs>
  <path class="cls-1" d="M1301.47,19.412a2.287,2.287,0,0,0-1.57,3.952v2.067a1.575,1.575,0,1,0,3.15,0V23.365a2.312,2.312,0,0,0,.71-1.662A2.288,2.288,0,0,0,1301.47,19.412Zm0.81,3.149a1.082,1.082,0,0,0-.34.79v2.08a0.465,0.465,0,1,1-.93,0v-2.08a1.091,1.091,0,0,0-.35-0.79,1.166,1.166,0,0,1-.37-0.86,1.18,1.18,0,1,1,2.36,0A1.165,1.165,0,0,1,1302.28,22.562Zm5.91-6.16h-1.66V11.994a5.055,5.055,0,0,0-10.11,0V16.4h-1.67a1.667,1.667,0,0,0-1.66,1.663V28.354a1.667,1.667,0,0,0,1.66,1.663h13.44a1.661,1.661,0,0,0,1.66-1.663V18.065A1.661,1.661,0,0,0,1308.19,16.4Zm-10.66-4.408a3.945,3.945,0,0,1,7.89,0V16.4h-7.89V11.994Zm11.22,16.36h0a0.557,0.557,0,0,1-.56.555h-13.44a0.555,0.555,0,0,1-.55-0.555V18.065a0.555,0.555,0,0,1,.55-0.555h13.44a0.557,0.557,0,0,1,.56.555V28.354Z" transform="translate(-1293.09 -6.938)"/>
</svg>
