<?xml version="1.0" encoding="utf-8"?>
<svg version="1.1" id="Layer_1" xmlns="http://www.w3.org/2000/svg" xmlns:xlink="http://www.w3.org/1999/xlink" x="0px" y="0px"
	 viewBox="-22 -22 64 64" style="enable-background:new 0 0 20 20;" xml:space="preserve">
<style type="text/css">
	.st0{fill:#FFFFFF;stroke:#B6B6B6;stroke-width:0.15;}
	.st1{fill:#009543;}
	.st2{fill:#00209F;}
	.st3{fill:#CCCCCC;}
</style>
<circle class="st0" cx="10" cy="10" r="28.8000011"/>
<path class="st1" d="M36.3880005,21.5200005h-52.776001C-11.9419994,31.6870003-1.8079996,38.8000031,10,38.8000031
	S31.9419975,31.6870003,36.3880005,21.5200005z"/>
<path class="st2" d="M10-18.7999992c-11.8079996,0-21.9420013,7.1129999-26.3879986,17.2800007h52.776001
	C31.9419975-11.6870003,21.8079987-18.7999992,10-18.7999992z"/>
<path d="M17.7819996,14.8179998l-0.0419998-0.0810013L16.9599991,15.073L12.427,9.0760012l0.0090008-0.0209999
	c0.0660009-0.1350002,1.6049995-3.3330002,1.2750006-5.6430001c-0.3000011-2.0880003-1.2960005-3.198-2.9940004-3.4769998
	v-0.0810013l-0.0269995-0.0300007c-0.0150003-0.0150003-0.3599997-0.3720002-0.7349997-0.3720002
	c-0.3659992,0.0059996-0.704999,0.3870006-0.7199993,0.4019995L9.2110014-0.1160007v0.0599999
	C7.5699987,0.2470002,6.4510012,1.5009995,6.2290001,3.5200005C5.9799995,5.8000011,7.4439993,8.9229994,7.5100002,9.0550013
	l0.0689993,0.144001l-4.3919992,5.9160004l-0.888-0.3060007l-1.5540004,3.3120003l-0.0360003,0.0749989l0.0720005,0.0450001
	c0.0360003,0.0240021,3.7349997,2.3040009,9.032999,2.3040009c0.0720005,0,0.1469994-0.0030022,0.2220011-0.0030022
	c5.9400015-0.0690002,9.2520018-2.3879986,9.2850008-2.4119987l0.0629997-0.0480003L17.7819996,14.8179998z M10.7110014,0.8859997
	c1.170001,0.2429996,1.8179998,1.0499997,2.0489988,2.6669998c0.2249994,1.5870008-0.6120014,3.7590008-0.9959993,4.6500006
	l-0.6870003-0.9090014l-0.0059996-2.1660004h1.1369991l-1.4969988-1.4039998V0.8859997z M7.1829996,3.625
	c0.1679993-1.5089993,0.8850002-2.4240003,2.0369997-2.7150006l0.0209999,2.8560004l-1.355999,1.4219999h1.1190004
	L8.9980011,7.2850008L8.2330008,8.3139992C7.8790007,7.4949999,7.0059996,5.2480011,7.1829996,3.625z M2.8540001,16.2519989
	l0.2880006,0.8850002L2.302,17.3170013C2.302,17.3139992,2.7880006,16.342001,2.8540001,16.2519989z M2.4580002,17.8029995
	l0.8850002-0.2880001l0.177,0.7080002L2.4580002,17.8029995z M3.7390003,16.276001l1.2390003,0.3780003l0.2879992,0.6180019
	l-1.0830002,0.3089981L3.7390003,16.276001z M4.5789995,18.5769997l-0.1560001-0.5309982l1.0200005-0.3299999l0.5760012,1.2180004
	L4.5789995,18.5769997z M6.019001,16.9389992l1.2390003,0.2639999l0.3540001,0.531002l-1.0830002,0.4200001L6.019001,16.9389992z
	 M6.9040012,19.0629997L6.724,18.5979996l1.1519995-0.3959999l0.7080002,1.1070023L6.9040012,19.0629997z M8.3439999,17.2929993
	l2.0129986,0.0900002l0.177,0.4200001L8.961998,18.3790016L8.3439999,17.2929993z M9.5830002,19.3509979l-0.329999-0.5760002
	l1.5479994-0.5760002l0.7320013,1.0860004L9.5830002,19.3509979z M11.3110008,17.3380013l1.4370003-0.1800022l0.329999,0.4859982
	l-1.2390003,0.6000004L11.3110008,17.3380013z M12.4389992,19.177l-0.329999-0.5340023l1.2390003-0.618l0.7530012,0.8850002
	L12.4389992,19.177z M13.7440004,17.0739994L15.073,16.6779995L15.427,17.0559998L14.3859997,17.875L13.7440004,17.0739994z
	 M14.9169998,18.7089996l-0.2640009-0.4650002l0.9959993-0.7559986l0.6419983,0.8640003L14.9169998,18.7089996z
	 M15.868001,16.3840008l1.1519995-0.4649992l0.243,0.354001l-0.6839981,1.0169983L15.868001,16.3840008z M17.0620003,17.9350014
	l-0.0660019-0.3959999l0.4860001-0.7320023l0.420002,0.8400002L17.0620003,17.9350014z"/>
<path class="st3" d="M10-18.5c15.5999985,0,28.5,12.9000006,28.5,28.5S25.5999985,38.5,10,38.5S-18.5,25.5999985-18.5,10
	S-5.5999994-18.5,10-18.5 M10-20C-6.5-20-20-6.5-20,10s13.5,30,30,30s30-13.5,30-30S26.5-20,10-20L10-20z"/>
</svg>
