<?xml version="1.0" encoding="utf-8"?>
<svg version="1.1" id="Layer_1" xmlns="http://www.w3.org/2000/svg" xmlns:xlink="http://www.w3.org/1999/xlink" x="0px" y="0px"
	 viewBox="-22 -22 64 64" style="enable-background:new 0 0 20 20;" xml:space="preserve">
<style type="text/css">
	.st0{fill:#239E46;}
	.st1{fill:#E70013;}
	.st2{fill:#FFFFFF;}
	.st3{fill:#CCCCCC;}
</style>
<path class="st0" d="M10,38.8000031c7.776001,0,14.9760017-3.1679993,20.1599979-8.3520031h-40.3199997
	C-4.9760003,35.6320038,2.224,38.8000031,10,38.8000031z"/>
<path d="M-18.7999992,10c0,8.0639992,3.1679993,15.263998,8.6399994,20.448h40.3199997
	c5.1840038-5.184,8.6399975-12.3840008,8.6399975-20.448c0-7.4880009-2.8799973-14.4000006-7.7759972-19.5839996h-42.3359985
	C-15.9200001-4.4000006-18.7999992,2.5120006-18.7999992,10L-18.7999992,10z"/>
<path class="st1" d="M10-18.7999992c-8.3519993,0-15.8400002,3.4559994-21.0240002,9.2159996h42.3359985
	C25.8400002-15.3439999,18.3520012-18.7999992,10-18.7999992L10-18.7999992z"/>
<path class="st2" d="M4.2399998,17.4880009C0.2080002,14.6080008-0.6560001,9.1359997,2.224,5.3920021
	s8.3519983-4.8959999,12.0960016-2.0159998c-4.0319996-4.0319996-10.368001-4.0319996-14.1119995,0
	c-4.0319996,4.0319996-4.0319996,10.368001,0,14.1119986c4.032001,4.0319996,10.368,4.0319996,14.1119995,0
	C11.4399986,19.7919998,7.407999,19.7919998,4.2399998,17.4880009L4.2399998,17.4880009z"/>
<polygon class="st2" points="22.6720009,10.5760012 25.8400002,6.2559996 20.6560001,7.6960011 17.4880009,3.3759995 
	17.4880009,8.8480005 12.3039989,10.5760012 17.4880009,12.3039989 17.4880009,17.4880009 20.6560001,13.1679993 
	25.8400002,14.8959999 "/>
<path class="st3" d="M10-18.5c15.5999985,0,28.5,12.9000006,28.5,28.5S25.5999985,38.5,10,38.5S-18.5,25.5999985-18.5,10
	S-5.5999994-18.5,10-18.5 M10-20C-6.5-20-20-6.5-20,10s13.5,30,30,30s30-13.5,30-30S26.5-20,10-20L10-20z"/>
</svg>
