<?xml version="1.0" encoding="utf-8"?>
<svg version="1.1" id="Layer_1" xmlns="http://www.w3.org/2000/svg" xmlns:xlink="http://www.w3.org/1999/xlink" x="0px" y="0px"
	 viewBox="-22 -22 64 64" style="enable-background:new 0 0 20 20;" xml:space="preserve">
<style type="text/css">
	.st0{fill:#F7D900;}
	.st1{fill:#0000B3;}
	.st2{fill:#E32110;}
	.st3{fill:#FDF700;}
	.st4{fill:#86632B;}
	.st5{fill:#D32620;}
	.st6{fill:#035D34;}
	.st7{fill:#005BA4;}
	.st8{fill:#CCCCCC;}
</style>
<path class="st0" d="M27.1240005-13.118C22.3360023-16.6730003,16.4230003-18.7999992,10-18.7999992
	S-2.336-16.6730003-7.1240005-13.118v46.2359962C-2.336,36.6730042,3.5770006,38.8000031,10,38.8000031
	s12.3359985-2.1269989,17.1240005-5.6819992V-13.118z"/>
<path class="st1" d="M-18.7999992,10c0,9.4830017,4.6049995,17.8709984,11.6759987,23.1179962V-13.118
	C-14.1949997-7.8709993-18.7999992,0.5170007-18.7999992,10z"/>
<path class="st2" d="M38.8000031,10c0-9.4830008-4.6050034-17.8709984-11.6760025-23.118v46.2359962
	C34.1949997,27.8709984,38.8000031,19.4830017,38.8000031,10z"/>
<path d="M7.3149986-2.9359994c-0.1650009,0-0.3120003,0.0419998-0.3959999,0.1079993
	C7.0509977-2.789,7.1499977-2.6660004,7.1499977-2.513v0.3809996H7.0059996H6.7719994
	c-0.1500006,0-0.2729988-0.0960002-0.3149986-0.2280006C6.3909998-2.2789998,6.3520012-2.1350002,6.3520012-1.9699993
	c0,0.1649995,0.0419998,0.3120003,0.1080008,0.3959999c0.0389986-0.1350002,0.1619997-0.2340002,0.3149986-0.2340002h0.2340002
	h0.1469994v0.1469994v1.1879997v0.4949999c0,0.1439996-0.0899992,0.2609997-0.2159986,0.3090005
	c0.1800013,0.0269995,0.3360014,0.2670007,0.3809996,0.4019995c0.0389986-0.131999,0.1949987-0.3779998,0.375-0.4049993
	C7.573,0.289,7.4799995,0.1719999,7.4799995,0.0250006v-0.8580008v-0.8280001v-0.1469994h0.1469994h0.2340002
	c0.1500006,0,0.2729988,0.0960002,0.3149986,0.2280006c0.0660009-0.0839996,0.1080008-0.2280006,0.1080008-0.3930001
	S8.2419987-2.2849994,8.1759977-2.368999c-0.041997,0.1379986-0.1649981,0.2339988-0.3149986,0.2339988H7.6269989H7.4799995
	v-0.3809996c0-0.1500006,0.0959988-0.2730002,0.2280006-0.3150001C7.6240005-2.8969994,7.4799995-2.9359994,7.3149986-2.9359994z"/>
<path class="st3" d="M7.3149986-2.8579993c-0.0870008,0-0.1619997,0.0180001-0.2280006,0.0360003
	c0.0870008,0.0750003,0.1409998,0.1799998,0.1409998,0.3059993v0.3809996c0,0.0059996-0.0030012,0.0120006-0.0030012,0.0150003
	v0.0599999H7.1649952c-0.0059996,0-0.0119991,0.0029998-0.0150003,0.0029998H7.1169987H7.0059996H6.7719994
	c-0.1199999,0-0.2280006-0.0540004-0.3029995-0.138C6.4449987-2.1320004,6.4300013-2.0599999,6.4300013-1.9699993
	c0,0.0869994,0.0179987,0.1619997,0.0360003,0.2249994c0.0749989-0.0869994,0.1800013-0.1409998,0.3060007-0.1409998h0.2340002
	h0.0479994h0.099h0.0780001c0,0.0089993-0.0030012,0.0150003-0.0030012,0.0239997v0.039
	c0,0.0059996,0.0030012,0.0120006,0.0030012,0.0180001v0.1469994v1.1879997v0.4949999
	c0,0.1170001-0.0600014,0.2130003-0.1409998,0.2880006C7.1470022,0.349,7.1980028,0.3939996,7.2400026,0.4450002
	C7.276,0.4899998,7.2910004,0.5319996,7.3149986,0.5800004C7.3419981,0.5350008,7.3539972,0.487,7.3929987,0.4450002
	C7.4349985,0.3939996,7.4859991,0.349,7.5429993,0.3159995C7.4620008,0.2410007,7.4019995,0.1450005,7.4019995,0.0280004v-0.8610005
	v-0.8280001v-0.0209999v-0.1259995v-0.0750003h0.0629997c0.0059996,0,0.0119991-0.0029998,0.0150003-0.0029998h0.1469994h0.2340002
	c0.1199999,0,0.2280006,0.0540004,0.3029995,0.138c0.0240011-0.0629997,0.0389986-0.138,0.0389986-0.2249994
	S8.1849985-2.1349988,8.166997-2.2009997C8.092001-2.1140003,7.9840002-2.0599999,7.8609991-2.0599999H7.6269989H7.4799995
	c-0.0059996,0-0.0119991,0-0.0150003-0.0029998H7.4049978v-0.0570002c0-0.0059996-0.0030012-0.0089993-0.0030012-0.0150003
	v-0.3809996c0-0.1199999,0.0539989-0.2280006,0.1409998-0.3029995C7.4770012-2.8430004,7.4019995-2.8579993,7.3149986-2.8579993z"/>
<polygon class="st4" points="7.6030006,3.7990003 6.9730005,3.6550007 5.6469994,2.9589996 4.8129997,2.9110003 
	4.7559996,1.2910004 3.1539998,0.0040007 1.5219994,1.7650003 1.2880006,2.2869997 1.3629994,18.3310013 2.4190001,17.0500011 
	2.6409998,17.1040001 3.7329993,15.9250011 4.6600008,13.5849991 4.9329996,12.6159992 6.1839991,14.092001 5.7130003,14.9649992 
	6.1450005,14.9320002 6.1779995,15.2979994 6.5770006,15.1330013 6.6820002,15.6369991 7.552,14.7550001 8.7609997,15.3520012 
	6.4659986,19.4440002 5.644001,20.0470009 7.1230011,20.6020012 8.6350002,18.8380013 8.4160004,19.9959984 7.9659986,21.1209984 
	9.8079996,22.1800003 11.8089991,20.9980011 10.8280001,18.9370003 11.1459999,18.7900009 12.4420004,20.6679993 
	13.8520012,19.9689999 12.019001,17.8210011 10.8129997,15.2380009 12.0849991,14.8179998 12.9520006,15.6519995 
	13.0810013,15.1090002 13.5400009,15.3310013 13.4830008,14.8780012 13.9420004,14.9799995 13.3809996,14.0889997 
	14.8060007,12.8950005 15.7120008,15.7120008 17.0379982,17.2330017 17.3199997,17.1970005 18.2859993,18.3879986 
	18.2770004,1.8549995 16.4949989,-0.0200005 14.7609997,1.3930001 14.8330002,2.914 14.0560007,2.9439993 12.8979988,3.5380006 
	12.25,3.7509995 11.9439993,3.8109994 11.5479994,3.3790007 11.0140009,2.3140006 10.9780006,1.2579999 11.3079996,0.5739994 
	11.2480011,-0.0739994 11.5419998,-0.0679998 11.3530006,-0.5059996 11.6140003,-0.6110005 11.224,-0.9530001 11.3590002,-1.112 
	9.8890009,-1.7420001 8.7669992,-1.8170004 8.4639997,-1.6849999 8.3170004,-1.4119997 8.6140003,-0.5720005 8.2989988,-0.2570004 
	8.6109991,0.3579993 8.6230011,1.7020006 8.3740005,2.8389997 7.8699999,3.7000003 "/>
<polygon class="st5" points="5.9050007,14.9949999 4.795001,16.6870003 4.2580013,16.6720009 3.7030001,16.9329987 3.526,17.532999 
	3.6069999,17.8120003 4.2070007,18.4630013 4.6989994,18.1870003 5.0889997,17.7639999 5.1879997,17.3859997 6.5889997,15.5649986 
	6.5229988,15.105999 6.2139997,15.3010006 6.0999994,14.9289989 "/>
<polygon class="st5" points="12.9940004,15.4990005 14.4790001,17.5030022 14.6259995,17.8929977 15.2800007,18.480999 
	15.4720011,18.4329987 16.1920013,17.598999 16.0270004,17.0290012 15.3609991,16.6240005 14.8570013,16.6720009 
	13.7290001,14.9949999 13.5340014,14.9110003 13.4530001,15.2349997 13.1259995,15.1390009 "/>
<path d="M15.0100002,17.8390007c0.0090008-0.0030022,0.0209999,0,0.0300007,0
	c0.0209999,0.0030003,0.0419998,0.0089989,0.0600014,0.0240002l0.3599997,0.3149986
	c0.045001,0.0389996,0.045001,0.1109982,0.0030012,0.1650009c-0.0419998,0.0510006-0.1140003,0.0570011-0.1650009,0.0179996
	l-0.3570013-0.3120003c-0.045001-0.0389996-0.0479994-0.1140022-0.0059996-0.1650009
	C14.9560013,17.8570023,14.9830008,17.842001,15.0100002,17.8390007z M4.5760012,17.8390007
	C4.6120014,17.8359985,4.651,17.8479996,4.6810007,17.8810005C4.7230005,17.9319992,4.7199993,18.007,4.6750011,18.0460014
	l-0.3570013,0.3120003c-0.045001,0.0389977-0.1169987,0.0329971-0.1650009-0.0179996
	c-0.0419998-0.0510006-0.0419998-0.1230011,0.0030012-0.1650009l0.3599997-0.3149986
	C4.5340014,17.8479996,4.5550013,17.8390007,4.5760012,17.8390007z M15.2380009,17.6020012
	c0.0090008-0.0030022,0.0209999,0,0.0300007,0c0.0209999,0.0030022,0.0419998,0.0119991,0.0600014,0.0270004l0.3570013,0.3120003
	c0.045001,0.0389977,0.0479994,0.1139984,0.0059996,0.1650009c-0.0419998,0.0509987-0.1140003,0.0569992-0.1650009,0.0179977
	l-0.3599997-0.3149986c-0.045001-0.0389977-0.0479994-0.1110001-0.0059996-0.1650009
	C15.1839991,17.6230011,15.2110014,17.6049995,15.2380009,17.6020012z M4.3480005,17.6020012
	c0.0360003-0.0030022,0.0780001,0.0119991,0.1049995,0.045002c0.0419998,0.0509987,0.0389986,0.1230011-0.0059996,0.1650009
	l-0.3570013,0.3089981c-0.045001,0.0389977-0.1170001,0.032999-0.1649995-0.0179977
	c-0.0419998-0.0510025-0.039-0.1259995,0.0059996-0.1650009l0.3569999-0.3120003
	C4.3029995,17.6140003,4.3270006,17.6020012,4.3480005,17.6020012z M15.4389992,17.3620014
	c0.0090008-0.0030003,0.0209999,0,0.0300007,0c0.0209999,0.0030003,0.045001,0.0119991,0.0629997,0.0269985l0.3570013,0.3120003
	c0.045001,0.0389996,0.0479994,0.1140022,0.0059996,0.1679993c-0.0419998,0.0510025-0.1169987,0.0570011-0.1650009,0.0179996
	l-0.3570013-0.3149986c-0.045001-0.0389996-0.0479994-0.1109982-0.0059996-0.1650009
	C15.3879986,17.3800011,15.4150009,17.3649998,15.4389992,17.3620014z M4.144001,17.3620014
	c0.0360003-0.0030003,0.0749989,0.0119991,0.1049995,0.0419998c0.0419998,0.0510006,0.0389986,0.1230011-0.0059996,0.1650009
	l-0.3569999,0.3149986c-0.0479994,0.0360012-0.1229997,0.032999-0.1680007-0.0209999s-0.039-0.1230011,0.0059996-0.1679993
	l0.3570013-0.3120003C4.099,17.3740005,4.1230011,17.3620014,4.144001,17.3620014z M15.625,17.2330017
	c0.0119991,0,0.0269995,0.0030003,0.0360003,0.0119972l0.1469994,0.1290016
	c0.0209999,0.0179977,0.0209999,0.045002,0.0030012,0.0690002c-0.0179987,0.0209999-0.0479994,0.0269985-0.0689993,0.0089989
	L15.5950022,17.323c-0.0209999-0.0179996-0.0209999-0.0450001-0.0030012-0.0689983
	C15.5980005,17.2390003,15.6130009,17.2330017,15.625,17.2330017z M3.9879994,17.2330017
	C4,17.2360001,4.0150003,17.2390003,4.0240011,17.2480011c0.0179987,0.0209999,0.0179987,0.0510006-0.0030012,0.0690002
	l-0.1469994,0.1289997c-0.0209999,0.0179996-0.0479994,0.0150013-0.0689993-0.0090008
	C3.7870011,17.4160004,3.7870011,17.3859997,3.808001,17.368l0.1469994-0.1289997
	C3.9669995,17.2360001,3.9790001,17.2299995,3.9879994,17.2330017z M8.6409998,15.2650003
	c0,0-1.7790012,4.0920019-3.3599997,4.7220011c0,0,0.6870003,0.2910004,1.532999,0.7320004
	c0.1230011,0.0629997,0.2519989,0.132,0.3780012,0.2010021c0.1080008-0.1259995,0.2189999-0.2700005,0.3270006-0.4169998
	c0.5040007-0.6779995,0.9990005-1.4580002,0.9990005-1.4580002c0.0360003,0.2040005-0.2340002,0.8310013-0.6839991,1.6079998
	c-0.0899992,0.1529999-0.1800013,0.3120003-0.2850008,0.4710007c0.1140003,0.066,0.2280006,0.1319981,0.342001,0.197998
	c0.8339996,0.5040016,1.6199999,1.0830002,1.9110003,1.6140022c0.2910004-0.5340023,1.0770006-1.1130028,1.9110003-1.6140022
	c0.1140003-0.0689983,0.2280006-0.1349983,0.342001-0.197998c-0.1049995-0.1620007-0.1949987-0.321003-0.2850008-0.4710007
	c-0.4530001-0.7740002-0.717001-1.4039993-0.6839991-1.6079998c0,0,0.4919987,0.782999,0.9990005,1.4580002
	c0.1080008,0.1469994,0.2220011,0.2910004,0.3270006,0.4169998c0.1259995-0.0689983,0.2550001-0.1379986,0.3809996-0.2010021
	c0.8430004-0.4379997,1.532999-0.7320004,1.532999-0.7320004c-1.5810013-0.6269989-3.3599997-4.7220011-3.3599997-4.7220011
	l-0.2609997,0.0749989c0,0,1.4189987,3.5369997,2.8079996,4.6080008c-0.3179998,0.0959988-0.6839991,0.230999-1.0679998,0.3959999
	c-0.4649992-0.5429993-0.9420004-1.2749996-1.3320007-1.9260006c-0.420001-0.7019997-0.7619991-1.9379997-0.7619991-1.9379997
	c-0.1949987,0.4709988,0.2189999,2.8499985,1.0589991,4.355999c-0.6929998,0.3600006-1.3110008,0.7530022-1.6080008,1.0710011
	c-0.2969999-0.3210011-0.9119997-0.7110004-1.6080008-1.0710011c0.8370008-1.5060005,1.2540007-3.8850002,1.0589991-4.355999
	c0,0-0.3449993,1.2330017-0.7650003,1.9379997c-0.3900003,0.651001-0.8699999,1.3830013-1.3320007,1.9260006
	C6.7750006,20.1819992,6.4029989,20.0439987,6.0910015,19.948c1.3890009-1.0710011,2.8079996-4.6080008,2.8079996-4.6080008
	L8.6409998,15.2650003z M13.5760012,15.052c0.0300007,0.0179987,0.0629997,0.0300007,0.1049995,0.0360003
	c0.0570002,0.0899992,0.6660004,1.0290003,1.0410004,1.6080008c0.0930004,0.1410007,0.5400009,0.032999,0.5999994,0.0389996
	c0.2399998,0.0450001,0.5820007,0.2999992,0.6149998,0.3929977c0.0209999,0.0510006-0.0269995,0.1379986-0.0749989,0.1409988
	c-0.0839996,0.0060005-0.1619997-0.1109982-0.4379997-0.1949978c-0.2519989-0.078001-0.4470005,0.0059986-0.6660004-0.1590023
	c0.0119991,0.2130013,0.3000011,0.375,0.3000011,0.5250015c-0.1860008,0-0.2939987-0.1230011-0.2939987-0.1230011
	s0.0179987,0.144001,0.0179987,0.2639999c0,0.1230011-0.144001,0.1920013-0.144001,0.1920013
	s-0.0839996-0.3360023-0.1800013-0.4680004c-0.3959999-0.5340023-1.1970005-1.6259995-1.3380003-1.8179998
	c0.0300007-0.1469994,0.0479994-0.2550001,0.0479994-0.2550001l0.3239994,0.2249994
	C13.5789995,15.3459988,13.5760012,15.052,13.5760012,15.052z M6.0369997,15.052c0,0-0.0030012,0.2969999,0.0899992,0.3990011
	l0.3239994-0.2249994c0,0,0.0209999,0.1080008,0.0479994,0.2550001c-0.1409998,0.1889992-0.9420004,1.2840014-1.3380003,1.8179998
	c-0.099,0.1319981-0.1800013,0.4680004-0.1800013,0.4680004s-0.144001-0.0690002-0.144001-0.1920013
	c0-0.1199989,0.0150003-0.2639999,0.0150003-0.2639999s-0.1080008,0.1230011-0.2939987,0.1230011
	c0-0.1500015,0.2879992-0.3120003,0.3000011-0.5250015c-0.2189999,0.1650009-0.4110003,0.0810013-0.6660004,0.1590023
	c-0.276,0.0869999-0.3540001,0.2010021-0.4379997,0.1949978c-0.0479994-0.0030003-0.0960002-0.0899982-0.0750003-0.1409988
	c0.0330005-0.0930004,0.3750014-0.3449993,0.6150012-0.3929977c0.0570002-0.012001,0.5100002,0.098999,0.5999994-0.0389996
	c0.375-0.5790005,0.980999-1.5150003,1.0410004-1.6080008C5.974,15.0760012,6.006999,15.0699987,6.0369997,15.052z
	 M13.5159998,14.0679998l-0.1800013,0.0899992c0,0,0.2519989,0.6120014,0.4649992,0.7139997
	c0,0-0.243001,0.0209999-0.3869991-0.0749989c-0.0269995,0.1409998-0.0600014,0.3570013-0.0600014,0.3570013
	c-0.1140003-0.0030012-0.3239994-0.1650009-0.3239994-0.1650009c-0.045001,0.1109991-0.1199999,0.4320002-0.1199999,0.4320002
	c-0.1800013-0.1169987-0.7290001-0.7590008-0.7290001-0.7590008l-0.2519989,0.1650009c0,0,0.9119997,0.7320013,1.1009989,1.1159992
	c0.0119991-0.0629997,0.0209999-0.1140003,0.032999-0.177c0.1679993,0.2220011,0.9000006,1.1910009,1.2659998,1.7010012
	c0.1080008,0.152998,0.1169987,0.3149986,0.2130003,0.4560013c0.1860008,0.2729988,0.3900003,0.4050007,0.5970011,0.597002
	c0.0839996,0.0749969,0.3210011,0.0359993,0.375-0.0209999c0.0689993-0.0750008,0.5310001-0.651001,0.5310001-0.651001
	s0.032999,0.0300007,0.0510006,0.1080017c0,0,0.177-0.2280006,0.177-0.3959999c0-0.1529999-0.0660019-0.3330002-0.1529999-0.4860001
	c-0.0839996-0.144001-0.5909977-0.4980011-0.8129988-0.4980011c-0.2700005,0-0.3929987,0.1350002-0.5670004-0.1710014
	c-0.1860008-0.3239975-0.782999-1.1850004-0.8609991-1.2959995c0.1259995,0,0.2399998-0.0150003,0.2399998-0.0150003
	C13.9449987,14.9379997,13.5159998,14.0679998,13.5159998,14.0679998z M6.0970011,14.0679998
	c0,0-0.4289989,0.8730011-0.5970011,1.0290012c0,0,0.1109991,0.0150003,0.2399998,0.0150003
	c-0.0780001,0.1109991-0.6750011,0.972002-0.8609991,1.2959995c-0.177,0.3030014-0.3000011,0.1679993-0.5670004,0.1679993
	c-0.2249994,0-0.7290001,0.3570023-0.8129997,0.4980011c-0.0869994,0.1529999-0.1530004,0.3330002-0.1530004,0.4860001
	c0,0.1679993,0.177,0.3959999,0.177,0.3959999C3.5410004,17.875,3.5740008,17.8479996,3.5740008,17.8479996
	s0.4650006,0.5760021,0.5309987,0.651001c0.0510006,0.0569992,0.2910004,0.098999,0.3719988,0.0209999
	c0.2099991-0.1889992,0.4110003-0.3239994,0.5970011-0.5970001c0.0959988-0.1410007,0.1049995-0.3030014,0.2130003-0.4560013
	c0.3690004-0.507,1.1009989-1.4759998,1.2659998-1.7010021c0.0119991,0.0600014,0.0209999,0.1109991,0.032999,0.177
	c0.1889992-0.3840008,1.1009989-1.1159992,1.1009989-1.1159992l-0.2490005-0.1650009c0,0-0.5489988,0.6390009-0.7290001,0.7590008
	c0,0-0.0749989-0.3210011-0.1199999-0.4320002c0,0-0.2099991,0.1590014-0.3239994,0.1650009
	c0,0-0.0360003-0.2159986-0.0600014-0.3570013c-0.144001,0.099-0.3869991,0.0749989-0.3869991,0.0749989
	c0.2130003-0.1020012,0.4649992-0.7139997,0.4649992-0.7139997L6.0970011,14.0679998z M17.1999989,4.948l0.4470005,0.4139986
	l0.4410019-0.4110003v12.8730011c-0.2910004-0.177-0.8910007-0.9389992-0.8910007-1.2660007L17.1999989,4.948L17.1999989,4.948z
	 M2.4130006,4.948v11.6099987c0,0.3270016-0.5999994,1.0920029-0.888,1.2660007V4.9510012l0.4409995,0.4110003L2.4130006,4.948z
	 M16.9449997,4.9449987V16.935997c0,0-0.75-0.7559986-0.9480009-0.9569998
	c0.020999-0.329999,0.0510015-0.8339996,0.0510015-0.8339996V4.948l0.4469986,0.4139986L16.9449997,4.9449987z M2.6710005,4.9449987
	L3.118001,5.3619986L3.5650015,4.948v10.1970005c0,0,0.0330005,0.506999,0.0510006,0.8339996
	c-0.198,0.2010002-0.948,0.9570007-0.948,0.9570007L2.6710005,4.9449987L2.6710005,4.9449987z M17.5690002,3.5800004v1.2329993
	l-0.2430019-0.2249994L17.1459961,4.420001V3.9760003l0.1800022-0.1680007L17.5690002,3.5800004z M16.573,3.5800004
	l0.2430019,0.2280006l0.1800003,0.1710005v0.4380012l-0.1800003,0.1710005L16.573,4.8100014V3.5800004z M16.4230003,3.5800004
	v1.2329993l-0.2400017-0.2249994L16,4.4169998V3.9790001L16.4230003,3.5800004z M15.427,3.5800004
	c0.1290007,0.1740003,0.276,0.336,0.4229994,0.4259992V4.420001l-0.1800013,0.1710005l-0.243001,0.2280006
	C15.4269972,4.8190022,15.4269972,3.5800004,15.427,3.5800004z M4.1920004,3.5800004v1.2360005l-0.243001-0.2280006
	L3.7689996,4.420001V4.0059996C3.9130006,3.9160004,4.0600014,3.7540007,4.1920004,3.5800004z M3.1959996,3.5800004
	L3.618999,3.9760003v0.4380012L3.4329996,4.5880003L3.1929998,4.8129997V3.5800004H3.1959996z M3.0430007,3.5800004v1.2329993
	l-0.243001-0.2249994L2.6199999,4.4169998V3.9790001l0.1799998-0.1710005L3.0430007,3.5800004z M2.0440001,3.5800004
	L2.2869997,3.808001l0.1799998,0.1680007V4.420001L2.2869997,4.5910015L2.0440001,4.8129997V3.5800004z M17.7189999,3.5770006
	l0.3690014,0.3419995v0.5490003l-0.3690014,0.3449993V3.5770006z M1.8969994,3.5770006v1.2390003l-0.368999-0.3450022V3.9219999
	L1.8969994,3.5770006z M16,2.2570004l0.4230003,0.4050007v0.4379983L16,3.4929996V2.2570004z M3.6190004,2.2570004v1.2420001
	L3.1959996,3.1030006V2.6649995L3.6190004,2.2570004z M15.8499994,2.1879997v1.3410001
	c-0.276-0.1500006-0.5369997-0.4890003-0.6330013-0.6270003C15.493001,2.7639995,15.7869997,2.2930007,15.8499994,2.1879997z
	 M3.7689996,2.1879997c0.0629997,0.1079993,0.3569999,0.5789995,0.6329999,0.7139997
	c-0.099,0.138-0.3569984,0.4770012-0.6329999,0.6270003V2.1879997z M17.1490021,2.086l0.4229984,0.4440007v0.573
	l-0.4229984,0.3959999V2.086z M2.4699993,2.086v1.4099994L2.0440001,3.1030006v-0.573L2.4699993,2.086z M16.9990005,1.9719996
	v1.5299993L16.5760002,3.105999V2.6140003L16.9990005,1.9719996z M2.6199999,1.9719996l0.4229994,0.6450005v0.4890003
	L2.6199999,3.4990005V1.9719996z M17.9589996,1.8699999c0.0779991,0.1500006,0.1259995,0.2849994,0.1259995,0.3959999v1.1760006
	l-0.3659992-0.342001V2.3079996L17.9589996,1.8699999z M1.6539998,1.8699999l0.2429996,0.4379997v0.7919998l-0.368999,0.342001
	V2.2659998C1.5280004,2.1550007,1.573,2.0200005,1.6539998,1.8699999z M16.4560013,0.2860003
	c0.4860001,0.3540001,1.0019989,0.849,1.323,1.2899995c-0.0570011,0.1199999-0.2640018,0.5700002-0.2640018,0.5700002
	s-0.4139977-0.4290004-0.5249996-0.5399995v-0.138c0-0.1259995-0.0810013-0.2579999-0.1590023-0.3599997l-0.152998,0.0540004
	C16.75,1.2490005,16.8400002,1.3750014,16.8400002,1.4860005v0.1680007l-0.4560013,0.6870003L16,1.9299998l-0.0269995-0.0299993
	L15.9250011,1.849V1.7739997c0-0.1290007-0.0629997-0.2310004-0.1230011-0.2969999l-0.1560001,0.0540004
	c0.0539989,0.0479994,0.1259995,0.138,0.1259995,0.2609997v0.1320004c-0.1590014,0.2249994-0.4799995,0.6480002-0.7409992,0.7349997
	V1.6989994L15.0460005,1.375C15.4000006,1.2520003,16.4560013,0.289,16.4560013,0.2860003L16.4560013,0.2860003z
	 M3.1599994,0.2860003L3.1599994,0.2860003c0,0.0029998,1.0559993,0.9719996,1.4099994,1.0949993L4.5849991,1.704999v0.9600005
	C4.3270006,2.5750003,4,2.1519995,3.8439999,1.927V1.7949996c0-0.1229997,0.0720005-0.2130003,0.1259995-0.2609997
	L3.8170004,1.4769998C3.7570004,1.5429993,3.6940007,1.6450005,3.6940007,1.7739997v0.0780001L3.6430001,1.9030004
	L3.6160007,1.933001l-0.3900003,0.414L2.776,1.6599994V1.4890003c0-0.1110005,0.0869994-0.2399998,0.1619997-0.3239994
	L2.7819996,1.1079993c-0.0750003,0.1020012-0.1560001,0.237-0.1560001,0.3600011v0.138
	C2.5180001,1.7139997,2.1009989,2.1459999,2.1009989,2.1459999S1.8909984,1.6959996,1.8369994,1.5759997
	C2.1550007,1.1350002,2.6740003,0.6400003,3.1599994,0.2860003z M9.1240005-1.7390003
	c0.0570002,0,0.1080008,0.0029998,0.1529989,0.0029998c0.5880003,0,1.0019989,0.2670007,1.5570002,0.5159998
	c0.1469994,0.0629997,0.2790012,0.1170001,0.3990011,0.1589999c-0.0749989,0.0659995-0.131999,0.1320004-0.1500006,0.1890006
	c0,0,0.2519989,0.0449996,0.3630009,0.2550001c0,0-0.2370014,0.0269995-0.276,0.1649995
	c0.131999,0.0089993,0.2640009,0.1799998,0.2640009,0.3389997l-0.3360014-0.1049995c0,0,0.0810013,0.3779998,0.0810013,0.789
	c0,0.2100005-0.3029995,0.4589996-0.3029995,0.8129997c0,1.1160007,0.2819996,1.5449996,0.4799995,1.8900003
	c0.0780001,0.1350002,0.1409998,0.2910004,0.2729988,0.4080005C11.0529995,3.3729997,10.6240005,2.9920001,10.6240005,2.638
	V1.2819996H10.474v1.3469996c0,0.2579999,0.0629997,0.3779998,0.0629997,0.3779998
	c0.0899992,0.2849994,0.2729988,0.7260003,0.3869991,0.9030004C10.3929987,3.625,10.1259995,3.2649989,10.1259995,3.1329999
	V1.2819996H9.9820013v1.8809996l0.0300007,0.1290007C9.9460011,3.388,9.8620014,3.5020003,9.8080025,3.5410004
	C9.7480011,3.4990005,9.670001,3.388,9.6040001,3.289l0.0300007-0.1290007V1.2819996H9.480999v1.8510003
	c0,0.1320004-0.2669992,0.4920001-0.7979994,0.7769995c0.1140003-0.177,0.2969999-0.6179996,0.3869991-0.9029989
	c0,0,0.0629997-0.1199999,0.0629997-0.3779998V1.2819996H8.9829979v1.3469996c0,0.3540001-0.4260006,0.7410007-1.0019989,1.0440001
	c0.131999-0.1140003,0.1920004-0.2700005,0.2700005-0.4050007c0.2189999-0.3749986,0.4890003-0.8549981,0.4890003-2.2199993
	c0-0.513-0.0749989-0.8610005-0.2070007-1.1040001C8.4940004-0.1339993,8.4399986-0.3469996,8.7459993-0.3469996
	c0.1590014,0,0.5250006,0.2819996,0.5250006,0.2819996S9.2530012-0.2930007,9.0699987-0.4190001
	C9.0400009-0.4400001,8.9890003-0.5059996,8.9890003-0.5689993c0-0.0449996,0.0810013-0.1619997,0.1409998-0.1890006
	c0.0419998-0.0209999-0.6240005-0.1350002-0.6240005-0.4379997c0-0.0629997,0.0389986-0.1049995,0.1800013-0.1049995
	c0.1800013,0,0.4770012,0.2189999,0.7409992,0.2189999c0.1949987,0,0.2700005-0.0449996,0.4680004-0.0449996
	c0.2459993,0,0.7530012,0.4619994,0.9239988,0.4439993c-0.1920004-0.1199999-0.506999-0.5850005-0.980999-0.5850005
	c-0.1650009,0-0.3149986,0.0360003-0.4680004,0.0360003c-0.1949987,0-0.3929987-0.1799998-0.605999-0.1799998
	c-0.1409998,0-0.3029995,0.0089993-0.3239994-0.0300007c-0.0420027-0.0659995-0.0030012-0.1049995,0.032999-0.1589999
	c0.0720005-0.099,0.276-0.1289992,0.4769983-0.1350002C9.0100002-1.7390003,9.0699987-1.7390003,9.1240005-1.7390003z
	 M9.1120014-1.9069996C8.9290018-1.9069996,8.6560001-1.901,8.5-1.7990003c-0.144001,0.099-0.131999,0.2250009-0.1860008,0.2670007
	C8.1970005-1.4240003,7.993001-1.427,7.8909998-1.427c-0.6390009,0-0.6629992,0.6840005-0.6629992,0.6840005
	s0.1650009-0.2490005,0.4530001-0.2490005c0.4799995,0,0.8430004,0.2609997,0.8430004,0.3599997
	c0,0.039-0.0479994,0.0449996-0.0510006,0.0449996c-0.3149986,0-0.7860003-0.1799998-1.0379992-0.1890006v0.1019998
	c0.0030012,0.0029998,0.0059996,0.0059996,0.0119991,0.0089993c-0.0030012,0-0.0059996-0.0029998-0.0119991-0.0029998v0.0180001
	c0.5579996,0.198,1.1280012,0.474,1.1280012,1.6920004c0,0.7650003-0.0930004,1.5479994-0.474,2.1660004
	C7.951004,3.4239988,7.7590036,3.6099982,7.5250034,3.7779989c-0.1049995-0.0330005-0.5909986-0.1799998-0.9329996-0.375
	C5.9919987,3.0670004,5.6800013,2.7340002,4.9659986,2.698V2.1550007c0-0.2910004,0.1049995-0.552,0.1049995-0.8280001
	C4.770997,1.2460008,3.9339976,0.2230005,3.1629977-0.2299995C2.0230002,0.5050001,1.1439996,1.711,1.1439996,2.2659998
	c0,0,0.0360003,11.9370003,0,16.0950012C1.1439996,18.6009979,1,18.9399986,1,18.9399986
	c0.414-0.177,1.1760006-1.2150002,1.3350005-1.6110001v0.1889992c0.6240005-0.2849998,1.086-1.0379982,1.2899995-1.4249992
	c0.0029998,0.0569992,0.0120006,0.1949978,0.0120006,0.1949978c0.558001-0.4890003,1.2720008-3.3900003,1.2720008-3.3900003
	l-0.0360003-0.6119986c0,0-0.4919987,2.3669987-1.0529995,2.8530006V4.948l0.4439993,0.4139986L4.939002,4.7349997V4.2580013
	L4.342001,4.8129997V3.3699999c0.0899992-0.1350002,0.1500006-0.237,0.1949987-0.3179998
	c0.0960016,0.1679993,0.407999,0.6840005,0.7740011,1.0050001C5.368001,3.8079996,5.7670021,3.5770006,5.7670021,3.5770006
	s0.1409998,0.3870006,0.3599997,0.4799995C6.2050018,3.9219999,6.6610031,3.625,6.6610031,3.625
	S6.2710028,3.6820002,6.1150026,3.8319993C5.9770041,3.7989988,5.9410038,3.2619991,5.9410038,3.2619991
	S5.3650026,3.5409989,5.2630043,3.7419987c-0.1110048-0.0299993-0.2790041-0.461998-0.3480034-0.638998
	c0.1049995-0.0089993,0.2459993-0.0209999,0.4320002-0.0209999c0.1650009,0,0.375,0.0780001,0.5939999,0.1799998
	c0.243001,0.1110005,0.4949999,0.2550001,0.7199993,0.3599997c0.2879992,0.1290007,0.7259989,0.1589999,0.8549995,0.1619997
	C7.3690004,3.8889995,7.2070007,3.9790001,7.0360003,4.0689993c0,0,0.6870003-0.0059996,1.1729994-0.2490005
	c0.1710005-0.1079993,0.3480005-0.2189984,0.5009995-0.3479991c-0.0659981,0.183001-0.1710005,0.4020009-0.329999,0.5880017
	C9.0910015,4,9.4420004,3.592001,9.5439987,3.4570007c0.045001,0.1199999,0.1290007,0.3179998,0.2609997,0.4860005
	c0.131999-0.1710005,0.2189999-0.3660007,0.2640009-0.4860005c0.1020012,0.1350002,0.4560013,0.5399995,1.1639986,0.6030006
	c-0.1619997-0.1859994-0.2640009-0.4019995-0.329999-0.5880003c0.1529989,0.1290007,0.329999,0.2429996,0.5040007,0.3510003
	c0.4830008,0.2429996,1.1729994,0.2489991,1.1729994,0.2489991c-0.177-0.0869994-0.3360014-0.1799998-0.4830008-0.2849994
	c0.1230011-0.0059996,0.5639992-0.0330005,0.8580008-0.1619997c0.2249994-0.1049995,0.4770012-0.2490005,0.7199993-0.3599997
	c0.2189999-0.1049995,0.4289989-0.1799998,0.5939999-0.1799998c0.1860008,0,0.3270006,0.0120006,0.4289989,0.0239997
	c-0.0660009,0.1799998-0.2370014,0.612-0.3480005,0.6389995c-0.1020012-0.2009997-0.6750011-0.4799995-0.6750011-0.4799995
	s-0.0360003,0.5399995-0.1710005,0.5670004c-0.1590014-0.1469994-0.5489988-0.2069993-0.5489988-0.2069993
	s0.4589996,0.2999997,0.5340014,0.4349999c0.2189999-0.0960002,0.3570013-0.4799995,0.3570013-0.4799995
	s0.3990011,0.2340002,0.4620008,0.4770012c0.3659992-0.3179998,0.6810007-0.8309999,0.7740011-1.0020003
	c0.045001,0.0839996,0.1080008,0.1859994,0.1949987,0.3179998V4.819005l-0.5970011-0.5550013v0.4770012l0.6750011,0.6269989
	l0.4439993-0.4110003v10.1939993c-0.5610008-0.4859991-1.0529995-2.8530006-1.0529995-2.8530006l-0.0360003,0.6120014
	c0,0,0.7110014,2.901,1.2719994,3.3899994c0,0,0.0090008-0.1409988,0.0150003-0.1949978
	c0.2039995,0.3900013,0.6629992,1.1369991,1.29,1.4250011v-0.1889992c0.1620007,0.3959999,0.9210014,1.4370003,1.3349991,1.6110001
	c0,0-0.144001-0.3390007-0.144001-0.5790005c-0.0359993-4.157999,0-16.0949993,0-16.0949993
	c0-0.5549998-0.8819981-1.7639995-2.0159988-2.4990005c-0.7709999,0.4559999-1.6109991,1.4760003-1.907999,1.5570002
	c0,0.2789998,0.1080008,0.5399995,0.1080008,0.8280001v0.5399995C13.948,2.7400069,13.6329985,3.0730071,13.032999,3.4090071
	c-0.3449993,0.1890006-0.8370008,0.3419995-0.9360008,0.375c-0.2340002-0.1649995-0.4229994-0.3510003-0.5579996-0.5700002
	c-0.3270006-0.5250006-0.4680004-1.1699996-0.4680004-1.8239994c0-0.276,0.3120003-0.5880003,0.3120003-0.8129997
	c0-0.3389997-0.032999-0.5399995-0.032999-0.5399995c0.1080008,0.0150003,0.3000011,0.2069993,0.3000011,0.2069993
	S11.644001-0.3169918,11.467001-0.4159918c0,0,0.0720005-0.0750003,0.329999-0.0809999
	c-0.0749989-0.1829996-0.4350014-0.4110003-0.4350014-0.4110003c0.0179987-0.0330005,0.0510006-0.0599999,0.0959988-0.0839996
	c0.0899992-0.0479994,0.2189999-0.0839996,0.3149986-0.1049995c-0.1049995-0.0239997-0.2249994-0.0540004-0.3540001-0.099
	c-0.3000011-0.099-0.6540012-0.2429996-0.980999-0.3989997C9.823-1.8859997,9.3669987-1.9069996,9.1120014-1.9069996z"/>
<polygon points="4.9329996,18.0279999 5.7669992,18.480999 5.5629997,19.407999 4.7320013,18.9580002 "/>
<path d="M5.0560007,17.8959999L4.8100014,18.151001l0.1529989,0.3360004l0.2969999-0.1350002L5.0560007,17.8959999z
	 M1.0629997,9.1540012L0.763,9.2890015l3.3839993,7.4129982H4.506999L1.0629997,9.1540012z"/>
<polygon class="st3" points="5.0529995,18.2919998 5.5689993,18.5739994 5.4429998,19.1469994 4.927,18.8649998 "/>
<path d="M2.1160007,14.9980011c0,0,0.2849994,0.5909986,0.5009995,0.6719999c-0.1110005-0.032999-0.474,0.1049995-0.474,0.1049995
	s0.6420007,0.572999,1.1879997,0.6119986c0.4619994,0.032999,0.6840005-0.198,0.6840005-0.198l-0.0930004-0.4890003
	c0,0-0.2819996-0.3389997-0.7349997-0.4980011C2.7280006,15.0369997,2.1160007,14.9980011,2.1160007,14.9980011z"/>
<path d="M4.2640009,13.9420004c0,0-0.3959999,0.3360014-0.5009995,0.7290001
	c-0.1079993,0.3900003,0.0689993,0.8339996,0.0689993,0.8339996l0.329999,0.6149988c0,0,0.4589996-0.2459984,0.6540012-0.6089993
	c0.1949987-0.3659992,0.1230011-0.8580008,0.1230011-0.8580008s-0.3630009,0.1350002-0.407999,0.1949987
	C4.605999,14.4460011,4.2640009,13.9420004,4.2640009,13.9420004z"/>
<path d="M2.9979997,13.782999c0,0-0.4470005,0.1529989-0.8820004,0.1230011
	c-0.414-0.0269995-0.7559996-0.3719988-0.7559996-0.3719988s0.3419995-0.2340002,0.513-0.2010012
	C1.6870003,13.2640009,1.414,12.7960005,1.414,12.7960005s0.3839993-0.1140003,0.7260003,0.0119991
	C2.4790001,12.9370003,2.776,13.3089991,2.776,13.3089991L2.9979997,13.782999z"/>
<path d="M3.151,11.599c0,0,0.2249994,0.4649992,0.1710005,0.6240005c0.0689993-0.1080008,0.3300004-0.2729988,0.3300004-0.2729988
	s0.1589999,0.7530012,0.0059996,1.2149992c-0.1530004,0.4649992-0.6149998,0.6390009-0.6149998,0.6390009l-0.5100002-0.993001
	c0,0-0.0750003-0.3690004,0.0839996-0.6600008C2.7789998,11.8599997,3.151,11.599,3.151,11.599z"/>
<path d="M0.2379994,10.3719988c0,0,0.4829993-0.0510006,0.927,0.131999
	c0.3720002,0.1529989,0.4829993,0.4320002,0.4829993,0.4320002l0.1799998,0.4890003c0,0-0.5280004,0.198-0.9420004,0.045001
	c-0.4169998-0.1500006-0.7230005-0.651-0.7230005-0.651S0.4539981,10.7109985,0.5649972,10.75
	C0.4060001,10.6810007,0.2379994,10.3719988,0.2379994,10.3719988z"/>
<path d="M1.7589993,9.4630003c0,0,0.2130003,0.2729988,0.2189999,0.5880003C2.0380006,9.8859997,2.302,9.6999989,2.302,9.6999989
	s0.2730002,0.6600008,0.2130003,1.1280012s-0.4530001,0.7469988-0.4530001,0.7469988l-0.4890003-0.927
	c0,0-0.1589999-0.3809996-0.1110005-0.6779995C1.5070004,9.6729994,1.7589993,9.4630003,1.7589993,9.4630003z"/>
<path d="M0.0850005,7.6870003c0,0-0.0869994,0.506999,0.0599999,0.7979994
	C0.2770009,8.743001,0.3640003,8.8029995,0.3640003,8.8029995C0.1090002,8.6350002-0.2750006,8.6199999-0.2750006,8.6199999
	s0.138,0.552,0.4650006,0.8010006s0.8309999,0.1920004,0.8309999,0.1920004S1.3510003,9.1719999,1.3300004,8.698
	C1.3060007,8.2209988,0.9279995,7.7110014,0.9279995,7.7110014S0.7779989,8.0200005,0.7659998,8.2510023
	C0.6699996,8.0140009,0.0850005,7.6870003,0.0850005,7.6870003z"/>
<path class="st6" d="M0.2349997,7.9959993c0,0-0.0120006,0.3690004,0.1079993,0.5789995s0.3959999,0.2939987,0.3959999,0.2939987
	S0.7479997,8.5,0.6279998,8.2900009C0.5079999,8.079999,0.2349997,7.9959993,0.2349997,7.9959993z"/>
<path class="st6" d="M-0.0230002,8.829999c0,0,0.3209996,0.0209999,0.5070004,0.1619997
	c0.1859994,0.1410027,0.2579999,0.4380026,0.2579999,0.4380026S0.5289998,9.4539995,0.3430004,9.3100014
	C0.1599994,9.1689987-0.0230002,8.829999-0.0230002,8.829999z"/>
<path class="st6" d="M0.9849997,8.0860014c0,0-0.1079993,0.2459993-0.0960002,0.5100002
	C0.901,8.8599997,1.0570002,9.1569996,1.0570002,9.1569996s0.138-0.3179998,0.1259995-0.5820007
	S1.0239997,8.1610003,0.9849997,8.0860014z"/>
<path class="st6" d="M0.4450002,10.4649992c0,0,0.1589999,0.2189999,0.3989997,0.3389997
	C1.0869994,10.9239988,1.4500003,10.927,1.4500003,10.927s-0.1799998-0.2340002-0.4229994-0.3509989
	C0.7839999,10.4560013,0.4450002,10.4649992,0.4450002,10.4649992z"/>
<path class="st6" d="M0.5230002,10.9749994c0,0,0.1140003,0.2280006,0.3270006,0.3239994
	c0.2130003,0.099,0.6450005,0.0899992,0.6450005,0.0899992s-0.1680007-0.2130003-0.3779998-0.3089991
	C0.9039998,10.980999,0.5230002,10.9749994,0.5230002,10.9749994z"/>
<path class="st6" d="M1.7440004,9.7659998c0,0-0.1290007,0.2130003-0.1140003,0.4470005
	c0.0120006,0.2340002,0.1649995,0.4859991,0.1649995,0.4859991s0.1079993-0.2939987,0.0960002-0.5250006
	C1.8759995,9.9399986,1.7440004,9.7659998,1.7440004,9.7659998z"/>
<path class="st6" d="M2.2150006,10.0660009c0,0-0.2189999,0.2939987-0.2520003,0.5970011
	C1.9299998,10.9660015,2.086,11.2750034,2.086,11.2750034s0.2639995-0.2640009,0.2969999-0.5670004
	C2.4160004,10.4019995,2.2150006,10.0660009,2.2150006,10.0660009z"/>
<path class="st6" d="M1.612,12.855999c0,0,0.0269995,0.1080008,0.1170001,0.2249994
	c0.0930004,0.1140003,0.2490005,0.2399998,0.2490005,0.2399998s0.1530004-0.0479994,0.3389997-0.0090008
	s0.4379997,0.2070007,0.4379997,0.2070007s-0.2700005-0.4019995-0.5490003-0.5579996
	C1.9240003,12.8050013,1.612,12.855999,1.612,12.855999z"/>
<path class="st6" d="M1.5819993,13.5489988c0,0,0.3480005-0.1500006,0.6359997-0.1080008
	c0.2880006,0.0360003,0.5460005,0.2640009,0.5460005,0.2640009s-0.3900003,0.1350002-0.6749997,0.0959988
	C1.8010006,13.7619991,1.5819993,13.5489988,1.5819993,13.5489988z"/>
<path class="st6" d="M3.0549998,11.9260006c0,0-0.3090005,0.3239994-0.3330002,0.6120014
	C2.6950002,12.8200016,2.974,13.0840025,2.974,13.0840025s-0.0150003-0.1800013,0.0360003-0.3029995
	s0.1500006-0.2490005,0.1500006-0.2490005s0.0419998-0.1469994,0.0269995-0.2609997
	C3.1599994,12.1120014,3.0549998,11.9260006,3.0549998,11.9260006z"/>
<path class="st6" d="M3.4990005,12.3070002c0,0-0.2910004,0.2939987-0.3690004,0.6119986
	c-0.0780001,0.3149986,0.0599999,0.651,0.0599999,0.651s0.2639995-0.2070007,0.3389997-0.5250006
	C3.6099997,12.7270012,3.4990005,12.3070002,3.4990005,12.3070002z"/>
<path class="st6" d="M4.2280006,14.2060013c0,0,0.131999,0.276,0.1650009,0.5040007
	c0.0360003,0.230999,0.0030012,0.3089991,0.0030012,0.3089991S4.2610025,15.151,4.201004,15.2320013
	c-0.0780001,0.1020012-0.0899992,0.2850008-0.0899992,0.2850008s-0.2730002-0.4050007-0.2310004-0.7020006
	C3.9160004,14.5150003,4.2280006,14.2060013,4.2280006,14.2060013z"/>
<path class="st6" d="M4.8039989,14.842001c0,0-0.3480005,0.230999-0.4890003,0.4680004
	C4.177,15.5470028,4.2489977,15.7900009,4.2489977,15.7900009s0.2519989-0.0240011,0.3900003-0.2580013
	C4.7769995,15.2919998,4.8039989,14.842001,4.8039989,14.842001z"/>
<path class="st6" d="M2.5029998,15.8170004c0,0,0.5040007-0.0150003,0.8129997,0.0600014
	c0.3090005,0.0749989,0.4199996,0.243001,0.4199996,0.243001s-0.3480005,0.1619987-0.6569996,0.0870018
	C2.7730002,16.132,2.5029998,15.8170004,2.5029998,15.8170004z"/>
<path class="st6" d="M2.4190001,15.2199993c0,0,0.2280006,0.3540001,0.5219994,0.4799995
	c0.4050007,0.177,0.8759995,0.0899992,0.8759995,0.0899992s-0.2550001-0.3149986-0.6060004-0.4499989
	C2.8569999,15.2020006,2.4190001,15.2199993,2.4190001,15.2199993z"/>
<path d="M4.0389986,16.1619987l0.0150003,0.1800022c0.3029995,0.0030003,0.3449993-0.0269985,0.4229994,0.0689983
	c0.0510006,0.0629997,0.177,0.1170006,0.2969999,0.0629997c0.1230011-0.053997,0.1800013-0.2039986,0.1230011-0.3239975
	C4.8399992,16.0270004,4.7259989,16,4.6149998,16.0209999c-0.0689993,0.0149994-0.1109991,0.0660019-0.1710005,0.098999
	C4.3360014,16.1710014,4.0389986,16.1619987,4.0389986,16.1619987z"/>
<path d="M4.0119991,16.0209999l0.1469994,0.1080017C4,16.3840008,3.9520006,16.407999,3.9910007,16.5219994
	C4.0179987,16.5999985,4,16.7320023,3.8889995,16.8069992C3.7779989,16.882,3.6219988,16.848999,3.5469999,16.7380009
	c-0.0750003-0.1109982-0.0360003-0.2250004,0.039-0.3060017c0.0449996-0.0479984,0.1140003-0.0600014,0.1740003-0.0929985
	C3.862,16.2819996,4.0119991,16.0209999,4.0119991,16.0209999z"/>
<path d="M2.9890003,13.8669987l0.0150003,0.1800013C3.3070002,14.0500011,3.349,14.0200005,3.427,14.1159992
	C3.4780006,14.1789989,3.6010003,14.2329979,3.724,14.1789989c0.1229997-0.0570002,0.1799998-0.2039995,0.1199999-0.3270006
	c-0.0540004-0.1230011-0.1710005-0.1500006-0.2819996-0.1259995c-0.0689993,0.0150003-0.1110005,0.0660009-0.1710005,0.099
	C3.2860003,13.8759995,2.9890003,13.8669987,2.9890003,13.8669987z"/>
<path d="M3.052,13.9300013l0.1290007,0.1290007c-0.1950002,0.230999-0.2490005,0.2459993-0.2280006,0.3659992
	c0.0150003,0.0810013-0.0269995,0.2099991-0.1469994,0.2640009c-0.1229997,0.0570002-0.2700005,0-0.3270006-0.1199999
	c-0.0570002-0.1230011-0.0029998-0.2280006,0.0869994-0.2969999c0.0540004-0.0419998,0.1229997-0.0389986,0.1829996-0.0629997
	C2.8629994,14.1610003,3.052,13.9300013,3.052,13.9300013z"/>
<path d="M1.9719996,11.7189999L1.987,11.8990011c0.3029995,0.0030012,0.3449993-0.0269995,0.4229994,0.0689993
	c0.0510006,0.0629997,0.177,0.1169987,0.2969999,0.0629997C2.829999,11.974,2.8869991,11.8270006,2.8269992,11.7039995
	c-0.0540004-0.1230011-0.1710005-0.1500006-0.2819996-0.1290007c-0.0689993,0.0150003-0.1110005,0.0689993-0.1710005,0.099
	C2.2689996,11.7280006,1.9719996,11.7189999,1.9719996,11.7189999z"/>
<path d="M2.0560007,11.6829996l0.1290007,0.1290007c-0.1950002,0.230999-0.2490005,0.2459993-0.2280006,0.3659992
	c0.0150003,0.0810013-0.0269995,0.2099991-0.1469994,0.2640009c-0.1229997,0.0570002-0.2700005,0-0.3270006-0.1199999
	c-0.0570002-0.1230011-0.0029998-0.2280006,0.0869994-0.2969999c0.0540004-0.0419998,0.1229997-0.0389986,0.1829996-0.0629997
	C1.8699999,11.9110003,2.0560007,11.6829996,2.0560007,11.6829996z"/>
<path d="M0.8920007,9.4510012L0.907001,9.6310024c0.3029995,0.0029984,0.3449993-0.0270023,0.4229994,0.0689964
	c0.0539989,0.0629997,0.1740003,0.1199999,0.2969999,0.0629997S1.8070002,9.5589991,1.7470002,9.435998
	C1.6900001,9.3129997,1.5789995,9.2860003,1.4680004,9.3100014C1.3989997,9.3189993,1.3569999,9.3759995,1.2999997,9.4029989
	C1.1890006,9.4599991,0.8920007,9.4510012,0.8920007,9.4510012z"/>
<path d="M0.9760003,9.4119997L1.105001,9.5410004c-0.1950016,0.230999-0.2460008,0.2459993-0.2250009,0.3659992
	c0.0150003,0.0810013-0.0239997,0.2099991-0.1469994,0.2640009c-0.1229997,0.0570002-0.2700005,0-0.3270006-0.1199999
	c-0.0540004-0.1230011,0-0.2280006,0.0869994-0.2969999c0.0540004-0.0419998,0.1229997-0.0419998,0.1829996-0.0660009
	C0.7899995,9.6429987,0.9760003,9.4119997,0.9760003,9.4119997z"/>
<path class="st3" d="M2.7969999,13.329999C2.6890006,13.375,2.5299993,12.9039984,2.4099994,12.6459999
	c-0.1199999-0.2640009-0.3660007-0.6750011-0.2969999-0.704999c0.0750003-0.0360003,0.177,0.1800013,0.2999997,0.4499989
	C2.5419998,12.6610003,2.9019995,13.2850008,2.7969999,13.329999z"/>
<path class="st3" d="M1.6870003,10.849c-0.1079993,0.045001-0.2280006-0.2609997-0.3419995-0.5219994
	C1.2250009,10.0629997,1.105001,9.8740005,1.1740003,9.8439999c0.0780001-0.0360003,0.1890006,0.1949987,0.2880006,0.4139986
	C1.5579996,10.4680004,1.789,10.8070002,1.6870003,10.849z"/>
<path class="st3" d="M4.2580013,16.4709988c-0.0839996,0.0240002-0.4559999-0.7530012-0.7559996-1.4069996
	c-0.2999997-0.6569996-0.5219994-1.1879997-0.4530001-1.2180004c0.0780001-0.0360003,0.3209996,0.5849991,0.6179996,1.2419987
	C3.9669995,15.7390003,4.3210011,16.4529991,4.2580013,16.4709988z"/>
<polygon class="st7" points="4.9119997,9.0429993 4.9239988,13.0360003 5.2180004,13.5100002 7.0810013,14.5360003 
	9.4599991,15.6280012 9.7659998,15.9520006 11.8239994,14.829999 14.2330008,13.6899986 14.6920004,12.9880009 
	14.6920004,9.0579996 "/>
<path class="st5" d="M4.795001,4.2340002l0.1230011,0.3599997L4.8880014,9.1779995l0.1739988,0.1920004l1.4100008,0.1679993
	l1.5269995-0.2249994c0,0,0.8879986,0.1379986,1.4969988,0.230999c0,0.0030012,0.0179987,0.0930004,0.0179987,0.0930004
	s0.2220011-0.0360003,0.2910004-0.045001c0.0689993,0.0119991,0.2879992,0.045001,0.2879992,0.045001
	s0.0179987-0.0899992,0.0179987-0.0930004C10.7229977,9.448,11.607995,9.3129997,11.607995,9.3129997l1.5269995,0.2249994
	l1.4100008-0.1679993l0.1710005-0.1889992l-0.0300007-4.5839996l0.1230011-0.3599997l-1.6889963,0.0119991
	c0,0-1.9320002,0.0209999-3.3210011,0.0360003C8.4219999,4.2700005,6.4870014,4.2490005,6.4870014,4.2490005L4.795001,4.2340002z"/>
<polygon class="st3" points="5.2840014,9.3459988 6.0460005,9.0460005 6.579999,8.631999 6.9460011,9.0250006 7.6839991,9.3220005 
	7.0839996,9.670001 6.5560007,10.1290007 6.0939999,9.7840014 "/>
<polygon class="st3" points="13.032999,8.6560001 12.6879997,9.0250006 11.9499989,9.3220005 12.6400003,9.7600002 
	13.0780001,10.1529989 13.5639992,9.7600002 14.3470011,9.3699999 13.5400009,9.0460005 "/>
<polygon class="st3" points="9.8050013,4.8730011 9.5739994,5.5660009 8.9050007,5.2419987 9.204999,5.9110003 8.5600014,6.1629992 
	9.204999,6.394001 8.9289989,7.0660009 9.5500011,6.7390003 9.8050013,7.4350014 10.0570002,6.7390003 10.6810007,7.0179987 
	10.4019995,6.394001 11.0469999,6.1629992 10.4260006,5.8869991 10.7020006,5.2180004 10.0570002,5.5419998 "/>
<polygon class="st3" points="11.5810013,4.7590008 11.7879992,5.4969988 12.1120014,6.4389992 12.1569996,7.342001 
	11.7879992,7.9870014 11.1190004,8.2629986 10.75,8.3800001 10.3120003,8.1490011 9.8260012,8.4489994 9.2979994,8.125 
	8.8599997,8.4250011 8.5839996,8.2390003 8.0980005,8.170001 7.5460005,7.5939999 7.4320002,6.5560007 8.0980005,4.7110014 
	7.2700005,5.3800001 6.5560007,6.349 6.5560007,7.618001 7.0629997,8.4699993 7.9840002,9.0699987 8.2359991,9.1390009 
	7.8010006,9.9460011 8.5600014,10.177 8.9530001,10.5670004 9.1600008,11.3499994 9.1120014,13.0360003 8.8840008,13.4260006 
	8.3769989,13.7740011 8.3530006,14.0949993 8.9050007,14.4399986 9.3879986,14.8330002 10.1049995,14.8570013 
	10.7259989,14.4189987 11.2600002,14.1190004 11.1190004,13.6569996 10.5639992,13.2189999 10.4499989,11.8840008 
	10.6120014,10.5429993 11.4189987,10.0360003 11.8360014,9.8979988 11.3950005,9.0699987 12.0639992,8.8389997 12.802,8.1939993 
	13.1469994,6.901 12.9399986,6.118001 12.4329996,5.4730005 "/>
<rect x="8.2212658" y="10.6144285" transform="matrix(0.7071068 -0.7071068 0.7071068 0.7071068 -5.1979141 9.1389771)" class="st3" width="0.4229953" height="0.4589952"/>
<polygon class="st3" points="11.1999989,10.4980011 10.8759995,10.8310013 11.1639986,11.1429987 11.5119991,10.8430004 "/>
<polygon class="st3" points="11.4310007,11.3499994 10.8520012,11.4880009 10.7020006,11.8239994 10.6929998,12.7480011 
	10.9360008,13.2669992 11.2600002,13.4050007 11.2120008,12.1960011 "/>
<polygon class="st3" points="8.1910009,11.3620014 8.3979988,12.3909998 8.3979988,13.3809996 8.6860008,13.1739988 
	8.8840008,12.724 8.9169998,11.9410009 8.7669992,11.467001 "/>
<polygon class="st3" points="13.4830008,12.1839991 12.8139992,11.8570013 12.1689987,11.9949999 11.8360014,12.3909998 
	11.8000011,13.0240011 12.2709999,13.5760012 12.3879986,13.6120014 12.3759995,13.0119991 12.8830013,12.3189993 "/>
<polygon class="st3" points="7.1199999,11.9620008 7.0510006,11.6860008 6.6939993,11.4759989 6.394001,11.5930004 
	6.2409992,11.9050007 6.3249989,12.1839991 6.0129986,12.1479988 5.7580013,12.3909998 5.7249994,12.7120008 5.8959999,12.9189987 
	6.1419992,13 6.2800007,12.9880009 6.1629992,13.276 6.2559996,13.5639992 6.5439987,13.7259989 6.868001,13.6450005 
	7.0389986,13.3239994 7.3149986,13.506999 7.651,13.4379997 7.8699999,13.1049995 7.7199993,12.7929993 7.5579996,12.6669998 
	7.7889986,12.5410004 7.8790007,12.1569996 7.5699987,11.8000011 7.2700005,11.8449993 "/>
<path d="M10.4589996,13.8280001c-0.0899992,0-0.1920004,0.0539989-0.1920004,0.1739988s0.1020012,0.1710005,0.1920004,0.1710005
	c0.3360014,0,0.552-0.0689993,0.552-0.1710005C11.0109997,13.9000006,10.795001,13.8280001,10.4589996,13.8280001z
	 M9.1569996,13.8280001c-0.3360014,0-0.552,0.0720005-0.552,0.1739988c0,0.1049995,0.2130003,0.1710005,0.552,0.1710005
	c0.0899992,0,0.1920004-0.0510006,0.1920004-0.1710005S9.2440004,13.8280001,9.1569996,13.8280001z M6.4090014,12.9339991
	c0.099,0.144001,0.2640009,0.243001,0.4560013,0.243001c0.0389986,0,0.0780001-0.0059996,0.1140003-0.0119991
	c0.0090008,0.0360003,0.0119991,0.0689993,0.0119991,0.1049995c-0.0030012,0.0360003-0.0090008,0.0780001-0.0240011,0.1140003
	c-0.0780001,0.1920004-0.2969999,0.2850008-0.4890003,0.2070007s-0.2879992-0.2969999-0.2099991-0.4890003
	c0.0150003-0.0360003,0.0360003-0.0720005,0.0629997-0.1049995C6.3520012,12.9759989,6.3790007,12.9520006,6.4090014,12.9339991z
	 M7.407999,12.6820002c0.0360003,0.0030012,0.0720005,0.0119991,0.1049995,0.0269995
	c0.0360003,0.0150003,0.0720005,0.032999,0.1049995,0.0570002c0.1590014,0.131999,0.1800013,0.3690004,0.0419998,0.5279989
	C7.5279989,13.4530001,7.2909975,13.474,7.131999,13.3389997c-0.0360003-0.0300007-0.0570002-0.0600014-0.0780001-0.099
	c-0.0179987-0.0300007-0.0300007-0.0570002-0.0360003-0.0899992C7.2280006,13.0930004,7.3840008,12.9100008,7.407999,12.6820002z
	 M6.8649998,12.2650003c0.2010012,0,0.3630009,0.1650009,0.3630009,0.3659992s-0.1619997,0.3630009-0.3630009,0.3630009
	s-0.3630009-0.1619997-0.3630009-0.3630009C6.5019989,12.427,6.6610003,12.2650003,6.8649998,12.2650003z M6.2259989,12.2080002
	c0.0419998,0.0030012,0.0839996,0.0150003,0.1199999,0.032999c0.032999,0.0150003,0.0570002,0.032999,0.0839996,0.0479994
	c-0.0720005,0.0930004-0.1140003,0.2099991-0.1140003,0.3389997c0,0.1020012,0.0269995,0.1920004,0.0749989,0.2729988
	c-0.032999,0.0209999-0.0660009,0.0360003-0.1049995,0.045001c-0.0360003,0.0090008-0.0749989,0.0150003-0.1109991,0.0119991
	c-0.2070007-0.0179987-0.3659992-0.1949987-0.3509989-0.4019995C5.8389997,12.3520012,6.019001,12.1960011,6.2259989,12.2080002z
	 M12.6939993,11.9830008c0.1920004,0,0.3809996,0.0600014,0.5400009,0.1590014
	c-0.6030006,0.1140003-1.0379992,0.6479988-0.9720011,1.269001c-0.1920004-0.1590014-0.329999-0.3719988-0.3570013-0.6120014
	C11.8509989,12.3399992,12.1870003,11.9830008,12.6939993,11.9830008z M7.4379997,11.8990011
	c0.1199999,0.0030012,0.2370014,0.0660009,0.3060007,0.177c0.1080008,0.177,0.0570002,0.407999-0.1169987,0.519001
	c-0.0360003,0.0240011-0.0749989,0.0360003-0.1140003,0.045001c-0.032999,0.0090008-0.0660009,0.0059996-0.1020012,0.0059996
	c0-0.0059996,0-0.0090008,0-0.0150003c0-0.2249994-0.1350002-0.4169998-0.3239994-0.5009995
	c0.0150003-0.032999,0.0300007-0.0629997,0.0510006-0.0930004c0.0269995-0.0300007,0.0539989-0.0570002,0.0899992-0.0780001
	C7.2910004,11.9139986,7.3659992,11.8959999,7.4379997,11.8990011z M12.6939993,11.7640009
	c-0.6149998,0-1.0679998,0.474-1.0080013,1.0589991c0.0510006,0.4919987,0.4530001,0.9029989,0.948,1.0229988
	c-0.0839996-0.1379986-0.1409998-0.2910004-0.1590014-0.4560013c-0.0629997-0.5849991,0.3900003-1.0560007,1.0050001-1.0560007
	c0.099,0,0.1920004,0.0119991,0.2850008,0.0360003C13.5489988,12.0129986,13.1350002,11.7640009,12.6939993,11.7640009z
	 M6.6850014,11.6109991c0.177-0.0090008,0.3330002,0.1080008,0.3809996,0.2819996
	c0.0119991,0.0419998,0.0119991,0.0839996,0.0090008,0.1230011C7.0720005,12.052,7.0630026,12.0789995,7.0510006,12.1119986
	c-0.0570002-0.0209999-0.1199999-0.032999-0.1860008-0.032999c-0.1619997,0-0.3089991,0.0720005-0.407999,0.1829996
	c-0.0269995-0.0240011-0.0479994-0.0479994-0.0689993-0.0780001C6.3640003,12.151,6.3490028,12.1149998,6.3400021,12.0759983
	c-0.0479994-0.2010012,0.0720005-0.4019995,0.2729988-0.4560013C6.6369991,11.6140003,6.6610003,11.6109991,6.6850014,11.6109991z
	 M11.2989988,11.4730005c-0.0600014,0.3389997-0.177,0.6090002-0.177,1.7280006c0,0-0.3480005-0.1800013-0.3480005-0.6450005
	c0-0.4620008-0.0269995-0.7919998,0.1230011-0.9990005L11.2989988,11.4730005z M8.3139992,11.4730005l0.4019995,0.0839996
	c0.1500006,0.2039995,0.1230011,0.5400009,0.1230011,0.9990005c0,0.4680004-0.3480005,0.6450005-0.3480005,0.6450005
	C8.4909992,12.0789995,8.3769989,11.8089991,8.3139992,11.4730005z M6.6550007,11.4069996
	c-0.032999,0.0030012-0.0629997,0.0059996-0.099,0.0150003c-0.2580013,0.0660009-0.4139986,0.3270006-0.3480005,0.5880003
	C6.217001,12.0489988,6.2349997,12.0849991,6.25,12.118001c-0.0360003-0.0119991-0.0780001-0.0209999-0.1169987-0.0240011
	c-0.0179987,0-0.0360003,0-0.0479994,0c-0.2459993,0.0090008-0.4499989,0.2010012-0.4680004,0.4499989
	c-0.0179987,0.2640009,0.1829996,0.4949999,0.4499989,0.5129986c0.0389986,0.0030012,0.0780001,0,0.1140003-0.0059996
	c-0.0240011,0.032999-0.0419998,0.0629997-0.0570002,0.1049995c-0.1020012,0.2490005,0.0209999,0.5310001,0.2669992,0.6300001
	s0.5310001-0.0240011,0.6269989-0.2700005c0.0150003-0.0360003,0.0240011-0.0749989,0.0300007-0.1109991
	c0.0240011,0.032999,0.0479994,0.0600014,0.0810013,0.0870008c0.2039995,0.1710005,0.5100002,0.144001,0.6810007-0.0600014
	c0.1710005-0.2039995,0.144001-0.506999-0.0600014-0.6779995c-0.032999-0.0269995-0.0660009-0.045001-0.1020012-0.0629997
	c0.0360003-0.0119991,0.0720005-0.0300007,0.1080008-0.0479994C7.980999,12.5019989,8.0499983,12.2019978,7.9089985,11.974
	c-0.099-0.1560001-0.2669992-0.2340002-0.4379997-0.2249994c-0.0780001,0.0059996-0.1560001,0.0300007-0.2280006,0.0749989
	c-0.0360003,0.0240011-0.0660009,0.045001-0.0930004,0.0749989c0-0.0389986-0.0030012-0.0780001-0.0150003-0.1169987
	C7.0899992,11.5479994,6.8800001,11.3979988,6.6550007,11.4069996z M11.5600014,11.2449999l-0.75,0.1469994
	c-0.276,0.1710005-0.2159986,1.1789989-0.1619997,1.4520006c0.1140003,0.5820007,0.6870003,0.7530012,0.6870003,0.7530012
	s-0.0479994-0.2700005-0.0479994-0.7860003C11.2869997,12.0639992,11.4790001,11.4460011,11.5600014,11.2449999z
	 M8.0529995,11.2449999c0.0810013,0.198,0.2729988,0.8220005,0.2729988,1.5629997
	c0,0.5159998-0.0479994,0.7860003-0.0479994,0.7860003s0.573-0.1710005,0.6870003-0.7530012
	c0.0539989-0.2729988,0.1109991-1.2779989-0.1650009-1.4520006L8.0529995,11.2449999z M11.1879997,10.6240005l0.2159986,0.2130003
	l-0.2159986,0.2159986l-0.2130003-0.2159986L11.1879997,10.6240005z M8.4279995,10.6240005l0.2130003,0.2130003
	l-0.2130003,0.2159986l-0.2130003-0.2159986L8.4279995,10.6240005z M11.1879997,10.4289989l-0.4050007,0.4050007l0.4050007,0.407999
	l0.4050007-0.407999L11.1879997,10.4289989z M8.4279995,10.4289989l-0.407999,0.4050007l0.4050007,0.407999l0.407999-0.407999
	L8.4279995,10.4289989z M13.0660009,8.8000011c0.3659992,0.3719988,0.9840002,0.5880003,0.9840002,0.5880003
	S13.4020023,9.7120008,13.0780001,10v0.0360003c-0.0059996-0.0090008-0.0119991-0.0150003-0.0179987-0.0209999
	c-0.0030012,0.0030012-0.0090008,0.0059996-0.0119991,0.0090008V10c-0.3089991-0.3540001-0.8790007-0.651-0.8790007-0.651
	S12.7209988,9.1960011,13.0660009,8.8000011z M6.5469999,8.8000011c0.3449993,0.3959999,0.894001,0.5460005,0.894001,0.5460005
	S6.868001,9.6459999,6.5649986,10v0.0209999c-0.0030012-0.0030012-0.0090008-0.0059996-0.0119991-0.0090008
	c-0.0059996,0.0059996-0.0119991,0.0150003-0.0179987,0.0209999V9.9969988
	C6.2110014,9.7060013,5.5629997,9.3850002,5.5629997,9.3850002S6.1810007,9.1719999,6.5469999,8.8000011z M9.8110008,5.1820002
	L10,5.7159986l0.5100002-0.2459993l-0.243001,0.5129986l0.5310001,0.1889992l-0.5310001,0.1889992l0.243001,0.5100002
	L9.9969988,6.6309996L9.8079996,7.1590014L9.6159992,6.6309996L9.105999,6.8740005L9.349,6.3640003L8.8179998,6.1719999
	L9.349,5.9830008L9.105999,5.4699993l0.5100002,0.2459993L9.8110008,5.1820002z M7.8759995,5.0050001
	c0.0689993,0.1500006-0.5670004,1.0770006-0.5670004,1.8360014c0,0.9300013,0.4949999,1.4790001,1.1610003,1.4790001
	c0.1259995,0,0.2640009,0.1710005,0.3840008,0.1710005c0.1920004,0,0.3239994-0.2159986,0.4410009-0.2159986
	c0.1500006,0,0.2519989,0.2370014,0.5130014,0.2370014c0.2609997,0,0.3659992-0.2370014,0.5159998-0.2370014
	c0.1169987,0,0.2490005,0.2159986,0.4410009,0.2159986c0.1169987,0,0.2550001-0.1710005,0.3840008-0.1710005
	c0.6629992,0,1.157999-0.5489988,1.157999-1.4790001c0-0.7559996-0.6359997-1.6860008-0.5670004-1.8359985
	c0,0,1.2449999,0.894001,1.2449999,1.9410009c0,1.6920004-1.7160015,2.1119986-1.7160015,2.1119986l0.3869991,0.8699999
	c0,0-0.5340014,0.0810013-0.8580008,0.342001c-0.4320002,0.3480005-0.4379997,1.2929993-0.4379997,1.9320002
	c0,0.7530012,0.0300007,1.0710011,0.3000011,1.2750006c0.2850008,0.2159986,0.5009995,0.2609997,0.5009995,0.4799995
	c0,0.1889992-0.2249994,0.2700005-0.5130014,0.3959999c-0.3270006,0.144001-0.3630009,0.3959999-0.8370008,0.3959999
	s-0.506999-0.2519989-0.8339996-0.3959999c-0.2969971-0.123004-0.5219994-0.201004-0.5219994-0.3930044
	c0-0.2189999,0.2159986-0.2640009,0.5009995-0.4799995C9.2259989,13.276,9.2559996,12.9580002,9.2559996,12.204999
	c0-0.6390009-0.0059996-1.5810013-0.4379997-1.9320002c-0.3239994-0.2609997-0.8549995-0.342001-0.8549995-0.342001
	L8.3499994,9.060998c0,0-1.7159986-0.4169998-1.7159986-2.1119986C6.6340008,5.8959999,7.8759995,5.0050001,7.8759995,5.0050001z
	 M9.8079996,4.618001L9.5140009,5.4520006L8.7099991,5.0710011l0.3809996,0.8010006l-0.836998,0.2969971l0.8339996,0.2969999
	L8.7099991,7.2669992l0.8010006-0.3809996l0.2939987,0.8339996l0.2969999-0.8339996l0.7980022,0.3809996L10.519001,6.4689999
	l0.8339996-0.2969999L10.519001,5.875l0.3809996-0.8010006L10.099,5.454999L9.8079996,4.618001z M8.0019989,9.3160009
	c0,0-1.0439987-0.2550001-1.4370003-0.7709999C5.8780012,9.1569996,5.0620003,9.3699999,5.0620003,9.3699999
	s0.8520012,0.3869991,1.5,0.8759995C6.8620014,9.8199987,8.0019989,9.3160009,8.0019989,9.3160009z M11.6169987,9.3160009
	c0,0,1.1369991,0.5009995,1.4370003,0.9300013c0.6479988-0.4890003,1.5-0.8759995,1.5-0.8759995s-0.8189993-0.2130003-1.5-0.8280001
	C12.6610003,9.0579996,11.6169987,9.3160009,11.6169987,9.3160009z M8.125,4.4919987
	C8.0770006,4.8310013,6.3759995,5.532999,6.3759995,6.9460011c0,1.8120003,1.6949987,2.2380009,1.6949987,2.2380009
	l-0.0689993,0.131999l-0.4110003,0.7530012c0,0,0.6989994,0.0360003,1.0710011,0.3509989
	c0.4499989,0.3840008,0.4019995,1.1910009,0.4019995,1.7819996c0,0.4649992-0.0570002,0.9539995-0.2969999,1.157999
	C8.4459982,13.6300001,8.2299995,13.651,8.2299995,13.9719982c0,0.2640009,0.2039995,0.3210011,0.5369997,0.4949999
	c0.4260006,0.2249994,0.4050007,0.5279989,1.0410004,0.5279989c0.6330013,0,0.6149998-0.3029995,1.0410004-0.5279989
	c0.329999-0.177,0.5369997-0.2280006,0.5369997-0.4949999c0-0.3179998-0.2159986-0.3360014-0.5369997-0.6120014
	C10.6090002,13.1589956,10.552,12.6699982,10.552,12.2019978c0-0.5909986-0.0419998-1.401,0.4050007-1.7819996
	c0.3719988-0.3179998,1.0710011-0.3509989,1.0710011-0.3509989l-0.4110003-0.7530012L11.545001,9.1869974
	c0,0,1.6949987-0.4260006,1.6949987-2.2380009c0-1.4129992-1.698-2.118001-1.7490005-2.4539995
	c-0.1650009,0.5849991,0.5670004,1.3919992,0.5670004,2.3459988c0,1.2359991-0.9119997,1.2960005-0.9119997,1.2960005
	c-0.2130003,0-0.3000011,0.1529989-0.3840008,0.1529989c-0.1800013-0.0209999-0.2640009-0.2490005-0.4410009-0.2490005
	c-0.1679993,0-0.2939987,0.2550001-0.5159998,0.2550001S9.4599991,8.0409946,9.2919998,8.0409946
	c-0.1800013,0-0.2609997,0.2280006-0.4410009,0.2490005c-0.0839996,0-0.1710005-0.1529989-0.3840008-0.1529989
	c0,0-0.9119997-0.0600014-0.9119997-1.2960005C7.5550013,5.8840008,8.2900009,5.0770006,8.125,4.4919987z"/>
<path class="st3" d="M4.9300013,4.3630009h0.1800013h4.6950016H14.5h0.1800013c0,0-0.1290007,0.1590014-0.1290007,0.4169998
	v7.0439987v1.0649986c0,0.1800013-0.1829996,0.5939999-1.2449999,1.1190004
	c-1.7519989,0.8730011-3.0959988,1.2810001-3.4980011,1.776c-0.4019995-0.4949999-1.7490005-0.9029989-3.5009995-1.776
	c-1.0589991-0.5279989-1.2449999-0.9420004-1.2449999-1.1190004v-1.0649986V4.7800007
	C5.0620003,4.5219994,4.9300013,4.3630009,4.9300013,4.3630009z M4.3570013,4.1049995c0,0,0.4470005,0.3330002,0.4470005,0.6779995
	v7.0439987v1.0649986c0,0.2130003,0.0660009,0.3540001,0.1710005,0.4890003
	c0.1049995,0.1469994,0.3270006,0.3480005,0.5579996,0.4980011c0.7139997,0.4649992,1.9110003,0.9570007,2.8170004,1.368001
	c0.7559996,0.342001,1.0589991,0.4799995,1.454999,0.9690008c0.3929987-0.4860001,0.7020006-0.6240015,1.4580002-0.9690008
	c0.9029989-0.4110003,2.1030006-0.9000006,2.8170004-1.368001c0.2340002-0.1500006,0.4560013-0.3540001,0.5610008-0.4980011
	c0.1049995-0.1350002,0.1679993-0.276,0.1679993-0.4890003v-1.0649986V4.7800007
	c0-0.3389997,0.4470005-0.6779995,0.4470005-0.6779995h-0.474H14.5H9.8050013H5.1099997h-0.276
	C4.8339996,4.1049995,4.3570013,4.1049995,4.3570013,4.1049995z"/>
<path class="st5" d="M7.3690004-1.0159998c0,0,0.1230011-0.237,0.4379997-0.237
	c0.1290007,0,0.5639992-0.0089993,0.5639992-0.0089993c0.0570002,0.1500006,0.3210011,0.3989997,0.3210011,0.6630006
	c0,0-0.2669992-0.4799995-1.0140009-0.4799995C7.4919987-1.0789995,7.3690004-1.0159998,7.3690004-1.0159998z"/>
<path d="M8.3289995-0.9500003c0,0-0.1829996-0.0570002-0.1829996-0.1199999c0-0.0780001,0.0899992-0.0780001,0.1409998-0.0180001
	C8.323-1.0460005,8.3289995-0.9500003,8.3289995-0.9500003z"/>
<path class="st5" d="M8.5810013-0.5059996c0,0-0.1590014,0.1680007-0.1920004,0.2550001
	c-0.1590014-0.0599999-0.4350014-0.342001-0.4350014-0.342001S8.1879997-0.4580002,8.5810013-0.5059996z"/>
<path d="M14.7879992,18.2740021c-0.0749989,0.0089989-0.1199999,0.0509987-0.1350002,0.0810013
	c-0.0240011,0.0450001-0.0269995,0.1079998,0,0.1619987c0,0-0.1829996-0.0569992-0.2490005-0.0270004
	c-0.0600014,0.0300026,0,0.8969994,0,0.8969994s0.7349997-0.4649982,0.7230005-0.527998
	c-0.0119991-0.0689983-0.1650009-0.1860008-0.1650009-0.1860008c0.0600014-0.0090008,0.1080008-0.0450001,0.1290007-0.0930004
	c0.0240011-0.0480003,0.0269995-0.1829987-0.1379986-0.2669983C14.8900003,18.2800007,14.8360014,18.2709999,14.7879992,18.2740021z
	 M20.2750015,7.8640003l-0.5850029,0.4260006l0.0660019,0.1379986c0,0-0.1080017,0.0360003-0.156002,0.131999
	C19.552,8.6559973,19.6329994,8.7879992,19.6329994,8.7879992s-0.552002-0.0479994-0.6420002,0.0090008
	c-0.078001,0.0510006,0.0360012,0.4350014-0.0179996,0.7590008c-0.0719986,0.4530001-0.2519989,0.4139986-0.2549992,0.5009995
	C18.7120018,10.1409998,18.7869987,10.276,18.7869987,10.276s-0.1049995,0.032999-0.1259995,0.0780001
	c-0.0359993,0.0689993,0.0270004,0.198-0.0179977,0.2819996c-0.243,0.4709988-0.5970001,1.1729994-0.8310013,1.6350002
	c-0.032999,0.0629997-0.1199989,0.0899992-0.1650009,0.177c-0.0389977,0.0810013-0.0090008,0.1949987-0.0090008,0.1949987
	s-0.1560001,0.0090008-0.2099991,0.1140003c-0.0570011,0.1109991-0.0240002,0.2640009-0.0240002,0.2640009
	S17.3049984,13.032999,17.257,13.1290007c-0.0510025,0.1020012,0.0359993,0.1560001,0.0149994,0.198
	c-0.3180008,0.6209993-0.6899986,1.3530006-0.9150009,1.8000011c-0.0839996,0.1650009-0.3780012,0.1949987-0.5460005,0.5310001
	c-0.1650009,0.3239994,0.0720005,0.5609999,0.0720005,0.5609999s-0.2459993,0.0240021-0.3120003,0.1500015
	c-0.0660009,0.1290016-0.0150003,0.3269997,0.1650009,0.4169998c0.177,0.0900002,0.3719988,0.0179977,0.4380007-0.1110001
	c0.066-0.1259995-0.0660019-0.3389988-0.0660019-0.3389988s0.329998,0.0479984,0.4949989-0.2759991
	c0.1710014-0.3330011,0.0270004-0.5880013,0.1080017-0.7530022c0.2280006-0.4470005,0.6030006-1.1789989,0.9150009-1.8000011
	c0.0240021-0.045001,0.1169987-0.0059996,0.1710014-0.1080008c0.0479984-0.0959988,0-0.1800013,0-0.1800013
	s0.144001-0.0629997,0.2010002-0.177C18.052,12.9339991,17.9680004,12.802,17.9680004,12.802
	s0.1140003-0.0389986,0.1560001-0.1199999c0.0419998-0.0870008,0.0119991-0.1739988,0.0419998-0.2370014
	c0.2370014-0.4649992,0.5939999-1.1610003,0.8310013-1.6350002c0.0419998-0.0839996,0.1800003-0.1109991,0.2189999-0.1829996
	c0.0240002-0.0419998-0.0150013-0.1469994-0.0150013-0.1469994s0.1529999-0.0150003,0.2190018-0.0720005
	c0.066-0.0570002-0.0690002-0.1800013,0.2549992-0.5040007c0.230999-0.2340002,0.6089993-0.3690004,0.6030006-0.4649992
	c-0.0059986-0.1049995-0.3719997-0.5250006-0.3719997-0.5250006s0.1529999-0.0150003,0.2010021-0.1080008
	c0.0479984-0.0959988,0.0179996-0.2039995,0.0179996-0.2039995l0.152998-0.0269995V7.8640003H20.2750015z"/>
<path class="st3" d="M14.4909992,18.5979996v0.6180019l0.5040007-0.3630009c0,0-0.0689993-0.1199989-0.2189999-0.1949997
	C14.6259995,18.579998,14.4909992,18.5979996,14.4909992,18.5979996z M14.7879992,18.3580017
	c-0.0360003,0-0.0660009,0.0149994-0.0780001,0.0359993c-0.0240011,0.0480003,0.0269995,0.1230011,0.1109991,0.1679993
	c0.0870008,0.0419998,0.1800013,0.0389977,0.2010012-0.0090008c0.0240011-0.0479984-0.0269995-0.1230011-0.1109991-0.1679993
	C14.8690004,18.3669987,14.8270006,18.3580017,14.7879992,18.3580017z M15.8050013,16.3449993
	c-0.0720005,0.0030003-0.1350002,0.0360012-0.1650009,0.0959988c-0.0479994,0.0959988,0.0059996,0.2189999,0.1230011,0.2790012
	c0.1140003,0.0600014,0.2519979,0.032999,0.3000021-0.0629997c0.0479984-0.0930004-0.0090027-0.2189999-0.1260004-0.2790012
	C15.8950005,16.3540001,15.8499994,16.342001,15.8050013,16.3449993z M17.3499985,13.4470005
	C17.2869987,13.4560013,17.257,13.519001,17.257,13.519001s-0.6390018,1.2600002-0.8640022,1.698
	c-0.0719986,0.1409998-0.375,0.230999-0.4949989,0.4649992c-0.1169987,0.2340002-0.0360003,0.4560003,0.1199989,0.5340014
	c0.156002,0.0810013,0.387001,0.0209999,0.5040016-0.2129993c0.1169987-0.2340012,0.0119991-0.5340023,0.0839996-0.6750021
	c0.2249985-0.4439993,0.8640003-1.698,0.8640003-1.698s0.0629997-0.1109991-0.0479984-0.1710005
	C17.3950005,13.4439993,17.3709984,13.4439993,17.3499985,13.4470005z M17.4370003,13.1259995
	c-0.0419998,0.0030012-0.0749989,0.0240011-0.0930004,0.0510006c-0.032999,0.0629997,0.0240002,0.1529989,0.1200008,0.2010012
	c0.098999,0.0510006,0.2039986,0.0389986,0.2369995-0.0209999c0.0330009-0.0600014-0.0240002-0.1529989-0.1199989-0.2010012
	C17.5300007,13.131999,17.4790001,13.1199999,17.4370003,13.1259995z M17.6350002,12.7480011
	c-0.0720005-0.0030012-0.1319981,0.0209999-0.1590023,0.0720005C17.4370003,12.9010029,17.5,13.0150003,17.6169987,13.0750017
	s0.2490005,0.045001,0.2880001-0.0360003c0.0389977-0.0810013-0.0240021-0.1920004-0.1410007-0.2550001
	C17.7220001,12.7629986,17.677,12.7509995,17.6350002,12.7480011z M17.7819996,12.4449987
	c-0.0419998,0.0030012-0.0749989,0.0240011-0.0930004,0.0510006c-0.032999,0.0629997,0.0240021,0.1529989,0.1199989,0.2010012
	c0.0990009,0.0510006,0.2040005,0.0389986,0.2370033-0.0209999c0.0329971-0.0600014-0.0270004-0.1529989-0.1230011-0.2010012
	C17.8780022,12.4510012,17.8239994,12.4420004,17.7819996,12.4449987z M18.8740005,10.3719988
	c-0.0510006,0.0059996-0.0930004,0.0389986-0.1110001,0.0810013c-0.0329971,0.0629997-0.0149994,0.1469994-0.2669983,0.6450005
	c-0.1110001,0.2189999-0.1560001,0.3060007-0.276001,0.5400009c-0.1230011,0.2399998-0.2999992,0.5880003-0.2999992,0.5880003
	s-0.0600014,0.1080008,0.0509987,0.1679993c0.1110001,0.0570002,0.1620007-0.0570002,0.1620007-0.0570002
	s0.1800022-0.3449993,0.3000011-0.5880003c0.1199989-0.2370014,0.1650009-0.3239994,0.276001-0.5429993
	c0.2519989-0.4980011,0.329998-0.5310001,0.362999-0.5939999c0.0360012-0.0689993,0.0270004-0.1590014-0.0869999-0.2159986
	C18.9430008,10.375,18.9040012,10.3690004,18.8740005,10.3719988z M19.8249989,8.9949999
	c0,0,0.1140003,0.2910004,0.1169987,0.3360014c0.0030022,0.0510006-0.420002,0.3509989-0.5639992,0.6390009
	c-0.1230011,0.243001-0.177,0.3780012-0.177,0.3780012l0.1679993,0.0269995c0,0-0.0119991-0.1739988,0.0300007-0.2519989
	c0.0419998-0.0870008,0.0539989-0.1889992,0.2519989-0.3449993c0.2099991-0.1650009,0.4919987-0.3089991,0.4890003-0.3509989
	C20.1369991,9.3850002,19.8249989,8.9949999,19.8249989,8.9949999z M19.7229996,8.9530001
	c0,0-0.3209991,0.0600014-0.3659973,0.1049995c-0.0419998,0.0419998-0.0270004,0.474-0.1920013,0.8100014
	c-0.1409988,0.276-0.2099991,0.3780012-0.2099991,0.3780012l0.0870018,0.045001l0.0869999,0.0419998
	c0,0,0.0389996-0.1109991,0.1800022-0.3900003c0.1709995-0.3330002,0.5340004-0.5760012,0.5400009-0.6359997
	C19.8580017,9.2440004,19.7229996,8.9530001,19.7229996,8.9530001z M19.1889992,8.8840008
	c-0.0510006,0-0.0900002,0.0030012-0.098999,0.0090008c-0.0360012,0.0240011,0.0149994,0.3360014,0.0030003,0.6030006
	c-0.0090008,0.2519989-0.0899982,0.3210011-0.1350002,0.4050007c-0.0389977,0.0810013-0.1860008,0.1739988-0.1860008,0.1739988
	l0.1199989,0.1199999c0,0,0.078001-0.1230011,0.2010021-0.3659992c0.1469994-0.2850008,0.1410007-0.8070002,0.1830006-0.8310013
	C19.3120003,8.974,19.618,8.8959999,19.618,8.8959999S19.3449993,8.8809996,19.1889992,8.8840008z M19.8339996,8.4790001
	c-0.0629997,0.0030012-0.1169987,0.0360003-0.144001,0.0930004c-0.0419998,0.0870008,0,0.198,0.098999,0.2519989
	c0.0990009,0.0539989,0.2130013,0.0209999,0.2550011-0.0689993c0.045002-0.0870008,0-0.198-0.098999-0.2519989
	C19.9090004,8.4849997,19.8730011,8.4759989,19.8339996,8.4790001z M20.1669998,8.0770006l-0.342001,0.243001l0.1739979,0.0899992
	l0.1739998,0.0870008L20.1669998,8.0770006z"/>
<path class="st8" d="M10-18.5c15.5999985,0,28.5,12.9000006,28.5,28.5S25.5999985,38.5,10,38.5S-18.5,25.5999985-18.5,10
	S-5.5999994-18.5,10-18.5 M10-20C-6.5-20-20-6.5-20,10s13.5,30,30,30s30-13.5,30-30S26.5-20,10-20L10-20z"/>
</svg>
