<?xml version="1.0" encoding="utf-8"?>
<svg version="1.1" id="Layer_1" xmlns="http://www.w3.org/2000/svg" xmlns:xlink="http://www.w3.org/1999/xlink" x="0px" y="0px"
	 viewBox="-22 -22 64 64" style="enable-background:new 0 0 20 20;" xml:space="preserve">
<style type="text/css">
	.st0{fill:#D20000;}
	.st1{fill:#FFE600;}
	.st2{fill:#CCCCCC;}
</style>
<circle class="st0" cx="10" cy="10" r="28.8000011"/>
<path class="st1" d="M10-0.2869997c0.6899986,0,1.3649998,0.0750003,2.0159998,0.2039995l3.6329985-18.1560001
	C13.8220005-18.6019993,11.9320002-18.7999992,10-18.7999992s-3.8220005,0.198-5.6490011,0.5609989L7.9839973-0.0830002
	C8.6350002-0.2119994,9.3100014-0.2869997,10-0.2869997z"/>
<circle class="st1" cx="10" cy="10" r="8.2290001"/>
<path class="st1" d="M1.6480002,4.0360003L-13.415-6.7249994c-0.8730001,1.217999-1.6440001,2.5050001-2.3219995,3.8579993
	L0.8380003,5.4189987C1.0780001,4.9360008,1.336,4.4680004,1.6480002,4.0360003z"/>
<path class="st1" d="M-0.2869997,10c0-0.3480005,0.0689993-0.6810007,0.1049995-1.0200005l-18.473999-1.8449993
	C-18.7490005,8.0770006-18.7999992,9.0310001-18.7999992,10s0.0509987,1.9229994,0.1439991,2.8649998l18.4710007-1.8449993
	C-0.2180004,10.6810007-0.2869997,10.3480005-0.2869997,10z"/>
<path class="st1" d="M0.8350005,14.5810013l-16.5750008,8.2859974c0.6779995,1.3500004,1.4519997,2.6369991,2.3219995,3.8549995
	L1.6450005,15.9609985C1.336,15.5290012,1.0780001,15.0639992,0.8350005,14.5810013z"/>
<path class="st1" d="M12.0159998,20.0830002C11.3619986,20.2120018,10.6899986,20.2869987,10,20.2869987
	s-1.3649998-0.0749969-2.0159998-0.2039986L4.3510017,38.2389984C6.1779995,38.6020012,8.0679998,38.8000031,10,38.8000031
	s3.8220005-0.1980019,5.6490011-0.5610046L12.0159998,20.0830002z"/>
<path class="st1" d="M18.3520012,15.9639997l15.0629997,10.7609987c0.8730011-1.2179985,1.644001-2.5049992,2.3219986-3.8549995
	l-16.5749969-8.2859993C18.9220009,15.0639992,18.6639977,15.5290012,18.3520012,15.9639997z"/>
<path class="st1" d="M20.2869987,10c0,0.3480005-0.0689983,0.6810007-0.1049995,1.0200005l18.4710007,1.8449993
	C38.7490005,11.9229994,38.8000031,10.9689999,38.8000031,10s-0.0510025-1.9229994-0.1440048-2.8649998L20.1850014,8.9799995
	C20.2180004,9.3189993,20.2869987,9.6519995,20.2869987,10z"/>
<path class="st1" d="M19.1650009,5.4189987l16.5749969-8.2860003c-0.6779976-1.3499994-1.4519958-2.6370006-2.3219986-3.8549995
	L18.3520012,4.0389986C18.6639977,4.4680004,18.9220009,4.9360008,19.1650009,5.4189987z"/>
<path class="st2" d="M10-18.5c15.5999985,0,28.5,12.9000006,28.5,28.5S25.5999985,38.5,10,38.5S-18.5,25.5999985-18.5,10
	S-5.5999994-18.5,10-18.5 M10-20C-6.5-20-20-6.5-20,10s13.5,30,30,30s30-13.5,30-30S26.5-20,10-20L10-20z"/>
</svg>
