<?xml version="1.0" encoding="utf-8"?>
<!-- Generator: Adobe Illustrator 22.1.0, SVG Export Plug-In . SVG Version: 6.00 Build 0)  -->
<svg version="1.1" id="Layer_2" xmlns="http://www.w3.org/2000/svg" xmlns:xlink="http://www.w3.org/1999/xlink" x="0px" y="0px"
	 viewBox="0 0 64 64" style="enable-background:new 0 0 64 64;" xml:space="preserve">
<style type="text/css">
	.st0{fill:#CCCCCC;}
	.st1{fill:#FECB00;}
	.st2{fill:#EA2839;}
	.st3{fill:#34B233;}
	.st4{fill:#FFFFFF;}
</style>
<g id="Layer_2">
	<g>
		<g>
			<path class="st0" d="M32,3.5c-12.5,0-23.1,8-26.8,19.1h53.9C55.1,11.5,44.5,3.5,32,3.5z"/>
			<path class="st0" d="M32,60.5c12,0,22.5-7.4,26.5-18.2h-53C9.5,53.1,20,60.5,32,60.5z"/>
			<path class="st0" d="M3.5,32c0,3.7,0.6,7.1,2,10.3h53c1.1-3.1,2-6.6,2-10.3c0-3.4-0.6-6.6-1.7-9.4H5.2C4.1,25.4,3.5,28.6,3.5,32z
				"/>
		</g>
		<polygon class="st0" points="40,37.1 52.8,27.7 36.8,27.7 32,12.6 27.2,27.7 11.2,27.7 24,37.1 19.2,52.2 32,42.8 44.8,52.2 		"/>
		<path class="st0" d="M32,3.5c15.6,0,28.5,12.9,28.5,28.5S47.6,60.5,32,60.5S3.5,47.6,3.5,32S16.4,3.5,32,3.5 M32,2
			C15.5,2,2,15.5,2,32s13.5,30,30,30s30-13.5,30-30S48.5,2,32,2L32,2z"/>
	</g>
	<g>
		<g>
			<path class="st1" d="M32,3.5c-12.5,0-23.1,8-26.8,19.1h53.9C55.1,11.5,44.5,3.5,32,3.5z"/>
			<path class="st2" d="M32,60.5c12,0,22.5-7.4,26.5-18.2h-53C9.5,53.1,20,60.5,32,60.5z"/>
			<path class="st3" d="M3.5,32c0,3.7,0.6,7.1,2,10.3h53c1.1-3.1,2-6.6,2-10.3c0-3.4-0.6-6.6-1.7-9.4H5.2C4.1,25.4,3.5,28.6,3.5,32z
				"/>
		</g>
		<polygon class="st4" points="40,37.1 52.8,27.7 36.8,27.7 32,12.6 27.2,27.7 11.2,27.7 24,37.1 19.2,52.2 32,42.8 44.8,52.2 		"/>
		<path class="st0" d="M32,3.5c15.6,0,28.5,12.9,28.5,28.5S47.6,60.5,32,60.5S3.5,47.6,3.5,32S16.4,3.5,32,3.5 M32,2
			C15.5,2,2,15.5,2,32s13.5,30,30,30s30-13.5,30-30S48.5,2,32,2L32,2z"/>
	</g>
</g>
</svg>
