<?xml version="1.0" encoding="utf-8"?>
<svg version="1.1" id="Layer_1" xmlns="http://www.w3.org/2000/svg" xmlns:xlink="http://www.w3.org/1999/xlink" x="0px" y="0px"
	 viewBox="-22 -22 64 64" style="enable-background:new 0 0 20 20;" xml:space="preserve">
<style type="text/css">
	.st0{fill:#00785E;}
	.st1{fill:#FBD116;}
	.st2{fill:#FFFFFF;}
	.st3{fill:#CCCCCC;}
</style>
<path class="st0" d="M38.8000031,10c0-15.9060001-12.8940029-28.8000011-28.8000031-28.8000011S-18.7999992-5.9060001-18.7999992,10
	S-5.9060001,38.8000031,10,38.8000031S38.8000031,25.9060001,38.8000031,10z"/>
<polygon class="st1" points="21.295002,5.0109997 22.4589996,3.9279995 23.8509979,4.6989994 23.1789989,3.2589993 
	24.3430004,2.1729994 22.7649994,2.3649998 22.0900002,0.9249997 21.7869987,2.4849997 20.2089996,2.6799998 21.5979996,3.4509997 
	"/>
<polygon class="st1" points="-3.8510003,4.6989994 -2.4589996,3.9279995 -1.2949996,5.0109997 -1.5980005,3.4509997 
	-0.2089996,2.6799998 -1.7869997,2.4849997 -2.0900006,0.9249997 -2.7650003,2.3649998 -4.3430004,2.1729994 -3.1790004,3.2589993 
	"/>
<polygon class="st1" points="17.3409996,-1.625 17.8600006,-0.1190004 18.3220005,-1.6400003 19.9150009,-1.6699996 
	18.6100006,-2.5819993 19.0779991,-4.1030006 17.8089981,-3.1430001 16.5040016,-4.0609994 17.0200005,-2.5549998 
	15.7480011,-1.5980005 "/>
<polygon class="st1" points="1.6779995,-1.6400003 2.1400003,-0.1190004 2.6589999,-1.625 4.2519989,-1.5980005 
	2.9799995,-2.5549998 3.4959993,-4.0609994 2.1909995,-3.1430001 0.9219999,-4.1030006 1.3900003,-2.5819993 0.0850005,-1.6699996 
	"/>
<polygon class="st1" points="8.1400003,-2.2130003 10,-3.5659995 11.8599997,-2.2130003 11.1490011,-4.4000006 
	13.0090008,-5.7529998 10.7080002,-5.7529998 10,-7.9400001 9.2919998,-5.7529998 6.9909992,-5.7529998 8.8509989,-4.4000006 "/>
<path class="st2" d="M24.5680008,10.5909986c-1.3530006-0.5639992-2.8409996-0.8759995-4.3979988-0.8759995
	c-2.7870007,0-5.3459997,0.9990005-7.3290005,2.657999c2.0789995-2.1689987,5.0039997-3.5219994,8.2440014-3.5279989
	c0.2070007-0.3990011,0.4829998-0.7619991,0.8100014-1.0679998c-0.1739998-0.0090008-0.3450012-0.0119991-0.5219994-0.0119991
	c-3.2579994,0-6.1949997,1.3619986-8.2800016,3.5489988c1.1970005-1.6199999,1.9050007-3.618001,1.9050007-5.7839985
	c0-1.7399998-0.4589996-3.375-1.2600002-4.7879992c-0.177,0.5910001-0.4890003,1.1190004-0.9029989,1.5570002
	c0.5999994,1.2600002,0.9329996,2.6729994,0.9329996,4.1610003c0,2.2409992-0.7559996,4.3050013-2.0340014,5.9489994
	c1.0379992-1.5479994,1.6409998-3.4110003,1.6409998-5.4119997c0-2.9429998-1.3079996-5.5800004-3.375-7.368001
	C7.9360008,1.4169998,6.625,4.0570002,6.625,7c0,2.0009995,0.605999,3.8609991,1.6409998,5.4119997
	c-1.2719994-1.6469994-2.0339985-3.7109985-2.0339985-5.9520006c0-1.4880009,0.3330002-2.901,0.9329996-4.1610003
	C6.7540007,1.8639989,6.439002,1.329999,6.2650003,0.7419987c-0.8039989,1.413002-1.2600002,3.0480008-1.2600002,4.788002
	c0,2.1660004,0.7080002,4.1640015,1.9050007,5.7839985C4.8249989,9.1269989,1.888,7.7650003-1.3699999,7.7650003
	c-0.177,0-0.3480005,0.0059996-0.5219994,0.0119991c0.3239994,0.3060007,0.6030006,0.6689987,0.8099999,1.0679998
	c3.2399998,0.0059996,6.1620011,1.3590002,8.2439995,3.5279989c-1.9890003-1.6589985-4.5419998-2.657999-7.3319993-2.657999
	c-1.5570002,0-3.0449996,0.3120003-4.3980002,0.8759995c1.3919992,3.6779995,4.9439993,6.2940016,9.1080008,6.2940016
	c0.2700005,0,0.5369997-0.0119991,0.8010006-0.0360012c-0.5610008,0.1020012-1.1400003,0.1529999-1.7310004,0.1529999
	c-2.6279998,0-5.0070004-1.0439987-6.7620006-2.7330008c-0.3660007,0.1409998-0.7559996,0.2280006-1.164,0.2519989
	c1.7849994,2.0190001,4.3920007,3.2909994,7.2959991,3.2909994c2.7600002,0,5.2469988-1.1490002,7.0200005-2.9909983
	c1.7700005,1.8449984,4.2629986,2.9909983,7.0200005,2.9909983c2.9040012,0,5.5080013-1.2719994,7.2960014-3.2909994
	c-0.4080009-0.0240011-0.7980003-0.1109991-1.1639996-0.2519989c-1.7519989,1.6920004-4.1369991,2.7330008-6.7619991,2.7330008
	c-0.5909986,0-1.170001-0.0510006-1.730999-0.1529999c0.2640009,0.0240021,0.5310001,0.0360012,0.8010006,0.0360012
	C19.6209984,16.8850002,23.1760006,14.269001,24.5680008,10.5909986z"/>
<path class="st2" d="M-2.2969999,20.9949989h24.5940018c0.1559982-0.1590004,0.3089981-0.3179989,0.4589996-0.4799995H-2.7529998
	C-2.6060004,20.6800003-2.4530001,20.8360023-2.2969999,20.9949989z"/>
<path class="st2" d="M10,15.8709993c-1.7490005,1.6679983-4.1159992,2.6939993-6.7199993,2.6939993h-7.5750003
	C-4.0700002,18.8919983-3.836,19.2129974-3.592999,19.5249977h7.3229985c2.3879986,0,4.5749989-0.8610001,6.2700005-2.2890015
	c1.6920004,1.4279995,3.881999,2.2890015,6.2700005,2.2890015h7.323c0.2460003-0.3120003,0.4770012-0.6300011,0.7020016-0.9599991
	h-7.5750027C14.1159992,18.5649986,11.7490005,17.5389977,10,15.8709993z"/>
<path class="st2" d="M-1.2349997,21.9850006c0.3060007,0.2579994,0.6149998,0.5099983,0.9390006,0.75H10h10.2990017
	c0.3239994-0.2400017,0.6330013-0.4890022,0.9389992-0.75H10H-1.2349997z"/>
<path class="st2" d="M3.6279998,24.9250011C5.599,25.7080002,7.7469988,26.1399994,10,26.1399994
	s4.401-0.4319992,6.3720016-1.2149982H10H3.6279998z"/>
<path class="st2" d="M0.7960005,23.4850006c0.5579996,0.3509979,1.1339993,0.6749992,1.7340002,0.9599991H10h7.4699993
	c0.6000004-0.2880001,1.1760006-0.6090012,1.7339993-0.9599991H10H0.7960005z"/>
<path class="st3" d="M10-18.5c15.5999985,0,28.5,12.9000006,28.5,28.5S25.5999985,38.5,10,38.5S-18.5,25.5999985-18.5,10
	S-5.5999994-18.5,10-18.5 M10-20C-6.5-20-20-6.5-20,10s13.5,30,30,30s30-13.5,30-30S26.5-20,10-20L10-20z"/>
</svg>
