<?xml version="1.0" encoding="utf-8"?>
<svg version="1.1" id="Layer_1" xmlns="http://www.w3.org/2000/svg" xmlns:xlink="http://www.w3.org/1999/xlink" x="0px" y="0px"
	 viewBox="-22 -22 64 64" style="enable-background:new 0 0 20 20;" xml:space="preserve">
<style type="text/css">
	.st0{fill:#DC181E;}
	.st1{fill:#012A87;}
	.st2{fill:#FCEB0F;}
	.st3{fill:#169253;}
	.st4{fill:#CCCCCC;}
</style>
<path class="st0" d="M10-18.7999992c-10.6529999,0-19.9319992,5.7989988-24.9150009,14.3999996h49.8300018
	C29.9319973-13.0010004,20.6529999-18.7999992,10-18.7999992z"/>
<path class="st1" d="M34.9150009-4.4000006H-14.915C-17.3719997-0.1610003-18.7999992,4.7469988-18.7999992,10h57.6000023
	C38.8000031,4.7469988,37.3720016-0.1610003,34.9150009-4.4000006z"/>
<path class="st2" d="M38.8000031,10h-57.6000023c0,5.2530012,1.4279995,10.1609993,3.8849993,14.4000015h49.8300018
	C37.3720016,20.1609993,38.8000031,15.2530012,38.8000031,10z"/>
<path class="st3" d="M34.9150009,24.4000015H-14.915C-9.9320002,33.0009995-0.6529989,38.8000031,10,38.8000031
	S29.9319973,33.0009995,34.9150009,24.4000015z"/>
<path class="st4" d="M10-18.5c15.5999985,0,28.5,12.9000006,28.5,28.5S25.5999985,38.5,10,38.5S-18.5,25.5999985-18.5,10
	S-5.5999994-18.5,10-18.5 M10-20C-6.5-20-20-6.5-20,10s13.5,30,30,30s30-13.5,30-30S26.5-20,10-20L10-20z"/>
</svg>
