<?xml version="1.0" encoding="utf-8"?>
<svg version="1.1" id="Layer_1" xmlns="http://www.w3.org/2000/svg" xmlns:xlink="http://www.w3.org/1999/xlink" x="0px" y="0px"
	 viewBox="-22 -22 64 64" style="enable-background:new 0 0 20 20;" xml:space="preserve">
<style type="text/css">
	.st0{fill:#339E35;}
	.st1{fill:#CE1126;}
	.st2{fill:#CCCCCC;}
</style>
<path d="M10-18.7999992c-12.5340004,0-23.1690006,8.0219994-27.1259995,19.2000008h54.2519989
	C33.1689987-10.7779999,22.5340004-18.7999992,10-18.7999992z"/>
<path class="st0" d="M37.1259995,19.5999985h-54.2519989C-13.1690006,30.7810001-2.5339999,38.8000031,10,38.8000031
	S33.1689987,30.7780018,37.1259995,19.5999985z"/>
<path class="st1" d="M38.8000031,10c0-3.3719988-0.6120033-6.5910001-1.6740036-9.5999994h-54.2519989
	C-18.1879997,3.4089999-18.7999992,6.6280012-18.7999992,10s0.6119995,6.5910015,1.6739998,9.5999985h54.2519989
	C38.1879997,16.5909996,38.8000031,13.3719988,38.8000031,10z"/>
<g>
	<path class="st1" d="M10-9.2959995c-5.3909998,0-9.9749994,3.4439998-11.6760006,8.2530003h23.3520012
		C19.9749985-5.8519998,15.3909998-9.2959995,10-9.2959995z"/>
	<path class="st1" d="M13.75-14.8699999c0.1080008-0.6120005,0.0600014-1.2540007-0.3480005-1.3259993
		c-0.0269995-0.0060005-0.0539989-0.0060005-0.0780001-0.0060005c-0.3690004,0.0089989-0.6090002,0.5579996-0.7080002,1.1339998
		c-0.2609997,1.4849997-0.2159986,2.2890005-0.2159986,4.5449991C13.1710005-12.6440001,13.4890003-13.3880005,13.75-14.8699999z"/>
	<path class="st1" d="M-4.4180007-8.2579994c1.1519995,0.9689994,1.875,1.3319988,3.8280001,2.46
		C-2.0419998-7.5289998-2.5219994-8.177-3.6740003-9.1429996C-4.0040007-9.4159994-4.3790007-9.632-4.6699996-9.6380005
		C-4.802-9.6409998-4.9160004-9.599-5-9.5C-5.2670007-9.1820002-4.8950005-8.6599998-4.4180007-8.2579994z"/>
	<path class="st1" d="M0.2260003-6.6859994c-1.2930007-1.848-1.7189999-2.5350003-2.7810001-3.5999999
		c-0.3300004-0.3299999-0.7260003-0.6000004-1.0289998-0.5880003C-3.6859994-10.8710003-3.776-10.835-3.8480005-10.7600002
		c-0.2940001,0.2940006,0.0330005,0.849,0.474,1.29C-2.3090005-8.4049997-1.6220002-7.9790001,0.2260003-6.6859994z"/>
	<path class="st1" d="M-5.3480005-6.9559999c1.2330008,0.8610005,1.9799995,1.1580005,4.026,2.112
		c-1.5960002-1.5960002-2.1329999-2.1900001-3.3659992-3.0540004c-0.3510003-0.2459998-0.75-0.4319997-1.0380006-0.414
		c-0.1320004,0.0089998-0.2459993,0.0599995-0.3209996,0.1680002C-6.2839999-7.8049998-5.8610005-7.3159995-5.3480005-6.9559999z"/>
	<path class="st1" d="M3.0880003-8.882C2.3170004-11,2.0830002-11.7799997,1.3300004-13.0819998
		c-0.2730002-0.474-0.6539998-0.8850002-0.9840002-0.8400002c-0.0449996,0.0060005-0.0930004,0.0209999-0.138,0.0480003
		c-0.3599997,0.21-0.1859994,0.8280001,0.1259995,1.3709993C1.0869994-11.2040005,1.6359997-10.6099997,3.0880003-8.882z"/>
	<path class="st1" d="M-8.2279997-2.3179998C-8.573-2.3239994-8.849-2.2340002-8.9180002-1.9819999
		C-9.026-1.5770006-8.4679995-1.2620006-7.862-1.0999994c0.0869994,0.0239997,0.1649995,0.039,0.2490005,0.0599999h3.0839996
		c-1.2030001-0.5640006-1.9019995-0.8729997-3.0299993-1.1760006C-7.7869997-2.276-8.0209999-2.3150001-8.2279997-2.3179998z"/>
	<path class="st1" d="M4.1560001-9.4400005c-0.5850005-2.1809998-0.75-2.9699993-1.3859997-4.3319998
		c-0.2310004-0.4949999-0.573-0.9390001-0.9060001-0.9239998c-0.045001,0.0030003-0.0900006,0.0150003-0.138,0.0360003
		c-0.3779998,0.177-0.2609997,0.8099995,0,1.3739996C2.362-11.9239998,2.8599997-11.2880001,4.1560001-9.4400005z"/>
	<path class="st1" d="M2.0679998-8.2340002c-0.9539995-2.0430002-1.2479997-2.7930002-2.112-4.026
		c-0.2910004-0.4139996-0.6690001-0.7709999-0.9840002-0.7620001c-0.0719991,0.0030003-0.1409998,0.0209999-0.2039995,0.0660009
		c-0.3389997,0.2399998-0.1110005,0.8459997,0.2490005,1.355999C-0.1220002-10.3670006,0.4719996-9.8299999,2.0679998-8.2340002z"/>
	<path class="st1" d="M1.1140003-7.5020003c-1.1279998-1.9529996-1.4940004-2.6760001-2.4570007-3.8279996
		c-0.329999-0.3870001-0.7349997-0.7080002-1.0469999-0.6720009c-0.0719991,0.0060005-0.138,0.0390005-0.198,0.0900011
		c-0.3179998,0.2670002-0.0419998,0.849,0.3599997,1.3259993C-1.2620006-9.434-0.6170001-8.9540005,1.1140003-7.5020003z"/>
	<path class="st1" d="M28.4020023-3.6079993c-0.0720005-0.1950002-0.263998-0.2819996-0.5160007-0.2880006
		c-0.2519989-0.0059996-0.5579987,0.0659995-0.8520012,0.1740003c-1.4129982,0.5159998-2.0909977,0.9539995-4.0440006,2.0819993
		c2.2199993-0.3930001,3.0269985-0.4860005,4.4399986-1.0020003C28.0180016-2.8549995,28.5429993-3.2150006,28.4020023-3.6079993z"
		/>
	<path class="st1" d="M27.7480011-5.1859994c-0.0900002-0.1859994-0.2879982-0.2550001-0.5400009-0.2399998
		c-0.2519989,0.0150003-0.5489998,0.1079993-0.8310013,0.2399998C25.0149975-4.5499997,24.3789978-4.052,22.5279999-2.7559996
		c2.1809998-0.5850005,2.9699974-0.7529998,4.3320007-1.3889995C27.4239998-4.4060001,27.9250011-4.8079996,27.7480011-5.1859994z"
		/>
	<path class="st1" d="M-7.8859997-3.8959999c-0.2520008,0.0059996-0.4440002,0.0930004-0.5130005,0.2880006
		c-0.1440001,0.3929987,0.3810005,0.7529998,0.9690003,0.9659986c1.4129992,0.513,2.2169995,0.6090002,4.4400001,1.0020003
		c-1.9530001-1.1279998-2.6309996-1.5689993-4.0440001-2.0819993C-7.3250003-3.8300004-7.6339993-3.9019995-7.8859997-3.8959999z"/>
	<path class="st1" d="M28.2280006-2.3179998c-0.2070007,0.0029998-0.4410019,0.039-0.6660004,0.1049995
		c-1.1280022,0.3029995-1.8269997,0.612-3.0300007,1.1760006h3.0839996C27.6970005-1.0579996,27.7779999-1.073,27.8649998-1.0969996
		c0.6030006-0.1619997,1.1640015-0.4799995,1.0559978-0.8820004C28.8490028-2.2340002,28.573-2.3239994,28.2280006-2.3179998z"/>
	<path class="st1" d="M-7.2080002-5.4260006C-7.4600005-5.4440007-7.6610003-5.375-7.7479997-5.1860008
		c-0.1799998,0.3779998,0.3239994,0.7800007,0.888,1.0440001c1.362,0.6359997,2.151,0.8040004,4.3320007,1.3889995
		C-4.3759995-4.052-5.0120006-4.5499997-6.3770003-5.1859994C-6.6589999-5.3179998-6.9559999-5.4110003-7.2080002-5.4260006z"/>
	<path class="st1" d="M-6.5780001-6.9019995c-0.1649995,0.0059996-0.3059993,0.0629997-0.3839993,0.198
		c-0.2100005,0.3599997,0.2519989,0.8099999,0.7919998,1.1220002c1.302,0.7529998,2.0819993,0.987,4.2000003,1.7579999
		C-3.698-5.2730002-4.2919998-5.8250003-5.5910001-6.5780001C-5.9329996-6.7730002-6.2990003-6.9110003-6.5780001-6.9019995z"/>
	<path class="st1" d="M26.9620018-6.7039995c-0.078001-0.1350002-0.2159996-0.1920004-0.3840027-0.198
		c-0.2789993-0.0089993-0.6450005,0.1290007-0.980999,0.3239994C24.2919998-5.8250003,23.698-5.2730002,21.9729996-3.8239994
		c2.1210003-0.7709999,2.8979988-1.0050001,4.2000008-1.7579999C26.7099991-5.8939996,27.1720009-6.3439999,26.9620018-6.7039995z"
		/>
	<path class="st1" d="M15.3039989-14.474c0.1619997-0.6029997,0.1679993-1.2480001-0.2340002-1.3559999
		C15.0429993-15.8360004,15.0159998-15.842,14.9919987-15.842c-0.3659992-0.0240002-0.6540012,0.5039997-0.8039989,1.0679998
		c-0.3900003,1.4550009-0.4139986,2.2650013-0.6120014,4.5120001C14.5300007-12.3050003,14.9139986-13.0220003,15.3039989-14.474z"
		/>
	<path class="st1" d="M20.9830017-11.6000004c0.3570004-0.5100002,0.5879993-1.1159992,0.2490005-1.355999
		c-0.0629997-0.045001-0.132-0.0629997-0.2040005-0.0660009c-0.3149986-0.0089998-0.6899986,0.3450003-0.980999,0.7620001
		c-0.8640003,1.2329998-1.157999,1.9800005-2.1120014,4.026C19.5279999-9.8299999,20.1219978-10.3670006,20.9830017-11.6000004z"/>
	<path class="st1" d="M19.6660004-12.5030003c0.3120003-0.54,0.4860001-1.1609993,0.1259995-1.368
		c-0.0660019-0.0360003-0.1379986-0.0509996-0.2099991-0.0480003c-0.3149986,0.0180006-0.6599998,0.3990002-0.9119987,0.8370008
		c-0.7530022,1.302-0.9840012,2.0789995-1.7580032,4.1999998C18.3640003-10.6099997,18.9129982-11.2040005,19.6660004-12.5030003z"
		/>
	<path class="st1" d="M18.2740021-13.2860003c0.2609978-0.5669994,0.3780003-1.1969995,0-1.3739996
		c-0.0480003-0.0240002-0.0930023-0.0360003-0.1380005-0.0360003c-0.3330002-0.0150003-0.6749992,0.4289999-0.902998,0.9239998
		c-0.6359997,1.3620005-0.8039989,2.1540003-1.3859997,4.3319998
		C17.1399994-11.2880001,17.6379986-11.9239998,18.2740021-13.2860003z"/>
	<path class="st1" d="M16.8100014-13.9429998c0.2130013-0.5880003,0.276001-1.2270002-0.1140003-1.368
		C16.6480026-15.3289995,16.6000023-15.3379993,16.552-15.335c-0.3330002,0.0150003-0.6359997,0.4830008-0.8249989,0.9960003
		c-0.5159998,1.4130001-0.6120014,2.217-1.0019989,4.4399996C15.855999-11.8550005,16.2970009-12.533,16.8100014-13.9429998z"/>
	<path class="st1" d="M20.5900002-5.7979994c1.9529991-1.1279998,2.6759987-1.4940004,3.8279991-2.46
		C24.8950005-8.6570005,25.2669983-9.1820002,25-9.4969997c-0.0839996-0.0990009-0.198-0.1410007-0.329998-0.1380005
		c-0.2910004,0.0060005-0.6689987,0.2220001-0.9960003,0.4979992C22.5219994-8.1739998,22.0419998-7.5289998,20.5900002-5.7979994z"
		/>
	<path class="st1" d="M19.7740021-6.6859994c1.8479996-1.2960005,2.5379982-1.7219996,3.5999985-2.7839999
		c0.4410019-0.441,0.7679977-0.9960003,0.4709988-1.29c-0.0720005-0.0719995-0.1650009-0.1080008-0.2609997-0.1140003
		c-0.3000011-0.0120001-0.6960011,0.2579994-1.026001,0.5909996C21.493-9.2210007,21.0670013-8.5369997,19.7740021-6.6859994z"/>
	<path class="st1" d="M18.8859997-7.5020003C20.6140003-8.9540005,21.2619991-9.434,22.230999-10.5860004
		c0.3990021-0.4769993,0.6809998-1.0589991,0.3600006-1.3289995c-0.0810013-0.0660009-0.1710014-0.0960007-0.2700005-0.0900002
		c-0.3000031,0.0150003-0.6720009,0.3149996-0.972002,0.6719999C20.3800011-10.1780005,20.0139999-9.4549999,18.8859997-7.5020003z"
		/>
	<path class="st1" d="M10.5760012-15.2480001c0-0.6210003-0.1590014-1.2480001-0.5760012-1.2480001
		s-0.5760012,0.6240005-0.5760012,1.2480001c0,1.5030003,0.1829996,2.2920008,0.5760012,4.5120001
		C10.3929987-12.9559994,10.5760012-13.7449999,10.5760012-15.2480001z"/>
	<path class="st1" d="M7.5999994-10.526c0-2.2589998,0.045001-3.0600004-0.2159986-4.5419998
		c-0.099-0.5760002-0.3389997-1.125001-0.7080002-1.1339998c-0.0240011,0-0.0510006,0.0030003-0.0780001,0.0060005
		C6.1870003-16.1240005,6.1419992-15.4849997,6.25-14.8699999C6.5109997-13.3880005,6.8289995-12.6440001,7.5999994-10.526z"/>
	<path class="st1" d="M21.3220005-4.8439999c2.0459995-0.9539995,2.7929993-1.2509995,4.0259991-2.112
		c0.5100021-0.3569999,0.9360008-0.8460002,0.696003-1.1879992c-0.0900002-0.1260004-0.2340012-0.177-0.4020004-0.1680002
		c-0.2790012,0.0150003-0.6330013,0.1890001-0.9539986,0.4139991C23.454998-7.0339999,22.9179993-6.4400001,21.3220005-4.8439999z"
		/>
	<path class="st1" d="M6.4239988-10.2650003c-0.1949987-2.2470007-0.2220011-3.0600004-0.6119986-4.5089998
		c-0.1529989-0.5640001-0.4379997-1.092-0.8039989-1.0679998c-0.0240011,0.0030003-0.0540018,0.0059996-0.0780001,0.0120001
		C4.5279989-15.7220001,4.5340014-15.0769997,4.6960011-14.474C5.0860014-13.0220003,5.4699993-12.3050003,6.4239988-10.2650003z"/>
	<path class="st1" d="M8.7939987-10.6820002c0.1949987-2.25,0.3120003-3.0509996,0.1800013-4.5480003
		c-0.0539989-0.6209993-0.2640009-1.2300005-0.6779995-1.1939993c-0.4139986,0.0359993-0.5219994,0.6750002-0.4680004,1.2959995
		C7.9570007-13.6310005,8.2120008-12.8599997,8.7939987-10.6820002z"/>
	<path class="st1" d="M5.2719994-9.9049997C4.8790007-12.125,4.782999-12.9289999,4.2700005-14.342
		C4.0839996-14.8549995,3.7810001-15.323,3.448-15.3380003c-0.0479994-0.0029993-0.0960002,0.0060005-0.1439996,0.0240002
		c-0.3930001,0.1440001-0.3270006,0.783-0.1140003,1.368C3.7030001-12.533,4.144001-11.8550005,5.2719994-9.9049997z"/>
	<path class="st1" d="M12.1719999-15.1280003c0.0539989-0.6210003-0.0539989-1.2600002-0.4680004-1.2959995
		c-0.4139986-0.0360012-0.6240005,0.573-0.6779995,1.1940002c-0.1290007,1.4969997-0.0179987,2.3009996,0.1800013,4.5479994
		C11.7879992-12.8599997,12.0429993-13.6310005,12.1719999-15.1280003z"/>
</g>
<path class="st2" d="M10-18.5c15.5999985,0,28.5,12.9000006,28.5,28.5S25.5999985,38.5,10,38.5S-18.5,25.5999985-18.5,10
	S-5.5999994-18.5,10-18.5 M10-20C-6.5-20-20-6.5-20,10s13.5,30,30,30s30-13.5,30-30S26.5-20,10-20L10-20z"/>
</svg>
