<?xml version="1.0" encoding="utf-8"?>
<svg version="1.1" id="Layer_1" xmlns="http://www.w3.org/2000/svg" xmlns:xlink="http://www.w3.org/1999/xlink" x="0px" y="0px"
	 viewBox="-22 -22 64 64" style="enable-background:new 0 0 20 20;" xml:space="preserve">
<style type="text/css">
	.st0{fill:#EE2E2F;stroke:#B6B6B6;stroke-width:0.15;}
	.st1{fill:#FFFFFF;}
	.st2{fill:#213065;}
	.st3{fill:#CCCCCC;}
</style>
<circle class="st0" cx="10" cy="10" r="28.8000011"/>
<path class="st1" d="M-4.5289998-14.8369999V2.7999997h-13.3260002c-0.3030014,1.1760006-0.5400009,2.3729997-0.6960011,3.6000009
	h17.6189995V2.7999997v-19.4399986C-2.1799998-16.1240005-3.3740005-15.5150003-4.5289998-14.8369999z"/>
<path class="st1" d="M6.2709999,13.5999994v3.5999994v21.3329983c1.1820002,0.1530037,2.3790007,0.2549973,3.5999994,0.2610016
	V17.1999989h27.9869995c0.3029976-1.1760006,0.5400009-2.3730011,0.6930046-3.5999994H6.2709999z"/>
<path class="st1" d="M-18.5510006,13.5999994c0.1529999,1.2270012,0.3930016,2.4239988,0.6930008,3.5999994h13.3260002V34.836998
	c1.1550007,0.6780014,2.349,1.2900009,3.5999994,1.8030014V17.1999989v-3.5999994H-18.5510006z"/>
<path class="st1" d="M37.8549995,2.7999997H9.8709993v-21.5939999c-1.224,0.0060005-2.4179993,0.1079998-3.5999994,0.2610016
	V2.7999997v3.6000009h32.2830009C38.3979988,5.1729994,38.1579971,3.9760003,37.8549995,2.7999997z"/>
<path class="st2" d="M38.5510025,6.4000006H6.2709999V2.7999997v-21.3330002
	c-2.5139995,0.3270016-4.9320002,0.9630013-7.2000003,1.8930016V2.7999997v3.6000009h-17.6219997
	C-18.698,7.5820007-18.7999992,8.7790012-18.7999992,10s0.1019993,2.4179993,0.2489986,3.5999994h17.6189995v3.5999994v19.4400005
	C1.336,37.5699959,3.7540007,38.2059937,6.2680016,38.5329971V17.1999989v-3.5999994h32.2830009
	C38.7009964,12.4179993,38.8030014,11.2209988,38.8030014,10S38.697998,7.5820007,38.5510025,6.4000006z"/>
<path class="st3" d="M10-18.5c15.5999985,0,28.5,12.9000006,28.5,28.5S25.5999985,38.5,10,38.5S-18.5,25.5999985-18.5,10
	S-5.5999994-18.5,10-18.5 M10-20C-6.5-20-20-6.5-20,10s13.5,30,30,30s30-13.5,30-30S26.5-20,10-20L10-20z"/>
</svg>
