<?xml version="1.0" encoding="utf-8"?>
<svg version="1.1" id="Layer_1" xmlns="http://www.w3.org/2000/svg" xmlns:xlink="http://www.w3.org/1999/xlink" x="0px" y="0px"
	 viewBox="-22 -22 64 64" style="enable-background:new 0 0 20 20;" xml:space="preserve">
<style type="text/css">
	.st0{fill:#FFFFFF;stroke:#B6B6B6;stroke-width:0.15;stroke-miterlimit:10;}
	.st1{fill:#0067C6;}
	.st2{fill:#D21034;}
	.st3{fill:#CCCCCC;}
</style>
<circle class="st0" cx="10" cy="10" r="28.8000011"/>
<path class="st1" d="M-15.632,1.3599997l4.3199997-2.8800001l4.0319996,2.8800001l-1.4399996-4.8959999l4.3199997-3.1679993
	h-5.4719992l-0.8640003-3.1680002c-0.5759993,0.5759993-1.4399996,1.4399996-1.7279997,2.0159993L-13.04-6.7039995h-0.5760002
	c-0.5760002,0.8639989-0.8639994,1.7279992-1.4399996,2.3039989l1.1520004,0.8640003L-15.632,1.3599997z"/>
<path class="st1" d="M10.2879992,10h-29.0879974c0,15.8400021,12.96,28.8000031,28.7999992,28.8000031h0.2879992V10z"/>
<path class="st2" d="M38.8000031,10c0-15.8400002-12.6720009-28.8000011-28.512001-28.8000011V10H38.8000031z"/>
<path class="st2" d="M31.8879986,17.1999989l-1.7280006,4.8959999h-5.184l4.3199997,3.1679993l-1.7280006,4.8959999
	l4.3200016-3.1679993l0.8640003,0.5760021c1.4399986-1.7280006,2.5920029-3.4559994,3.4560013-5.472002h-2.5920029
	L31.8879986,17.1999989z"/>
<path class="st3" d="M10-18.5c15.5999985,0,28.5,12.9000006,28.5,28.5S25.5999985,38.5,10,38.5S-18.5,25.5999985-18.5,10
	S-5.5999994-18.5,10-18.5 M10-20C-6.5-20-20-6.5-20,10s13.5,30,30,30s30-13.5,30-30S26.5-20,10-20L10-20z"/>
</svg>
