<svg xmlns="http://www.w3.org/2000/svg" width="22.438" height="23.094" viewBox="0 0 22.438 23.094">
  <metadata><?xpacket begin="﻿" id="W5M0MpCehiHzreSzNTczkc9d"?>
<x:xmpmeta xmlns:x="adobe:ns:meta/" x:xmptk="Adobe XMP Core 5.6-c138 79.159824, 2016/09/14-01:09:01        ">
   <rdf:RDF xmlns:rdf="http://www.w3.org/1999/02/22-rdf-syntax-ns#">
      <rdf:Description rdf:about=""/>
   </rdf:RDF>
</x:xmpmeta>
                                                                                                    
                                                                                                    
                                                                                                    
                                                                                                    
                                                                                                    
                                                                                                    
                                                                                                    
                                                                                                    
                                                                                                    
<?xpacket end="w"?></metadata>
<defs>
    <style>
      .cls-1 {
        fill: #fff;
        fill-rule: evenodd;
      }
    </style>
  </defs>
  <path id="Shape_1_copy" data-name="Shape 1 copy" class="cls-1" d="M922.529,16.4H933.19a1.666,1.666,0,0,1,1.665,1.663V28.354a1.666,1.666,0,0,1-1.665,1.663H919.755a1.666,1.666,0,0,1-1.665-1.663V18.065a1.666,1.666,0,0,1,1.665-1.663h1.664m1.1,0V11.994a5.054,5.054,0,0,0-10.107,0V16.4h1.11V11.994a3.944,3.944,0,0,1,7.888,0V16.4m12.336,11.952h0a0.555,0.555,0,0,1-.555.555H919.755a0.555,0.555,0,0,1-.555-0.555V18.065a0.555,0.555,0,0,1,.555-0.555H933.19a0.555,0.555,0,0,1,.555.555V28.354Zm-7.272-8.942a2.289,2.289,0,0,0-1.576,3.952v2.067a1.576,1.576,0,0,0,3.152,0V23.365A2.29,2.29,0,0,0,926.473,19.412Zm0.81,3.149a1.094,1.094,0,0,0-.344.79v2.08a0.467,0.467,0,0,1-.933,0v-2.08a1.089,1.089,0,0,0-.344-0.79A1.182,1.182,0,1,1,927.283,22.562Z" transform="translate(-912.406 -6.938)"/>
</svg>