<?xml version="1.0" encoding="utf-8"?>
<svg version="1.1" id="Layer_1" xmlns="http://www.w3.org/2000/svg" xmlns:xlink="http://www.w3.org/1999/xlink" x="0px" y="0px"
	 viewBox="-22 -22 64 64" style="enable-background:new 0 0 20 20;" xml:space="preserve">
<style type="text/css">
	.st0{fill:#CE1126;}
	.st1{fill:#FCD116;}
	.st2{fill:#FFFFFF;}
	.st3{fill:#CCCCCC;}
</style>
<path d="M33.0400009,27.2800007L-13.04-7.2800007C-16.7840004-2.3839993-18.7999992,3.3759995-18.7999992,10
	c0,15.8400021,12.96,28.8000031,28.7999992,28.8000031C19.5040016,38.8000031,27.855999,34.1919975,33.0400009,27.2800007"/>
<path class="st0" d="M38.8000031,10c0-15.8400002-12.960001-28.8000011-28.8000031-28.8000011
	c-9.5040007,0-17.8560009,4.6079998-23.039999,11.5200005l46.0800018,34.5600014
	C36.7839966,22.3840008,38.8000031,16.6240005,38.8000031,10"/>
<path class="st1" d="M19.2159996-2.0960002c-0.5760002,0.8640003-2.0160007-0.5759997-3.4559994-0.8640003
	c-1.7280006,0-2.8800001,1.4400001-3.1679993,2.0159998c-0.5760012,0.5759997-2.0159998,3.4559999-2.0159998,3.7440004
	s0.8640003-0.8640003,1.1519995-1.1519995c0,0.2880006-0.2879992,0.8640003-0.2879992,0.8640003
	s1.1519995-0.8640003,1.4399986-0.8640003c0,0.2880006-0.2879992,0.5759997,0,0.8640003
	c0,0,0.8640003-0.5759997,1.1519995-0.8640003c0,0.2880006-0.2879992,0.8640003,0,1.1519995
	c0.2879992,0,1.1519995-1.1519995,1.4399986-1.1519995s-0.2879992,1.1519995,0,1.1519995
	c0.2879992-0.2880006,1.1519985-1.1519995,1.4399986-1.4400001c0.2880001,0,0,1.4400001,0,1.4400001
	c0.2880001-0.2880006,1.4399986-1.4400001,1.4399986-1.7279992c0-0.2880006,0,2.0159998,0.8640003,3.1679993
	c1.1520004,1.1519995,2.592001,2.3039989,2.8800011,2.3039989c0.2879982-0.2879992,0-1.1519995,0-1.1519995
	c0.5760002,1.1519995,1.4399986,1.7280006,1.7280006,1.7280006c0.2879982,0,0-0.8640003,0-0.8640003
	c0.5760002,0.5760012,2.0159988,2.592001,5.1839981,3.4559984c-0.288002-0.5760012-0.5759983-1.1519995-0.5759983-1.4399986
	c0.288002,0,0.8640003,0.2879992,1.1520023,0.2879992c0,0-1.4399986-2.0159998-1.4399986-2.3039989
	c0.288002,0,0.5759983,0.2879992,0.5759983,0c-0.288002,0-1.4399986-1.7280006-1.4399986-2.0159998
	c0-0.2880006,0.5760021,0,0.5760021,0s-0.5760021-1.4400001-0.288002-1.7279992
	c0-0.2880006,1.7279968,0.8640003,2.0159988,0.8640003s0-1.4400001,0.288002-1.4400001s1.4399986,0.5759997,1.7280006,0.5759997
	s0.288002-0.5759997,0.288002-0.5759997s2.8799973,2.8800001,2.0160027,6.3359985
	c-0.8639984,2.3039989-2.8799973,3.7440004-6.0480003,2.592001c0.2880001,0.2879992,1.7279987,1.4399986,3.4559994,1.1519995
	c1.7280025-0.5760012,3.7439976-1.7280006,3.4559994-5.1839991c-0.288002-3.4559999-1.4399948-3.7440004-1.4399948-4.3200002
	c-0.288002-0.5759997,0.288002,0,0.5759964,0.2880006c0.288002,0,0-0.5759997-0.288002-1.1519995
	c0-0.2880006,1.1520004,0.8640003,1.4399986,0.8640003s-0.5760002-2.8800001-0.8640022-2.8800001
	c-0.288002-0.2880006,0.288002,0,0.5760002,0s-1.7280006-3.1679993-2.303997-3.1679993
	c-0.5760002,0,0.288002-0.2880006,0.5759964-0.2880006s-2.3039989-2.0160027-2.880003-2.0160027
	c-0.5759983,0,0.8640003-0.5759997,1.1520023-0.5759997s-2.8799973-1.7279997-5.7600002,0
	c-0.2880001,0,1.4399986-1.1519995,1.4399986-1.7279997c0,0-0.5760021-0.2880001-0.5760021-0.5760002
	c0,0,0.8640022-0.5759993,0.8640022-0.8639994c-0.2880001-0.2880001-0.5760021-0.2880001-0.8640022-0.2880001
	c0-0.2880001,0.5760021-0.8639994,0.5760021-1.1520004c0-0.2880001-0.5760021-0.2879992-0.8640003,0
	c0,0,0.2879982-0.5759993,0.2879982-0.8640003c0,0-0.2879982,0-0.5760002,0c-0.2879982,0,0.8640003-1.4399996,0.5760002-1.7279997
	c-0.2879982-0.2879992-2.8799992,1.4400005-4.0319977,3.4560003c-1.1520004,2.0159998-0.2880001,3.4560003-0.2880001,4.0320001
	s-0.2880001,1.1519995-0.8640003,1.1519995S19.7919998-5.552,19.5039978-5.8400006
	c-0.2879982-0.2880006-0.2879982-0.5759997-0.8640003-0.5759997s-1.4399986,0.2880006-2.0160007,0.2880006
	c-0.2879982,0-2.0159988-0.2880006-2.0159988-0.2880006S16.0479965-5.8400006,16.6239967-5.552
	c0.2880001,0.2880006,0.2880001,0.5759997,0.5760021,0.5759997C17.4880009-3.8239994,20.079998-2.9600005,19.2159996-2.0960002"/>
<path class="st1" d="M29.0080013,2.7999997c0.8640003,0.8640003,6.3360004,4.3200002,6.3360004,8.9280014
	s-4.0320015,4.0319996-5.1840038,4.0319996c1.1520023,1.1519985,6.0480022,0.8640003,6.0480022-4.0319996
	c0-4.3200016-6.3359985-8.9279995-6.9120026-9.2159996C28.4319973,1.9359994,28.144001,1.9359994,29.0080013,2.7999997"/>
<polygon class="st2" points="-9.2959995,-0.9439993 -8.4320002,1.9359994 -5.552,1.9359994 -7.5679998,3.664 -6.9920001,6.5439987 
	-9.2959995,4.8160009 -11.3120003,6.5439987 -10.7360001,3.664 -13.04,1.9359994 -10.1599998,1.9359994 "/>
<path class="st2" d="M-18.223999,16.0480003L-18.223999,16.0480003L-15.632,17.776001l-0.8640003-2.8800011l2.3040009-1.7280006
	h-2.8800011l-0.8639984-2.8800001l-0.8640003,2.3040018C-18.5119991,13.7440004-18.5119991,14.8959999-18.223999,16.0480003z"/>
<polygon class="st2" points="-0.3679996,9.4239988 0.4959993,12.3039989 3.3759995,12.3039989 1.0720005,14.0319996 
	1.9359994,16.9119987 -0.3679996,15.1839991 -2.6719999,16.9119987 -1.8079996,14.0319996 -4.112,12.3039989 -1.2319999,12.3039989 
	"/>
<path class="st2" d="M-8.4320002,28.4319973l-0.8640003-2.8799992l-0.8640003,2.8799992h-2.0159988
	C-11.3120003,29.5839996-10.448,30.448-9.2959995,31.3119946h0.2880001l2.0159993,1.7279987l-0.8640003-2.8799953L-5.552,28.4319973
	H-8.4320002z"/>
<polygon class="st2" points="-5.2639995,19.5040016 -4.6879997,20.9440002 -3.2479997,20.9440002 -4.4000006,21.8079987 
	-4.112,22.9599991 -5.2639995,22.0959988 -6.4160004,22.9599991 -5.8400006,21.8079987 -6.9920001,20.9440002 -5.552,20.9440002 "/>
<path class="st3" d="M10-18.5c15.5999985,0,28.5,12.9000006,28.5,28.5S25.5999985,38.5,10,38.5S-18.5,25.5999985-18.5,10
	S-5.5999994-18.5,10-18.5 M10-20C-6.5-20-20-6.5-20,10s13.5,30,30,30s30-13.5,30-30S26.5-20,10-20L10-20z"/>
</svg>
