<?xml version="1.0" encoding="utf-8"?>
<svg version="1.1" id="Layer_1" xmlns="http://www.w3.org/2000/svg" xmlns:xlink="http://www.w3.org/1999/xlink" x="0px" y="0px"
	 viewBox="-22 -22 64 64" style="enable-background:new 0 0 20 20;" xml:space="preserve">
<style type="text/css">
	.st0{fill:#FFFFFF;stroke:#B6B6B6;stroke-width:0.15;stroke-miterlimit:10;}
	.st1{fill:#0038A8;}
	.st2{fill:#CE1126;}
	.st3{fill:#FCD116;}
	.st4{fill:#CCCCCC;}
</style>
<circle class="st0" cx="10" cy="10" r="28.8000011"/>
<path class="st1" d="M38.8000031,10c0-15.8400002-12.960001-28.8000011-28.8000031-28.8000011
	c-7.776,0-14.6879997,3.1680002-19.8719997,8.0640001l36,20.7360001H38.8000031z"/>
<path class="st2" d="M38.8000031,10H26.1280022l-36,20.736002C-4.6879997,35.6320038,2.224,38.8000031,10,38.8000031
	C25.8400002,38.8000031,38.8000031,25.8400002,38.8000031,10"/>
<path class="st3" d="M-7.2800007,4.5279989l-1.1519995-4.0319996l0.5759997-0.8640003l0.8640003,4.8959999H-7.2800007z
	 M-6.4160004,4.5279989l-0.5759997-5.4719982l1.1519995-1.4400001l1.1519995,1.4400001l-0.5759983,5.4719982H-6.4160004z
	 M-4.112,4.5279989l1.1519995-4.0319996l-0.8639989-0.8639989l-0.8640003,4.8959985H-4.112z"/>
<path class="st3" d="M-0.0800004,10c0,3.1679993-2.5919995,5.7600002-5.7600002,5.7600002S-11.6000004,13.1679993-11.6000004,10
	s2.592001-5.7600002,5.7599998-5.7600002S-0.0800004,6.8320007-0.0800004,10"/>
<path class="st3" d="M-4.112,15.4720011l0.8640003,4.0320005L-3.8239994,20.368l-0.8640003-4.895999H-4.112z M-5.2639995,15.4720011
	l0.5759997,5.4720011l-1.1519995,1.4399986l-1.1519995-1.4399986l0.5759997-5.4720011H-5.2639995z M-7.2800007,15.4720011
	l-1.1520004,4.0320005L-7.8560004,20.368l0.8640003-4.895999H-7.2800007z"/>
<path class="st3" d="M-0.3679996,8.5600014L3.664,7.6960011l0.8639989,0.5760012l-4.8959985,0.5759983V8.5600014z
	 M-0.3679996,9.4239988l5.4719996-0.5760012L6.2559996,10l-1.4399986,1.1519995l-5.4719996-0.5760012V9.4239988H-0.3679996z
	 M-0.3679996,11.4399986L3.664,12.5919981l0.8639989-0.5760012l-4.8959999-0.8640003
	C-0.3679996,11.1519995-0.3679996,11.4399986-0.3679996,11.4399986z"/>
<path class="st3" d="M-5.8400006,15.7600002c-3.1679997,0-5.7599998-2.592001-5.7599998-5.7600002
	s2.592-5.7600002,5.7599998-5.7600002S-0.0800004,6.8320007-0.0800004,10S-2.6719999,15.7600002-5.8400006,15.7600002"/>
<path class="st3" d="M-11.3120003,11.4399986l-4.0319996,0.8640003l-0.5760002-0.5759983l4.8959999-0.8640003v0.5760012
	C-11.0240002,11.4400015-11.3120003,11.4400015-11.3120003,11.4399986z M-11.3120003,10.5760012l-5.4720001,0.5760012
	L-17.9360008,10l1.4400005-1.1519995l5.4720001,0.5760012v1.1519995H-11.3120003z M-11.3120003,8.5600014l-3.7439995-1.1520023
	l-0.8640003,0.8640003l4.8959999,0.8640003V8.5600014H-11.3120003z"/>
<path class="st3" d="M-10.7360001,7.407999l-3.4560003-2.3039989V3.9520006l4.0320005,2.8800001L-10.7360001,7.407999z
	 M-10.1599998,6.5439987l-4.0320005-3.4559984V1.3599997h1.7280006l3.4560003,4.3199987L-10.1599998,6.5439987z
	 M-8.4320002,5.1040001l-2.3039999-3.4559999l-0.8640003-0.2880006l2.8800001,4.0319996L-8.4320002,5.1040001z"/>
<path class="st3" d="M-1.8079996,5.9680004c2.3040004,2.3039989,2.3040004,5.7600002,0,8.0639992s-5.7600002,2.3039989-8.0640001,0
	s-2.3039989-5.7600002,0-8.0639992S-3.8239994,3.664-1.8079996,5.9680004"/>
<path class="st3" d="M-0.9439993,12.592001l3.4559999,2.0159998v1.1519995l-4.032001-2.8800001L-0.9439993,12.592001z
	 M-1.5200005,13.4560013l4.3200002,3.4560013v1.7280006H1.0720005l-3.4559999-4.3200016L-1.5200005,13.4560013z
	 M-2.9600005,14.8959999l2.0159998,3.4560013h1.1519995l-2.8800001-4.0319996L-2.9600005,14.8959999z"/>
<path class="st3" d="M-2.9600005,5.1040001l2.0159998-3.4559999h1.1519995l-2.8799987,4.032001L-2.9600005,5.1040001z
	 M-2.3839993,5.6800013l3.4559999-4.3200002h1.7279992v1.7279992l-4.3200002,3.4559984L-2.3839993,5.6800013z M-0.9439993,7.1199999
	l3.4559999-2.0159998V3.9520006l-4.032001,2.8800001L-0.9439993,7.1199999z"/>
<path class="st3" d="M-1.8079996,14.0319996c-2.3040004,2.3039989-5.7600002,2.3039989-8.0640001,0
	s-2.3039989-5.7600002,0-8.0639992s5.7599998-2.3040004,8.0640001,0S0.4959993,11.7280006-1.8079996,14.0319996"/>
<path class="st3" d="M-8.4320002,14.8959999L-10.448,18.3520012h-1.1520004l2.8800001-4.0319996L-8.4320002,14.8959999z
	 M-9.2959995,14.3199987l-3.1680002,4.3199987h-1.7280006v-1.7280006l4.0320005-3.4560013L-9.2959995,14.3199987z
	 M-10.7360001,12.8800001l-3.4559994,2.0159998v1.1520004l4.0319996-2.8800011L-10.7360001,12.8800001z"/>
<polygon class="st3" points="14.0319996,12.0159998 15.7600002,10 14.0319996,7.9840002 16.6240005,8.8480005 18.0639992,6.5439987 
	18.0639992,9.1359997 20.6560001,10 18.0639992,10.8640003 18.0639992,13.4560013 16.6240005,11.1519995 "/>
<path class="st4" d="M10-18.5c15.5999985,0,28.5,12.9000006,28.5,28.5S25.5999985,38.5,10,38.5S-18.5,25.5999985-18.5,10
	S-5.5999994-18.5,10-18.5 M10-20C-6.5-20-20-6.5-20,10s13.5,30,30,30s30-13.5,30-30S26.5-20,10-20L10-20z"/>
</svg>
