<?xml version="1.0" encoding="utf-8"?>
<svg version="1.1" id="Layer_1" xmlns="http://www.w3.org/2000/svg" xmlns:xlink="http://www.w3.org/1999/xlink" x="0px" y="0px"
	 viewBox="-22 -22 64 64" style="enable-background:new 0 0 20 20;" xml:space="preserve">
<style type="text/css">
	.st0{fill:#FFFFFF;stroke:#B6B6B6;stroke-width:0.15;stroke-miterlimit:10;}
	.st1{fill:#006600;}
	.st2{fill:#FFFFFF;}
	.st3{fill:#CCCCCC;}
</style>
<circle class="st0" cx="10" cy="10" r="28.8000011"/>
<path class="st1" d="M10-18.7999992c-7.4880009,0-14.1119995,2.8799992-19.2960014,7.1999998v42.9119987
	C-4.112,35.9199982,2.5120006,38.8000031,10,38.8000031c15.8400021,0,28.8000031-12.960001,28.8000031-28.8000031
	S25.8400002-18.7999992,10-18.7999992z"/>
<path class="st2" d="M15.7600002,16.6240005C10,10,10.5760012,0.2080002,17.1999989-5.8400006
	c0.2880001-0.2880006,0.5760021-0.5759997,0.8640003-0.5759997C11.1519995-4.112,5.9680004,2.224,5.9680004,10
	c0,9.5040016,7.776,17.2800007,17.2800007,17.2800007c5.4719982,0,10.3679962-2.592001,13.5360031-6.3359985
	c0.288002-0.8640003,0.5759964-1.4399986,0.8639984-2.3039989C31.0239983,23.5359993,21.5200005,22.9599991,15.7600002,16.6240005"
	/>
<polygon class="st2" points="33.9039993,2.224 36.2080002,-1.5200005 32.1760025,0.2080002 29.5839996,-2.9600005 
	29.8720016,1.3599997 26.1280022,2.7999997 30.1599979,3.9520006 30.736002,7.9840002 32.7519989,4.2399998 36.7839966,5.3919992 
	"/>
<path class="st3" d="M10-18.5c15.5999985,0,28.5,12.9000006,28.5,28.5S25.5999985,38.5,10,38.5S-18.5,25.5999985-18.5,10
	S-5.5999994-18.5,10-18.5 M10-20C-6.5-20-20-6.5-20,10s13.5,30,30,30s30-13.5,30-30S26.5-20,10-20L10-20z"/>
</svg>
