<?xml version="1.0" encoding="utf-8"?>
<svg version="1.1" id="Layer_2_1_" xmlns="http://www.w3.org/2000/svg" xmlns:xlink="http://www.w3.org/1999/xlink" x="0px" y="0px"
	 viewBox="-22 -22 64 64" style="enable-background:new 0 0 20 20;" xml:space="preserve">
<style type="text/css">
	.st0{fill:#FFFFFF;stroke:#B6B6B6;stroke-width:0.15;}
	.st1{fill:#0038A8;}
	.st2{fill:#CE1126;}
	.st3{fill:#FFFFFF;}
	.st4{fill:none;stroke:#000000;stroke-width:0.3;}
	.st5{fill:#006700;}
	.st6{fill:none;stroke:#000000;stroke-width:0.0204;}
	.st7{fill:none;stroke:#000000;stroke-width:0.0096;}
	.st8{fill:none;stroke:#000000;stroke-width:0.0054;}
	.st9{fill:none;stroke:#000000;stroke-width:0.0138;}
	.st10{fill:none;stroke:#000000;stroke-width:0.0078;}
	.st11{fill:none;stroke:#000000;stroke-width:0.0159;}
	.st12{fill:none;stroke:#000000;stroke-width:0.009;}
	.st13{fill:none;stroke:#000000;stroke-width:0.0177;}
	.st14{fill:none;stroke:#000000;stroke-width:0.0102;}
	.st15{fill:none;stroke:#000000;stroke-width:0.0246;}
	.st16{fill:none;stroke:#000000;stroke-width:0.0129;}
	.st17{fill:none;stroke:#000000;stroke-width:0.0105;}
	.st18{fill:none;stroke:#000000;stroke-width:0.0132;}
	.st19{fill:none;stroke:#000000;stroke-width:0.0135;}
	.st20{fill:none;stroke:#000000;stroke-width:0.0144;}
	.st21{fill:none;stroke:#000000;stroke-width:0.0156;}
	.st22{fill:none;stroke:#000000;stroke-width:0.0174;}
	.st23{fill:none;stroke:#000000;stroke-width:0.0171;}
	.st24{fill:none;stroke:#000000;stroke-width:0.0195;}
	.st25{fill:none;stroke:#000000;stroke-width:0.0192;}
	.st26{fill:none;stroke:#000000;stroke-width:0.0201;}
	.st27{fill:#2563C1;}
	.st28{fill:none;stroke:#000000;stroke-width:0.0198;}
	.st29{fill:none;stroke:#000000;stroke-width:0.0123;}
	.st30{fill:none;stroke:#000000;stroke-width:0.0108;}
	.st31{fill:#FFCE00;}
	.st32{fill:none;stroke:#000000;stroke-width:0.0261;}
	.st33{fill:none;stroke:#000000;stroke-width:0.0288;}
	.st34{fill:#FFE600;}
	.st35{fill:#CCCCCC;}
</style>
<circle class="st0" cx="10" cy="10" r="28.8000011"/>
<path class="st1" d="M37.1259995,19.5999985h-54.2519989C-13.1690006,30.7810001-2.5339999,38.8000031,10,38.8000031
	S33.1689987,30.7780018,37.1259995,19.5999985z"/>
<path class="st2" d="M10-18.7999992c-12.5340004,0-23.1690006,8.0219994-27.1259995,19.2000008h54.2519989
	C33.1689987-10.7779999,22.5340004-18.7999992,10-18.7999992z"/>
<circle class="st3" cx="10" cy="10" r="7.3139992"/>
<circle class="st4" cx="10" cy="10" r="7.3139992"/>
<path class="st5" d="M10.9870014,6.579999c0,0,2.8199987,1.2149992,2.3280001,3.7230005
	c-0.4919987,2.5109997-2.0610008,2.493001-2.6789989,2.7719994c-0.6149998,0.276-1.0410004,0.6750011-1.2810001,0.618001
	s-0.5639992-0.243001-0.5639992-0.243001s-0.0269995,0.4110003,0.4680004,0.4859991s1.1429987-0.651,1.4580002-0.7320013
	c0.3120003-0.0810013,2.2290001-0.2879992,2.6970005-2.8439999C13.9570007,7.6419992,11.0050001,6.6610003,10.9870014,6.579999z"/>
<path class="st6" d="M10.9870014,6.579999c0,0,2.8199987,1.2149992,2.3280001,3.7230005
	c-0.4919987,2.5109997-2.0610008,2.493001-2.6789989,2.7719994c-0.6149998,0.276-1.0410004,0.6750011-1.2810001,0.618001
	s-0.5639992-0.243001-0.5639992-0.243001s-0.0269995,0.4110003,0.4680004,0.4859991s1.1429987-0.651,1.4580002-0.7320013
	c0.3120003-0.0810013,2.2290001-0.2879992,2.6970005-2.8439999C13.9570007,7.6419992,11.0050001,6.6610003,10.9870014,6.579999z"/>
<path class="st5" d="M12.4119997,7.1169987c0.0510006,0.2070007,0.0539989,0.3780012,0.0030012,0.3840008
	c-0.0510006,0.0030012-0.1350002-0.1619997-0.1860008-0.3690004s-0.0539989-0.3780012-0.0030012-0.3809996
	C12.2740011,6.7449999,12.3609991,6.9100008,12.4119997,7.1169987z"/>
<path class="st7" d="M12.4119997,7.1169987c0.0510006,0.2070007,0.0539989,0.3780012,0.0030012,0.3840008
	c-0.0510006,0.0030012-0.1350002-0.1619997-0.1860008-0.3690004s-0.0539989-0.3780012-0.0030012-0.3809996
	C12.2740011,6.7449999,12.3609991,6.9100008,12.4119997,7.1169987z"/>
<path class="st5" d="M12.3160009,7.144001c0.099,0.198,0.1379986,0.3719988,0.0930004,0.3900003
	C12.3640003,7.552,12.2440004,7.4050007,12.151,7.2100019c-0.099-0.2010012-0.1409998-0.375-0.0959988-0.3929987
	C12.0999994,6.7960005,12.217001,6.9429998,12.3160009,7.144001z"/>
<path class="st7" d="M12.3160009,7.144001c0.099,0.198,0.1379986,0.3719988,0.0930004,0.3900003
	C12.3640003,7.552,12.2440004,7.4050007,12.151,7.2100019c-0.099-0.2010012-0.1409998-0.375-0.0959988-0.3929987
	C12.0999994,6.7960005,12.217001,6.9429998,12.3160009,7.144001z"/>
<path class="st5" d="M12.0340014,7.3270006c0.198,0.0570002,0.3570013,0.1500006,0.3540001,0.2010012
	c-0.0059996,0.0539989-0.1710005,0.0479994-0.3719988-0.0090008c-0.198-0.0570002-0.3570013-0.1500006-0.3540001-0.2010012
	C11.6679993,7.2640009,11.8360014,7.2700005,12.0340014,7.3270006z"/>
<path class="st7" d="M12.0340014,7.3270006c0.198,0.0570002,0.3570013,0.1500006,0.3540001,0.2010012
	c-0.0059996,0.0539989-0.1710005,0.0479994-0.3719988-0.0090008c-0.198-0.0570002-0.3570013-0.1500006-0.3540001-0.2010012
	C11.6679993,7.2640009,11.8360014,7.2700005,12.0340014,7.3270006z"/>
<path class="st5" d="M12.0760012,7.2280006c0.1800013,0.1199999,0.3120003,0.2550001,0.2879992,0.3029995
	C12.3399992,7.573,12.1779995,7.5100002,11.9920015,7.3900003c-0.1800013-0.1199999-0.3120003-0.2550001-0.2879992-0.3029995
	S11.8929987,7.1020012,12.0760012,7.2280006z"/>
<path class="st7" d="M12.0760012,7.2280006c0.1800013,0.1199999,0.3120003,0.2550001,0.2879992,0.3029995
	C12.3399992,7.573,12.1779995,7.5100002,11.9920015,7.3900003c-0.1800013-0.1199999-0.3120003-0.2550001-0.2879992-0.3029995
	S11.8929987,7.1020012,12.0760012,7.2280006z"/>
<ellipse transform="matrix(0.697391 -0.7166908 0.7166908 0.697391 -1.5162714 10.8883114)" class="st5" cx="12.1356535" cy="7.2397032" rx="0.0900004" ry="0.4020046"/>
<ellipse transform="matrix(0.697391 -0.7166908 0.7166908 0.697391 -1.5162714 10.8883114)" class="st7" cx="12.1356535" cy="7.2397032" rx="0.0900004" ry="0.4020046"/>
<path class="st5" d="M12.3909998,7.5310001c0.0030012,0.0030012-0.1080008,0.0600014-0.131999,0.0689993
	c-0.0269995,0.0090008-0.0600014-0.0360003-0.1290007,0.0030012c-0.0720005,0.0360003-0.1199999,0.1049995-0.1379986,0.144001
	c-0.0179987,0.0389986,0.0209999,0.0570002,0.1080008,0.0150003s0.1080008-0.1080008,0.1529989-0.1350002
	c0.0389986-0.0269995,0.1109991-0.0660009,0.1529989-0.0810013c0.0179987-0.0360003,0.0720005-0.1169987,0.1049995-0.1650009
	c0.0300007-0.045001,0.144001-0.1230011,0.1829996-0.2130003c0.0360003-0.0749989,0.0240011-0.1379986-0.0269995-0.1080008
	C12.6190004,7.086998,12.5560007,7.1619997,12.526,7.2129974c-0.0300007,0.0539989-0.0030012,0.1199999-0.0360003,0.1710005
	C12.4599991,7.420001,12.4000006,7.5310001,12.3909998,7.5310001z"/>
<path class="st8" d="M12.3909998,7.5310001c0.0030012,0.0030012-0.1080008,0.0600014-0.131999,0.0689993
	c-0.0269995,0.0090008-0.0600014-0.0360003-0.1290007,0.0030012c-0.0720005,0.0360003-0.1199999,0.1049995-0.1379986,0.144001
	c-0.0179987,0.0389986,0.0209999,0.0570002,0.1080008,0.0150003s0.1080008-0.1080008,0.1529989-0.1350002
	c0.0389986-0.0269995,0.1109991-0.0660009,0.1529989-0.0810013c0.0179987-0.0360003,0.0720005-0.1169987,0.1049995-0.1650009
	c0.0300007-0.045001,0.144001-0.1230011,0.1829996-0.2130003c0.0360003-0.0749989,0.0240011-0.1379986-0.0269995-0.1080008
	C12.6190004,7.086998,12.5560007,7.1619997,12.526,7.2129974c-0.0300007,0.0539989-0.0030012,0.1199999-0.0360003,0.1710005
	C12.4599991,7.420001,12.4000006,7.5310001,12.3909998,7.5310001z"/>
<path class="st5" d="M13.2640009,7.8189993c0.0059996,0.3210011-0.0479994,0.5639992-0.1230011,0.5460005
	C13.0660009,8.3499994,13.0030012,8.0770006,13,7.7559996s0.0510006-0.5639992,0.1230011-0.5460005
	C13.198,7.2280006,13.2609997,7.5009995,13.2640009,7.8189993z"/>
<path class="st9" d="M13.2640009,7.8189993c0.0059996,0.3210011-0.0479994,0.5639992-0.1230011,0.5460005
	C13.0660009,8.3499994,13.0030012,8.0770006,13,7.7559996s0.0510006-0.5639992,0.1230011-0.5460005
	C13.198,7.2280006,13.2609997,7.5009995,13.2640009,7.8189993z"/>
<path class="st5" d="M13.1199999,7.8129997c0.0689993,0.3239994,0.0689993,0.5939999,0,0.5999994
	c-0.0689993,0.0030012-0.1829996-0.2580013-0.2519989-0.5849991c-0.0689993-0.3239994-0.0689993-0.5939999,0-0.5970011
	C12.9370003,7.2280006,13.0510006,7.4859991,13.1199999,7.8129997z"/>
<path class="st9" d="M13.1199999,7.8129997c0.0689993,0.3239994,0.0689993,0.5939999,0,0.5999994
	c-0.0689993,0.0030012-0.1829996-0.2580013-0.2519989-0.5849991c-0.0689993-0.3239994-0.0689993-0.5939999,0-0.5970011
	C12.9370003,7.2280006,13.0510006,7.4859991,13.1199999,7.8129997z"/>
<path class="st5" d="M12.6669998,7.9539995c0.2550001,0.1739988,0.4470005,0.375,0.4229994,0.4470005
	s-0.2519989-0.0090008-0.5100002-0.1800013c-0.2550001-0.1739988-0.4470005-0.375-0.4229994-0.4470005
	C12.1839991,7.6989994,12.4119997,7.782999,12.6669998,7.9539995z"/>
<path class="st9" d="M12.6669998,7.9539995c0.2550001,0.1739988,0.4470005,0.375,0.4229994,0.4470005
	s-0.2519989-0.0090008-0.5100002-0.1800013c-0.2550001-0.1739988-0.4470005-0.375-0.4229994-0.4470005
	C12.1839991,7.6989994,12.4119997,7.782999,12.6669998,7.9539995z"/>
<path class="st5" d="M12.7600002,7.8249989c0.2130003,0.2550001,0.3449993,0.506999,0.3000011,0.5610008
	c-0.045001,0.0539989-0.2519989-0.1109991-0.4680004-0.3690004c-0.2130003-0.2550001-0.3449993-0.506999-0.3000011-0.5610008
	C12.3399992,7.4050007,12.5500011,7.5699987,12.7600002,7.8249989z"/>
<path class="st9" d="M12.7600002,7.8249989c0.2130003,0.2550001,0.3449993,0.506999,0.3000011,0.5610008
	c-0.045001,0.0539989-0.2519989-0.1109991-0.4680004-0.3690004c-0.2130003-0.2550001-0.3449993-0.506999-0.3000011-0.5610008
	C12.3399992,7.4050007,12.5500011,7.5699987,12.7600002,7.8249989z"/>
<ellipse transform="matrix(0.8596558 -0.5108737 0.5108737 0.8596558 -2.220834 7.6634712)" class="st5" cx="12.8376665" cy="7.8738174" rx="0.1230074" ry="0.6150314"/>
<ellipse transform="matrix(0.8596558 -0.5108737 0.5108737 0.8596558 -2.220834 7.6634712)" class="st9" cx="12.8376665" cy="7.8738174" rx="0.1230074" ry="0.6150314"/>
<path class="st5" d="M13.0959988,8.4040012c0,0.0030012-0.1710005,0.0389986-0.2070007,0.0389986
	c-0.0360003,0.0030012-0.0720005-0.0749989-0.1800013-0.0539989c-0.1109991,0.0209999-0.2010012,0.0959988-0.2370014,0.144001
	s0.0090008,0.0899992,0.144001,0.0660009c0.1350002-0.0209999,0.1860008-0.1080008,0.2550001-0.1259995
	c0.0660009-0.0209999,0.177-0.0419998,0.2370014-0.045001c0.0360003-0.045001,0.1409998-0.1379986,0.1949987-0.1889992
	c0.0539989-0.0539989,0.2399998-0.1109991,0.3239994-0.2220011c0.0749989-0.0899992,0.0780001-0.1829996,0-0.1710005
	c-0.0749989,0.0179987-0.1860008,0.0959988-0.2459993,0.1590014c-0.0570002,0.0629997-0.045001,0.1739988-0.1080008,0.230999
	C13.2280006,8.2779989,13.1049995,8.4069996,13.0959988,8.4040012z"/>
<path class="st10" d="M13.0959988,8.4040012c0,0.0030012-0.1710005,0.0389986-0.2070007,0.0389986
	c-0.0360003,0.0030012-0.0720005-0.0749989-0.1800013-0.0539989c-0.1109991,0.0209999-0.2010012,0.0959988-0.2370014,0.144001
	s0.0090008,0.0899992,0.144001,0.0660009c0.1350002-0.0209999,0.1860008-0.1080008,0.2550001-0.1259995
	c0.0660009-0.0209999,0.177-0.0419998,0.2370014-0.045001c0.0360003-0.045001,0.1409998-0.1379986,0.1949987-0.1889992
	c0.0539989-0.0539989,0.2399998-0.1109991,0.3239994-0.2220011c0.0749989-0.0899992,0.0780001-0.1829996,0-0.1710005
	c-0.0749989,0.0179987-0.1860008,0.0959988-0.2459993,0.1590014c-0.0570002,0.0629997-0.045001,0.1739988-0.1080008,0.230999
	C13.2280006,8.2779989,13.1049995,8.4069996,13.0959988,8.4040012z"/>
<path class="st5" d="M13.7230005,8.9890003c-0.0539989,0.3179998-0.1529989,0.5489988-0.2189999,0.519001
	c-0.0660009-0.032999-0.0810013-0.3149986-0.0269995-0.6300001c0.0539989-0.3179998,0.1529989-0.5489988,0.2189999-0.519001
	C13.7650003,8.3890009,13.7800007,8.6710005,13.7230005,8.9890003z"/>
<path class="st9" d="M13.7230005,8.9890003c-0.0539989,0.3179998-0.1529989,0.5489988-0.2189999,0.519001
	c-0.0660009-0.032999-0.0810013-0.3149986-0.0269995-0.6300001c0.0539989-0.3179998,0.1529989-0.5489988,0.2189999-0.519001
	C13.7650003,8.3890009,13.7800007,8.6710005,13.7230005,8.9890003z"/>
<path class="st5" d="M13.5820007,8.9560013C13.5910015,9.2920027,13.5460005,9.5560007,13.474,9.5469999
	c-0.0689993-0.0119991-0.131999-0.2910004-0.1409998-0.6240005C13.3239994,8.586998,13.3719988,8.323,13.4410009,8.3320007
	C13.5100002,8.3380003,13.573,8.6169987,13.5820007,8.9560013z"/>
<path class="st9" d="M13.5820007,8.9560013C13.5910015,9.2920027,13.5460005,9.5560007,13.474,9.5469999
	c-0.0689993-0.0119991-0.131999-0.2910004-0.1409998-0.6240005C13.3239994,8.586998,13.3719988,8.323,13.4410009,8.3320007
	C13.5100002,8.3380003,13.573,8.6169987,13.5820007,8.9560013z"/>
<path class="st5" d="M13.1169987,9.006999c0.2220011,0.2220011,0.3690004,0.4560013,0.3330002,0.5219994
	c-0.0360003,0.0689993-0.2459993-0.0570002-0.4680004-0.276c-0.2220011-0.2220011-0.3690004-0.4560013-0.3330002-0.5219994
	C12.6879997,8.6619997,12.8979988,8.7879992,13.1169987,9.006999z"/>
<path class="st9" d="M13.1169987,9.006999c0.2220011,0.2220011,0.3690004,0.4560013,0.3330002,0.5219994
	c-0.0360003,0.0689993-0.2459993-0.0570002-0.4680004-0.276c-0.2220011-0.2220011-0.3690004-0.4560013-0.3330002-0.5219994
	C12.6879997,8.6619997,12.8979988,8.7879992,13.1169987,9.006999z"/>
<path class="st5" d="M13.2280006,8.8959999c0.1619997,0.2939987,0.2490005,0.5670004,0.1920004,0.6120014
	C13.3660021,9.5500011,13.1920004,9.349,13.0300007,9.0550013s-0.2490005-0.5670004-0.1920004-0.6119986
	C12.8950005,8.401,13.0660009,8.6020012,13.2280006,8.8959999z"/>
<path class="st9" d="M13.2280006,8.8959999c0.1619997,0.2939987,0.2490005,0.5670004,0.1920004,0.6120014
	C13.3660021,9.5500011,13.1920004,9.349,13.0300007,9.0550013s-0.2490005-0.5670004-0.1920004-0.6119986
	C12.8950005,8.401,13.0660009,8.6020012,13.2280006,8.8959999z"/>
<ellipse transform="matrix(0.9405299 -0.3397108 0.3397108 0.9405299 -2.2526982 5.0484495)" class="st5" cx="13.292779" cy="8.9582682" rx="0.1199961" ry="0.6179813"/>
<ellipse transform="matrix(0.9405299 -0.3397108 0.3397108 0.9405299 -2.2526982 5.0484495)" class="st9" cx="13.292779" cy="8.9582682" rx="0.1199961" ry="0.6179813"/>
<path class="st5" d="M13.4530001,9.5319996c0,0.0030012-0.177,0.0059996-0.2099991,0
	C13.2070007,9.526,13.189002,9.4449987,13.0750017,9.4449987s-0.2159986,0.0539989-0.2580013,0.099
	s-0.0059996,0.0899992,0.1290007,0.0959988s0.2010012-0.0689993,0.2700005-0.0749989s0.1800013-0.0090008,0.2399998,0
	C13.4980011,9.526,13.618001,9.4569979,13.6840019,9.4149981c0.0629997-0.0419998,0.2519989-0.0660009,0.3599997-0.1560001
	c0.0899992-0.0749989,0.1080008-0.1710005,0.032999-0.1679993c-0.0780001,0-0.198,0.0570002-0.2669992,0.1080008
	s-0.0749989,0.1619997-0.1469994,0.2039995C13.605999,9.4329996,13.4620008,9.5350008,13.4530001,9.5319996z"/>
<path class="st10" d="M13.4530001,9.5319996c0,0.0030012-0.177,0.0059996-0.2099991,0
	C13.2070007,9.526,13.189002,9.4449987,13.0750017,9.4449987s-0.2159986,0.0539989-0.2580013,0.099
	s-0.0059996,0.0899992,0.1290007,0.0959988s0.2010012-0.0689993,0.2700005-0.0749989s0.1800013-0.0090008,0.2399998,0
	C13.4980011,9.526,13.618001,9.4569979,13.6840019,9.4149981c0.0629997-0.0419998,0.2519989-0.0660009,0.3599997-0.1560001
	c0.0899992-0.0749989,0.1080008-0.1710005,0.032999-0.1679993c-0.0780001,0-0.198,0.0570002-0.2669992,0.1080008
	s-0.0749989,0.1619997-0.1469994,0.2039995C13.605999,9.4329996,13.4620008,9.5350008,13.4530001,9.5319996z"/>
<path class="st5" d="M13.7590008,10.2939987c-0.1710005,0.2700005-0.3480005,0.4470005-0.3990011,0.3900003
	c-0.0479994-0.0570002,0.0479994-0.3239994,0.2220011-0.5970011c0.1710005-0.2700005,0.3509989-0.4470005,0.3990011-0.3900003
	S13.927,10.0209999,13.7590008,10.2939987z"/>
<path class="st9" d="M13.7590008,10.2939987c-0.1710005,0.2700005-0.3480005,0.4470005-0.3990011,0.3900003
	c-0.0479994-0.0570002,0.0479994-0.3239994,0.2220011-0.5970011c0.1710005-0.2700005,0.3509989-0.4470005,0.3990011-0.3900003
	S13.927,10.0209999,13.7590008,10.2939987z"/>
<path class="st5" d="M13.6419992,10.2039995c-0.1199999,0.3149986-0.2669992,0.5400009-0.3239994,0.5040007
	s-0.0090008-0.3239994,0.1140003-0.6390009C13.552,9.7509995,13.6989994,9.5289984,13.7559996,9.5679998
	C13.8189993,9.6040001,13.7679987,9.8890009,13.6419992,10.2039995z"/>
<path class="st9" d="M13.6419992,10.2039995c-0.1199999,0.3149986-0.2669992,0.5400009-0.3239994,0.5040007
	s-0.0090008-0.3239994,0.1140003-0.6390009C13.552,9.7509995,13.6989994,9.5289984,13.7559996,9.5679998
	C13.8189993,9.6040001,13.7679987,9.8890009,13.6419992,10.2039995z"/>
<path class="st5" d="M13.2010012,10.0600014c0.1140003,0.2969999,0.1590014,0.573,0.099,0.6209993
	S13.099,10.5280018,12.9850025,10.2310019c-0.1140003-0.2969999-0.1590014-0.573-0.099-0.6209993
	C12.9460011,9.5620003,13.0870008,9.7629986,13.2010012,10.0600014z"/>
<path class="st9" d="M13.2010012,10.0600014c0.1140003,0.2969999,0.1590014,0.573,0.099,0.6209993
	S13.099,10.5280018,12.9850025,10.2310019c-0.1140003-0.2969999-0.1590014-0.573-0.099-0.6209993
	C12.9460011,9.5620003,13.0870008,9.7629986,13.2010012,10.0600014z"/>
<path class="st5" d="M13.3480005,10.0059996c0.032999,0.3389997,0.0030012,0.6269989-0.0629997,0.6479988
	s-0.1469994-0.243001-0.1800013-0.5820007c-0.032999-0.3389997-0.0030012-0.6300001,0.0629997-0.6479988
	S13.3149986,9.6669998,13.3480005,10.0059996z"/>
<path class="st9" d="M13.3480005,10.0059996c0.032999,0.3389997,0.0030012,0.6269989-0.0629997,0.6479988
	s-0.1469994-0.243001-0.1800013-0.5820007c-0.032999-0.3389997-0.0030012-0.6300001,0.0629997-0.6479988
	S13.3149986,9.6669998,13.3480005,10.0059996z"/>
<ellipse class="st5" cx="13.3809996" cy="10.0870008" rx="0.1199999" ry="0.6269989"/>
<ellipse class="st9" cx="13.3809996" cy="10.0870008" rx="0.1199999" ry="0.6269989"/>
<path class="st5" d="M13.3029995,10.6839991c0,0.0030012-0.1619997-0.0660009-0.1889992-0.0870008
	c-0.032999-0.0209999-0.0179987-0.1049995-0.1169987-0.1500006c-0.1020012-0.0479994-0.2159986-0.0360003-0.2700005-0.0179987
	c-0.0539989,0.0209999-0.0389986,0.0810013,0.0810013,0.1409998c0.1199999,0.0600014,0.2099991,0.0209999,0.276,0.0419998
	c0.0629997,0.0240011,0.1679993,0.0660009,0.2159986,0.1020012c0.0539989-0.0179987,0.1889992-0.0360003,0.2640009-0.045001
	c0.0749989-0.0119991,0.2550001,0.0419998,0.3869991,0.0030012c0.1080008-0.032999,0.1650009-0.1109991,0.0959988-0.144001
	c-0.0689993-0.032999-0.2039995-0.0300007-0.2850008-0.0119991c-0.0810013,0.0209999-0.1290007,0.1169987-0.2130003,0.1290007
	C13.4799995,10.6569996,13.3089991,10.6929998,13.3029995,10.6839991z"/>
<path class="st10" d="M13.3029995,10.6839991c0,0.0030012-0.1619997-0.0660009-0.1889992-0.0870008
	c-0.032999-0.0209999-0.0179987-0.1049995-0.1169987-0.1500006c-0.1020012-0.0479994-0.2159986-0.0360003-0.2700005-0.0179987
	c-0.0539989,0.0209999-0.0389986,0.0810013,0.0810013,0.1409998c0.1199999,0.0600014,0.2099991,0.0209999,0.276,0.0419998
	c0.0629997,0.0240011,0.1679993,0.0660009,0.2159986,0.1020012c0.0539989-0.0179987,0.1889992-0.0360003,0.2640009-0.045001
	c0.0749989-0.0119991,0.2550001,0.0419998,0.3869991,0.0030012c0.1080008-0.032999,0.1650009-0.1109991,0.0959988-0.144001
	c-0.0689993-0.032999-0.2039995-0.0300007-0.2850008-0.0119991c-0.0810013,0.0209999-0.1290007,0.1169987-0.2130003,0.1290007
	C13.4799995,10.6569996,13.3089991,10.6929998,13.3029995,10.6839991z"/>
<path class="st5" d="M13.407999,11.6169987c-0.2790012,0.2399998-0.5340014,0.3659992-0.5670004,0.2850008
	c-0.0360003-0.0810013,0.1619997-0.3389997,0.4379997-0.5760012c0.2790012-0.2399998,0.5340014-0.3659992,0.5670004-0.2850008
	C13.8790007,11.1190004,13.6839991,11.3800001,13.407999,11.6169987z"/>
<path class="st11" d="M13.407999,11.6169987c-0.2790012,0.2399998-0.5340014,0.3659992-0.5670004,0.2850008
	c-0.0360003-0.0810013,0.1619997-0.3389997,0.4379997-0.5760012c0.2790012-0.2399998,0.5340014-0.3659992,0.5670004-0.2850008
	C13.8790007,11.1190004,13.6839991,11.3800001,13.407999,11.6169987z"/>
<path class="st5" d="M13.3120003,11.4759989c-0.2399998,0.3060007-0.4709988,0.5009995-0.5250006,0.4379997
	c-0.0510006-0.0629997,0.099-0.3599997,0.3360014-0.6660004c0.2399998-0.3060007,0.4709988-0.5009995,0.5250006-0.4379997
	C13.6989994,10.8759995,13.5489988,11.1729994,13.3120003,11.4759989z"/>
<path class="st11" d="M13.3120003,11.4759989c-0.2399998,0.3060007-0.4709988,0.5009995-0.5250006,0.4379997
	c-0.0510006-0.0629997,0.099-0.3599997,0.3360014-0.6660004c0.2399998-0.3060007,0.4709988-0.5009995,0.5250006-0.4379997
	C13.6989994,10.8759995,13.5489988,11.1729994,13.3120003,11.4759989z"/>
<path class="st5" d="M12.8709993,11.157999c0.0300007,0.3690004-0.0150003,0.6899986-0.0959988,0.7199993
	c-0.0810013,0.032999-0.1710005-0.243001-0.198-0.6120014s0.0150003-0.6899986,0.099-0.7230005
	C12.7540007,10.5159998,12.8439999,10.7889986,12.8709993,11.157999z"/>
<path class="st11" d="M12.8709993,11.157999c0.0300007,0.3690004-0.0150003,0.6899986-0.0959988,0.7199993
	c-0.0810013,0.032999-0.1710005-0.243001-0.198-0.6120014s0.0150003-0.6899986,0.099-0.7230005
	C12.7540007,10.5159998,12.8439999,10.7889986,12.8709993,11.157999z"/>
<path class="st5" d="M13.0479994,11.1490011c-0.0780001,0.3869991-0.2039995,0.6929998-0.2819996,0.6899986
	s-0.0810013-0.3210011-0.0030012-0.704999c0.0780001-0.3869991,0.2010012-0.6929998,0.2819996-0.6899986
	C13.1230011,10.4470005,13.1259995,10.7619991,13.0479994,11.1490011z"/>
<path class="st11" d="M13.0479994,11.1490011c-0.0780001,0.3869991-0.2039995,0.6929998-0.2819996,0.6899986
	s-0.0810013-0.3210011-0.0030012-0.704999c0.0780001-0.3869991,0.2010012-0.6929998,0.2819996-0.6899986
	C13.1230011,10.4470005,13.1259995,10.7619991,13.0479994,11.1490011z"/>
<ellipse transform="matrix(0.3823989 -0.9239973 0.9239973 0.3823989 -2.3324463 19.0199833)" class="st5" cx="13.0617418" cy="11.2547865" rx="0.7230026" ry="0.1410002"/>
<ellipse transform="matrix(0.3823989 -0.9239973 0.9239973 0.3823989 -2.3324463 19.0199833)" class="st11" cx="13.0617418" cy="11.2547865" rx="0.7230026" ry="0.1410002"/>
<path class="st5" d="M12.7750006,11.8869991c-0.0030012,0.0030012-0.1560001-0.131999-0.1800013-0.1650009
	c-0.0300007-0.0360003,0.0150003-0.1199999-0.0810013-0.2099991c-0.099-0.0899992-0.2249994-0.1199999-0.2939987-0.1140003
	C12.151,11.401,12.1479988,11.4729977,12.2589979,11.5809984s0.2249994,0.099,0.2879992,0.1469994
	s0.1619997,0.1350002,0.2039995,0.1889992c0.0660009,0,0.2189999,0.032999,0.3060007,0.0419998
	c0.0870008,0.0150003,0.2640009,0.1409998,0.4229994,0.144001c0.131999,0.0059996,0.2159986-0.0629997,0.1500006-0.1230011
	c-0.0660009-0.0600014-0.2130003-0.1080008-0.3120003-0.1140003c-0.0959988-0.0090008-0.1800013,0.0839996-0.276,0.0660009
	C12.9820013,11.9139986,12.7779989,11.8959999,12.7750006,11.8869991z"/>
<path class="st12" d="M12.7750006,11.8869991c-0.0030012,0.0030012-0.1560001-0.131999-0.1800013-0.1650009
	c-0.0300007-0.0360003,0.0150003-0.1199999-0.0810013-0.2099991c-0.099-0.0899992-0.2249994-0.1199999-0.2939987-0.1140003
	C12.151,11.401,12.1479988,11.4729977,12.2589979,11.5809984s0.2249994,0.099,0.2879992,0.1469994
	s0.1619997,0.1350002,0.2039995,0.1889992c0.0660009,0,0.2189999,0.032999,0.3060007,0.0419998
	c0.0870008,0.0150003,0.2640009,0.1409998,0.4229994,0.144001c0.131999,0.0059996,0.2159986-0.0629997,0.1500006-0.1230011
	c-0.0660009-0.0600014-0.2130003-0.1080008-0.3120003-0.1140003c-0.0959988-0.0090008-0.1800013,0.0839996-0.276,0.0660009
	C12.9820013,11.9139986,12.7779989,11.8959999,12.7750006,11.8869991z"/>
<path class="st5" d="M12.4990005,12.7719994c-0.3959999,0.0660009-0.7139997,0.0389986-0.7020006-0.0570002
	c0.0090008-0.099,0.3389997-0.2280006,0.7409992-0.2939987c0.3959999-0.0660009,0.7139997-0.0389986,0.7020006,0.0570002
	S12.8979988,12.7060013,12.4990005,12.7719994z"/>
<path class="st13" d="M12.4990005,12.7719994c-0.3959999,0.0660009-0.7139997,0.0389986-0.7020006-0.0570002
	c0.0090008-0.099,0.3389997-0.2280006,0.7409992-0.2939987c0.3959999-0.0660009,0.7139997-0.0389986,0.7020006,0.0570002
	S12.8979988,12.7060013,12.4990005,12.7719994z"/>
<path class="st5" d="M12.4840002,12.5860014c-0.3959999,0.1529989-0.7290001,0.2010012-0.7469988,0.1109991
	c-0.0179987-0.0899992,0.2910004-0.2850008,0.6870003-0.4379997s0.7290001-0.2010012,0.7469988-0.1109991
	C13.1889992,12.2380009,12.8800001,12.4329996,12.4840002,12.5860014z"/>
<path class="st13" d="M12.4840002,12.5860014c-0.3959999,0.1529989-0.7290001,0.2010012-0.7469988,0.1109991
	c-0.0179987-0.0899992,0.2910004-0.2850008,0.6870003-0.4379997s0.7290001-0.2010012,0.7469988-0.1109991
	C13.1889992,12.2380009,12.8800001,12.4329996,12.4840002,12.5860014z"/>
<path class="st5" d="M12.2349997,12.0279989c-0.1739988,0.3659992-0.3929987,0.6479988-0.4859991,0.6300001
	c-0.0959988-0.0179987-0.032999-0.3270006,0.1409998-0.6929998s0.3929987-0.6479988,0.4859991-0.6300001
	S12.4090014,11.6619997,12.2349997,12.0279989z"/>
<path class="st13" d="M12.2349997,12.0279989c-0.1739988,0.3659992-0.3929987,0.6479988-0.4859991,0.6300001
	c-0.0959988-0.0179987-0.032999-0.3270006,0.1409998-0.6929998s0.3929987-0.6479988,0.4859991-0.6300001
	S12.4090014,11.6619997,12.2349997,12.0279989z"/>
<path class="st5" d="M12.4090014,12.1209993c-0.2850008,0.3239994-0.5760012,0.5429993-0.651,0.4949999
	s0.0959988-0.3509989,0.3809996-0.6719999c0.2850008-0.3239994,0.5760012-0.5429993,0.651-0.4949999
	C12.8620014,11.4969988,12.6939993,11.8000011,12.4090014,12.1209993z"/>
<path class="st13" d="M12.4090014,12.1209993c-0.2850008,0.3239994-0.5760012,0.5429993-0.651,0.4949999
	s0.0959988-0.3509989,0.3809996-0.6719999c0.2850008-0.3239994,0.5760012-0.5429993,0.651-0.4949999
	C12.8620014,11.4969988,12.6939993,11.8000011,12.4090014,12.1209993z"/>
<ellipse transform="matrix(0.7951378 -0.6064289 0.6064289 0.7951378 -4.8801022 10.0031099)" class="st5" cx="12.3654451" cy="12.2245426" rx="0.788964" ry="0.1589938"/>
<ellipse transform="matrix(0.7951378 -0.6064289 0.6064289 0.7951378 -4.8801022 10.0031099)" class="st13" cx="12.3654451" cy="12.2245426" rx="0.788964" ry="0.1589938"/>
<path class="st5" d="M11.7459993,12.6639986c-0.0030012,0.0030012-0.0780001-0.2130003-0.0870008-0.2609997
	s0.0810013-0.1080008,0.0360003-0.2459993c-0.0419998-0.1409998-0.1529989-0.2459993-0.2189999-0.2790012
	c-0.0660009-0.0360003-0.1080008,0.0300007-0.0600014,0.198s0.1650009,0.2249994,0.198,0.3060007
	c0.0360003,0.0839996,0.0839996,0.2220011,0.0959988,0.3000011c0.0629997,0.0389986,0.1949987,0.1590014,0.2700005,0.2189999
	c0.0749989,0.0600014,0.1800013,0.2879992,0.329999,0.3809996c0.1230011,0.0810013,0.2459993,0.0629997,0.2130003-0.032999
	s-0.1500006-0.2249994-0.2370014-0.2879992c-0.0899992-0.0629997-0.2220011-0.0300007-0.3029995-0.099
	C11.9229994,12.8110008,11.743001,12.6789989,11.7459993,12.6639986z"/>
<path class="st14" d="M11.7459993,12.6639986c-0.0030012,0.0030012-0.0780001-0.2130003-0.0870008-0.2609997
	s0.0810013-0.1080008,0.0360003-0.2459993c-0.0419998-0.1409998-0.1529989-0.2459993-0.2189999-0.2790012
	c-0.0660009-0.0360003-0.1080008,0.0300007-0.0600014,0.198s0.1650009,0.2249994,0.198,0.3060007
	c0.0360003,0.0839996,0.0839996,0.2220011,0.0959988,0.3000011c0.0629997,0.0389986,0.1949987,0.1590014,0.2700005,0.2189999
	c0.0749989,0.0600014,0.1800013,0.2879992,0.329999,0.3809996c0.1230011,0.0810013,0.2459993,0.0629997,0.2130003-0.032999
	s-0.1500006-0.2249994-0.2370014-0.2879992c-0.0899992-0.0629997-0.2220011-0.0300007-0.3029995-0.099
	C11.9229994,12.8110008,11.743001,12.6789989,11.7459993,12.6639986z"/>
<ellipse class="st5" cx="11.3110008" cy="13.2070007" rx="0.7409992" ry="0.2130003"/>
<ellipse class="st15" cx="11.3110008" cy="13.2070007" rx="0.7409992" ry="0.2130003"/>
<path class="st5" d="M11.2089996,12.756999c-0.2580013,0.3330002-0.5400009,0.5460005-0.6269989,0.474
	c-0.0870008-0.0720005,0.0510006-0.4019995,0.3120003-0.7380009s0.5400009-0.5460005,0.6269989-0.474
	C11.6109991,12.0909986,11.4699993,12.4210005,11.2089996,12.756999z"/>
<path class="st15" d="M11.2089996,12.756999c-0.2580013,0.3330002-0.5400009,0.5460005-0.6269989,0.474
	c-0.0870008-0.0720005,0.0510006-0.4019995,0.3120003-0.7380009s0.5400009-0.5460005,0.6269989-0.474
	C11.6109991,12.0909986,11.4699993,12.4210005,11.2089996,12.756999z"/>
<path class="st5" d="M11.3170004,13.0959988c-0.3809996,0.1650009-0.7230005,0.2099991-0.7619991,0.1020012
	s0.2340002-0.3270006,0.6119986-0.4919987c0.3809996-0.1650009,0.7230005-0.2099991,0.7619991-0.1020012
	S11.6949987,12.9310007,11.3170004,13.0959988z"/>
<path class="st15" d="M11.3170004,13.0959988c-0.3809996,0.1650009-0.7230005,0.2099991-0.7619991,0.1020012
	s0.2340002-0.3270006,0.6119986-0.4919987c0.3809996-0.1650009,0.7230005-0.2099991,0.7619991-0.1020012
	S11.6949987,12.9310007,11.3170004,13.0959988z"/>
<path class="st5" d="M11.5179987,6.6459999C11.7039995,6.8139992,11.8210011,6.9730005,11.7700005,7
	c-0.0479994,0.0269995-0.2399998-0.0899992-0.4289989-0.2580013c-0.1860008-0.1710005-0.3029995-0.3270006-0.2519989-0.3540001
	C11.1369991,6.3609991,11.3289995,6.4749994,11.5179987,6.6459999z"/>
<path class="st16" d="M11.5179987,6.6459999C11.7039995,6.8139992,11.8210011,6.9730005,11.7700005,7
	c-0.0479994,0.0269995-0.2399998-0.0899992-0.4289989-0.2580013c-0.1860008-0.1710005-0.3029995-0.3270006-0.2519989-0.3540001
	C11.1369991,6.3609991,11.3289995,6.4749994,11.5179987,6.6459999z"/>
<path class="st5" d="M11.2900009,6.8380003c0.2519989,0.0360003,0.4680004,0.1049995,0.4770012,0.1560001
	s-0.1889992,0.0689993-0.4439993,0.0360003s-0.4680004-0.1049995-0.4799995-0.1560001
	C10.8339996,6.8199987,11.0350008,6.802,11.2900009,6.8380003z"/>
<path class="st16" d="M11.2900009,6.8380003c0.2519989,0.0360003,0.4680004,0.1049995,0.4770012,0.1560001
	s-0.1889992,0.0689993-0.4439993,0.0360003s-0.4680004-0.1049995-0.4799995-0.1560001
	C10.8339996,6.8199987,11.0350008,6.802,11.2900009,6.8380003z"/>
<ellipse transform="matrix(0.521903 -0.8530049 0.8530049 0.521903 -0.3771969 12.9151573)" class="st5" cx="11.332799" cy="6.7940698" rx="0.0899987" ry="0.4859963"/>
<ellipse transform="matrix(0.521903 -0.8530049 0.8530049 0.521903 -0.3771969 12.9151573)" class="st16" cx="11.332799" cy="6.7940698" rx="0.0899987" ry="0.4859963"/>
<path class="st5" d="M8.0379992,12.6999989c0,0,0.6209993,0.131999,1.1610003,0.3270006
	c0.5400009,0.1949987,1.3590002,0.8699999,1.5810013,0.9060001c0.2490005,0.0119991,0.5909986-0.0720005,0.7199993-0.4289989
	c-0.3809996,0.1020012-0.6120014,0.2550001-0.9720011,0.0570002c-0.1290007-0.0479994-0.5489988-0.4320002-1.0109997-0.6359997
	S8.125,12.4870014,8.125,12.4870014L8.0379992,12.6999989z"/>
<path class="st17" d="M8.0379992,12.6999989c0,0,0.6209993,0.131999,1.1610003,0.3270006
	c0.5400009,0.1949987,1.3590002,0.8699999,1.5810013,0.9060001c0.2490005,0.0119991,0.5909986-0.0720005,0.7199993-0.4289989
	c-0.3809996,0.1020012-0.6120014,0.2550001-0.9720011,0.0570002c-0.1290007-0.0479994-0.5489988-0.4320002-1.0109997-0.6359997
	S8.125,12.4870014,8.125,12.4870014L8.0379992,12.6999989z"/>
<polygon class="st5" points="8.7010012,7.0839996 9.4179993,6.7089996 8.6290007,6.9100008 8.5360003,7.0479994 "/>
<polygon class="st16" points="8.7010012,7.0839996 9.4179993,6.7089996 8.6290007,6.9100008 8.5360003,7.0479994 "/>
<path class="st5" d="M9.381999,7.2580013C9.1030006,7.2099991,8.677,7.1140003,8.4069996,7.0930004
	c0.1860008-0.2070007,0.4470005-0.5579996,0.605999-0.7740011C8.9050007,6.526,8.7399998,6.7960005,8.677,6.9940004
	C8.8690004,7.0959988,9.1689987,7.177,9.381999,7.2580013z"/>
<path class="st16" d="M9.381999,7.2580013C9.1030006,7.2099991,8.677,7.1140003,8.4069996,7.0930004
	c0.1860008-0.2070007,0.4470005-0.5579996,0.605999-0.7740011C8.9050007,6.526,8.7399998,6.7960005,8.677,6.9940004
	C8.8690004,7.0959988,9.1689987,7.177,9.381999,7.2580013z"/>
<polygon class="st5" points="8.5749989,7.1290007 9.2080002,6.6369991 8.4699993,6.967001 8.4040012,7.1199999 "/>
<polygon class="st16" points="8.5749989,7.1290007 9.2080002,6.6369991 8.4699993,6.967001 8.4040012,7.1199999 "/>
<path class="st5" d="M9.25,7.2519989C8.974,7.2010012,8.545001,7.099,8.2719994,7.0780001
	C8.454999,6.8649998,8.7099991,6.5019989,8.8659992,6.2800007C8.7609997,6.493001,8.6020012,6.7719994,8.5389986,6.9759989
	C8.7370014,7.0839996,9.0369997,7.1650009,9.25,7.2519989z"/>
<path class="st18" d="M9.25,7.2519989C8.974,7.2010012,8.545001,7.099,8.2719994,7.0780001
	C8.454999,6.8649998,8.7099991,6.5019989,8.8659992,6.2800007C8.7609997,6.493001,8.6020012,6.7719994,8.5389986,6.9759989
	C8.7370014,7.0839996,9.0369997,7.1650009,9.25,7.2519989z"/>
<polygon class="st5" points="8.467001,7.1679993 9.217001,6.855999 8.4100008,6.9880009 8.3079996,7.1169987 "/>
<polygon class="st16" points="8.467001,7.1679993 9.217001,6.855999 8.4100008,6.9880009 8.3079996,7.1169987 "/>
<path class="st5" d="M9.1689987,7.2580013C8.8840008,7.2340002,8.4520006,7.1800013,8.1789989,7.1889992
	c0.1590014-0.2399998,0.3630009-0.6330013,0.4919987-0.8759995C8.5959988,6.5410004,8.4699993,6.8409986,8.4339991,7.0539989
	C8.6379986,7.1409998,8.9470005,7.1949987,9.1689987,7.2580013z"/>
<path class="st19" d="M9.1689987,7.2580013C8.8840008,7.2340002,8.4520006,7.1800013,8.1789989,7.1889992
	c0.1590014-0.2399998,0.3630009-0.6330013,0.4919987-0.8759995C8.5959988,6.5410004,8.4699993,6.8409986,8.4339991,7.0539989
	C8.6379986,7.1409998,8.9470005,7.1949987,9.1689987,7.2580013z"/>
<polygon class="st5" points="8.3919992,7.1710005 8.8990011,6.5560007 8.256999,7.032999 8.2270012,7.198 "/>
<polygon class="st16" points="8.3919992,7.1710005 8.8990011,6.5560007 8.256999,7.032999 8.2270012,7.198 "/>
<path class="st5" d="M9.1660004,7.3000011C8.8630009,7.2939987,8.3919992,7.2669992,8.1040001,7.2939987
	c0.144001-0.2700005,0.3239994-0.717001,0.4350014-0.9899998c-0.0570002,0.2520018-0.1590014,0.5880003-0.177,0.8250017
	C8.5870008,7.2099991,8.920001,7.243001,9.1660004,7.3000011z"/>
<path class="st20" d="M9.1660004,7.3000011C8.8630009,7.2939987,8.3919992,7.2669992,8.1040001,7.2939987
	c0.144001-0.2700005,0.3239994-0.717001,0.4350014-0.9899998c-0.0570002,0.2520018-0.1590014,0.5880003-0.177,0.8250017
	C8.5870008,7.2099991,8.920001,7.243001,9.1660004,7.3000011z"/>
<polygon class="st5" points="8.2900009,7.3179998 8.9050007,6.7270012 8.1610003,7.1409998 8.1070013,7.3149986 "/>
<polygon class="st20" points="8.2900009,7.3179998 8.9050007,6.7270012 8.1610003,7.1409998 8.1070013,7.3149986 "/>
<path class="st5" d="M9.0279989,7.3179998c-0.3239994,0-0.8249989-0.0179987-1.1400003,0.0209999
	c0.2099991-0.3029995,0.4949999-0.7979994,0.6750011-1.1040001C8.4489994,6.5140009,8.2659998,6.8919992,8.1970005,7.1529989
	C8.4250011,7.2340002,8.7790012,7.2669992,9.0279989,7.3179998z"/>
<path class="st21" d="M9.0279989,7.3179998c-0.3239994,0-0.8249989-0.0179987-1.1400003,0.0209999
	c0.2099991-0.3029995,0.4949999-0.7979994,0.6750011-1.1040001C8.4489994,6.5140009,8.2659998,6.8919992,8.1970005,7.1529989
	C8.4250011,7.2340002,8.7790012,7.2669992,9.0279989,7.3179998z"/>
<polygon class="st5" points="8.0830002,7.3630009 8.8690004,6.6970005 7.980999,7.1679993 7.8879986,7.3659992 "/>
<polygon class="st21" points="8.0830002,7.3630009 8.8690004,6.6970005 7.980999,7.1679993 7.8879986,7.3659992 "/>
<path class="st5" d="M8.9110003,7.3389997c-0.3210011,0.045001-0.8189993,0.099-1.1280012,0.1800013
	C7.948,7.1950016,8.1610003,6.6730022,8.2929993,6.3520012C8.2209988,6.6400003,8.092001,7.0300007,8.0620003,7.2939987
	C8.302,7.342001,8.6560001,7.3210011,8.9110003,7.3389997z"/>
<path class="st21" d="M8.9110003,7.3389997c-0.3210011,0.045001-0.8189993,0.099-1.1280012,0.1800013
	C7.948,7.1950016,8.1610003,6.6730022,8.2929993,6.3520012C8.2209988,6.6400003,8.092001,7.0300007,8.0620003,7.2939987
	C8.302,7.342001,8.6560001,7.3210011,8.9110003,7.3389997z"/>
<polygon class="st5" points="7.9780006,7.4949999 8.5839996,6.6519995 7.8280001,7.3389997 7.7889986,7.5460005 "/>
<polygon class="st21" points="7.9780006,7.4949999 8.5839996,6.6519995 7.8280001,7.3389997 7.7889986,7.5460005 "/>
<path class="st5" d="M8.7370014,7.4379997C8.4100008,7.4680004,7.9090014,7.4949999,7.5970011,7.5579996
	C7.7770023,7.243001,8.0230017,6.7299995,8.1730022,6.4179993C8.0800018,6.7030001,7.9330025,7.086998,7.8880014,7.3480005
	C8.1219988,7.407999,8.4790001,7.407999,8.7370014,7.4379997z"/>
<path class="st21" d="M8.7370014,7.4379997C8.4100008,7.4680004,7.9090014,7.4949999,7.5970011,7.5579996
	C7.7770023,7.243001,8.0230017,6.7299995,8.1730022,6.4179993C8.0800018,6.7030001,7.9330025,7.086998,7.8880014,7.3480005
	C8.1219988,7.407999,8.4790001,7.407999,8.7370014,7.4379997z"/>
<polygon class="st5" points="7.8699999,7.5820007 8.6409998,6.9160004 7.7650003,7.3869991 7.6750011,7.5849991 "/>
<polygon class="st21" points="7.8699999,7.5820007 8.6409998,6.9160004 7.7650003,7.3869991 7.6750011,7.5849991 "/>
<path class="st5" d="M8.6409998,7.4709988C8.3170004,7.5400009,7.8160009,7.6269989,7.5100002,7.7259989
	C7.6600008,7.3989983,7.849,6.8649998,7.9689999,6.5379992C7.9089985,6.8259983,7.8010006,7.2219982,7.7860003,7.4829979
	C8.0200005,7.5159998,8.3800001,7.474,8.6409998,7.4709988z"/>
<path class="st21" d="M8.6409998,7.4709988C8.3170004,7.5400009,7.8160009,7.6269989,7.5100002,7.7259989
	C7.6600008,7.3989983,7.849,6.8649998,7.9689999,6.5379992C7.9089985,6.8259983,7.8010006,7.2219982,7.7860003,7.4829979
	C8.0200005,7.5159998,8.3800001,7.474,8.6409998,7.4709988z"/>
<polygon class="st5" points="7.7380009,7.618001 8.2330008,6.7030001 7.5670004,7.4949999 7.5550013,7.7020006 "/>
<polygon class="st21" points="7.7380009,7.618001 8.2330008,6.7030001 7.5670004,7.4949999 7.5550013,7.7020006 "/>
<path class="st5" d="M8.6409998,7.5219994c-0.3480005,0.0899992-0.8880014,0.2070007-1.2120008,0.329999
	C7.552,7.4799995,7.6960011,6.8800001,7.7860003,6.5109997c-0.032999,0.3239994-0.1020012,0.7679987-0.0899992,1.0589991
	C7.9659986,7.5999994,8.3530006,7.5369997,8.6409998,7.5219994z"/>
<path class="st22" d="M8.6409998,7.5219994c-0.3480005,0.0899992-0.8880014,0.2070007-1.2120008,0.329999
	C7.552,7.4799995,7.6960011,6.8800001,7.7860003,6.5109997c-0.032999,0.3239994-0.1020012,0.7679987-0.0899992,1.0589991
	C7.9659986,7.5999994,8.3530006,7.5369997,8.6409998,7.5219994z"/>
<polygon class="st5" points="7.6419992,7.8280001 8.2629986,6.9129992 7.4680004,7.6540012 7.4379997,7.881999 "/>
<polygon class="st23" points="7.6419992,7.8280001 8.2629986,6.9129992 7.4680004,7.6540012 7.4379997,7.881999 "/>
<path class="st5" d="M8.5030012,7.6269989C8.1639986,7.7349997,7.6300001,7.8790007,7.3089991,8.0200005
	c0.1080008-0.3780012,0.2220011-0.9780006,0.2939987-1.3470011C7.5880003,7,7.5400009,7.4410009,7.5670004,7.7290001
	C7.8370008,7.7380009,8.2180004,7.6569996,8.5030012,7.6269989z"/>
<path class="st23" d="M8.5030012,7.6269989C8.1639986,7.7349997,7.6300001,7.8790007,7.3089991,8.0200005
	c0.1080008-0.3780012,0.2220011-0.9780006,0.2939987-1.3470011C7.5880003,7,7.5400009,7.4410009,7.5670004,7.7290001
	C7.8370008,7.7380009,8.2180004,7.6569996,8.5030012,7.6269989z"/>
<polygon class="st5" points="7.5159998,7.9630003 7.9899998,6.9489994 7.3179998,7.8220005 7.3210011,8.0560007 "/>
<polygon class="st23" points="7.5159998,7.9630003 7.9899998,6.9489994 7.3179998,7.8220005 7.3210011,8.0560007 "/>
<path class="st5" d="M8.3740005,7.7650003C8.0229988,7.8459988,7.4799995,7.948,7.1529989,8.0620003
	c0.1409998-0.3690004,0.3089991-0.9599991,0.4139986-1.323C7.519001,7.0629997,7.4320002,7.5009995,7.4320002,7.7889986
	C7.6989994,7.8220005,8.0889997,7.7709999,8.3740005,7.7650003z"/>
<path class="st23" d="M8.3740005,7.7650003C8.0229988,7.8459988,7.4799995,7.948,7.1529989,8.0620003
	c0.1409998-0.3690004,0.3089991-0.9599991,0.4139986-1.323C7.519001,7.0629997,7.4320002,7.5009995,7.4320002,7.7889986
	C7.6989994,7.8220005,8.0889997,7.7709999,8.3740005,7.7650003z"/>
<polygon class="st5" points="7.4050007,8.0589991 8.1760006,7.2700005 7.2700005,7.8549995 7.1949987,8.0770006 "/>
<polygon class="st23" points="7.4050007,8.0589991 8.1760006,7.2700005 7.2700005,7.8549995 7.1949987,8.0770006 "/>
<path class="st5" d="M8.2180004,7.9029989c-0.3449993,0.045001-0.881999,0.099-1.2089996,0.1800013
	c0.1619997-0.3599997,0.3599997-0.9420004,0.4859991-1.302c-0.0660009,0.3210011-0.1800013,0.7590008-0.198,1.0529995
	C7.5550013,7.894001,7.9389992,7.8790007,8.2180004,7.9029989z"/>
<path class="st23" d="M8.2180004,7.9029989c-0.3449993,0.045001-0.881999,0.099-1.2089996,0.1800013
	c0.1619997-0.3599997,0.3599997-0.9420004,0.4859991-1.302c-0.0660009,0.3210011-0.1800013,0.7590008-0.198,1.0529995
	C7.5550013,7.894001,7.9389992,7.8790007,8.2180004,7.9029989z"/>
<polygon class="st5" points="7.2519989,7.980999 7.7800007,6.9909992 7.0660009,7.8220005 7.0570002,8.0589991 "/>
<polygon class="st23" points="7.2519989,7.980999 7.7800007,6.9909992 7.0660009,7.8220005 7.0570002,8.0589991 "/>
<path class="st5" d="M8.2600002,7.7860003C7.881999,7.9420004,7.3000011,8.1550007,6.9460011,8.3439999
	C7.0600014,7.8969994,7.1830025,7.1920004,7.2609997,6.756999C7.2459993,7.1350002,7.198,7.651,7.2280006,7.980999
	C7.5219994,7.9720011,7.948,7.8430004,8.2600002,7.7860003z"/>
<path class="st24" d="M8.2600002,7.7860003C7.881999,7.9420004,7.3000011,8.1550007,6.9460011,8.3439999
	C7.0600014,7.8969994,7.1830025,7.1920004,7.2609997,6.756999C7.2459993,7.1350002,7.198,7.651,7.2280006,7.980999
	C7.5219994,7.9720011,7.948,7.8430004,8.2600002,7.7860003z"/>
<polygon class="st5" points="7.1800013,8.2810001 7.8070002,7.144001 6.9790001,8.1040001 6.9580002,8.3769989 "/>
<polygon class="st25" points="7.1800013,8.2810001 7.8070002,7.144001 6.9790001,8.1040001 6.9580002,8.3769989 "/>
<path class="st5" d="M8.1159992,7.927C7.7469988,8.0980005,7.1710005,8.3439999,6.8289995,8.5510006
	c0.0960016-0.4470005,0.1829996-1.1490011,0.243001-1.5810013C7.0749989,7.342001,7.0479994,7.8549995,7.0899992,8.1789989
	C7.3869991,8.1519995,7.8039989,8.0019989,8.1159992,7.927z"/>
<path class="st25" d="M8.1159992,7.927C7.7469988,8.0980005,7.1710005,8.3439999,6.8289995,8.5510006
	c0.0960016-0.4470005,0.1829996-1.1490011,0.243001-1.5810013C7.0749989,7.342001,7.0479994,7.8549995,7.0899992,8.1789989
	C7.3869991,8.1519995,7.8039989,8.0019989,8.1159992,7.927z"/>
<polygon class="st5" points="7.0539989,8.4520006 7.5129986,7.2280006 6.823,8.3199987 6.8409986,8.5870008 "/>
<polygon class="st25" points="7.0539989,8.4520006 7.5129986,7.2280006 6.823,8.3199987 6.8409986,8.5870008 "/>
<path class="st5" d="M7.9539995,8.026c-0.3659992,0.177-0.9420004,0.4260006-1.2839985,0.6359997
	C6.7630014,8.2149992,6.8500023,7.5129986,6.901,7.0809984c0.0059996,0.3690004-0.0209999,0.8820019,0.0300007,1.2060013
	C7.2280006,8.2600002,7.6450005,8.1040001,7.9539995,8.026z"/>
<path class="st25" d="M7.9539995,8.026c-0.3659992,0.177-0.9420004,0.4260006-1.2839985,0.6359997
	C6.7630014,8.2149992,6.8500023,7.5129986,6.901,7.0809984c0.0059996,0.3690004-0.0209999,0.8820019,0.0300007,1.2060013
	C7.2280006,8.2600002,7.6450005,8.1040001,7.9539995,8.026z"/>
<polygon class="st5" points="6.9489994,8.5959988 7.6600008,7.519001 6.7659998,8.401 6.724,8.6679993 "/>
<polygon class="st25" points="6.9489994,8.5959988 7.6600008,7.519001 6.7659998,8.401 6.724,8.6679993 "/>
<path class="st5" d="M7.9210005,7.9720011C7.5939999,8.2330008,7.0750017,8.6170015,6.7810001,8.9050007
	c0-0.4499989-0.0600014-1.1429987-0.099-1.5720005c0.0810013,0.3540001,0.1650009,0.849,0.2790012,1.1459999
	C7.2490005,8.3800001,7.6269989,8.125,7.9210005,7.9720011z"/>
<path class="st25" d="M7.9210005,7.9720011C7.5939999,8.2330008,7.0750017,8.6170015,6.7810001,8.9050007
	c0-0.4499989-0.0600014-1.1429987-0.099-1.5720005c0.0810013,0.3540001,0.1650009,0.849,0.2790012,1.1459999
	C7.2490005,8.3800001,7.6269989,8.125,7.9210005,7.9720011z"/>
<polygon class="st5" points="6.9849997,8.6529989 7.0660009,7.3599997 6.724,8.6140003 6.8199987,8.8509989 "/>
<polygon class="st25" points="6.9849997,8.6529989 7.0660009,7.3599997 6.724,8.6140003 6.8199987,8.8509989 "/>
<path class="st5" d="M7.8280001,8.092001c-0.3270006,0.2579985-0.849,0.6419992-1.1459999,0.927
	c0-0.4499989-0.0570002-1.1459999-0.0930004-1.5720005c0.0810013,0.3540001,0.1619997,0.8519983,0.276,1.1489983
	C7.1560001,8.4940004,7.5340014,8.2390003,7.8280001,8.092001z"/>
<path class="st25" d="M7.8280001,8.092001c-0.3270006,0.2579985-0.849,0.6419992-1.1459999,0.927
	c0-0.4499989-0.0570002-1.1459999-0.0930004-1.5720005c0.0810013,0.3540001,0.1619997,0.8519983,0.276,1.1489983
	C7.1560001,8.4940004,7.5340014,8.2390003,7.8280001,8.092001z"/>
<polygon class="st5" points="6.901,8.8719988 7.230999,7.605999 6.657999,8.7669992 6.7060013,9.0279989 "/>
<polygon class="st25" points="6.901,8.8719988 7.230999,7.605999 6.657999,8.7669992 6.7060013,9.0279989 "/>
<path class="st5" d="M7.7919998,8.1219988C7.4799995,8.4279995,6.9880009,8.8809996,6.7149992,9.2110014
	c-0.0479994-0.4649992-0.1860008-1.170001-0.2700005-1.6049995c0.1199999,0.3540001,0.2580013,0.8520012,0.407999,1.1459999
	C7.1409998,8.6140003,7.506999,8.3110008,7.7919998,8.1219988z"/>
<path class="st26" d="M7.7919998,8.1219988C7.4799995,8.4279995,6.9880009,8.8809996,6.7149992,9.2110014
	c-0.0479994-0.4649992-0.1860008-1.170001-0.2700005-1.6049995c0.1199999,0.3540001,0.2580013,0.8520012,0.407999,1.1459999
	C7.1409998,8.6140003,7.506999,8.3110008,7.7919998,8.1219988z"/>
<polygon class="st5" points="6.9040012,9.0310001 6.9639997,7.6870003 6.6369991,8.9919987 6.7359991,9.2409992 "/>
<polygon class="st26" points="6.9040012,9.0310001 6.9639997,7.6870003 6.6369991,8.9919987 6.7359991,9.2409992 "/>
<path class="st5" d="M7.6929998,8.3439999c-0.329999,0.2729988-0.8580008,0.6810007-1.1550007,0.9780006
	C6.526,8.8570013,6.448,8.1340008,6.4000006,7.6899986c0.0930004,0.3659992,0.1860008,0.881999,0.3120003,1.1879997
	C7.0119991,8.7729988,7.3929987,8.5059996,7.6929998,8.3439999z"/>
<path class="st26" d="M7.6929998,8.3439999c-0.329999,0.2729988-0.8580008,0.6810007-1.1550007,0.9780006
	C6.526,8.8570013,6.448,8.1340008,6.4000006,7.6899986c0.0930004,0.3659992,0.1860008,0.881999,0.3120003,1.1879997
	C7.0119991,8.7729988,7.3929987,8.5059996,7.6929998,8.3439999z"/>
<circle class="st27" cx="10.0059996" cy="9.7120008" r="2.3609991"/>
<polygon class="st5" points="6.802,9.1839991 7.2729988,7.9210005 6.5710011,9.0400009 6.5889997,9.3160009 "/>
<polygon class="st26" points="6.802,9.1839991 7.2729988,7.9210005 6.5710011,9.0400009 6.5889997,9.3160009 "/>
<path class="st5" d="M7.6870003,8.3499994C7.3929987,8.6619997,6.9250011,9.1209993,6.6639986,9.4570007
	C6.6190004,8.9859991,6.4899998,8.2719994,6.4090014,7.8310013c0.1140003,0.3570013,0.2490005,0.8640003,0.3900003,1.1610003
	C7.0720005,8.8509989,7.4169998,8.5419998,7.6870003,8.3499994z"/>
<path class="st24" d="M7.6870003,8.3499994C7.3929987,8.6619997,6.9250011,9.1209993,6.6639986,9.4570007
	C6.6190004,8.9859991,6.4899998,8.2719994,6.4090014,7.8310013c0.1140003,0.3570013,0.2490005,0.8640003,0.3900003,1.1610003
	C7.0720005,8.8509989,7.4169998,8.5419998,7.6870003,8.3499994z"/>
<polygon class="st5" points="6.823,9.2469988 6.769001,7.9119997 6.5529995,9.2440004 6.6760006,9.4749994 "/>
<polygon class="st26" points="6.823,9.2469988 6.769001,7.9119997 6.5529995,9.2440004 6.6760006,9.4749994 "/>
<path class="st5" d="M7.5429993,8.4520006c-0.2849979,0.3089991-0.737998,0.7769995-0.9869986,1.112998
	C6.4959993,9.0969982,6.3460016,8.3799973,6.2530012,7.9419975c0.1259995,0.3570013,0.2699976,0.8640032,0.4229994,1.1580019
	C6.9399986,8.9560013,7.2790012,8.644001,7.5429993,8.4520006z"/>
<path class="st24" d="M7.5429993,8.4520006c-0.2849979,0.3089991-0.737998,0.7769995-0.9869986,1.112998
	C6.4959993,9.0969982,6.3460016,8.3799973,6.2530012,7.9419975c0.1259995,0.3570013,0.2699976,0.8640032,0.4229994,1.1580019
	C6.9399986,8.9560013,7.2790012,8.644001,7.5429993,8.4520006z"/>
<polygon class="st5" points="6.7480011,9.381999 6.8979988,8.0229988 6.4990005,9.3100014 6.579999,9.5710011 "/>
<polygon class="st24" points="6.7480011,9.381999 6.8979988,8.0229988 6.4990005,9.3100014 6.579999,9.5710011 "/>
<path class="st5" d="M7.4830008,8.5030012C7.2220011,8.842001,6.802,9.349,6.5830002,9.7090025
	C6.4870014,9.2470016,6.282999,8.5510035,6.1569996,8.1250029c0.1529989,0.342001,0.3360014,0.8310013,0.5100002,1.1130009
	C6.9219999,9.0670004,7.230999,8.7220011,7.4830008,8.5030012z"/>
<path class="st24" d="M7.4830008,8.5030012C7.2220011,8.842001,6.802,9.349,6.5830002,9.7090025
	C6.4870014,9.2470016,6.282999,8.5510035,6.1569996,8.1250029c0.1529989,0.342001,0.3360014,0.8310013,0.5100002,1.1130009
	C6.9219999,9.0670004,7.230999,8.7220011,7.4830008,8.5030012z"/>
<polygon class="st5" points="6.7419987,9.5080013 6.6550007,8.1519995 6.4840002,9.4990005 6.6070013,9.7359991 "/>
<polygon class="st24" points="6.7419987,9.5080013 6.6550007,8.1519995 6.4840002,9.4990005 6.6070013,9.7359991 "/>
<path class="st5" d="M7.4530001,8.5810013C7.2130003,8.9379997,6.8170004,9.4689999,6.6099997,9.8409986
	C6.493001,9.3850002,6.25,8.6920004,6.1030006,8.269001c0.1739988,0.3360014,0.3809996,0.8220005,0.5699987,1.092001
	C6.9219999,9.1750011,7.2159986,8.8149986,7.4530001,8.5810013z"/>
<path class="st28" d="M7.4530001,8.5810013C7.2130003,8.9379997,6.8170004,9.4689999,6.6099997,9.8409986
	C6.493001,9.3850002,6.25,8.6920004,6.1030006,8.269001c0.1739988,0.3360014,0.3809996,0.8220005,0.5699987,1.092001
	C6.9219999,9.1750011,7.2159986,8.8149986,7.4530001,8.5810013z"/>
<polygon class="st5" points="6.8260012,9.6369991 6.9639997,8.2719994 6.5770006,9.5529995 6.657999,9.8199987 "/>
<polygon class="st28" points="6.8260012,9.6369991 6.9639997,8.2719994 6.5770006,9.5529995 6.657999,9.8199987 "/>
<path class="st5" d="M7.4050007,8.7070007c-0.2099991,0.3900003-0.552,0.9720011-0.7259989,1.3709993
	c-0.1620026-0.4410009-0.4590025-1.092001-0.6450005-1.4940004C6.2350025,8.8959999,6.4870014,9.3459988,6.6970005,9.592001
	C6.9279995,9.3759995,7.1889992,8.974,7.4050007,8.7070007z"/>
<path class="st28" d="M7.4050007,8.7070007c-0.2099991,0.3900003-0.552,0.9720011-0.7259989,1.3709993
	c-0.1620026-0.4410009-0.4590025-1.092001-0.6450005-1.4940004C6.2350025,8.8959999,6.4870014,9.3459988,6.6970005,9.592001
	C6.9279995,9.3759995,7.1889992,8.974,7.4050007,8.7070007z"/>
<polygon class="st5" points="6.7810001,9.7480011 6.3969994,8.4520006 6.526,9.8199987 6.6999989,10.0119991 "/>
<polygon class="st28" points="6.7810001,9.7480011 6.3969994,8.4520006 6.526,9.8199987 6.6999989,10.0119991 "/>
<path class="st5" d="M7.3990011,8.8599997C7.1800013,9.2440004,6.823,9.8260012,6.6459999,10.2280006
	C6.480999,9.7869997,6.1779995,9.1359997,5.9919987,8.7370014c0.2039995,0.3120003,0.4589996,0.7590008,0.6750011,1.0050001
	C6.901,9.526,7.1739988,9.1240005,7.3990011,8.8599997z"/>
<path class="st26" d="M7.3990011,8.8599997C7.1800013,9.2440004,6.823,9.8260012,6.6459999,10.2280006
	C6.480999,9.7869997,6.1779995,9.1359997,5.9919987,8.7370014c0.2039995,0.3120003,0.4589996,0.7590008,0.6750011,1.0050001
	C6.901,9.526,7.1739988,9.1240005,7.3990011,8.8599997z"/>
<polygon class="st5" points="6.7960005,9.9909992 6.6550007,8.631999 6.5290012,9.9909992 6.6669998,10.2249994 "/>
<polygon class="st26" points="6.7960005,9.9909992 6.6550007,8.631999 6.5290012,9.9909992 6.6669998,10.2249994 "/>
<path class="st5" d="M7.420001,8.9770012c-0.2249994,0.3809996-0.5939999,0.9570007-0.7769995,1.3499994
	c-0.1530018-0.4410009-0.4470005-1.0980005-0.630003-1.5059996C6.2139997,9.1390009,6.4599991,9.5949993,6.670001,9.8409986
	C6.9129992,9.6309996,7.1920004,9.2380009,7.420001,8.9770012z"/>
<path class="st26" d="M7.420001,8.9770012c-0.2249994,0.3809996-0.5939999,0.9570007-0.7769995,1.3499994
	c-0.1530018-0.4410009-0.4470005-1.0980005-0.630003-1.5059996C6.2139997,9.1390009,6.4599991,9.5949993,6.670001,9.8409986
	C6.9129992,9.6309996,7.1920004,9.2380009,7.420001,8.9770012z"/>
<polygon class="st5" points="6.7840014,10.1020012 6.5290012,8.7640009 6.5169992,10.131999 6.6729994,10.3480005 "/>
<polygon class="st26" points="6.7840014,10.1020012 6.5290012,8.7640009 6.5169992,10.131999 6.6729994,10.3480005 "/>
<path class="st5" d="M7.3210011,9.1719999c-0.243001,0.3659992-0.6359997,0.9119997-0.8399992,1.2929993
	c-0.131999-0.4530001-0.3959999-1.1280012-0.5550013-1.5479994C6.1120014,9.2440004,6.3370008,9.7180004,6.538002,9.9790001
	C6.7869997,9.7869997,7.0839996,9.4150009,7.3210011,9.1719999z"/>
<path class="st26" d="M7.3210011,9.1719999c-0.243001,0.3659992-0.6359997,0.9119997-0.8399992,1.2929993
	c-0.131999-0.4530001-0.3959999-1.1280012-0.5550013-1.5479994C6.1120014,9.2440004,6.3370008,9.7180004,6.538002,9.9790001
	C6.7869997,9.7869997,7.0839996,9.4150009,7.3210011,9.1719999z"/>
<polygon class="st5" points="6.6669998,10.2519989 6.7810001,8.8840008 6.4060001,10.1800013 6.4990005,10.4439993 "/>
<polygon class="st26" points="6.6669998,10.2519989 6.7810001,8.8840008 6.4060001,10.1800013 6.4990005,10.4439993 "/>
<path class="st5" d="M7.3389997,9.204999C7.131999,9.6009989,6.7929993,10.198,6.625,10.605999
	c-0.1739988-0.4320002-0.4980011-1.0679998-0.6960011-1.4609985c0.2130003,0.3000011,0.4799995,0.7380009,0.7020006,0.9720011
	C6.8620014,9.8919992,7.1199999,9.4780006,7.3389997,9.204999z"/>
<path class="st26" d="M7.3389997,9.204999C7.131999,9.6009989,6.7929993,10.198,6.625,10.605999
	c-0.1739988-0.4320002-0.4980011-1.0679998-0.6960011-1.4609985c0.2130003,0.3000011,0.4799995,0.7380009,0.7020006,0.9720011
	C6.8620014,9.8919992,7.1199999,9.4780006,7.3389997,9.204999z"/>
<polygon class="st5" points="6.6190004,10.3630009 6.2020006,9.0909986 6.3640003,10.4439993 6.5410004,10.6269989 "/>
<polygon class="st26" points="6.6190004,10.3630009 6.2020006,9.0909986 6.3640003,10.4439993 6.5410004,10.6269989 "/>
<path class="st5" d="M7.2819996,9.3070002c-0.144001,0.4350014-0.3900003,1.0949993-0.4949999,1.5300007
	c-0.2340002-0.3840008-0.6479988-0.9389992-0.9029989-1.2810001C6.1390009,9.8079996,6.4689999,10.177,6.7210016,10.3599997
	C6.9160004,10.0839996,7.1080008,9.6219988,7.2819996,9.3070002z"/>
<path class="st26" d="M7.2819996,9.3070002c-0.144001,0.4350014-0.3900003,1.0949993-0.4949999,1.5300007
	c-0.2340002-0.3840008-0.6479988-0.9389992-0.9029989-1.2810001C6.1390009,9.8079996,6.4689999,10.177,6.7210016,10.3599997
	C6.9160004,10.0839996,7.1080008,9.6219988,7.2819996,9.3070002z"/>
<polygon class="st5" points="6.9940004,10.4680004 6.5410004,9.2110014 6.7359991,10.5579996 6.9250011,10.7380009 "/>
<polygon class="st26" points="6.9940004,10.4680004 6.5410004,9.2110014 6.7359991,10.5579996 6.9250011,10.7380009 "/>
<path class="st5" d="M7.2790012,9.4389992c-0.1409998,0.4350014-0.3840008,1.1009989-0.4830008,1.5360003
	c-0.2399998-0.3840008-0.6569996-0.9329996-0.9119997-1.2719994c0.2550001,0.2490005,0.5909986,0.6149998,0.8430004,0.795001
	C6.9189987,10.2189999,7.1080008,9.756999,7.2790012,9.4389992z"/>
<path class="st26" d="M7.2790012,9.4389992c-0.1409998,0.4350014-0.3840008,1.1009989-0.4830008,1.5360003
	c-0.2399998-0.3840008-0.6569996-0.9329996-0.9119997-1.2719994c0.2550001,0.2490005,0.5909986,0.6149998,0.8430004,0.795001
	C6.9189987,10.2189999,7.1080008,9.756999,7.2790012,9.4389992z"/>
<polygon class="st5" points="6.9969988,10.6839991 6.4150009,9.5080013 6.7540007,10.8129997 6.954999,10.9599991 "/>
<polygon class="st26" points="6.9969988,10.6839991 6.4150009,9.5080013 6.7540007,10.8129997 6.954999,10.9599991 "/>
<path class="st5" d="M7.230999,9.5469999C7.144001,10,6.9820013,10.6929998,6.9310007,11.1400003
	c-0.2790012-0.3449993-0.7590008-0.8310013-1.0500011-1.1309996c0.2819996,0.2070007,0.6569996,0.5279989,0.9300013,0.6689987
	C6.967001,10.375,7.1020012,9.8919992,7.230999,9.5469999z"/>
<path class="st26" d="M7.230999,9.5469999C7.144001,10,6.9820013,10.6929998,6.9310007,11.1400003
	c-0.2790012-0.3449993-0.7590008-0.8310013-1.0500011-1.1309996c0.2819996,0.2070007,0.6569996,0.5279989,0.9300013,0.6689987
	C6.967001,10.375,7.1020012,9.8919992,7.230999,9.5469999z"/>
<polygon class="st5" points="7.0360003,10.8669987 6.7209988,9.5469999 6.7719994,10.9150009 6.9399986,11.1190004 "/>
<polygon class="st26" points="7.0360003,10.8669987 6.7209988,9.5469999 6.7719994,10.9150009 6.9399986,11.1190004 "/>
<path class="st5" d="M7.2340002,9.6879997c-0.0479994,0.4620008-0.144001,1.1729994-0.1529989,1.6230011
	c-0.3120003-0.3060007-0.8280001-0.7259989-1.1490011-0.9840002c0.3000011,0.1710005,0.6989994,0.4350014,0.980999,0.5400009
	C7.0479994,10.5460005,7.1379986,10.045001,7.2340002,9.6879997z"/>
<path class="st26" d="M7.2340002,9.6879997c-0.0479994,0.4620008-0.144001,1.1729994-0.1529989,1.6230011
	c-0.3120003-0.3060007-0.8280001-0.7259989-1.1490011-0.9840002c0.3000011,0.1710005,0.6989994,0.4350014,0.980999,0.5400009
	C7.0479994,10.5460005,7.1379986,10.045001,7.2340002,9.6879997z"/>
<polygon class="st5" points="7.0510006,10.9630003 6.2199993,10.0119991 6.8470011,11.1639986 7.0749989,11.2419987 "/>
<polygon class="st26" points="7.0510006,10.9630003 6.2199993,10.0119991 6.8470011,11.1639986 7.0749989,11.2419987 "/>
<path class="st5" d="M7.2519989,9.8499994c-0.0479994,0.4620008-0.1500006,1.1729994-0.1590014,1.6230011
	c-0.3089991-0.3089991-0.8280001-0.7320013-1.1459999-0.9899998c0.3000011,0.1710005,0.6960011,0.4410009,0.980999,0.5429993
	C7.0629997,10.7080002,7.1529989,10.2070007,7.2519989,9.8499994z"/>
<path class="st26" d="M7.2519989,9.8499994c-0.0479994,0.4620008-0.1500006,1.1729994-0.1590014,1.6230011
	c-0.3089991-0.3089991-0.8280001-0.7320013-1.1459999-0.9899998c0.3000011,0.1710005,0.6960011,0.4410009,0.980999,0.5429993
	C7.0629997,10.7080002,7.1529989,10.2070007,7.2519989,9.8499994z"/>
<polygon class="st5" points="7.144001,11.1850014 6.5050001,10.0360003 6.9069996,11.3260012 7.1169987,11.4610014 "/>
<polygon class="st26" points="7.144001,11.1850014 6.5050001,10.0360003 6.9069996,11.3260012 7.1169987,11.4610014 "/>
<path class="st5" d="M7.2910004,10.0389986c-0.032999,0.4649992-0.1020012,1.1820002-0.0899992,1.631999
	c-0.3239994-0.2879992-0.8549995-0.6810007-1.1850014-0.9210005c0.3060007,0.1529989,0.7139997,0.3959999,1.0019989,0.4830008
	C7.1350002,10.9060001,7.2039995,10.4019995,7.2910004,10.0389986z"/>
<path class="st26" d="M7.2910004,10.0389986c-0.032999,0.4649992-0.1020012,1.1820002-0.0899992,1.631999
	c-0.3239994-0.2879992-0.8549995-0.6810007-1.1850014-0.9210005c0.3060007,0.1529989,0.7139997,0.3959999,1.0019989,0.4830008
	C7.1350002,10.9060001,7.2039995,10.4019995,7.2910004,10.0389986z"/>
<polygon class="st5" points="7.2249994,11.3950005 6.4360008,10.3929987 7.0119991,11.5810013 7.2370014,11.6739988 "/>
<polygon class="st26" points="7.2249994,11.3950005 6.4360008,10.3929987 7.0119991,11.5810013 7.2370014,11.6739988 "/>
<path class="st5" d="M7.3000011,10.2519989c-0.0300007,0.4649992-0.0930004,1.1820002-0.0810013,1.631999
	c-0.3239994-0.2850008-0.8609991-0.6750011-1.1879997-0.9090014c0.3089991,0.1500006,0.717001,0.3929987,1.0050001,0.474
	C7.1500006,11.1219988,7.2159986,10.6149998,7.3000011,10.2519989z"/>
<path class="st26" d="M7.3000011,10.2519989c-0.0300007,0.4649992-0.0930004,1.1820002-0.0810013,1.631999
	c-0.3239994-0.2850008-0.8609991-0.6750011-1.1879997-0.9090014c0.3089991,0.1500006,0.717001,0.3929987,1.0050001,0.474
	C7.1500006,11.1219988,7.2159986,10.6149998,7.3000011,10.2519989z"/>
<polygon class="st5" points="7.2969999,11.5629997 6.7419987,10.3540001 7.0479994,11.6800013 7.2490005,11.8360014 "/>
<polygon class="st26" points="7.2969999,11.5629997 6.7419987,10.3540001 7.0479994,11.6800013 7.2490005,11.8360014 "/>
<path class="st5" d="M7.3179998,10.3929987c0.0150003,0.4680004,0.0179987,1.1879997,0.0720005,1.6350002
	c-0.3480005-0.243001-0.9150009-0.552-1.2630014-0.7469988C6.448,11.3890009,6.8739977,11.5749989,7.1709976,11.6199999
	C7.2519989,11.2779989,7.2700005,10.7619991,7.3179998,10.3929987z"/>
<path class="st26" d="M7.3179998,10.3929987c0.0150003,0.4680004,0.0179987,1.1879997,0.0720005,1.6350002
	c-0.3480005-0.243001-0.9150009-0.552-1.2630014-0.7469988C6.448,11.3890009,6.8739977,11.5749989,7.1709976,11.6199999
	C7.2519989,11.2779989,7.2700005,10.7619991,7.3179998,10.3929987z"/>
<polygon class="st5" points="7.3929987,11.5179987 6.3790007,10.8249989 7.2370014,11.7669992 7.4770012,11.7819996 "/>
<polygon class="st26" points="7.3929987,11.5179987 6.3790007,10.8249989 7.2370014,11.7669992 7.4770012,11.7819996 "/>
<path class="st5" d="M7.3509989,10.4439993C7.3899975,10.9089985,7.4320002,11.6290007,7.5100002,12.073
	c-0.3599997-0.2280006-0.948-0.519001-1.3079996-0.6960011C6.526,11.4729977,6.9639997,11.6409998,7.2609997,11.677
	C7.329999,11.3289995,7.3210011,10.8160009,7.3509989,10.4439993z"/>
<path class="st26" d="M7.3509989,10.4439993C7.3899975,10.9089985,7.4320002,11.6290007,7.5100002,12.073
	c-0.3599997-0.2280006-0.948-0.519001-1.3079996-0.6960011C6.526,11.4729977,6.9639997,11.6409998,7.2609997,11.677
	C7.329999,11.3289995,7.3210011,10.8160009,7.3509989,10.4439993z"/>
<polygon class="st5" points="7.5040007,11.7729988 6.657999,10.8070002 7.3000011,11.9709988 7.5279989,12.052 "/>
<polygon class="st26" points="7.5040007,11.7729988 6.657999,10.8070002 7.3000011,11.9709988 7.5279989,12.052 "/>
<path class="st5" d="M7.4260006,10.618001C7.486002,11.0800018,7.5550013,11.8000011,7.651,12.2380009
	C7.2819996,12.0340014,6.6850014,11.776,6.3189993,11.6199999c0.3270006,0.0749989,0.7709999,0.2189999,1.0679998,0.2340002
	C7.4410009,11.5059996,7.4110003,10.9959993,7.4260006,10.618001z"/>
<path class="st26" d="M7.4260006,10.618001C7.486002,11.0800018,7.5550013,11.8000011,7.651,12.2380009
	C7.2819996,12.0340014,6.6850014,11.776,6.3189993,11.6199999c0.3270006,0.0749989,0.7709999,0.2189999,1.0679998,0.2340002
	C7.4410009,11.5059996,7.4110003,10.9959993,7.4260006,10.618001z"/>
<polygon class="st5" points="7.6689987,11.9379997 6.6669998,11.2270012 7.5159998,12.1899986 7.7530012,12.2020006 "/>
<polygon class="st26" points="7.6689987,11.9379997 6.6669998,11.2270012 7.5159998,12.1899986 7.7530012,12.2020006 "/>
<path class="st5" d="M7.4560013,10.8160009c0.0899992,0.4589996,0.2070007,1.170001,0.329999,1.6020012
	c-0.3809996-0.1710005-0.9869986-0.3690004-1.3619986-0.4919987c0.329999,0.045001,0.7800007,0.144001,1.0770006,0.131999
	C7.5310001,11.7010012,7.4680004,11.1910009,7.4560013,10.8160009z"/>
<path class="st26" d="M7.4560013,10.8160009c0.0899992,0.4589996,0.2070007,1.170001,0.329999,1.6020012
	c-0.3809996-0.1710005-0.9869986-0.3690004-1.3619986-0.4919987c0.329999,0.045001,0.7800007,0.144001,1.0770006,0.131999
	C7.5310001,11.7010012,7.4680004,11.1910009,7.4560013,10.8160009z"/>
<polygon class="st5" points="7.782999,12.0789995 6.9489994,11.0949993 7.5760012,12.2679987 7.8039989,12.3580008 "/>
<polygon class="st26" points="7.782999,12.0789995 6.9489994,11.0949993 7.5760012,12.2679987 7.8039989,12.3580008 "/>
<path class="st5" d="M7.5129986,10.9420004c0.131999,0.4439993,0.3149986,1.1400003,0.4770012,1.5510006
	c-0.3929987-0.1199999-1.0140009-0.2370014-1.3950005-0.3089991c0.329999,0,0.7860003,0.0389986,1.0770006-0.0119991
	C7.6660004,11.8179998,7.5579996,11.3170004,7.5129986,10.9420004z"/>
<path class="st26" d="M7.5129986,10.9420004c0.131999,0.4439993,0.3149986,1.1400003,0.4770012,1.5510006
	c-0.3929987-0.1199999-1.0140009-0.2370014-1.3950005-0.3089991c0.329999,0,0.7860003,0.0389986,1.0770006-0.0119991
	C7.6660004,11.8179998,7.5579996,11.3170004,7.5129986,10.9420004z"/>
<polygon class="st5" points="7.8249989,12.0820007 6.6639986,11.8330002 7.7679987,12.381999 7.993001,12.2979994 "/>
<polygon class="st26" points="7.8249989,12.0820007 6.6639986,11.8330002 7.7679987,12.381999 7.993001,12.2979994 "/>
<path class="st5" d="M7.5880003,11.079999c0.1290007,0.4439993,0.3120003,1.1400003,0.4709988,1.5539989
	c-0.3929987-0.1199999-1.0109997-0.243001-1.3950005-0.3179998c0.329999,0.0030012,0.7860003,0.045001,1.0770006-0.0059996
	C7.7409992,11.9589996,7.6330013,11.454999,7.5880003,11.079999z"/>
<path class="st26" d="M7.5880003,11.079999c0.1290007,0.4439993,0.3120003,1.1400003,0.4709988,1.5539989
	c-0.3929987-0.1199999-1.0109997-0.243001-1.3950005-0.3179998c0.329999,0.0030012,0.7860003,0.045001,1.0770006-0.0059996
	C7.7409992,11.9589996,7.6330013,11.454999,7.5880003,11.079999z"/>
<polygon class="st5" points="8.0169992,12.2020006 6.9069996,11.6679993 7.9000006,12.4749994 8.1400003,12.4510012 "/>
<polygon class="st26" points="8.0169992,12.2020006 6.9069996,11.6679993 7.9000006,12.4749994 8.1400003,12.4510012 "/>
<path class="st5" d="M7.5279989,11.1610003C7.75,11.5660009,8.0709982,12.204999,8.3169975,12.5739994
	c-0.4050007-0.032999-1.0379992-0.0090008-1.4219999,0.0059996c0.3239994-0.0720005,0.7740011-0.1350002,1.0469999-0.2490005
	C7.8640003,11.9799995,7.6540012,11.5150003,7.5279989,11.1610003z"/>
<path class="st26" d="M7.5279989,11.1610003C7.75,11.5660009,8.0709982,12.204999,8.3169975,12.5739994
	c-0.4050007-0.032999-1.0379992-0.0090008-1.4219999,0.0059996c0.3239994-0.0720005,0.7740011-0.1350002,1.0469999-0.2490005
	C7.8640003,11.9799995,7.6540012,11.5150003,7.5279989,11.1610003z"/>
<polygon class="st5" points="8.1910009,12.3249989 7.0360003,12.006999 8.1190004,12.6219988 8.3470011,12.5500011 "/>
<polygon class="st26" points="8.1910009,12.3249989 7.0360003,12.006999 8.1190004,12.6219988 8.3470011,12.5500011 "/>
<path class="st5" d="M7.651,11.3320007c0.2220011,0.4019995,0.5489988,1.0410004,0.7979994,1.4069996
	c-0.4050007-0.0300007-1.0379992,0-1.4219999,0.0179987c0.3239994-0.0749989,0.7740011-0.1409998,1.0469999-0.2580013
	C7.9899998,12.151,7.7740011,11.6889992,7.651,11.3320007z"/>
<path class="st26" d="M7.651,11.3320007c0.2220011,0.4019995,0.5489988,1.0410004,0.7979994,1.4069996
	c-0.4050007-0.0300007-1.0379992,0-1.4219999,0.0179987c0.3239994-0.0749989,0.7740011-0.1409998,1.0469999-0.2580013
	C7.9899998,12.151,7.7740011,11.6889992,7.651,11.3320007z"/>
<polygon class="st5" points="8.3380003,12.4179993 7.2609997,11.776 8.1999989,12.6760006 8.4429998,12.6789989 "/>
<polygon class="st26" points="8.3380003,12.4179993 7.2609997,11.776 8.1999989,12.6760006 8.4429998,12.6789989 "/>
<path class="st5" d="M7.7380009,11.4310007c0.2580013,0.3780012,0.6390009,0.9749994,0.9179993,1.3139992
	c-0.4019995,0.0269995-1.0169992,0.1350002-1.3979988,0.2010012c0.3089991-0.1169987,0.7469988-0.243001,1.0019989-0.3959999
	C8.1519995,12.2110014,7.8969994,11.7729988,7.7380009,11.4310007z"/>
<path class="st26" d="M7.7380009,11.4310007c0.2580013,0.3780012,0.6390009,0.9749994,0.9179993,1.3139992
	c-0.4019995,0.0269995-1.0169992,0.1350002-1.3979988,0.2010012c0.3089991-0.1169987,0.7469988-0.243001,1.0019989-0.3959999
	C8.1519995,12.2110014,7.8969994,11.7729988,7.7380009,11.4310007z"/>
<polygon class="st5" points="8.4160004,12.5140009 7.2550001,12.4840002 8.4040012,12.8260012 8.6049995,12.6999989 "/>
<polygon class="st26" points="8.4160004,12.5140009 7.2550001,12.4840002 8.4040012,12.8260012 8.6049995,12.6999989 "/>
<polygon class="st5" points="9.0909986,6.8919992 9.9219999,6.7509995 9.0939999,6.7719994 8.9499989,6.8470011 "/>
<polygon class="st17" points="9.0909986,6.8919992 9.9219999,6.7509995 9.0939999,6.7719994 8.9499989,6.8470011 "/>
<path class="st5" d="M9.5469999,7.0720005c-0.2399998-0.0750017-0.605999-0.198-0.8580008-0.2520018
	c0.2640009-0.1049995,0.6569996-0.2910004,0.8969994-0.4050007c-0.185998,0.1140032-0.4559984,0.2640009-0.5999994,0.3810024
	C9.1269989,6.8890009,9.3790007,6.9849997,9.5469999,7.0720005z"/>
<path class="st17" d="M9.5469999,7.0720005c-0.2399998-0.0750017-0.605999-0.198-0.8580008-0.2520018
	c0.2640009-0.1049995,0.6569996-0.2910004,0.8969994-0.4050007c-0.185998,0.1140032-0.4559984,0.2640009-0.5999994,0.3810024
	C9.1269989,6.8890009,9.3790007,6.9849997,9.5469999,7.0720005z"/>
<polygon class="st5" points="9.052,6.9219999 9.8590002,6.6999989 9.0250006,6.8050013 8.8959999,6.8919992 "/>
<polygon class="st17" points="9.052,6.9219999 9.8590002,6.6999989 9.0250006,6.8050013 8.8959999,6.8919992 "/>
<path class="st5" d="M9.5860014,7.1290007C9.3039989,7.099,8.8690004,7.0479994,8.5899992,7.045001
	c0.2100019-0.1860008,0.5070019-0.4980011,0.6870003-0.6870003C9.151,6.538002,8.9589996,6.7750006,8.8779984,6.9460011
	C9.0670004,7.0179987,9.3730011,7.0720005,9.5860014,7.1290007z"/>
<path class="st29" d="M9.5860014,7.1290007C9.3039989,7.099,8.8690004,7.0479994,8.5899992,7.045001
	c0.2100019-0.1860008,0.5070019-0.4980011,0.6870003-0.6870003C9.151,6.538002,8.9589996,6.7750006,8.8779984,6.9460011
	C9.0670004,7.0179987,9.3730011,7.0720005,9.5860014,7.1290007z"/>
<polygon class="st5" points="8.7519989,6.9759989 9.592001,6.8800001 8.7729988,6.855999 8.6199999,6.9250011 "/>
<polygon class="st17" points="8.7519989,6.9759989 9.592001,6.8800001 8.7729988,6.855999 8.6199999,6.9250011 "/>
<path class="st5" d="M9.3759995,7.1590014c-0.2609997-0.0480022-0.651-0.1350002-0.9119997-0.1650009
	C8.7130003,6.8740005,9.073,6.6640015,9.2919998,6.5350008C9.1300001,6.6610003,8.8840008,6.823,8.7609997,6.9460011
	C8.9169998,7.0240011,9.1870003,7.0930004,9.3759995,7.1590014z"/>
<path class="st17" d="M9.3759995,7.1590014c-0.2609997-0.0480022-0.651-0.1350002-0.9119997-0.1650009
	C8.7130003,6.8740005,9.073,6.6640015,9.2919998,6.5350008C9.1300001,6.6610003,8.8840008,6.823,8.7609997,6.9460011
	C8.9169998,7.0240011,9.1870003,7.0930004,9.3759995,7.1590014z"/>
<polygon class="st5" points="8.677,6.967001 9.4179993,6.6519995 8.6080008,6.8649998 8.5119991,6.9610014 "/>
<polygon class="st17" points="8.677,6.967001 9.4179993,6.6519995 8.6080008,6.8649998 8.5119991,6.9610014 "/>
<path class="st5" d="M9.349,7.2550001C9.1359997,7.1650009,8.8089991,7.0150003,8.5930004,6.9520006
	c0.1650009-0.1529989,0.3959999-0.420001,0.5400009-0.5849991c-0.099,0.1650009-0.2519989,0.3780012-0.3179998,0.5400009
	C8.9560013,7.0269995,9.1870003,7.1500006,9.349,7.2550001z"/>
<path class="st30" d="M9.349,7.2550001C9.1359997,7.1650009,8.8089991,7.0150003,8.5930004,6.9520006
	c0.1650009-0.1529989,0.3959999-0.420001,0.5400009-0.5849991c-0.099,0.1650009-0.2519989,0.3780012-0.3179998,0.5400009
	C8.9560013,7.0269995,9.1870003,7.1500006,9.349,7.2550001z"/>
<polygon class="st5" points="8.7220011,7.0240011 9.2979994,6.7750006 8.6679993,6.8620014 8.5959988,6.9730005 "/>
<polygon class="st30" points="8.7220011,7.0240011 9.2979994,6.7750006 8.6679993,6.8620014 8.5959988,6.9730005 "/>
<polygon class="st5" points="8.2390003,12.4090014 7.0479994,12.4150009 8.2540007,12.7120008 8.4520006,12.579999 "/>
<polygon class="st26" points="8.2390003,12.4090014 7.0479994,12.4150009 8.2540007,12.7120008 8.4520006,12.579999 "/>
<polygon class="st5" points="8.4520006,12.4840002 7.243001,12.2020006 8.4069996,12.7719994 8.6350002,12.6999989 "/>
<polygon class="st26" points="8.4520006,12.4840002 7.243001,12.2020006 8.4069996,12.7719994 8.6350002,12.6999989 "/>
<polygon class="st5" points="8.6529989,12.5649986 7.4499989,12.5050001 8.6529989,12.868001 8.8599997,12.7509995 "/>
<polygon class="st26" points="8.6529989,12.5649986 7.4499989,12.5050001 8.6529989,12.868001 8.8599997,12.7509995 "/>
<path class="st5" d="M7.8909998,11.7159986c0.3149986,0.3449993,0.7800007,0.894001,1.1099997,1.1970005
	C8.599,12.9730005,7.9899998,13.1379986,7.6149998,13.2369986c0.2969999-0.1409998,0.7230005-0.3029995,0.9630003-0.474
	C8.4160004,12.4389992,8.0949993,12.0369997,7.8909998,11.7159986z"/>
<path class="st26" d="M7.8909998,11.7159986c0.3149986,0.3449993,0.7800007,0.894001,1.1099997,1.1970005
	C8.599,12.9730005,7.9899998,13.1379986,7.6149998,13.2369986c0.2969999-0.1409998,0.7230005-0.3029995,0.9630003-0.474
	C8.4160004,12.4389992,8.0949993,12.0369997,7.8909998,11.7159986z"/>
<polygon class="st5" points="8.8179998,12.6280012 7.618001,12.2349997 8.7459993,12.9069996 8.9830008,12.8530006 "/>
<polygon class="st26" points="8.8179998,12.6280012 7.618001,12.2349997 8.7459993,12.9069996 8.9830008,12.8530006 "/>
<path class="st5" d="M8.0019989,11.7969999c0.3389997,0.3120003,0.8549995,0.8100014,1.2060013,1.0770006
	c-0.3869991,0.1109991-0.9630003,0.3509989-1.3170004,0.4980011c0.2729988-0.1800013,0.6719999-0.3959999,0.8880014-0.6030006
	C8.5899992,12.4659986,8.2359991,12.0939999,8.0019989,11.7969999z"/>
<path class="st26" d="M8.0019989,11.7969999c0.3389997,0.3120003,0.8549995,0.8100014,1.2060013,1.0770006
	c-0.3869991,0.1109991-0.9630003,0.3509989-1.3170004,0.4980011c0.2729988-0.1800013,0.6719999-0.3959999,0.8880014-0.6030006
	C8.5899992,12.4659986,8.2359991,12.0939999,8.0019989,11.7969999z"/>
<polygon class="st5" points="8.9169998,12.6999989 7.7769995,12.9250011 8.9770012,13.0059996 9.1479988,12.8409986 "/>
<polygon class="st26" points="8.9169998,12.6999989 7.7769995,12.9250011 8.9770012,13.0059996 9.1479988,12.8409986 "/>
<polygon class="st5" points="8.677,12.6280012 7.4919987,12.7209988 8.7159986,12.9310007 8.9050007,12.7869997 "/>
<polygon class="st26" points="8.677,12.6280012 7.4919987,12.7209988 8.7159986,12.9310007 8.9050007,12.7869997 "/>
<polygon class="st5" points="8.8990011,12.6939993 7.6689987,12.493001 8.8719988,12.9849997 9.0939999,12.8950005 "/>
<polygon class="st26" points="8.8990011,12.6939993 7.6689987,12.493001 8.8719988,12.9849997 9.0939999,12.8950005 "/>
<polygon class="st5" points="9.1030006,12.7600002 7.9000006,12.7810001 9.1240005,13.0600014 9.3220005,12.9279995 "/>
<polygon class="st26" points="9.1030006,12.7600002 7.9000006,12.7810001 9.1240005,13.0600014 9.3220005,12.9279995 "/>
<path class="st5" d="M8.2779989,11.9649992C8.6140003,12.2889986,9.1239977,12.802,9.4749994,13.0809984
	c-0.3959999,0.0899992-0.993001,0.2939987-1.3590002,0.4169998C8.401,13.3359985,8.8149986,13.1469994,9.0399981,12.9579973
	C8.8570013,12.6490011,8.5090008,12.2679987,8.2779989,11.9649992z"/>
<path class="st26" d="M8.2779989,11.9649992C8.6140003,12.2889986,9.1239977,12.802,9.4749994,13.0809984
	c-0.3959999,0.0899992-0.993001,0.2939987-1.3590002,0.4169998C8.401,13.3359985,8.8149986,13.1469994,9.0399981,12.9579973
	C8.8570013,12.6490011,8.5090008,12.2679987,8.2779989,11.9649992z"/>
<polygon class="st5" points="9.2709999,12.8079996 8.0439987,12.4990005 9.2230005,13.0899992 9.4539995,13.0240011 "/>
<polygon class="st26" points="9.2709999,12.8079996 8.0439987,12.4990005 9.2230005,13.0899992 9.4539995,13.0240011 "/>
<path class="st5" d="M8.3950005,12.0369997c0.3630009,0.2850008,0.9119997,0.75,1.2840014,0.9899998
	c-0.3780012,0.1379986-0.9329996,0.4169998-1.2750006,0.5880003c0.2580013-0.198,0.6419992-0.4410009,0.8399992-0.6600008
	C9.0279989,12.6610003,8.6529989,12.3160009,8.3950005,12.0369997z"/>
<path class="st26" d="M8.3950005,12.0369997c0.3630009,0.2850008,0.9119997,0.75,1.2840014,0.9899998
	c-0.3780012,0.1379986-0.9329996,0.4169998-1.2750006,0.5880003c0.2580013-0.198,0.6419992-0.4410009,0.8399992-0.6600008
	C9.0279989,12.6610003,8.6529989,12.3160009,8.3950005,12.0369997z"/>
<polygon class="st5" points="9.3790007,12.8740005 8.256999,13.177 9.4599991,13.177 9.6159992,12.9969988 "/>
<polygon class="st26" points="9.3790007,12.8740005 8.256999,13.177 9.4599991,13.177 9.6159992,12.9969988 "/>
<polygon class="st31" points="11.2840014,11.3349991 10.0030012,10.4530001 8.7220011,11.3349991 9.2020006,9.9189987 
	8.079999,9.0340014 9.5229988,9.0340014 10.0030012,7.618001 10.4830008,9.0340014 11.9229994,9.0340014 10.8039989,9.9189987 "/>
<polygon class="st32" points="11.2840014,11.3349991 10.0030012,10.4530001 8.7220011,11.3349991 9.2020006,9.9189987 
	8.079999,9.0340014 9.5229988,9.0340014 10.0030012,7.618001 10.4830008,9.0340014 11.9229994,9.0340014 10.8039989,9.9189987 "/>
<path class="st2" d="M16.2729988,10c0,3.4620008-2.8110008,6.2729988-6.2729988,6.2729988S3.7269998,13.4620008,3.7269998,10
	S6.5379992,3.7269998,10,3.7269998S16.2729988,6.5379992,16.2729988,10z M14.7039995,10
	c0,2.5980005-2.1090002,4.7039995-4.7039995,4.7039995c-2.5980005,0-4.7039995-2.1090002-4.7039995-4.7039995
	c0-2.5980005,2.1090002-4.7039995,4.7039995-4.7039995C12.5980005,5.2960005,14.7039995,7.4019995,14.7039995,10z"/>
<path class="st33" d="M16.2729988,10c0,3.4620008-2.8110008,6.2729988-6.2729988,6.2729988S3.7269998,13.4620008,3.7269998,10
	S6.5379992,3.7269998,10,3.7269998S16.2729988,6.5379992,16.2729988,10z M14.7039995,10
	c0,2.5980005-2.1090002,4.7039995-4.7039995,4.7039995c-2.5980005,0-4.7039995-2.1090002-4.7039995-4.7039995
	c0-2.5980005,2.1090002-4.7039995,4.7039995-4.7039995C12.5980005,5.2960005,14.7039995,7.4019995,14.7039995,10z"/>
<path class="st34" d="M14.7819996,11.125l0.4110003,0.1529989l0.6839991-0.1259995l-0.0510006,0.1379986l-0.3540001,0.0629997
	c-0.0660009,0.0119991-0.131999,0.0209999-0.198,0.0269995c0.0389986,0.045001,0.0870008,0.099,0.1379986,0.1590014
	l0.2249994,0.2729988l-0.0479994,0.131999l-0.4350014-0.552l-0.4110003-0.1529989L14.7819996,11.125z"/>
<path class="st34" d="M15.9399986,9.5379992L15.954999,9.657999L15.3579979,9.724
	c-0.1049995,0.0119991-0.1860008,0.0090008-0.2519989-0.0030012c-0.0629997-0.0150003-0.1169987-0.045001-0.1619997-0.099
	c-0.0419998-0.0479994-0.0720005-0.1199999-0.0810013-0.2070007s0-0.1590014,0.0269995-0.2159986
	c0.0300007-0.0570002,0.0720005-0.1020012,0.131999-0.131999c0.0600014-0.032999,0.1469994-0.0510006,0.2550001-0.0629997
	l0.5970011-0.0660009l0.0150003,0.1199999L15.291997,9.1240005c-0.0899992,0.0090008-0.1560001,0.0240011-0.1949987,0.0419998
	c-0.0389986,0.0209999-0.0689993,0.0479994-0.0899992,0.0870008c-0.0209999,0.0389986-0.0269995,0.0839996-0.0209999,0.1350002
	c0.0090008,0.0899992,0.0389986,0.1500006,0.0899992,0.1800013c0.0479994,0.032999,0.1379986,0.0419998,0.2669992,0.0300007
	L15.9399986,9.5379992z"/>
<path class="st34" d="M15.1090002,8.3289995l0.1199999-0.0240011l0.0780001,0.3840008l-0.3780012,0.0780001
	c-0.0660009-0.0479994-0.1169987-0.1020012-0.1560001-0.1590014c-0.0389986-0.0570002-0.0660009-0.1169987-0.0780001-0.1829996
	C14.677,8.3349991,14.6799984,8.2509995,14.7099991,8.1699982s0.0810013-0.1469994,0.1529989-0.2010012
	c0.0749989-0.0539989,0.1619997-0.0899992,0.2580013-0.1080008c0.1020012-0.0209999,0.1949987-0.0209999,0.2879992,0
	c0.0959988,0.0209999,0.1679993,0.0600014,0.2249994,0.1199999c0.0539989,0.0600014,0.0930004,0.1350002,0.1080008,0.2249994
	c0.0150003,0.0660009,0.0150003,0.1259995,0,0.1829996c-0.0119991,0.0570059-0.032999,0.1050053-0.0719976,0.1410055
	c-0.0360003,0.0360003-0.0870008,0.0720005-0.1529989,0.1020012l-0.0540018-0.1020012
	c0.0479994-0.0240011,0.0870008-0.0479994,0.1109991-0.0749989c0.0269995-0.0269995,0.0419998-0.0600014,0.0539989-0.1020012
	C15.6399975,8.314002,15.6399975,8.269001,15.6309996,8.224c-0.0119991-0.0539989-0.0300007-0.1020012-0.0570002-0.1350002
	C15.5469999,8.0529995,15.5169992,8.026,15.480999,8.0079985c-0.0360003-0.0179987-0.0720005-0.0300007-0.1109991-0.0360003
	c-0.0689993-0.0119991-0.1379986-0.0090008-0.2130003,0.0059996c-0.0899992,0.0179987-0.1650009,0.0479994-0.2189999,0.0870008
	c-0.0539989,0.0389986-0.0930004,0.0899992-0.1109991,0.1500006c-0.0209999,0.0600014-0.0240011,0.1169987-0.0119991,0.1800013
	c0.0119991,0.0510006,0.032999,0.1020012,0.0629997,0.144001s0.0629997,0.0780001,0.0959988,0.099l0.1889992-0.0360003
	L15.1090002,8.3289995z"/>
<polygon class="st34" points="10.75,5.0439987 10.927,4.0179987 11.0469999,4.0419998 10.8909998,4.9420004 11.3380003,5.0200005 
	11.3170004,5.1400003 "/>
<polygon class="st34" points="9.7390003,4.9749994 9.7390003,3.9340005 10.4019995,3.9340005 10.4019995,4.0600014 
	9.8590002,4.0600014 9.8590002,4.375 10.3690004,4.375 10.3690004,4.4980011 9.8590002,4.4980011 9.8590002,4.8520012 
	10.4229994,4.8520012 10.4229994,4.9749994 "/>
<path class="st34" d="M6.8590002,5.6290007l0.1140003-0.0510006c0.0539989,0.1020012,0.0749989,0.198,0.0629997,0.2850008
	C7.0209999,5.9470005,6.9790001,6.0250006,6.9069996,6.0849991C6.8320007,6.151,6.756999,6.1870003,6.6789989,6.1929998
	S6.5229988,6.1779995,6.4389992,6.1359997c-0.0810013-0.045001-0.1529989-0.1080008-0.2159986-0.1800013
	C6.151,5.8690004,6.105999,5.7879992,6.0789995,5.7039995c-0.0269995-0.0870008-0.0269995-0.1679993,0-0.243001
	C6.1030006,5.3859997,6.1479988,5.3199987,6.2110014,5.269001C6.2800007,5.2089996,6.3580008,5.1790018,6.439002,5.1760006
	c0.0810013,0,0.1650009,0.0300007,0.2459993,0.0839996L6.6130009,5.3620014
	c-0.0660009-0.0420027-0.1230011-0.0630026-0.177-0.0630026S6.3310013,5.3199987,6.2860003,5.3590002
	c-0.0570002,0.0479994-0.0870008,0.099-0.099,0.1589985C6.1750011,5.5780001,6.1839991,5.6379986,6.2139997,5.698
	c0.0269995,0.0600014,0.0629997,0.1169987,0.1080008,0.1710005c0.0570002,0.0660009,0.1140003,0.1169987,0.177,0.1560001
	C6.5560007,6.0610008,6.6130009,6.0760012,6.670001,6.0699987C6.7270012,6.0639992,6.7780018,6.0399981,6.8200016,6.006999
	c0.0510006-0.0419998,0.0810013-0.099,0.0899992-0.1650009C6.9189987,5.776,6.901,5.7070007,6.8590002,5.6290007z"/>
<rect x="6.0165119" y="5.6299443" transform="matrix(0.6681909 -0.7439899 0.7439899 0.6681909 -2.5596313 6.5616398)" class="st34" width="0.1200015" height="1.0410146"/>
<polygon class="st34" points="5.9229994,7.131999 5.0980005,6.4990005 5.170001,6.4029989 5.8990011,6.9610014 6.1750011,6.6009989 
	6.2740011,6.6760006 "/>
<path class="st34" d="M4.375,7.7440004l0.045001-0.1109991l0.5579996,0.2220011
	c0.0959988,0.0359974,0.1710005,0.0779972,0.2219982,0.119997c0.0479994,0.0389986,0.0810013,0.0959988,0.099,0.1619997
	C5.3110008,8.1999989,5.302,8.2750006,5.2719994,8.3590002c-0.032999,0.0780001-0.0749989,0.1379986-0.1259995,0.1800013
	C5.0949993,8.5750017,5.0379992,8.5960016,4.9659986,8.5930004c-0.0689993,0-0.1529989-0.0240011-0.2550001-0.0629997
	L4.1529989,8.3079996L4.198,8.1970005l0.5579996,0.2220011C4.8399992,8.4550018,4.9060001,8.4700022,4.948,8.4700022
	c0.045001,0.0030012,0.0839996-0.0090008,0.1199999-0.0360003c0.032999-0.0269995,0.0600014-0.0629997,0.0780001-0.1109991
	c0.0360003-0.0839996,0.0360003-0.1529989,0.0059996-0.2039995S5.0469999,8.0140038,4.927,7.9690027L4.375,7.7440004z"/>
<polygon class="st34" points="4.9840002,10.2609997 3.9429998,10.2700005 3.9370003,9.6040001 4.0600014,9.6040001 
	4.0629997,10.1469994 4.3809996,10.144001 4.3780012,9.6340008 4.4980011,9.6340008 4.5040007,10.144001 4.8580008,10.1409998 
	4.8520012,9.5770006 4.9780006,9.5739994 "/>
<path class="st34" d="M8.9589996,4.9780006L9.151,4.939002c0.0600014-0.0119991,0.1049995-0.0300007,0.1350002-0.045001
	C9.3189993,4.8699999,9.3430004,4.849,9.3609991,4.8220005C9.381999,4.782999,9.394001,4.7380009,9.4000006,4.6810007
	s0-0.1230011-0.0179987-0.2010012C9.3640003,4.3719988,9.3310013,4.2910004,9.2889986,4.243001
	c-0.0449982-0.0510006-0.086998-0.0810013-0.1349974-0.0930004C9.118001,4.1409998,9.064002,4.144001,8.9920015,4.1590014
	l-0.189002,0.0419998L8.9589996,4.9780006z M8.8659992,5.1219988L8.6619997,4.1019983L8.974,4.0389986
	c0.0660009-0.0149975,0.1230011-0.0209999,0.1619997-0.0179987c0.0510006,0.0030012,0.1020012,0.0209999,0.144001,0.045001
	c0.0570002,0.0360003,0.1080008,0.0870008,0.144001,0.1529989c0.0359974,0.0660009,0.0659981,0.144001,0.0839996,0.2370014
	C9.526,4.5340014,9.5290012,4.6030006,9.526,4.6660004S9.5109997,4.7800007,9.493001,4.8280001
	C9.4749994,4.8699999,9.4570007,4.9090014,9.4300013,4.9360008c-0.0270023,0.0299978-0.0570002,0.0539989-0.099,0.0720005
	C9.2919998,5.0290012,9.2440004,5.0439987,9.1899986,5.0560007L8.8659992,5.1219988z"/>
<path class="st34" d="M12.5860014,5.1099997l0.2099991,0.1080008c0.0689993,0.0360003,0.1259995,0.0479994,0.1739988,0.0360003
	c0.0419998-0.0150003,0.0810013-0.0479994,0.1080008-0.1020012C13.099,5.1159992,13.1080008,5.0770006,13.1049995,5.0410004
	s-0.0179987-0.0660009-0.0389986-0.0899992c-0.0150003-0.0150003-0.045001-0.0360003-0.099-0.0600014L12.7570019,4.782999
	L12.5860014,5.1099997z M12.2259989,5.5360003l0.4799995-0.9210005l0.3089991,0.1619997
	c0.0539989,0.0300007,0.0959988,0.0510006,0.1199999,0.0749989c0.0360003,0.0300007,0.0629997,0.0600014,0.0780001,0.0959988
	c0.0179987,0.0360003,0.0240011,0.0749989,0.0209999,0.1230011c-0.0030012,0.045001-0.0179987,0.0930004-0.0389986,0.1379986
	c-0.0389986,0.0780001-0.099,0.131999-0.1710005,0.1650009c-0.0720005,0.032999-0.1679993,0.0179987-0.2819996-0.0419998
	l-0.2130003-0.1080008l-0.1949987,0.375L12.2259989,5.5360003z"/>
<path class="st34" d="M13.2399998,5.6710005L13.474,5.8780012L13.5939999,5.599
	c0.0360003-0.0839996,0.0689993-0.1529989,0.0959988-0.2039995c-0.0539989,0.0389986-0.1080008,0.0810013-0.1710005,0.1140003
	L13.2399998,5.6710005z M12.756999,5.8089991l0.9599991-0.5400009l0.099,0.0870008l-0.4139986,1.0290012l-0.1049995-0.0930004
	l0.1290007-0.3060007L13.1380014,5.730999l-0.288002,0.1680021L12.756999,5.8089991z"/>
<path class="st34" d="M14.0350008,6.2530012l0.1619997,0.2070007c0.0360003,0.0419998,0.0660009,0.0749989,0.0959988,0.0930004
	C14.323,6.5710011,14.3530006,6.5770035,14.3859997,6.5740023c0.032999-0.0059996,0.0629997-0.0179987,0.0899992-0.0360003
	c0.0389986-0.0300007,0.0600014-0.0660009,0.0660009-0.1109991c0.0059996-0.0419998-0.0119991-0.0930004-0.0539989-0.1469994
	l-0.1800013-0.230999L14.0350008,6.2530012z M13.4980011,6.5080013L14.323,5.875l0.2490005,0.3239994
	c0.0479994,0.0660009,0.0810013,0.1199999,0.0930004,0.1679993s0.0059996,0.0930004-0.0179987,0.1409998
	c-0.0240011,0.0479994-0.0539989,0.0930004-0.1020012,0.1259995c-0.0570002,0.045001-0.1199999,0.0660009-0.1860008,0.0629997
	s-0.131999-0.0360003-0.1949987-0.099c0.0059996,0.0360003,0.0059996,0.0660009,0.0030012,0.0899992
	c-0.0090008,0.0510006-0.0240011,0.1080008-0.0479994,0.1650009l-0.1259995,0.3000011L13.9000034,7.032999l0.099-0.2280006
	c0.0300007-0.0660009,0.0479994-0.1169987,0.0600014-0.1590014c0.0119991-0.0360003,0.0179987-0.0689993,0.0179987-0.0930004
	s-0.0030012-0.0419998-0.0119991-0.0600014c-0.0059996-0.0150003-0.0179987-0.032999-0.0360003-0.0570002L13.9420033,6.324996
	l-0.3720045,0.2790041L13.4980011,6.5080013z"/>
<path class="st34" d="M14.5600014,7.243001l0.1529989,0.2729988l0.2039995-0.2249994
	C14.9799995,7.2220011,15.0310001,7.1710005,15.073,7.1290007c-0.0629997,0.0240011-0.1290007,0.0389986-0.198,0.0539989
	L14.5600014,7.243001z M14.0560007,7.2220011l1.079999-0.198l0.0629997,0.1140003l-0.7230005,0.8339996l-0.0689993-0.1199999
	l0.2220011-0.2490005l-0.189002-0.3360014l-0.3239994,0.0660009L14.0560007,7.2220011z"/>
<path class="st34" d="M15.3669987,10.2189999l-0.032999,0.3120003l0.2969999-0.0660009
	c0.0899992-0.0209999,0.1650009-0.0360003,0.2220011-0.0419998c-0.0629997-0.0179987-0.1290007-0.0389986-0.1920004-0.0689993
	L15.3669987,10.2189999z M14.9709988,9.9100008l0.9959993,0.4620008l-0.0150003,0.1290007l-1.0739994,0.2669992l0.0150003-0.1379986
	l0.3239994-0.0749989l0.0389986-0.3840008l-0.3029995-0.131999L14.9709988,9.9100008z"/>
<path class="st34" d="M4.5550013,11.224l-0.0570002-0.2550001c-0.0119991-0.0539989-0.0300007-0.0959988-0.045001-0.1230011
	C4.4320002,10.8159981,4.407999,10.8009977,4.375,10.7889986c-0.032999-0.0090008-0.0629997-0.0119991-0.099-0.0030012
	c-0.0479994,0.0119991-0.0839996,0.0360003-0.1080008,0.0720005s-0.0300007,0.0899992-0.0150003,0.1560001l0.0629997,0.2850008
	L4.5550013,11.224z M5.1459999,11.2180004L4.131999,11.4399986l-0.0899992-0.3990011
	c-0.0179987-0.0810013-0.0209999-0.144001-0.0119991-0.1889992c0.0090008-0.045001,0.0360003-0.0870008,0.0749989-0.1199999
	c0.0389986-0.0360003,0.0899992-0.0570002,0.144001-0.0720005c0.0720005-0.0179987,0.1379986-0.0090008,0.1949987,0.0240011
	c0.0570002,0.032999,0.1049995,0.0870008,0.1350002,0.1710005c0.0119991-0.0360003,0.0240011-0.0629997,0.0360003-0.0839996
	c0.0300007-0.0419998,0.0660009-0.0870008,0.1109991-0.1290007l0.243001-0.2189999L5.0050001,10.573l-0.1829996,0.1650009
	c-0.0539989,0.0479994-0.0959988,0.0870008-0.1199999,0.1169987c-0.0300007,0.0300007-0.045001,0.0539989-0.0539989,0.0749989
	c-0.0090008,0.0209999-0.0150003,0.0389986-0.0150003,0.0600014c0,0.0150003,0.0030012,0.0360003,0.0090008,0.0660009
	l0.032999,0.1379986l0.4530001-0.1020012L5.1459999,11.2180004z"/>
<path class="st34" d="M4.4890003,9.1719999l0.0209999-0.2399998C4.5129986,8.8570013,4.5009995,8.8000011,4.474,8.7640009
	c-0.032999-0.0360003-0.0780001-0.0570002-0.1350002-0.0629997C4.2939987,8.698,4.2580013,8.7039995,4.2220011,8.7220011
	C4.1920004,8.7399998,4.1679993,8.7609997,4.1560001,8.7939987c-0.0090008,0.0180016-0.0150003,0.0570002-0.0209999,0.111002
	L4.1169987,9.1390009L4.4890003,9.1719999z M5.0200005,9.3399992L3.9849997,9.25l0.0300007-0.3449993
	c0.0029984-0.0600014,0.0090008-0.1049995,0.0209999-0.1380014c0.0119991-0.0419998,0.032999-0.0810013,0.0570002-0.1080008
	c0.0269995-0.0300007,0.0600014-0.0479994,0.1080008-0.0629997c0.0419998-0.0150003,0.0930004-0.0209999,0.144001-0.0179987
	C4.4350014,8.5870008,4.5070019,8.6169987,4.564002,8.6739988c0.0569973,0.0540018,0.0779972,0.144001,0.0689993,0.276
	L4.6090002,9.1810007l0.420001,0.0360003L5.0200005,9.3399992z"/>
<path class="st34" d="M5.4219999,7.6359997l0.1259995-0.1889992C5.5720005,7.4140015,5.5839996,7.3900003,5.586998,7.375
	C5.599,7.3480005,5.6049995,7.3210011,5.6020012,7.3000011c0-0.0240011-0.0090008-0.045001-0.0240011-0.0720005
	C5.5689993,7.2010012,5.5479994,7.1800013,5.5179987,7.1619997c-0.0299978-0.0209999-0.0629997-0.032999-0.0959988-0.032999
	c-0.0360003,0-0.0629997,0.0090008-0.0930004,0.0300007C5.302,7.177,5.2719994,7.2099991,5.2390003,7.2580013L5.1220016,7.4380026
	L5.4219999,7.6359997z M5.0200005,7.3690004l0.1080008-0.1650009C5.1580019,7.1589985,5.1760006,7.1229982,5.1820002,7.099
	c0.0090008-0.032999,0.0059996-0.0600014-0.0030012-0.0870008C5.170001,6.9849997,5.1490011,6.9610014,5.1190004,6.9399986
	c-0.0300007-0.0209999-0.0570002-0.0300007-0.0870008-0.032999C5.0019989,6.9039984,4.9749994,6.9129992,4.9509983,6.9310007
	S4.8969994,6.9820013,4.8609991,7.0390015L4.7590008,7.1949987L5.0200005,7.3690004z M5.454999,7.8039989L4.5909986,7.2280006
	l0.1920004-0.288002c0.0389986-0.0570002,0.0780001-0.1020012,0.1199999-0.1230011
	c0.0389986-0.0240011,0.0870008-0.0360003,0.1350002-0.0300007C5.0860014,6.7929993,5.1340008,6.8050013,5.170001,6.8320007
	C5.2060013,6.8560019,5.236002,6.8890009,5.2570019,6.9279995s0.0300007,0.0839996,0.0269995,0.131999
	c0.045001-0.0360003,0.0959988-0.0539989,0.1500006-0.0539989s0.1080008,0.0179987,0.1560001,0.0479994
	c0.0389986,0.0269995,0.0720005,0.0600014,0.099,0.099C5.7160015,7.1949987,5.7280006,7.230999,5.7310019,7.263998
	c0.0030012,0.0360003,0,0.0720005-0.0150003,0.1109991C5.7039995,7.420001,5.6800013,7.4620008,5.6469994,7.5129986
	L5.454999,7.8039989z"/>
<path class="st34" d="M7.1650009,5.3079996l0.2669992-0.1679993L7.1949987,4.948
	C7.1230011,4.8909998,7.0689993,4.8430004,7.0240011,4.8010006C7.0510006,4.8640003,7.0690022,4.927,7.0870008,4.9959993
	L7.1650009,5.3079996z M7.1679993,5.8089991L6.9160004,4.7409992l0.1080008-0.0689993l0.8730011,0.6810007L7.7800007,5.4279995
	L7.5250006,5.2180004L7.1949987,5.4219999L7.276,5.7399998L7.1679993,5.8089991z"/>
<path class="st35" d="M10-18.5c15.5999985,0,28.5,12.9000006,28.5,28.5S25.5999985,38.5,10,38.5S-18.5,25.5999985-18.5,10
	S-5.5999994-18.5,10-18.5 M10-20C-6.5-20-20-6.5-20,10s13.5,30,30,30s30-13.5,30-30S26.5-20,10-20L10-20z"/>
</svg>
