<?xml version="1.0" encoding="utf-8"?>
<svg version="1.1" id="Layer_1" xmlns="http://www.w3.org/2000/svg" xmlns:xlink="http://www.w3.org/1999/xlink" x="0px" y="0px"
	 viewBox="-22 -22 64 64" style="enable-background:new 0 0 20 20;" xml:space="preserve">
<style type="text/css">
	.st0{fill:#FFFFFF;stroke:#B6B6B6;stroke-width:0.15;stroke-miterlimit:10;}
	.st1{fill:#70193D;}
	.st2{fill:#CCCCCC;}
</style>
<circle class="st0" cx="10" cy="10" r="28.8000011"/>
<path class="st1" d="M38.8000031,10c0-15.8400002-12.960001-28.8000011-28.8000031-28.8000011
	c-3.4560013,0-6.6240005,0.5760002-9.5040007,1.7280006l5.1839991,1.4399996l-10.6559982,3.1680012l10.368,3.1680002
	l-10.368,3.1679997l10.368,3.1679993l-10.368,3.4559999l10.368,3.1679993l-10.368,3.1680021L5.3919992,10l-10.368001,3.1679993
	l10.368001,3.1679993l-10.368001,3.1679993l10.368001,3.1679993l-10.368,3.1680031l10.368,3.1680012l-10.368001,3.1680012
	l10.368001,3.1679993l-5.1840005,1.4399948c2.8800001,1.1520042,6.336,1.7280045,9.5039997,1.7280045
	C25.8400002,38.8000031,38.8000031,25.8400002,38.8000031,10"/>
<path class="st2" d="M10-18.5c15.5999985,0,28.5,12.9000006,28.5,28.5S25.5999985,38.5,10,38.5S-18.5,25.5999985-18.5,10
	S-5.5999994-18.5,10-18.5 M10-20C-6.5-20-20-6.5-20,10s13.5,30,30,30s30-13.5,30-30S26.5-20,10-20L10-20z"/>
</svg>
