<?xml version="1.0" encoding="utf-8"?>
<svg version="1.1" id="Layer_1" xmlns="http://www.w3.org/2000/svg" xmlns:xlink="http://www.w3.org/1999/xlink" x="0px" y="0px"
	 viewBox="-22 -22 64 64" style="enable-background:new 0 0 20 20;" xml:space="preserve">
<style type="text/css">
	.st0{fill:#002B7F;}
	.st1{fill:#FCD116;}
	.st2{fill:#CE1126;}
	.st3{fill:#CCCCCC;}
</style>
<path class="st0" d="M-18.7999992,9.9940004c0,10.6560011,5.7599993,19.8719978,14.3999996,25.0560036v-50.1120033
	C-13.04-9.8780003-18.7999992-0.6619997-18.7999992,9.9940004"/>
<path class="st1" d="M24.4000015-15.0620003C20.0800018-17.3659992,15.1840019-18.8059998,10-18.8059998
	s-10.079999,1.4400005-14.4000006,3.7439995V34.762001C-0.0800004,37.3540001,4.8159981,38.5059967,10,38.5059967
	s10.079998-1.4399986,14.4000015-3.7439957V-15.0620003z"/>
<path class="st2" d="M38.8000031,9.9940004c0-10.6560001-5.7600021-19.8720016-14.4000015-25.0559998V34.762001
	C33.0400009,29.8659992,38.8000031,20.6500015,38.8000031,9.9940004"/>
<path class="st3" d="M10-18.5c15.5999985,0,28.5,12.9000006,28.5,28.5S25.5999985,38.5,10,38.5S-18.5,25.5999985-18.5,10
	S-5.5999994-18.5,10-18.5 M10-20C-6.5-20-20-6.5-20,10s13.5,30,30,30s30-13.5,30-30S26.5-20,10-20L10-20z"/>
</svg>
