<?xml version="1.0" encoding="utf-8"?>
<svg version="1.1" id="Layer_1" xmlns="http://www.w3.org/2000/svg" xmlns:xlink="http://www.w3.org/1999/xlink" x="0px" y="0px"
	 viewBox="-22 -22 64 64" style="enable-background:new 0 0 20 20;" xml:space="preserve">
<style type="text/css">
	.st0{fill:#009530;}
	.st1{fill:#FFFFFF;}
	.st2{fill:#CCCCCC;}
</style>
<circle class="st0" cx="10" cy="10" r="28.8000011"/>
<path class="st1" d="M21.3909988,23.4969978C21.3909988,23.4939995,21.394001,23.4969978,21.3909988,23.4969978
	c1.0530014,0.0480003,2.0460014,0.0090027,3.0960007,0.0600014c0.1679993,0.1410007,0.0839996,0.4680023-0.0270004,0.5250015
	c-0.0030022,0.0030022-0.0119991,0.0090008-0.0179977,0.0090008c-0.0030022,0-0.012001,0-0.0150013,0s-0.0119991,0-0.0150013,0
	c-0.3419991-0.0090008-0.5400009-0.0179996-0.8819981-0.0269985c-0.0030003-0.0179996-0.0030003-0.0360012-0.0090008-0.0480003
	c-0.0810013-0.243-0.6689987-0.2249985-0.8069992-0.0359993c-0.0030022,0.0030003-0.0060005,0.0089989-0.0060005,0.0119972
	c-0.0030022,0.0030022-0.0060005,0.012001-0.0090008,0.0150013c-0.0030003,0.0059986-0.0059986,0.0150013-0.0059986,0.0179996
	c-0.0030022,0.0089989-0.0030022,0.0179977-0.0060005,0.0269985c0,0.0090008-0.0030022,0.0209999-0.0030022,0.0300007
	c-0.4619999,0.0539989-0.8759995-0.0149994-1.3379993-0.032999C21.2140007,23.875,21.2320023,23.5720005,21.3909988,23.4969978
	 M20.9020004,20.8929977L20.9020004,20.8929977c-0.6870003,0.1800022-0.6660004,0.8880024-0.2280006,1.1970024
	c-7.2120018,0-18.276001-0.1200008-20.6490002-0.1200008c-1.3289995,0-5.526-0.1590023-5.6069999-0.1590023
	c0.9000006,1.3170013,2.2050004,1.5839996,3.9149995,1.6140022c3.2009997,0,18.0389996-0.0389996,22.2659988-0.0389996
	c-0.3029995,0.5340023,0.0269985,1.3920002,0.2609997,1.5479984c0.0060005,0.0060005,0.0119991,0.0090027,0.0179977,0.012001
	c0.0090027,0.0059986,0.0209999,0.0089989,0.0300026,0.0119972c0.0030003,0,0.0089989,0,0.0119972,0
	c0.2790031,0.0660019,0.4020004-0.1349983,0.4950008-0.2849998c0.4560013,0.0389977,3.0059986,0.0779991,3.2399998-0.0030022
	c0.0030022,0,0.0030022-0.0030003,0.0060005-0.0030003c0.1590004,0.230999,0.3149986,0.453001,0.6119976,0.4139996
	c0.527998-0.1140022,0.9419994-0.1739998,0.9570007-1.2420006c0,0-0.0539989-1.8209991-1.2509995-1.7039986
	c-0.2819996,0.0419998-1.0770016,0.1199989-1.0770016,0.1199989c-0.9179993-0.1079998-1.5899982-0.1169968-2.625-0.1559982
	c0.0960007-0.1200008,0.2610016-0.6119995,0.0570011-0.7889996c-0.0539989-0.0450001-0.1319981-0.0689983-0.2460003-0.0629997
	h-0.0030003c-0.0030003,0-0.0059986,0.0030003-0.0090008,0l-0.0030022-0.0030003
	c-0.0030003,0-0.0089989-0.0030022-0.0119972-0.0030022c-0.0060005-0.0030022-0.012001-0.0119991-0.0179996-0.0179977
	c-0.0030003-0.0030022-0.0059986-0.0060005-0.0090008-0.0090027c-0.0510006-0.0749969-0.0810013-0.2609978-0.1140003-0.3089981
	l-0.0030003-0.0030022c0-0.0030003-0.0030022-0.0059986-0.0030022-0.0059986s-0.0060005-0.0030003-0.0090008-0.0030003
	L20.9020004,20.8929977L20.9020004,20.8929977z"/>
<path class="st1" d="M-10.2709999,1.5969996c1.3829994,0.1320004,0.618-2.3400006,1.1189995-2.7899995
	C-9.0559998-1.4119997-8.882-1.4149995-8.8670006-1.1359997v2.0999994c-0.0149994,0.6810007,0.4350004,0.8790007,0.783,1.0200005
	C-7.7210002,1.9600005-7.4780006,1.9719996-7.3369994,2.323c0.0569987,1.2089996,0.1139989,2.4210005,0.1679993,3.6269989
	c0,0,0.8400006,0.243001,0.8820004-2.0399995c0.0419998-1.3410001-0.2670007-2.4599991-0.0870008-2.7209988
	c0.006001-0.2550001,0.336-0.2730002,0.5640006-0.1470008c0.3599997,0.2520003,0.5219994,0.5670004,1.0830002,0.4439993
	c0.8549995-0.237,1.3679996-0.651,1.3829999-1.3079996C-3.3980002-0.4459996-3.4669995-1.0700002-3.737-1.6939993
	c0.0360003-0.1110005-0.1649995-0.4080005-0.1259995-0.5219994c0.1530004,0.2429996,0.3870006,0.2219996,0.4409995,0
	c-0.1500006-0.4770012-0.3720002-0.9360008-0.7379994-1.137002c-0.3030009-0.2669992-0.7470002-0.2129989-0.9089999,0.3450007
	c-0.0750003,0.6419992,0.230999,1.401,0.6989994,2.0219994c0.099,0.2459993,0.2399998,0.6450005,0.1799998,1.0079999
	c-0.2520003,0.1410012-0.5009995,0.0810013-0.7080002-0.138c0,0-0.6809993-0.5100002-0.6809993-0.6240005
	c0.1799998-1.1549993,0.039-1.2869997-0.0599999-1.6079993C-5.7080002-2.789-5.9180007-2.9299998-6.0889997-3.2329993
	c-0.1740003-0.1799998-0.3989997-0.1799998-0.513,0c-0.2999997,0.5219994-0.1589999,1.638,0.0570002,2.1389995
	c0.1589999,0.4619994,0.3989997,0.7529998,0.2849994,0.7529998c-0.0930004,0.2579999-0.2849994,0.198-0.4259992-0.1019998
	c-0.198-0.6209993-0.2399998-1.5479994-0.2399998-1.9680004c-0.0599999-0.5189996-0.1259995-1.6199999-0.4680004-1.9050007
	c-0.2100005-0.2789984-0.5159998-0.1409984-0.6240001,0.1170015c-0.0240002,0.513-0.0270004,1.0289998,0.0359998,1.5
	c0.2340002,0.8309999,0.3059993,1.5599999,0.4169998,2.4119997c0.0330005,1.1400003-0.6570001,0.4949999-0.6240001-0.0689993
	c0.1590004-0.7349997,0.1170006-1.8900003-0.0269995-2.1810007c-0.1080008-0.2940001-0.243001-0.3660007-0.5160007-0.3150001
	C-8.948-2.8670001-9.5060005-2.2609997-9.6619997-1.25c0,0-0.132,0.5189996-0.1890001,0.9780006
	C-9.9289999,0.25-10.2709999,0.6190004-10.5109997-0.3439999c-0.210001-0.6990008-0.3360004-2.4210005-0.6870003-2.0159998
	C-11.2940006-1.0159998-11.4169998,1.3540001-10.2709999,1.5969996"/>
<path class="st1" d="M-8.1890001,2.5780001C-9.3260002,2.599-10.9939995,4.0720005-11.0360003,4.8879986
	c1.1969995-0.5760012,2.3789997-1.1309996,3.5999994-1.7280006C-7.6339993,2.8660007-7.4509997,2.599-8.1890001,2.5780001"/>
<path class="st1" d="M-1.9160004,6.9940004C-1.4210005,5.3530006-1.9219999,4.1140003-1.7570004,3.961
	c0-0.0029998,0.0059996-0.0029998,0.0059996-0.0059996c0.0029998,0,0.0059996-0.0029998,0.0089993-0.0029998l0.0059996-0.0029998
	c0.0059996,0,0.0150003-0.0029998,0.0239997-0.0029998c0.6060019,0.6539984,1.4580016,0.0839996,1.6470022-0.1410012
	c0.0809999-0.1140003,0.2789998-0.1859994,0.4199996-0.039c0.474,0.3389997,1.3079996,0.1799998,1.4790001-0.4199996
	c0.1019998-0.5910001,0.1860008-1.1970005,0.2070007-1.8240008c-0.3120003,0.0960002-0.5610008,0.1650009-0.657001,0.2730002
	C1.3569999,1.8220005,1.3389997,1.849,1.3330002,1.8820004C1.3090005,2.0529995,1.2819996,2.2299995,1.2520003,2.4039998
	c0,0.0120006-0.0029998,0.0270009-0.0120006,0.039C1.2280006,2.4639997,1.2039995,2.4849997,1.1799998,2.4970002
	C1.0720005,2.5570002,0.8829999,2.5239997,0.8709993,2.3649998c-0.1439996-0.6719999-0.75-0.7559996-1.118999,0.276
	c-0.2490005,0.2009997-0.6959996,0.2399998-0.7440004-0.0599999C-0.9320002,1.888-1.211,1.7919998-1.7719994,2.1190004
	C-1.9519992,0.7420001-2.131999-0.5719991-2.3119988-1.9489994c0.2340002-0.0089993,0.4470005,0.1649995,0.6599994-0.1049995
	c-0.2310004-0.717001-0.717001-2.1780009-0.993001-2.3160009c-0.0029998,0-0.0059996-0.0029998-0.0089993-0.0029998
	c-0.0120006-0.0150003-0.0269995-0.0300007-0.0360003-0.039C-2.6989994-4.4210005-2.7080002-4.427-2.711-4.4299998
	s-0.0120006-0.0059996-0.0180001-0.0090008c-0.0120006-0.0059996-0.0269995-0.0119991-0.039-0.0149989
	C-2.789-4.4600005-2.8159995-4.4660001-2.8430004-4.4600005C-2.9119997-4.4509997-2.987-4.4149995-3.0739994-4.3939996
	c-0.2940001,0.0960002-0.5670004,0.3480005-0.4799995,0.8430004c0.3480005,2.112,0.573,3.7200007,0.9210005,5.8350005
	c0.0510006,0.2459993-0.1530004,0.573-0.4199996,0.5399995C-3.5089979,2.5180016-3.6199985,1.894001-4.3939981,1.9240003
	C-4.9580002,1.927-5.6030006,2.539-5.6810007,3.1240005c-0.0960002,0.4680004-0.1290007,0.9720011,0,1.3830013
	c0.3930001,0.474,0.8699999,0.4260006,1.2839999,0.3210011c0.3389997-0.1409998,0.6179996-0.4770012,0.7410007-0.3990011
	c0,0.0030012,0.0029998,0,0.0029998,0c0,0.0030012,0,0.0030012,0,0.0030012
	c0.0750003,0.131999-0.0089993,1.2330008-1.6079993,2.0820007C-6.2420001,6.9520006-7.0280004,7.0570002-7.448,6.2530012
	c-0.2579999-0.5010023,0.0239997-2.4090014-0.618-1.9680004c-1.8990002,4.8929987,4.4430003,5.5739994,5.1510005,0.2009983
	c0.0449996-0.1500006,0.1859994-0.3000011,0.2849994-0.2640009c0.0480008,0.0180016,0.0809999,0.0750017,0.0960002,0.1860008
	c-0.1470008,4.8630009-4.9050007,5.1960011-5.7149997,3.6690016C-8.4500008,7.7139997-8.507,6.9129992-8.5279999,6.4329996
	c-0.0360003-0.2910004-0.1110001-0.4620008-0.1949997-0.5279989c-0.1919994-0.144001-0.4530001,0.2340002-0.5100002,0.8909998
	C-9.3140001,7.3210011-9.29,7.4680004-9.29,7.9780006C-9.0380001,11.8210011-2.9089999,10.1679993-1.9160004,6.9940004
	 M-4.2800007,3.6699996L-4.2800007,3.6699996c0,0.0059996-0.0029998,0.0089993-0.0029998,0.0120006
	c-0.0479994,0.0599999-0.2160001,0.0360003-0.3330002,0.0360003c-0.1439996-0.0090008-0.2159986-0.0300007-0.3029995-0.1500006
	c-0.039-0.1320004,0.0839996-0.2579999,0.138-0.3569999c0,0,0.0029998-0.0029998,0.0059996-0.0029998
	c0.006001-0.0090008,0.0150003-0.0180001,0.0240011-0.0269995c0.0419998-0.039,0.1199999-0.0780001,0.2009997-0.0869994
	c0.1229997-0.0180001,0.2639995,0.0330005,0.336,0.2100005C-4.1569996,3.448-4.2139997,3.5949993-4.2800007,3.6699996"/>
<path class="st1" d="M-1.3610005-0.6890006L-1.3610005-0.6890006l0.0059996,0.0029998c0.0029998,0,0.0029998,0,0.0029998,0
	c0.0029998,0,0.0059996,0.0029998,0.0059996,0.0059996c0.0900006,0.0570002,1.1970005,0.0570002,1.3200002,0.0029998
	C-0.026-0.6799998-0.026-0.6799998-0.0230002-0.6799998c0-0.0029998,0.0029998,0,0.0029998,0c0-0.0029998,0-0.0059996,0-0.0059996
	c0.3809996-0.138,2.1900001-2.2050004,2.1900001-2.2050004C2.0739994-2.9719996,1.987-3.0319996,1.8969994-3.1099997
	c-0.1019998-0.0900006-0.0900006-0.1740003,0-0.2579999c0.4440007-0.2640009,0.3030009-0.8370008,0.0720005-1.0950007
	C1.7739997-4.5499997,1.5910001-4.5800004,1.4260006-4.5739994C1.2640009-4.5650001,1.1170001-4.5169992,0.9940004-4.4539995
	c-0.3150001,0.2999997-0.3870006,0.7800007-0.138,1.0830002C1.0960002-3.2599988,1.336-3.0169992,1.177-2.881999
	C0.4959993-2.1530004-1.2769995-0.9379997-1.3640003-0.7160001c-0.0029998,0.0029998-0.0059996,0.0059996-0.0059996,0.0090008
	v0.0059996V-0.698C-1.3699999-0.6950002-1.3670001-0.6920004-1.3610005-0.6890006L-1.3610005-0.6890006 M1.3209996-3.9290004
	C1.329999-3.9320002,1.336-3.9320002,1.3419995-3.9320002C1.4530001-3.9440007,1.5879989-3.8419995,1.6539998-3.698
	c0.0689993,0.1530004,0.0360003,0.2999997-0.0780001,0.3270006c-0.1170001,0.0299993-0.2639995-0.0720005-0.336-0.2250009
	C1.1710005-3.7490005,1.2039995-3.8989997,1.3209996-3.9290004"/>
<path class="st1" d="M-10.3970003,8.6169987c-0.2999992,0.6090002-0.4229994,0.1889992-0.4499998-0.1500006
	c-0.0450001-0.6419992,0.0150003-1.2359991,0.0839996-1.7039995c0.0750008-0.4799995,0-0.3330002-0.1529999-0.1409998
	c-0.6780005,1.079999-0.7379999,2.6910009-0.3629999,3.1710005c0.198,0.2280006,0.5249996,0.3239994,0.7649994,0.2519989
	c0.4259996-0.1829996,0.6120005-1.0439987,0.5100002-1.3590002C-10.1420002,8.4639997-10.2560005,8.4279995-10.3970003,8.6169987"/>
<path class="st1" d="M18.6159992-2.0300007c0.0629997-0.0750003,0.2759991,0,0.3900013-0.1829996
	c0.1679993-0.1710005-0.4410019-1.5720005-0.7860012-2.1149998c-0.1200008-0.2399998-0.1650009-0.3989997-0.3690014,0.0300007
	c-0.2129993,0.3510003-0.3570004,0.9630003-0.3389988,1.5330005c0.4649982,3.2039995,0.605999,6.0089993,0.9060001,9.210001
	c0.0270004,0.3120003-0.0209999,0.7590008-0.2280006,0.9420004c-0.7590008,0.795001-1.8600006,1.7729988-3.0570002,2.2259989
	c-0.1290007,0.144001,0.3179998,0.7590008,0.9000006,0.7590008c0.9689999-0.1109991,1.8239994-0.6569996,2.6130009-2.0910015
	C18.8590012,7.948,19.230999,7.230999,19.243,6.6760006c0.0720024-3.2550001-0.1650009-5.7899995-0.6509991-8.1390009
	C18.5589981-1.6939993,18.579998-1.961,18.6159992-2.0300007"/>
<path class="st1" d="M30.9580002-1.4929996c-0.032999-0.2280006-0.1320019-0.7559996-0.0959988-0.8280001
	c0.0629997-0.1589999,0.3810024,0.0209999,0.4919987-0.1680007c0.1679993-0.1710005-0.8190022-1.4340005-1.1640015-1.974
	c-0.1230011-0.2429996-0.1650009-0.4019995-0.3689976,0.0269995c-0.2129974,0.3510003-0.288002,0.9780006-0.2009983,1.5330005
	c0.5129986,3.4799995,0.8969994,6.849,0.9750023,9.9330006C30.5500069,7.3210011,30.5380077,7.4799995,30.4030075,7.849
	c-0.3059978,0.3900003-0.6420021,0.8759995-0.9570007,1.1130009c-0.3180027,0.2370014-0.9870014,0.4589996-1.2060013,0.6330013
	c-0.6960011,0.4019995-0.6960011,0.8640003-0.1350002,0.881999c0.9719982-0.1109991,2.1179981-0.1920004,2.9099979-1.3859997
	c0.2099991-0.3360014,0.461998-1.2419987,0.4709988-1.7939987C31.5639992,4.0419998,31.4440022,0.8590002,30.9580002-1.4929996"/>
<path class="st1" d="M23.6169987,1.9689999c0.0090008-0.4470005,0.0510006-1.0380006,0.0749989-1.4039998
	c0.0119991-0.1409998,0.0419998-0.2940001,0.1800003-0.3270006c0.132-0.0360003,0.3660011,0.1350002,0.3690014-0.0089993
	c-0.0240002-0.2849994-0.0839996-0.7050004-0.2430019-0.9030004c-0.218998-0.3239994-0.8009987-0.2459993-0.8999996,0.2639995
	c0,0.1859994,0.0869999,0.2880006,0.0720005,0.4589996c-0.0270004,0.099-0.1259995,0.1649995-0.3659992,0.0479994
	c0.0360012-0.0360003-0.1560001-0.3060007-0.1560001-0.3060007C22.461998-0.320003,22.2099991-0.2030029,22.0480003-0.098002
	c-0.0900002,0.1619997-0.1529999,0.4379997-0.0510025,0.7230005C22.2639999,1.1140003,23.1789989,1.9600005,23.6169987,1.9689999"/>
<path class="st1" d="M15.480999,3.3579993c-0.0059996-0.2730002-0.0209999-0.5910001-0.0389986-0.9329996
	c0.8580008,1.4039998,1.6920004,2.8920007,2.5080004,4.5239997c0.2970009-0.144001,0.230999-1.8179998,0.0570011-2.052
	c-0.6540012-1.4069996-1.5600014-2.802-1.8480015-3.336c-0.1049995-0.1950002-0.4560003-0.7319999-0.8789997-1.3560004
	c-0.0780001-0.888-0.1590014-1.6320004-0.2130003-1.8599997C14.9320002-2.5940013,15.4539995-1.5530009,15.381999-2.099
	c-0.1710005-0.9359994-0.6870003-1.5689993-1.2989988-2.427c-0.1949987-0.2789998-0.1889992-0.3330002-0.4949999,0.0689993
	c-0.1800013,0.4080005-0.1800013,0.75-0.1259995,1.0679998c-0.0810013-0.1140003-0.1829996-0.2520003-0.3210011-0.4169998
	c-0.5279989-0.4530001-0.5579996-0.4769998-0.9959993-0.8460002c-0.2220011-0.1589999-0.7590008-0.4440007-0.8549995,0.0330005
	C11.2420015-4.2020006,11.2659998-3.974,11.3380003-3.6260009c0.0539989,0.2310004,0.3929987,0.6179996,0.5579996,0.8430004
	c0.795001,1.0679998,1.5539989,2.1420007,2.2919998,3.2520003c0.1169987,0.8250003,0.2010012,1.6290007,0.2550001,2.4329996
	C14.5599985,4.6629992,14.599,6.8530006,14.4909992,8.7070007C14.8179998,8.7220011,15.349,8.1729994,15.5349979,7.375
	C15.6550007,6.2709999,15.493001,4.0119991,15.480999,3.3579993 M13.3719988-2.4890003
	C12.9759989-2.9570007,13.3839979-2.795001,13.5759983-2.849c0.0179987,0.0900006,0.0360003,0.1799998,0.0510006,0.2700005
	c0.0419998,0.2009997,0.0870008,0.3959999,0.1259995,0.5939999C13.573-2.2340002,13.4350014-2.4169998,13.3719988-2.4890003"/>
<path class="st1" d="M3.823,0.5230002C4.375,0.7510009,4.7259989-0.302,4.9539995-1.4539995
	C5.1099997-1.7779989,5.224-1.8109994,5.3049984-1.6459999C5.2839985-0.1099997,5.4129992,0.2260003,5.8089991,0.6939993
	C6.6879997,1.375,7.4169998,0.7809987,7.474,0.724L8.157999,0.0399995C8.310998-0.1220002,8.5150003-0.131001,8.7279978,0.0099988
	C8.9379969,0.1989994,8.907999,0.5289984,9.3549967,0.756999c0.3780012,0.1500006,1.1850014,0.0360003,1.368001-0.2910004
	c0.2519989-0.4290004,0.3149986-0.5789995,0.4289989-0.7410007c0.1800013-0.2399998,0.4830008-0.1320004,0.4830008-0.0570002
	c-0.0300007,0.1320004-0.2070007,0.2639995-0.0839996,0.5040007c0.2130003,0.1619997,0.2609997,0.0570002,0.3900003,0.0239997
	c0.4439993-0.2130003,0.7800007-1.1849999,0.7800007-1.1849999c0.0209999-0.3599997-0.1829996-0.3300004-0.3149986-0.2550001
	c-0.1739988,0.1049995-0.1829996,0.138-0.3540001,0.2429996c-0.2189999,0.0330005-0.6419992,0.1799998-0.849-0.1469994
	c-0.2130003-0.3900003-0.2159986-0.9299998-0.3809996-1.3259997c0-0.0300007-0.2819996-0.6179996-0.0209999-0.6569996
	c0.131999,0.0269995,0.4169998,0.1019998,0.4649992-0.138c0.1379986-0.2340002-0.3000011-0.8939996-0.5999994-1.2269998
	c-0.2609997-0.2849994-0.6209993-0.3209996-0.9720011-0.0300007C9.448-4.301002,9.4840002-4.0520015,9.4389992-3.8120017
	C9.3790007-3.5419998,9.3909998-3.2059999,9.670001-2.8460002C9.9160004-2.3660007,10.3570013-1.7449999,10.2100019-0.875
	c0,0-0.2580013,0.4080005-0.7110014,0.3569999C9.3129997-0.5599999,9.006999-0.638,8.842001-1.8439999
	C8.7189999-2.7559996,8.8720016-4.0339999,8.4849997-4.6309996C8.3439999-4.9970002,8.2390003-5.3449993,7.9000006-4.724
	c-0.0930004,0.2399998-0.4830008,0.6090002-0.198,1.3679996c0.2340002,0.4799995,0.3270006,1.263,0.2220011,2.1329999
	c-0.1620026,0.243001-0.1980028,0.3270006-0.4080019,0.5760012C7.2189999-0.3259997,6.8950005-0.4069996,6.6459999-0.5269995
	c-0.230999-0.1589999-0.4139986-0.237-0.5159998-0.7319999c0.0179987-0.789,0.0600014-2.0819993-0.0839996-2.3549995
	C5.8360014-4.0369983,5.4849997-3.8839993,5.3349991-3.7579985C4.6149998-3.0979991,4.2579985-1.9909992,4.0419998-1.1029978
	c-0.198,0.6419978-0.414,0.4589982-0.5609994,0.1979971C3.1179996-1.2440004,3.0910001-3.9080005,2.6530004-3.4699993
	C1.9509997-1.4630003,3.0549998,0.7360005,3.823,0.5230002"/>
<path class="st1" d="M14.0770006,4.7020006L9.9639997,4.6839991C9.9129992,4.6629992,9.8740005,4.6419992,9.8499994,4.6269989
	c0-0.0030012-0.0059996-0.0059996-0.0059996-0.0090008L9.8409986,4.6149998c-0.0030012,0-0.0030012-0.0030012-0.0059996-0.0030012
	c0-0.0030012-0.0030012-0.0090008-0.0030012-0.0090008L9.8289995,4.5999994V4.5970011
	c0-0.0030012-0.0030012-0.0059996-0.0030012-0.0059996V4.5880003V4.5849991V4.5789995V4.5760012V4.573V4.5699987V4.5639992l0,0
	L9.8289995,4.560998c0-0.0030012,0.0030012-0.0059996,0.0030012-0.0090008C9.8530006,4.5249977,9.901,4.5009966,9.9610014,4.4769983
	c0.9840002-0.1350002,2.7299995-0.4169998,2.8439999-2.0969996c-0.0179987-0.8759995-0.375-1.4489994-1.4489994-1.6079993
	c-0.7860003,0.0599999-1.3470011,0.8250003-1.2600002,1.6649995c-0.0360003,0.2249994,0.0749989,0.6690001-0.1560001,0.7169995
	C8.4339991,3.2919998,6.7840014,4.2399998,6.7270012,4.9210005H6.724L6.7209988,4.9239988H6.7149992H6.7060013
	C6.7030001,4.9239988,6.6970005,4.927,6.6940022,4.927H6.6910009H6.6820002H6.6789989H6.6729994
	c-0.0059996,0-0.0119991-0.0030012-0.0150003-0.0030012c-0.099-0.0239983-0.2219982-0.1889992-0.2039995-0.4169998
	C6.3969994,3.3369994,6.0129986,2.0109997,5.4189987,0.9879994C5.2059984,0.7749991,5.112998,0.6879997,5.0499983,0.6789989
	c0,0-0.0030012,0-0.0059996,0H5.0319996H5.0290012H5.026c-0.0030012,0-0.0030012,0-0.0059996,0
	C5.0140009,0.6820002,5.0080013,0.6879997,5.0019989,0.6909995c-0.0029984,0.0029998-0.0059996,0.006001-0.0089979,0.006001
	C4.9449987,0.7329993,4.8909998,0.8140006,4.7679987,0.8980002C4.5639992,1.1320004,4.5250006,1.2969999,4.5400009,1.7650003
	C4.552,1.8129997,4.9300013,2.8720002,5.2510023,3.6099997C5.467001,4.3840008,5.6679993,5.269001,5.5209999,6.0999994
	c-0.506999,1.1040001-1.5300007,2.0909986-2.5139995,2.6280012c-0.5010009,0.1589985-0.933001,0.1049995-1.0469999-0.0030012
	L1.9569993,8.7220011C1.6689987,8.5300007,1.6599994,8.1820002,1.6779995,8.1220016V8.1190004l0.0029998-0.0030012
	c0.8309999-0.5789995,1.7819996-1.0469999,2.5260015-2.6099997C4.4260006,4.9060001,4.4949999,4.5489988,4.276,3.625
	C4.1889992,3.2830005,4.0839996,2.9979997,3.8469996,2.7550001l0.0029998-0.0029998
	C3.993999,2.683001,4.3599997,2.9530001,4.4169998,2.7850008C4.329999,2.3439999,4.032999,1.7529998,3.6939993,1.4500003
	C3.3969994,1.1799998,3.0759997,1.1500006,2.8060007,1.3959999C2.5,1.5640006,2.4310007,2.1760006,2.5780001,2.7069993
	c0.1649995,0.4019995,0.6060004,0.4710002,0.9179993,1.2810001v0.0029998C3.5020003,4.045001,3.6040001,4.5999994,3.448,4.8249989
	C3.3189993,5.224,1.6690001,6.5229988,1.552,6.6009989c0,0.0030012-0.0059996,0.0059996-0.0089993,0.0090008L1.5399995,6.6130009
	v0.0029984L1.5369997,6.6190004H1.5310001H1.5280004L1.5250006,6.6159992V6.6130009c0,0-0.0029998-0.0059996-0.0029998-0.0090008
	c-0.0059996-0.032999,0.0029998-0.1140003,0-0.2490005C1.5100002,6.1120014,1.6090002,5.5629997,1.5999994,5.467001V5.4639997
	c0-0.0030012-0.0029998-0.0030012-0.0029998-0.0059996V5.454999H1.5939999
	C1.0479994,5.8060007,0.8679996,6.8859997,0.7689996,7.2039995c-1.3800001,0.9539995-2.9429998,1.6679993-3.849,2.6309996
	c-0.467999,0.7349997,3.2399998-0.8430004,3.6719999-1.0319996c0.0029998,0.0030012,0.0089993,0.0059996,0.0120006,0.0119991
	c0.0809999,0.0899992,0.0869994,0.3990011,0.3330002,0.6839991c0.3870006,0.5219994,1.2000003,0.8430004,1.9979997,0.6450005
	C4.2700005,9.6609974,5.0439987,8.7489977,5.8270006,7.737998c0.1109991-0.1650009,0.2879992-0.2910004,0.4499989-0.1650009
	c0.5400009,1.2060013,2.0939999,2.0610008,4.1009989,2.151c0.4649992-0.5639992,0.243001-0.8430004,0.0539989-0.9630003
	C10.3749971,8.7249966,9.435998,8.3589973,9.2889986,7.9929981C9.1960011,7.6569996,9.4179993,7.3570013,9.8649998,7.1290007
	c1.2900009-0.1560001,2.5589991-0.329999,3.7860003-0.7259989c0.0119991-0.4110003,0.2519989-1.0290012,0.4139986-1.2960005
	c0.1140003-0.1829996,0.1860008-0.2039995,0.2159986-0.2340002c0,0,0.0030012,0,0.0030012-0.0030012l0.0030012-0.0030012
	c0,0,0.0030012-0.0030012,0.0059996-0.0030012V4.8549995c0-0.0090008-0.0030012-0.0179987-0.0059996-0.032999L14.0770006,4.7020006z
	 M10.8909998,2.2960005c0.0030012-0.0150003,0.0059996-0.0269995,0.0150003-0.0360003
	c0.0030012-0.0029998,0.0030012-0.0120006,0.0059996-0.0150003c0,0,0.0030012-0.0029998,0.0059996-0.0029998
	C10.9210005,2.2360005,10.9299984,2.2269998,10.935998,2.224c0.0269995-0.0239997,0.0629997-0.0360003,0.1049995-0.039
	c0.0930004-0.0120006,0.2070007,0.0209999,0.3210011,0.0869994c0.1650009,0.0960002,0.2640009,0.237,0.2519989,0.3389997
	c0,0.0029998,0,0.0089993,0,0.0120006s-0.0030012,0.0089993-0.0030012,0.0120006
	c0,0.0029998-0.0030012,0.0089993-0.0030012,0.0120006c-0.0030012,0-0.0030012,0.0059996-0.0059996,0.0059996
	c0,0.0029998-0.0030012,0.0059996-0.0030012,0.0089993c-0.0059996,0.0089993-0.0150003,0.0180001-0.0240011,0.0269995
	c-0.0780001,0.0720005-0.2580013,0.0599999-0.4289989-0.0360003c-0.1650009-0.0960002-0.2640009-0.237-0.2550001-0.3419995
	C10.8879986,2.302,10.8909998,2.2990003,10.8909998,2.2960005 M9.2440004,6.4179993
	C8.8060007,6.5710011,8.3800001,6.6879997,8.3800001,7.3239994c0.0570002,0.3179998,0.045001,0.4830008-0.0059996,0.5579996
	C8.3709993,7.8879986,8.3649998,7.8969994,8.3620014,7.9000006C8.3590002,7.9029989,8.355999,7.9029989,8.355999,7.9060001
	L8.3530006,7.9090014L8.3499994,7.9119997c-0.0030012,0-0.0030012,0.0030012-0.0030012,0.0030012
	C8.3439999,7.9179993,8.3380003,7.9179993,8.3380003,7.9210005C8.3320007,7.9239988,8.323,7.927,8.3139992,7.9300013
	C8.3079996,7.9329996,8.302,7.9329996,8.2960005,7.9360008C8.1879997,7.948,8.0379992,7.849,7.9239988,7.7889986
	c-0.2699976-0.198-1.0379992-0.6689987-1.1459999-1.6829996C6.7629986,5.875,6.9339991,5.677,7.2099991,5.6590014
	c0.0150003-0.0030012,0.0269995,0,0.0389986,0h0.0059996C7.7169981,5.7820024,8.388998,5.7940016,8.9769983,5.8540001
	C9.4570007,5.8840008,9.6910009,6.2590008,9.2440004,6.4179993"/>
<path class="st1" d="M-6.0109997-3.4489994c0.474,0.2279992,1.3649998,0.1289992,1.3289995-0.6329999
	c0-0.0689993-0.0180001-0.2969999-0.0269995-0.3599997c-0.0960002-0.2219996-0.3599997-0.1680007-0.4199996,0.0629997
	C-5.1469994-4.2979994-5.092999-4.1749997-5.1649995-4.1389995c-0.039,0.039-0.1890006,0.0180001-0.183001-0.1920004
	c0-0.0689993-0.0479994-0.1439996-0.0809999-0.1829996c-0.0300007-0.0209999-0.0479994-0.0269995-0.1019998-0.0269995
	c-0.0629997,0.0059996-0.0629997,0.0209985-0.1019998,0.0749989c-0.0150003,0.0570002-0.0330005,0.1140003-0.0330005,0.1740003
	c-0.0089993,0.0750003-0.039,0.1019998-0.092999,0.1170001c-0.0629997,0-0.0479994,0.0059996-0.099-0.0269995
	C-5.888-4.2349997-5.9239988-4.243999-5.9239988-4.3009992s-0.0150003-0.1530004-0.0330005-0.1890006
	c-0.0240011-0.0330005-0.0660009-0.0510006-0.1140003-0.0660009c-0.2579999,0.0059996-0.276,0.2999997-0.2609997,0.4110003
	C-6.3530006-4.1270003-6.3649998-3.5930004-6.0109997-3.4489994"/>
<path class="st1" d="M7.8790007,2.4310007c0.474,0.2280006,1.6020012,0.0960002,1.3289995-0.6329999
	c0-0.0689993-0.0179987-0.2969999-0.0240011-0.3599997c-0.0959988-0.2250009-0.362998-0.1680007-0.4199982,0.0629983
	C8.743001,1.5789995,8.7969999,1.7019992,8.7280006,1.7409992C8.6860008,1.7800007,8.5360003,1.7559996,8.5419998,1.5460005
	c0-0.0689993-0.0479994-0.1409998-0.0780001-0.1829996C8.4339991,1.3419995,8.4160004,1.3389997,8.3620014,1.3389997
	C8.2960005,1.3419995,8.2960005,1.3599997,8.256999,1.414C8.2419987,1.4680004,8.224,1.5280004,8.224,1.5910001
	c-0.0090008,0.0750003-0.0389986,0.099-0.0930004,0.1110005c-0.0629997,0-0.0479994,0.0059996-0.099-0.0269995
	c-0.0300007-0.0330005-0.0660009-0.0419998-0.0660009-0.099s-0.0150003-0.1530004-0.032999-0.1890006
	C7.9090014,1.3540001,7.8669987,1.3389997,7.8189993,1.3239994c-0.2579985,0.0030012-0.276,0.2969999-0.2609997,0.4110003
	C7.5369997,1.7559996,7.5279989,2.2839999,7.8790007,2.4310007"/>
<path class="st1" d="M15.9820013-0.0020003c0.4709978,0.2249994,1.3649988,0.1290007,1.3289995-0.6329999
	c0-0.0689993-0.0179977-0.2969999-0.0270004-0.3599997c-0.0959969-0.2249994-0.3599987-0.1680007-0.4200001,0.0629997
	c-0.0179996,0.0780001,0.0360012,0.2009997-0.0360012,0.2399998c-0.0389977,0.039-0.1889992,0.0180001-0.1829987-0.1920004
	c0-0.0689993-0.0480003-0.1409998-0.0810013-0.1829996c-0.0300007-0.0209999-0.0480003-0.0239997-0.1020012-0.0239997
	c-0.0660019,0-0.0660019,0.0180001-0.1049995,0.0750003c-0.0149994,0.0540004-0.0359993,0.1110005-0.0359993,0.177
	C16.3119965-0.7639995,16.2849979-0.737,16.2279968-0.7279992c-0.0629997,0-0.0479984,0.0059996-0.098999-0.0269995
	c-0.0300007-0.0330005-0.0660019-0.0419998-0.0660019-0.1019998c0-0.0540004-0.0149994-0.1500006-0.0329971-0.1859994
	c-0.0270004-0.0360003-0.0690002-0.0510006-0.1140013-0.0629997c-0.2580013,0.0029998-0.276,0.2969999-0.2609997,0.4080005
	C15.6400003-0.6799998,15.6280012-0.1489997,15.9820013-0.0020003"/>
<path class="st1" d="M20.1850014,6.0760012C20.1970005,6.019001,20.1910019,6.0219994,20.1850014,6.0760012"/>
<path class="st1" d="M26.5600014,1.8460002c0.342001,0.4799995,0.6809998,0.9719996,1.0169983,1.4700007
	C27.723999,4.8820019,27.7900009,6.427,27.7449989,7.9030018c-0.0359993,0.2939987,1.026001-0.8759995,1.0199986-1.4310007
	c-0.0060024-0.4830008-0.0029984-0.9239988-0.0029984-1.3320007c0.5160027,0.8220005,1.0109997,1.6560001,1.4819984,2.4990005
	c0.2910004-0.1560001,0.1919975-1.8060007,0.0090008-2.0369997c-0.4829979-0.8129997-1.125-1.7160001-1.6140003-2.4030004
	c-0.0959988-0.8729997-0.230999-1.914-0.2910004-2.2290001c-0.0930004-0.4920001-0.1830025-1.2269998-0.3239994-1.8120003
	C27.987999-1.0700002,27.8649979-1.802,27.9039993-1.8709993c0.0569992-0.1619997,0.2759991,0.0059996,0.383997-0.1829996
	c0.1620026-0.1740003-0.5550022-2.0250006-0.9179993-2.5560007c-0.1289997-0.237-0.3659992-0.1560001-0.6600018,0.2310004
	c-0.2700005,0.2520003-0.1709995,0.8309999-0.066,1.3829999c0.2670002,1.4039998,0.5100002,2.8289995,0.6989994,4.2540007
	c-0.3479996-0.5219994-0.7859993-1.1610003-1.2029991-1.7639995c-0.0330009-0.1649995-0.0510025-0.2670007-0.0510025-0.2730002
	c0-0.0269995-0.0600014-1.1489997-0.1109982-1.4160004c-0.0090008-0.1079993-0.0360012-0.138,0.0810013-0.1229997
	c0.1169987,0.1019998,0.1350002,0.1079993,0.2099991,0.1409998c0.1230011,0.0239997,0.2339993-0.1859994,0.1590023-0.3779998
	c-0.3780022-0.6929998-0.7560005-1.3889995-1.1280022-2.0850005c-0.0930004-0.0900006-0.2099991-0.1859994-0.3540001,0.0269995
	c-0.1350002,0.1199999-0.2819996,0.3389997-0.2790012,0.6179996C24.7029953-3.5,24.7869949-2.9990005,24.8229942-2.5039992
	c0.0119991,0.0659995,0.0240021,0.1320004,0.0359993,0.198c-0.053997-0.0689993-0.098999-0.1199999-0.1230011-0.1500006
	C23.7699947-3.4669995,25.1769943-2.6209993,24.5529938-3.401c-0.5310001-0.5820007-0.6839981-0.7650003-1.1369991-1.1160007
	c-0.2280006-0.1469994-0.3659992-0.4260006-0.441,0.0510006c-0.0300026,0.4169998-0.0600014,0.9030004-0.0330009,1.2600002
	c-0.0030003,0.1950002,0.2040005,0.5670004,0.3810005,0.7830005c0.6419983,0.789,1.2989998,1.6259995,1.9589996,2.5050001
	c0.1379986,1.7850008,0.177,3.4260006,0.3180008,5.2199993c-0.0209999,0.7619991-0.2580032,1.7790012-0.4799995,1.8780012
	c0,0-0.3390007,0.1949987-0.5670013-0.0240011c-0.1829948-0.0660009-0.8429947-1.1009989-0.8429947-1.1009989
	c-0.3390007-0.3120003-0.5610008-0.2220011-0.8039989,0c-0.6660004,0.6419992-0.9689999,1.842001-1.4189987,2.6729994
	C21.3730011,8.9110003,21.0400009,9.0700016,20.677,8.7130003c-0.75-1.0200005-0.5400009-2.3909998-0.4919987-2.6369991
	c-0.0030022,0.0090008-0.0030022,0.0209999-0.0090008,0.0360003c-0.8249989,0.9300013-0.4619999,2.4689999-0.2729988,2.7989988
	c0.2700005,0.5460005,0.4890003,0.8969994,1.0200005,1.1639986c0.4829998,0.3570013,0.8579998,0.1350002,1.0679989-0.1140003
	c0.4830017-0.5009995,0.4890022-1.7879992,0.7170029-2.0429993c0.1619987-0.4680004,0.5639992-0.3900003,0.7559986-0.1800013
	c0.1889992,0.2729988,0.4139996,0.4499989,0.6899986,0.5970011c0.453001,0.3990011,0.9930019,0.4709988,1.5269985,0.1080008
	c0.3660011-0.2039995,0.6030006-0.4680004,0.8160019-0.993001C26.7249985,6.8380003,26.6110001,3.6370006,26.5600014,1.8460002"/>
<path class="st1" d="M16.3000011-2.9630003C16.4710007-2.4920001,16.1740017-2.039,16.3479996-1.9730005
	c0.1620007,0.0720005,0.387001-0.4890003,0.4710007-1.0079999c0.098999-0.4199996-0.2010021-1.2810001-0.6269989-1.4580002
	c-0.2580023-0.0629997-0.6240015,0.0900006-0.507,0.4379997C15.625-3.8330002,16.2039986-3.2719994,16.3000011-2.9630003"/>
<path class="st1" d="M20.6679993,8.125c0.329998,0.0030012,0.7110023-0.7559996,0.8730011-1.5030012
	c0.0900002-1.0350008-0.0600014-1.6650009-0.0870018-2.2679987C21.4239998,3.7449999,20.7669983-1.1749997,20.632-1.6340008
	c-0.1620007-0.8699999,0.6419983-0.1170001,0.5519981-0.6209993c-0.2759991-0.6359997-0.968998-1.5629997-1.1879997-2.1179996
	c-0.1289997-0.237-0.0749969-0.4500003-0.3659973-0.0629997c-0.2729988,0.888-0.3660011,1.6110005-0.2610016,2.1599994
	C20.0680008,1.3569999,20.7790012,4.6660004,20.6679993,8.125"/>
<path class="st1" d="M28.894001-1.6099997c0.0779972,0.237-0.1140003,0.9990005,0.0449982,1.0709996
	C29.0859985-0.461,29.2900009-1.0700002,29.3679981-1.6309996c0.0419998-0.3090005-0.1830025-1.3859997-0.5700016-1.5780001
	c-0.2399998-0.0659995-0.573,0.099-0.4650021,0.474C28.2790012-2.5549998,28.8069973-1.9429998,28.894001-1.6099997"/>
<path class="st1" d="M0.1690001,6.6280012c0.1409998,0.0570002,0.336-0.3900003,0.4110003-0.8010006
	c0.039-0.2280006-0.177-1.0200005-0.5460005-1.1610003C-0.1939993,4.618001-0.5059996,4.6810007-0.4099994,5.0140009
	c-0.0090008,0.185998,0.5039992,0.4049978,0.5339999,0.8280001C0.1989994,6.0129986,0.0159998,6.5770006,0.1690001,6.6280012"/>
<path class="st1" d="M-9.809-3.4790001c0.0720005,0.1799998-0.0719995,0.7620006,0.0780001,0.8159995
	c0.1380005,0.0599999,0.3330002-0.3989997,0.4049997-0.8280001c0.0390005-0.237,0.0090008-1.0380006-0.54-1.2000003
	c-0.2249994-0.0510006-0.54,0.0750003-0.4349995,0.3599997C-10.3519993-4.1959996-9.8900003-3.7310004-9.809-3.4790001"/>
<path class="st1" d="M0.9249997-0.9080005C0.5050001-0.6799998,0.3430004-0.0079999,0.6040001,0.388
	c0.2429996,0.3449993,0.6270003,0.2189999,0.6810007,0.2189999C1.6930013,0.6549993,1.9390006-0.164,1.9390006-0.164
	s0.0119991-0.2340002-0.474,0.2039995c-0.2070007,0.039-0.2310004-0.039-0.2850008-0.1560001
	C1.138-0.3289995,1.1469994-0.5419998,1.2459993-0.7550001C1.3209996-0.9619994,1.1619997-1.052,0.9249997-0.9080005"/>
<path class="st1" d="M4.0810013-3.4340005C4.2370014-3.5480008,4.288002-3.6230011,4.3390026-3.8150001
	C4.4050007-4.1389995,4-3.6649995,3.9489994-4.0189996c-0.0899992-0.336,0.1710005-0.4710002,0.4140015-0.789
	c0.0090008-0.2189999,0.0030012-0.375-0.2969999-0.198C3.8560004-4.8649998,3.4360008-4.4299998,3.4240003-3.9289989
	C3.4119997-3.6469994,3.3579993-3.6469994,3.5440001-3.4699993C3.6790004-3.2780004,3.8109994-3.2930007,4.0810013-3.4340005"/>
<path class="st1" d="M6.9279995-3.263C7.198-3.9979997,7.198-4.3099999,7.2189999-4.6220002
	c-0.0870008-0.474-0.407999-0.4619994-0.618001,0.0659995C6.5080013-4.3549995,6.4000006-3.3049998,6.4179993-3.3049998
	C6.3459988-2.9959993,6.7449999-2.8610005,6.9279995-3.263"/>
<path class="st1" d="M24.8139992,1.9539995c0,0-2.1960011,1.5599999-2.25,1.6170001
	c-0.2189999,0.1920004-0.1080017,0.8760009,0,0.7980008c0.1560001,0.0600014,2.3640003-1.4400001,2.3220005-1.6170001
	C24.9909992,2.7579999,25.0389977,1.8759995,24.8139992,1.9539995"/>
<path class="st1" d="M24.5470009,6.1899986c0.1469994,0.0810013,0.5340004-0.3990011,0.5219994-0.9990005
	c0.0419998-0.3089991-0.1110001-1.4400001-0.4980011-1.6320004c-0.2400017-0.0659995-0.552002,0.1350002-0.4440002,0.5099988
	c-0.0569992,0.1800013,0.2700005,0.8100014,0.3570023,1.1429987C24.5620003,5.4460011,24.3850002,6.1209993,24.5470009,6.1899986"/>
<path class="st1" d="M13.795001,8.5570002c-0.3480005,0.0179987-0.6719999,0.0360003-1.0200005,0.3089991
	c-0.2159986,0.0510006-0.2519989-0.0780001-0.2969999-0.1949987c-0.0539989-0.2910004,0.1169987-0.4919987,0.0810013-0.7110014
	c0.0150003,0.0119991-0.198-0.1800013-0.4139986-0.0720005c-0.0119991,0-0.4830008,0.3210011-0.6359997,0.5429993
	C11.4160004,8.5,11.4250011,8.5600014,11.454999,8.6829996c0.0720005,0.1679993,0.2010012,0.1170015,0.3450022,0.0390015
	c0.1920004-0.0269995,0.2850008,0.1020012,0.2700005,0.329999C11.9800024,9.3399992,12.1060019,9.448,12.1060019,9.4630003
	c0,0.0179987,0.1860008,0.1800013,0.4019995,0.0510006c0.4620008-0.177,0.75-0.3480005,1.3950005-0.4859991
	C14.0710011,9.0279989,14.0649986,8.5749989,13.795001,8.5570002"/>
<path class="st1" d="M28.0060024,9.3549995C27.9160042,9.25,27.7150021,9.3129997,27.5770035,9.2979994
	c-0.0629997,0-0.276001-0.032999-0.177-0.2220011c0.0869999-0.1169987,0.1140003-0.1860008,0.1739979-0.329999
	c0.0629997-0.1409998,0.0090027-0.2370014-0.2220001-0.3149986c-0.2370014-0.0419998-0.3269997-0.0209999-0.5909996,0
	c-0.1409988,0.032999-0.1889992,0.0959988-0.2159977,0.2640009c0.0119991,0.2580013,0.1709995,0.2459993,0.3299999,0.3449993
	c0.0959969,0.1199999,0.1559982,0.230999-0.0090027,0.4289989c-0.152998,0.1409998-0.2609978,0.2189999-0.4139977,0.3599997
	c-0.0720005,0.1230011-0.1169987,0.3120003,0.1049995,0.3719988c0.407999,0.1140003,1.3590012-0.5009995,1.3590012-0.5129986
	C28.0690022,9.5739994,28.0209999,9.3549995,28.0060024,9.3549995"/>
<path class="st2" d="M10-18.5c15.5999985,0,28.5,12.9000006,28.5,28.5S25.5999985,38.5,10,38.5S-18.5,25.5999985-18.5,10
	S-5.5999994-18.5,10-18.5 M10-20C-6.5-20-20-6.5-20,10s13.5,30,30,30s30-13.5,30-30S26.5-20,10-20L10-20z"/>
</svg>
