<?xml version="1.0" encoding="utf-8"?>
<svg version="1.1" id="Layer_1" xmlns="http://www.w3.org/2000/svg" xmlns:xlink="http://www.w3.org/1999/xlink" x="0px" y="0px"
	 viewBox="-22 -22 64 64" style="enable-background:new 0 0 20 20;" xml:space="preserve">
<style type="text/css">
	.st0{fill:#0051BA;}
	.st1{fill:#215B33;}
	.st2{fill:#FCD116;}
	.st3{fill:#FFFFFF;}
	.st4{fill:#CCCCCC;}
</style>
<circle class="st0" cx="10" cy="10" r="28.8000011"/>
<path class="st1" d="M38.6499977,12.9759989L-4.8079996,34.7050018c4.3289995,2.6010017,9.3959999,4.0950012,14.810998,4.0950012
	C24.9040012,38.8000031,37.1620026,27.4840012,38.6499977,12.9759989"/>
<path class="st2" d="M38.8000031,10c0-0.9539995-0.0480042-1.8990011-0.1380005-2.8289995L-9.4549961,31.230999
	c1.4219999,1.3080025,2.9819999,2.4719963,4.6439996,3.4740028l43.4580002-21.7290001
	C38.7490005,11.9949999,38.8000031,11.0050001,38.8000031,10"/>
<polygon class="st3" points="6.8409986,-3.2990003 2.6560001,-3.2990003 1.3629994,-7.2800007 0.0700002,-3.2990003 
	-4.1149998,-3.2990003 -0.7310004,-0.8389997 -2.0239997,3.1389995 1.3629994,0.6790004 4.7469988,3.1389995 3.4539995,-0.8389997 
	"/>
<polygon class="st3" points="13.243001,7.2910004 11.9499989,3.3099999 10.6569996,7.2910004 6.4720011,7.2910004 
	9.855999,9.7480011 8.5629997,13.7290001 11.9499989,11.269001 15.3370008,13.7290001 14.0439987,9.7480011 17.4279995,7.2910004 
	"/>
<polygon class="st3" points="-7.9340005,7.2910004 -9.2269993,3.3099999 -10.5199995,7.2910004 -14.7049999,7.2910004 
	-11.3210001,9.7480011 -12.6140003,13.7290001 -9.2269993,11.269001 -5.8400006,13.7290001 -7.1329999,9.7480011 
	-3.7490005,7.2910004 "/>
<path class="st3" d="M-5.8430004-7.4509997l-1.2929993-3.9780002l3.3869991-2.46h-2.3399992
	c-0.2459993,0.1680002-0.4860005,0.3360004-0.7260003,0.5100002c-0.2609997,0.1859999-0.5159998,0.375-0.7680001,0.573
	c-0.2489991,0.1889992-0.4949999,0.3839998-0.7379999,0.5849991c-0.0299997,0.0240011-0.0629997,0.0540009-0.0929995,0.0810003
	C-9.875-10.9249992-11.21-9.5690002-12.4070005-8.0929995l-0.2069998,0.6419997l3.3839998-2.4599996L-5.8430004-7.4509997z"/>
<polygon class="st3" points="8.5660009,-7.4509997 11.9530001,-9.908 15.3370008,-7.4509997 14.0439987,-11.4289999 
	17.4309998,-13.8889999 13.2459993,-13.8889999 11.9530001,-17.8700008 10.6600008,-13.8889999 6.4720011,-13.8889999 
	9.8590002,-11.4289999 "/>
<path class="st4" d="M10-18.5c15.5999985,0,28.5,12.9000006,28.5,28.5S25.5999985,38.5,10,38.5S-18.5,25.5999985-18.5,10
	S-5.5999994-18.5,10-18.5 M10-20C-6.5-20-20-6.5-20,10s13.5,30,30,30s30-13.5,30-30S26.5-20,10-20L10-20z"/>
</svg>
