<?xml version="1.0" encoding="utf-8"?>
<svg version="1.1" id="Layer_1" xmlns="http://www.w3.org/2000/svg" xmlns:xlink="http://www.w3.org/1999/xlink" x="0px" y="0px"
	 viewBox="-22 -22 64 64" style="enable-background:new 0 0 20 20;" xml:space="preserve">
<style type="text/css">
	.st0{fill:#FFFFFF;stroke:#B6B6B6;stroke-width:0.15;}
	.st1{fill:#D21034;}
	.st2{fill:#007229;}
	.st3{fill:#CCCCCC;}
</style>
<circle class="st0" cx="10" cy="10" r="28.8000011"/>
<path class="st1" d="M37.1589966,0.4000006C33.2050018-10.7840004,22.5400009-18.7999992,10-18.7999992
	c-10.3139992,0-19.3560009,5.4239988-24.4440002,13.5689983l7.5059996,5.631001H37.1589966z"/>
<path d="M37.1589966,19.6030006H-6.9379997l-7.5089998,5.6340008c5.0879993,8.1450024,14.1330004,13.5690022,24.4439983,13.5690022
	C22.5400009,38.8030014,33.2050018,30.7870026,37.1589966,19.6030006"/>
<path class="st2" d="M5.8630009,10L-6.9349999,0.4000006l-7.5090003-5.631001
	C-17.2040005-0.8150001-18.7999992,4.407999-18.7999992,10s1.5959988,10.8149986,4.355999,15.230999l7.5090003-5.6310005
	L5.8630009,10z"/>
<path class="st3" d="M10-18.5c15.5999985,0,28.5,12.9000006,28.5,28.5S25.5999985,38.5,10,38.5S-18.5,25.5999985-18.5,10
	S-5.5999994-18.5,10-18.5 M10-20C-6.5-20-20-6.5-20,10s13.5,30,30,30s30-13.5,30-30S26.5-20,10-20L10-20z"/>
</svg>
