<svg xmlns="http://www.w3.org/2000/svg" width="24.25" height="24.281" viewBox="0 0 24.25 24.281">
  <metadata><?xpacket begin="﻿" id="W5M0MpCehiHzreSzNTczkc9d"?>
<x:xmpmeta xmlns:x="adobe:ns:meta/" x:xmptk="Adobe XMP Core 5.6-c140 79.160451, 2017/05/06-01:08:21        ">
   <rdf:RDF xmlns:rdf="http://www.w3.org/1999/02/22-rdf-syntax-ns#">
      <rdf:Description rdf:about=""/>
   </rdf:RDF>
</x:xmpmeta>
                                                                                                    
                                                                                                    
                                                                                                    
                                                                                                    
                                                                                                    
                                                                                                    
                                                                                                    
                                                                                                    
                                                                                                    
                                                                                                    
                                                                                                    
                                                                                                    
                                                                                                    
                                                                                                    
                                                                                                    
                                                                                                    
                                                                                                    
                                                                                                    
                                                                                                    
                                                                                                    
                           
<?xpacket end="w"?></metadata>
<defs>
    <style>
      .cls-1 {
        fill: #fff;
        fill-rule: evenodd;
      }
    </style>
  </defs>
  <path class="cls-1" d="M1265.84,23.467c-0.26-.153-0.52-0.307-0.78-0.458a6.941,6.941,0,0,0,0-1.578c0.26-.151.53-0.305,0.78-0.458a1.019,1.019,0,0,0,.41-1.26h0l-0.55-1.346a1.031,1.031,0,0,0-1.19-.6c-0.29.071-.58,0.148-0.87,0.226a6.7,6.7,0,0,0-1.12-1.116c0.08-.293.16-0.587,0.23-0.875a1.026,1.026,0,0,0-.6-1.184l-1.35-.558a1.024,1.024,0,0,0-1.26.414c-0.15.255-.3,0.516-0.46,0.778a6.708,6.708,0,0,0-1.57,0c-0.16-.263-0.31-0.525-0.46-0.778a1.024,1.024,0,0,0-1.26-.414l-1.35.558a1.026,1.026,0,0,0-.6,1.184c0.08,0.288.15,0.582,0.23,0.874a7.062,7.062,0,0,0-1.12,1.116c-0.29-.079-0.58-0.155-0.87-0.226a1.019,1.019,0,0,0-1.18.6l-0.56,1.346a1.03,1.03,0,0,0,.41,1.26c0.26,0.153.52,0.307,0.78,0.458a6.94,6.94,0,0,0,0,1.578c-0.26.151-.52,0.305-0.78,0.458a1.03,1.03,0,0,0-.41,1.26l0.56,1.346a1.019,1.019,0,0,0,1.18.6c0.29-.072.58-0.148,0.87-0.226a7.1,7.1,0,0,0,1.12,1.116c-0.08.293-.15,0.587-0.23,0.875a1.026,1.026,0,0,0,.6,1.184l1.35,0.558a0.959,0.959,0,0,0,.38.076,1.032,1.032,0,0,0,.88-0.491c0.15-.253.3-0.514,0.46-0.778a6.8,6.8,0,0,0,1.58,0c0.15,0.261.3,0.523,0.45,0.778a1.024,1.024,0,0,0,1.26.414l1.35-.558a1.026,1.026,0,0,0,.6-1.184c-0.07-.286-0.15-0.58-0.23-0.874a6.667,6.667,0,0,0,1.12-1.116c0.29,0.079.58,0.155,0.87,0.226a1.031,1.031,0,0,0,1.19-.6l0.55-1.346A1.019,1.019,0,0,0,1265.84,23.467Zm-1.12,2.137q-0.42-.1-0.84-0.218a1.017,1.017,0,0,0-1.07.356,5.728,5.728,0,0,1-.99.994,1,1,0,0,0-.36,1.066c0.08,0.282.15,0.564,0.22,0.838l-1.24.512c-0.14-.246-0.29-0.5-0.44-0.747a1.008,1.008,0,0,0-1-.5,5.735,5.735,0,0,1-1.41,0,1.007,1.007,0,0,0-1,.5c-0.15.253-.3,0.5-0.44,0.747l-1.24-.513c0.07-.276.14-0.558,0.22-0.838a1,1,0,0,0-.36-1.067,5.758,5.758,0,0,1-.99-0.993,1.017,1.017,0,0,0-1.07-.355c-0.28.075-.56,0.149-0.83,0.218l-0.52-1.237c0.25-.146.5-0.294,0.75-0.439a1.006,1.006,0,0,0,.5-1.005,6.6,6.6,0,0,1,0-1.4,1.007,1.007,0,0,0-.5-1.006c-0.25-.145-0.5-0.292-0.75-0.439l0.52-1.237c0.27,0.069.55,0.142,0.83,0.218a1.017,1.017,0,0,0,1.07-.356,5.721,5.721,0,0,1,.99-0.994,1,1,0,0,0,.36-1.066c-0.08-.28-0.15-0.561-0.22-0.838l1.24-.512c0.15,0.244.29,0.495,0.44,0.747a1.007,1.007,0,0,0,1,.5,5.73,5.73,0,0,1,1.41,0,1.007,1.007,0,0,0,1-.5c0.15-.251.3-0.5,0.44-0.747l1.24,0.512c-0.07.276-.14,0.558-0.22,0.839a1,1,0,0,0,.36,1.067,5.758,5.758,0,0,1,.99.993,1.017,1.017,0,0,0,1.07.355q0.42-.113.84-0.218l0.51,1.237c-0.25.146-.5,0.294-0.75,0.439a1.006,1.006,0,0,0-.5,1.005,5.505,5.505,0,0,1,0,1.4,1.007,1.007,0,0,0,.5,1.006c0.25,0.144.5,0.292,0.75,0.439Zm-3.01-4.8h0a3.7,3.7,0,1,0-3.41,5.118,3.64,3.64,0,0,0,1.41-.284A3.7,3.7,0,0,0,1261.71,20.8Zm-2.41,3.831a2.614,2.614,0,1,1-2-4.831,2.554,2.554,0,0,1,.99-0.2A2.615,2.615,0,0,1,1259.3,24.635Zm14.48-13.853c-0.18-.028-0.38-0.055-0.57-0.081a5.293,5.293,0,0,0-.39-0.939c0.12-.155.24-0.311,0.35-0.463a0.876,0.876,0,0,0-.08-1.119l-0.75-.749a0.866,0.866,0,0,0-1.12-.084c-0.16.113-.31,0.23-0.47,0.348a5.14,5.14,0,0,0-.93-0.389c-0.03-.194-0.06-0.386-0.09-0.574A0.857,0.857,0,0,0,1268.88,6h-1.06a0.872,0.872,0,0,0-.85.732c-0.02.187-.05,0.38-0.08,0.574a5.233,5.233,0,0,0-.94.389c-0.15-.118-0.31-0.235-0.46-0.348a0.866,0.866,0,0,0-1.12.084l-0.75.749a0.864,0.864,0,0,0-.08,1.119c0.11,0.153.23,0.308,0.35,0.463a5.286,5.286,0,0,0-.39.939c-0.2.026-.39,0.053-0.58,0.081a0.87,0.87,0,0,0-.73.851v1.059a0.87,0.87,0,0,0,.73.851c0.19,0.028.38,0.055,0.58,0.081a4.635,4.635,0,0,0,.39.939c-0.12.155-.24,0.31-0.35,0.463a0.864,0.864,0,0,0,.08,1.119l0.75,0.749a0.866,0.866,0,0,0,1.12.084c0.15-.113.31-0.23,0.46-0.348a5.222,5.222,0,0,0,.94.389c0.03,0.194.06,0.386,0.08,0.574a0.872,0.872,0,0,0,.85.732h1.06a0.857,0.857,0,0,0,.85-0.732c0.03-.187.06-0.38,0.09-0.574a5.13,5.13,0,0,0,.93-0.389c0.16,0.118.31,0.235,0.47,0.349a0.866,0.866,0,0,0,1.12-.084l0.74-.749a0.865,0.865,0,0,0,.09-1.119c-0.11-.153-0.23-0.308-0.35-0.463a5.287,5.287,0,0,0,.39-0.939c0.19-.026.39-0.053,0.57-0.081a0.87,0.87,0,0,0,.74-0.851V11.632A0.87,0.87,0,0,0,1273.78,10.781Zm-0.3,1.762q-0.255.037-.51,0.071a0.851,0.851,0,0,0-.72.623,4.3,4.3,0,0,1-.38.916,0.845,0.845,0,0,0,.07.949c0.1,0.139.21,0.279,0.31,0.417l-0.54.54c-0.14-.1-0.28-0.209-0.42-0.316a0.843,0.843,0,0,0-.94-0.067,4.061,4.061,0,0,1-.92.38,0.853,0.853,0,0,0-.62.718c-0.03.174-.05,0.348-0.07,0.518h-0.77c-0.02-.17-0.05-0.344-0.07-0.518a0.852,0.852,0,0,0-.62-0.718,4.061,4.061,0,0,1-.92-0.38,0.86,0.86,0,0,0-.95.067c-0.14.107-.28,0.212-0.41,0.316l-0.54-.54c0.1-.138.2-0.278,0.31-0.417a0.864,0.864,0,0,0,.07-0.949,4.3,4.3,0,0,1-.38-0.915,0.851,0.851,0,0,0-.72-0.623c-0.17-.023-0.35-0.047-0.52-0.071V11.78c0.17-.025.35-0.049,0.52-0.071a0.851,0.851,0,0,0,.72-0.623,3.837,3.837,0,0,1,.38-0.916,0.864,0.864,0,0,0-.07-0.949c-0.11-.139-0.21-0.279-0.31-0.417l0.54-.54c0.13,0.1.27,0.209,0.41,0.316a0.86,0.86,0,0,0,.95.067,4.07,4.07,0,0,1,.92-0.379,0.853,0.853,0,0,0,.62-0.718c0.02-.174.05-0.348,0.07-0.518h0.77c0.02,0.17.04,0.344,0.07,0.518a0.853,0.853,0,0,0,.62.718,4.067,4.067,0,0,1,.92.379,0.843,0.843,0,0,0,.94-0.067c0.14-.107.28-0.213,0.42-0.316l0.54,0.54c-0.1.138-.21,0.278-0.31,0.417a0.845,0.845,0,0,0-.07.949,4.3,4.3,0,0,1,.38.916,0.851,0.851,0,0,0,.72.623q0.255,0.034.51,0.071v0.764h0Zm-5.13-2.58a2.2,2.2,0,1,0,2.2,2.2A2.195,2.195,0,0,0,1268.35,9.964Zm0,3.419a1.221,1.221,0,1,1,1.22-1.221A1.224,1.224,0,0,1,1268.35,13.383Z" transform="translate(-1250.25 -6)"/>
</svg>
