<?xml version="1.0" encoding="utf-8"?>
<svg version="1.1" id="Layer_1" xmlns="http://www.w3.org/2000/svg" xmlns:xlink="http://www.w3.org/1999/xlink" x="0px" y="0px"
	 viewBox="-22 -22 64 64" style="enable-background:new 0 0 20 20;" xml:space="preserve">
<style type="text/css">
	.st0{fill:#FFFFFF;stroke:#B6B6B6;stroke-width:0.15;}
	.st1{fill:#ED2939;}
	.st2{fill:#FFFFFF;}
	.st3{fill:#CCCCCC;}
</style>
<circle class="st0" cx="10" cy="10" r="28.8000011"/>
<path class="st1" d="M10-18.7999992C-5.9060001-18.7999992-18.8000011-5.9060001-18.8000011,10h57.6000061
	C38.8000031-5.9060001,25.9060001-18.7999992,10-18.7999992"/>
<path class="st2" d="M-3.2329993,2.836c-0.9480014-0.9450002-1.7070007-2.0819993-2.217001-3.3179998
	c-0.5159998-1.2390003-0.7860003-2.5800004-0.7860003-3.9180007s0.2670007-2.6790004,0.7799993-3.9180002
	C-4.9400001-9.5539999-4.1840005-10.691-3.2360005-11.6359997c0.948-0.948,2.0819993-1.7040005,3.3209996-2.217
	c1.1040001-0.4590006,2.289-0.717,3.4859991-0.7680006c-1.1459985-0.3990002-2.3579979-0.6089993-3.5639977-0.6089993
	c-1.4190001,0-2.8380003,0.2819996-4.1459999,0.8249998c-1.3110008,0.54-2.5140009,1.3439999-3.5160012,2.3459997
	c-1.0049992,1.0019999-1.8059998,2.2049999-2.348999,3.5159998c-0.5430002,1.3080006-0.8220005,2.7270007-0.8220005,4.1429996
	s0.2820005,2.8350005,0.8250008,4.1430001c0.5430002,1.3109994,1.3439999,2.5109997,2.349,3.513
	c1.0020003,1.0019989,2.2020006,1.8060007,3.5100002,2.3459988c1.3109994,0.5429993,2.7269998,0.8280001,4.1459999,0.8280001
	c1.2089996,0,2.4210005-0.2070007,3.5639992-0.6090002C2.3740005,5.7729988,1.1859994,5.5119991,0.0850005,5.0560007
	C-1.1539998,4.5429993-2.2849994,3.7839999-3.2329993,2.836"/>
<polygon class="st2" points="-0.125,-5.2670007 1.3449993,-4.1389995 0.7780004,-5.9569993 2.2540007,-7.0819993 
	0.4329996,-7.0759997 -0.125,-8.8999996 -0.6859994,-7.0759997 -2.5070004,-7.0789995 -1.0310001,-5.9569993 -1.5980005,-4.1389995 
	"/>
<polygon class="st2" points="11.4160004,-8.8999996 10.8580008,-7.0759997 9.0369997,-7.0819993 10.5129986,-5.9569993 
	9.9489994,-4.1389995 11.4160004,-5.2670007 12.8890009,-4.1389995 12.3220005,-5.9569993 13.7979994,-7.0819993 
	11.9770012,-7.0759997 "/>
<polygon class="st2" points="4.1800013,-8.4230003 5.6500006,-9.5509996 7.1230011,-8.4230003 6.5560007,-10.2439995 
	8.0290012,-11.3660002 6.2110014,-11.3599997 5.6500006,-13.184 5.092001,-11.3599997 3.2680001,-11.3629999 4.7469988,-10.2439995 
	"/>
<polygon class="st2" points="4.4139986,-0.2269998 2.5930004,-0.2210002 2.0319996,-2.0449996 1.4710002,-0.2210002 
	-0.3469996,-0.2269998 1.1290007,0.8950005 0.5620003,2.7160001 2.0349994,1.5880003 3.5020003,2.7160001 2.9379997,0.8950005 "/>
<polygon class="st2" points="9.8170004,-0.2210002 9.2559996,-2.0449996 8.698,-0.2210002 6.8740005,-0.224 8.3530006,0.8950005 
	7.7860003,2.7160001 9.2559996,1.5880003 10.7290001,2.7160001 10.1619997,0.8950005 11.6350002,-0.2269998 "/>
<path class="st3" d="M10-18.5c15.5999985,0,28.5,12.9000006,28.5,28.5S25.5999985,38.5,10,38.5S-18.5,25.5999985-18.5,10
	S-5.5999994-18.5,10-18.5 M10-20C-6.5-20-20-6.5-20,10s13.5,30,30,30s30-13.5,30-30S26.5-20,10-20L10-20z"/>
</svg>
