<?xml version="1.0" encoding="utf-8"?>
<svg version="1.1" id="Layer_1" xmlns="http://www.w3.org/2000/svg" xmlns:xlink="http://www.w3.org/1999/xlink" x="0px" y="0px"
	 viewBox="-22 -22 64 64" style="enable-background:new 0 0 20 20;" xml:space="preserve">
<style type="text/css">
	.st0{fill:#4189DD;}
	.st1{fill:#FFFFFF;}
	.st2{fill:#CCCCCC;}
</style>
<path class="st0" d="M38.8000031,10c0-15.9060001-12.8940029-28.8000011-28.8000031-28.8000011S-18.7999992-5.9060001-18.7999992,10
	S-5.9060001,38.8000031,10,38.8000031S38.8000031,25.9060001,38.8000031,10"/>
<polygon class="st1" points="12.381999,7.7320013 10,0.4000006 7.6149998,7.7320013 -0.0949993,7.7320013 6.1450005,12.2679987 
	3.7600002,19.5999985 10,15.0670004 16.2370014,19.5999985 13.8520012,12.2679987 20.092001,7.7320013 "/>
<path class="st2" d="M10-18.5c15.5999985,0,28.5,12.9000006,28.5,28.5S25.5999985,38.5,10,38.5S-18.5,25.5999985-18.5,10
	S-5.5999994-18.5,10-18.5 M10-20C-6.5-20-20-6.5-20,10s13.5,30,30,30s30-13.5,30-30S26.5-20,10-20L10-20z"/>
</svg>
