<?xml version="1.0" encoding="utf-8"?>
<svg version="1.1" id="Layer_1" xmlns="http://www.w3.org/2000/svg" xmlns:xlink="http://www.w3.org/1999/xlink" x="0px" y="0px"
	 viewBox="-22 -22 64 64" style="enable-background:new 0 0 20 20;" xml:space="preserve">
<style type="text/css">
	.st0{fill:#FFFFFF;stroke:#B6B6B6;stroke-width:0.15;stroke-miterlimit:10;}
	.st1{fill:#007229;}
	.st2{fill:#D21034;}
	.st3{fill:#FFCE00;}
	.st4{fill:#CCCCCC;}
</style>
<circle class="st0" cx="10" cy="10" r="28.8000011"/>
<path class="st1" d="M10-18.7999992c-9.4229994,0-17.7869987,4.5239992-23.039999,11.5199986h46.0800018
	C27.7869987-14.276,19.4230003-18.7999992,10-18.7999992"/>
<path class="st1" d="M33.0400009,27.2800007h-46.0830002C-7.7869997,34.2759972,0.5770006,38.8000031,10,38.8000031
	C19.420002,38.8000031,27.7869987,34.2759972,33.0400009,27.2800007"/>
<path class="st2" d="M38.8000031,10c0-4.0949993-0.8580017-7.9920001-2.4000015-11.5200005h-52.8000031
	C-17.9449997,2.0079999-18.7999992,5.9050007-18.7999992,10s0.8549995,7.9919987,2.3999996,11.5200005h52.7999954
	C37.9419975,17.9919987,38.8000031,14.0949993,38.8000031,10"/>
<polygon class="st3" points="21.2740021,7.3809996 12.657999,7.3719988 10,-0.8239994 7.329999,7.3719988 -1.2860003,7.3630009 
	5.6800013,12.4329996 3.0100002,20.6259995 9.9849997,15.5710011 16.9539986,20.6379986 14.2989988,12.4420004 "/>
<path class="st4" d="M10-18.5c15.5999985,0,28.5,12.9000006,28.5,28.5S25.5999985,38.5,10,38.5S-18.5,25.5999985-18.5,10
	S-5.5999994-18.5,10-18.5 M10-20C-6.5-20-20-6.5-20,10s13.5,30,30,30s30-13.5,30-30S26.5-20,10-20L10-20z"/>
</svg>
