<?xml version="1.0" encoding="UTF-8" standalone="no"?>
<svg
   xmlns:dc="http://purl.org/dc/elements/1.1/"
   xmlns:cc="http://creativecommons.org/ns#"
   xmlns:rdf="http://www.w3.org/1999/02/22-rdf-syntax-ns#"
   xmlns:svg="http://www.w3.org/2000/svg"
   xmlns="http://www.w3.org/2000/svg"
   xmlns:sodipodi="http://sodipodi.sourceforge.net/DTD/sodipodi-0.dtd"
   xmlns:inkscape="http://www.inkscape.org/namespaces/inkscape"
   version="1.1"
   id="Layer_1"
   x="0px"
   y="0px"
   viewBox="-22 -22 64 64"
   style="enable-background:new 0 0 20 20;"
   xml:space="preserve"
   sodipodi:docname="stn.svg"
   inkscape:version="0.92.2 5c3e80d, 2017-08-06"><metadata
     id="metadata63"><rdf:RDF><cc:Work
         rdf:about=""><dc:format>image/svg+xml</dc:format><dc:type
           rdf:resource="http://purl.org/dc/dcmitype/StillImage" /></cc:Work></rdf:RDF></metadata><defs
     id="defs61" /><sodipodi:namedview
     pagecolor="#ffffff"
     bordercolor="#666666"
     borderopacity="1"
     objecttolerance="10"
     gridtolerance="10"
     guidetolerance="10"
     inkscape:pageopacity="0"
     inkscape:pageshadow="2"
     inkscape:window-width="885"
     inkscape:window-height="785"
     id="namedview59"
     showgrid="false"
     inkscape:zoom="5.2149125"
     inkscape:cx="41.53144"
     inkscape:cy="1.3078681"
     inkscape:window-x="149"
     inkscape:window-y="0"
     inkscape:window-maximized="0"
     inkscape:current-layer="Layer_1" /><style
     type="text/css"
     id="style44">
	.st0{fill:#FFCE00;}
	.st1{fill:#12AD2B;}
	.st2{fill:#D21034;}
	.st3{fill:#CCCCCC;}
</style><path
     class="st0"
     d="M38.8000031,10c0,15.9060001-12.8940029,28.8000031-28.8000031,28.8000031  S-18.7999992,25.9060001-18.7999992,10S-5.9060001-18.7999992,10-18.7999992S38.8000031-5.9060001,38.8000031,10"
     id="path46" /><path
     class="st1"
     d="M36.0279999-2.3449993C31.4050007-12.0710001,21.4870014-18.7999992,10-18.7999992  c-10.9890003,0-20.5440006,6.1560001-25.3979988,15.21l1.2480001,1.2479997h50.1779976V-2.3449993z"
     id="path48" /><path
     class="st1"
     d="M36.0279999,22.3449993h-50.1809998l-1.2449999,1.2450008  C-10.5440006,32.644001-0.9890003,38.8000031,10,38.8000031C21.4870014,38.8000031,31.4050007,32.0709991,36.0279999,22.3449993"
     id="path50" /><path
     class="st2"
     d="M-1.8079996,10L-14.1529999-2.3449993l-1.2420006-1.2420001  C-17.5669994,0.4600005-18.7999992,5.0860014-18.7999992,10s1.2329998,9.5400009,3.4049988,13.586998l1.2449999-1.2449989  L-1.8079996,10z"
     id="path52" /><polygon
     points="24.0040016,10.9720011 22.1560001,16.6569996 26.9919987,13.1409998 31.8279972,16.6569996 29.9799995,10.9720011   34.8159981,7.4560013 28.836998,7.4560013 26.9919987,1.7709999 25.144001,7.4560013 19.1679993,7.4560013 "
     id="polygon54" /><path
     class="st3"
     d="M10-18.5c15.5999985,0,28.5,12.9000006,28.5,28.5S25.5999985,38.5,10,38.5S-18.5,25.5999985-18.5,10  S-5.5999994-18.5,10-18.5 M10-20C-6.5-20-20-6.5-20,10s13.5,30,30,30s30-13.5,30-30S26.5-20,10-20L10-20z"
     id="path56" /><polygon
     id="polygon111"
     points="22.156,16.657 26.991999,13.141 31.827997,16.657 29.98,10.972001 34.815998,7.4560013 28.836998,7.4560013 26.991999,1.7709999 25.144001,7.4560013 19.167999,7.4560013 24.004002,10.972001 "
     transform="translate(-16.874684)" /></svg>
