<?xml version="1.0" encoding="utf-8"?>
<svg version="1.1" id="Layer_1" xmlns="http://www.w3.org/2000/svg" xmlns:xlink="http://www.w3.org/1999/xlink" x="0px" y="0px"
	 viewBox="-22 -22 64 64" style="enable-background:new 0 0 20 20;" xml:space="preserve">
<style type="text/css">
	.st0{fill:#FFFFFF;stroke:#B6B6B6;stroke-width:0.15;stroke-miterlimit:10;}
	.st1{fill:#CE1126;}
	.st2{fill:#009E60;}
	.st3{fill:#CCCCCC;}
</style>
<circle class="st0" cx="10" cy="10" r="28.8000011"/>
<path class="st1" d="M10-18.7999992c-12.539999,0-23.2049999,8.0159988-27.1590004,19.2000008h54.3180046
	C33.2050018-10.7840004,22.5400009-18.7999992,10-18.7999992"/>
<polygon class="st2" points="33.2170029,8.0710011 28.6840019,8.0710011 27.2800007,3.7600002 25.8790016,8.0710011 
	21.3459988,8.0710011 25.0119991,10.7349997 23.6140003,15.0489988 27.2800007,12.381999 30.9489994,15.0489988 
	29.5480022,10.7349997 "/>
<polygon class="st2" points="-5.8790007,8.0710011 -7.2800007,3.7600002 -8.684,8.0710011 -13.217,8.0710011 -9.5480003,10.7349997 
	-10.9490004,15.0460005 -7.2800007,12.381999 -3.6140003,15.0460005 -5.0120006,10.7349997 -1.3460002,8.0710011 "/>
<path d="M37.1589966,19.5999985h-54.317997C-13.2080002,30.7839985-2.5399995,38.8000031,10,38.8000031
	S33.2050018,30.7839985,37.1589966,19.5999985"/>
<path class="st3" d="M10-18.5c15.5999985,0,28.5,12.9000006,28.5,28.5S25.5999985,38.5,10,38.5S-18.5,25.5999985-18.5,10
	S-5.5999994-18.5,10-18.5 M10-20C-6.5-20-20-6.5-20,10s13.5,30,30,30s30-13.5,30-30S26.5-20,10-20L10-20z"/>
</svg>
