<?xml version="1.0" encoding="utf-8"?>
<svg version="1.1" id="Layer_1" xmlns="http://www.w3.org/2000/svg" xmlns:xlink="http://www.w3.org/1999/xlink" x="0px" y="0px"
	 viewBox="-22 -22 64 64" style="enable-background:new 0 0 20 20;" xml:space="preserve">
<style type="text/css">
	.st0{fill:#B10C0C;}
	.st1{fill:#3E5EB9;}
	.st2{fill:#FFD900;}
	.st3{fill:#FFFFFF;}
	.st4{fill:#3D5DA7;}
	.st5{fill:#A70000;}
	.st6{fill:#CCCCCC;}
</style>
<circle class="st0" cx="10" cy="10" r="28.8000011"/>
<path class="st1" d="M32.0590019,28.5160027h-44.1210022C-6.776,34.8040009,1.1439996,38.8000031,10,38.8000031
	C18.8530006,38.8000031,26.776001,34.8040009,32.0590019,28.5160027"/>
<path class="st1" d="M10-18.7999992c-8.855999,0-16.776001,3.9959993-22.059,10.2839994h44.1149979
	C26.776001-14.8039999,18.855999-18.7999992,10-18.7999992"/>
<path class="st2" d="M34.947998,24.4000015H-14.948c0.8430004,1.4580002,1.8120003,2.8349991,2.8889999,4.1160011h44.1149979
	C33.1360016,27.2350006,34.1020012,25.8580017,34.947998,24.4000015"/>
<path class="st2" d="M32.0590019-8.5130005h-44.1210022c-1.0739994,1.2810006-2.04,2.6580009-2.8859997,4.1129999h49.8899994
	C34.1020012-5.8549995,33.1360016-7.2319999,32.0590019-8.5130005"/>
<path class="st2" d="M30.5710011,10c-0.1950016,0.1949987-0.3959999,0.4019995-0.6000023,0.6149998h8.8200016
	C38.7970047,10.4110003,38.8000031,10.2070007,38.8000031,10s-0.0029984-0.4110003-0.0090027-0.6149998h-8.8200016
	C30.1750011,9.5980005,30.3759995,9.8050013,30.5710011,10"/>
<path class="st2" d="M-17.342001,10.3239994c0.0960007,0.0959988,0.1680012,0.1920004,0.2280006,0.2910004h7.1520004
	c-0.21-0.2130003-0.4140005-0.420001-0.6090002-0.6149998c0.1949997-0.1949987,0.3989992-0.4050007,0.6090002-0.618001h-8.8320007
	C-18.7970009,9.5889997-18.7999992,9.7929993-18.7999992,10c0,0.0300007,0,0.0600014,0,0.0930004
	C-18.3320007,9.9820013-17.7709999,9.868001-17.342001,10.3239994"/>
<path class="st3" d="M35.4399986,4.2399998h0.0359993c0.2490005,0,0.4469986,0.1829996,0.4469986,0.4110003
	s-0.197998,0.4110003-0.4469986,0.4110003H35.442997l2.3310013,0.8220005l0.6990013-0.2490005
	c-0.1080017-0.7139997-0.2460022-1.4189987-0.4020042-2.1149998l-0.2970009-0.1079993L35.4399986,4.2399998z"/>
<path class="st2" d="M-15.0620003,4.2399998c-0.2489996,0-0.4469995,0.1829996-0.4469995,0.4110003
	s0.198,0.4110003,0.4469995,0.4110003h9.420001c0.2969999-0.276,0.5999994-0.5489988,0.9060001-0.8249989h-10.3260012V4.2399998z"/>
<path class="st2" d="M25.9389992,5.0649986h9.5039978h0.0330009c0.2490005,0,0.4469986-0.1829996,0.4469986-0.4110003
	s-0.197998-0.4110003-0.4469986-0.4110003h-0.0359993H25.1019974C25.3840008,4.5129986,25.6629982,4.7889986,25.9389992,5.0649986"
	/>
<path class="st2" d="M-18.3530006,7.5310001h10.1910009C-7.901,7.2609997-7.625,6.9880009-7.3460002,6.7060013h-11.007
	c-0.1019993,0-0.1919994,0.032999-0.2669983,0.0839996c-0.0240002,0.2010012-0.0420017,0.4019995-0.0600014,0.6090002
	C-18.6019993,7.4799995-18.4820004,7.5310001-18.3530006,7.5310001"/>
<path class="st4" d="M37.0779953,13.5429993c0.2639999-0.1920004,0.4800034-0.3480005,0.7470016-0.506999
	c-0.3239975,0.7559996,0.1650009,1.7220011,0.4169998,2.6280012c0.0660019-0.329999,0.1259995-0.6660004,0.1800003-1.0019989
	c-0.0930023,0.0600014-0.1919975,0.1199999-0.3120003,0.1920004c0.1289978-0.2640009,0.2549973-0.4350014,0.3720016-0.5849991
	c0.1799965-1.1910009,0.2820015-2.4119997,0.3090019-3.6450005C37.8610001,11.4909992,37.2460022,12.5710011,37.0779953,13.5429993"
	/>
<path class="st4" d="M-18.0739994,16.1409988c0-0.8369999,0.3059998-0.980998,0.5579987-1.6919994
	c0.0990009,0.1920004,0.0840015,0.1109991,0.1800003,0.3000011c0-0.7740011,0.2010002-2.0939999,0.0090008-2.8260012
	c0.2549992,0.3000011,0.1409988,0.3540001,0.3810005,0.4680004c0-0.7020006,0.1409988-1.2600002-0.1710014-1.776
	c-0.0599995-0.099-0.132-0.1949987-0.2279987-0.2910004c-0.4260006-0.4559984-0.9870014-0.3419981-1.4549999-0.230999
	c0.0029984,0.7650003,0.0359993,1.5269995,0.0959988,2.2769995c0.1739998,0.1230011,0.3690014,0.2640009,0.6090012,0.506999
	C-18.3320007,12.823-18.5119991,12.7749977-18.6709995,12.724c0.0629997,0.6750011,0.1499996,1.3349991,0.2579994,1.9949999
	c0.0090008,0.0119991,0.0149994,0.0209999,0.0240002,0.032999c-0.0090008-0.0030012-0.012001-0.0059996-0.0209999-0.0090008
	c0.0569992,0.3449993,0.1199989,0.6899986,0.1889992,1.0350008c0.0150013-0.0240011,0.0330009-0.045001,0.0390015-0.0689993
	C-18.0769997,15.8800001-18.1669998,15.8110008-18.0739994,16.1409988"/>
<polyline class="st5" points="-18.4130001,14.7189999 -18.4099998,14.743001 -18.3920002,14.7519989 -18.4130001,14.7189999 "/>
<path class="st3" d="M11.3320007,22.2939987c-0.1710005,0.0119991-0.3389997,0.0209999-0.5100002,0.0270004
	C10.9959993,22.3180008,11.1639986,22.3089981,11.3320007,22.2939987"/>
<path class="st3" d="M12.105999,22.2370014c-0.1230011,0.0119991-0.2519989,0.0240002-0.3780012,0.032999
	C11.8540001,22.2609997,11.9799995,22.2490005,12.105999,22.2370014"/>
<path class="st3" d="M29.9740028,9.3850002c-0.5400009-0.5699987-1.1069984-1.1939993-1.7070007-1.8509989
	c-0.2460022-0.2700005-0.4949989-0.5429993-0.7560005-0.8249989c-0.4980011-0.5400009-1.0229988-1.092001-1.5719986-1.644001
	c-0.2729988-0.276-0.552002-0.5489988-0.8400002-0.8249989C21.5290012,0.8410001,16.8249989-2.3449993,10-2.3449993
	c0,0-2.8499994,2.6040001-1.4370003,4.2929993C9.657999,3.1810007,8.743001,3.6760006,9.901,3.7570004
	c1.224,0.0900006,0.5310001,1.3019986,1.5570002,1.3410001c0.717001,0.032999-0.0720005,2.9040012,0.618001,3.8520012
	c0.704999,0.9869986,1.2960005,0.2879992,1.3079996,1.0019989c0.0119991,0.7380009-1.9169998,0.6629992-1.9499989,2.9339991
	c-0.0570002,1.3110008-1.6290007,1.3950005-1.7039995,2.2380009c-0.0930004,0.7919998,3.0959988,1.2390003,3.0570002,1.9470005
	c-0.045001,0.7080002-3.4439993,0.597002-3.5939999,1.4040012c-0.0749989,0.7229996,4.6710005,1.3170013,5.0549984,3.4140015
	c-0.0269995,0.0090008-0.0570002,0.0179977-0.0870008,0.0270004c7.8119993-1.6350021,12.3360014-7.6410007,15.8099985-11.3010015
	c0.2009983-0.2130003,0.4020023-0.420001,0.6000023-0.6149998C30.3759995,9.8050013,30.1750011,9.5980005,29.9740028,9.3850002"/>
<path d="M9.1929998,18.4780006c0.1500006-0.8100014,3.5489988-0.6960011,3.5939999-1.4040012
	c0.0389986-0.7080002-3.1469994-1.1550007-3.0570002-1.9470005c0.0749989-0.8430004,1.6469994-0.927,1.7039995-2.2380009
	c0.032999-2.2709999,1.9620008-2.1960011,1.9499989-2.9339991c-0.0119991-0.7139997-0.6030006-0.0150003-1.3079996-1.0019989
	c-0.6899986-0.948,0.099-3.8189993-0.618001-3.8520012c-1.0290012-0.0389986-0.3330002-1.2540007-1.5570002-1.3410001
	C8.743001,3.6790004,9.657999,3.1840005,8.5629997,1.9509997C7.1500006,0.2589993,10-2.3449993,10-2.3449993
	c-5.9730005,0-10.8840008,3.1860008-14.7299995,6.5849991c-0.3120003,0.2729988-0.6149998,0.5460005-0.9089999,0.8249989
	c-0.5999994,0.552-1.1669998,1.1070013-1.7069993,1.644001c-0.2790012,0.2790012-0.5490017,0.552-0.8160009,0.8220005
	C-8.8069992,8.1879997-9.4069996,8.8120003-9.9619999,9.381999c-0.21,0.2160015-0.4140005,0.4230022-0.6090002,0.618001
	c0.1949997,0.1949987,0.3989992,0.4019995,0.6090002,0.6149998c4.1670003,4.2659998,10.8210001,11.7329998,19.9650002,11.7270012
	c0.2609997,0,0.5400009-0.0090008,0.8249989-0.0209999c0.1710005-0.0090008,0.3389997-0.0179996,0.5100002-0.0269985
	c0.131999-0.0090027,0.2640009-0.0209999,0.3959999-0.0300026c0.1259995-0.0119972,0.2519989-0.0209999,0.3780012-0.0329971
	c0.8580008-0.0810013,1.6290007-0.1980019,2.0550013-0.321003c0.0300007-0.0089989,0.0600014-0.0179977,0.0870008-0.0269985
	C13.8640003,19.795002,9.118001,19.2010002,9.1929998,18.4780006"/>
<rect x="-2.8909998" y="5.6109991" class="st3" width="0.9959993" height="3.2910004"/>
<rect x="-2.8909998" y="11.0980005" class="st3" width="0.9959993" height="3.2910004"/>
<rect x="-0.8959999" y="5.6109991" class="st3" width="0.9959993" height="3.2910004"/>
<rect x="-0.8959999" y="11.0980005" class="st3" width="0.9959993" height="3.2910004"/>
<path class="st3" d="M1.099,5.6109991v3.2910004h0.9990005V6.0820007C1.9509997,5.9320002,1.8159995,5.776,1.6929998,5.6109991
	H1.099z"/>
<rect x="1.0960002" y="11.0980005" class="st3" width="0.9990005" height="3.2910004"/>
<path class="st3" d="M3.8980002,7.1379986c0.0180001,0.0150003-0.4379997-0.329999-0.8040004-0.704999v2.4720011h0.9959993
	V6.6130009C3.9279995,6.7419987,3.9039998,6.9339991,3.8980002,7.1379986"/>
<rect x="3.0939999" y="11.0980005" class="st3" width="0.9959993" height="3.2910004"/>
<path class="st3" d="M5.0860014,7.4859991v1.4160004h0.9959993v-1.026C5.7370014,7.8010006,5.3950005,7.6629992,5.0860014,7.4859991
	"/>
<rect x="5.0889997" y="11.0980005" class="st3" width="0.9959993" height="3.2910004"/>
<path class="st3" d="M7.0839996,6.0820007v2.8199987H8.079999V5.6109991H7.0839996
	C7.144001,5.7640009,7.1860008,5.9379997,7.1860008,6.1600008C7.1529989,6.1359997,7.1169987,6.1090002,7.0839996,6.0820007"/>
<rect x="7.0839996" y="11.0980005" class="st3" width="0.9959993" height="3.2910004"/>
<rect x="12.1960011" y="5.6109991" width="0.9959993" height="3.2910004"/>
<rect x="12.1960011" y="11.0980005" width="0.9959993" height="3.2910004"/>
<rect x="14.1910009" y="5.6109991" width="0.9959993" height="3.2910004"/>
<rect x="14.1910009" y="11.0980005" width="0.9959993" height="3.2910004"/>
<rect x="16.1829987" y="5.6109991" width="0.9959993" height="3.2910004"/>
<rect x="16.1829987" y="11.0980005" width="0.9959993" height="3.2910004"/>
<rect x="18.1779995" y="5.6109991" width="0.9959993" height="3.2910004"/>
<rect x="18.1779995" y="11.0980005" width="0.9959993" height="3.2910004"/>
<rect x="20.1730003" y="5.6109991" width="0.9959993" height="3.2910004"/>
<rect x="20.1730003" y="11.0980005" width="0.9959993" height="3.2910004"/>
<rect x="22.1679993" y="5.6109991" width="0.9959993" height="3.2910004"/>
<rect x="22.1679993" y="11.0980005" width="0.9959993" height="3.2910004"/>
<path class="st4" d="M1.2550001,4.7380009c0.0839996,0.3239994,0.2399998,0.605999,0.4349999,0.8730011
	C1.8099999,5.7730017,1.948,5.932003,2.0919995,6.0820007c0.1019998,0.1079979,0.2070007,0.2099991,0.3120003,0.3179998
	C2.4459996,6.1030006,2.4729991,5.9589996,2.6589999,5.698C2.6079993,5.8690004,2.8270006,6.1569996,3.0939999,6.4329996
	c0.3629994,0.375,0.8189993,0.7199993,0.8040004,0.704999c0.0059996-0.2039995,0.0300007-0.3959999,0.191999-0.5250006
	C4.099,6.6039972,4.1049995,6.5949993,4.1169987,6.5859985c0.1920004,0.3360014,0.5460005,0.6540012,0.9720011,0.9000006
	c0.3089991,0.177,0.651,0.3149986,0.9959993,0.3900003C6.151,7.8879986,6.2199993,7.9060001,6.2919998,7.9179993
	C5.7790012,7.5129986,6.802,6.2949982,6.4389992,5.6649981c0.2039995,0.1140032,0.4110003,0.243001,0.6450005,0.4170027
	C7.1199999,6.1090002,7.1529989,6.1330013,7.1889992,6.163002c0-0.2249994-0.0419998-0.3990011-0.1020012-0.552
	C6.9849997,5.3349991,6.8439999,5.1309996,6.8439999,4.8699999C6.9730005,5.1639986,7.1650009,5.125,7.5489988,5.368001
	c0-1.256999-1.0889997-2.3430004-1.0889997-2.3430004s0.927,0.5159998,1.4520006,0.6270003
	c0-0.6270003-0.6540012-1.9829993-1.1099997-2.3280001c-2.4599991-1.8419995-4.026-0.375-3.4559999-1.4760003
	c-1.6740003,0.8670001-2.8410001,2.6219988-3.0690007,4.118999c0.2399998-0.198,0.4379997-0.3569999,0.6810007-0.5189996
	c-0.3419995,0.8880014-0.3419995,0.849-0.1710005,1.8809996C1.0150003,5.0350008,1.0300007,5.0350008,1.2550001,4.7380009
	 M4.849,6.6070013C4.5040007,5.9949999,4.4919987,5.7280006,4.7290001,5.6350002
	c0.2399998-0.0930004,0.3029995,0.420001,0.6120014,1.0469999c0.177,0.3570013,0.4050007,0.5219994,0.6779995,1.0770006
	C5.3499994,7.3480005,5.1939993,7.2220011,4.849,6.6070013 M7.1290007,4.8669987
	C6.3010006,4.7530012,6.0970011,4.6960011,5.5,4.2550001C4.9029989,3.8110008,4.7769995,3.5650001,4.9659986,3.3759995
	c0.189002-0.1859994,0.4710016,0.2730002,1.0410004,0.7440004C6.3310013,4.3900003,6.6280012,4.4499989,7.1290007,4.8669987
	 M3.9940004,1.5789995c0.1619997-0.2520003,0.6149998,0.2069993,1.3979988,0.612
	c0.4439993,0.2340002,0.795001,0.2399998,1.4820013,0.5999994C5.9050007,2.8419995,5.6590014,2.8270006,4.8520012,2.4550004
	C4.0479994,2.0830002,3.8350005,1.8309999,3.9940004,1.5789995 M3.526,4.0360003
	C3.7899995,3.9910007,3.9219999,4.230999,3.9520006,4.9660015c0.0300007,0.7349997-0.039,0.927-0.4169998,1.6589985
	C3.4719996,5.9830008,3.5889997,5.7130003,3.5529995,5.2960005C3.4840002,4.5699987,3.2589993,4.0780001,3.526,4.0360003
	 M2.2899995,3.7000003c0.1079993-0.8610005-0.0209999-1.4879994,0.2849994-1.4730005
	C2.8809996,2.2420001,2.967999,2.5570002,2.8179984,3.4149995s-0.276,1.0680013-0.8759995,1.8180013
	C2.0349994,4.474,2.2329993,4.1889992,2.2899995,3.7000003"/>
<path class="st5" d="M1.9420004,5.2330008c0.5999994-0.75,0.7260003-0.9570007,0.8759995-1.8179998
	c0.1530004-0.8580008,0.0629997-1.1760006-0.2429996-1.1879997C2.2689996,2.2089996,2.3980002,2.836,2.2899995,3.7000003
	C2.2329993,4.1889992,2.0349994,4.474,1.9420004,5.2330008"/>
<path class="st5" d="M3.5529995,5.2989988c0.039,0.4110003-0.0809999,0.6839991-0.0180001,1.3260012
	C3.9129992,5.8959999,3.9849997,5.7010012,3.954999,4.9689999C3.9249997,4.2340002,3.7899995,3.9879994,3.526,4.0360003
	C3.2620006,4.0810013,3.4840002,4.573,3.5529995,5.2989988"/>
<path class="st5" d="M5.3409986,6.6820002C5.0319996,6.0550013,4.9689999,5.5419998,4.7290001,5.6380014
	C4.4919987,5.7280006,4.5040007,5.9949999,4.849,6.6070013c0.3449993,0.6119986,0.4980011,0.7409992,1.170001,1.1519995
	C5.7459993,7.2039995,5.5150003,7.0389986,5.3409986,6.6820002"/>
<path class="st5" d="M4.8520012,2.4550004c0.8070002,0.3720002,1.0500011,0.3900003,2.0219994,0.336
	C6.1870003,2.4310007,5.8330002,2.4249997,5.3919992,2.1910009C4.6119986,1.7860003,4.1560001,1.3210011,3.993999,1.5760012
	C3.8350005,1.8309999,4.0479994,2.0830002,4.8520012,2.4550004"/>
<path class="st5" d="M4.9659986,3.3759995C4.7769995,3.5620003,4.9029989,3.8109994,5.5,4.2550001
	c0.5999994,0.4439993,0.8039989,0.4980011,1.6290007,0.6119986C6.6280012,4.4499989,6.3310013,4.3900003,6.006999,4.1230011
	C5.4370003,3.6489997,5.1550007,3.1900001,4.9659986,3.3759995"/>
<path class="st3" d="M32.6289978,7.1199999c0,0.2280006-0.197998,0.4110003-0.4469986,0.4110003h-0.0330009l2.3310013,0.8249989
	l3.4950027-1.2359991l-3.4950027-1.2359991l-2.3339996,0.8249989h0.0359993
	C32.4280014,6.7089996,32.6289978,6.8919992,32.6289978,7.1199999"/>
<path class="st2" d="M32.1489983,7.5310001h0.0330009c0.2490005,0,0.4469986-0.1829996,0.4469986-0.4110003
	s-0.197998-0.4110003-0.4469986-0.4110003h-0.0330009h-4.6409988c0.2579994,0.2790012,0.5099964,0.552,0.7559986,0.8249989
	C28.2670021,7.5310001,32.1489983,7.5310001,32.1489983,7.5310001z"/>
<path class="st6" d="M10-18.5c15.5999985,0,28.5,12.9000006,28.5,28.5S25.5999985,38.5,10,38.5S-18.5,25.5999985-18.5,10
	S-5.5999994-18.5,10-18.5 M10-20C-6.5-20-20-6.5-20,10s13.5,30,30,30s30-13.5,30-30S26.5-20,10-20L10-20z"/>
</svg>
