<?xml version="1.0" encoding="utf-8"?>
<svg version="1.1" id="Layer_1" xmlns="http://www.w3.org/2000/svg" xmlns:xlink="http://www.w3.org/1999/xlink" x="0px" y="0px"
	 viewBox="-22 -22 64 64" style="enable-background:new 0 0 20 20;" xml:space="preserve">
<style type="text/css">
	.st0{fill:#FFFFFF;stroke:#B6B6B6;stroke-width:0.15;stroke-miterlimit:10;}
	.st1{fill:#FFFFFF;}
	.st2{fill:#006600;}
	.st3{fill:#CC0000;}
	.st4{fill:#FFCC00;}
	.st5{fill:#CCCCCC;}
</style>
<circle class="st0" cx="10" cy="10" r="28.8000011"/>
<path class="st1" d="M11.2030001,8.0140009c0-0.3780012-0.5400009-0.6839991-1.2060013-0.6839991
	c-0.0269995,0-0.0479994,0-0.0749989,0C9.2919998,7.354003,8.7939987,7.6540012,8.7939987,8.0140009
	c0,0.3780012,0.5400009,0.6839991,1.2030001,0.6839991S11.2030001,8.3890009,11.2030001,8.0140009"/>
<path class="st2" d="M36.0249977,22.3509979h-52.0469971C-11.3990002,32.0769958-1.4840002,38.8000031,10,38.8000031
	S31.3989983,32.0769958,36.0249977,22.3509979"/>
<path class="st3" d="M10-18.7999992c-11.4840002,0-21.3990002,6.7229996-26.0250015,16.4489994h52.0470009
	C31.3989983-12.0769997,21.4840012-18.7999992,10-18.7999992"/>
<polygon class="st4" points="-1.2080002,13.3270006 -0.1040001,12.4990005 -1.4359994,12.5290012 -1.8469996,11.1760006 
	-2.2310004,12.5080013 -3.5900006,12.4990005 -2.4949999,13.2910004 -2.9240003,14.644001 -1.8649998,13.7979994 
	-0.7700005,14.644001 "/>
<polygon class="st4" points="14.9949999,4.1049995 16.0539989,3.2620006 17.1490021,4.1049995 16.7110023,2.7880006 
	17.8120003,1.9630003 16.4830017,1.9899998 16.0720005,0.6370006 15.6879997,1.9719996 14.3289995,1.9630003 15.4239988,2.7550001 
	"/>
<polygon class="st4" points="19.473999,8.8659992 20.5359993,8.0200005 21.6280022,8.8659992 21.1930008,7.5489988 
	22.2939987,6.724 20.9650002,6.7509995 20.5510006,5.3979988 20.170002,6.7299995 18.8110008,6.724 19.9029999,7.5159998 "/>
<polygon class="st4" points="23.5930004,12.4990005 22.2639999,12.5290012 21.8499985,11.1760006 21.4659996,12.5080013 
	20.1070023,12.4990005 21.2019997,13.2939987 20.7729988,14.644001 21.8349991,13.8010006 22.927,14.644001 22.4890003,13.3270006 
	"/>
<path class="st4" d="M18.967001,16.5279999c-2.2049999,0.0509987-2.703001-1.5660019-2.9909992-2.283
	c-0.7800007,1.0290012-1.2209988,1.4370003-2.5169992,1.4100008c-1.3170004,0.032999-2.1719999-0.4980011-2.7989988-1.5269995
	V9.6760006c0.9570007-0.2130003,1.6560001-0.8759995,1.6560001-1.6679993c0-0.9599991-1.0379992-1.743001-2.3129997-1.743001
	c-0.0360003,0-0.0689993,0-0.1049995,0c-0.0150003,0-0.0300007,0-0.0419998,0
	c-1.2060013,0.0570002-2.1600008,0.8189993-2.1600008,1.743001c0,0.7890015,0.6899986,1.4520006,1.6409998,1.6679993v4.4370003
	c-0.6300001,1.0290012-1.4820013,1.5600014-2.8050013,1.5300007c-1.2929993,0.0269995-1.7369986-0.3840008-2.5169992-1.4069996
	c-0.2849994,0.7139997-0.7830005,2.3339996-2.9879994,2.2800007c-1.2360005,0.0359993-2.0039992-0.3810005-2.5200005-1.5539989
	c0.5910001,1.6739979,1.1909995,2.6130009,3.0059996,2.6729984c1.6649995,0.0209999,2.4299998-0.947998,2.7899995-1.6079998
	c1.2030001,0.6390018,1.3260012,0.7769985,3.0300007,0.7380009c1.269001-0.0389977,2.0009995-0.8669987,2.657999-1.6589985
	c0.6600008,0.7919998,1.3919992,1.6200008,2.6610003,1.6589985c1.7039995,0.0389977,1.8270006-0.098999,3.0269995-0.7380009
	c0.3630018,0.6600018,1.1219988,1.6259995,2.79,1.6079998c1.821003-0.0600014,2.4210014-1.0079994,3.078001-2.6639977
	C20.9799995,16.144001,20.2089996,16.5610008,18.967001,16.5279999 M10,8.698c-0.6660004,0-1.2060013-0.3060007-1.2060013-0.6839991
	c0-0.3599997,0.5009995-0.6600008,1.1309996-0.6839991c0.0269995,0,0.0479994,0,0.0749989,0
	c0.6660004,0,1.2060013,0.3060007,1.2060013,0.6839991C11.2060013,8.3919992,10.6660004,8.698,10,8.698"/>
<polygon class="st4" points="3.0009995,17.8120003 3.5469999,18.5439987 5.2900009,18.4990005 6.1810007,17.4909992 
	5.0290012,17.5240021 4.4289989,16.6960011 4.0090008,17.6529999 "/>
<polygon class="st4" points="4.4260006,16.6899986 4.4320002,16.6960011 4.4320002,16.6930008 "/>
<polygon class="st4" points="11.4399986,17.2360001 10.6540012,17.223999 10.0059996,16.6989994 9.3370008,17.2299995 
	8.545001,17.2270012 9.2469988,18.2800007 10.7349997,18.2800007 "/>
<path class="st4" d="M9.9909992,18.6609993c-3.4320002,0-5.493001,0.3149986-8.5560007,0.9480019l0.0029998,1.3289986
	c3.0599999-0.6269989,5.1210008-0.9420013,8.5530014-0.9420013s5.493001,0.3149986,8.5739994,0.9480019l-0.0179977-1.3320007
	C15.4840002,18.9729996,13.4229994,18.6609993,9.9909992,18.6609993"/>
<polygon class="st4" points="15.5350008,16.6899986 15.5379992,16.6930008 15.5410004,16.6870003 "/>
<polygon class="st4" points="13.7860003,17.4880009 14.6739988,18.4990005 16.4230003,18.5410004 16.9630013,17.8120003 
	15.9580002,17.6500015 15.5379992,16.6930008 14.9379997,17.5240021 "/>
<polygon class="st4" points="-1.6010003,8.8389997 -0.5449996,7.9959993 0.5529995,8.8389997 0.1149998,7.5219994 
	1.2189999,6.6970005 -0.1129994,6.724 -0.5269995,5.3709993 -0.9080005,6.7060013 -2.2700005,6.6970005 -1.1719999,7.4919987 "/>
<polygon class="st4" points="2.8779998,4.1049995 3.9370003,3.2620006 5.0319996,4.1049995 4.5939999,2.7880006 5.698,1.9630003 
	4.3659992,1.9899998 3.9550004,0.6370006 3.5709996,1.9719996 2.2119994,1.9630003 3.3070002,2.7550001 "/>
<polygon class="st4" points="8.9110003,2.5269995 9.9699993,1.6840005 11.0649986,2.5269995 10.6269989,1.2100005 
	11.730999,0.3850002 10.3990011,0.4119997 9.9880009,-0.9409995 9.6040001,0.3909998 8.2449999,0.3850002 9.3399992,1.1799998 "/>
<path class="st5" d="M10-18.5c15.5999985,0,28.5,12.9000006,28.5,28.5S25.5999985,38.5,10,38.5S-18.5,25.5999985-18.5,10
	S-5.5999994-18.5,10-18.5 M10-20C-6.5-20-20-6.5-20,10s13.5,30,30,30s30-13.5,30-30S26.5-20,10-20L10-20z"/>
</svg>
