<?xml version="1.0" encoding="utf-8"?>
<svg version="1.1" id="Layer_1" xmlns="http://www.w3.org/2000/svg" xmlns:xlink="http://www.w3.org/1999/xlink" x="0px" y="0px"
	 viewBox="-22 -22 64 64" style="enable-background:new 0 0 20 20;" xml:space="preserve">
<style type="text/css">
	.st0{fill:#E70013;}
	.st1{fill:#FFFFFF;}
	.st2{fill:#CCCCCC;}
</style>
<circle class="st0" cx="10" cy="10" r="28.8000011"/>
<path class="st0" d="M4.2399998,10c0-4.7729988,3.8669987-8.6400003,8.6400003-8.6400003
	c2.2559996,0,4.3079996,0.8640003,5.8470011,2.2800007C16.7619991,0.9520006,13.5849991-0.7999997,10-0.7999997
	c-5.9639997,0-10.7999992,4.836-10.7999992,10.7999992S4.0360003,20.8000011,10,20.8000011
	c3.5849991,0,6.7619991-1.7519989,8.7270012-4.4399986c-1.5390015,1.4160004-3.5910015,2.2800007-5.8470011,2.2800007
	C8.1070013,18.6399994,4.2399998,14.7729988,4.2399998,10"/>
<polygon class="st0" points="6.4000006,10 10.8790007,11.454999 10.8790007,10.6750011 "/>
<polygon class="st0" points="10.8790007,10.3179998 10.8790007,9.6820002 10.8790007,8.545001 6.4000006,10 10.8790007,10.6750011 
	"/>
<polygon class="st0" points="10.8790007,9.6820002 11.8480005,9.6820002 11.842001,9.6369991 11.6920004,9.5319996 
	11.8149986,9.4659986 10.8790007,3.8380003 10.8790007,8.545001 "/>
<polygon class="st0" points="11.8149986,9.4659986 12.0040007,9.3669987 12.0639992,9.0159998 12.2740011,9.1719999 
	11.9620008,8.1939993 13.6450005,7.6479988 10.8759995,3.8380003 "/>
<polygon class="st0" points="11.8480005,9.6820002 11.9050007,9.6820002 11.8389997,9.6369991 "/>
<polygon class="st0" points="10.8790007,16.1619987 13.6450005,12.3520012 12.9040012,12.1149998 "/>
<polygon class="st0" points="12.2769995,9.1719999 12.0639992,9.019001 12.006999,9.3669987 12.2919998,9.2199993 "/>
<polygon class="st0" points="11.9589996,11.8060007 12.2919998,10.7800007 11.6920004,10.4680004 12.3399992,10 
	11.9050007,9.6820002 11.8480005,9.6820002 10.8759995,9.6820002 10.8759995,10.3179998 10.8759995,10.6750011 
	10.8759995,11.454999 10.8759995,16.1619987 12.901,12.1120014 "/>
<polygon class="st0" points="11.9589996,8.1939993 12.2740011,9.1719999 12.2919998,9.2199993 12.9040012,8.8990011 
	12.9610014,8.7249994 13.0570002,8.8210011 18.1209984,6.1929998 13.6419992,7.6479988 "/>
<polygon class="st0" points="13.0600014,8.8179998 13.4439993,9.1989994 14.3139992,8.5660009 15.3580008,10 18.1240005,6.1899986 
	"/>
<polygon class="st0" points="12.2919998,9.217001 12.006999,9.3640003 11.8120003,9.4630003 11.6920004,9.5290012 
	11.8389997,9.6369991 11.9050007,9.6789989 12.3399992,10 12.6099997,9.802 12.9040012,8.8990011 "/>
<polygon class="st0" points="12.3399992,10 11.6920004,10.4680004 12.2919998,10.782999 12.6130009,9.8050013 "/>
<polygon class="st0" points="14.3139992,8.5660009 13.4439993,9.1989994 18.1209984,13.8070002 15.3580008,10 "/>
<polygon class="st0" points="13.4410009,9.1989994 13.0570002,8.8179998 12.9610014,8.7249994 12.9040012,8.8990011 
	12.6099997,9.8050013 12.2919998,10.782999 11.9589996,11.8060007 12.9040012,12.1149998 13.6419992,12.3520012 
	18.1209984,13.8100014 "/>
<path class="st1" d="M10-4.3969994c-7.9559999,0-14.4000006,6.4439993-14.4000006,14.4000006
	c0,7.9530001,6.4439993,14.4000006,14.4000006,14.4000006c7.9529991,0,14.4000015-6.4470005,14.4000015-14.4000006
	C24.4000015,2.0469999,17.9529991-4.3969994,10-4.3969994 M10,20.8000011C4.0360003,20.8000011-0.7999997,15.9640026-0.7999997,10
	c0-5.967001,4.836-10.7999992,10.7999992-10.7999992c3.5849991,0,6.7619991,1.7490005,8.7270012,4.4370003
	c-1.5390015-1.4099994-3.5910015-2.2739997-5.8470011-2.2739997c-4.7729988,0-8.6400003,3.8669987-8.6400003,8.6400003
	c0,4.7700005,3.8669987,8.6400003,8.6400003,8.6400003c2.2559996,0,4.3079996-0.8669987,5.8470011-2.2800007
	C16.7619991,19.0480003,13.5849991,20.8000011,10,20.8000011 M18.1209984,13.8100014l-4.4789991-1.454999l-2.769001,3.8070002
	v-4.7070007l-4.4729977-1.4520006l4.4759989-1.4580002V3.8410001l2.769001,3.8069987l4.4790001-1.454999l-2.769001,3.8099985
	L18.1209984,13.8100014z"/>
<path class="st2" d="M10-18.5c15.5999985,0,28.5,12.9000006,28.5,28.5S25.5999985,38.5,10,38.5S-18.5,25.5999985-18.5,10
	S-5.5999994-18.5,10-18.5 M10-20C-6.5-20-20-6.5-20,10s13.5,30,30,30s30-13.5,30-30S26.5-20,10-20L10-20z"/>
</svg>
