<?xml version="1.0" encoding="utf-8"?>
<svg version="1.1" id="Layer_1" xmlns="http://www.w3.org/2000/svg" xmlns:xlink="http://www.w3.org/1999/xlink" x="0px" y="0px"
	 viewBox="-22 -22 64 64" style="enable-background:new 0 0 20 20;" xml:space="preserve">
<style type="text/css">
	.st0{fill:#C10000;stroke:#555555;stroke-width:0.15;stroke-miterlimit:10;}
	.st1{fill:#FFFFFF;}
	.st2{fill:#C10000;}
	.st3{fill:#CCCCCC;}
</style>
<circle class="st0" cx="10" cy="10" r="28.8000011"/>
<path class="st1" d="M29.1970005-11.4650002C24.1030006-16.0279999,17.3769989-18.7999992,10-18.7999992
	C-5.9060001-18.7999992-18.8000011-5.9060001-18.8000011,10h47.996994C29.1969948,10,29.1969948-11.4650002,29.1970005-11.4650002z
	 M16-0.7999997H8.8000011v7.2000003H1.5999994v-7.2000003h-7.1999989V-8h7.2000003v-7.1999998h7.2000003V-8H16V-0.7999997z"/>
<rect x="1.5999994" y="-15.1999998" class="st2" width="7.2000017" height="7.1999998"/>
<rect x="1.5999994" y="-0.7999997" class="st2" width="7.2000017" height="7.2000003"/>
<polygon class="st2" points="1.5999994,-8 -5.5999994,-8 -5.5999994,-0.7999997 1.5999994,-0.7999997 8.8000011,-0.7999997 
	16,-0.7999997 16,-8 8.8000011,-8 "/>
<path class="st3" d="M10-18.5c15.5999985,0,28.5,12.9000006,28.5,28.5S25.5999985,38.5,10,38.5S-18.5,25.5999985-18.5,10
	S-5.5999994-18.5,10-18.5 M10-20C-6.5-20-20-6.5-20,10s13.5,30,30,30s30-13.5,30-30S26.5-20,10-20L10-20z"/>
</svg>
