<?xml version="1.0" encoding="utf-8"?>
<svg version="1.1" id="Layer_1" xmlns="http://www.w3.org/2000/svg" xmlns:xlink="http://www.w3.org/1999/xlink" x="0px" y="0px"
	 viewBox="-22 -22 64 64" style="enable-background:new 0 0 20 20;" xml:space="preserve">
<style type="text/css">
	.st0{fill:#E30A17;}
	.st1{fill:#FFFFFF;}
	.st2{fill:#CCCCCC;}
</style>
<circle class="st0" cx="10" cy="10" r="28.8000011"/>
<path class="st1" d="M8.2299995-1.5230002c3.4050007,0,6.4649992,1.4819999,8.5769997,3.8339996
	c-2.5559998-4.0319996-7.0559998-6.711-12.1769991-6.711C-3.3200002-4.4000006-9.7700005,2.0499997-9.7700005,10
	s6.4500003,14.4000015,14.4000006,14.4000015c5.1240005,0,9.6209993-2.6790009,12.1769991-6.7110023
	c-2.1119976,2.348999-5.171999,3.8310013-8.5769997,3.8310013C1.8699999,21.5200005-3.2900009,16.3600006-3.2900009,10
	S1.8699999-1.5230002,8.2299995-1.5230002z"/>
<path class="st1" d="M29.763998,5.8029995c-0.0930004-0.1230011-4.7549992,1.5959988-4.8990002,1.5479994
	c-0.1469994-0.045001-2.9160004-4.1760006-3.0599995-4.1279998c-0.1469994,0.0449996,0.0479984,5.013-0.0419998,5.1389995
	c-0.0899982,0.1230011-4.8690014,1.4790001-4.8690014,1.6350002c0,0.1529989,4.7820015,1.5030012,4.8719997,1.6259995
	c0.0899982,0.1230011-0.0990009,5.0909986,0.0479984,5.1390009c0.1469994,0.0479984,2.9100018-4.0830002,3.0570011-4.1309996
	s4.8120003,1.6650009,4.9020023,1.5389986c0.0900021-0.1230011-2.9880009-4.026-2.9880009-4.1820002
	C26.7819996,9.8349991,29.8510017,5.9289989,29.763998,5.8029995z"/>
<path class="st2" d="M10-18.5c15.5999985,0,28.5,12.9000006,28.5,28.5S25.5999985,38.5,10,38.5S-18.5,25.5999985-18.5,10
	S-5.5999994-18.5,10-18.5 M10-20C-6.5-20-20-6.5-20,10s13.5,30,30,30s30-13.5,30-30S26.5-20,10-20L10-20z"/>
</svg>
