<?xml version="1.0" encoding="utf-8"?>
<svg version="1.1" id="Layer_1" xmlns="http://www.w3.org/2000/svg" xmlns:xlink="http://www.w3.org/1999/xlink" x="0px" y="0px"
	 viewBox="-22 -22 64 64" style="enable-background:new 0 0 20 20;" xml:space="preserve">
<style type="text/css">
	.st0{fill:#CE1126;stroke:#E6E6E6;stroke-width:0.15;stroke-miterlimit:10;}
	.st1{fill:none;}
	.st2{fill:#FFFFFF;}
	.st3{fill:#CCCCCC;}
</style>
<circle class="st0" cx="10" cy="10" r="28.8000011"/>
<polygon class="st1" points="9.9940004,38.8000031 10,38.8000031 10.0059996,38.8000031 "/>
<path class="st2" d="M27.0340004,33.1840019L-15.4250002-3.5150003c-0.5220003,0.9750009-0.9719992,1.9949999-1.3800001,3.0360003
	L24.25,35.0049973C25.2189999,34.4529953,26.1429977,33.8410034,27.0340004,33.1840019z"/>
<path class="st2" d="M36.8050003,20.4790001L-4.25-15.0079994C-5.2189999-14.4530001-6.1430001-13.8409996-7.0339999-13.184
	l42.4590034,36.7020035C35.9469986,22.5400009,36.3969994,21.5200005,36.8050003,20.4790001z"/>
<path d="M35.4250031,23.5149994L-7.0339999-13.184c-3.4680009,2.5529995-6.3540006,5.8439994-8.3910007,9.6689997
	l42.4589996,36.6990013C30.5019989,30.6310024,33.3880005,27.3400002,35.4250031,23.5149994z"/>
<path class="st3" d="M10-18.5c15.5999985,0,28.5,12.9000006,28.5,28.5S25.5999985,38.5,10,38.5S-18.5,25.5999985-18.5,10
	S-5.5999994-18.5,10-18.5 M10-20C-6.5-20-20-6.5-20,10s13.5,30,30,30s30-13.5,30-30S26.5-20,10-20L10-20z"/>
</svg>
