<?xml version="1.0" encoding="utf-8"?>
<svg version="1.1" id="Layer_1" xmlns="http://www.w3.org/2000/svg" xmlns:xlink="http://www.w3.org/1999/xlink" x="0px" y="0px"
	 viewBox="-22 -22 64 64" style="enable-background:new 0 0 20 20;" xml:space="preserve">
<style type="text/css">
	.st0{fill:#FE0000;}
	.st1{fill:#000095;}
	.st2{fill:#FFFFFF;}
	.st3{fill:#CCCCCC;}
</style>
<g>
	<path class="st0" d="M24.4000015-14.915V10h-43.2000008c0,15.9060001,12.8939991,28.8000031,28.7999992,28.8000031
		S38.8000031,25.9060001,38.8000031,10C38.8000031-0.6530004,33.0009995-9.9349995,24.4000015-14.915z"/>
	<path class="st1" d="M24.4000015-14.915C20.1609993-17.3719997,15.2530012-18.7999992,10-18.7999992
		C-5.9060001-18.7999992-18.8000011-5.9060001-18.8000011,10h43.1999969C24.3999977,10,24.3999977-14.915,24.4000015-14.915z
		 M12.1540012-9.7999992l-3.552,3.5429988c-0.2700005-0.842999-0.7050018-1.6019998-1.2840014-2.2409987L12.1540012-9.7999992z
		 M8.1999989-4.4000006C8.1999989-1.4180007,5.7819996,1,2.7999997,1s-5.3999991-2.4180007-5.3999991-5.4000006
		s2.4179993-5.3999996,5.4000006-5.3999996S8.1999989-7.3820004,8.1999989-4.4000006z M8.1999989-13.7539997l-1.302,4.8359995
		C6.2590008-9.4969997,5.5-9.9320002,4.6569996-10.2019997L8.1999989-13.7539997z M2.7999997-15.1999998l1.2839999,4.8210001
		c-0.414-0.0900002-0.842999-0.1409998-1.2839999-0.1409998c-0.4409995,0-0.8699999,0.0509996-1.2839999,0.1409998
		L2.7999997-15.1999998z M0.9429998-10.2019997C0.0999994-9.9320002-0.6589999-9.4969997-1.2979994-8.9180002l-1.302-4.8359995
		L0.9429998-10.2019997z M-1.7180004-8.4979992c-0.5789995,0.638999-1.0139995,1.3979998-1.2839999,2.2409987l-3.552-3.5429988
		L-1.7180004-8.4979992z M-3.1790004-5.6840005c-0.0899992,0.414-0.1409998,0.8430004-0.1409998,1.2839999
		s0.0510006,0.8699999,0.1409998,1.2839999L-8-4.4000006L-3.1790004-5.6840005z M-3.0020003-2.5430007
		C-2.7319999-1.7030001-2.2969999-0.9410009-1.7180004-0.302l-4.836,1.302L-3.0020003-2.5430007z M-2.5999994,4.9539995l1.302-4.836
		c0.6389995,0.5790009,1.3979988,1.0140009,2.2409992,1.2839999L-2.5999994,4.9539995z M2.7999997,6.4000006L1.5159998,1.5789995
		c0.414,0.0900006,0.8430004,0.1409998,1.2839999,0.1409998s0.8699999-0.0510006,1.2839999-0.1409998L2.7999997,6.4000006z
		 M4.6569996,1.4019995C5.4969988,1.131999,6.2590008,0.6969991,6.8979988,0.1179996l1.302,4.836L4.6569996,1.4019995z
		 M7.3179998-0.302c0.5789995-0.6389995,1.0140009-1.3980002,1.2840014-2.2410007L12.151,1L7.3179998-0.302z M8.7790012-3.1160007
		c0.0899992-0.414,0.1409998-0.842999,0.1409998-1.2839999c0-0.4409995-0.0510006-0.8699999-0.1409998-1.2839999
		l4.8209982,1.2839999L8.7790012-3.1160007z"/>
	<path class="st2" d="M0.9429998-10.2019997l-3.5429993-3.552l1.302,4.8359995
		C-0.6589999-9.4969997,0.0999994-9.9320002,0.9429998-10.2019997z"/>
	<path class="st2" d="M-1.7180004-8.4979992l-4.836-1.302l3.552,3.5430002
		C-2.7319999-7.0999994-2.2969999-7.8590002-1.7180004-8.4979992z"/>
	<path class="st2" d="M4.0839996-10.3789997l-1.2839999-4.8210001l-1.2839999,4.8210001
		c0.414-0.0900002,0.8430004-0.1409998,1.2839999-0.1409998C3.2410007-10.5199995,3.6699996-10.4689999,4.0839996-10.3789997z"/>
	<path class="st2" d="M8.1999989-13.7539997l-3.5429993,3.552c0.8399992,0.2699995,1.6020012,0.7049999,2.2409992,1.2839994
		L8.1999989-13.7539997z"/>
	<path class="st2" d="M8.920001-4.4000006c0,0.4409995-0.0510006,0.8699999-0.1409998,1.2839999l4.8209982-1.2839999
		L8.7790012-5.6840005C8.8690004-5.2700005,8.920001-4.8410001,8.920001-4.4000006z"/>
	<path class="st2" d="M8.6020012-6.2570004l3.552-3.5429988l-4.8360014,1.302
		C7.8969994-7.8590002,8.3320007-7.0999994,8.6020012-6.2570004z"/>
	<path class="st2" d="M1.5159998,1.5789995l1.2839999,4.8210011l1.2839999-4.8209996
		c-0.414,0.0899992-0.842999,0.1409984-1.2839999,0.1409984C2.3590002,1.7199993,1.9299998,1.6690001,1.5159998,1.5789995z"/>
	<path class="st2" d="M4.6569996,1.4019995l3.5429993,3.5490017l-1.302-4.8330016
		C6.2590008,0.6970005,5.5,1.1320004,4.6569996,1.4019995z"/>
	<path class="st2" d="M7.3179998-0.302L12.151,1L8.6020012-2.5430007C8.3320007-1.7000003,7.8969994-0.9409995,7.3179998-0.302z"/>
	<path class="st2" d="M-2.5999994,4.9539995l3.5429993-3.552c-0.8430004-0.269999-1.6019998-0.704999-2.2409992-1.2839999
		L-2.5999994,4.9539995z"/>
	<path class="st2" d="M-3.3200002-4.4000006c0-0.4409995,0.0510006-0.8699999,0.1409998-1.2839999L-8-4.4000006l4.8209996,1.2839999
		C-3.2689996-3.5300007-3.3200002-3.9589996-3.3200002-4.4000006z"/>
	<path class="st2" d="M-3.0020003-2.5430007L-6.5540004,1l4.836-1.302
		C-2.2969999-0.9409995-2.7319999-1.7000003-3.0020003-2.5430007z"/>
	<circle class="st2" cx="2.7999997" cy="-4.4000006" r="5.3999996"/>
</g>
<path class="st3" d="M10-18.5c15.5999985,0,28.5,12.9000006,28.5,28.5S25.5999985,38.5,10,38.5S-18.5,25.5999985-18.5,10
	S-5.5999994-18.5,10-18.5 M10-20C-6.5-20-20-6.5-20,10s13.5,30,30,30s30-13.5,30-30S26.5-20,10-20L10-20z"/>
</svg>
