<?xml version="1.0" encoding="utf-8"?>
<svg version="1.1" id="Layer_1" xmlns="http://www.w3.org/2000/svg" xmlns:xlink="http://www.w3.org/1999/xlink" x="0px" y="0px"
	 viewBox="-22 -22 64 64" style="enable-background:new 0 0 20 20;" xml:space="preserve">
<style type="text/css">
	.st0{fill:#FFE700;}
	.st1{fill:#DE3908;}
	.st2{fill:#FFFDFF;}
	.st3{fill:none;stroke:#000000;stroke-width:0.0813;}
	.st4{fill:#DE3108;}
	.st5{fill:none;stroke:#000000;stroke-width:0.0999;}
	.st6{fill:#9CA69C;}
	.st7{fill:none;stroke:#9CA69C;stroke-width:0.0999;}
	.st8{fill:#FFFFFF;}
	.st9{fill:none;stroke:#FFFFFF;stroke-width:0.0999;}
	.st10{fill:#CCCCCC;}
</style>
<g>
	<path d="M10-18.7999992c-8.5200005,0-16.1490002,3.7199993-21.4200001,9.5999994h42.8460007
		C26.1490021-15.0799999,18.5200005-18.7999992,10-18.7999992z"/>
	<rect x="-17.1259995" y="0.3969994" width="54.2519989" height="0.0029998"/>
	<path d="M-17.1259995,19.5999985h54.2519989C38.1909981,16.5939999,38.8000031,13.3719988,38.8000031,10h-57.6000023
		C-18.7999992,13.3719988-18.191,16.5909996-17.1259995,19.5999985z"/>
	<rect x="-11.4200001" y="29.1970005" width="42.8460007" height="0.0029984"/>
	<path class="st0" d="M31.4199982-9.2000008h-42.8399963c-2.4840002,2.7720013-4.434,6.0180006-5.703001,9.6000013h54.2519989
		C35.8569984-3.1820002,33.9069977-6.4310007,31.4199982-9.2000008z"/>
	<path class="st1" d="M-17.1259995,0.4000006C-18.191,3.4089999-18.7999992,6.6280012-18.7999992,10h57.6000023
		c0-3.3719988-0.6090012-6.5910001-1.6740036-9.5999994H-17.1259995z"/>
	<path class="st0" d="M-11.4230003,29.1970005h42.848999c2.4839954-2.7719994,4.434-6.0180016,5.7029972-9.6000004h-54.2549973
		C-15.8599997,23.1789989-13.9099998,26.4279995-11.4230003,29.1970005z"/>
	<path class="st1" d="M10,38.8000031c8.5200005,0,16.1489983-3.7200012,21.4199982-9.6000042h-42.8399963
		C-6.1489997,35.0800018,1.4799995,38.8000031,10,38.8000031z"/>
</g>
<path class="st2" d="M18.967001,10c0,1.1760006-0.2339993,2.3459988-0.684,3.4320002
	c-0.4499969,1.0860014-1.1159973,2.0789995-1.9439983,2.9100008c-0.8280001,0.828001-1.8239994,1.4940014-2.9100008,1.9439983
	c-1.0860014,0.4500008-2.2590008,0.684-3.4320002,0.684s-2.3459988-0.2339993-3.4320002-0.684
	C5.4820013,17.8360023,4.486002,17.170002,3.6550007,16.342001c-0.8280001-0.8280001-1.4940004-1.8270006-1.9439993-2.9100008
	C1.2639995,12.3459988,1.0330005,11.1760006,1.0330005,10S1.2670007,7.6540012,1.717001,6.5679998
	C2.1670012,5.4849997,2.8330016,4.4890003,3.6610003,3.657999c0.8280001-0.8310013,1.8270006-1.4940004,2.9100008-1.9439993
	C7.6540012,1.2639995,8.8239994,1.0330005,10,1.0330005s2.3459988,0.2340002,3.4320002,0.6840005
	s2.0789995,1.1160007,2.9100008,1.9439993c0.828001,0.8280001,1.4940014,1.8270006,1.9439983,2.9100008
	C18.7360001,7.6540012,18.967001,8.8239994,18.967001,10"/>
<path class="st3" d="M18.967001,10c0,1.1760006-0.2339993,2.3459988-0.684,3.4320002
	c-0.4499969,1.0860014-1.1159973,2.0789995-1.9439983,2.9100008c-0.8280001,0.828001-1.8239994,1.4940014-2.9100008,1.9439983
	c-1.0860014,0.4500008-2.2590008,0.684-3.4320002,0.684s-2.3459988-0.2339993-3.4320002-0.684
	C5.4820013,17.8360023,4.486002,17.170002,3.6550007,16.342001c-0.8280001-0.8280001-1.4940004-1.8270006-1.9439993-2.9100008
	C1.2639995,12.3459988,1.0330005,11.1760006,1.0330005,10S1.2670007,7.6540012,1.717001,6.5679998
	C2.1670012,5.4849997,2.8330016,4.4890003,3.6610003,3.657999c0.8280001-0.8310013,1.8270006-1.4940004,2.9100008-1.9439993
	C7.6540012,1.2639995,8.8239994,1.0330005,10,1.0330005s2.3459988,0.2340002,3.4320002,0.6840005
	s2.0789995,1.1160007,2.9100008,1.9439993c0.828001,0.8280001,1.4940014,1.8270006,1.9439983,2.9100008
	C18.7360001,7.6540012,18.967001,8.8239994,18.967001,10z"/>
<path class="st4" d="M8.4189987,3.1240005L7.8339996,2.0529995c0.2249994-0.2249994,0.6030006-0.3959999,1.2060013-0.3959999
	c0,0.039-0.0600014,1.1760006-0.0600014,1.1760006L8.4189987,3.1240005z"/>
<path class="st5" d="M8.4189987,3.1240005L7.8339996,2.0529995c0.2249994-0.2249994,0.6030006-0.3959999,1.2060013-0.3959999
	c0,0.039-0.0600014,1.1760006-0.0600014,1.1760006L8.4189987,3.1240005z"/>
<path class="st0" d="M8.9799995,2.8389997l0.0810013-1.1849999c0,0,1.2030001-0.0720005,1.8570013,0.7139997
	c0.0119991-0.0120006-0.6450005,0.9180007-0.6450005,0.9180007L8.9799995,2.8389997z"/>
<path class="st5" d="M8.9799995,2.8389997l0.0810013-1.1849999c0,0,1.2030001-0.0720005,1.8570013,0.7139997
	c0.0119991-0.0120006-0.6450005,0.9180007-0.6450005,0.9180007L8.9799995,2.8389997z"/>
<path class="st4" d="M10.2969999,3.2769995l0.5939999-0.9179993C11.2869997,2.776,11.4520006,3.073,11.5119991,3.5230002
	C11.5239983,3.5350008,10.573,3.7600002,10.573,3.7479997C10.573,3.7390003,10.3089991,3.289,10.2969999,3.2769995"/>
<path class="st5" d="M10.2969999,3.2769995l0.5939999-0.9179993C11.2869997,2.776,11.4520006,3.073,11.5119991,3.5230002
	C11.5239983,3.5350008,10.573,3.7600002,10.573,3.7479997C10.573,3.7390003,10.3089991,3.289,10.2969999,3.2769995z"/>
<path d="M8.7159986,18.4570007c0,0,1.1159992-1.2750015,3.276-1.0019989
	c-0.3270006-0.5310001-1.3800001-0.4680004-1.3800001-0.4680004S10.2879992,14.5,10.5400009,14.3800001
	C10.795001,14.2600002,11.875,14.3919992,11.875,14.3919992c0.144001,0,0.3900003-0.3900003,0.1920004-0.6330013
	C11.875,13.5129986,11.302,12.5739965,11.5360003,12.3909969s1.5119991,0.1020012,1.5119991,0.1020012L9.4510012,7.8759995
	c0,0-0.3690004-1.7370014,0.3690004-2.5739994c0.8879986-0.7349997,0.795001-1.5330005,0.7650003-1.5209999
	C10.4620008,2.974,9.2350025,2.3920007,8.4070024,3.1389995C7.9179993,3.7269998,8.2419987,4.177,8.2419987,4.177
	S6.954999,4.5250006,6.9069996,4.75C6.855999,4.9749994,8.355999,4.7080002,8.355999,4.7080002L8.2149992,5.7399998
	c0,0-2.9189987,2.6550007-0.6839991,4.9530001c0.0179987-0.0090008,0.0689993-0.099,0.0689993-0.099
	s0.7860003,0.9720011,1.6140003,1.1850014c0.7769995,0.7979994,0.704999,0.6750011,0.704999,0.6750011
	s0.1529989,1.256999,0.0119991,1.5c-0.1949987-0.0600014-2.1750011-0.131999-2.4720011-0.0209999
	c-0.2640009,0.0810013-1.2869997,0.032999-1.0319996,1.6949987c0.1920004-0.4499989,0.3690004-0.8459988,0.3690004-0.8459988
	s-0.032999,0.6030006,0.2130003,0.8189993c-0.0389986-0.6330013,0.2370014-1.0620003,0.2370014-1.0620003
	s0.0540018,0.6899986,0.2039995,0.7919998s0.1529989-1.1219988,1.0019989-1.0200005
	c0.8459988,0.1020012,1.4609985,0.0720005,1.4609985,0.0720005s0.2850008,2.3999996,0.1920004,2.6280003
	c-0.6119986-0.144001-2.073,0.0600014-2.1660004,0.4290009c0.8580008-0.0510025,1.256999,0.0509987,1.256999,0.0509987
	S8.5,18.0999985,8.7159986,18.4570007"/>
<path class="st5" d="M8.7159986,18.4570007c0,0,1.1159992-1.2750015,3.276-1.0019989
	c-0.3270006-0.5310001-1.3800001-0.4680004-1.3800001-0.4680004S10.2879992,14.5,10.5400009,14.3800001
	C10.795001,14.2600002,11.875,14.3919992,11.875,14.3919992c0.144001,0,0.3900003-0.3900003,0.1920004-0.6330013
	C11.875,13.5129986,11.302,12.5739965,11.5360003,12.3909969s1.5119991,0.1020012,1.5119991,0.1020012L9.4510012,7.8759995
	c0,0-0.3690004-1.7370014,0.3690004-2.5739994c0.8879986-0.7349997,0.795001-1.5330005,0.7650003-1.5209999
	C10.4620008,2.974,9.2350025,2.3920007,8.4070024,3.1389995C7.9179993,3.7269998,8.2419987,4.177,8.2419987,4.177
	S6.954999,4.5250006,6.9069996,4.75C6.855999,4.9749994,8.355999,4.7080002,8.355999,4.7080002L8.2149992,5.7399998
	c0,0-2.9189987,2.6550007-0.6839991,4.9530001c0.0179987-0.0090008,0.0689993-0.099,0.0689993-0.099
	s0.7860003,0.9720011,1.6140003,1.1850014c0.7769995,0.7979994,0.704999,0.6750011,0.704999,0.6750011
	s0.1529989,1.256999,0.0119991,1.5c-0.1949987-0.0600014-2.1750011-0.131999-2.4720011-0.0209999
	c-0.2640009,0.0810013-1.2869997,0.032999-1.0319996,1.6949987c0.1920004-0.4499989,0.3690004-0.8459988,0.3690004-0.8459988
	s-0.032999,0.6030006,0.2130003,0.8189993c-0.0389986-0.6330013,0.2370014-1.0620003,0.2370014-1.0620003
	s0.0540018,0.6899986,0.2039995,0.7919998s0.1529989-1.1219988,1.0019989-1.0200005
	c0.8459988,0.1020012,1.4609985,0.0720005,1.4609985,0.0720005s0.2850008,2.3999996,0.1920004,2.6280003
	c-0.6119986-0.144001-2.073,0.0600014-2.1660004,0.4290009c0.8580008-0.0510025,1.256999,0.0509987,1.256999,0.0509987
	S8.5,18.0999985,8.7159986,18.4570007z"/>
<path class="st6" d="M9.0579996,5.3590002c0,0-2.1240005,2.3430004-1.2089996,4.1369991
	c0.0479994-0.2519989,0.0269995-0.4050007,0.0570002-0.3959999c-0.0479994-0.032999,0.2640009,0.2160015,0.243001,0.1650009
	c0.0059996-0.1290007-0.0960016-0.4050007-0.0960016-0.4050007C8.1489983,8.8840008,8.2449999,8.907999,8.3409986,8.9320002
	C8.2840014,8.8239994,8.2299995,8.7220011,8.170001,8.6169987c0.1350002,0.0179987,0.2700005,0.032999,0.4050007,0.0479994
	c0,0-0.144001-0.3840008-0.0959988-0.3840008s0.3360014,0.0240011,0.3360014,0.0240011
	C8.2149992,7.2249994,8.7850008,6.3220005,9.0579996,5.3590002"/>
<path class="st7" d="M9.0579996,5.3590002c0,0-2.1240005,2.3430004-1.2089996,4.1369991
	c0.0479994-0.2519989,0.0269995-0.4050007,0.0570002-0.3959999c-0.0479994-0.032999,0.2640009,0.2160015,0.243001,0.1650009
	c0.0059996-0.1290007-0.0960016-0.4050007-0.0960016-0.4050007C8.1489983,8.8840008,8.2449999,8.907999,8.3409986,8.9320002
	C8.2840014,8.8239994,8.2299995,8.7220011,8.170001,8.6169987c0.1350002,0.0179987,0.2700005,0.032999,0.4050007,0.0479994
	c0,0-0.144001-0.3840008-0.0959988-0.3840008s0.3360014,0.0240011,0.3360014,0.0240011
	C8.2149992,7.2249994,8.7850008,6.3220005,9.0579996,5.3590002z"/>
<path class="st6" d="M9.7960005,3.349c0,0,0.1109991,0.8070002-0.3239994,1.0439987
	C9.3969994,4.4410009,9.1209993,4.5340014,9.1629992,4.6989994C9.2139997,4.9239988,9.336998,4.881999,9.5109997,4.8430004
	C9.9699993,4.7590008,10.5009995,3.7780004,9.7960005,3.349"/>
<path class="st7" d="M9.7960005,3.349c0,0,0.1109991,0.8070002-0.3239994,1.0439987
	C9.3969994,4.4410009,9.1209993,4.5340014,9.1629992,4.6989994C9.2139997,4.9239988,9.336998,4.881999,9.5109997,4.8430004
	C9.9699993,4.7590008,10.5009995,3.7780004,9.7960005,3.349z"/>
<path class="st8" d="M9.0100002,4.045001c0,0.0930004-0.0839996,0.1739988-0.1739988,0.1739988
	c-0.0930004,0-0.1739988-0.0839996-0.1739988-0.1739988c0-0.0930004,0.0839996-0.1740003,0.1739988-0.1740003
	C8.9289989,3.8709993,9.0100002,3.9550004,9.0100002,4.045001"/>
<path class="st4" d="M8.3260012,4.717001c-0.111002,0.0930004-0.7050018,0.7080002-0.1230011,0.9299984
	c0.6030006-0.1650009,0.4410009-0.276,0.573-0.407999C8.7790012,4.9630003,8.4759989,4.894001,8.3260012,4.717001"/>
<path class="st5" d="M8.3260012,4.717001c-0.111002,0.0930004-0.7050018,0.7080002-0.1230011,0.9299984
	c0.6030006-0.1650009,0.4410009-0.276,0.573-0.407999C8.7790012,4.9630003,8.4759989,4.894001,8.3260012,4.717001z"/>
<path class="st6" d="M9.6130009,10.5100002c-0.032999,0.131999-0.1650009,0.6209993,0.0209999,1.0019989
	c0.5100002-0.2159986,0.7469988-0.1529989,0.9179993-0.0389986C10.131999,11.1309996,9.9699993,10.9899998,9.6130009,10.5100002"/>
<path class="st7" d="M9.6130009,10.5100002c-0.032999,0.131999-0.1650009,0.6209993,0.0209999,1.0019989
	c0.5100002-0.2159986,0.7469988-0.1529989,0.9179993-0.0389986C10.131999,11.1309996,9.9699993,10.9899998,9.6130009,10.5100002z"/>
<path class="st8" d="M10.4919987,12.8289995l0.032999,1.1429987c0,0,0.3959999,0.0720005,0.5820007,0
	C11.2869997,13.9000006,11.0949993,13.1739988,10.4919987,12.8289995"/>
<path class="st9" d="M10.4919987,12.8289995l0.032999,1.1429987c0,0,0.3959999,0.0720005,0.5820007,0
	C11.2869997,13.9000006,11.0949993,13.1739988,10.4919987,12.8289995z"/>
<path class="st6" d="M13.3809996,12.9730005c0,0-0.7349997-1.776-2.6159992-2.2259989S9.1330013,8.2960005,9.2860003,8.170001
	c0.0809984-0.1710005,0.144001-0.4379997,0.6839991-0.1829996c0.5400009,0.2550001,3.032999,1.5119991,3.3900003,1.5720005
	C13.717001,9.6190004,13.4139986,13.0119991,13.3809996,12.9730005"/>
<path class="st5" d="M13.3809996,12.9730005c0,0-0.7349997-1.776-2.6159992-2.2259989S9.1330013,8.2960005,9.2860003,8.170001
	c0.0809984-0.1710005,0.144001-0.4379997,0.6839991-0.1829996c0.5400009,0.2550001,3.032999,1.5119991,3.3900003,1.5720005
	C13.717001,9.6190004,13.4139986,13.0119991,13.3809996,12.9730005z"/>
<path class="st4" d="M11.5959988,10.7349997c-0.032999,0.0209999,2.5109997,1.5,1.7459993,2.7779989
	c0.7259989-0.4799995,0.4890003-1.3170004,0.4890003-1.3170004s0.5939999,1.545001-0.8459988,2.2979994
	c0.1529989,0.131999,0.2550001,0.1049995,0.2550001,0.1049995l-0.2459993,0.2459993c0,0-0.1109991,0.1829996,0.8580008-0.2850008
	c-0.2640009,0.2159986-0.2850008,0.3690004-0.2850008,0.3690004s0.0720005,0.2039995,0.704999-0.3480005
	c-0.5100002,0.552-0.6209993,0.8370008-0.6209993,0.8280001c1.3800001-0.1230011,4.3800001-4.6049995-0.9510012-5.9339991
	c0.2850008,0.2969999,0.2459993,0.2550001,0.2459993,0.2550001L11.5959988,10.7349997z"/>
<path class="st5" d="M11.5959988,10.7349997c-0.032999,0.0209999,2.5109997,1.5,1.7459993,2.7779989
	c0.7259989-0.4799995,0.4890003-1.3170004,0.4890003-1.3170004s0.5939999,1.545001-0.8459988,2.2979994
	c0.1529989,0.131999,0.2550001,0.1049995,0.2550001,0.1049995l-0.2459993,0.2459993c0,0-0.1109991,0.1829996,0.8580008-0.2850008
	c-0.2640009,0.2159986-0.2850008,0.3690004-0.2850008,0.3690004s0.0720005,0.2039995,0.704999-0.3480005
	c-0.5100002,0.552-0.6209993,0.8370008-0.6209993,0.8280001c1.3800001-0.1230011,4.3800001-4.6049995-0.9510012-5.9339991
	c0.2850008,0.2969999,0.2459993,0.2550001,0.2459993,0.2550001L11.5959988,10.7349997z"/>
<path class="st8" d="M11.7070007,10.2939987c0.3449993,0.2459993,0.4680004,0.3239994,0.5100002,0.4499989
	c-0.3179998-0.0720005-0.6030006-0.0510006-0.6030006-0.0510006s-0.6839991-0.6540012-0.8070002-0.704999
	c-0.0930004,0-0.6209993-0.3360014-0.6209993-0.3360014c-0.2640009-0.131999-0.5100002-1.0500011,0.4680004-0.7860003
	c1.0109997,0.4799995,1.1550007,0.5219994,1.1550007,0.5219994c0.3990011,0.1259995,0.8039989,0.2519989,1.2030001,0.3780012
	c0.230999,0.2580013,0.4649992,0.519001,0.6929998,0.7740011c0,0-1.2359991-0.6119986-1.3890009-0.6209993
	c0.3360014,0.276,0.5310001,0.6540012,0.5310001,0.6540012C12.4599991,10.4589996,12.118001,10.3570013,11.7070007,10.2939987"/>
<path class="st5" d="M11.7070007,10.2939987c0.3449993,0.2459993,0.4680004,0.3239994,0.5100002,0.4499989
	c-0.3179998-0.0720005-0.6030006-0.0510006-0.6030006-0.0510006s-0.6839991-0.6540012-0.8070002-0.704999
	c-0.0930004,0-0.6209993-0.3360014-0.6209993-0.3360014c-0.2640009-0.131999-0.5100002-1.0500011,0.4680004-0.7860003
	c1.0109997,0.4799995,1.1550007,0.5219994,1.1550007,0.5219994c0.3990011,0.1259995,0.8039989,0.2519989,1.2030001,0.3780012
	c0.230999,0.2580013,0.4649992,0.519001,0.6929998,0.7740011c0,0-1.2359991-0.6119986-1.3890009-0.6209993
	c0.3360014,0.276,0.5310001,0.6540012,0.5310001,0.6540012C12.4599991,10.4589996,12.118001,10.3570013,11.7070007,10.2939987z"/>
<path d="M6.8950005,4.8100014c0,0,1.1850014-0.2850008,1.3289995-0.2459993"/>
<path class="st9" d="M6.8950005,4.8100014c0,0,1.1850014-0.2850008,1.3289995-0.2459993"/>
<path class="st10" d="M10-18.5c15.5999985,0,28.5,12.9000006,28.5,28.5S25.5999985,38.5,10,38.5S-18.5,25.5999985-18.5,10
	S-5.5999994-18.5,10-18.5 M10-20C-6.5-20-20-6.5-20,10s13.5,30,30,30s30-13.5,30-30S26.5-20,10-20L10-20z"/>
</svg>
