<?xml version="1.0" encoding="utf-8"?>
<svg version="1.1" id="Layer_1" xmlns="http://www.w3.org/2000/svg" xmlns:xlink="http://www.w3.org/1999/xlink" x="0px" y="0px"
	 viewBox="-22 -22 64 64" style="enable-background:new 0 0 20 20;" xml:space="preserve">
<style type="text/css">
	.st0{fill:#FFFFFF;stroke:#E6E6E6;stroke-width:0.15;stroke-miterlimit:10;}
	.st1{fill:#FCD116;}
	.st2{fill:none;}
	.st3{fill:#0038A8;}
	.st4{fill:none;stroke:#000000;stroke-width:0.2223;stroke-miterlimit:20;}
	.st5{fill:#CCCCCC;}
</style>
<circle class="st0" cx="10" cy="10" r="28.8000011"/>
<path class="st1" d="M-6.4669995-4.2050004c-1.9350009-1.1729994-3.4200006-1.394999-4.6080012-1.5719991
	c-0.848999-0.1260009-1.5269985-0.2460008-2.052-0.6840005c0.4140005,0.6209993,0.927,0.7860003,1.578001,0.9569993
	c0.993,0.2640009,2.3549995,0.6240005,4.0409999,2.9340005l2.0819993-0.1469994l-1.0349994-1.5L-6.4669995-4.2050004z"/>
<path class="st1" d="M-11.2609997-6.4069996c-0.6450005,0.0960002-1.1610003,0.138-1.9020004-0.375
	C-12.665-6.2420001-11.9809999-6.125-11.0419998-5.987c1.0740004,0.1619997,2.5380001,0.4050007,4.3410001,1.4190001
	l-0.8699999-1.2479997C-9.4700003-6.6019998-10.5139999-6.5180001-11.2609997-6.4069996z"/>
<path d="M-11.6029997-5.2999997c1.026,0.2700005,2.2979994,0.6090002,3.9569998,2.8980002l0.0360003,0.0509992l2.3280001-0.1649995
	l-0.144001-0.2039995L-7.5079999-2.573c-1.6860003-2.3070002-3.0479999-2.6669998-4.0409999-2.9310007
	c-0.651001-0.1709991-1.1640005-0.336-1.5749998-0.9569993C-13.2200003-6.539-13.3099995-6.6469994-13.3970003-6.7490005
	c-0.0239992,0.0300007-0.0479994,0.0630012-0.0719995,0.0930004C-12.9920006-5.7169995-12.368-5.5009995-11.6029997-5.2999997z"/>
<path d="M-11.2609997-6.4069996c0.7469997-0.1079993,1.7910004-0.1950002,3.6900001,0.5910001l-0.2250009-0.3270006
	c-1.7579994-0.6690001-2.7629995-0.5789995-3.4949989-0.474c-0.6480007,0.0960002-1.137001,0.1229997-1.8780012-0.4379997
	c-0.032999,0.0419998-0.0629997,0.0839996-0.0959997,0.1259995c0.0360003,0.0449996,0.0629997,0.1079993,0.1020002,0.1469994
	C-12.4219999-6.2689996-11.9060001-6.3109994-11.2609997-6.4069996z"/>
<path d="M-13.1239996-6.461C-12.599-6.026-11.927-5.9030004-11.0719995-5.7769995
	c1.1879997,0.177,2.6729994,0.3989997,4.6079998,1.5689993l0.0089993-0.0119991l-0.2489991-0.3480005
	C-8.507-5.5819993-9.9709997-5.8280001-11.0450001-5.987c-0.9389992-0.138-1.6199989-0.2550001-2.1209993-0.7949996
	c-0.0360003-0.039-0.0630007-0.1019998-0.0990009-0.1470008c-0.0419998,0.0599999-0.0900002,0.1170001-0.132,0.1799998
	C-13.3099995-6.6469994-13.2200003-6.539-13.1239996-6.461z"/>
<path class="st1" d="M-7.5139995-12.6859999c-0.1470008,0.7290001,0.1019998,1.2090006,0.4379997,1.7910004
	C-6.6859994-10.2259998-6.1909995-9.3769999-6.1549993-7.802l1.6740003,1.1550007
	c-0.5429993-2.0189991-1.3800001-3.1859999-2.0670004-4.1099997C-7.0579996-11.4440002-7.4509997-12.0079994-7.5139995-12.6859999z"
	/>
<path class="st1" d="M-6.2329993-11.3299999C-6.7550001-11.7200003-7.151-12.0559998-7.3129997-12.941
	c-0.0270009,0.7290001,0.3720002,1.2989998,0.9359994,2.0609999c0.6870003,0.927,1.6289992,2.1990004,2.1809993,4.4340005
	l0.888,0.612l-0.2759986-1.644001l-0.1019998,0.0330005C-4.5830002-10.1000004-5.5369997-10.8109999-6.2329993-11.3299999z"/>
<path d="M-7.2589993-10.7869997c0.3809996,0.6479998,0.8040004,1.4399996,0.8729997,2.823L-6.1519995-7.802
	c-0.039-1.5780001-0.5339999-2.427-0.9240003-3.0960007c-0.336-0.5819998-0.5850005-1.0589991-0.4379997-1.7879992
	C-7.5170007-12.7279997-7.5349994-12.7670002-7.5349994-12.809c-0.0690007,0.0539999-0.1410012,0.1020002-0.2100005,0.1560001
	C-7.8800001-11.8880005-7.6040001-11.3780003-7.2589993-10.7869997z"/>
<path d="M-6.2329993-11.3299999c0.6959996,0.519001,1.6470008,1.2270002,2.5469999,3.8849998l0.1019998-0.0360003
	l0.1019998-0.0360003C-4.4030004-10.2350006-5.3869991-10.9700012-6.1040001-11.507
	c-0.5280004-0.3900013-0.888-0.7080002-1.0169992-1.6170006c-0.0599999,0.0419998-0.1229997,0.0900002-0.1829996,0.1350002
	c0,0.0150003-0.0089993,0.0299997-0.0089993,0.0389996C-7.151-12.0559998-6.7579999-11.7200003-6.2329993-11.3299999z"/>
<path d="M-6.5479994-10.757c0.6870003,0.9240007,1.5239997,2.0910006,2.0670004,4.1100006l0.2849994,0.198
	C-4.7449999-8.684-5.6870003-9.9530001-6.3770003-10.8800001C-6.9409995-11.6420002-7.3400006-12.2119999-7.3129997-12.941
	c0-0.0120001,0.0059996-0.0300007,0.0089993-0.0390005C-7.3820004-12.9259996-7.4600005-12.8660002-7.5319996-12.809
	c0,0.0419998,0.0209999,0.0810003,0.0239997,0.1199999C-7.4509997-12.0079994-7.0579996-11.4440002-6.5479994-10.757z"/>
<polygon class="st1" points="-2.7979994,-2.948 -1.4600005,-4.2919998 -10.184,-10.3369999 "/>
<polygon class="st1" points="-10.3369999,-10.184 -4.2919998,-1.4600005 -2.948,-2.7979994 "/>
<path d="M-7.5709996-5.8159995l0.8670001,1.2509995L-6.461-4.2139997l1.0380006,1.4970002L-5.2819996-2.513l0.8909998,1.2810001
	l0.0720005,0.1079993l3.1080008-3.1049995l0.0900006-0.0930004l-2.1870017-1.5119991l-0.888-0.6149998l-0.2850008-0.198
	l-1.6740003-1.1580005l-0.230999-0.1589999l-3.7560005-2.6010008c-0.1440001,0.1410007-0.2819996,0.2790003-0.4230003,0.4230003
	l2.7720013,3.9990001L-7.5709996-5.8159995z M-1.4600005-4.2919998L-2.7979994-2.948L-10.184-10.3369999L-1.4600005-4.2919998z
	 M-2.948-2.7979994l-1.3439999,1.3379989l-6.0420008-8.7269993L-2.948-2.7979994z"/>
<path class="st2" d="M-8.0809994,32.4009972C-3.1370006,36.3969994,3.1480002,38.8000031,10,38.8000031
	s13.1369991-2.4030037,18.0810013-6.3990021C28.0810013,32.401001-8.0809994,32.401001-8.0809994,32.4009972z"/>
<path class="st2" d="M37.1259995,19.5999985h-54.2519989c0.8069992,2.2740021,1.862999,4.4280014,3.1829996,6.4020004h47.8829994
	C35.2630005,24.0279999,36.3190002,21.8740005,37.1259995,19.5999985z"/>
<path class="st3" d="M38.6139984,13.198h-57.2279968c0.2460003,2.2230005,0.762001,4.3589993,1.4850006,6.4019985h54.2519989
	C37.8490028,17.5569992,38.3679962,15.4210005,38.6139984,13.198z"/>
<path class="st3" d="M33.9430008,26.0019989h-47.8860016c1.6199999,2.4179993,3.6029997,4.5749989,5.8620005,6.4020004h36.1620026
	C30.3400021,30.5739994,32.322998,28.4199982,33.9430008,26.0019989z"/>
<path class="st3" d="M13.2010012,6.7989988h25.4129982c-0.2460022-2.2230005-0.7619972-4.3590002-1.4850006-6.4019995H13.2039967
	L13.2010012,6.7989988L13.2010012,6.7989988z"/>
<path class="st3" d="M13.2010012-6.0020003h20.7420006c-1.6200027-2.4179997-3.6029987-4.5750003-5.8619995-6.402H13.2010012
	V-6.0020003z"/>
<path class="st1" d="M-2.7979994-2.7979994l0.336,4.7579999c-4.3980002,3.1799998-1.7130003,5.0609994-4.8300004,6.0809999
	c2.073-2.2199993-0.6329999-2.1870003,1.737-6.9780006"/>
<path class="st4" d="M-2.7979994-2.7979994l0.336,4.7579999c-4.3980002,3.1799998-1.7130003,5.0609994-4.8300004,6.0809999
	c2.073-2.2199993-0.6329999-2.1870003,1.737-6.9780006"/>
<path class="st4" d="M-4.2949996,0.8140006c-2.427,3.9960008-0.8370008,6.1979985-2.9940004,7.2239985"/>
<path class="st1" d="M-2.7979994-2.7979994l-0.342001-4.7610011C1.2579999-10.7420006-1.427-12.6230001,1.6870003-13.6430006
	c-2.073,2.2230005,0.6359997,2.1870012-1.7340002,6.9780011"/>
<path class="st4" d="M-2.7979994-2.7979994l-0.342001-4.7610011C1.2579999-10.7420006-1.427-12.6230001,1.6870003-13.6430006
	c-2.073,2.2230005,0.6359997,2.1870012-1.7340002,6.9780011"/>
<path class="st4" d="M-1.3040004-6.4130006c2.4240003-3.9989991,0.8340011-6.1979995,2.9910007-7.2269998"/>
<path class="st1" d="M-2.7979994-2.7979994l4.7579999-0.3390012c3.1799998,4.3980002,5.0609994,1.7160001,6.0809999,4.8270006
	c-2.2199993-2.073-2.1870003,0.6329999-6.9780006-1.737"/>
<path class="st4" d="M-2.7979994-2.7979994l4.7579999-0.3390012c3.1799998,4.3980002,5.0609994,1.7160001,6.0809999,4.8270006
	c-2.2199993-2.073-2.1870003,0.6329999-6.9780006-1.737"/>
<path class="st4" d="M0.8140006-1.3040004c3.9960008,2.4240003,6.1979985,0.8340011,7.2239985,2.9910007"/>
<path class="st1" d="M-2.7979994-2.7979994L-5.927,0.8049998c-5.3550005-0.8579993-4.7880001,2.3699999-7.7159996,0.8850002
	C-10.6070004,1.5850005-12.5450001-0.302-7.4810004-2.0180001"/>
<path class="st4" d="M-2.7979994-2.7979994L-5.927,0.8049998c-5.3550005-0.8579993-4.7880001,2.3699999-7.7159996,0.8850002
	C-10.6070004,1.5850005-12.5450001-0.302-7.4810004-2.0180001"/>
<path class="st4" d="M-6.4130006-1.3040004c-4.5419993,1.1130009-4.9739995,3.7919998-7.2269998,2.9940004"/>
<path class="st1" d="M-2.7979994-2.7979994L0.3280001-6.401c5.3580008,0.8580008,4.7879992-2.3699999,7.7159986-0.8909998
	c-3.0419998,0.1049995-1.1040001,1.9949999-6.1649981,3.711"/>
<path class="st4" d="M-2.7979994-2.7979994L0.3280001-6.401c5.3580008,0.8580008,4.7879992-2.3699999,7.7159986-0.8909998
	c-3.0419998,0.1049995-1.1040001,1.9949999-6.1649981,3.711"/>
<path class="st4" d="M0.8140006-4.2949996C5.3560019-5.407999,5.788002-8.0869999,8.0440016-7.289"/>
<path class="st1" d="M-2.7979994-2.7979994l3.6030006,3.1259995c-0.861002,5.3580008,2.3699985,4.7879992,0.8849988,7.7130003
	C1.5880003,5.0019989-0.3049998,6.9399986-2.0150003,1.8790007"/>
<path class="st4" d="M-2.7979994-2.7979994l3.6030006,3.1259995c-0.861002,5.3580008,2.3699985,4.7879992,0.8849988,7.7130003
	C1.5880003,5.0019989-0.3049998,6.9399986-2.0150003,1.8790007"/>
<path class="st4" d="M-1.3040004,0.8140006c1.1129994,4.5420012,3.789,4.9710002,2.9910007,7.2269998"/>
<polyline class="st1" points="-2.7979994,-2.7979994 -0.6680007,-2.7979994 -2.7979994,8.9350014 -4.9340005,-2.7979994 
	-2.7979994,-2.7979994 -2.7979994,8.9350014 "/>
<polyline class="st4" points="-2.7979994,-2.7979994 -0.6680007,-2.7979994 -2.7979994,8.9350014 -4.9340005,-2.7979994 
	-2.7979994,-2.7979994 -2.7979994,8.9350014 "/>
<polyline class="st1" points="-2.7979994,-2.7979994 -4.9340005,-2.7979994 -2.7979994,-14.5310001 -0.6680007,-2.7979994 
	-2.7979994,-2.7979994 -2.7979994,-14.5310001 "/>
<path d="M-0.5419998-2.6929998h-4.5209999L-5.039-2.8189993l2.2410007-12.309001L-2.6900001-14.552L-0.5419998-2.6929998z
	 M-2.6929998-2.9060001h1.8959999l-1.8959999-10.4400005V-2.9060001z M-4.8049998-2.9060001h1.9019995V-13.349L-4.8049998-2.9060001
	z"/>
<polyline class="st1" points="-2.7979994,-2.7979994 -2.7979994,-0.6680007 -14.5310001,-2.7979994 -2.7979994,-4.9340005 
	-2.7979994,-2.7979994 -14.5310001,-2.7979994 "/>
<polyline class="st4" points="-2.7979994,-2.7979994 -2.7979994,-0.6680007 -14.5310001,-2.7979994 -2.7979994,-4.9340005 
	-2.7979994,-2.7979994 -14.5310001,-2.7979994 "/>
<polyline class="st1" points="-2.7979994,-2.7979994 -2.7979994,-4.9340005 8.9350014,-2.7979994 -2.7979994,-0.6680007 
	-2.7979994,-2.7979994 8.9350014,-2.7979994 "/>
<polyline class="st4" points="-2.7979994,-2.7979994 -2.7979994,-4.9340005 8.9350014,-2.7979994 -2.7979994,-0.6680007 
	-2.7979994,-2.7979994 8.9350014,-2.7979994 "/>
<polyline class="st1" points="-2.7979994,-2.7979994 -1.2919998,-1.2919998 -11.0960007,5.4969988 -4.3070002,-4.3070002 
	-2.7979994,-2.7979994 -11.0960007,5.4969988 "/>
<polyline class="st4" points="-2.7979994,-2.7979994 -1.2919998,-1.2919998 -11.0960007,5.4969988 -4.3070002,-4.3070002 
	-2.7979994,-2.7979994 -11.0960007,5.4969988 "/>
<polyline class="st1" points="-2.7979994,-2.7979994 -4.3070002,-4.3070002 5.4969988,-11.0960007 -1.2919998,-1.2919998 
	-2.7979994,-2.7979994 5.4969988,-11.0960007 "/>
<polyline class="st4" points="-2.7979994,-2.7979994 -4.3070002,-4.3070002 5.4969988,-11.0960007 -1.2919998,-1.2919998 
	-2.7979994,-2.7979994 5.4969988,-11.0960007 "/>
<polyline class="st1" points="-2.7979994,-2.7979994 -1.2919998,-4.3070002 5.4969988,5.4969988 -4.3070002,-1.2919998 
	-2.7979994,-2.7979994 5.4969988,5.4969988 "/>
<polyline class="st4" points="-2.7979994,-2.7979994 -1.2919998,-4.3070002 5.4969988,5.4969988 -4.3070002,-1.2919998 
	-2.7979994,-2.7979994 5.4969988,5.4969988 "/>
<path class="st1" d="M1.1110005-2.7979994c0,2.1600008-1.7520003,3.9119997-3.9119997,3.9119997
	S-6.7130003-0.638-6.7130003-2.7979994S-4.961-6.7100005-2.8010006-6.7100005S1.1110005-4.9580002,1.1110005-2.7979994"/>
<circle class="st4" cx="-2.7979994" cy="-2.7979994" r="3.9119997"/>
<path d="M0.0819993-4.3640003c-0.2519989,0.2850008-0.3929987-0.2160001-1.2809987-0.2160001S-2.2310004-4.0460005-2.3720002-4.151
	c-0.1439996-0.1079993,0.7440004-0.7470002,1.0319996-0.7830005C-1.0549998-4.9699993-0.2420001-4.6849999,0.0819993-4.3640003"/>
<path d="M-0.9530001-4.0430007c0.2520003,0.2130003,0.039,0.6750011-0.2130003,0.6750011s-0.711-0.4260006-0.4979997-0.711"/>
<path d="M-2.1259995-3.7219996c0.0359988-0.4260006,0.3930001-0.4979997,0.9599991-0.4979997
	c0.5700002,0,0.8189993,0.4260006,1.0319996,0.5339999c-0.2490005,0-0.4650006-0.3540001-1.0319996-0.3540001
	c-0.5670004,0-0.5670004,0-0.9600005,0.3540001"/>
<path d="M-2.0180001-3.6170001c0.1409998-0.2130003,0.3179998,0.2130003,0.711,0.2130003s0.6060004-0.1079993,0.8519998-0.2849994
	c0.2490005-0.1799998-0.3540001,0.4260006-0.7470002,0.4260006C-1.5919995-3.263-2.1259995-3.4760003-2.0180001-3.6170001"/>
<path d="M-0.8090005-3.4039998c0.4619994-0.2490005,0.1799998-0.6060004,0-0.6779995
	C-0.7399998-4.0070004-0.4550004-3.6530004-0.8090005-3.4039998"/>
<path d="M-2.7979994-1.2709999c0.2130003,0,0.2849994-0.0720005,0.5700002-0.0720005
	c0.2849994,0,0.9600005,0.3930001,1.3499994,0.2490005c-0.8220005,0.3209996-0.5010009,0.1079993-1.9199996,0.1079993h-0.1799998"/>
<path d="M-0.737-0.7730002c-0.1439996-0.2489991-0.1049995-0.177-0.3900003-0.5670004
	C-0.8419995-1.1270003-0.7730002-1.0219994-0.737-0.7730002"/>
<path d="M-2.7979994-0.4160004c0.8909998,0,0.7470002-0.1799998,1.9199996-0.6779995
	c-0.8549995,0.1079993-1.0349994,0.3930001-1.9199996,0.3930001h-0.1799998"/>
<path d="M-2.7979994-1.7329993c0.2490005,0,0.3209996-0.1799998,0.6060004-0.1799998
	c0.2849994,0,0.6779995,0.1079993,0.8519998,0.2490005c0.0360003,0.0360003-0.1079993-0.2819996-0.3930001-0.3179998
	C-2.0179987-2.0179987-1.9129992-2.4799981-2.230999-2.5519986c0,0.1409998,0.1079993,0.1079993,0.1409998,0.3209996
	c0,0.1799998-0.3209996,0.1799998-0.3930001,0c0.0720005,0.2849994-0.1409998,0.2849994-0.3209996,0.2849994"/>
<path d="M-5.6779995-4.3640003c0.2459993,0.2850008,0.3869991-0.2160001,1.2779989-0.2160001
	s1.0319996,0.5339999,1.1729994,0.4260006S-3.9740014-4.901-4.2590008-4.9370003
	C-4.5410004-4.9699993-5.3599997-4.6849999-5.6779995-4.3640003"/>
<path d="M-4.6489997-4.0430007c-0.2490005,0.2130003-0.0360003,0.6750011,0.2130003,0.6750011s0.711-0.4260006,0.4979997-0.711"/>
<path d="M-3.4760003-3.7219996C-3.5089993-4.151-3.8660007-4.2199993-4.4359994-4.2199993
	c-0.5700002,0-0.8190007,0.4260006-1.0319996,0.5339999c0.2490005,0,0.4650006-0.3540001,1.0319996-0.3540001
	s0.5670004,0,0.9600005,0.3540001"/>
<path d="M-3.5809999-3.6170001c-0.1409998-0.2130003-0.3209996,0.2130003-0.711,0.2130003
	c-0.3930001,0-0.6060004-0.1079993-0.8519998-0.2849994C-5.3959999-3.8660007-4.7930007-3.263-4.4000006-3.263
	S-3.4760003-3.4760003-3.5809999-3.6170001"/>
<path d="M-4.7930007-3.4039998c-0.4619994-0.2490005-0.1799998-0.6060004,0-0.6779995
	C-4.8649998-4.0070004-5.1469994-3.6530004-4.7930007-3.4039998"/>
<path d="M-2.7979994-1.2709999c-0.2130003,0-0.2849994-0.0720005-0.5700002-0.0720005S-4.3280001-0.9500003-4.717999-1.0939999
	c0.8190007,0.3209996,0.4979997,0.1079993,1.9199996,0.1079993h0.1799998"/>
<path d="M-4.862-0.7730002c0.1409998-0.2490005,0.1079993-0.1799998,0.3930001-0.5700002
	C-4.7570004-1.1270003-4.8259997-1.0219994-4.862-0.7730002"/>
<path d="M-2.7979994-0.4160004c-0.8909998,0-0.7470002-0.1799998-1.9199996-0.6779995
	c0.8519998,0.1079993,1.0319996,0.3930001,1.9199996,0.3930001h0.1799998"/>
<path d="M-2.7979994-1.7329993c-0.2490005,0-0.3209996-0.1799998-0.6060004-0.1799998S-4.0789995-1.8049998-4.2559996-1.664
	C-4.2919998-1.6279998-4.151-1.9459996-3.8659992-1.9819999C-3.5809999-2.0180001-3.6859994-2.4799995-3.3679996-2.552
	c0,0.1409998-0.1079993,0.1079993-0.1409998,0.3209996c0,0.1799998,0.3209996,0.1799998,0.3930001,0
	c-0.0750003,0.2850008,0.1379986,0.2850008,0.3179998,0.2850008"/>
<path d="M-2.7979994-0.0980005c-0.1799998,0-0.6389995,0.1079993,0,0.1079993
	C-2.1589999,0.0100002-2.6240005-0.0980005-2.7979994-0.0980005"/>
<path class="st5" d="M10-18.5c15.5999985,0,28.5,12.9000006,28.5,28.5S25.5999985,38.5,10,38.5S-18.5,25.5999985-18.5,10
	S-5.5999994-18.5,10-18.5 M10-20C-6.5-20-20-6.5-20,10s13.5,30,30,30s30-13.5,30-30S26.5-20,10-20L10-20z"/>
</svg>
