<?xml version="1.0" encoding="utf-8"?>
<svg version="1.1" id="Layer_1" xmlns="http://www.w3.org/2000/svg" xmlns:xlink="http://www.w3.org/1999/xlink" x="0px" y="0px"
	 viewBox="-22 -22 64 64" style="enable-background:new 0 0 20 20;" xml:space="preserve">
<style type="text/css">
	.st0{fill:#CE1126;}
	.st1{fill:#FFFFFF;}
	.st2{fill:#1EB53A;}
	.st3{fill:#0099B5;}
	.st4{fill:none;stroke:#E6E6E6;stroke-width:0.15;stroke-miterlimit:10;}
	.st5{fill:#CCCCCC;}
</style>
<path class="st0" d="M36.8440018-0.3679996h-53.6880035C-16.9909992,0.013-17.1350002,0.3939996-17.2670002,0.7839999h54.5339966
	C37.1350021,0.3939996,36.9909973,0.013,36.8440018-0.3679996z"/>
<path class="st0" d="M-16.8439999,20.368h53.6880035c0.1469955-0.3809986,0.2910004-0.7619972,0.4199982-1.1519985h-54.5309982
	C-17.1350002,19.605999-16.9909992,19.9870014-16.8439999,20.368z"/>
<path class="st1" d="M-17.2670002,0.7839999C-18.2479992,3.6820002-18.7999992,6.7719994-18.7999992,10
	s0.552,6.3180008,1.532999,9.2160015h54.5339966C38.2480011,16.3180008,38.8000031,13.2280006,38.8000031,10
	s-0.552002-6.3179998-1.5330009-9.2159996H-17.2670002z"/>
<path class="st2" d="M10,38.8000031c12.2459984,0,22.6800003-7.656002,26.8440018-18.432003h-53.6880035
	C-12.6800003,31.144001-2.2459993,38.8000031,10,38.8000031z"/>
<polygon class="st1" points="-1.5349994,-16.382 -1.5410004,-16.3789997 -1.5200005,-16.382 "/>
<path class="st1" d="M-2.6719999-2.6719999c0.3959999,0,0.7739997-0.0510006,1.1519995-0.1140003
	C-4.7869997-3.3410001-7.2800007-6.164-7.2800007-9.5840006c0-1.8359995,0.7290001-3.4980001,1.8989997-4.7339993
	c-1.4099994,0.8940001-2.7330003,1.908-3.9630008,3.0299997c-0.1409988,0.5459995-0.2399998,1.1129999-0.2399998,1.7039995
	C-9.5840006-5.7650003-6.4879994-2.6719999-2.6719999-2.6719999z"/>
<path class="st3" d="M0.6729994-2.7769995C1.0419998-2.8309999,1.3959999-2.9239988,1.743999-3.0349994L1.4559999-3.2479997
	L0.6729994-2.7769995z"/>
<path class="st3" d="M24.4029999-14.915l-0.2280006,0.1710005l0.2250023,1.1279993l-0.8640022-0.8639994l-0.8639984,0.8639994
	l0.3959999-0.9959993l-0.972002-0.7320004h1.2089996l0.0360012-0.1680002
	c-3.993-2.0910006-8.5229998-3.2879992-13.3409996-3.2879992c-4.1040001,0-8.0009995,0.8729992-11.5350008,2.4179993
	c0.0059996,0,0.0089993,0,0.0150003,0c-0.0059996,0-0.0150003,0-0.0209999,0.0030003
	c-1.3380003,0.5879993-2.6159992,1.2839994-3.8399992,2.0609999c-1.170001,1.2360001-1.8990011,2.8979998-1.8990011,4.7339993
	c0,3.4200006,2.4929996,6.2430005,5.7600002,6.7980003C-1.8980002-2.7230005-2.276-2.6719999-2.6719999-2.6719999
	c-3.8159995,0-6.9119997-3.0930004-6.9119997-6.9119997c0-0.5939999,0.099-1.158,0.2399998-1.7040005
	c-3.2849998,2.9850006-5.8710003,6.7080011-7.5,10.9200001h53.6880035C34.465004-6.5239997,30.0490017-11.6420002,24.4029999-14.915
	z M1.7410007-3.0349994C1.3930001-2.9240003,1.039-2.8339996,0.6699996-2.7769995L0.4959993-2.6719999l0.0360003-0.0900006
	L0.961-3.8330002L0.2080002-4.4000006h0.9210005L1.3599997-5.552l0.4620008,1.1519995h0.9779992L1.9990005-3.7969999
	l0.1290007,0.6450005l0.0960002,0.4799995L1.7410007-3.0349994z M7.9840002-2.6719999L7.0240011-3.2479997L6.2559996-2.6719999
	l0.2249994-1.125L5.6800013-4.4000006h0.9780006L7.1199999-5.552l0.230999,1.1519995h0.9210005L7.5159998-3.836L7.9840002-2.6719999
	z M7.5159998-9.3080006l0.4680004,1.1640005L7.0240011-8.7200003L6.4119997-8.2579994L6.2559996-8.1440001l0.2249994-1.125
	L5.6800013-9.8719997h0.8339996h0.144001l0.461998-1.1520004l0.230999,1.1520004h0.9210005L7.5159998-9.3080006z
	 M13.4560013-2.6719999L12.592001-3.3200002l-0.8640003,0.6480002l0.2249994-1.125l-0.8010006-0.6030006h0.9780006L12.592001-5.552
	L12.823-4.4000006h1.2089996l-0.9749994,0.7319999L13.4560013-2.6719999z M13.0600014-9.1400003l0.3959999,0.9960003
	L12.592001-8.7920008l-0.8640003,0.6480007l0.2249994-1.125l-0.8010006-0.6029997h0.9780006l0.4620008-1.1520004L12.823-9.8719997
	h1.2089996L13.0600014-9.1400003z M13.0600014-14.6119995l0.3959999,0.9959993l-0.8640003-0.8639994l-0.8640003,0.8639994
	l0.2249994-1.125l-0.8010006-0.6029997h0.9780006l0.4620008-1.1520004L12.823-15.3439999h1.2089996L13.0600014-14.6119995z
	 M18.9279995-2.6719999l-0.8640003-0.6480002l-0.8640003,0.6480002l0.3959999-0.9959993l-0.9719982-0.7320013h0.9780006
	L18.064003-5.552l0.461998,1.1519995h0.9780006l-0.972002,0.7319999L18.9279995-2.6719999z M18.5319996-9.1400003
	l0.3959999,0.9960003l-0.8640003-0.6480007l-0.8640003,0.6480007l0.3959999-0.9960003l-0.972002-0.7319994h0.9780006
	l0.4620018-1.1520004l0.4620018,1.1520004h0.9780006L18.5319996-9.1400003z M18.5319996-14.6119995l0.3959999,0.9959993
	l-0.8640003-0.8639994l-0.8640003,0.8639994l0.3959999-0.9959993l-0.972002-0.7320004h0.9780006l0.4620018-1.1520004
	l0.4620018,1.1520004h0.9780006L18.5319996-14.6119995z M24.4000015-2.6719999l-0.8640022-0.6480002l-0.8639984,0.6480002
	l0.3959999-0.9959993l-0.972002-0.7320013h1.2089996L23.5359974-5.552l0.4620037,1.1519995h0.9780006l-0.8010006,0.6030006
	L24.4000015-2.6719999z M24.1750011-9.2690001l0.2250004,1.125l-0.8640022-0.6480007l-0.8639984,0.6480007l0.3959999-0.9960003
	l-0.972002-0.7319994h1.2089996l0.230999-1.1520004l0.4619999,1.1520004h0.9780006L24.1750011-9.2690001z"/>
<polygon class="st1" points="1.3599997,-5.552 1.1290007,-4.4000006 1.3599997,-4.4000006 "/>
<polygon class="st1" points="1.6480002,-4.4000006 1.8220005,-4.4000006 1.3599997,-5.552 1.3599997,-4.4000006 "/>
<polygon class="st1" points="1.6480002,-4.1690001 2.7999997,-4.4000006 1.8220005,-4.4000006 1.6480002,-4.4000006 "/>
<polygon class="st1" points="1.6480002,-4.1690001 1.6480002,-4.112 1.6840005,-4.0280004 1.9359994,-4.112 1.9990005,-3.7969999 
	2.7999997,-4.4000006 "/>
<polygon class="st1" points="0.2080002,-4.4000006 0.9639997,-3.836 0.9970002,-3.9260006 "/>
<polygon class="st1" points="1.0720005,-4.112 1.2940001,-4.0040007 1.3599997,-4.112 1.5040007,-3.9680004 1.6480002,-4.112 
	1.6480002,-4.1690001 1.6480002,-4.4000006 1.3599997,-4.4000006 1.1290007,-4.4000006 0.2080002,-4.4000006 0.9970002,-3.9260006 
	"/>
<polygon class="st1" points="1.9359994,-4.112 1.6840005,-4.0280004 1.8400006,-3.6320004 1.9359994,-3.5360003 
	1.8909998,-3.5059996 2.224,-2.6719999 2.125,-3.1550007 1.9990005,-3.7969999 "/>
<polygon class="st1" points="1.5040007,-3.9680004 1.8400006,-3.6320004 1.6840005,-4.0280004 1.6480002,-4.112 "/>
<polygon class="st1" points="1.8909998,-3.5059996 1.4559999,-3.2479997 1.7410007,-3.0349994 2.224,-2.6719999 "/>
<polygon class="st1" points="1.8909998,-3.5059996 1.9359994,-3.5360003 1.8400006,-3.6320004 1.5040007,-3.9680004 
	1.3599997,-4.112 1.2940001,-4.0040007 1.6480002,-3.8239994 0.4959993,-2.6719999 0.6729994,-2.7769995 1.4559999,-3.2479997 "/>
<polygon class="st1" points="1.6480002,-3.8239994 1.2940001,-4.0040007 1.0720005,-4.112 0.9970002,-3.9260006 0.9639997,-3.836 
	0.5319996,-2.7650003 0.4959993,-2.6719999 "/>
<polygon class="st1" points="6.9279995,-4.4000006 7.1199999,-5.552 6.657999,-4.4000006 6.8320007,-4.4000006 "/>
<polygon class="st1" points="7.1199999,-4.4000006 7.3509989,-4.4000006 7.1199999,-5.552 6.9279995,-4.4000006 "/>
<polygon class="st1" points="7.1199999,-4.1690001 8.2719994,-4.4000006 7.3509989,-4.4000006 7.1199999,-4.4000006 "/>
<polygon class="st1" points="7.1199999,-4.1690001 7.1199999,-4.112 7.1860008,-4.0040007 7.407999,-4.112 7.5159998,-3.836 
	8.2719994,-4.4000006 "/>
<polygon class="st1" points="5.6800013,-4.4000006 6.480999,-3.7969999 6.5050001,-3.9080005 "/>
<polygon class="st1" points="6.5439987,-4.112 6.7960005,-4.0280004 6.8320007,-4.112 6.9759989,-3.9680004 7.1199999,-4.112 
	7.1199999,-4.1690001 7.1199999,-4.4000006 6.9279995,-4.4000006 6.8320007,-4.4000006 6.657999,-4.4000006 5.6800013,-4.4000006 
	6.5050001,-3.9080005 "/>
<polygon class="st1" points="7.407999,-4.112 7.1860008,-4.0040007 7.2640009,-3.8720002 7.407999,-3.8239994 7.3360014,-3.7520003 
	7.9840002,-2.6719999 7.5159998,-3.836 "/>
<polygon class="st1" points="6.9759989,-3.9680004 7.2640009,-3.8720002 7.1860008,-4.0040007 7.1199999,-4.112 "/>
<polygon class="st1" points="7.3360014,-3.7520003 7.2640009,-3.6799998 7.407999,-3.5360003 7.0240011,-3.2479997 
	7.9840002,-2.6719999 "/>
<polygon class="st1" points="6.8320007,-4.112 6.7960005,-4.0280004 6.9759989,-3.9680004 6.9759989,-3.9680004 "/>
<polygon class="st1" points="7.407999,-3.5360003 7.2640009,-3.6799998 6.2559996,-2.6719999 7.0240011,-3.2479997 "/>
<polygon class="st1" points="7.2640009,-3.6799998 7.3360014,-3.7520003 7.407999,-3.8239994 7.2640009,-3.8720002 
	6.9759989,-3.9680004 6.7960005,-4.0280004 6.5439987,-4.112 6.5050001,-3.9080005 6.480999,-3.7969999 6.2559996,-2.6719999 "/>
<polygon class="st1" points="12.592001,-5.552 12.1300001,-4.4000006 12.4000006,-4.4000006 "/>
<polygon class="st1" points="12.592001,-4.4000006 12.823,-4.4000006 12.592001,-5.552 12.4000006,-4.4000006 "/>
<polygon class="st1" points="12.592001,-4.4000006 12.592001,-4.1599994 14.0319996,-4.4000006 12.823,-4.4000006 "/>
<polygon class="st1" points="12.592001,-4.1599994 12.592001,-4.1599994 12.8800001,-4.112 13.0600014,-3.6680007 
	14.0319996,-4.4000006 "/>
<polygon class="st1" points="11.1519995,-4.4000006 11.9530001,-3.7969999 11.9770012,-3.9080005 "/>
<polygon class="st1" points="12.657999,-4.0040007 12.8800001,-4.112 12.592001,-4.1599994 12.592001,-4.112 "/>
<polygon class="st1" points="12.0159998,-4.112 12.2679987,-4.0280004 12.3039989,-4.112 12.448,-3.9680004 12.5080013,-3.9470005 
	12.592001,-4.112 12.592001,-4.1599994 12.592001,-4.1599994 12.592001,-4.4000006 12.4000006,-4.4000006 12.1300001,-4.4000006 
	11.1519995,-4.4000006 11.9770012,-3.9080005 "/>
<polygon class="st1" points="12.8800001,-4.112 12.657999,-4.0040007 12.7359991,-3.8720002 12.8800001,-3.8239994 
	12.8079996,-3.7520003 13.4560013,-2.6719999 13.0600014,-3.6680007 "/>
<polygon class="st1" points="12.5080013,-3.9470005 12.7359991,-3.8720002 12.657999,-4.0040007 12.592001,-4.112 "/>
<polygon class="st1" points="12.8079996,-3.7520003 12.7359991,-3.6799998 12.8800001,-3.5360003 12.592001,-3.3200002 
	13.4560013,-2.6719999 "/>
<polygon class="st1" points="12.3039989,-4.112 12.2679987,-4.0280004 12.448,-3.9680004 "/>
<polygon class="st1" points="12.8800001,-3.5360003 12.7359991,-3.6799998 11.7280006,-2.6719999 12.592001,-3.3200002 "/>
<polygon class="st1" points="12.7359991,-3.6799998 12.8079996,-3.7520003 12.8800001,-3.8239994 12.7359991,-3.8720002 
	12.5080013,-3.9470005 12.448,-3.9680004 12.2679987,-4.0280004 12.0159998,-4.112 11.9770012,-3.9080005 11.9530001,-3.7969999 
	11.7280006,-2.6719999 "/>
<polygon class="st1" points="18.0639992,-5.552 17.6020012,-4.4000006 17.8719978,-4.4000006 "/>
<polygon class="st1" points="18.0639992,-4.4000006 18.526001,-4.4000006 18.0639992,-5.552 17.8719978,-4.4000006 "/>
<polygon class="st1" points="18.0639992,-4.4000006 18.0639992,-4.1599994 18.0639992,-4.1599994 19.5040016,-4.4000006 
	18.526001,-4.4000006 "/>
<polygon class="st1" points="18.0639992,-4.1599994 18.3520012,-4.112 18.5319996,-3.6680007 19.5040016,-4.4000006 "/>
<polygon class="st1" points="16.6240005,-4.4000006 17.5959988,-3.6680007 17.6469994,-3.7880006 "/>
<polygon class="st1" points="18.0639992,-4.112 18.1300011,-4.0040007 18.3520012,-4.112 18.0639992,-4.1599994 
	18.0639992,-4.1599994 "/>
<polygon class="st1" points="17.776001,-4.112 17.9980011,-4.0040007 18.0639992,-4.112 18.0639992,-4.1599994 
	18.0639992,-4.4000006 17.8719978,-4.4000006 17.6020012,-4.4000006 16.6240005,-4.4000006 17.6469994,-3.7880006 "/>
<polygon class="st1" points="18.3520012,-4.112 18.1300011,-4.0040007 18.1870003,-3.9080005 18.3520012,-3.8239994 
	18.2800007,-3.7520003 18.9279995,-2.6719999 18.5319996,-3.6680007 "/>
<polygon class="st1" points="18.1599998,-3.9199996 18.1870003,-3.9080005 18.1300011,-4.0040007 18.0639992,-4.112 "/>
<polygon class="st1" points="18.2800007,-3.7520003 18.2560005,-3.7280006 18.3520012,-3.5360003 18.0639992,-3.3200002 
	18.9279995,-2.6719999 "/>
<polygon class="st1" points="18.3520012,-3.5360003 18.2560005,-3.7280006 17.1999989,-2.6719999 18.0639992,-3.3200002 "/>
<polygon class="st1" points="18.0639992,-4.112 17.9980011,-4.0040007 18.1599998,-3.9199996 "/>
<polygon class="st1" points="18.2560005,-3.7280006 18.2800007,-3.7520003 18.3520012,-3.8239994 18.1870003,-3.9080005 
	18.1599998,-3.9199996 17.9980011,-4.0040007 17.776001,-4.112 17.6469994,-3.7880006 17.5959988,-3.6680007 17.1999989,-2.6719999 
	"/>
<polygon class="st1" points="23.5359993,-5.552 23.3050003,-4.4000006 23.3439999,-4.4000006 "/>
<polygon class="st1" points="23.5359993,-4.4000006 23.9980011,-4.4000006 23.5359993,-5.552 23.3439999,-4.4000006 "/>
<polygon class="st1" points="23.5359993,-4.4000006 23.5359993,-4.1599994 24.9759979,-4.4000006 23.9980011,-4.4000006 "/>
<polygon class="st1" points="23.5359993,-4.1599994 23.5359993,-4.1599994 23.8239994,-4.112 23.8600006,-4.0280004 
	24.1120014,-4.112 24.1750011,-3.7969999 24.9759979,-4.4000006 "/>
<polygon class="st1" points="22.0959988,-4.4000006 23.0680008,-3.6680007 23.1189995,-3.7880006 "/>
<polygon class="st1" points="23.6199989,-3.9470005 23.6800003,-3.9680004 23.8239994,-4.112 23.5359993,-4.1599994 
	23.5359993,-4.112 "/>
<polygon class="st1" points="23.2480011,-4.112 23.4699993,-4.0040007 23.5359993,-4.112 23.5359993,-4.1599994 
	23.5359993,-4.1599994 23.5359993,-4.4000006 23.3439999,-4.4000006 23.3050003,-4.4000006 22.0959988,-4.4000006 
	23.1189995,-3.7880006 "/>
<polygon class="st1" points="24.1120014,-4.112 23.8600006,-4.0280004 24.4000015,-2.6719999 24.1750011,-3.7969999 "/>
<polygon class="st1" points="23.632,-3.9199996 23.6800003,-3.9680004 23.6199989,-3.9470005 "/>
<polygon class="st1" points="23.8600006,-4.0280004 23.8239994,-4.112 23.6800003,-3.9680004 23.632,-3.9199996 23.632,-3.9199996 
	23.8239994,-3.8239994 23.7280006,-3.7280006 23.8239994,-3.5360003 23.5359993,-3.3200002 24.4000015,-2.6719999 "/>
<polygon class="st1" points="23.5359993,-4.112 23.4699993,-4.0040007 23.632,-3.9199996 23.632,-3.9199996 23.6199989,-3.9470005 
	"/>
<polygon class="st1" points="23.8239994,-3.5360003 23.7280006,-3.7280006 22.6720009,-2.6719999 23.5359993,-3.3200002 "/>
<polygon class="st1" points="23.7280006,-3.7280006 23.8239994,-3.8239994 23.632,-3.9199996 23.4699993,-4.0040007 
	23.2480011,-4.112 23.1189995,-3.7880006 23.0680008,-3.6680007 22.6720009,-2.6719999 "/>
<polygon class="st1" points="6.9279995,-9.8719997 7.1199999,-11.0240002 6.657999,-9.8719997 6.8320007,-9.8719997 "/>
<polygon class="st1" points="7.1199999,-9.8719997 7.3509989,-9.8719997 7.1199999,-11.0240002 6.9279995,-9.8719997 "/>
<polygon class="st1" points="7.1199999,-9.6409998 8.2719994,-9.8719997 7.3509989,-9.8719997 7.1199999,-9.8719997 "/>
<polygon class="st1" points="7.1199999,-9.6409998 7.1199999,-9.5840006 7.1860008,-9.4759998 7.407999,-9.5840006 
	7.5159998,-9.3080006 8.2719994,-9.8719997 "/>
<polygon class="st1" points="5.6800013,-9.8719997 6.480999,-9.2690001 6.5050001,-9.3800001 "/>
<polygon class="st1" points="6.5050001,-9.3800001 6.5439987,-9.5840006 6.7960005,-9.5 6.8320007,-9.5840006 6.9759989,-9.4400005 
	7.1199999,-9.5840006 7.1199999,-9.6409998 7.1199999,-9.8719997 6.9279995,-9.8719997 6.8320007,-9.8719997 6.657999,-9.8719997 
	6.5140009,-9.8719997 5.6800013,-9.8719997 "/>
<polygon class="st1" points="7.407999,-9.5840006 7.1860008,-9.4759998 7.2640009,-9.3439999 7.407999,-9.2959995 7.3360014,-9.224 
	7.9840002,-8.1440001 7.5159998,-9.3080006 "/>
<polygon class="st1" points="7.2640009,-9.3439999 7.1860008,-9.4759998 7.1199999,-9.5840006 6.9759989,-9.4400005 "/>
<polygon class="st1" points="7.3360014,-9.224 7.2640009,-9.1520004 7.407999,-9.0079994 7.0240011,-8.7200003 
	7.9840002,-8.1440001 "/>
<polygon class="st1" points="6.9759989,-9.4400005 6.8320007,-9.5840006 6.7960005,-9.5 "/>
<polygon class="st1" points="7.407999,-9.0079994 7.2640009,-9.1520004 6.2559996,-8.1440001 6.4119997,-8.2579994 
	7.0240011,-8.7200003 "/>
<polygon class="st1" points="7.2640009,-9.1520004 7.3360014,-9.224 7.407999,-9.2959995 7.2640009,-9.3439999 
	6.9759989,-9.4400005 6.7960005,-9.5 6.5439987,-9.5840006 6.5050001,-9.3800001 6.480999,-9.2690001 6.2559996,-8.1440001 "/>
<polygon class="st1" points="12.592001,-11.0240002 12.1300001,-9.8719997 12.4000006,-9.8719997 "/>
<polygon class="st1" points="12.592001,-9.8719997 12.823,-9.8719997 12.592001,-11.0240002 12.4000006,-9.8719997 "/>
<polygon class="st1" points="12.592001,-9.8719997 12.592001,-9.632 14.0319996,-9.8719997 12.823,-9.8719997 "/>
<polygon class="st1" points="12.592001,-9.632 12.592001,-9.632 12.8800001,-9.5840006 13.0600014,-9.1400003 
	14.0319996,-9.8719997 "/>
<polygon class="st1" points="11.1519995,-9.8719997 11.9530001,-9.2690001 11.9770012,-9.3800001 "/>
<polygon class="st1" points="12.657999,-9.4759998 12.8800001,-9.5840006 12.592001,-9.632 12.592001,-9.5840006 "/>
<polygon class="st1" points="12.0159998,-9.5840006 12.2679987,-9.5 12.3039989,-9.5840006 12.448,-9.4400005 
	12.5080013,-9.4190006 12.592001,-9.5840006 12.592001,-9.632 12.592001,-9.632 12.592001,-9.8719997 12.4000006,-9.8719997 
	12.1300001,-9.8719997 11.1519995,-9.8719997 11.9770012,-9.3800001 "/>
<polygon class="st1" points="12.8800001,-9.5840006 12.657999,-9.4759998 12.7359991,-9.3439999 12.8800001,-9.2959995 
	12.8079996,-9.224 13.4560013,-8.1440001 13.0600014,-9.1400003 "/>
<polygon class="st1" points="12.5080013,-9.4190006 12.7359991,-9.3439999 12.657999,-9.4759998 12.592001,-9.5840006 "/>
<polygon class="st1" points="12.8079996,-9.224 12.7359991,-9.1520004 12.8800001,-9.0079994 12.592001,-8.7919998 
	13.4560013,-8.1440001 "/>
<polygon class="st1" points="12.3039989,-9.5840006 12.2679987,-9.5 12.448,-9.4400005 "/>
<polygon class="st1" points="12.8800001,-9.0079994 12.7359991,-9.1520004 11.7280006,-8.1440001 12.592001,-8.7919998 "/>
<polygon class="st1" points="12.7359991,-9.1520004 12.8079996,-9.224 12.8800001,-9.2959995 12.7359991,-9.3439999 
	12.5080013,-9.4190006 12.448,-9.4400005 12.2679987,-9.5 12.0159998,-9.5840006 11.9770012,-9.3800001 11.9530001,-9.2690001 
	11.7280006,-8.1440001 "/>
<polygon class="st1" points="18.0639992,-11.0240002 17.6020012,-9.8719997 17.8719978,-9.8719997 "/>
<polygon class="st1" points="18.0639992,-9.8719997 18.526001,-9.8719997 18.0639992,-11.0240002 17.8719978,-9.8719997 "/>
<polygon class="st1" points="18.0639992,-9.8719997 18.0639992,-9.632 18.0639992,-9.632 19.5040016,-9.8719997 
	18.526001,-9.8719997 "/>
<polygon class="st1" points="18.0639992,-9.632 18.3520012,-9.5840006 18.5319996,-9.1400003 19.5040016,-9.8719997 "/>
<polygon class="st1" points="16.6240005,-9.8719997 17.5959988,-9.1400003 17.6469994,-9.2600002 "/>
<polygon class="st1" points="18.0639992,-9.5840006 18.1300011,-9.4759998 18.3520012,-9.5840006 18.0639992,-9.632 
	18.0639992,-9.632 "/>
<polygon class="st1" points="17.776001,-9.5840006 17.9980011,-9.4759998 18.0639992,-9.5840006 18.0639992,-9.632 
	18.0639992,-9.8719997 17.8719978,-9.8719997 17.6020012,-9.8719997 16.6240005,-9.8719997 17.6469994,-9.2600002 "/>
<polygon class="st1" points="18.3520012,-9.5840006 18.1300011,-9.4759998 18.1870003,-9.3800001 18.3520012,-9.2959995 
	18.2800007,-9.224 18.9279995,-8.1440001 18.5319996,-9.1400003 "/>
<polygon class="st1" points="18.1599998,-9.3920002 18.1870003,-9.3800001 18.1300011,-9.4759998 18.0639992,-9.5840006 "/>
<polygon class="st1" points="18.2800007,-9.224 18.2560005,-9.2000008 18.3520012,-9.0079994 18.0639992,-8.7919998 
	18.9279995,-8.1440001 "/>
<polygon class="st1" points="18.3520012,-9.0079994 18.2560005,-9.2000008 17.1999989,-8.1440001 18.0639992,-8.7919998 "/>
<polygon class="st1" points="18.0639992,-9.5840006 17.9980011,-9.4759998 18.1599998,-9.3920002 "/>
<polygon class="st1" points="18.2560005,-9.2000008 18.2800007,-9.224 18.3520012,-9.2959995 18.1870003,-9.3800001 
	18.1599998,-9.3920002 17.9980011,-9.4759998 17.776001,-9.5840006 17.6469994,-9.2600002 17.5959988,-9.1400003 
	17.1999989,-8.1440001 "/>
<polygon class="st1" points="23.5359993,-11.0240002 23.3050003,-9.8719997 23.3439999,-9.8719997 "/>
<polygon class="st1" points="23.5359993,-9.8719997 23.9980011,-9.8719997 23.5359993,-11.0240002 23.3439999,-9.8719997 "/>
<polygon class="st1" points="23.5359993,-9.8719997 23.5359993,-9.632 24.9759979,-9.8719997 23.9980011,-9.8719997 "/>
<polygon class="st1" points="23.5359993,-9.632 23.5359993,-9.632 23.8239994,-9.5840006 23.8600006,-9.5 24.1120014,-9.5840006 
	24.1750011,-9.2690001 24.9759979,-9.8719997 "/>
<polygon class="st1" points="22.0959988,-9.8719997 23.0680008,-9.1400003 23.1189995,-9.2600002 "/>
<polygon class="st1" points="23.6199989,-9.4190006 23.6800003,-9.4400005 23.8239994,-9.5840006 23.5359993,-9.632 
	23.5359993,-9.5840006 "/>
<polygon class="st1" points="23.2480011,-9.5840006 23.4699993,-9.4759998 23.5359993,-9.5840006 23.5359993,-9.632 
	23.5359993,-9.632 23.5359993,-9.8719997 23.3439999,-9.8719997 23.3050003,-9.8719997 22.0959988,-9.8719997 
	23.1189995,-9.2600002 "/>
<polygon class="st1" points="24.1120014,-9.5840006 23.8600006,-9.5 24.4000015,-8.1440001 24.1750011,-9.2690001 "/>
<polygon class="st1" points="23.632,-9.3920002 23.6800003,-9.4400005 23.6199989,-9.4190006 "/>
<polygon class="st1" points="23.8600006,-9.5 23.8239994,-9.5840006 23.6800003,-9.4400005 23.632,-9.3920002 
	23.8239994,-9.2959995 23.7280006,-9.2000008 23.8239994,-9.0079994 23.5359993,-8.7919998 24.4000015,-8.1440001 "/>
<polygon class="st1" points="23.5359993,-9.5840006 23.4699993,-9.4759998 23.632,-9.3920002 23.6199989,-9.4190006 "/>
<polygon class="st1" points="23.8239994,-9.0079994 23.7280006,-9.2000008 22.6720009,-8.1440001 23.5359993,-8.7919998 "/>
<polygon class="st1" points="23.7280006,-9.2000008 23.8239994,-9.2959995 23.632,-9.3920002 23.4699993,-9.4759998 
	23.2480011,-9.5840006 23.1189995,-9.2600002 23.0680008,-9.1400003 22.6720009,-8.1440001 "/>
<polygon class="st1" points="12.4000006,-15.3439999 12.592001,-16.4960003 12.1300001,-15.3439999 12.3039989,-15.3439999 "/>
<polygon class="st1" points="12.592001,-15.3439999 12.823,-15.3439999 12.592001,-16.4960003 12.4000006,-15.3439999 "/>
<polygon class="st1" points="12.592001,-15.3439999 12.6999989,-15.1219997 14.0319996,-15.3439999 12.823,-15.3439999 "/>
<polygon class="st1" points="12.6999989,-15.1219997 12.7209988,-15.0830002 12.8800001,-15.0559998 13.0600014,-14.6119995 
	14.0319996,-15.3439999 "/>
<polygon class="st1" points="11.1519995,-15.3439999 11.9530001,-14.7410002 12.0040007,-15.0019999 "/>
<polygon class="st1" points="12.8800001,-15.0559998 12.7209988,-15.0830002 12.7359991,-15.0559998 "/>
<polygon class="st1" points="12.3039989,-15.3439999 12.4959993,-15.1519995 12.592001,-15.3439999 12.4000006,-15.3439999 "/>
<polygon class="st1" points="12.0159998,-15.0559998 12.2080002,-15.0559998 12.3039989,-15.3439999 12.1300001,-15.3439999 
	11.1519995,-15.3439999 12.0040007,-15.0019999 "/>
<polygon class="st1" points="12.8800001,-15.0559998 12.7900009,-14.948 13.4560013,-13.6160002 13.0600014,-14.6119995 "/>
<polygon class="st1" points="12.592001,-15.0559998 12.7359991,-15.0559998 12.7209988,-15.0830002 12.6999989,-15.1219997 
	12.592001,-15.3439999 12.4959993,-15.1519995 "/>
<polygon class="st1" points="12.7900009,-14.948 12.7540007,-14.8940001 12.8800001,-14.7679996 12.592001,-14.4799995 
	13.4560013,-13.6160002 "/>
<polygon class="st1" points="12.4959993,-15.1519995 12.3039989,-15.3439999 12.2080002,-15.0559998 12.3039989,-15.0559998 
	12.592001,-15.0559998 "/>
<polygon class="st1" points="12.8800001,-14.7679996 12.7540007,-14.8940001 11.7280006,-13.6160002 12.592001,-14.4799995 "/>
<polygon class="st1" points="12.7540007,-14.8940001 12.7900009,-14.948 12.8800001,-15.0559998 12.7359991,-15.0559998 
	12.592001,-15.0559998 12.3039989,-15.0559998 12.2080002,-15.0559998 12.0159998,-15.0559998 12.0040007,-15.0019999 
	11.9530001,-14.7410002 11.7280006,-13.6160002 "/>
<polygon class="st1" points="18.0639992,-16.4960003 17.6020012,-15.3439999 17.8719978,-15.3439999 "/>
<polygon class="st1" points="18.0639992,-15.3439999 18.526001,-15.3439999 18.0639992,-16.4960003 17.8719978,-15.3439999 "/>
<polygon class="st1" points="18.0639992,-15.3439999 18.1720009,-15.1219997 19.5040016,-15.3439999 18.526001,-15.3439999 "/>
<polygon class="st1" points="18.1720009,-15.1219997 18.1930008,-15.0830002 18.3520012,-15.0559998 18.5319996,-14.6119995 
	19.5040016,-15.3439999 "/>
<polygon class="st1" points="16.6240005,-15.3439999 17.5959988,-14.6119995 17.7159996,-14.9060001 "/>
<polygon class="st1" points="18.3520012,-15.0559998 18.1930008,-15.0830002 18.2080002,-15.0559998 "/>
<polygon class="st1" points="17.776001,-15.0559998 17.920002,-15.0559998 18.0639992,-15.3439999 17.8719978,-15.3439999 
	17.6020012,-15.3439999 16.6240005,-15.3439999 17.7159996,-14.9060001 "/>
<polygon class="st1" points="18.3520012,-15.0559998 18.2619991,-14.948 18.3520012,-14.7679996 18.3520012,-14.7679996 
	18.9279995,-13.6160002 18.5319996,-14.6119995 "/>
<polygon class="st1" points="18.3520012,-14.7679996 18.0639992,-14.4799995 18.9279995,-13.6160002 "/>
<polygon class="st1" points="17.920002,-15.0559998 18.2080002,-15.0559998 18.1930008,-15.0830002 18.1720009,-15.1219997 
	18.0639992,-15.3439999 "/>
<polygon class="st1" points="18.3520012,-14.7679996 18.3520012,-14.7679996 18.2619991,-14.948 17.1999989,-13.6160002 
	18.0639992,-14.4799995 "/>
<polygon class="st1" points="18.2619991,-14.948 18.3520012,-15.0559998 18.2080002,-15.0559998 17.920002,-15.0559998 
	17.776001,-15.0559998 17.7159996,-14.9060001 17.5959988,-14.6119995 17.1999989,-13.6160002 "/>
<polygon class="st1" points="23.3439999,-15.3439999 23.368,-15.4969997 23.3409996,-15.5120001 23.3050003,-15.3439999 "/>
<path class="st1" d="M23.5359993-15.3439999h0.1500015c-0.1049995-0.0539999-0.2130013-0.099-0.3180008-0.1529999
	l-0.0269985,0.1529999H23.5359993z"/>
<path class="st1" d="M23.9709988-15.1759996c-0.0389996-0.0240002-0.0749989-0.0510006-0.1109982-0.0690002l0.0299988,0.0839996
	L23.9709988-15.1759996z"/>
<path class="st1" d="M23.632-15.1519995l0.144001-0.1440001c-0.0300026-0.0180006-0.0600014-0.033-0.0900002-0.0480003h-0.1500015
	L23.632-15.1519995z"/>
<path class="st1" d="M23.920002-15.0559998h0.1919994l0.0629997,0.3149996l0.2280006-0.1709995
	C24.2560024-14.9960003,24.118-15.092,23.9710007-15.1730003L23.8840008-15.158L23.920002-15.0559998z"/>
<polygon class="st1" points="22.0959988,-15.3439999 23.0680008,-14.6119995 23.1879997,-14.9060001 "/>
<polygon class="st1" points="23.2480011,-15.0559998 23.3919983,-15.0559998 23.5359993,-15.3439999 23.3439999,-15.3439999 
	23.3050003,-15.3439999 22.0959988,-15.3439999 23.1879997,-14.9060001 "/>
<polygon class="st1" points="24.1120014,-15.0559998 23.920002,-15.0559998 24.4000015,-13.6160002 24.1750011,-14.7410002 "/>
<path class="st1" d="M23.632-15.1519995l0.0479984,0.0959997h0.144001L23.7340012-14.948l0.0899982,0.1800003l-0.2880001,0.2880001
	l0.8640022,0.8639994l-0.4799995-1.4399996l-0.0360012-0.1079998l-0.0300007-0.0840006
	c-0.0300007-0.0150003-0.0539989-0.0360003-0.0810013-0.0480003L23.632-15.1519995z"/>
<polygon class="st1" points="23.3919983,-15.0559998 23.6800003,-15.0559998 23.632,-15.1519995 23.5359993,-15.3439999 "/>
<polygon class="st1" points="23.8239994,-14.7679996 23.7340012,-14.948 22.6720009,-13.6160002 23.5359993,-14.4799995 "/>
<polygon class="st1" points="23.7340012,-14.948 23.8239994,-15.0559998 23.6800003,-15.0559998 23.3919983,-15.0559998 
	23.2480011,-15.0559998 23.1879997,-14.9060001 23.0680008,-14.6119995 22.6720009,-13.6160002 "/>
<circle class="st4" cx="10" cy="10" r="28.8000011"/>
<path class="st5" d="M10-18.5c15.5999985,0,28.5,12.9000006,28.5,28.5S25.5999985,38.5,10,38.5S-18.5,25.5999985-18.5,10
	S-5.5999994-18.5,10-18.5 M10-20C-6.5-20-20-6.5-20,10s13.5,30,30,30s30-13.5,30-30S26.5-20,10-20L10-20z"/>
</svg>
