<?xml version="1.0" encoding="utf-8"?>
<svg version="1.1" id="Layer_1" xmlns="http://www.w3.org/2000/svg" xmlns:xlink="http://www.w3.org/1999/xlink" x="0px" y="0px"
	 viewBox="-22 -22 64 64" style="enable-background:new 0 0 20 20;" xml:space="preserve">
<style type="text/css">
	.st0{fill:#F7D117;}
	.st1{fill:#0033AB;}
	.st2{fill:#CF142B;}
	.st3{fill:#FFFFFF;}
	.st4{fill:#CCCCCC;}
</style>
<g>
	<path class="st0" d="M10-18.7999992c-12.5699997,0-23.2290001,8.0669994-27.1619987,19.2959995h54.3240013
		C33.2290001-10.7329998,22.5699997-18.7999992,10-18.7999992z"/>
	<path class="st1" d="M37.1620026,0.4959993h-54.3240051C-18.2029991,3.4780006-18.7999992,6.6639986-18.7999992,10
		s0.5970001,6.5219994,1.6379986,9.5040016h54.3239975C38.2029953,16.5219994,38.8000031,13.3360014,38.8000031,10
		S38.2029953,3.4780006,37.1620026,0.4959993z M-4.6879997,18.0639992l-1.7160001-1.3740005l-1.7399993,1.0859985
		l0.7349992-1.8900003l-1.5989995-1.2779989l2.0519996,0.1080008l0.8280001-2.1240005l0.5789995,2.1960011l2.013,0.1080008
		l-1.7039995,1.0650015L-4.6879997,18.0639992z M-2.6719999,13.1679993l-1.0410004-1.6619997L-5.552,12.0159998l1.2119994-1.5150003
		L-5.552,8.5600014l2.1090002,0.8220005l1.3469996-1.6860008l-0.2249994,2.1239977l1.9530001,0.7559996l-2.0939999,0.5820007
		L-2.6719999,13.1679993z M1.0720005,9.4239988L0.6339993,7.3480005l-2.1539998-0.2280006L0.3759995,6.118001l-0.4559999-2.1660004
		l1.6500006,1.532999l1.8059993-0.9570007L2.5150003,6.3609991l1.4370003,1.3349991L1.9810004,7.4890003L1.0720005,9.4239988z
		 M9.1359997,6.5439987L7.1020012,5.5870008l-1.4219999,1.532999l0.3239994-2.052L4.2399998,4.2399998L6.204999,3.802
		l0.3389997-2.1539998l0.9840002,1.8599997l1.8959999-0.4199996L8.0770006,4.5400009L9.1359997,6.5439987z M14.3199987,7.1199999
		l-1.4219999-1.532999l-2.0339985,0.9570007l1.0589991-2.0040007l-1.3470011-1.4520006l1.8959999,0.4199996l0.9840002-1.8599997
		L13.7949982,3.802l1.9650021,0.4379997l-1.7640009,0.8280001L14.3199987,7.1199999z M16.0480003,7.6960011l1.4370003-1.3349991
		l-0.8610001-1.8330002l1.8059998,0.9570007l1.6500015-1.5330005L19.6240005,6.118001l1.8959999,1.0019989l-2.1540012,0.2280006
		l-0.4379997,2.0760012l-0.9090023-1.9350014L16.0480003,7.6960011z M20.368,10.5760012l1.953001-0.7559996l-0.2250004-2.1240005
		l1.347002,1.6860008l2.1089993-0.8220005l-1.2119999,1.9410009l1.2119999,1.5150003l-1.8389988-0.5100002l-1.0410004,1.6619997
		l-0.2099991-2.0100002L20.368,10.5760012z M28.144001,17.776001l-1.7399998-1.0860023l-1.7160015,1.3740005l0.552-2.1030006
		l-1.7040005-1.0649986l2.0130024-0.1080008l0.5790005-2.1960011l0.8279991,2.1240005l2.052-0.1080008l-1.5990009,1.2779989
		L28.144001,17.776001z"/>
	<path class="st2" d="M10,38.8000031c12.5700016,0,23.2290001-8.0669994,27.1620026-19.2960014h-54.3240051
		C-13.2290001,30.7329979-2.5700002,38.8000031,10,38.8000031z"/>
	<polygon class="st3" points="7.5279989,3.5079999 6.5439987,1.6480002 6.204999,3.802 4.2399998,4.2399998 6.0040007,5.0679998 
		5.6800013,7.1199999 7.1020012,5.5870008 9.1359997,6.5439987 8.0770006,4.5400009 9.4239988,3.0880003 	"/>
	<polygon class="st3" points="13.795001,3.802 13.4560013,1.6480002 12.4720011,3.5079999 10.5760012,3.0880003 
		11.9229994,4.5400009 10.8640003,6.5439987 12.8979988,5.5870008 14.3199987,7.1199999 13.9959993,5.0679998 15.7600002,4.2399998 
			"/>
	<polygon class="st3" points="2.5150003,6.3609991 3.3759995,4.5279989 1.5700002,5.4849997 -0.0800004,3.9520006 
		0.3759995,6.118001 -1.5200005,7.1199999 0.6339993,7.3480005 1.0720005,9.4239988 1.9810004,7.4890003 3.9520006,7.6960011 	"/>
	<polygon class="st3" points="19.3659992,7.3480005 21.5200005,7.1199999 19.6240005,6.118001 20.079998,3.9520006 
		18.4300003,5.4849997 16.6240005,4.5279989 17.4850006,6.3609991 16.0480003,7.6960011 18.019001,7.4890003 18.9279995,9.4239988 	
		"/>
	<polygon class="st3" points="-2.3209996,9.8199987 -2.0960002,7.6960011 -3.4429998,9.381999 -5.552,8.5600014 
		-4.3400006,10.5009995 -5.552,12.0159998 -3.7130003,11.5059996 -2.6719999,13.1679993 -2.4619994,11.157999 
		-0.3679996,10.5760012 	"/>
	<polygon class="st3" points="23.7130013,11.5059996 25.552,12.0159998 24.3400002,10.5009995 25.552,8.5600014 
		23.4430008,9.381999 22.0959988,7.6960011 22.3210011,9.8199987 20.368,10.5760012 22.4620018,11.157999 22.6720009,13.1679993 	
		"/>
	<polygon class="st3" points="-5.5490003,14.7879992 -6.1279998,12.592001 -6.9559999,14.7159986 -9.0079994,14.6080008 
		-7.4089999,15.8859997 -8.1440001,17.776001 -6.4039998,16.6899986 -4.6879997,18.0639992 -5.2399998,15.9610014 
		-3.5360003,14.8959999 	"/>
	<polygon class="st3" points="26.9560013,14.7159986 26.1280022,12.592001 25.5489998,14.7879992 23.5359993,14.8959999 
		25.2399998,15.9610014 24.6879997,18.0639992 26.4040012,16.6899986 28.144001,17.776001 27.4090004,15.8859997 
		29.0080013,14.6080008 	"/>
</g>
<path class="st4" d="M10-18.5c15.5999985,0,28.5,12.9000006,28.5,28.5S25.5999985,38.5,10,38.5S-18.5,25.5999985-18.5,10
	S-5.5999994-18.5,10-18.5 M10-20C-6.5-20-20-6.5-20,10s13.5,30,30,30s30-13.5,30-30S26.5-20,10-20L10-20z"/>
</svg>
