<?xml version="1.0" encoding="utf-8"?>
<svg version="1.1" id="Layer_1" xmlns="http://www.w3.org/2000/svg" xmlns:xlink="http://www.w3.org/1999/xlink" x="0px" y="0px"
	 viewBox="-22 -22 64 64" style="enable-background:new 0 0 20 20;" xml:space="preserve">
<style type="text/css">
	.st0{fill:#D21034;}
	.st1{fill:#009543;}
	.st2{fill:#FFCE00;}
	.st3{fill:#FDCE12;}
	.st4{fill:#CCCCCC;}
</style>
<path class="st0" d="M38.3110008,4.8160009C35.8659973-8.6119995,24.1330013-18.7999992,10-18.7999992
	c-6.5429993,0-12.5550003,2.2049999-17.3880005,5.8799992L27.0160027,4.8160009H38.3110008z"/>
<path class="st1" d="M38.3110008,15.1839991h-11.295002L-7.388,32.9199982
	C-2.5549998,36.5950012,3.4569993,38.8000031,10,38.8000031C24.1330013,38.8000031,35.8659973,28.6120014,38.3110008,15.1839991z"/>
<g>
	<path d="M26.2299995,8.5600014h12.4980011c-0.0629997-1.269001-0.1950035-2.5229988-0.4169998-3.7440004h-11.295002
		L-7.388-12.9200001c-1.0350003,0.7860003-2.0339999,1.6200008-2.9520001,2.5349998L19.0030022,4.8159981L26.2299995,8.5600014z"/>
	<path d="M19.0030022,15.1839991l-29.3430023,15.2010012c0.9180002,0.9150009,1.9169998,1.7460041,2.9520001,2.5319996
		l34.4040031-17.7329979h11.2949982c0.2040024-1.1280012,0.3330002-2.282999,0.4020042-3.4560013H25.6720028L19.0030022,15.1839991z
		"/>
</g>
<path class="st2" d="M38.7280006,8.5600014H26.2299995l-7.2270012-3.7440004l-29.3429985-15.2010012
	C-11.0869999-9.6380005-11.783-8.8429995-12.4429998-8.0240002L19.6030006,8.5600014L22.3840008,10l-3.3389988,1.7280006
	l-31.4880028,16.2959976c0.6630001,0.8249989,1.3559999,1.6200027,2.1029997,2.361002l29.3430023-15.2009983l6.6690006-3.4560013
	h13.0410023c0.0359955-0.5760012,0.086998-1.1430016,0.086998-1.7280006
	C38.8000031,9.5140009,38.7519989,9.0400009,38.7280006,8.5600014z"/>
<path d="M19.045002,11.7280006L22.3840008,10l-2.7810001-1.4399986L-12.4429998-8.0240002
	C-16.4120007-3.086-18.7999992,3.1749997-18.7999992,10s2.3879986,13.0859985,6.3569994,18.0239983L19.045002,11.7280006z"/>
<path class="st3" d="M1.3599997,9.4239988c0-6.9119997-6.0479994-8.3519993-7.776-8.3519993
	s-7.2000008,1.1519995-7.2000008,6.9119983s5.4720001,6.3359985,6.6239996,6.3359985s5.1840005-0.8640003,4.6080008-5.1839991
	c0,1.1519995-1.4400001,3.7440004-4.3200002,3.7440004s-4.6080003-2.3039989-4.6080003-4.3200016
	c0-2.0159998,1.7279997-4.8959999,4.8960009-4.8959999c2.5919995,0,4.8959999,2.8800001,4.8959999,5.4720011
	c0,2.8800001-2.3040004,6.3360014-5.4719996,6.3360014v3.1679993C-4.112,18.6399994,1.3599997,16.3360023,1.3599997,9.4239988z"/>
<g>
	<path class="st3" d="M-9.0079994,8.8480005c-0.2880001,0,0,1.1519995,0,1.1519995S-8.7200003,8.5600014-9.0079994,8.8480005z"/>
	<path class="st3" d="M-8.4320002,7.1199999h0.8640003C-7.5679998,7.1199999-8.4320002,6.8320007-8.4320002,7.1199999z"/>
	<path class="st3" d="M-3.8239994,10.5760012c0,0-0.1170001-0.032999-0.2639995-0.0780001
		c0.0540004-0.1829996,0.2249994-0.8280001-0.0239997-1.0739994c-0.0900006-0.0899992-0.1409998,0.0119991-0.177,0.1650009
		c0.0179987-0.2370014,0.0089979-0.4530029-0.111002-0.4530029c-0.2039995-0.2039995-0.1170001,0.4470005-0.0509992,0.849
		C-4.487,9.9759989-4.5380006,9.9610014-4.6430001,9.9310007C-4.7360005,9.8050013-4.823,9.6939993-4.9160004,9.5739994
		c0.1260009,0.0750017,0.2280006,0.1380014,0.2280006,0.1380014l-0.2399998-0.2399998
		c0.0689993-0.3330002,0.1560001-0.9119997-0.0480008-0.9119997c-0.2880006-0.2879992,0,0.8640003,0,0.8640003
		s-0.0509992-0.0150003-0.0750003-0.0210028c-0.0539989-0.0719976-0.1109991-0.1439981-0.1679993-0.2130003
		C-5.1740003,8.9169998-5.1619997,8.4669981-5.552,8.2719994C-5.711,8.1130009-5.6929998,8.3890009-5.6480002,8.6710005
		c-0.0780001-0.0870008-0.1500006-0.1619997-0.2249994-0.243001c-0.0120006-0.1140003-0.039-0.230999-0.0720005-0.3480005
		c0.0419998-0.0299978,0.1049995-0.0570002,0.1049995-0.0959988c0-0.0870008-0.0869994-0.1109991-0.1950002-0.1169987
		c-0.0300007-0.0600014-0.0510006-0.1290007-0.0930004-0.1710005C-6.164,7.6600008-6.1669998,7.6989994-6.1849999,7.7020006
		c0-0.0059996-0.0029998-0.0090008-0.0029998-0.0150003c0.3330002-0.0150003,0.9240003-0.0720005,0.9240003-0.2790012
		c0-0.2879992-0.8640003,0-0.8640003,0V7.2279978C-6.086,7.1919975-6.0440001,7.1559973-5.9989991,7.119997
		c0.276-0.0090008,1.0230002-0.0479994,1.0230002-0.2850008c0-0.0209999-0.0300007-0.0179987-0.0360003-0.032999
		c0.2999997-0.0359974,0.6119986-0.1079979,0.6119986-0.2579985c0-0.1560001-0.2490005-0.1409998-0.4769998-0.099
		l0.1890006-0.1889992c0,0,0.0330005-0.0119991,0.0419998-0.0179987c0.3419995-0.0240011,0.8220005-0.0839996,0.8220005-0.2700005
		c-0.099,0-0.2609997,0.0360003-0.4349999,0.0810013C-4.0999994,5.9410009-3.9799995,5.8120003-4.112,5.6800013
		c-0.2039995-0.2040024-0.3989997,0.1649981-0.5040007,0.3989983c-0.0029998,0.0030012-0.0059996,0.0030012-0.0119991,0.0059996
		c0.0269995-0.0660009,0.0209999-0.1169987-0.0599999-0.1169987c-0.1199999,0-0.237,0.1619997-0.336,0.3360014l-0.0180001,0.0179987
		c-0.1049995,0.0629997-0.2189999,0.1409998-0.336,0.2189999c0.1409998-0.2519989,0.2940001-0.573,0.1140003-0.573
		c-0.2880006,0-0.5759997,0.8640003-0.5759997,0.8640003l-0.1710005,0.1710005
		C-6.0410004,7.0270023-6.0679998,7.045001-6.0979991,7.0690022c0.0869994-0.1320019,0.5189996-0.8130026,0.2579985-0.8130026
		c-0.0720005,0-0.1259995,0.0539989-0.1680007,0.1350002c-0.0119991-0.0809984-0.0479994-0.1350002-0.1199985-0.1350002
		c-0.1890006,0.1889992-0.2520003,0.6149998-0.2700005,0.894001c-0.0089993-0.0090008-0.0119991-0.0240011-0.0180001-0.0300007
		c-0.1409998-0.1409998-0.1409998,0.0660009-0.1079993,0.3120003c-0.0479994,0.0389986-0.099,0.0930004-0.1500006,0.1350002
		c0.0629997-0.2729988,0.2069993-0.9720011-0.0300007-0.7349997c-0.1199999,0-0.1829996,0.1619997-0.2249994,0.3389997
		c-0.0239997-0.0150003-0.0360003-0.0510006-0.0629997-0.0510006c-0.0120006-0.0119991-0.0089993,0.0090008-0.0180001,0.0030012
		c-0.0239997-0.2790012-0.0869994-0.6840019-0.2700005-0.8670015c-0.2700005,0-0.039,0.7380009-0.0089993,0.8280001
		C-7.3909998,7.0059996-7.4899998,6.9250011-7.586,6.855999c-0.0269995-0.2550001-0.0869994-0.5999994-0.2700005-0.5999994
		c-0.1409998,0-0.0720005,0.2099991,0.0330005,0.4229994c-0.0479994-0.0299978-0.0839996-0.0570002-0.1290007-0.086998
		C-8.0600004,6.3370008-8.243001,5.9680004-8.4320011,5.9680004c-0.1079998,0-0.0809994,0.1290007-0.0209999,0.2819996
		C-8.4619999,6.2469988-8.4949999,6.2349997-8.54,6.2199993c-0.198-0.1109991-0.3660002-0.2039995-0.4679995-0.2519989
		c-0.0750008,0-0.0900002,0.0389986-0.0720005,0.099c-0.0029993,0-0.0060005,0-0.0089998-0.0030012
		C-9.191,5.8270006-9.3859997,5.4820013-9.5840006,5.6800013c0,0.1230011,0.1680002,0.2459993,0.3510008,0.3449993
		c-0.1409998-0.032999-0.2700005-0.0570002-0.3510008-0.0570002c0,0.1409998,0.2790003,0.2130003,0.5609999,0.2490005
		c0.0030012,0.0089979,0.0150013,0.0389986,0.0150013,0.0389986l0.1679993,0.1679993
		C-8.9359999,6.435998-9.0079994,6.4629974-9.0079994,6.5439987c0,0.1409998,0.2789993,0.2130003,0.5609999,0.2490005
		C-8.4440002,6.802-8.4319992,6.8319979-8.4319992,6.8319979h0.2880001c0,0-0.0090008-0.0119991-0.0090008-0.0150003
		C-7.9879994,6.8289967-7.855999,6.8319979-7.855999,6.8319979l0.2879992,0.288002l0.2879992,0.2879992
		c0,0-0.8640003-0.2879992-0.8640003,0c0,0.1199999,0.2160001,0.1829996,0.4530001,0.2249994
		c-0.1559987,0.3690004-0.1649995,0.9270029-0.1649995,0.9270029l-0.2879996,0.2879992c0,0,0.2879996-1.1519995,0-0.8640003
		c-0.5760002,0.2879992-0.2880001,1.1519995-0.2880001,1.1519995l-0.2880001,0.2879992c0,0,0.2880001-1.1519995,0-0.8640003
		c-0.2879992,0,0,1.1519995,0,1.1519995L-9.0079994,10l-0.1080008,0.2220011
		c0.0690002-0.4050007,0.0180006-0.993001-0.1799994-0.7979994c-0.2880001,0.2879992,0,1.1519995,0,1.1519995
		c0,0.0269995,0.0480003,0.0269995,0.0690002,0.0419998c-0.1200008,0.1800013-0.2399998,0.3389997-0.3570004,0.5340014
		c0.0719995,0,0.2010002-0.1829996,0.4110003-0.4949999c0.2699995,0.0899992,1.0290003-0.1290007,1.0290003-0.3690004
		c0-0.1080008-0.132-0.0810013-0.2910004-0.0240011C-8.276,10.1800013-8.1440001,10.0930004-8.1440001,10
		c0.2340007-0.2340002-0.4560003,0.0899992-0.7320004,0.2249994C-8.8250008,10.1500006-8.7709999,10.0780001-8.7139997,10
		c0.0180006-0.0059996,1.1459999-0.2910004,1.1459999-0.5760012c0-0.2879992-0.8640003,0.2879992-0.8640003,0.2879992
		l0.2880001-0.2879992c0,0,1.152-0.2879992,1.152-0.5760012s-0.8640003,0.288002-0.8640003,0.288002l0.2880006-0.2879992
		c0,0,0.5759997-0.2879992,0.8640003-0.5760012c0.0149989-0.0059996,0.0029998-0.0059996,0.0149989-0.0119991
		c0.1530004,0.0090008,0.2730002,0.0119991,0.2730002,0.0119991l0.2880006,0.288002c0,0-1.1519995-0.2879992-0.5759997,0
		c0.138,0.1379986,0.4080005,0.2070007,0.651,0.2459993c-0.0300007,0.0119991-0.0750003,0.0030012-0.0750003,0.0419998
		c0,0.2010012,0.5430007,0.3959999,0.8850002,0.4980011c-0.006001,0.0239983-0.0150003,0.0539989-0.0150003,0.0599985
		C-5.4169998,9.3459988-5.552,9.3129997-5.552,9.4239988c0,0.1739988,0.4050007,0.3389997,0.7379994,0.4499989l0.1079993,0.1080008
		c0.0120006,0.0150003,0.0239997,0.032999,0.0360003,0.045001C-4.9130006,9.9279995-5.1170001,9.8590002-4.9760003,10
		c0,0.1409998,0.276,0.2790012,0.5549998,0.3869991c0.0300007,0.0419998,0.0599999,0.0870008,0.0869994,0.1259995
		c-0.3690004-0.131999-0.9299998-0.4620008-0.9299998-0.2249994c0,0.2399998,0.7559996,0.4589996,1.0289998,0.3690004
		c0.2100005,0.3120003,0.3389997,0.4949999,0.4110003,0.4949999c-0.1170001-0.1920004-0.237-0.3509989-0.3569999-0.5340014
		c0.0209999-0.0179987,0.0689993-0.0179987,0.0689993-0.0419998C-4.1120014,10.5759983-3.8239994,10.5759983-3.8239994,10.5760012z"
		/>
</g>
<path class="st4" d="M10-18.5c15.5999985,0,28.5,12.9000006,28.5,28.5S25.5999985,38.5,10,38.5S-18.5,25.5999985-18.5,10
	S-5.5999994-18.5,10-18.5 M10-20C-6.5-20-20-6.5-20,10s13.5,30,30,30s30-13.5,30-30S26.5-20,10-20L10-20z"/>
</svg>
