<?xml version="1.0" encoding="utf-8"?>
<svg version="1.1" id="Layer_1" xmlns="http://www.w3.org/2000/svg" xmlns:xlink="http://www.w3.org/1999/xlink" x="0px" y="0px"
	 viewBox="-22 -22 64 64" style="enable-background:new 0 0 20 20;" xml:space="preserve">
<style type="text/css">
	.st0{fill:#CE1126;}
	.st1{fill:#002B7F;}
	.st2{fill:#FFFFFF;}
	.st3{fill:#CCCCCC;}
</style>
<path class="st0" d="M25.2639999-14.3900003V3.3759995h-43.2689972C-18.5060005,5.5059996-18.7999992,7.717001-18.7999992,10
	c0,15.9060001,12.8939991,28.8000031,28.7999992,28.8000031S38.8000031,25.9060001,38.8000031,10
	C38.8000031-0.2930007,33.3820038-9.2989998,25.2639999-14.3900003z"/>
<path class="st1" d="M25.2639999-14.3900003C20.8360023-17.1709995,15.6130009-18.7999992,10-18.7999992
	c-13.6229992,0-25.0080013,9.4679995-28.0050011,22.1760006h43.269001V-14.3900003z"/>
<polygon class="st2" points="4.0660009,-1.2319999 3.3759995,-3.5360003 2.5689993,-1.2319999 0.2080002,-1.2319999 
	2.1040001,0.1030006 1.3599997,2.224 3.2319999,0.901 5.1040001,2.224 4.4499989,0.0430007 6.2559996,-1.2319999 "/>
<polygon class="st2" points="-2.8250003,-10.448 -3.5360003,-12.4639997 -4.1300001,-10.448 -5.8400006,-10.448 -4.427,-9.4370003 
	-4.9760003,-7.5679998 -3.3920007,-8.6990004 -1.8079996,-7.5679998 -2.4439993,-9.3739996 -0.9439993,-10.448 "/>
<polygon class="st2" points="10.8640003,-11.6000004 10.2879992,-13.3280001 9.7120008,-11.6000004 7.9840002,-11.6000004 
	9.3879986,-10.6280003 8.8480005,-9.0079994 10.2879992,-10.0039997 11.7280006,-9.0079994 11.1879997,-10.6280003 
	12.592001,-11.6000004 "/>
<polygon class="st2" points="1.6480002,-13.3280001 3.2319999,-14.4589996 4.8160009,-13.3280001 4.2370014,-15.1759996 
	5.6800013,-16.2080002 3.9160004,-16.2080002 3.3759995,-17.9360008 2.7280006,-16.2080002 0.7839999,-16.2080002 
	2.3170004,-15.1129999 "/>
<polygon class="st2" points="7.6960011,-4.6879997 6.6879997,-5.3599997 5.6800013,-4.6879997 6.0159998,-5.8070002 
	5.1040001,-6.4160004 6.1989994,-6.4160004 6.5439987,-7.5679998 7.0059996,-6.4160004 8.2719994,-6.4160004 7.2729988,-5.7470002 
	"/>
<path class="st3" d="M10-18.5c15.5999985,0,28.5,12.9000006,28.5,28.5S25.5999985,38.5,10,38.5S-18.5,25.5999985-18.5,10
	S-5.5999994-18.5,10-18.5 M10-20C-6.5-20-20-6.5-20,10s13.5,30,30,30s30-13.5,30-30S26.5-20,10-20L10-20z"/>
</svg>
