<?xml version="1.0" encoding="utf-8"?>
<svg version="1.1" id="Layer_1" xmlns="http://www.w3.org/2000/svg" xmlns:xlink="http://www.w3.org/1999/xlink" x="0px" y="0px"
	 viewBox="-22 -22 64 64" style="enable-background:new 0 0 20 20;" xml:space="preserve">
<style type="text/css">
	.st0{fill:#CE1126;}
	.st1{fill:#FFFFFF;}
	.st2{fill:none;stroke:#E6E6E6;stroke-width:0.15;stroke-miterlimit:10;}
	.st3{fill:#CCCCCC;}
</style>
<path class="st0" d="M10-18.7999992c-12.5699997,0-23.2290001,8.0669994-27.1619987,19.2959995h54.3240013
	C33.2290001-10.7329998,22.5699997-18.7999992,10-18.7999992z"/>
<path class="st1" d="M-17.1620007,0.4959993C-18.2029991,3.4780006-18.7999992,6.6639986-18.7999992,10
	s0.5970001,6.5219994,1.6379986,9.5040016h54.3239975C38.2029953,16.5219994,38.8000031,13.3360014,38.8000031,10
	s-0.5970001-6.5219994-1.6380005-9.5040007H-17.1620007z"/>
<path d="M10,38.8000031c12.5700016,0,23.2290001-8.0669994,27.1620026-19.2960014h-54.3240051
	C-13.2290001,30.7329979-2.5700002,38.8000031,10,38.8000031z"/>
<circle class="st2" cx="10" cy="10" r="28.8000011"/>
<path class="st3" d="M10-18.5c15.5999985,0,28.5,12.9000006,28.5,28.5S25.5999985,38.5,10,38.5S-18.5,25.5999985-18.5,10
	S-5.5999994-18.5,10-18.5 M10-20C-6.5-20-20-6.5-20,10s13.5,30,30,30s30-13.5,30-30S26.5-20,10-20L10-20z"/>
</svg>
