<?xml version="1.0" encoding="utf-8"?>
<svg version="1.1" id="Layer_1" xmlns="http://www.w3.org/2000/svg" xmlns:xlink="http://www.w3.org/1999/xlink" x="0px" y="0px"
	 viewBox="-22 -22 64 64" style="enable-background:new 0 0 20 20;" xml:space="preserve">
<style type="text/css">
	.st0{fill:#FFFFFF;stroke:#E6E6E6;stroke-width:0.15;}
	.st1{fill:none;}
	.st2{fill:#E23828;}
	.st3{fill:#FFB300;}
	.st4{fill:#00209F;}
	.st5{fill:#00774B;}
	.st6{fill:#CCCCCC;}
</style>
<circle class="st0" cx="10" cy="10" r="28.8000011"/>
<path class="st1" d="M27.4539986,0.4959993L0.7990003-17.2700005c-1.461,0.4920006-2.8740005,1.0890007-4.2210002,1.8000002
	L20.5300007,0.4959993H27.4539986z"/>
<path class="st2" d="M37.1620026,0.4959993C33.2290001-10.7329998,22.5699997-18.7999992,10-18.7999992
	c-3.2220011,0-6.3060007,0.552-9.2010002,1.5299988L27.4540024,0.4959993H37.1620026z"/>
<path d="M-14.7980003-4.5919995C-17.3239994-0.3109994-18.7999992,4.6660004-18.7999992,10
	s1.4759998,10.3110008,4.0019989,14.592001L7.0930004,10L-14.7980003-4.5919995z"/>
<path class="st3" d="M-12.6380005-7.7659998C-13.427-6.7609997-14.1470003-5.7019992-14.7980003-4.5919995L7.0930004,10
	l-21.8909988,14.592001c0.6540003,1.1070004,1.3710003,2.1689987,2.1630001,3.1739979L14.0169992,10L-12.6380005-7.7659998z"/>
<path class="st4" d="M37.1620026,19.5040016h-9.7080002L0.7990003,37.2700005
	C3.6939993,38.2480011,6.7779989,38.8000031,10,38.8000031C22.5699997,38.8000031,33.2290001,30.7329979,37.1620026,19.5040016z"/>
<path class="st5" d="M38.2210007,15.7600002C38.5990028,13.9000006,38.8000031,11.974,38.8000031,10
	s-0.2010002-3.9000006-0.5790024-5.7600002h-5.151001h-6.9239998l-5.6159992-3.7440004L-3.4249997-15.4700003
	c-3.5910001,1.8959999-6.7199998,4.533-9.2130013,7.7040005L14.0169992,10l-26.6550007,17.7659988
	c2.4899998,3.1710014,5.6220002,5.8050003,9.2130003,7.7040024l29.5649986-19.710001H38.2210007z"/>
<path class="st6" d="M10-18.5c15.5999985,0,28.5,12.9000006,28.5,28.5S25.5999985,38.5,10,38.5S-18.5,25.5999985-18.5,10
	S-5.5999994-18.5,10-18.5 M10-20C-6.5-20-20-6.5-20,10s13.5,30,30,30s30-13.5,30-30S26.5-20,10-20L10-20z"/>
</svg>
