<?xml version="1.0" encoding="utf-8"?>
<svg version="1.1" id="Layer_2_1_" xmlns="http://www.w3.org/2000/svg" xmlns:xlink="http://www.w3.org/1999/xlink" x="0px" y="0px"
	 viewBox="-22 -22 64 64" style="enable-background:new 0 0 20 20;" xml:space="preserve">
<style type="text/css">
	.st0{fill:none;}
	.st1{fill:#198A00;}
	.st2{fill:#EF7D00;}
	.st3{fill:#DE2010;}
	.st4{fill:#CCCCCC;}
</style>
<path class="st0" d="M-18.7999992,10c0,0.8039989,0.0539989,1.5930004,0.1199989,2.3759995V7.6240005
	C-18.7460003,8.4069996-18.7999992,9.1960011-18.7999992,10z"/>
<polygon class="st1" points="19.2910004,-7.4000006 19.3269997,-7.3909998 19.2849998,-7.4180007 "/>
<polygon class="st1" points="28.6089973,-6.461 28.6030006,-6.4669995 28.605999,-6.4550004 "/>
<path class="st1" d="M23.1520004-4.9520006C23.2810001-4.8650012,23.5209999-4.7720008,23.5480003-4.763
	c0.1619987-0.0750003,0.3509979-0.1110005,0.5130005-0.1110005c0.032999,0,0.0600014,0,0.0870018,0h0.053997
	c0.0209999,0,0.0330009,0,0.0389996,0C24.2649994-4.9040012,24.2919998-4.9400001,24.3039989-4.961L24.282999-5.3330002
	c-0.0059986,0.0059996-0.0090008,0.0209999-0.0150013,0.0269995c-0.0689983,0.0720005-0.1349983,0.099-0.1949978,0.0750003
	C24.052-5.2399998,24.0369987-5.2640009,24.0429993-5.282001c0.1469994-0.711-0.0270004-1.1160007-0.5639992-2.0670004
	c-0.0119991,0.5399995-0.0240021,1.0079999-0.0720005,1.3649998c0.0720005,0.2189999,0.0749989,0.2700005,0.0810013,0.4080005
	c0.0030003,0.039,0.0059986,0.0930004,0.0090008,0.1589999C23.5-5.414,23.5-5.4080005,23.5-5.4019995
	c0,0.0269995-0.0240021,0.0449996-0.0480003,0.0449996c-0.0030003,0-0.0149994,0-0.0209999-0.0029998
	c-0.0959969-0.039-0.1889992-0.138-0.2819977-0.2520003C23.1340008-5.3629994,23.1219978-5.0419998,23.1520004-4.9520006z"/>
<path class="st1" d="M18.2290001,1.7709999h10.2839985h9.0779972c-1.137001-3.8159995-3.0359955-7.2990003-5.5319977-10.2720003
	c-0.1140022,0.0209999-0.2129993,0.045001-0.3330021,0.0629997c0.0060024,0.0089998,0.0090008,0.0180006,0.0119991,0.0270004
	C31.7409935-8.3810005,31.7349968-8.342,31.614994-8.3030005C31.5369968-8.2490005,30.7449913-7.724,29.6589928-7.7000003
	C29.8689919-7.6400003,29.9169941-7.5980005,29.937994-7.526c0.0029984,0.0120006,0.0029984,0.0269995-0.0060024,0.0360003
	c-0.0629997,0.099-0.4020023,0.177-0.7919998,0.1829996c0.0930004,0.0330005,0.1379986,0.0659995,0.144001,0.1140003
	c0,0.0089993,0,0.0150003-0.0029984,0.0209999c-0.0239983,0.0659995-0.3810024,0.237-0.75,0.237
	c-0.1379986,0-0.2670021-0.0300007-0.3869991-0.0750003C28.4649963-6.7789998,28.6899929-6.599,28.6989937-6.4700007
	c0.0029984,0.039-0.0119991,0.0750003-0.0390015,0.1049995c-0.0029984,0.0029998-0.0090008,0.0059996-0.0149975,0.0089993
	c-0.086998,0.039-0.1919975,0.0570002-0.3180027,0.0570002c-0.507,0-1.1970005-0.3330002-1.6199989-0.5640006
	c0.2369995,0.2189999,0.4529991,0.3419995,0.6089993,0.4349999c0.1560001,0.0900006,0.2549992,0.1500006,0.2729988,0.2399998
	c0.0090008,0.0479994-0.0059986,0.1019998-0.0510006,0.1619997c-0.0060005,0.0059996-0.0119991,0.0120006-0.0179977,0.0150003
	c-0.0839996,0.0360003-0.1800022,0.0570002-0.2820015,0.0570002c-0.2939987,0-0.6240005-0.1530004-0.8880005-0.3150001
	c0.0119991,0.0269995,0.0209999,0.0510006,0.0209999,0.0780001c0,0.0300007-0.0119991,0.0689993-0.0539989,0.1049995
	c-0.0090008,0.0059996-0.0179996,0.0089993-0.0269985,0.0089993c-0.3480015,0.0209999-0.6899986-0.2069993-0.9000015-0.3809996
	c0.0090008,0.0180001,0.0149994,0.039,0.0240021,0.0570002c0.1379967,0.2280006,0.2639999,0.2880006,0.3659973,0.3330002
	c0.0690002,0.0330005,0.132,0.0599999,0.1710014,0.138c0.0119991,0.0239997,0,0.0479994-0.0209999,0.0599999
	c-0.0359993,0.0209999-0.0810013,0.0330005-0.1259995,0.0330005c-0.1409988,0-0.2849998-0.1079993-0.407999-0.2009997
	c-0.0689983-0.0510006-0.1379986-0.1049995-0.1889992-0.1229997c-0.0209999,0.1229997,0.2519989,0.5280004,0.3990002,0.7440004
	c0.1350021,0.198,0.1590023,0.237,0.156002,0.2670007c0,0.0089993-0.0030022,0.0150003-0.0060005,0.0209999
	c-0.0149994,0.0269995-0.0419998,0.0269995-0.0569992,0.0269995l0,0c-0.078001,0-0.3540001-0.0659995-0.6269989-0.237
	c0.0089989,0.138,0.0179977,0.2490005,0.0179977,0.2550001c0.0030022-0.0059996,0.045002,0.0510006,0.3959999,0.0599999
	c0.2790012,0.0360003,0.375,0.3179998,0.3689995,0.4199996c-0.0059986,0.0659995-0.0479984,0.0689993-0.0600014,0.0689993
	c-0.0359993,0-0.053997-0.0330005-0.0629997-0.0419998c-0.053997-0.0869994-0.2399979-0.1619997-0.3179989-0.1859994
	c-0.0360012,0.0029998-0.1020012,0.0180001-0.1200008,0.0479994c-0.0030003,0.0029998-0.0059986,0.0120006-0.0059986,0.0269995
	c0.144001,0.0540004,0.2430019,0.138,0.2939987,0.2490005c0.0629997,0.1350002,0.0539989,0.3090005-0.0300007,0.5219994
	C25.4679947-3.695003,25.2009964-3.689002,25.1709938-3.689002c-0.0179977,0-0.0359993-0.0120006-0.0419998-0.0269995
	c-0.0089989-0.0180001-0.0059986-0.0360003,0.0060005-0.0479994c0.0270004-0.0300007,0.0930004-0.1229997,0.0810013-0.1859994
	c-0.0030022-0.0120006-0.0090008-0.0269995-0.0270004-0.0360003c-0.0299988,0.0059996-0.0569992,0.0089993-0.0839996,0.0089993
	c-0.2459984,0-0.3389988-0.2340002-0.3570004-0.3660007c-0.0059986-0.0089993-0.0179996-0.0269995-0.0389996-0.0269995
	s-0.0450001,0.0120006-0.0719986,0.0360003c0.0269985,0.1320004-0.0240021,0.2039995-0.0360012,0.3090005
	c-0.0030003,0.0419998-0.0059986,0.0839996-0.0150013,0.1170001c-0.0179977,0.0540004,0.0090027,0.1409998-0.0209999,0.1799998
	c-0.0719986,0.1019998-0.1650009,0.1409998-0.2099991,0.1560001C24.3429985-3.5240011,24.3279972-3.407001,24.4269981-3.323
	c0.0149994,0.0120006,0.0209999,0.0330005,0.0119972,0.0510006c0,0.0180001-0.0179977,0.0330005-0.0359993,0.0330005
	c0,0-0.0090008,0-0.0119991,0c-0.3270016,0-0.3330002-0.2399998-0.3360004-0.3690004c0-0.0239997,0-0.0510006-0.0030022-0.0689993
	c-0.0270004-0.0150003-0.0480003-0.0419998-0.0660019-0.0809999c-0.0329971-0.0629997-0.0509987-0.1710005-0.0119972-0.3330002
	c-0.1710014,0.1500006-0.3240013,0.1409998-0.4080009,0.1199999c0,0.0540004,0.0090027,0.1469994,0.0389996,0.2550001
	c0.0059986,0.0209999-0.0030003,0.039-0.0179996,0.0510006c-0.0179977,0.0120006-0.0359993,0.0120006-0.053997,0
	c-0.2370033-0.1799998-0.2490005-0.2730002-0.2490005-0.5820007c-0.0090027-0.039,0.0209999-0.0599999,0.0209999-0.099
	c-0.0300026,0.0269995-0.0480003,0.0599999-0.0810013,0.0809999c0.1020012,0.1500006,0.1409988,0.2999997,0.1139984,0.4409995
	c-0.0299988,0.1799998-0.1559982,0.2969999-0.2039986,0.3330002c-0.0030022,0.0510006-0.0060005,0.198,0.1199989,0.3029995
	c0.0150013,0.0120006,0.0209999,0.0360003,0.0150013,0.0510006c-0.0059986,0.0180001-0.0240002,0.0300007-0.0419998,0.0300007
	h-0.0030003c-0.3000031-0.0239997-0.3540001-0.2429996-0.3660011-0.3239994
	c-0.0569992-0.0330005-0.1949978-0.1320004-0.2700005-0.3599997c-0.1020012,0.2609997-0.3540001,0.3300004-0.441,0.3480005
	c-0.0090008,0.0360003-0.0179996,0.1140003,0.0510006,0.2009997c0.0119991,0.0150003,0.0149994,0.0360003,0.0030022,0.0510006
	c-0.012001,0.0150003-0.0300026,0.0269995-0.0480003,0.0209999c-0.1169987-0.0239997-0.2039986-0.0780001-0.2519989-0.1619997
	c-0.0629997-0.1079993-0.0480003-0.2340002-0.0359993-0.2910004c-0.0300026-0.0269995-0.0660019-0.0750003-0.0750008-0.1530004
	c-0.0089989-0.0869994,0.0209999-0.1799998,0.0870018-0.2849994c-0.1800003,0.0930004-0.3509979,0.138-0.5159988,0.138
	c-0.0690002,0-0.1200008-0.0089993-0.156002-0.0150003c-0.0240002,0.0300007-0.0749969,0.099-0.1559982,0.2249994
	c-0.012001,0.0180001-0.0300026,0.0269995-0.0480003,0.0209999c-0.0209999-0.0029998-0.0359993-0.0209999-0.0359993-0.039
	c-0.0330009-0.2189999-0.0030022-0.3120003,0.0209999-0.3480005c0.0119972-0.0960002,0.1020012-0.6030006,0.7769985-0.6030006
	c0.4859982,0,0.6000004-0.3930001,0.6240005-0.5219994c-0.0209999,0.0089993-0.0419998,0.0300007-0.0600014,0.0300007
	c-0.0240002,0-0.0450001-0.0059996-0.0629997-0.0209999c-0.0510006-0.0360003-0.0389996-0.1199999,0.0269985-0.5009995
	c0.0060005-0.039,0.0150013-0.0809999,0.0209999-0.1229997c-0.144001,0.2579999-0.329998,0.3959999-0.4200001,0.3959999
	c-0.0240002,0-0.0389996-0.0089993-0.0539989-0.0239997c-0.0090008-0.0089993-0.0209999-0.0300007-0.0149994-0.0570002
	c0.053997-0.1829996,0.0839996-0.3540001,0.1109982-0.5219994C21.9489994-6.164,21.9699993-6.2839999,22-6.401
	c0.032999-0.1199999,0.0720005-0.2340002,0.1080017-0.3330002c-0.0690002,0.0839996-0.132,0.1469994-0.1529999,0.1560001
	c-0.0060005,0.0029998-0.0179977,0.0059996-0.0240021,0.0059996c-0.0149994,0-0.0329971-0.0089993-0.0389977-0.0209999
	C21.868-6.6230011,21.880003-6.6589999,21.9160042-6.7880006c0.0089989-0.0330005,0.0240002-0.0780001,0.0299988-0.1140003
	c-0.1259995,0.0510006-0.375,0.099-0.6359978,0.099c-0.2640018,0-0.7469997-0.0479994-0.9630013-0.3839993
	c-0.0060005-0.0089993-0.0090008-0.0180001-0.0090008-0.0269995c0-0.0930004,0.1259995-0.2069993,0.3000011-0.3239994
	c-0.3990021,0.1320004-0.8850002,0.2670007-1.1760006,0.2670007c-0.1200008,0-0.2010021-0.0239997-0.2490005-0.0750003
	C19.189003-7.3759995,19.177002-7.4089985,19.177002-7.4479985c-0.0059986-0.0120006-0.0059986-0.0269995-0.0059986-0.0360003
	c0.0059986-0.0479994,0.0839996-0.1290007,0.2339993-0.2399998c-0.0899982,0.0419998-0.1499996,0.0750003-0.1590004,0.0780001
	c-0.0359993,0.0209999-0.4529991,0.1409998-0.7619991,0.1409998c-0.1800022,0-0.296999-0.039-0.3540001-0.1199999
	c-0.0210018-0.045001-0.0300045-0.0570016,0.2249966-0.2010012c-0.198,0.0449996-0.4620018,0.0930004-0.6930008,0.0930004
	c-0.2129993,0-0.3689995-0.039-0.4619999-0.1170001c-0.0119991-0.0089993-0.0209999-0.0330005-0.0179996-0.0449996
	c0.0060005-0.0360003,0.045002-0.0750003,0.2430019-0.1889997c-0.0959988,0.0269995-0.1860008,0.0450001-0.2729988,0.0629997
	c-0.2549992,0.0359993-0.5039997,0.0359993-0.6750011,0.0029993c-0.3390007-0.0690002-0.6419992-0.2789993-0.6300001-0.3689995
	c-0.0030012-0.0450001,0.0360003-0.0539999,0.3000021-0.1260004c0.2070007-0.0539999,0.5039997-0.1379995,0.7199974-0.2369995
	c-0.5369987,0.1470003-1.0199995,0.2189999-1.4429989,0.2189999c-0.7590008,0-1.079999-0.2399998-1.1369991-0.3299999
	c-0.0240011-0.0360003-0.0209999-0.0629997-0.0119991-0.0810003c0.0209999-0.0359993,0.0600014-0.0450001,0.342001-0.0749998
	c0.0839996-0.0089998,0.198-0.0209999,0.2189999-0.0299997c0.0090008-0.0060005,0.0660009-0.0300007,0.3330002-0.1140003
	c-0.3599997,0.0749998-0.7440004,0.132-1.0290012,0.1199999c-0.7440004-0.0419998-1.1340008-0.2790003-1.2060013-0.3900003
	c-0.0179987-0.0269995-0.0240011-0.0509996-0.0150003-0.0719995C12.9370003-9.5509996,13-9.5809994,13.4890003-9.6350002
	c0.032999-0.0030003,0.0539989-0.0060005,0.0689993-0.0089998c0.0269995-0.0030003,0.1590014-0.0360003,0.329999-0.0870008
	c-0.1169987,0.0060005-0.230999,0.0090008-0.3360014,0.0090008c-0.993001,0-1.2600002-0.243-1.3320007-0.3450003
	c-0.032999-0.0450001-0.0389986-0.0929995-0.0269995-0.1260004c0.0179987-0.0450001,0.243001-0.0780001,0.4139986-0.0959997
	c-2.6489954-0.6269989-2.8529949-1.6529989-2.8589945-1.7009993C9.7330008-12.0740004,9.756999-12.1099997,9.7810001-12.125
	c0.0059996-0.0089998,0.0269995-0.0150003,0.045001-0.0150003c0.0510006,0,0.1080008,0.0419998,0.2070007,0.1199999
	c0.1080008,0.0869999,0.2580013,0.2040005,0.4680004,0.3120003c0.0179987,0.0060005,0.0360003,0.0150003,0.0510006,0.0209999
	c-0.4050007-0.2670002-0.7110014-0.75-0.7230005-0.9420004c-0.0030012-0.0629988,0.0239983-0.0899992,0.0449982-0.1049995
	C9.8890009-12.743,9.9040012-12.7460003,9.9219999-12.7460003c0.0899992,0,0.230999,0.1020002,0.4890003,0.2940006
	c0.1290007,0.0959997,0.2729988,0.2040005,0.420001,0.2999992C10.420001-12.5,10.2040024-12.9290009,10.1470022-13.262001
	c-0.0179987-0.0959997-0.0269995-0.2159996,0.0209999-0.2579994c0.0059996-0.0060005,0.0119991-0.0089998,0.0179987-0.0120001
	c0.1020012-0.0299997,0.2580013,0.1080008,0.5250006,0.3510008c0.177,0.1619997,0.3719988,0.3449993,0.474,0.3659992
	c0.0090008,0.0030003,0.0179987,0.0060005,0.0240011,0.0120001c0.0810013,0.0780001,0.3120003,0.1950006,1.092001,0.5310001
	c-0.3959999-0.3179998-1.3110008-1.1969995-1.0949993-1.6079998c0.0150003-0.0209999,0.0360003-0.0360003,0.0689993-0.0360003
	c0.0749989,0,0.198,0.0690002,0.4289989,0.2010002c0.2490005,0.1409988,0.5550013,0.3210001,0.8669987,0.4259996
	c0.8640003,0.3509998,1.7189999,0.704999,2.6519995,1.191c-0.0360003-0.0360003-0.0749989-0.0749998-0.1109991-0.1110001
	c-0.4799995-0.4709997-0.7020006-0.7200003-0.6810007-0.8399992c0.0059996-0.0270004,0.0240011-0.0480003,0.0479994-0.0600004
	c0.0179987-0.0120001,0.0360003-0.0180006,0.0660009-0.0180006c0.1379986,0,0.4589996,0.1500006,0.948,0.375
	c0.6689978,0.3120003,1.5870008,0.7350006,2.4840002,0.9720001c0.0660019,0.0089998,0.1529999,0.0240002,0.2519989,0.0360003
	c0.6359997,0.0900002,1.7490005,0.2489996,2.3850002,0.4499998c0-0.0059996,0-0.0119991,0-0.0179996
	c0.3599987-1.6110001,1.4639988-1.7849998,1.9200001-1.7849998c0.4260025,0,0.8490009,0.1409998,1.0620003,0.3569994
	c0.4890022,0.0480003,0.7440014,0.1710005,0.8700008,0.3299999c0.0090008,0.0089998,0.0209999,0.0209999,0.0269985,0.0299997
	c0.0240021,0.0360003,0.0870018,0.0600004,0.0930023,0.1020002c0.0269985,0.2189999-0.2159996,0.4200001-0.3570023,0.4679995
	c-0.0179977,0.0060005-0.0359993,0.0030003-0.045002-0.0089998c-0.0119972-0.0120001-0.0179977-0.0299997-0.0119972-0.045001
	c0.0240002-0.0839996,0.0240002-0.1469994-0.0060005-0.1919994c-0.0149994-0.0270004-0.0389977-0.0450001-0.0720005-0.0599995
	c-0.0059986,0.0119991-0.0119991,0.0179996-0.0240002,0.0239992c-0.1080017,0.0480003-0.1800022,0.0509996-0.2729988,0.0539999
	c-0.045002,0-0.0990009,0.0030003-0.1650009,0.0089998c-0.0629997,0.0089998-0.2820015,0.0509996-0.387001,0.2460003
	c-0.0929985,0.1680002-0.0719986,0.3930006,0.0600014,0.6750002c0,0.0029993,0.0030022,0.0119991,0.0060005,0.0149994
	c0.0060005,0.0180006,0.0240021,0.0419998,0.032999,0.0629997c0.0419998-0.0239992,0.4320011-0.2009993,1.7040005-0.2009993
	c0.3599987,0,0.7589989,0.0150003,1.1879997,0.0419998c0.0089989,0,0.0149994,0,0.0240002,0
	c0.2430019,0,1.1309986-0.2820005,1.6620007-0.4499998c0.1170006-0.0360012,0.2190018-0.0690002,0.2940006-0.0930004
	c0.1259995-0.0239992,0.3359985-0.0629997,0.5370026-0.1049995C23.7070007-16.1690006,17.1639977-18.7999992,10-18.7999992
	c-15.1019993,0-27.4680004,11.6309986-28.6800003,26.423996v4.7550001
	C-17.5250015,26.4909992-6.2090011,37.692997,7.9419975,38.6949959V1.7709999H18.2290001z"/>
<path class="st2" d="M28.5160027,1.7709999v30.2759972C34.8010025,26.7639999,38.8000031,18.8530006,38.8000031,10
	c0-2.8620014-0.4319992-5.6190004-1.2089996-8.2290001H28.5160027z"/>
<path d="M18.2290001,1.7709999v35.8199959c3.8220005-1.137001,7.3079987-3.0449982,10.2839985-5.5439987V1.7709999H18.2290001z"/>
<path class="st3" d="M7.9449987,1.7709999v36.923996C8.6259995,38.7460022,9.3070002,38.8000031,10,38.8000031
	c2.8620014,0,5.6190004-0.4319992,8.2290001-1.2089996V1.7709999H7.9449987z"/>
<path class="st2" d="M32.0590019-8.5010004c-0.0239983-0.0299997-0.0509987-0.0539999-0.0749989-0.0840006
	c-0.1320019-0.1560001-0.2759972-0.2999992-0.4109974-0.4529991c-0.0300007-0.033-0.0569973-0.0600004-0.0839996-0.0930004
	c-0.2910004-0.3269997-0.5790024-0.6599998-0.8850002-0.9720001c-0.0239983-0.0270004-0.0449982-0.0509996-0.0720005-0.0780001
	c-0.0600014-0.0629997-0.1140003-0.132-0.1799984-0.1919994c-0.0239983-0.0240002-0.0510006-0.0419998-0.0749989-0.0660009
	c-0.177-0.1739998-0.3689976-0.3269997-0.5459976-0.4979992c-0.0390015-0.0360003-0.0839996-0.0750008-0.1259995-0.1140003
	c-0.0629997-0.0570002-0.1259995-0.1140003-0.1889992-0.1739998c-0.0300007-0.0270004-0.0539989-0.0510006-0.0839996-0.0750008
	c-0.1679993-0.1529999-0.3300018-0.309-0.5009995-0.4589996c-0.0300007-0.0270004-0.0569973-0.0509996-0.086998-0.0780001
	c-0.2009983,0.0390005-0.407999,0.0810003-0.5370026,0.1050005c-0.0749989,0.0239992-0.177,0.0539989-0.2939987,0.0929995
	c-0.5310001,0.1680002-1.4189987,0.4499998-1.6619987,0.4499998c-0.0090027,0-0.0150013,0-0.0240021,0
	c-0.4289989-0.0299997-0.8279991-0.0419998-1.1879997-0.0419998c-1.2719994,0-1.6650009,0.1800003-1.7039986,0.2010002
	c-0.0090027-0.0209999-0.0300026-0.0450001-0.0330009-0.0629997c0-0.0030003-0.0030003-0.0120001-0.0059986-0.0150003
	c-0.1289997-0.2820005-0.1499996-0.5100002-0.0600014-0.6750002c0.1079998-0.1919994,0.3239994-0.2369995,0.3869991-0.2459993
	c0.0690002-0.0060005,0.1199989-0.0089998,0.1650009-0.0089998c0.0959988-0.0030003,0.1650009-0.0060005,0.2729988-0.0539999
	c0.0119991-0.0060005,0.0209999-0.0150003,0.0240021-0.0240002c0.0329971,0.0180006,0.053997,0.0360003,0.0719986,0.0600004
	c0.0300026,0.0450001,0.0330009,0.1079998,0.0060005,0.1919994c-0.0060005,0.0179996,0,0.0360003,0.0119991,0.0450001
	c0.0119991,0.0120001,0.032999,0.0150003,0.0450001,0.0090008c0.144001-0.0480003,0.3840027-0.2490005,0.3570023-0.4680004
	c-0.0060005-0.0419998-0.0690002-0.066-0.0930004-0.1019993c-0.0059986-0.0120001-0.0179996-0.0209999-0.0269985-0.0300007
	c-0.1259995-0.1619987-0.3810005-0.2819996-0.8700008-0.329999c-0.2040005-0.2160006-0.6269989-0.3599997-1.0500011-0.3599997
	c-0.4589996,0-1.5600014,0.1739998-1.920002,1.7849998c0,0.0060005-0.0030003,0.0120001,0,0.0179996
	c-0.6389999-0.2009993-1.7519989-0.3599987-2.3849983-0.4499998c-0.0990009-0.0150003-0.1860008-0.0270004-0.2519989-0.0360003
	c-0.9000015-0.2399998-1.8180008-0.6630001-2.4840012-0.9720001c-0.4859991-0.2249994-0.8100014-0.375-0.948-0.375
	c-0.0269995,0-0.0479994,0.0060005-0.0660009,0.0180006c-0.0269995,0.0120001-0.0419998,0.0360003-0.0479994,0.0600004
	c-0.0240011,0.1229992,0.198,0.3689995,0.6810007,0.8399992c0.0360003,0.0360003,0.0780001,0.0750008,0.1109991,0.1110001
	c-0.9329996-0.4860001-1.7879992-0.8400002-2.6519995-1.191c-0.3120003-0.1080008-0.618001-0.2820005-0.8669987-0.4259996
	c-0.230999-0.132-0.3540001-0.2010002-0.4289989-0.2010002c-0.0360003,0-0.0570002,0.0179996-0.0689993,0.0360003
	c-0.2159986,0.408,0.6960011,1.2930002,1.0949993,1.6079998c-0.7800007-0.3330002-1.0080013-0.4530001-1.092001-0.5310001
	c-0.0059996-0.0059996-0.0150003-0.0120001-0.0240011-0.0120001c-0.1020012-0.0209999-0.3000011-0.2039995-0.474-0.3659992
	c-0.2580013-0.2399998-0.420001-0.3780003-0.5219994-0.3479996c-0.0059996,0.0029993-0.0150003,0.0059996-0.0179987,0.0119991
	c-0.0479994,0.0419998-0.0360003,0.1650009-0.0209999,0.2580004c0.0600014,0.329999,0.2729988,0.7589998,0.6839991,1.1099997
	c-0.1469994-0.098999-0.2939987-0.2039995-0.420001-0.2999992c-0.2580013-0.1919994-0.3990011-0.2940006-0.4890003-0.2940006
	c-0.0209999,0-0.0360003,0.0060005-0.0479994,0.0120001C9.8530006-12.7189999,9.8260012-12.6919994,9.8289995-12.632
	c0.0119991,0.1950006,0.3179998,0.6750002,0.7230005,0.9419994c-0.0179987-0.0059996-0.0360003-0.0149994-0.0510006-0.0209999
	c-0.2070007-0.1079998-0.3570013-0.2249994-0.4680004-0.3120003c-0.099-0.0719995-0.1529989-0.1169996-0.2069979-0.1169996
	c-0.0209999,0-0.0360003,0.0060005-0.045001,0.0150003c-0.0240011,0.0150003-0.0479994,0.0509996-0.032999,0.1350002
	c0.0090008,0.0450001,0.2099991,1.0709991,2.8709993,1.7069998c-0.177,0.0180006-0.3959999,0.0480003-0.4139986,0.0960007
	c-0.0150003,0.0360003-0.0030012,0.0809994,0.0269995,0.1260004c0.0689993,0.1049995,0.3360014,0.3449993,1.3320007,0.3449993
	c0.1080008,0,0.2189999-0.0029993,0.3360014-0.0089998c-0.1739988,0.0480003-0.3029995,0.0840006-0.329999,0.0869999
	c-0.0150003,0.0030003-0.0389986,0.0060005-0.0689993,0.0089998c-0.4890003,0.0539999-0.5489988,0.0840006-0.5670004,0.1290007
	c-0.0090008,0.0239992-0.0030012,0.0450001,0.0150003,0.0719995c0.0720005,0.1079998,0.4649992,0.3450003,1.2060013,0.3900003
	c0.2850008,0.0150003,0.6689987-0.0450001,1.0290012-0.1199999c-0.2669992,0.0900002-0.3239994,0.1079998-0.3330002,0.1140003
	c-0.0209999,0.0089998-0.1350002,0.0209999-0.2189999,0.0299997c-0.2819996,0.0299997-0.3239994,0.0360003-0.342001,0.0750008
	c-0.0090008,0.0179996-0.0119991,0.0419998,0.0119991,0.0809994c0.0570002,0.0929995,0.3780012,0.3299999,1.1369991,0.3299999
	c0.4229994,0,0.9060001-0.0749998,1.4429989-0.2189999c-0.2159977,0.099-0.5159988,0.1799994-0.7199974,0.2370005
	c-0.2580023,0.0719995-0.3000021,0.0809994-0.3000021,0.1259995c-0.0119991,0.0869999,0.2879992,0.3000002,0.6300001,0.3689995
	c0.1710014,0.0360007,0.420002,0.0360007,0.6750011-0.0029993c0.0869999-0.0150003,0.177-0.0360003,0.2729988-0.0629997
	c-0.198,0.1140003-0.2399998,0.1530004-0.2430019,0.1890006c-0.0030003,0.0150003,0.0060005,0.0360003,0.0179996,0.0449996
	c0.0930004,0.0780001,0.2490005,0.1170001,0.4619999,0.1170001c0.230999,0,0.4950008-0.0449996,0.6930008-0.0930004
	c-0.2519989,0.1439996-0.2459984,0.1589999-0.2220001,0.2009997c0.053997,0.0809999,0.1709995,0.1199999,0.3540001,0.1199999
	c0.3089981,0,0.7290001-0.1199999,0.7619972-0.1409998c0.0090027-0.0059996,0.0690002-0.0360003,0.1590023-0.0780001
	c-0.1499996,0.1079993-0.2280006,0.1859994-0.2339993,0.2399998c-0.0030022,0.0150003,0,0.0269995,0.0059986,0.0360003
	c0,0.039,0.0119991,0.0750003,0.0360012,0.1019998c0.0419998,0.0479994,0.1230011,0.0750003,0.2490005,0.0750003
	c0.2910004,0,0.7740002-0.1350002,1.1759987-0.2670007C20.4820042-7.4209991,20.3560028-7.3039989,20.3560028-7.211
	c0,0.0089993,0.0030003,0.0180001,0.0089989,0.0269995c0.2069988,0.336,0.6869984,0.3840008,0.9539986,0.3840008
	c0.2639999,0,0.5099983-0.0449996,0.6359978-0.099c-0.0089989,0.0360003-0.0209999,0.0809999-0.0299988,0.1140003
	c-0.0360012,0.1290007-0.045002,0.1680007-0.0240021,0.1950002c0.0090008,0.0120006,0.0270004,0.0209999,0.0389977,0.0209999
	c0.0060005,0,0.0179996-0.0029998,0.0240021-0.0059996c0.0209999-0.0089993,0.0839996-0.0720005,0.1529999-0.1560001
	c-0.0360012,0.1019998-0.0810013,0.2130003-0.1080017,0.3330002c-0.032999,0.1170001-0.0510006,0.2399998-0.0749989,0.3690004
	c-0.0300007,0.1649995-0.0570011,0.336-0.1109982,0.5219994c-0.0060005,0.0300007,0.0089989,0.0479994,0.0149994,0.0570002
	c0.0119991,0.0150003,0.032999,0.0239997,0.0539989,0.0239997c0.0869999,0,0.2759991-0.1350002,0.4200001-0.3959999
	c-0.0089989,0.0419998-0.0149994,0.0839996-0.0209999,0.1229997c-0.066,0.3809996-0.0749969,0.4650006-0.0269985,0.5009995
	C22.2849979-5.1829996,22.3029976-5.177,22.3269978-5.177c0.0179996,0,0.0389996-0.0209999,0.0600014-0.0300007
	c-0.0360012,0.1170001-0.1469994,0.513-0.6330013,0.513c-0.6779995,0-0.7619991,0.5070004-0.7740021,0.6090002
	C20.9529972-4.0490003,20.928997-3.9590011,20.9589958-3.737c0.0030022,0.0209999,0.0179996,0.0360003,0.0360012,0.039
	c0.0209999,0.0029998,0.0360012-0.0059996,0.0479984-0.0209999c0.078001-0.1259995,0.1290016-0.1950002,0.156002-0.2249994
	c0.0359993,0.0059996,0.0869999,0.0150003,0.1559982,0.0150003c0.1650009,0,0.3360023-0.0449996,0.5160007-0.138
	c-0.066,0.1049995-0.0990009,0.198-0.0869999,0.2849994c0.0089989,0.0780001,0.0479984,0.1259995,0.0749969,0.1530004
	c-0.0119972,0.0570002-0.0269985,0.1799998,0.0360012,0.2910004c0.0479984,0.0839996,0.1350002,0.138,0.2519989,0.1619997
	c0.0209999,0.0029998,0.0360012-0.0059996,0.0479984-0.0209999c0.012001-0.0150003,0.0090027-0.0360003-0.0030003-0.0510006
	c-0.066-0.0869994-0.0570011-0.1649995-0.0479984-0.198c0.0869999-0.0180001,0.3360004-0.0869994,0.441-0.3480005
	c0.0749989,0.2280006,0.2129993,0.3270006,0.2700005,0.3599997c0.0119991,0.0809999,0.0689983,0.2999997,0.3659992,0.3239994
	h0.0030022c0.0209999,0,0.0359993-0.0120006,0.0419998-0.0300007c0.0089989-0.0209999,0.0030003-0.039-0.0150013-0.0510006
	c-0.1259995-0.1049995-0.1259995-0.2520003-0.1200008-0.3029995c0.0480003-0.0360003,0.1739998-0.1500006,0.2040005-0.3300004
	c0.0240002-0.1409998-0.0150013-0.2880006-0.1140003-0.4409995c0.032999-0.0209999,0.0510006-0.0540004,0.0810013-0.0809999
	c0,0.0360003-0.0270004,0.0570002-0.0209999,0.099c0,0.3060007,0.0119991,0.4019995,0.2490005,0.5820007
	c0.0179977,0.0120006,0.0359993,0.0120006,0.0539989,0s0.0240002-0.0330005,0.0179996-0.0510006
	c-0.0330009-0.1079993-0.0389996-0.2009997-0.0389996-0.2550001c0.0839996,0.0209999,0.2399998,0.0300007,0.407999-0.1199999
	c-0.0389977,0.1649995-0.0209999,0.2700005,0.0119991,0.3330002c0.0179996,0.0360003,0.0389996,0.0629997,0.066,0.0809999
	c0.0030022,0.0180001,0.0030022,0.0449996,0.0030022,0.0689993c0.0030022,0.1290007,0.0090008,0.3690004,0.3360023,0.3690004
	h0.0119972c0.0209999,0,0.0360012-0.0120006,0.0419998-0.0330005c0.0060005-0.0180001,0.0030022-0.0360003-0.0119972-0.0510006
	c-0.0990009-0.0869994-0.0839996-0.2009997-0.0720024-0.2490005c0.045002-0.0150003,0.1380005-0.0510006,0.2099991-0.1560001
	c0.0300026-0.0419998,0.0060005-0.1290007,0.0209999-0.1799998c0.012001-0.0360003,0.0090027-0.0780001,0.0150013-0.1170001
	c0.0119991-0.1049995,0.0600014-0.177,0.0360012-0.3090005c0.0299988-0.0239997,0.0509987-0.0360003,0.0719986-0.0360003
	c0.0240021,0,0.0360012,0.0180001,0.0389996,0.0269995c0.0179996,0.1320004,0.1109982,0.3660007,0.3570004,0.3660007
	c0.0270004,0,0.0540009-0.0029998,0.0839996-0.0089993c0.0209999,0.0150003,0.0240021,0.0300007,0.0270004,0.0360003
	c0.0119991,0.0599999-0.0539989,0.1589999-0.0810013,0.1859994c-0.0119991,0.0150003-0.0149994,0.0360003-0.0060005,0.0479994
	c0.0090027,0.0180001,0.0270004,0.0269995,0.0419998,0.0269995c0.0300026,0,0.2939987-0.0059996,0.3810005-0.2280006
	c0.0839996-0.2130003,0.0930004-0.3839993,0.0300007-0.5219994c-0.0510006-0.1079993-0.1499996-0.1950002-0.2939987-0.2490005
	c-0.0030003-0.0150003,0.0030003-0.0239997,0.0059986-0.0269995c0.0209999-0.0300007,0.0839996-0.0419998,0.1200008-0.0479994
	c0.078001,0.0269995,0.2609997,0.1019998,0.3179989,0.1859994c0.0060005,0.0120006,0.0270004,0.0419998,0.0629997,0.0419998
	c0.0090027,0,0.0540009-0.0029998,0.0600014-0.0689993c0.0090027-0.1049995-0.0899982-0.3839993-0.3689995-0.4199996
	c-0.3600006-0.0180001-0.4020004-0.0750003-0.4050007-0.0689993c0-0.0089993-0.0090008-0.1170001-0.0179996-0.2550001
	c0.276001,0.1710005,0.5489998,0.237,0.6269989,0.237l0,0c0.012001,0,0.0389996,0,0.0570011-0.0269995
	c0.0030003-0.0059996,0.0059986-0.0150003,0.0059986-0.0209999c0.0030022-0.0330005-0.0209999-0.0720005-0.1559982-0.2670007
	c-0.1469994-0.2160001-0.4230003-0.6179996-0.3990021-0.7440004c0.0510006,0.0209999,0.1199989,0.0720005,0.1889992,0.1229997
	c0.1259995,0.0960002,0.2669983,0.2009997,0.407999,0.2009997c0.0450001,0,0.0869999-0.0120006,0.1259995-0.0330005
	c0.0240002-0.0120006,0.032999-0.0360003,0.0209999-0.0599999c-0.0360012-0.0780001-0.1020012-0.1079993-0.1709995-0.138
	c-0.1020012-0.0449996-0.2280006-0.1049995-0.3660011-0.3330002c-0.0089989-0.0180001-0.0149994-0.039-0.0240002-0.0570002
	c0.2070007,0.1710005,0.5489979,0.3989997,0.8999996,0.3809996c0.0090027,0,0.0179996-0.0029998,0.0270004-0.0089993
	c0.045002-0.0360003,0.0539989-0.0750003,0.0539989-0.1049995c0-0.0269995-0.0059986-0.0510006-0.0209999-0.0780001
	c0.2640018,0.1619997,0.5939999,0.3150001,0.8879986,0.3150001c0.1049995,0,0.198-0.0209999,0.2819996-0.0570002
	c0.0059986-0.0029998,0.0150013-0.0089993,0.0179996-0.0150003c0.0450001-0.0599999,0.0600014-0.1079993,0.0509987-0.1619997
	c-0.0179977-0.0930004-0.1199989-0.1500006-0.2729988-0.2399998c-0.1559982-0.0900006-0.3719978-0.2160001-0.6089993-0.4349999
	c0.4200001,0.2310004,1.1130009,0.5640006,1.6200027,0.5640006c0.1200027,0,0.2280006-0.0209999,0.3180027-0.0570002
	c0.0060024-0.0029998,0.0090008-0.0059996,0.0149975-0.0089993c0.0300007-0.0300007,0.0419998-0.0629997,0.0390015-0.1049995
	c-0.0149975-0.1290007-0.2429981-0.3120003-0.5580025-0.5399995c0.1200027,0.0449996,0.2490005,0.0750003,0.3869991,0.0750003
	c0.3720016,0,0.7260017-0.1710005,0.75-0.237c0.0029984-0.0059996,0.0029984-0.0150003,0.0029984-0.0209999
	c-0.0060024-0.0479994-0.0510006-0.0839996-0.144001-0.1140003c0.3869991-0.0089993,0.7290001-0.0869994,0.7919998-0.1829996
	c0.0090008-0.0120006,0.0090008-0.0269995,0.0060024-0.0360003c-0.0209999-0.0750003-0.0690022-0.1110005-0.2790012-0.1740003
	c1.0830002-0.0239997,1.875-0.5459995,1.9560013-0.6029997c0.1169987-0.0360003,0.1259995-0.0810003,0.1230011-0.1079998
	c-0.0029984-0.0090008-0.0060024-0.0209999-0.0119991-0.0270004C31.8490028-8.4530001,31.9419975-8.4800005,32.0590019-8.5010004z
	 M24.3069992-4.9580002C24.295002-4.9370003,24.2680016-4.901,24.2439995-4.8710008c-0.0059986,0-0.0179977,0-0.0389977,0
	h-0.0539989c-0.0269985,0-0.0539989,0-0.0869999,0c-0.1620007,0-0.3509998,0.0360003-0.5130024,0.1110005
	c-0.0269985-0.0089993-0.2640018-0.1049995-0.3959999-0.1890006c-0.032999-0.0900006-0.0209999-0.4050007-0.0030003-0.6569996
	c0.0929985,0.1079993,0.1860008,0.2069993,0.2819977,0.2520003c0.0060005,0.0029998,0.0179996,0.0029998,0.0209999,0.0029998
	c0.0270004,0,0.0480003-0.0209999,0.0480003-0.0449996c0-0.0059996,0-0.0120006-0.0030022-0.0180001
	C23.4939976-5.4799995,23.4909973-5.5280004,23.4909973-5.573c-0.0060005-0.1350002-0.0090027-0.1890006-0.0810013-0.4080005
	c0.0479984-0.3540001,0.0600014-0.8250003,0.0719986-1.3649998c0.5400009,0.9539995,0.7140007,1.3530006,0.5639992,2.0670004
	c-0.0059986,0.0239997,0.0090027,0.0449996,0.0300026,0.0510006c0.0600014,0.0239997,0.1259995-0.0029998,0.1949978-0.0750003
	c0.0059986-0.0059996,0.0090008-0.0209999,0.0150013-0.0269995L24.3069992-4.9580002z M19.2910004-7.4000006
	c-0.0030022-0.0029998-0.0030022-0.0150003-0.0060005-0.0180001c0.0060005,0.0150003,0.0300026,0.0180001,0.0389996,0.0269995
	C19.3239994-7.3939996,19.2939987-7.3969994,19.2910004-7.4000006z M28.6089973-6.461c0,0.0029998,0,0.0029998,0,0.0059996
	c0-0.0029998-0.0029984-0.0089993-0.0029984-0.0120006C28.6030006-6.4639997,28.6089973-6.461,28.6089973-6.461z"/>
<path d="M30.5979977-9.026c-0.6689987,0-1.3589973-0.0749998-2.052-0.2219992
	c-0.0270023-0.0060005-0.0480022,0.0119991-0.0539989,0.0359993C28.4859962-9.1849995,28.5009995-9.1639996,28.5279961-9.158
	c1.0200005,0.243001,2.0400009,0.243001,3.0510006,0.1199999c-0.0300007-0.032999-0.0569973-0.0599995-0.0839996-0.0929995
	C31.1919975-9.0979996,30.9040012-9.026,30.5979977-9.026C30.6010017-9.026,30.5979977-9.026,30.5979977-9.026z"/>
<path d="M29.986002-9.9890003c0.0060024,0.0270004,0.0300007,0.0389996,0.0539989,0.0360003
	c0.1860008-0.0450001,0.375-0.099,0.5610008-0.1470003c-0.0239983-0.0270004-0.0449982-0.0509996-0.0720005-0.0780001
	c-0.1709976,0.045001-0.3359985,0.0900002-0.5129986,0.1350002C29.9950027-10.04,29.9799995-10.0159998,29.986002-9.9890003z"/>
<path d="M29.7759972-8.375c-0.0180016,0.0030003-0.0239983,0.0209999-0.032999,0.0360003
	c0.0209999,0.0120001,0.0539989,0.0239992,0.0690022,0.0360003c0.0060024,0.0060005,0,0.0120001,0,0.0209999
	c0.5549984-0.0150003,1.0949993-0.0509996,1.5959988-0.1079998c0.0779972,0,0.1320019,0.0029993,0.1679993,0.0060005H31.573
	c-0.0060024,0-0.0090008,0.0029993-0.0149975,0.0059996c-0.0090008,0.0060005-0.8339996,0.5879998-1.9799995,0.5879998
	c-0.1140003,0-0.230999-0.0059996-0.3359985-0.0180001l-0.279007-0.0720005
	c-0.1830025-0.0449996-0.4020023-0.1019998-0.6689987-0.1680002c-0.0270023-0.0060005-0.0480022,0.0090008-0.0539989,0.033
	c-0.0090008,0.0239997,0.0029984,0.0479994,0.0270023,0.0570002c0.3120003,0.1259995,0.6330013,0.2039995,0.9540024,0.2399998
	c0.4379997,0.1079993,0.573,0.1500006,0.6120014,0.1950002c-0.0720005,0.0449996-0.3330002,0.1259995-0.7619991,0.1259995
	c-0.1200027,0-0.2490005-0.0059996-0.3689976-0.0209999c-0.2339973-0.0540004-0.5700016-0.1409998-0.927-0.2579999
	c-0.0959988-0.0029998-0.1949997-0.0120006-0.3029995-0.0269995c0.0030003,0.0120006,0,0.0239997,0.0119991,0.0300007
	c0.3719978,0.1829996,0.7739983,0.2999997,1.1970005,0.3449993L28.71101-7.3220005
	c0.198,0.0449996,0.3989983,0.0930004,0.461998,0.1259995c-0.0839996,0.0510006-0.3510017,0.1680007-0.6420021,0.1680007
	c-0.1379986,0-0.263998-0.0239997-0.3840008-0.0720005c-0.0690022-0.0300007-0.2280006-0.1079993-0.4229984-0.2130003
	c0.0600014,0.0419998,0.1199989,0.0869994,0.1800003,0.1290007c0.1020012,0.0689993,0.1560001,0.1140003,0.2399998,0.177
	c0.1200027,0.0449996,0.2490005,0.0750003,0.3869991,0.0750003c0.3720016,0,0.7260017-0.1710005,0.75-0.237
	c0.0029984-0.0059996,0.0029984-0.0150003,0.0029984-0.0209999c-0.0060024-0.0479994-0.0510006-0.0839996-0.144001-0.1140003
	C29.5270023-7.3129997,29.8690033-7.3909998,29.932003-7.487c0.0090008-0.0120006,0.0090008-0.0269995,0.0060024-0.0360003
	c-0.0209999-0.0750003-0.0690022-0.1110005-0.2790012-0.1740003c1.0830002-0.0239997,1.875-0.5459995,1.9560013-0.6029997
	c0.1169987-0.0360003,0.1259995-0.0810003,0.1230011-0.1080008c-0.0029984-0.0089998-0.0060024-0.0209999-0.0119991-0.0269995
	c0.1230011-0.0180006,0.2189999-0.045001,0.3329983-0.0629997C32.0350113-8.5279999,32.008007-8.552,31.9840088-8.5820007
	c-0.1950016,0.033-0.3689976,0.0719995-0.5820007,0.099C31.0900021-8.4860001,30.5470028-8.4500008,29.7759972-8.375z"/>
<path d="M23.0739994-4.901c0.0030003,0.0059996,0.0090008,0.0120006,0.0150013,0.0180001
	c0.098999,0.0689993,0.2579994,0.138,0.3570004,0.1799998c0.032999-0.0239997,0.066-0.039,0.1049995-0.0570002
	c-0.0269985-0.0089993-0.2640018-0.1049995-0.3959999-0.1890006c-0.032999-0.0900006-0.0209999-0.4050007-0.0030003-0.6569996
	c-0.0330009-0.039-0.0570011-0.0780001-0.0870018-0.1170001C23.0529995-5.5969996,23.0080013-5.0300007,23.0739994-4.901z"/>
<path d="M23.3320007-4.4959993c-0.0569992,0.0659995-0.1259995,0.1320004-0.198,0.1710005
	c-0.0119991,0.0059996-0.0209999,0.0180001-0.0240002,0.0330005c-0.0030022,0.0150003,0,0.0269995,0.0089989,0.0360003
	c0.1080017,0.1439996,0.1500015,0.2819996,0.1290016,0.4080005c-0.032999,0.1799998-0.1800003,0.2819996-0.1800003,0.2819996
	c-0.012001,0.0059996-0.0179996,0.0180001-0.0209999,0.0330005c0,0.0089993-0.0270004,0.1560001,0.053997,0.2940001
	C22.9509983-3.3079967,22.948-3.4579973,22.948-3.4669981c0-0.0180001-0.0119991-0.0360003-0.0300007-0.0419998
	c-0.0119991-0.0059996-0.2639999-0.1199999-0.2910004-0.5700002l0,0l0,0v-0.0210013
	c-0.0030022-0.0269995-0.0209999-0.0419998-0.0480003-0.0419998c-0.0269985,0-0.0450001,0.0239997-0.0419998,0.0479994V-4.073
	c0.0179996,0.4890003-0.4079971,0.5399995-0.428997,0.5399995c-0.0150013,0.0029998-0.0300026,0.0120006-0.0360012,0.0269995
	C22.0660019-3.5,22.0240021-3.4160004,22.0600014-3.2990003c-0.0359993-0.0209999-0.0660019-0.0509992-0.0840034-0.0809999
	c-0.0629997-0.1079993-0.0209999-0.2459993-0.0209999-0.2490005c0.0060005-0.0209999-0.0030003-0.0419998-0.0209999-0.0540004
	c-0.0030003,0-0.0509987-0.0360003-0.0600014-0.1079993c-0.0089989-0.0780001,0.0300026-0.2189999,0.2550011-0.4349999
	C22.1469955-4.2440004,22.1499977-4.2680001,22.132-4.289c-0.0179996-0.0209999-0.0419998-0.0239997-0.0629997-0.0089993
	c-0.2550011,0.1829996-0.4980011,0.2789998-0.7200012,0.2789998c-0.066,0-0.1169968-0.0089993-0.1469994-0.0150003
	l-0.0179977-0.0029998c-0.0149994-0.0029998-0.0300007,0.0029998-0.0389977,0.0150003
	c-0.0030022,0.0029998-0.0360012,0.039-0.1080017,0.1439996c-0.0030022-0.1140003,0.0149994-0.1469994,0.0149994-0.1469994
	c0.012001-0.0089993,0.0179996-0.0239997,0.0209999-0.0360003c0-0.0239997,0.0300026-0.5369997,0.684-0.5369997
	c0.6269989,0,0.7199993-0.5789995,0.7290001-0.6480002l0.0179996-0.0449996
	c-0.0419998,0.039-0.0810013,0.0599999-0.1200008,0.0780001c-0.0240002,0.1290007-0.1350002,0.5250006-0.6210003,0.5250006
	c-0.6779976,0-0.7619972,0.5070004-0.7740002,0.6090002c-0.0269985,0.0360003-0.0510006,0.1259995-0.0209999,0.3480005
	c0.0030003,0.0209999,0.0179996,0.0360003,0.0360012,0.039C21.0250015-3.6889977,21.0400009-3.6979971,21.052-3.7129974
	c0.078001-0.1259995,0.1289997-0.1950002,0.1560001-0.2249994c0.0359993,0.0059996,0.0870018,0.0150003,0.1560001,0.0150003
	c0.1650009,0,0.3360004-0.0449996,0.5160007-0.138c-0.0660019,0.1049995-0.0990009,0.198-0.0870018,0.2849994
	C21.802-3.6979971,21.8409996-3.6499977,21.8679981-3.6229968c-0.0119991,0.0570002-0.0269985,0.1799998,0.0360012,0.2910004
	c0.0479984,0.0839996,0.1349983,0.138,0.2519989,0.1619997c0.0209999,0.0029998,0.0359993-0.0059996,0.0479984-0.0209999
	s0.0090008-0.0360003-0.0030003-0.0510006c-0.0660019-0.0869994-0.0570011-0.1649995-0.0480003-0.198
	c0.0870018-0.0180001,0.3360023-0.0869994,0.4410019-0.3480005c0.0749969,0.2280006,0.2129993,0.3270006,0.2700005,0.3599997
	c0.0119972,0.0809999,0.0689983,0.2999997,0.3659973,0.3239994h0.0030022c0.0209999,0,0.0359993-0.0120006,0.0419998-0.0300007
	c0.0090008-0.0209999,0.0030022-0.039-0.0149994-0.0510006c-0.1259995-0.1049995-0.1259995-0.2520003-0.1200008-0.3029995
	C23.1879959-3.5239997,23.3139954-3.638,23.343998-3.8179998c0.0240002-0.1409998-0.0150013-0.2880006-0.1140022-0.4409995
	c0.0330009-0.0209999,0.0510025-0.0540004,0.0810013-0.0809999C23.302-4.4060001,23.3199997-4.448,23.3320007-4.4959993z"/>
<path d="M27.901001-7.1840005c-0.0600014-0.039-0.1170006-0.0869994-0.1800022-0.1290007
	c-0.2070007-0.1469994-0.3959999-0.2940001-0.5610008-0.4409995C27.0879974-7.769001,27.0189972-7.7870011,26.9650002-7.802
	c0.218998,0.2280006,0.5639992,0.474,0.8849983,0.6959996c0.362999,0.2520003,0.7350006,0.513,0.7530022,0.6420007
	l0.0060024,0.0059996c0,0.0029998,0,0.0029998,0,0.0059996c0,0.0059996,0,0.0150003-0.0060024,0.0209999
	c-0.0749989,0.0330005-0.1650009,0.0449996-0.2670021,0.0449996c-0.651001,0-1.6650009-0.5999994-1.8600006-0.7199993
	c-0.0209999-0.0120006-0.0450001-0.0089993-0.0600014,0.0089993c-0.0149994,0.0180001-0.0149994,0.0419998,0,0.0599999
	c0.3330002,0.3839993,0.651001,0.5700002,0.8610001,0.6900001c0.1230011,0.0720005,0.2220001,0.1290007,0.230999,0.1799998
	c0.0030022,0.0209999-0.0060005,0.0449996-0.0300007,0.0750003c-0.0689983,0.0300007-0.1469994,0.0419998-0.2339993,0.0419998
	c-0.5279999,0-1.1850014-0.5369997-1.3110008-0.6420007c-0.0090027-0.0089993-0.0209999-0.0120006-0.0300026-0.0120006
	c-0.0059986,0-0.0149994,0-0.0209999,0.0059996c-0.0179977,0.0089993-0.0269985,0.0239997-0.0269985,0.0419998
	c0,0.0419998,0.0450001,0.0839996,0.1590023,0.1740003c0.1020012,0.0809999,0.2700005,0.2130003,0.2669983,0.2880006
	c0,0.0059996,0,0.0150003-0.0090008,0.0239997c-0.0059986,0-0.0150013,0-0.0209999,0
	c-0.4139996,0-0.8369999-0.3900003-0.9419994-0.4890003c0.0269985,0.0689993,0.053997,0.1409998,0.0839996,0.2009997
	c0.2070007,0.1710005,0.5489979,0.3989997,0.8999996,0.3809996c0.0090008,0,0.0179996-0.0029998,0.0269985-0.0089993
	c0.045002-0.0360003,0.0540009-0.0750003,0.0540009-0.1049995c0-0.0269995-0.0060005-0.0510006-0.0209999-0.0780001
	c0.2639999,0.1619997,0.593998,0.3150001,0.8880005,0.3150001c0.1049995,0,0.198-0.0209999,0.2819996-0.0570002
	c0.0059986-0.0029998,0.0150013-0.0089993,0.0179996-0.0150003c0.0450001-0.0599999,0.0600014-0.1079993,0.0509987-0.1619997
	c-0.0179977-0.0930004-0.1199989-0.1500006-0.2729988-0.2399998c-0.1559982-0.0900006-0.3719978-0.2160001-0.6089993-0.4349999
	c0.4200001,0.2310004,1.1130009,0.5640006,1.6200027,0.5640006c0.1200027,0,0.2280006-0.0209999,0.3180027-0.0570002
	c0.0060024-0.0029998,0.0090008-0.0059996,0.0149975-0.0089993c0.0300007-0.0300007,0.0419998-0.0629997,0.0390015-0.1049995
	c-0.0149975-0.1290007-0.2429981-0.3120003-0.5580025-0.5399995C28.0569973-7.0670004,28.0029984-7.112,27.901001-7.1840005z"/>
<path d="M26.8780022-7.9760003l-0.4350014-0.204C26.4489994-8.177,26.454998-8.1709995,26.4580002-8.164999
	c0.0300007,0.0509996,0.0900002,0.1079998,0.144001,0.1619987l0.2189999,0.105l0.0209999-0.0120006l0,0L26.8780022-7.9760003z"/>
<path d="M27.9160004-11.6389999c-0.5310001,0.1679993-1.4189987,0.4499998-1.6619987,0.4499998
	c-0.0090027,0-0.0150013,0-0.0240021,0c-0.4289989-0.0299997-0.8279991-0.0419998-1.1879997-0.0419998
	c-1.2719994,0-1.6650009,0.1800003-1.7039986,0.2010002C23.3439999-11.0149994,23.3499985-11,23.3620014-10.9849997
	c0.0300007,0.0209999,0.0360012,0.0450001,0.066,0.0629997c0.0270004,0.0150003,0.0540009,0.0450001,0.0839996,0.0629997
	c-0.0030003-0.0060005-0.0119972-0.0150003-0.0149994-0.0180006c-0.032999-0.0389996-0.0539989-0.0719995-0.0720005-0.0929995
	c0.1469994-0.0509996,0.597002-0.1739998,1.6200008-0.1739998c0.3570004,0,0.7559986,0.0150003,1.1819992,0.0419998
	c0.0090008,0,0.0209999,0.0029993,0.032999,0.0029993c0.2549992,0,1.1190014-0.2729998,1.6919994-0.4559994
	c0.1170025-0.0360003,0.2190037-0.0690002,0.2880001-0.0900002c0.1410027-0.0240002,0.3689976-0.0690002,0.6030006-0.1140003
	c-0.0300007-0.0270004-0.0569973-0.0509996-0.086998-0.0780001c-0.2009983,0.0390005-0.407999,0.0810003-0.5370026,0.1050005
	C28.1350002-11.7080002,28.0359974-11.6780005,27.9160004-11.6389999z"/>
<polygon points="29.0229988,-11.1590004 29.0019989,-11.1199999 29.0019989,-11.1199999 "/>
<path d="M27.8919983-11.0419998c-0.0389977-0.0060005-0.0839996-0.0089998-0.1319981-0.0089998l0,0
	c-0.0240002,0-0.0450001,0.0209999-0.0450001,0.0419998c-0.0030022,0.0269995,0.0179977,0.0450001,0.0389977,0.0479994
	c0.0389977,0.0060005,0.0870018,0.0090008,0.1290016,0.0090008c0.1739979,0.0209999,0.2459984,0.0719995,0.2459984,0.1110001
	h0.0029984l-0.0060024,0.0029993c-0.0119991,0.0719995-0.222002,0.2069998-0.6929989,0.2069998
	c-0.2099991,0-0.4440002-0.0270004-0.6899986-0.0809994c-0.0240021-0.0030003-0.045002,0.0089998-0.0540009,0.0299997
	c-0.0089989,0.0239992,0.0030022,0.0450001,0.0240021,0.0570002c0.4410019,0.2250004,0.4410019,0.309,0.4410019,0.309
	c-0.0030022,0.0029993-0.0060005,0.0060005-0.0030022,0.0029993c-0.0030022,0-0.7320023,0.033-1.170002-0.0629997
	c-0.0839996-0.0360003-0.1860008-0.0809994-0.3120003-0.1199999c-0.0240002-0.0089998-0.0450001,0.0030003-0.053997,0.0240002
	C25.6029968-10.4510002,25.6089973-10.427,25.6269951-10.415c0.0690002,0.0539999,0.177002,0.0959997,0.3149986,0.1229992
	c0.1980019,0.0929995,0.2010021,0.1409998,0.2010021,0.1409998c0,0.0060005-0.0179996,0.0180006-0.0240002,0.0209999
	c-0.0030022,0-0.1830006,0.0180006-0.4110012,0.0180006c-0.2460003,0-0.4499989-0.0180006-0.597002-0.0509996
	c-0.0419998-0.0150013-0.098999-0.033-0.1590004-0.0480003c-0.0240021-0.0060005-0.0480003,0.0060005-0.0569992,0.0299997
	c-0.0090027,0.0239992,0.0030003,0.0480003,0.0269985,0.0570002c0.0450001,0.0209999,0.1020012,0.0360003,0.1590023,0.0480003
	c0.1559982,0.0539989,0.1709995,0.0929995,0.1709995,0.0929995c-0.0030003,0.0089998-0.0269985,0.0239992-0.0360012,0.0270004
	c0,0-0.1289997,0.0209999-0.3029976,0.0209999c-0.2040005,0-0.3840027-0.0270004-0.5340023-0.0750008
	c-0.0209999-0.0059996-0.0450001-0.0419998-0.066-0.0509996c0.0359993,0.0419998,0.0629997,0.0690002,0.098999,0.1140003
	C24.4179916-9.941,24.4209919-9.9320002,24.4209919-9.9230003c0,0.0029993,0.0119991,0.0119991,0.0119991,0.0149994
	c0.144001,0.0360012,0.3000011,0.0690002,0.4799995,0.0690002c0.1800003,0,0.3120003-0.0209999,0.3239994-0.0239992
	c0.0179996-0.0060005,0.1079998-0.0390005,0.1079998-0.1140003c0-0.0209999-0.0059986-0.0360003-0.0179977-0.0539999
	c0.1110001,0.0120001,0.2399998,0.0179996,0.3840008,0.0179996c0.078001,0,0.1350002-0.0029993,0.1949978-0.0059996
	c-0.0059986-0.0150003-0.0149994-0.0299997-0.0059986-0.0419998c0.0150013-0.0209999,0.0419998-0.0270004,0.0629997-0.0120001
	c0.032999,0.0209999,0.0539989,0.0270004,0.0869999,0.0450001c0.0360012-0.0029993,0.0839996-0.0060005,0.0900002-0.0060005
	c0.0090008-0.0029993,0.0959988-0.032999,0.098999-0.1079998c0.0030022-0.0360003-0.0149994-0.0719995-0.0509987-0.1079998
	c0.441,0.0539999,0.9629993,0.033,0.9780006,0.0299997c0.0269985-0.0059996,0.0749969-0.033,0.0810013-0.0840006
	c0.0060005-0.0510006-0.0209999-0.1259995-0.2490005-0.2669992c0.152998,0.0239992,0.2999992,0.033,0.4379997,0.033
	c0.5099983,0,0.7830009-0.1500006,0.7920017-0.3000002c0.0029984-0.0299997-0.0060024-0.0840006-0.0749989-0.132
	C28.3899975-11,28.6840019-11.0599995,28.9960022-11.132l0.0149975-0.0419998
	c0.0090008,0.0030003,0.0419998,0.0090008,0.0810013,0.0180006c0.1079979-0.0270004,0.2129974-0.0539999,0.3210011-0.0840006
	c-0.0300007-0.0270004-0.0539989-0.0509996-0.0839996-0.0750008c-0.5400009,0.1410007-1.0830002,0.2580004-1.4309998,0.2580004
	L27.8919983-11.0419998z"/>
<path d="M24.9759979-5.4110003C24.9880009-5.237,25-5.0960002,25-5.0839996c0,0.0960002,0.1590004,0.1439996,0.4830017,0.1530004
	c0.1139984,0.0180001,0.1829987,0.0869994,0.2220001,0.1439996c0.0209999,0.0330005,0.0359993,0.0629997,0.045002,0.0900006
	c-0.1110001-0.0930004-0.2880001-0.1500006-0.3120003-0.1560001C25.432003-4.855999,25.4260025-4.855999,25.4200039-4.855999
	c-0.0150013,0-0.1469994,0.0120006-0.2010021,0.0900006c-0.0150032,0.0239983-0.0300026,0.0659981-0.0090027,0.1229982
	c0.0060005,0.0150003,0.0149994,0.0239997,0.0300007,0.0300007c0.1289997,0.0449996,0.2189999,0.1140003,0.2609997,0.2100005
	C25.552-4.2919984,25.5429993-4.144999,25.4709988-3.9559984c-0.0359974,0.0959988-0.1289978,0.1379986-0.198,0.1559987
	c0.0300007-0.0510006,0.0510006-0.1140003,0.0389977-0.177c-0.0089989-0.0479994-0.0389977-0.0869994-0.0899982-0.1110005
	c-0.0090008-0.0059996-0.0209999-0.0059996-0.032999-0.0029998C25.1589985-4.0850005,25.132-4.0789995,25.1079979-4.0789995
	c-0.2280006,0-0.2639999-0.2819996-0.2639999-0.2940001c0-0.0059996-0.0030022-0.0089993-0.0030022-0.0150003
	c-0.0149994-0.0330005-0.0569992-0.0839996-0.1259995-0.0839996c-0.0480003,0-0.1020012,0.0269995-0.1560001,0.0750003
	c-0.0119991,0.0120006-0.0179996,0.0300007-0.0150013,0.0419998c0.0510025,0.2459993,0.0360012,0.4379997-0.0479984,0.5579996
	c-0.0749989,0.1079993-0.177,0.1259995-0.1800022,0.1259995c-0.0179977,0.0029998-0.0329971,0.0150003-0.0359993,0.0300007
	c-0.0030022,0.0089993-0.0539989,0.1500006,0.0179977,0.2819996c-0.144001-0.0360003-0.1469994-0.1589999-0.1499996-0.2670007
	c0-0.0510006-0.0030003-0.0930004-0.0209999-0.1229997c-0.0090008-0.0089993-0.0179996-0.0150003-0.0300007-0.0180001
	c-0.0300007-0.0120006-0.1290016-0.1560001,0.0419998-0.5399995c0.0090008-0.0239997,0-0.0479994-0.0209999-0.0599999
	c-0.0029926-0.0029998-0.0119934-0.0029998-0.0179939-0.0029998c-0.0149994,0-0.0299988,0.0089993-0.0359993,0.0209999
	c-0.2580013,0.3959999-0.519001,0.2639995-0.519001,0.2639995c-0.0149994-0.0089993-0.0300007-0.0089993-0.0419998,0
	c-0.0149994,0.0059996-0.0240021,0.0209999-0.0270004,0.0360003c0,0.0059996-0.0119972,0.0869994,0.0090027,0.2160001
	c-0.1020012-0.1019998-0.1080017-0.1890006-0.1080017-0.4260006c-0.0300007-0.1439996-0.0090008-0.2579999,0.0569992-0.3389997
	c0.1529999-0.1829996,0.519001-0.1799998,0.7110023-0.1799998h0.0569992c0.0540009,0,0.0810013-0.0029998,0.0990009-0.0239997
	c0.0419998-0.0419998,0.0899982-0.1170001,0.0899982-0.1199999c0.0090027-0.0090008,0.0090027-0.0180001,0.0090027-0.0269995
	l-0.0330009-0.5219994c-0.0299988,0.0479994-0.053997,0.1049995-0.0839996,0.138l0.0240021,0.3720002
	c-0.0119991,0.0209999-0.0389977,0.0570002-0.0629997,0.0869994c-0.0060005,0-0.0179977,0-0.0389977,0h-0.0540009
	c-0.0269985,0-0.053997,0-0.0869999,0c-0.1620007,0-0.3509998,0.0360003-0.5129986,0.1110005
	c-0.0359993,0.0180001-0.0720005,0.0330005-0.1049995,0.0570002c-0.0270004,0.0180001-0.0629997,0.0209999-0.0839996,0.0419998
	c-0.0359993,0.0419998-0.0179977,0.1110005-0.032999,0.1680007c-0.0150013,0.0449996-0.0300007,0.0930004-0.0300007,0.1439996
	c0,0.0360003-0.0270004,0.0570002-0.0209999,0.099c0,0.3060007,0.0119991,0.4019995,0.2490005,0.5820007
	c0.0179977,0.0120006,0.0359993,0.0120006,0.0539989,0s0.0240002-0.0330005,0.0179996-0.0510006
	c-0.0330009-0.1079993-0.0389996-0.2009997-0.0389996-0.2550001c0.0839996,0.0209999,0.2399998,0.0300007,0.407999-0.1199999
	c-0.0389977,0.1649995-0.0209999,0.2700005,0.0119991,0.3330002c0.0179996,0.0360003,0.0389996,0.0629997,0.066,0.0809999
	c0.0030022,0.0180001,0.0030022,0.0449996,0.0030022,0.0689993c0.0030022,0.1290007,0.0090008,0.3690004,0.3360023,0.3690004
	h0.0149918c0.0209999,0,0.0359993-0.0120006,0.0419998-0.0330005c0.0059986-0.0180001,0.0030003-0.0360003-0.012001-0.0510006
	c-0.098999-0.0869994-0.0839996-0.2009997-0.0719986-0.2490005c0.0450001-0.0150003,0.1379967-0.0510006,0.2099991-0.1560001
	C24.5979996-3.776,24.5739994-3.8630009,24.5890007-3.914c0.0119972-0.0360003,0.0089989-0.0780001,0.0149994-0.1170001
	c0.0119991-0.1049995,0.0600014-0.177,0.0359993-0.3090005c0.0300026-0.0239997,0.0510025-0.0360003,0.0720024-0.0360003
	c0.0240002,0,0.0359993,0.0180001,0.0389977,0.0269995c0.0179977,0.1320004,0.1110001,0.3660007,0.3570023,0.3660007
	c0.0269985,0,0.053997-0.0029998,0.0839996-0.0089993c0.0209999,0.0150003,0.0240002,0.0300007,0.0269985,0.0360003
	c0.0119991,0.0599999-0.0539989,0.1589999-0.0810013,0.1859994C25.1259995-3.7550001,25.1229973-3.7340002,25.132-3.7220011
	c0.0089989,0.0180001,0.0269985,0.0269995,0.0419998,0.0269995c0.0299988,0,0.2939987-0.0059996,0.3809986-0.2280006
	c0.0839996-0.2130003,0.0930004-0.3839993,0.0300007-0.5219994c-0.0510006-0.1079993-0.1500015-0.1950002-0.2939987-0.2490005
	c-0.0030022-0.0150003,0.0030022-0.0239997,0.0060005-0.0269995c0.0209999-0.0300007,0.0839996-0.0419998,0.1199989-0.0479994
	c0.0779991,0.0269995,0.2609997,0.1019998,0.3180008,0.1859994c0.0059986,0.0120006,0.0269985,0.0419998,0.0629997,0.0419998
	c0.0089989,0,0.053997-0.0029998,0.0600014-0.0689993c0.0089989-0.1049995-0.0900002-0.3839993-0.3690014-0.4199996
	C25.1350002-5.039,25.0930004-5.0960002,25.0900002-5.0900006c0-0.0089993-0.0090027-0.1170001-0.0179996-0.2550001
	C25.0389977-5.3629994,25.0090008-5.3870006,24.9759979-5.4110003z"/>
<path d="M25.3089981-6.6649995c-0.0209999-0.0479994-0.0389977-0.0930004-0.0600014-0.1469994
	c-0.0869999-0.2340002-0.1800003-0.4949999-0.3599987-0.7769995c0.4169998,0.2819996,0.8669987,0.4500003,1.092001,0.4500003
	c0.1230011,0,0.1619987-0.0510006,0.1739998-0.0960002c0.0269985-0.1079993-0.1140022-0.2789998-0.3630028-0.5310001
	c0.4680023,0.3330002,1.0530014,0.612,1.5330009,0.5670004c0.0179977-0.0029998,0.0359993-0.0150003,0.0389977-0.0330005
	c0.0389977-0.1259995-0.1409988-0.2639995-0.3959999-0.4619994c-0.132-0.1019998-0.2580013-0.2100005-0.3659992-0.3179994
	c-0.0539989-0.0539999-0.1109982-0.1080008-0.144001-0.1620007c-0.0030003-0.0059996-0.0090008-0.0119991-0.0150013-0.0149994
	c0,0,0-0.0030003-0.0030003-0.0030003c-0.6120014-0.3780003-1.9589996-1.4759998-2.0160007-1.7189999
	c0-0.0030003-0.0119972-0.0120001-0.0119972-0.0150003c0-0.0089998-0.0030022-0.0180006-0.0090027-0.0239992
	c-0.0359993-0.045001-0.0629997-0.0720005-0.098999-0.1140003c-0.0689926-0.0840034-0.1349945-0.156003-0.2039948-0.2370024
	c0.1679993,0.1919994,0.3000031,0.3719997,0.321003,0.4259996C24.427-9.8540001,24.4420013-9.7820005,24.4570007-9.7279997
	C24.7810001-9.29,25.9450016-8.3899994,26.3859997-8.1140003c0.1020012,0.1740003,0.3270016,0.3449993,0.527998,0.4979997
	C27.0549984-7.5080013,27.2409992-7.3640003,27.2739983-7.289C26.454998-7.2470002,25.3419991-8.1350002,25.1049995-8.573
	c-0.0090008-0.0179996-0.0270004-0.0270004-0.045002-0.0240002c-0.0209999,0.0030003-0.0359993,0.0150013-0.0389977,0.0360012
	c-0.0359993,0.1229992,0.177,0.3389988,0.5250015,0.6809988c0.218998,0.2130003,0.5459995,0.5369997,0.5249996,0.6270003
	c-0.0030003,0.0120006-0.0300007,0.0239997-0.0839996,0.0239997c-0.2189999,0-0.7800007-0.2069993-1.2569981-0.5910001
	c-0.1259995-0.1649995-0.2820015-0.3239999-0.4560013-0.4740005c-0.0179996-0.0149994-0.0419998-0.0149994-0.0600014,0
	c-0.0179996,0.0150013-0.0209999,0.0419998-0.0060005,0.0600004C24.3249989-8.066,24.4780006-7.9100008,24.657999-7.7659998
	c0.2819996,0.3599997,0.4019985,0.6929998,0.5100002,0.987c0.0539989,0.1500006,0.1080017,0.2940001,0.177,0.4199996
	C25.5009995-6.1040001,25.6450005-6.0350008,25.75-5.987c0.0389977,0.0209999,0.0690002,0.0330005,0.0930004,0.0510006
	c-0.1109982,0.0180001-0.2580013-0.0869994-0.3840008-0.1799998c-0.0959988-0.0720005-0.1800003-0.1350002-0.2550011-0.1500006
	c-0.0119972-0.0029998-0.0240002,0-0.0359993,0.0059996c-0.0270004,0.0150003-0.0389977,0.039-0.0480003,0.0720005
	c-0.0329971,0.1469994,0.1710014,0.4589996,0.4139996,0.8189993c0.0389996,0.0570002,0.0839996,0.1199999,0.1109982,0.1649995
	c-0.230999-0.0360003-0.8999996-0.2490005-1.079998-0.948c-0.0060005-0.0209999-0.0240021-0.0360003-0.045002-0.0360003
	c-0.0030003,0-0.0059986,0-0.0089989,0c-0.0240021,0.0029998-0.0389996,0.0269995-0.0360012,0.0479994
	c0.0150013,0.2130003-0.1230011,0.6090002-0.2700005,0.7650003c-0.0179996,0.0209999-0.0360012,0.0360003-0.0510006,0.0419998
	c0.144001-0.7830005-0.1140003-1.2420001-0.6720009-2.2139997c0-0.0029998-0.0059986,0-0.0089989-0.0029998
	c0,0.0029998,0.0030003,0.0059996,0.0030003,0.0089993c0.0030003,0.0269995-0.0179996,0.0479994-0.0389996,0.0510006
	c0,0-0.0030003,0-0.0059986,0c-0.0209999,0-0.0300007-0.0180001-0.0360012-0.0360003l-0.0030003,0.1439996
	c-0.0119991,0.552-0.0240002,1.0319996-0.0749989,1.3859997c0,0.0059996,0,0.0150003,0.0030022,0.0209999
	c0.0719986,0.2160001,0.0719986,0.2550001,0.0810013,0.3959999c0,0.0269995,0.0030003,0.0510006,0.0059986,0.0839996
	c-0.1860008-0.138-0.3959999-0.4829993-0.4919987-0.6420007c-0.0119991-0.0180001-0.032999-0.0269995-0.0480003-0.0209999
	c-0.0209999,0.0059996-0.0359993,0.0209999-0.0359993,0.039c-0.0359993,0.3510003-0.375,0.8369994-0.5009995,0.8369994h-0.0030022
	c-0.0059986-0.0510006,0.0270004-0.2429996,0.0540009-0.4080005c0.0359993-0.1890006,0.0749969-0.4290004,0.0959969-0.6480002
	c0.0179996-0.1140003,0.0209999-0.237,0.012001-0.3599997c-0.0030022-0.0269995-0.0030022-0.0510006-0.0060005-0.0750003
	c-0.0030022-0.0269995-0.0240021-0.0419998-0.0510006-0.039s-0.0419998,0.0269995-0.0389996,0.0510006
	c0.0030022,0.0239997,0.0060005,0.0479994,0.0060005,0.0689993c0.0060005,0.0960002,0.0030022,0.2100005-0.0119991,0.3419995
	c-0.066,0.4860005-0.3449993,0.7559996-0.4589996,0.8129997c0.0450001-0.1680007,0.0749989-0.3239994,0.1020012-0.4799995
	c0.0240002-0.1259995,0.0419998-0.2490005,0.0720005-0.3599997c0.0359993-0.1320004,0.0839996-0.2550001,0.1230011-0.3690004
	c0.0389977-0.1079993,0.0779991-0.2009997,0.0930004-0.2789998c0.0030003-0.0239997-0.0090008-0.0449996-0.032999-0.0510006
	c-0.0240021-0.0089993-0.045002,0.0029998-0.0569992,0.0239997c-0.0480003,0.099-0.1410007,0.2160001-0.2130013,0.2999997
	c0-0.0029998,0.0030022-0.0059996,0.0030022-0.0089993c0.0359993-0.1229997,0.0359993-0.1619997,0.0240002-0.1950002
	c-0.0030003,0-0.0059986,0.0029998-0.0090008,0.0029998c-0.0090008,0-0.0179977-0.0029998-0.0270004-0.0089993
	c-0.0209999-0.0120006-0.0209999-0.0360003-0.0119972-0.0570002c-0.012001,0-0.0209999,0.0029998-0.0330009,0.0120006
	c-0.066,0.0449996-0.3330002,0.1110005-0.6419983,0.1110005c-0.2459984,0-0.6779995-0.0419998-0.8730011-0.3270006
	c0.0240021-0.0839996,0.2639999-0.2700005,0.7590008-0.513c0.0539989-0.0239997,0.1560001-0.0629997,0.1889992-0.0839996
	c0.0179996-0.0120006,0.032999-0.0360003,0.0269985-0.0540004c-0.0059986-0.0209999-0.0240002-0.0360003-0.0450001-0.0360003
	c-0.0090008,0-0.0269985,0-0.2040005,0.0900006c-0.3209991,0.1290007-1.2509995,0.4619994-1.6919994,0.4619994
	c-0.0990009,0-0.1169987-0.0209999-0.1410007-0.0360003c-0.0059986-0.0029998-0.0359993-0.0059996-0.0359993-0.0089993
	c-0.0030022-0.0029998-0.0030022-0.0150003-0.0060005-0.0180001c-0.0030003-0.0089993-0.0089989-0.0120006-0.0059986-0.0300007
	c0-0.0089993,0-0.0180001-0.0030003-0.0269995c0.0359993-0.0750003,0.3899994-0.3239994,1.0949974-0.7170005
	c0,0,0.0030022,0,0.0030022-0.0029993c0.0030022,0,0.0030022-0.0030003,0.0030022-0.0030003l0,0
	c0.0149994-0.0120001,0.0299988-0.0360003,0.0240002-0.0509996c-0.0090008-0.0299997-0.0419998-0.0419998-0.066-0.0299997
	c-0.0150013,0.0089998-0.2970009,0.1470003-0.5460014,0.2699995c-0.2729988,0.1350002-0.5489998,0.2730002-0.5699997,0.2849994
	c-0.0329971,0.0150003-0.4259987,0.1290007-0.7199974,0.1290007c-0.1170006,0-0.2010021-0.0180001-0.2490005-0.0510006
	c0.1049995-0.0689993,0.4439983-0.2520003,0.7709999-0.4290004c0.7229996-0.3900003,1.1369972-0.6210003,1.3740005-0.7709999
	c0.0600014-0.0780001,0.1559982-0.1830006,0.2399979-0.2849998c-0.0059986-0.0030003-0.0089989-0.0120001-0.0149994-0.0120001
	c-0.0209999,0.0030003-0.0359993,0.0179996-0.0389977,0.0360003c-0.0810013,0.1110001-1.2060013,0.7260008-1.953001,1.1099997
	c-0.0360012,0.0209999-0.5459995,0.1740003-0.9570007,0.1740003c-0.1679993,0-0.2880001-0.0269995-0.3690014-0.0720005
	c0.0720024-0.0540004,0.2850018-0.1740003,0.4589996-0.27c0.6660004-0.3719997,0.8640022-0.5039997,0.8190002-0.6119995
	c-0.0060005-0.0150003-0.0179977-0.0240002-0.032999-0.0270004c-0.0150013-0.0029993-0.0300007,0-0.0389996,0.0089998
	c-0.5639992,0.4770002-1.0049992,0.6120005-1.3619976,0.6750002c-0.2430019,0.0360003-0.4799995,0.0360003-0.6420002,0.0029993
	c-0.2789993-0.0570002-0.4679985-0.1919994-0.5340004-0.2519999c0.045002-0.0150003,0.1290016-0.0360003,0.2099991-0.0600004
	c0.342001-0.0929995,0.8580017-0.2340002,1.0139999-0.4259996c0.0150013-0.0150003,0.0150013-0.0360003,0.0030022-0.0539999
	c-0.0090008-0.0089998-0.032999-0.0150003-0.0480003-0.0089998c-0.6450005,0.198-1.2179995,0.3000002-1.7069998,0.3000002
	c-0.6540012,0-0.9749994-0.1860008-1.0469999-0.2700005c0.0570002-0.0119991,0.1710005-0.0239992,0.2490005-0.0299997
	c0.1619997-0.0180006,0.2249994-0.0239992,0.2519989-0.0360003c0.0300007-0.0150003,0.3239994-0.1110001,0.5880003-0.1949997
	c0.7259989-0.2370005,0.7650003-0.2520008,0.783-0.2730007c0.0149994-0.0150003,0.0179977-0.0360003,0.0089989-0.0509996
	c-0.0089989-0.0180006-0.0269985-0.0299997-0.0450001-0.0299997c-0.0179996,0-0.0450001,0.0089998-0.1949978,0.0479994
	c-0.3690014,0.1020002-1.2360001,0.3330002-1.7910013,0.3330002c-0.0300007,0-0.0570002,0-0.0839996-0.0029993
	c-0.6960011-0.0390005-1.0500011-0.2520008-1.125-0.3299999c0.0600014-0.0209999,0.2220011-0.0419998,0.474-0.0719995
	c0.032999-0.0030003,0.0570002-0.0060005,0.0689993-0.0089998c0.0810013-0.0060005,1.5030012-0.4140005,1.5720005-0.4710007
	c0.0150003-0.0120001,0.0269995-0.0389996,0.0209999-0.0599995c-0.0059996-0.0180006-0.0360003-0.0360012-0.0539989-0.0360012
	c-0.0510006,0-0.2249994,0.0480003-0.5040007,0.1260004c-0.2640009,0.0750008-0.5639992,0.1590004-0.6540012,0.165
	c-0.1379986,0.0090008-0.2669992,0.0120001-0.3929987,0.0120001c-0.8909998,0-1.1610003-0.1949997-1.2359991-0.2789993
	c-0.0209999-0.0209999-0.0300007-0.0360003-0.032999-0.0480003c0.0959988-0.0270004,0.420001-0.0690002,0.5369997-0.0690002
	c0.0090008,0,0.0150003,0,0.0209999,0c0.0150003,0.0030003,0.0360003,0,0.1230011-0.0120001
	c0.0600014-0.0059996,0.1590014-0.0239992,0.3000011-0.0509996c0.0059996,0,0.6240005-0.1140003,0.651-0.131999
	c0.0179987-0.0120001,0.0269995-0.0360012,0.0209999-0.0539999c-0.0059996-0.0209999-0.0300007-0.0360003-0.0479994-0.0360003
	c-0.0269995,0-0.1080008,0.0179996-0.3179998,0.0629997c-0.1049995,0.0239992-0.2189999,0.0450001-0.3239994,0.0690002
	c-0.1109991,0.0209999-0.2189999,0.0389996-0.2939987,0.0479994c-0.0119991,0-0.0240011,0.0030003-0.032999,0.0030003
	l-0.0150003-0.0030003c-2.2559996-0.4859991-2.8619986-1.2389994-3.0179987-1.5389996
	c-0.0539989-0.1080008-0.0629997-0.1740007-0.0600014-0.198c0.0300007,0.0120001,0.0870008,0.0570002,0.1409998,0.1019993
	c0.1109991,0.0900002,0.2669992,0.21,0.4859991,0.3240004c0.3480005,0.132,0.894001,0.3330002,1.6140003,0.6000004
	c0.4260006,0.1709995,0.8160009,0.3120003,1.1490011,0.4169998c0.0269995,0.0089998,0.0570002-0.0090008,0.0600014-0.0360003
	c0.0030012-0.0209999,0.0059996-0.0299997-0.0360003-0.0480003V-10.691
	c-0.0330191-0.0030003-0.0450182-0.0090008-0.0600185-0.0090008c-0.045001-0.0209999-0.1199999-0.0450001-0.2399998-0.0899992
	c-0.2130003-0.0780001-0.5250006-0.1890001-0.8640003-0.3150005c-0.4110003-0.165-0.7860003-0.3240004-1.0350008-0.4320002
	c-0.1199999-0.0509996-0.2189999-0.0929995-0.276-0.1169996c-0.4019995-0.1710005-0.7559996-0.6270008-0.8520012-0.8909998
	c-0.0209999-0.0749998-0.0179987-0.1049995-0.0179987-0.1079998c0.0629997,0,0.2519989,0.1409988,0.4350014,0.2759991
	c0.2669992,0.198,0.5999994,0.4470005,0.9000006,0.5550003c0.0300007,0.0089998,0.2280006,0.0869999,0.5100002,0.1919994
	c0.0870008,0.0360003,0.1920004,0.0750008,0.3120003,0.1170006c2.0219994,0.7709999,2.1960011,0.8280001,2.2199993,0.8280001
	c0.0209999,0,0.0360003-0.0120001,0.0419998-0.0299997c0.0059996-0.0120001,0.0030012-0.0300007,0-0.0360012
	c-0.0240011-0.0479994-0.1860008-0.1169996-1.368001-0.54c-0.3060007-0.1079998-0.6119986-0.2189999-0.8609991-0.3120003
	l-0.3120003-0.1169996c-0.1379986-0.0539999-0.1860008-0.0810003-0.2130003-0.0960007
	c-0.8880014-0.3509998-1.1970005-0.993-1.2929993-1.2539997c-0.0689993-0.1949997-0.0780001-0.3330002-0.0689993-0.375
	c0.0810013,0.0179996,0.2669992,0.1890001,0.420001,0.3299999c0.1949987,0.1799994,0.3809996,0.3479996,0.506999,0.3869991
	c0.1560001,0.1380005,0.6839991,0.3720007,3.2819996,1.4550009c0.0119991,0.0029993,0.0240011,0.0060005,0.0360003,0
	c0.0179987-0.0060005,0.0300007-0.0239992,0.032999-0.0419998c0-0.0150003,0-0.0239992-0.0300007-0.0419998v0.0030012
	c-0.0059996-0.0030003-0.0090008-0.0030003-0.0150003-0.0060005c-0.0749989-0.0419998-0.2850008-0.1350002-0.849-0.3839998
	c-0.4709988-0.2069998-1.0050001-0.441-1.1190004-0.5010004c-0.2340002-0.132-1.3890009-1.1879997-1.2089996-1.5749989
	c0.0570002,0.0059996,0.2130003,0.0959997,0.3780012,0.1889992c0.2519989,0.144001,0.5610008,0.3240004,0.8790007,0.4320002
	c0.927,0.375,1.842001,0.7560005,2.8590002,1.302c0.0090008,0.0030003,0.0150003,0.0030003,0.0240011,0.0030003
	c-0.0179987-0.0150003-0.0300007-0.0360003-0.0179987-0.0509996c0.0090008-0.0180006,0.0300007-0.0209999,0.0479994-0.0180006
	c-0.0119991-0.0360003-0.0570002-0.0929995-0.2729988-0.3059998c-0.2010012-0.198-0.6750011-0.6630001-0.6569996-0.7530003
	l0.0119991-0.0059996c0,0,0.0030012-0.0030003,0.0150003-0.0030003c0.1169987,0,0.4680004,0.1619997,0.9060001,0.3660002
	c0.6750002,0.3120003,1.5929995,0.7379999,2.5050001,0.9779997c0.0720005,0.0120001,0.1590023,0.0240002,0.2580013,0.0360003
	c0.7229996,0.1050005,2.073,0.2939997,2.6100006,0.5339994c0.0240002,0.0090008,0.0479984,0,0.0600014-0.0209999
	c0.0119972-0.0209999,0.0059986-0.0450001-0.0150013-0.0599995c-0.0899982-0.0599995-0.1230011-0.0900002-0.1499996-0.1110001
	c-0.0030022-0.0029993-0.0060005-0.0029993-0.0090027-0.0060005c0.3509998-1.5209999,1.3920002-1.6859999,1.8240013-1.6859999
	c0.4709969,0,0.8459969,0.1710005,1.0079994,0.3389997c0.0090027,0.0090008,0.0179996,0.0150003,0.0300026,0.0150003
	c0.7679977,0.0719995,0.9059982,0.2699995,0.9209995,0.3839998c0.0150013,0.1230001-0.1049995,0.2580004-0.2189999,0.3299999
	c0.0060005-0.066-0.0060005-0.1229992-0.0359993-0.1739998c-0.0750008-0.1170006-0.2460003-0.1470003-0.4080009-0.1740007
	c-0.0359993-0.0059996-0.0719986-0.0120001-0.1020012-0.0179996c-0.0689983-0.0240002-0.1379967-0.0480003-0.2070007-0.0719995
	c-0.0240002-0.0090008-0.0450001,0.0029993-0.0569992,0.0239992s-0.0030022,0.0450001,0.0149994,0.0600004
	c0.0660019,0.0450001,0.156002,0.066,0.2190018,0.0779991l0.0569992,0.0209999
	c0.0480003,0.0180006,0.0959988,0.0360012,0.144001,0.0480003c-0.0359993,0.0060005-0.0660019,0.0060005-0.1080017,0.0060005
	c-0.0450001,0-0.1020012,0.0030003-0.1739979,0.0120001c-0.0749989,0.0089998-0.3299999,0.0599995-0.4589996,0.2939997
	c-0.0990009,0.177-0.0749989,0.408,0.0360012,0.684c0.0479984,0.0539999,0.098999,0.1079998,0.1679993,0.1590004
	c-0.012001-0.0180006-0.0179996-0.033-0.0240021-0.045001c-0.0090008-0.0209999-0.0300007-0.0450001-0.032999-0.0629997
	c0-0.0029993-0.0030003-0.0120001-0.0059986-0.0150003c-0.1290016-0.2819996-0.1500015-0.5100002-0.0600014-0.6749992
	c0.1079998-0.1919994,0.3239975-0.2370005,0.3869972-0.2460003c0.0690002-0.0060005,0.1200008-0.0089998,0.1650009-0.0089998
	c0.0960007-0.0030003,0.1650009-0.0060005,0.2729988-0.0539999c0.012001-0.0060005,0.0209999-0.0150003,0.0240021-0.0240002
	c0.032999,0.0180006,0.0539989,0.0360012,0.0720005,0.0600004c0.0300007,0.0450001,0.032999,0.1079998,0.0059986,0.1919994
	c-0.0059986,0.0180006,0,0.0360003,0.012001,0.045001c0.0119972,0.0119991,0.0329971,0.0149994,0.0450001,0.0089998
	c0.144001-0.0480003,0.3840008-0.2489996,0.3570004-0.4679995c-0.0059986-0.0419998-0.0689983-0.0660009-0.0929985-0.1020002
	c-0.0060005-0.0120001-0.0179996-0.0209999-0.0270004-0.0299997c-0.1259995-0.1619997-0.3810005-0.2820005-0.8699989-0.3299999
	c-0.2130013-0.2250004-0.6360016-0.3689995-1.059-0.3689995c-0.4589996,0-1.5600014,0.1739998-1.9200001,1.7849998
	c0,0.0060005-0.0030022,0.0120001,0,0.0179996c-0.6390018-0.2009993-1.7519989-0.3599987-2.3850021-0.4499998
	c-0.098999-0.0150003-0.1860008-0.0270004-0.2519989-0.0360003c-0.8999996-0.2399998-1.8179989-0.6630001-2.4839993-0.9720001
	c-0.4859991-0.2249994-0.8100014-0.375-0.948-0.375c-0.0269995,0-0.0479994,0.0060005-0.0660009,0.0180006
	c-0.0269995,0.0120001-0.0419998,0.0360003-0.0479994,0.0600004c-0.0240011,0.1229992,0.198,0.3689995,0.6810007,0.8399992
	c0.0360003,0.0360003,0.0780001,0.0750008,0.1109991,0.1110001c-0.9329996-0.4860001-1.7879992-0.8400002-2.6519995-1.191
	c-0.3120003-0.1080008-0.618001-0.2820005-0.8669987-0.4259996c-0.230999-0.132-0.3540001-0.2010002-0.4289989-0.2010002
	c-0.0360003,0-0.0570002,0.0179996-0.0689993,0.0360003c-0.2159986,0.408,0.6960011,1.2930002,1.0949993,1.6079998
	c-0.7800007-0.3330002-1.0080013-0.4530001-1.092001-0.5310001c-0.0059996-0.0059996-0.0150003-0.0120001-0.0240011-0.0120001
	c-0.1020012-0.0209999-0.3000011-0.2039995-0.474-0.3659992c-0.2580013-0.2399998-0.420001-0.3780003-0.5219994-0.3479996
	c-0.0059996,0.0029993-0.0150003,0.0059996-0.0179987,0.0119991c-0.0479994,0.0419998-0.0360003,0.1650009-0.0209999,0.2580004
	c0.0600014,0.329999,0.2729988,0.7589998,0.6839991,1.1099997c-0.1469994-0.098999-0.2939987-0.2039995-0.420001-0.2999992
	c-0.2580013-0.1919994-0.3990011-0.2940006-0.4890003-0.2940006c-0.0209999,0-0.0360003,0.0060005-0.0479994,0.0120001
	C9.8530006-12.7189999,9.8260012-12.6919994,9.8289995-12.632c0.0119991,0.1950006,0.3179998,0.6750002,0.7230005,0.9419994
	c-0.0179987-0.0059996-0.0360003-0.0149994-0.0510006-0.0209999c-0.2070007-0.1079998-0.3570013-0.2249994-0.4680004-0.3120003
	c-0.099-0.0719995-0.1529989-0.1169996-0.2069979-0.1169996c-0.0209999,0-0.0360003,0.0060005-0.045001,0.0150003
	c-0.0240011,0.0150003-0.0479994,0.0509996-0.032999,0.1350002c0.0090008,0.0450001,0.2099991,1.0709991,2.8709993,1.7069998
	c-0.177,0.0180006-0.3959999,0.0480003-0.4139986,0.0960007c-0.0150003,0.0360003-0.0030012,0.0809994,0.0269995,0.1260004
	c0.0689993,0.1049995,0.3360014,0.3449993,1.3320007,0.3449993c0.1080008,0,0.2189999-0.0029993,0.3360014-0.0089998
	c-0.1739988,0.0480003-0.3029995,0.0840006-0.329999,0.0869999c-0.0150003,0.0030003-0.0389986,0.0060005-0.0689993,0.0089998
	c-0.4890003,0.0539999-0.5489988,0.0840006-0.5670004,0.1290007c-0.0090008,0.0239992-0.0030012,0.0450001,0.0150003,0.0719995
	c0.0720005,0.1079998,0.4649992,0.3450003,1.2060013,0.3900003c0.2850008,0.0150003,0.6689987-0.0450001,1.0290012-0.1199999
	c-0.2669992,0.0900002-0.3239994,0.1079998-0.3330002,0.1140003c-0.0209999,0.0089998-0.1350002,0.0209999-0.2189999,0.0299997
	c-0.2819996,0.0299997-0.3239994,0.0360003-0.342001,0.0750008c-0.0090008,0.0179996-0.0119991,0.0419998,0.0119991,0.0809994
	c0.0570002,0.0929995,0.3780012,0.3299999,1.1369991,0.3299999c0.4229994,0,0.9060001-0.0749998,1.4429989-0.2189999
	c-0.2159977,0.099-0.5159988,0.1799994-0.7199974,0.2370005c-0.2580023,0.0719995-0.3000021,0.0809994-0.3000021,0.1259995
	c-0.0119991,0.0869999,0.2879992,0.3000002,0.6300001,0.3689995c0.1710014,0.0360007,0.420002,0.0360007,0.6750011-0.0029993
	c0.0869999-0.0150003,0.177-0.0360003,0.2729988-0.0629997c-0.198,0.1140003-0.2399998,0.1530004-0.2430019,0.1890006
	c-0.0030003,0.0150003,0.0060005,0.0360003,0.0179996,0.0449996c0.0930004,0.0780001,0.2490005,0.1170001,0.4619999,0.1170001
	c0.230999,0,0.4950008-0.0449996,0.6930008-0.0930004c-0.2519989,0.1439996-0.2459984,0.1589999-0.2220001,0.2009997
	c0.053997,0.0809999,0.1709995,0.1199999,0.3540001,0.1199999c0.3089981,0,0.7290001-0.1199999,0.7619972-0.1409998
	c0.0090027-0.0059996,0.0690002-0.0360003,0.1590023-0.0780001c-0.1499996,0.1079993-0.2280006,0.1859994-0.2339993,0.2399998
	c-0.0030022,0.0150003,0,0.0269995,0.0059986,0.0360003c0,0.039,0.0119991,0.0750003,0.0360012,0.1019998
	c0.0419998,0.0479994,0.1230011,0.0750003,0.2490005,0.0750003c0.2910004,0,0.7740002-0.1350002,1.1759987-0.2670007
	C20.4820042-7.4209991,20.3560028-7.3039989,20.3560028-7.211c0,0.0089993,0.0030003,0.0180001,0.0089989,0.0269995
	c0.2069988,0.336,0.6869984,0.3840008,0.9539986,0.3840008c0.2639999,0,0.5099983-0.0449996,0.6359978-0.099
	c-0.0089989,0.0360003-0.0209999,0.0809999-0.0299988,0.1140003c-0.0360012,0.1290007-0.045002,0.1680007-0.0240021,0.1950002
	c0.0090008,0.0120006,0.0270004,0.0209999,0.0389977,0.0209999c0.0060005,0,0.0179996-0.0029998,0.0240021-0.0059996
	c0.0209999-0.0089993,0.0839996-0.0720005,0.1529999-0.1560001c-0.0360012,0.1019998-0.0810013,0.2130003-0.1080017,0.3330002
	c-0.032999,0.1170001-0.0510006,0.2399998-0.0749989,0.3690004c-0.0300007,0.1649995-0.0570011,0.336-0.1109982,0.5219994
	c-0.0060005,0.0300007,0.0089989,0.0479994,0.0149994,0.0570002c0.0119991,0.0150003,0.032999,0.0239997,0.0539989,0.0239997
	c0.0869999,0,0.2759991-0.1350002,0.4200001-0.3959999c-0.0089989,0.0419998-0.0149994,0.0839996-0.0209999,0.1229997
	c-0.066,0.3809996-0.0749969,0.4650006-0.0269985,0.5009995C22.2849979-5.1829996,22.3029976-5.177,22.3269978-5.177
	c0.0179996,0,0.0389996-0.0209999,0.0600014-0.0300007C22.4230003-5.2220011,22.4650002-5.243001,22.507-5.2850008
	c0.1590004-0.1500006,0.3269997-0.4379997,0.3929977-0.6900001c0.045002,0.0750003,0.1080017,0.1649995,0.1739998,0.2490005
	c0.0329971,0.0419998,0.053997,0.0809999,0.0869999,0.1170001c0.0930004,0.1079993,0.1860008,0.2069993,0.2819996,0.2520003
	c0.0060005,0.0029998,0.0179977,0.0029998,0.0209999,0.0029998c0.0270004,0,0.0480003-0.0209999,0.0480003-0.0449996
	c0-0.0059996,0-0.0120006-0.0030022-0.0180001C23.5030022-5.4799995,23.5-5.5280004,23.5-5.573
	c-0.0060005-0.1350002-0.0090008-0.1890006-0.0810013-0.4080005c0.0480003-0.3540001,0.0600014-0.8250003,0.0720005-1.3649998
	c0.5400009,0.9539995,0.7139988,1.3530006,0.5639992,2.0670004c-0.0059986,0.0239997,0.0090008,0.0449996,0.0300007,0.0510006
	c0.0600014,0.0239997,0.1259995-0.0029998,0.1949997-0.0750003c0.0059986-0.0059996,0.0089989-0.0209999,0.0149994-0.0269995
	c0.0300007-0.0360003,0.0569992-0.0900006,0.0839996-0.138c0.0749989-0.1350002,0.144001-0.2910004,0.177-0.4500003
	c0.1049995,0.2340002,0.2609997,0.3870006,0.4289989,0.5070004c0.032999,0.0239997,0.0660019,0.0479994,0.098999,0.0689993
	c0.276001,0.1710005,0.5489998,0.237,0.6269989,0.237l0,0c0.012001,0,0.0389996,0,0.0570011-0.0269995
	c0.0030003-0.0059996,0.0059986-0.0150003,0.0059986-0.0209999c0.0030022-0.0330005-0.0209999-0.0720005-0.1559982-0.2670007
	C25.4709969-5.6359997,25.1949959-6.0379992,25.2189941-6.164c0.0510006,0.0209999,0.1199989,0.0720005,0.1889992,0.1229997
	c0.1259995,0.0960002,0.2669983,0.2009997,0.407999,0.2009997c0.0450001,0,0.0869999-0.0120006,0.1259995-0.0330005
	c0.0240002-0.0120006,0.032999-0.0360003,0.0209999-0.0599999c-0.0360012-0.0780001-0.1020012-0.1079993-0.1709995-0.138
	c-0.1020012-0.0449996-0.2280006-0.1049995-0.3660011-0.3330002c-0.0089989-0.0180001-0.0149994-0.039-0.0240002-0.0570002
	C25.3659992-6.5239997,25.3360023-6.5930004,25.3089981-6.6649995z"/>
<path d="M23.7490005-10.6700001c0.098999,0.0929995,0.1949997,0.1919994,0.2849998,0.2939997
	C23.9350014-10.4840002,23.842001-10.5860004,23.7490005-10.6700001z"/>
<path d="M17.3380013-9.4070005c-0.0240021-0.0059996-0.045002-0.0150003-0.0690002-0.0209999
	c0.2550011-0.1079998,0.407999-0.2069998,0.7409992-0.4169998c0.1650009-0.1050005,0.375-0.2399998,0.6660004-0.4139996
	c0.0240002-0.0150003,0.0300007-0.0390005,0.0150013-0.0629997c-0.012001-0.0240002-0.0389996-0.0299997-0.0629997-0.0180006
	c-0.6119995,0.3450003-1.4910011,0.573-1.9860001,0.5279999c0.2099991-0.1170006,0.6389999-0.3839998,1.2840004-0.7950001
	c0.0060005-0.0029993,0-0.0119991,0.0030022-0.0149994c-0.0030022,0-0.0270004-0.0060005-0.0270004-0.0060005
	c-0.0179977-0.0060005-0.0299988-0.0209999-0.0329971-0.0360003c-0.0030022-0.0089998,0.0059986-0.0180006,0.0089989-0.0270004
	c0,0,0,0-0.0030003,0c-0.0209999,0.0120001-0.5219994,0.2550001-0.7259998,0.4259996
	c-0.1650009,0.1350002-0.8279991,0.1740007-1.0410004,0.1380005c0.1590023-0.1050005,0.4410019-0.375,0.6810017-0.6149998
	C16.9179993-10.8529997,17.0410004-11,17.0769997-11.0419998l-0.0299988-0.0120001
	c-0.0209999-0.0089998-0.0330009-0.0269995-0.0300026-0.0450001c0-0.0150003,0.0150013-0.0239992,0.0270004-0.0299997
	c-0.0030022,0.0029993-0.0090008-0.0030003-0.0119991,0c-0.1049995,0.1079998-0.2099991,0.2189999-0.3149986,0.3239994
	c-0.032999,0.0300007-0.0629997,0.0510006-0.0930004,0.0660009c-0.1290016,0.0689993-0.8160009,0.1140003-1.1099997,0.0269995
	c0.342001-0.1409988,0.7380018-0.54,0.7559996-0.5579996c0.0149994-0.0150003,0.0179977-0.0390005,0.0060005-0.0570002
	c-0.012001-0.0180006-0.0360012-0.0270004-0.0540009-0.0209999c-0.0059986,0.0029993-0.6779985,0.2279997-0.9720001,0.0690002
	c-0.0389986-0.0240002-0.0720005-0.0480003-0.0930004-0.0840006C15.625-11.3719997,15.9790001-11.6150007,16-11.6270008
	c-0.0389986-0.0179996-0.0720005-0.032999-0.1109991-0.0450001c-0.0839996,0.0510006-0.3900003,0.2340002-0.8010006,0.2189999
	c-0.0150003,0-0.0300007,0.0060005-0.0360003,0.0180006c-0.0090008,0.0120001-0.0119991,0.0269995-0.0090008,0.0389996
	c0.0240011,0.0900002,0.0810013,0.1560001,0.1650009,0.2010002c0.2280006,0.1199999,0.6209993,0.0479994,0.8549995-0.0120001
	c-0.1710005,0.1529999-0.4620008,0.3900003-0.6839991,0.441c-0.0179987,0.0030003-0.032999,0.0180006-0.0360003,0.0360003
	c-0.0030012,0.0180006,0.0030012,0.0360003,0.0179987,0.045001c0.1920004,0.1469994,0.8520021,0.1259995,1.1639986,0.0689993
	c-0.2519989,0.2489996-0.4620018,0.4320002-0.5129986,0.4410009c-0.0240011-0.0030003-0.045001,0.0149994-0.0479994,0.0389996
	c-0.0030012,0.0150003-0.0030012,0.0480003,0.0420008,0.0750008c0.1079998,0.0599995,0.5550003,0.0539989,0.8849983-0.0120001
	c-0.2129993,0.131999-0.375,0.2279997-0.4019985,0.2369995c-0.0240002,0-0.0419998,0.0180006-0.0450001,0.0390005
	c-0.0030022,0.0239992,0.0119972,0.0450001,0.0359993,0.0509996c0.3780022,0.0929995,0.9959984-0.0270004,1.5480003-0.2279997
	C18.0009995-9.9559994,17.9799995-9.941,17.9529991-9.9289989c-0.3809986,0.2399998-0.5219994,0.3299999-0.8549995,0.4650002
	c-0.0209999,0.0089998-0.0329971,0.0270004-0.0299988,0.0450001c0.0030003,0.0209999,0.0179977,0.0360003,0.0359993,0.0389996
	c0.0690002,0.0150013,0.132,0.0360012,0.198,0.0510006c0.3449993,0.1049995,0.7020016,0.2099991,1.9289989-0.2730007
	c-0.3089981,0.21-0.6330013,0.4050007-0.9599991,0.6000004c-0.0090008,0.0060005-0.0149994,0.0120001-0.0179977,0.0179996
	c-0.0060005,0.0120001-0.0240021,0.0539999,0.0359993,0.1020002c0.0510006,0.0390005,0.2189999,0.1050005,0.4770012,0.1050005
	c0.420002,0,1.0739994-0.1740007,1.8390007-0.9029999v-0.0060015c-0.012001-0.0209999-0.0330009-0.0419998-0.0419998-0.0629997
	c-0.0090027,0.0029993-0.0179996-0.0060005-0.0240021,0C20.5330009-9.743,20.5270023-9.7399998,20.5210037-9.7369995
	c-0.9120007,0.8640003-1.644001,0.8909988-1.9169998,0.8579998c-0.1290016-0.0150003-0.2099991-0.0450001-0.2490005-0.066
	c0.5429993-0.3240004,1.0860004-0.6720009,1.5479984-1.0500002c0.0209999-0.0180006,0.0450001-0.0299997,0.066-0.0450001
	c0.2610016-0.2040005,0.4080009-0.3690004,0.5009995-0.4800005c0.0179996-0.0750008,0.0389996-0.1289997,0.0600014-0.1859999
	c-0.0119972,0.0029993-0.0240002-0.0060005-0.0299988,0.0029993c-0.1620007,0.198-0.3509998,0.3870001-0.5610008,0.5669994
	c-0.0389996,0.0360012-0.1080017,0.0600004-0.156002,0.0960007c-0.1739979,0.1260004-0.3509979,0.2550001-0.5820007,0.3540001
	C18.0159988-9.2059994,17.6679993-9.3080006,17.3380013-9.4070005z"/>
<path d="M23.5660019-8.3240004c-0.1529999-0.1229992-0.2400017-0.2639999-0.3060017-0.3870001
	C23.2449989-8.7379999,23.2270012-8.75,23.2180004-8.7740002c-0.0510006-0.1079998-0.078001-0.198-0.078001-0.198
	c-0.0059986-0.0269995-0.0299988-0.0389996-0.053997-0.0359993c-0.0270004,0.0059996-0.0389996,0.032999-0.0360012,0.0539989
	c0.0030003,0.0180006,0.0959988,0.3990002,0.4589996,0.6960011c0.1499996,0.1229992,0.2280006,0.243,0.2790012,0.3389993
	c0.0119991,0.0209999,0.0270004,0.0330005,0.0359993,0.0510006c0.0360012,0.0839996,0.0510025,0.1530004,0.0510025,0.1530004
	c0.0030003,0.0239997,0.0240002,0.0419998,0.0450001,0.0419998c0,0,0.0030003,0,0.0059986,0
	C23.9530029-7.6759992,23.9680023-7.6999989,23.9680023-7.724C23.9589996-7.7329993,23.9289989-8.0270004,23.5660019-8.3240004z"/>
<path d="M23.1940002-11.1470003c-0.1439991-0.1619997-0.2340012-0.3089991-0.2340012-0.3120003
	c-0.0090008-0.0239992-0.0359993-0.0360003-0.0600014-0.0299997c-0.0240021,0.0089998-0.0359993,0.0360003-0.0300007,0.0599995
	c0.0030003,0.0090008,0.1020012,0.1710005,0.2519989,0.342001c0.0780029,0.0869999,0.135004,0.1710005,0.255003,0.243
	c0.3570023,0.21,0.9090004,0.8909998,0.9510002,1.0020008c0.0389996,0.1440001,0.2040005,0.9719992,0.2280006,1.2119999
	c0.0030022,0.0270004,0.012001,0.0780001,0.0090027,0.0900002c-0.0030022,0.0269995,0.0149994,0.0479994,0.0359993,0.0509996
	c0.0030022,0,0.0060005,0,0.0060005,0c0.0240002,0,0.0419998-0.0180006,0.0450001-0.0390005
	c0.0179996-0.1079998-0.1350002-0.8789997-0.2070007-1.1940002c-0.0119991-0.0539989-0.0300007-0.1289997-0.0360012-0.1469994
	c-0.0209999-0.0570002-0.152998-0.2340002-0.3209991-0.4260006c-0.0240021-0.0269995-0.0389996-0.0479994-0.0660019-0.0779991
	c-0.0900002-0.1020002-0.1860008-0.2010002-0.2849998-0.2940006c-0.0839996-0.0780001-0.1620007-0.1350002-0.2400017-0.1890001
	c-0.0269985-0.0209999-0.0569992-0.0479994-0.0839996-0.0629997c-0.0329971-0.0209999-0.0389977-0.0419998-0.066-0.0629997
	C23.2869987-11.0419998,23.2390003-11.0929995,23.1940002-11.1470003z"/>
<path d="M21.9640007-7.8829999C21.9609985-7.8740005,21.967001-7.862,21.9580002-7.8560004
	c-0.0209999,0.0150003-0.0480003,0.0120006-0.0629997-0.0089993c-0.0060005-0.0089993-0.0300007-0.0869994-0.0240021-0.2250004
	c-0.098999-0.1799994-0.2579994-0.3929996-0.441-0.6119995c-0.0510006-0.0629997-0.066-0.1079998-0.1230011-0.1740007
	l-0.0300007-0.033L21.2409973-8.882c-0.519001,0.4050007-0.8520012,0.3780003-0.9690018,0.3479996
	c0.0419998-0.0749998,0.1830006-0.2789993,0.651001-0.8009996l0.0300007-0.033l-0.0300007-0.032999
	c-0.5699997-0.585-0.3719978-1.0860004-0.2609997-1.3559999c0.0179996-0.0450001,0.0179996-0.066,0.0269985-0.099
	c0.0060005-0.0270004,0.0270004-0.0599995,0.0209999-0.0809994c-0.0059986-0.0240002-0.0269985-0.0360012-0.0509987-0.0360012
	c-0.0270004,0.0030003-0.0389996,0.0300007-0.0360012,0.0539999c0.0030003,0.0180006-0.0240002,0.0780001-0.0389996,0.1230001
	c-0.0089989,0.0209999-0.0179977,0.0509996-0.0269985,0.0780001c-0.0240002,0.0570002-0.0419998,0.1140003-0.0600014,0.1859999
	c-0.0510006,0.2069998-0.0570011,0.474,0.0869999,0.7770004c0.0090027,0.0209999,0.0330009,0.0419998,0.0419998,0.0629997
	c0.0570011,0.1049995,0.1080017,0.2099991,0.2130013,0.3210001c-0.0870018,0.0959997-0.1259995,0.1530008-0.198,0.2340002
	c-0.0839996,0.1019993-0.1800022,0.2069998-0.2399998,0.2849998c-0.1379986,0.1740007-0.2249985,0.3000002-0.2249985,0.3389997
	v0.0299997l0.0240002,0.0209999c0.0179996,0.0089998,0.3990002,0.1949997,1.0739994-0.3210011
	c0.1259995,0.144001,0.1800003,0.2520008,0.2669983,0.3780003c0.0960007,0.132,0.2250004,0.2849998,0.2850018,0.3959999l0,0
	c0.3000011,0.5700002,0.2099991,0.8549995,0.1800022,0.9329996C22-7.0609994,21.9909992-7.0280004,21.9909992-7.0280004
	c-0.0030003,0.0029998,0.0030003,0.0059996,0.0030003,0.0089993c-0.0089989,0.0209999-0.0059986,0.0419998,0.012001,0.0570002
	c0.0089989,0.0059996,0.0179977,0.0089993,0.0269985,0.0089993c0.0030003,0,0.0059986-0.0029998,0.0090008-0.0029998
	c0.0119991-0.0029998,0.0240021-0.0059996,0.032999-0.0180001C22.0720005-6.9920001,22.2130013-7.2979994,21.9640007-7.8829999z"/>
<path d="M22.6269989-8.2189999c-0.0629997-0.0209999-0.1350002-0.0419998-0.1500015-0.0539999
	c-0.0359993-0.033-0.0810013-0.0539999-0.1349983-0.0840006c-0.0870018-0.0450001-0.1949997-0.1019993-0.2939987-0.2099991
	C22.0359993-8.5789995,22.0179977-8.585,22.0060005-8.5819998C21.9880009-8.5790005,21.9759979-8.5669994,21.9699993-8.552
	c-0.0810013,0.2250004-0.0959988,0.3570004-0.0990009,0.4619999c-0.0059986,0.1379995,0.0179996,0.2159996,0.0240021,0.2250004
	c0.0149994,0.0209999,0.0419998,0.0239997,0.0629997,0.0089993C21.967001-7.862,21.9610023-7.8740005,21.9640007-7.8829999
	v-0.0059996C21.967001-7.901,21.9790001-7.9129992,21.9699993-7.9249997c0,0-0.0749989-0.1229997,0.0629997-0.5309997
	c0.0959988,0.0899992,0.1919994,0.1379995,0.2640018,0.177C22.3449993-8.2519999,22.3869991-8.2339993,22.4109993-8.21
	c0.0270004,0.0240002,0.078001,0.0390005,0.1830006,0.0750008C22.848999-8.0539999,23.3170013-7.901,23.368-7.5499997
	c0,0.0059996,0.0060005,0.0120006,0.0090027,0.0180001c0,0.0059996,0.0089989,0.0029998,0.0089989,0.0089993
	C23.3920021-7.5050001,23.4040012-7.487,23.4220028-7.487c0.0030003,0,0.0030003,0,0.0059986,0
	c0.0270004-0.0029998,0.0419998-0.0269995,0.0389996-0.0510006c0-0.0029998-0.0030003-0.0059996-0.0030003-0.0089993
	C23.4160004-7.9639997,22.9029999-8.1289997,22.6269989-8.2189999z"/>
<path d="M22.9749985-12.6499996c0-0.0570002-0.098999-0.21-0.3179989-0.21c-0.1560001,0-0.3449993,0.0719995-0.5610008,0.2160006
	L21.9790001-12.566l0.1409988,0.0060005c0.0990009,0.0059996,0.1949997,0.0269995,0.2910004,0.0419998
	c0.1020012,0.0209999,0.1949997,0.0359993,0.2790031,0.0359993c0.1349983,0,0.2280006-0.0479994,0.2789993-0.1529999
	L22.9749985-12.6499996z M22.2609997-12.6380005c0.152998-0.0869999,0.2880001-0.1289997,0.3959999-0.1289997
	c0.152998,0,0.2070007,0.0869999,0.222002,0.1079998c-0.0360012,0.0600004-0.0960007,0.0870008-0.1889992,0.0870008
	c-0.0750008,0-0.1679993-0.0180006-0.2610016-0.0360003C22.3719978-12.6199999,22.3180008-12.6289997,22.2609997-12.6380005z"/>
<path d="M29.0170021-11.1590004l-0.0149975,0.0419998v0.0030003v-0.0030003l0.0209999-0.0389996l-0.0209999,0.0389996v0.0030003
	l-0.0209999,0.0419998c0.0239983,0.0120001,0.3510017,0.0750008,0.75,0.1350002
	c-0.0390015-0.0360003-0.0839996-0.0750008-0.1259995-0.1140003c-0.230999-0.0360003-0.4109974-0.0690002-0.5070019-0.0900002
	C29.0620003-11.1499996,29.0259972-11.1560001,29.0170021-11.1590004z"/>
<path d="M29.763998-10.4809999c-0.0810013-0.0239992-0.1799984-0.0509996-0.3120003-0.0869999
	c-0.0839996-0.0239992-0.1799984-0.0480003-0.2970028-0.0810003c-0.0239983-0.0059996-0.0480022,0.0060005-0.0569973,0.0300007
	c-0.0089951,0.0239992,0.0029984,0.0480003,0.0270023,0.0570002c0.0060024,0.0029993,0.2549973,0.1050005,0.6120014,0.1680002
	c0.2070007,0.0599995,0.2790012,0.1019993,0.4109974,0.2039995c-0.1140003,0.0570002-0.7109985,0.0480003-1.2299995-0.0360003
	c-0.1169987-0.032999-0.2790012-0.0809994-0.4350014-0.1229992c-0.0720005-0.0209999-0.1169987-0.0360003-0.198-0.0570002
	c-0.0239983-0.0089998-0.0449982,0.0059996-0.0569973,0.0299997c-0.0090008,0.0240002,0,0.0480003,0.0239983,0.0570002
	c0.0390015,0.0209999,0.1259995,0.033,0.1799984,0.0509996c0.1350002,0.0480003,0.2670021,0.099,0.4529972,0.1289997
	c0.0270023,0.0090008,0.0510006,0.0150013,0.0749989,0.0209999c0.6779995,0.1890001,0.7050018,0.2010002,0.7350025,0.2880001
	c-0.0510006,0.0300007-0.2910004,0.0480003-0.7859974,0.0030003c-0.2519989-0.0240002-0.4799995-0.0629997-0.7019978-0.1020002
	c-0.3390007-0.0599995-0.6359997-0.1260004-0.7890015-0.1949997c-0.0389977-0.0270004-0.0810013-0.0539999-0.1230011-0.0870008
	c-0.0209999-0.0149994-0.0419998-0.0119991-0.0600014,0.0060005c-0.0179977,0.0180006-0.0179977,0.0390005-0.0060005,0.0600004
	c0.0209999,0.033,0.0629997,0.0599995,0.1230011,0.0899992c0.276001,0.1860008,0.4860001,0.2970009,0.6780033,0.3900013
	C28.0839996-9.6379995,28.144001-9.6079998,28.198-9.5809994c0.0930004,0.0419998,0.1799984,0.0869999,0.2670021,0.132
	c-0.0959988,0.0360003-0.2129974,0.0570002-0.3359985,0.0750008c-0.0300007,0.0029993-0.0539989,0.0089998-0.086998,0.0119991
	c-0.0600014,0.0060005-0.1410007-0.0089998-0.2099991-0.0089998c-0.4289989-0.0089998-0.9960003-0.1589994-1.7759991-0.651
	c-0.0330009-0.0209999-0.0540009-0.0270004-0.0870018-0.0450001c-0.0209999-0.0150003-0.0480003-0.0090008-0.0629997,0.0119991
	c-0.0090008,0.0150013,0,0.0300007,0.0060005,0.0419998c0.0030003,0.0090008-0.0030022,0.0180006,0.0030003,0.0209999
	c0.5729942,0.4830008,1.1249943,0.7919998,1.6349945,1.0200005C28.1889992-8.6869993,28.75-8.5369997,29.1550007-8.441
	c0.2670021,0.0629997,0.4680004,0.1110001,0.5610008,0.177c-0.3959999,0.4590001-1.4309978,0.1530008-2.4360008-0.3059998
	c-0.7049999-0.3239994-1.3979988-0.717-1.8359985-0.9840002c-0.2519989-0.1529989-0.2519989-0.1529989-0.2819996-0.1260004
	c-0.0149994,0.0150013-0.0209999,0.0360012-0.0119991,0.0539999c0,0,0.0119991,0.0089998,0.0300007,0.0240002v0.0029993
	c0.0030022,0,0.0060005,0.0030003,0.0149994,0.0090008c0.2099991,0.1469994,1.1459999,0.7559996,1.9470024,1.2329998
	C27.5890045-8.0930004,27.9940071-7.8710008,28.2040024-7.802c-0.0449982,0.0180001-0.1169987,0.0330005-0.2280006,0.0360003
	c-0.4440002,0.0239997-1.0500011-0.1170001-1.1009979-0.1740003l-0.0360012,0.0269995L26.8180027-7.901l-0.0209999,0.0150003
	C26.8180027-7.855999,26.8810024-7.8289995,26.9680023-7.802c0.0540009,0.0180001,0.1230011,0.0360003,0.1949997,0.0479994
	c0.098999,0.0209999,0.2010002,0.0360003,0.3120003,0.0510006c0.1080017,0.0150003,0.2039986,0.0209999,0.3029995,0.0269995
	c0.0269985,0,0.0539989,0.0059996,0.078001,0.0059996c0.0059986,0,0.0149994,0,0.0209999,0
	c0.2549992,0,0.4200001-0.0419998,0.4800014-0.1290007c0.0119991-0.0150003,0.0119991-0.0360003,0.0029984-0.0510006
	c-0.0090008-0.0180001-0.0270023-0.0239997-0.0449982-0.0239997c-0.0029984,0-0.0060024,0-0.0090008,0
	c-0.111002,0-0.5789986-0.2520003-1.1130009-0.5639997c-0.177-0.1050005-0.3599987-0.2130003-0.5400009-0.3240004
	c0.2339993,0.1199999,0.3869991,0.1680002,0.5879993,0.2550001c1.7010021,0.7620006,2.3700008,0.552,2.5829983,0.2609997
	c0.0090008-0.0120001,0.0029984-0.0270004-0.0029984-0.0389996c-0.0029984-0.0060005,0.0029984-0.0150013,0-0.0209999
	c-0.0149975-0.0150013-0.0480022-0.0240002-0.0690022-0.0360012c-0.1079979-0.0719995-0.2910004-0.1259995-0.5700016-0.1919994
	c-0.3959999-0.0929995-0.948-0.2369995-1.5720005-0.5159998c-0.3330002-0.1470003-0.6809998-0.3240004-1.0500011-0.573
	c0.4890003,0.243001,0.8789997,0.3299999,1.1999989,0.3510008c0.3540001,0.0209999,0.6240005-0.0480003,0.8279972-0.1289997
	c0.0029984-0.0030003,0.0029984-0.0060005,0.0060024-0.0090008c-0.0180016,0-0.0690022,0-0.0779972-0.0029993
	c-0.0270023-0.0030003-0.0419998-0.0299997-0.0390015-0.0509996s0.0300007-0.0419998,0.0510006-0.0360012
	c0.0029984,0,0.0209999,0,0.0270023,0c-0.1049995-0.0599995-0.2099991-0.1109991-0.3239994-0.165
	c-0.0449982-0.0209999-0.1079979-0.0539999-0.1530018-0.0780001c-0.1109982-0.0539989-0.2189999-0.1049995-0.3540001-0.1799994
	c0.1230011,0.033,0.2729988,0.0570002,0.4169998,0.0869999c0.6450005,0.1169996,1.413002,0.1799994,1.586998,0.0959997
	c0.0659981-0.032999,0.0569973-0.0839996,0.0510006-0.098999c-0.032999-0.1080008-0.0539989-0.1410007-0.3239994-0.2250004
	c0.375,0.0270004,0.6960011,0.0089998,0.7709999-0.0600004c0.0270023-0.0269995,0.0359974-0.0570002,0.0209999-0.0899992
	c-0.0029984-0.0090008-0.0090008-0.0150013-0.0149975-0.0180006c-0.0569973-0.0450001-0.1049995-0.0810003-0.1499977-0.1079998
	c0.086998,0.0059996,0.1799984-0.0240002,0.2700005-0.0270004c-0.0239983-0.0239992-0.0510006-0.0419998-0.0749989-0.066
	C30.0969982-10.4390001,29.9169998-10.4510002,29.763998-10.4809999z"/>
<path d="M29.4909992-9.4249992c0.0270023-0.0030003,0.0419998-0.0270004,0.0390015-0.0510006
	c-0.0029984-0.0270004-0.0239983-0.0419998-0.0510006-0.0389996C29.2749977-9.487999,28.6809978-9.487999,28.552-9.499999
	c-0.0060024,0-0.0239983,0-0.0270023,0c-0.0270023-0.0060005-0.0480022,0.0150003-0.0510006,0.0360003
	s0.0149975,0.0480003,0.0390015,0.0509996c0.0090008,0,0.0600014,0,0.0779972,0.0029993
	c0.0629997,0.0030003,0.1410027,0.0090008,0.2700005,0.0090008C29.0890026-9.4039993,29.3620014-9.4070005,29.4909992-9.4249992z"/>
<path d="M15.901-11.6780005c0.0360003,0.0180006,0.0689993,0.0299997,0.1109991,0.045001
	c0.1679993,0.0689993,0.342001,0.131999,0.5370007,0.1949997c0.1259995,0.0419998,0.2399979,0.0719995,0.3599987,0.1050005
	c0.144001,0.0360003,0.2910004,0.0749998,0.407999,0.0869999c-0.0359993,0.0209999-0.0660019,0.0299997-0.098999,0.0419998
	c-0.0209999,0.0089998-0.045002,0.0209999-0.0629997,0.0299997c-0.0570011,0.0209999-0.1020012,0.0360003-0.1020012,0.0360003
	c-0.0060005,0-0.0060005,0.0089998-0.012001,0.0120001c-0.0119972,0.0089998-0.0240002,0.0150003-0.0269985,0.0299997
	c0,0.0209999,0.0119991,0.0390005,0.0300007,0.045001l0.0300007,0.0119991l0.0150013,0.0060005
	c0.1169968,0.0450001,0.375,0.1110001,0.6870003,0.1289997c0.0569992,0.0030003,0.1079998,0.0090008,0.1739979,0.0060005
	c0.0539989-0.0030003,0.0930004,0.0150003,0.1499996,0.0060005c-0.0240002,0.0209999-0.0240002,0.0209999-0.0450001,0.0360003
	c-0.0269985,0.0239992-0.0360012,0.0299997-0.0539989,0.0450001c-0.045002,0.0360003-0.1169987,0.099-0.1199989,0.099
	C17.875-10.7059975,17.875-10.6969976,17.8719978-10.6909981c-0.0030003,0.0089998-0.0119972,0.0150003-0.0089989,0.0270004
	c0.0030003,0.0179996,0.0149994,0.032999,0.0329971,0.0360003c0,0,0.0240021,0.0029993,0.0270004,0.0059996
	c0.0359993,0.0120001,0.2580013,0.0360012,0.552,0.0180006c0.0450001-0.0029993,0.0930004-0.0120001,0.1410007-0.0180006
	c0.098999-0.0149994,0.1739979,0.0030003,0.2849998-0.0359993c-0.0569992,0.0689993-0.0600014,0.0779991-0.0900002,0.1140003
	c-0.0149994,0.0209999-0.0389977,0.0509996-0.0450001,0.0599995c-0.0059986,0.0060005-0.032999,0.0419998-0.0360012,0.0419998
	c-0.0089989,0.0150003-0.0119972,0.033-0.0030003,0.0450001c0.0090008,0.0150003,0.0240002,0.0270004,0.0389996,0.0270004
	l0.3149986,0.0179996l0.1079998,0.0060005h0.0030003c0.0240021,0,0.045002-0.0209999,0.045002-0.0419998
	c0-0.0270004-0.0179977-0.0480003-0.0419998-0.0480003L19.0600014-10.448L18.855999-10.46
	c0.0090008-0.0120001,0.032999-0.0389996,0.0419998-0.0539999c0.0480003-0.0629997,0.1080017-0.1379995,0.1949997-0.2399998
	c0.0149994-0.0179996,0.0149994-0.0389996,0.0030003-0.0569992c-0.0150013-0.0180006-0.0360012-0.0240002-0.0570011-0.0150013
	c-0.2009964,0.0959997-0.383997,0.1259995-0.5549965,0.1410007c-0.2040005,0.0179996-0.3780022,0.0059996-0.4710026-0.0150013
	c0.0360012-0.0299997,0.0930004-0.0779991,0.1410007-0.1199989c0.0450001-0.0390005,0.0899982-0.0720005,0.1349983-0.1140003
	c0.0150013-0.0150013,0.0209999-0.0360012,0.0090027-0.0539999c-0.012001-0.0180006-0.0330009-0.0299997-0.0510025-0.0240002
	c-0.2010002,0.0390005-0.362999,0.0360003-0.5159988,0.0240002c-0.032999-0.0030003-0.0779991,0.0089998-0.1080017,0.0059996
	c-0.0059986,0-0.0119972,0-0.0179977-0.0029993c-0.1710014-0.0239992-0.3059998-0.066-0.4050007-0.1050005
	c0.0360012-0.0150003,0.078001-0.0450001,0.1169987-0.066c0.0569992-0.0299997,0.1169987-0.0509996,0.1710014-0.099
	c0.0149994-0.0150003,0.0209999-0.0360003,0.0119972-0.0509996c-0.0089989-0.0149994-0.0299988-0.033-0.0450001-0.0300007
	c-0.0209999,0.0030003-0.0389996,0.0030003-0.0600014,0.0030003c-0.6120014,0-1.9229994-0.6300001-1.9379997-0.6359997
	c-0.0059996-0.0030003-0.0090008,0.0060005-0.0150003,0.0060005c-0.0179987-0.0030003-0.0389986-0.0030003-0.0479994,0.0179996
	s0.0030012,0.0390005,0.0179987,0.0510006c0.0030012,0.0029993,0,0.0089998,0.0030012,0.0089998
	C15.4389992-11.8789997,15.6490011-11.783,15.901-11.6780005z"/>
<path class="st4" d="M10-18.5c15.5999985,0,28.5,12.9000006,28.5,28.5S25.5999985,38.5,10,38.5S-18.5,25.5999985-18.5,10
	S-5.5999994-18.5,10-18.5 M10-20C-6.5-20-20-6.5-20,10s13.5,30,30,30s30-13.5,30-30S26.5-20,10-20L10-20z"/>
</svg>
