<svg xmlns="http://www.w3.org/2000/svg" fill="#001b60" width="21.281" height="18.282" viewBox="0 0 21.281 18.282">
  <path class="cls-1" d="M961.222,346.205l-8.728-14.477a1.912,1.912,0,0,0-3.274,0l-8.728,14.477a1.913,1.913,0,0,0,1.637,2.9h17.456A1.912,1.912,0,0,0,961.222,346.205Zm-1.178,1.247a0.528,0.528,0,0,1-.459.267H942.129a0.526,0.526,0,0,1-.45-0.8l8.728-14.477a0.525,0.525,0,0,1,.9,0l8.728,14.477A0.528,0.528,0,0,1,960.044,347.452Zm-9.18-10.948a0.824,0.824,0,0,0-.938.785c0,1.529.179,3.728,0.179,5.257a0.633,0.633,0,0,0,.759.566,0.673,0.673,0,0,0,.745-0.566c0-1.529.18-3.728,0.18-5.257A0.826,0.826,0,0,0,950.864,336.5Zm0.013,7.5a0.99,0.99,0,1,0,0,1.98A0.99,0.99,0,0,0,950.877,344Z" transform="translate(-940.219 -330.812)"/>
</svg>
