<svg xmlns="http://www.w3.org/2000/svg" fill="#00195b" width="18.25" height="18.25" viewBox="0 0 18.25 18.25">
  <path d="M1211.37,292a9.125,9.125,0,1,0,9.13,9.125A9.132,9.132,0,0,0,1211.37,292Zm0,17.049a7.924,7.924,0,1,1,7.93-7.924A7.936,7.936,0,0,1,1211.37,309.049Zm0.61-8.463v-3.409a1.738,1.738,0,0,1,.84.671,0.6,0.6,0,1,0,1-.661,2.932,2.932,0,0,0-1.84-1.256v-0.954a0.605,0.605,0,0,0-1.21,0v0.952a2.929,2.929,0,0,0,0,5.735v3.409a1.738,1.738,0,0,1-.84-0.671,0.6,0.6,0,1,0-1,.661,2.932,2.932,0,0,0,1.84,1.256v0.954a0.605,0.605,0,0,0,1.21,0v-0.952A2.929,2.929,0,0,0,1211.98,300.586Zm-2.34-1.79a1.743,1.743,0,0,1,1.13-1.619v3.238A1.74,1.74,0,0,1,1209.64,298.8Zm2.34,6.277v-3.238A1.73,1.73,0,0,1,1211.98,305.073Z" transform="translate(-1202.25 -292)"/>
</svg>
