<svg xmlns="http://www.w3.org/2000/svg" fill="#fff" width="16.688" height="100%" viewBox="0 0 16.688 100%">
  <path class="cls-1" d="M802.331,421.2h-9.687A1.649,1.649,0,0,0,791,422.849V436.74a1.648,1.648,0,0,0,1.648,1.646h9.687a1.648,1.648,0,0,0,1.648-1.646V422.849A1.654,1.654,0,0,0,802.331,421.2Zm0.491,15.534a0.5,0.5,0,0,1-.5.494h-9.688a0.5,0.5,0,0,1-.5-0.494V422.849a0.5,0.5,0,0,1,.5-0.5h9.688a0.5,0.5,0,0,1,.5.5v13.887Zm3.214-19.176h-9.688a1.648,1.648,0,0,0-1.647,1.646,0.576,0.576,0,1,0,1.152,0,0.5,0.5,0,0,1,.5-0.5h9.688a0.5,0.5,0,0,1,.5.5V433.1a0.5,0.5,0,0,1-.5.5,0.576,0.576,0,0,0,0,1.152,1.648,1.648,0,0,0,1.647-1.647V419.206A1.648,1.648,0,0,0,806.036,417.56Z" transform="translate(-791 -417.562)"/>
</svg>
