<svg xmlns="http://www.w3.org/2000/svg" fill="#00195b" width="16" height="21.38" viewBox="0 0 16 21.38">
  <path d="M86.069,1346.22l-5.479-5.7a0.667,0.667,0,0,0-.481-0.2H70.9a0.666,0.666,0,0,0-.668.66v20.03a0.668,0.668,0,0,0,.668.67H85.588a0.669,0.669,0,0,0,.668-0.67v-14.32A0.682,0.682,0,0,0,86.069,1346.22Zm-5.821-4.13,4.067,4.23H80.248v-4.23Zm4.673,18.25H71.57v-18.69h7.343v5.34a0.669,0.669,0,0,0,.668.67h5.34v12.68Zm-10.755-6.12a1.1,1.1,0,0,1,.418-0.28,1.7,1.7,0,0,1,.874-0.07,2.785,2.785,0,0,1,.434.12,0.341,0.341,0,0,0,.324-0.05,0.335,0.335,0,0,0,.12-0.31,1.7,1.7,0,0,1-.02-0.21,0.329,0.329,0,0,0-.259-0.31c-0.123-.03-0.221-0.05-0.294-0.06s-0.171-.02-0.288-0.03a2.611,2.611,0,0,0-1.21.13,1.971,1.971,0,0,0-.745.49,2.169,2.169,0,0,0-.464.82,3.108,3.108,0,0,0-.15.96,2.833,2.833,0,0,0,.13.86,1.941,1.941,0,0,0,.431.75,1.853,1.853,0,0,0,.707.49,2.379,2.379,0,0,0,.842.15,3.965,3.965,0,0,0,.457-0.03,4.121,4.121,0,0,0,.543-0.11,0.325,0.325,0,0,0,.246-0.29,1.629,1.629,0,0,1,.027-0.19,0.329,0.329,0,0,0-.1-0.32,0.336,0.336,0,0,0-.331-0.07,1.924,1.924,0,0,1-1.364.07,1.028,1.028,0,0,1-.387-0.27,1.186,1.186,0,0,1-.244-0.45,2.2,2.2,0,0,1-.09-0.63,2.019,2.019,0,0,1,.109-0.66A1.335,1.335,0,0,1,74.165,1354.22Zm4.961,1.65a1.432,1.432,0,0,0-.174-0.26,1.916,1.916,0,0,0-.231-0.25l-0.29-.28c-0.146-.14-0.264-0.25-0.35-0.34s-0.162-.17-0.225-0.24-0.094-.11-0.126-0.15a0.389,0.389,0,0,1-.045-0.1,0.192,0.192,0,0,1-.011-0.07,0.29,0.29,0,0,1,.045-0.16,0.422,0.422,0,0,1,.131-0.13,0.9,0.9,0,0,1,.5-0.02,2.413,2.413,0,0,1,.348.09,0.333,0.333,0,0,0,.438-0.36,1.48,1.48,0,0,1-.019-0.2,0.336,0.336,0,0,0-.266-0.32,2.012,2.012,0,0,0-1.409.07,1.162,1.162,0,0,0-.635,1.04,1.35,1.35,0,0,0,.025.26,1.038,1.038,0,0,0,.072.23,1.388,1.388,0,0,0,.128.23c0.051,0.07.113,0.15,0.189,0.24s0.146,0.16.229,0.24l0.206,0.19c0.226,0.2.384,0.36,0.473,0.45s0.148,0.17.192,0.23a0.484,0.484,0,0,1,.059.11,0.282,0.282,0,0,1,.014.09,0.341,0.341,0,0,1-.051.19,0.277,0.277,0,0,1-.143.12,1.264,1.264,0,0,1-1.025-.16,0.325,0.325,0,0,0-.342.02,0.329,0.329,0,0,0-.145.31,2.159,2.159,0,0,1,.013.22,0.322,0.322,0,0,0,.22.31,3.021,3.021,0,0,0,.543.16,2.082,2.082,0,0,0,.433.04,1.645,1.645,0,0,0,.672-0.13,1.078,1.078,0,0,0,.515-0.44,1.2,1.2,0,0,0,.173-0.64,1.512,1.512,0,0,0-.034-0.31A1.326,1.326,0,0,0,79.126,1355.87Zm0.452-2.37,0.961,2.91,0.29,0.96a0.335,0.335,0,0,0,.33.24h0.284a0.335,0.335,0,0,0,.308-0.2c0.142-.34.313-0.72,0.513-1.15l0.68-1.45c0.249-.54.451-0.96,0.6-1.27a0.334,0.334,0,0,0-.017-0.33,0.315,0.315,0,0,0-.293-0.15h-0.22a0.326,0.326,0,0,0-.32.21c-0.061.14-.111,0.26-0.151,0.35l-1.182,2.57-0.765-2.36-0.151-.53a0.32,0.32,0,0,0-.333-0.24h-0.21a0.309,0.309,0,0,0-.278.13A0.338,0.338,0,0,0,79.578,1353.5Z" transform="translate(-70.25 -1340.31)"/>
</svg>
