<svg xmlns="http://www.w3.org/2000/svg" fill="#fff" viewBox="0 0 94 94">
  <path d="M212.433,198.067A1.566,1.566,0,0,0,214,196.5V183.967a1.566,1.566,0,0,0-1.567-1.567H206.92l-10.026-12.533H199.9a1.567,1.567,0,0,0,1.567-1.567V155.767A1.567,1.567,0,0,0,199.9,154.2h-5.839l-21.275-12.533h0.481a1.566,1.566,0,0,0,1.566-1.567V127.567A1.566,1.566,0,0,0,173.267,126H160.733a1.566,1.566,0,0,0-1.566,1.567V140.1a1.566,1.566,0,0,0,1.566,1.567h0.423L139.627,154.2H134.1a1.567,1.567,0,0,0-1.567,1.567V168.3a1.567,1.567,0,0,0,1.567,1.567h3.006L127.08,182.4h-5.513A1.566,1.566,0,0,0,120,183.967V196.5a1.566,1.566,0,0,0,1.567,1.567h4.7v6.266h-4.7A1.566,1.566,0,0,0,120,205.9v12.533A1.566,1.566,0,0,0,121.567,220H134.1a1.567,1.567,0,0,0,1.567-1.567V205.9a1.567,1.567,0,0,0-1.567-1.567h-4.7v-6.266h4.7a1.567,1.567,0,0,0,1.567-1.567V183.967A1.567,1.567,0,0,0,134.1,182.4h-3.006l9.273-11.592L149.64,182.4h-3.007a1.566,1.566,0,0,0-1.566,1.567V196.5a1.566,1.566,0,0,0,1.566,1.567h4.7v6.266h-4.7a1.566,1.566,0,0,0-1.566,1.567v12.533A1.566,1.566,0,0,0,146.633,220h12.534a1.566,1.566,0,0,0,1.566-1.567V205.9a1.566,1.566,0,0,0-1.566-1.567h-4.7v-6.266h4.7a1.566,1.566,0,0,0,1.566-1.567V183.967a1.566,1.566,0,0,0-1.566-1.567h-5.513l-10.027-12.533h3.006A1.566,1.566,0,0,0,148.2,168.3V155.767a1.566,1.566,0,0,0-1.567-1.567h-0.78L167,141.892,187.887,154.2h-0.52a1.566,1.566,0,0,0-1.567,1.567V168.3a1.566,1.566,0,0,0,1.567,1.567h3.006L180.346,182.4h-5.513a1.566,1.566,0,0,0-1.566,1.567V196.5a1.566,1.566,0,0,0,1.566,1.567h4.7v6.266h-4.7a1.566,1.566,0,0,0-1.566,1.567v12.533A1.566,1.566,0,0,0,174.833,220h12.534a1.566,1.566,0,0,0,1.566-1.567V205.9a1.566,1.566,0,0,0-1.566-1.567h-4.7v-6.266h4.7a1.566,1.566,0,0,0,1.566-1.567V183.967a1.566,1.566,0,0,0-1.566-1.567H184.36l9.273-11.592,9.273,11.592H199.9a1.567,1.567,0,0,0-1.567,1.567V196.5a1.567,1.567,0,0,0,1.567,1.567h4.7v6.266h-4.7a1.567,1.567,0,0,0-1.567,1.567v12.533A1.567,1.567,0,0,0,199.9,220h12.533A1.566,1.566,0,0,0,214,218.433V205.9a1.566,1.566,0,0,0-1.567-1.567h-4.7v-6.266h4.7Zm-79.9,9.4v9.4h-9.4v-9.4h9.4Zm0-21.934v9.4h-9.4v-9.4h9.4ZM157.6,207.467v9.4h-9.4v-9.4h9.4Zm0-21.934v9.4h-9.4v-9.4h9.4Zm-12.533-18.8h-9.4v-9.4h9.4v9.4Zm26.633-28.2h-4.526a1.687,1.687,0,0,0-.348,0H162.3v-9.4h9.4v9.4Zm14.1,68.934v9.4h-9.4v-9.4h9.4Zm0-21.934v9.4h-9.4v-9.4h9.4Zm3.133-18.8v-9.4h9.4v9.4h-9.4Zm21.934,40.734v9.4h-9.4v-9.4h9.4Zm-9.4-12.534v-9.4h9.4v9.4h-9.4Z" transform="translate(-120 -126)"/>
</svg>
