<svg xmlns="http://www.w3.org/2000/svg" fill="#fff"  viewBox="0 0 86.5 86.5">
  <path d="M859.317,332.767H862.2v2.883h-2.883v-2.883Zm0,5.766H862.2v2.884h-2.883v-2.884Zm-5.767-5.766h2.883v2.883H853.55v-2.883Zm-54.783,64.875h2.883v2.883h-2.883v-2.883Zm5.766,0h2.884v2.883h-2.884v-2.883Zm-5.766-5.767h2.883v2.883h-2.883v-2.883Zm77.85-12.975v-2.883h1.441a1.441,1.441,0,0,0,1.442-1.442v-5.767a1.44,1.44,0,0,0-1.442-1.441H867.967V328.442A1.441,1.441,0,0,0,866.525,327H807.417c-0.031,0-.057.016-0.085,0.017a1.408,1.408,0,0,0-.38.075c-0.044.016-.088,0.028-0.131,0.048a1.428,1.428,0,0,0-.424.282L793.422,340.4a1.423,1.423,0,0,0-.282.423c-0.02.044-.032,0.089-0.048,0.135a1.436,1.436,0,0,0-.075.374c0,0.03-.017.057-0.017,0.088v64.875a1.44,1.44,0,0,0,1.442,1.441H844.9v4.325a1.44,1.44,0,0,0,1.442,1.442h31.716a1.44,1.44,0,0,0,1.442-1.442v-5.766a1.44,1.44,0,0,0-1.442-1.442h-1.441v-2.883a14.354,14.354,0,0,0-5.777-11.534A14.354,14.354,0,0,0,876.617,378.9Zm0-8.65v2.883H847.783V370.25h28.834Zm-30.275,5.767h0.746a18.709,18.709,0,1,1,2.137-8.65h-2.883a1.44,1.44,0,0,0-1.442,1.441v5.767A1.441,1.441,0,0,0,846.342,376.017Zm-40.367-44.095v8.053h-8.053ZM795.883,404.85V342.858h11.534a1.44,1.44,0,0,0,1.441-1.441V329.883h56.225v37.484H852.108a21.732,21.732,0,1,0-4.25,12.8,14.336,14.336,0,0,0,5.7,10.263,14.354,14.354,0,0,0-5.777,11.534v2.883h-51.9Zm80.734,2.883v2.884H847.783v-2.884h28.834ZM859.1,404.85l3.1-2.48,3.1,2.48h-6.2Zm8.366-13.135a11.5,11.5,0,0,1,6.267,10.252v2.883h-3.817l-6.274-5.018v-2.19h-2.884v2.19l-6.274,5.018h-3.817v-2.883a11.5,11.5,0,0,1,6.267-10.252,1.442,1.442,0,0,0,0-2.563,11.5,11.5,0,0,1-6.267-10.252v-2.883h23.066V378.9a11.5,11.5,0,0,1-6.267,10.252A1.442,1.442,0,0,0,867.466,391.715Zm1.833-11.926a1.44,1.44,0,0,0-1.332-.889H856.433a1.441,1.441,0,0,0-1.019,2.461l5.344,5.344v2.287h2.884v-2.287l5.344-5.344A1.444,1.444,0,0,0,869.3,379.789Zm-7.1,4.281-2.287-2.287h4.573Zm-1.442,7.805h2.884v2.883h-2.884v-2.883Zm-20.82-31.294-11.98,11.98-5.13-4.9-1.991,2.086,6.149,5.866a1.439,1.439,0,0,0,2.015-.023l12.975-12.975Z" transform="translate(-793 -327)"/>
</svg>
