<svg xmlns="http://www.w3.org/2000/svg" fill="#001a60" width="35.844" height="35.875" viewBox="0 0 35.844 35.875">
<path d="M271.8,491.2a2.243,2.243,0,1,1-2.242,2.242A2.241,2.241,0,0,1,271.8,491.2Zm9.98,4.056a20.444,20.444,0,0,0-4.407-6.933A19.959,19.959,0,0,0,270.493,484a5.631,5.631,0,0,0-5.975,1.267l-5.5,5.478a5.611,5.611,0,0,0-1.169,6.218c0.288,0.65.6,1.285,0.938,1.9L246.71,510.94a1.4,1.4,0,0,0-.41.991V518.1a1.4,1.4,0,0,0,1.4,1.4h6.164a1.4,1.4,0,0,0,1.4-1.4v-2.523h2.522a1.4,1.4,0,0,0,1.4-1.4v-2.523h2.522a1.4,1.4,0,0,0,0-2.8h-3.923a1.4,1.4,0,0,0-1.4,1.4v2.523h-2.522a1.4,1.4,0,0,0-1.4,1.4V516.7H249.1v-4.185l12.423-12.43a1.4,1.4,0,0,0,.208-1.718,22.617,22.617,0,0,1-1.326-2.543,2.791,2.791,0,0,1,.586-3.092l5.5-5.478a2.824,2.824,0,0,1,3-.636,17.149,17.149,0,0,1,5.9,3.69,17.65,17.65,0,0,1,3.775,5.971,2.784,2.784,0,0,1-.628,2.992l-5.568,5.544a2.819,2.819,0,0,1-3.083.6,18.181,18.181,0,0,1-2.522-1.288,1.4,1.4,0,0,0-1.465,2.39A21.079,21.079,0,0,0,268.815,508a5.613,5.613,0,0,0,6.136-1.2l5.568-5.544A5.588,5.588,0,0,0,281.778,495.252Z" transform="translate(-246.312 -483.625)"/>
</svg>