<svg xmlns="http://www.w3.org/2000/svg" xmlns:xlink="http://www.w3.org/1999/xlink" viewBox="0 0 47.04 72.12"><defs><style>.cls-1{fill:url(#linear-gradient);}.cls-2{fill:url(#linear-gradient-2);}.cls-3{fill:url(#linear-gradient-3);}.cls-4{fill:url(#linear-gradient-4);}.cls-5{fill:url(#linear-gradient-5);}.cls-6{fill:url(#linear-gradient-6);}.cls-7{fill:url(#linear-gradient-7);}.cls-8{fill:url(#linear-gradient-8);}.cls-9{fill:url(#linear-gradient-9);}.cls-10{fill:url(#linear-gradient-10);}.cls-11{mix-blend-mode:screen;fill:url(#linear-gradient-11);}.cls-12{fill:url(#linear-gradient-12);}.cls-13{fill:url(#linear-gradient-13);}.cls-14{isolation:isolate;}.cls-15{fill:#849ac9;}.cls-16{mask:url(#mask);}.cls-17{fill:#415378;}.cls-18{mask:url(#mask-2);}.cls-19{mix-blend-mode:overlay;}.cls-20{fill:#bfd3ff;}.cls-21{mask:url(#mask-3);}.cls-22{fill:#fff;}</style><linearGradient id="linear-gradient" x1="22.8" y1="34.64" x2="19.31" y2="26.06" gradientUnits="userSpaceOnUse"><stop offset="0" stop-color="#fff"/><stop offset="0.1" stop-color="#e4e4e4"/><stop offset="1"/></linearGradient><linearGradient id="linear-gradient-2" x1="21.73" y1="24.87" x2="24.67" y2="10.08" xlink:href="#linear-gradient"/><linearGradient id="linear-gradient-3" x1="25.63" y1="56.92" x2="17.16" y2="49.58" xlink:href="#linear-gradient"/><linearGradient id="linear-gradient-4" x1="5.43" y1="18.95" x2="15.09" y2="21.24" xlink:href="#linear-gradient"/><linearGradient id="linear-gradient-5" x1="-1.81" y1="34.74" x2="7.85" y2="37.03" xlink:href="#linear-gradient"/><linearGradient id="linear-gradient-6" x1="16.41" y1="50.65" x2="30" y2="55.59" xlink:href="#linear-gradient"/><linearGradient id="linear-gradient-7" x1="16.71" y1="25.69" x2="29.74" y2="30.42" xlink:href="#linear-gradient"/><linearGradient id="linear-gradient-8" x1="48.25" y1="51.21" x2="38.17" y2="42.84" xlink:href="#linear-gradient"/><linearGradient id="linear-gradient-9" x1="4.93" y1="7.54" x2="11.79" y2="25.72" gradientUnits="userSpaceOnUse"><stop offset="0" stop-color="#fff"/><stop offset="0.1" stop-color="#e4e4e4"/><stop offset="0.16" stop-color="#d5d5d5"/><stop offset="1"/></linearGradient><linearGradient id="linear-gradient-10" x1="-5.36" y1="21.3" x2="1.94" y2="41.19" xlink:href="#linear-gradient"/><linearGradient id="linear-gradient-11" x1="-9.8" y1="58.77" x2="32.92" y2="60.28" xlink:href="#linear-gradient"/><linearGradient id="linear-gradient-12" x1="16.05" y1="21.6" x2="26.78" y2="27.61" xlink:href="#linear-gradient"/><linearGradient id="linear-gradient-13" x1="55.68" y1="39.3" x2="45.59" y2="40.87" xlink:href="#linear-gradient"/><mask id="mask" x="0" y="0" width="47.04" height="72.12" maskUnits="userSpaceOnUse"><path class="cls-1" d="M23.61,31.15s-7.17,7.27-15-7.55C0,7.27,16.81,7.08,16.81,7.08S33,16.89,23.61,31.15Z"/><path class="cls-2" d="M18.66,23.46a13.57,13.57,0,0,1,0-13.77c4.19-7.58,13.45-2.61,13.49-2.61s-4.94,9.41-4.94,9.41Z"/><path class="cls-3" d="M23.61,56.85s-5.41,5.38-12.71-4.2c-8.09-10.6,4.51-13.74,4.51-13.74l8.2,17.93"/></mask><mask id="mask-2" x="-0.83" y="0" width="51.16" height="78.7" maskUnits="userSpaceOnUse"><path class="cls-4" d="M6.41,20.41l6.3,9.87s4.36-12.74,1-18.1S6.41,20.41,6.41,20.41Z"/><path class="cls-5" d="M-.83,36.2l6.3,9.87s4.36-12.74,1-18.1S-.83,36.2-.83,36.2Z"/><path class="cls-6" d="M13.05,56.31s6.58,6.73,12.38-.5c5.26-6.56,23.68-27.83,22.68-15S25.21,78.7,25.21,78.7Z"/><path class="cls-7" d="M13.49,31.11s6.31,6.45,11.87-.48c5-6.29,22.71-26.69,21.75-14.41s-22,36.36-22,36.36Z"/><polygon class="cls-8" points="44.39 26.72 50.33 35.34 34.09 60.74 44.39 26.72"/></mask><mask id="mask-3" x="-5.12" y="0" width="57.75" height="81.39" maskUnits="userSpaceOnUse"><path class="cls-9" d="M4.56,20.52l6.3,9.87s4.36-12.74,1-18.1S4.56,20.52,4.56,20.52Z"/><path class="cls-10" d="M-5.12,36.2l6.3,9.87s4.36-12.74,1-18.1S-5.12,36.2-5.12,36.2Z"/><path class="cls-11" d="M14.11,59s6.58,6.73,12.38-.5c5.26-6.56,23.68-27.83,22.68-15s-22.9,37.92-22.9,37.92Z"/><path class="cls-12" d="M13.49,31.11s6.31,6.45,11.87-.48c5-6.29,22.71-26.69,21.75-14.41s-22,36.36-22,36.36Z"/><polygon class="cls-13" points="46.69 24.49 52.62 33.12 36.38 58.52 46.69 24.49"/></mask></defs><title>Asset 1</title><g class="cls-14"><g id="Layer_2" data-name="Layer 2"><g id="Layer_1-2" data-name="Layer 1"><polygon class="cls-15" points="0 36.05 5.17 28.2 23.62 56.82 42.11 28.57 47.04 36.23 23.58 72.11 0 36.05"/><polygon class="cls-15" points="8.41 23.27 23.62 0 28.82 8.16 18.52 23.27 23.62 31.09 33.96 15.9 38.86 23.27 23.62 46.55 8.41 23.27"/><g class="cls-16"><polygon class="cls-17" points="0 36.05 5.17 28.2 23.62 56.82 42.11 28.57 47.04 36.23 23.58 72.11 0 36.05"/><polygon class="cls-17" points="8.41 23.27 23.62 0 28.82 8.16 18.52 23.27 23.62 31.09 33.96 15.9 38.86 23.27 23.62 46.55 8.41 23.27"/></g><g class="cls-18"><g class="cls-19"><polygon class="cls-20" points="0 36.05 5.17 28.2 23.62 56.82 42.11 28.57 47.04 36.23 23.58 72.11 0 36.05"/><polygon class="cls-20" points="8.41 23.27 23.62 0 28.82 8.16 18.47 23.27 23.62 31.09 33.96 15.9 38.86 23.27 23.62 46.55 8.41 23.27"/></g></g><g class="cls-21"><g class="cls-19"><polygon class="cls-22" points="0 36.05 5.17 28.2 23.62 56.82 42.11 28.57 47.04 36.23 23.58 72.11 0 36.05"/><polygon class="cls-22" points="8.41 23.27 23.62 0 28.82 8.16 18.47 23.27 23.62 31.09 33.96 15.9 38.86 23.27 23.62 46.55 8.41 23.27"/></g></g></g></g></g></svg>