<?xml version="1.0" encoding="iso-8859-1"?>
<!-- Generator: Adobe Illustrator 19.0.0, SVG Export Plug-In . SVG Version: 6.00 Build 0)  -->
<svg version="1.1" id="Layer_1" xmlns="http://www.w3.org/2000/svg" xmlns:xlink="http://www.w3.org/1999/xlink" x="0px" y="0px"
	 viewBox="0 0 512 512" style="enable-background:new 0 0 512 512; fill: #fff;" xml:space="preserve"  width="23" height="23">
<g>
	<g>
		<path d="M436.099,238.14h-37.215V119.134C398.884,53.442,346.971,0,281.337,0h-35.785c-65.639,0-119.041,53.442-119.041,119.134
			c0,6.576,5.331,11.907,11.907,11.907c6.576,0,11.907-5.331,11.907-11.907c0-52.558,42.721-95.32,95.227-95.32h35.785
			c52.506,0,93.733,42.762,93.733,95.32V238.14H78.884c-19.698,0-37.209,15.994-37.209,35.657v202.552
			c0,19.663,17.512,35.651,37.209,35.651h357.215c19.692,0,34.227-15.988,34.227-35.651V273.796
			C470.326,254.134,455.791,238.14,436.099,238.14z M446.512,476.349c0,6.523-3.849,11.837-10.413,11.837H78.884
			c-6.564,0-13.395-5.314-13.395-11.837V273.796c0-6.529,6.831-11.843,13.395-11.843h357.215c6.564,0,10.413,5.314,10.413,11.843
			V476.349z"/>
	</g>
</g>
<g>
	<g>
		<path d="M257.488,285.767c-26.262,0-48.372,21.366-48.372,47.628c0,11.64,5.209,22.849,11.163,31.5v63.756
			c0,6.581,6.82,11.907,13.395,11.907h47.628c6.576,0,10.419-5.326,10.419-11.907v-63.756c8.93-8.651,12.651-19.86,12.651-31.5
			C304.372,307.134,283.75,285.767,257.488,285.767z M272.616,351.151c-2.523,2.268-4.709,5.489-4.709,8.872v56.721h-23.814v-56.721
			c0-3.384-0.698-6.604-3.221-8.872c-5.046-4.523-7.57-10.988-7.57-17.756c0-13.134,10.866-23.814,24-23.814
			c13.134,0,23.535,10.68,23.535,23.814C280.837,340.163,277.663,346.628,272.616,351.151z"/>
	</g>
</g>
<g>
</g>
<g>
</g>
<g>
</g>
<g>
</g>
<g>
</g>
<g>
</g>
<g>
</g>
<g>
</g>
<g>
</g>
<g>
</g>
<g>
</g>
<g>
</g>
<g>
</g>
<g>
</g>
<g>
</g>
</svg>
