<svg xmlns="http://www.w3.org/2000/svg" fill="#00195b" width="15.12" height="19.094" viewBox="0 0 15.12 19.094">
  <path  d="M1288.01,298.3l3.04-4.527a1.353,1.353,0,0,0,.01-0.663,0.321,0.321,0,0,0-.28-0.162h-13.81v-0.63a0.8,0.8,0,0,0-.66-0.315,0.313,0.313,0,0,0-.31.315v18.262a0.313,0.313,0,0,0,.31.315,1.1,1.1,0,0,0,.69.108v-7l13.78-.037a0.32,0.32,0,0,0,.28-0.163,1.231,1.231,0,0,0-.01-0.632Zm-11.04,4.723v-9.1h12.56l-2.85,4.212a0.334,0.334,0,0,0,0,.335l2.97,4.555h-12.68Z" transform="translate(-1276 -292)"/>
</svg>
