<?xml version="1.0" encoding="utf-8"?>
<svg version="1.1" id="Layer_1" xmlns="http://www.w3.org/2000/svg" xmlns:xlink="http://www.w3.org/1999/xlink" x="0px" y="0px"
	 viewBox="-22 -22 64 64" style="enable-background:new 0 0 20 20;" xml:space="preserve">
<style type="text/css">
	.st0{fill:#FFFFFF;stroke:#B6B6B6;stroke-width:0.15;}
	.st1{fill:#CE1126;}
	.st2{fill:#009A00;}
	.st3{fill:#CCCCCC;}
</style>
<g id="Layer_1_1_">
	<circle class="st0" cx="10" cy="10" r="28.8000011"/>
	<path class="st1" d="M1.3599997,0.4000006v-17.8800011C-10.3099995-13.8199997-18.7999992-2.9000006-18.7999992,10
		s8.4899998,23.8199997,20.1599998,27.4799995V19.5999985V0.4000006z"/>
	<path class="st2" d="M37.1200027,0.4000006C33.159996-10.79,22.5400009-18.7999992,10-18.7999992
		c-3,0-5.9100008,0.4799995-8.6400003,1.3199997V0.4000006H37.1200027L37.1200027,0.4000006z"/>
	<path d="M37.1200027,19.5999985H1.3599997v17.8800011C4.0899992,38.3199997,7,38.8000031,10,38.8000031
		C22.5400009,38.8000031,33.159996,30.7900009,37.1200027,19.5999985z"/>
</g>
<g id="Layer_2_1_">
</g>
<path class="st3" d="M10-18.5c15.5999985,0,28.5,12.9000006,28.5,28.5S25.5999985,38.5,10,38.5S-18.5,25.5999985-18.5,10
	S-5.5999994-18.5,10-18.5 M10-20C-6.5-20-20-6.5-20,10s13.5,30,30,30s30-13.5,30-30S26.5-20,10-20L10-20z"/>
</svg>
