<?xml version="1.0" encoding="utf-8"?>
<svg version="1.1" id="Layer_1" xmlns="http://www.w3.org/2000/svg" xmlns:xlink="http://www.w3.org/1999/xlink" x="0px" y="0px"
	 viewBox="-22 -22 64 64" style="enable-background:new 0 0 20 20;" xml:space="preserve">
<style type="text/css">
	.st0{fill:#2A2D7C;stroke:#B6B6B6;stroke-width:0.15;stroke-miterlimit:10;}
	.st1{fill:#FFFFFF;}
	.st2{fill:#ED2224;}
	.st3{fill:#CCCCCC;}
</style>
<circle class="st0" cx="10" cy="10" r="28.8000011"/>
<polygon class="st1" points="-0.6350002,19.8879986 2.1309996,15.7180004 -2.5490003,17.4909992 -4.0789995,12.724 
	-5.612,17.4909992 -10.2919998,15.7180004 -7.5230002,19.8879986 -11.8280001,22.4379997 -6.8389997,22.8730011 
	-7.5289998,27.8289986 -4.0789995,24.204998 -0.6290007,27.8289986 -1.3189993,22.8730011 3.6669998,22.4379997 "/>
<polygon class="st1" points="28.6479988,5.1639986 28.3210011,7.5250006 29.961998,5.7969999 31.6030006,7.5250006 
	31.2759972,5.1639986 33.6520004,4.9599991 31.6030006,3.7420001 32.9230042,1.7559996 30.6940022,2.6019998 29.961998,0.3309999 
	29.2329979,2.6019998 27.0040016,1.7559996 28.3239994,3.7420001 26.2719994,4.9599991 "/>
<path class="st1" d="M-15.5959997-3.1669998c-0.033,0.0629997-0.0600004,0.1290007-0.0930004,0.1920004l0.3900003-0.1920004
	H-15.5959997z"/>
<polygon class="st1" points="22.407999,-3.1669998 7.1409998,-3.1669998 -1.4299998,-3.1669998 -1.4299998,-1.5319996 
	-1.4299998,7.4289989 0.3339996,7.4289989 0.3339996,-0.6469994 16.4860001,7.4289989 22.407999,7.4289989 4.75,-1.4030004 
	8.698,-1.4030004 22.407999,5.4520006 22.407999,4.4680004 10.6719999,-1.4030004 22.407999,-1.4030004 "/>
<path class="st1" d="M-8.4949999-12.0650005v1.0800009l-0.7650003-0.3810005
	c-1.0079994,0.9029999-1.9619999,1.8629999-2.8319998,2.901h5.3639994v-1.6379995h0.0029998V-13.415
	C-7.3309999-12.9829998-7.9279995-12.5419998-8.4949999-12.0650005z"/>
<g>
	<polygon class="st1" points="-8.4949999,-0.6469994 -8.4949999,7.4289989 -6.7280006,7.4289989 -6.7280006,-1.5319996 	"/>
	<path class="st1" d="M-6.7310004-3.1669998H-15.302l-0.3839998,0.1920004c-0.6120005,1.2059999-1.1400003,2.4570007-1.5780001,3.75
		l4.355999-2.1779995H-8.96l-8.9700003,4.4849982c-0.0930004,0.3780012-0.2099991,0.75-0.2880001,1.131001l9.7230005-4.8599997
		l1.7639995-0.8850002V-3.1669998z"/>
</g>
<g>
	<polygon class="st1" points="10.6719999,-10.2290001 7.1409998,-8.4650002 22.407999,-8.4650002 22.407999,-10.2290001 	"/>
	<path class="st1" d="M10.6719999-10.2320004l11.5949984-5.7959995c-1.0620003-0.5009995-2.1509991-0.9510002-3.2759991-1.323
		L4.75-10.2290001H0.802l15.6420021-7.8180008c-0.4680004-0.1079998-0.9360008-0.197998-1.4100008-0.2819996L0.3339996-10.9849997
		v-6.1199999c-0.5939999,0.2129993-1.1879997,0.4259987-1.7639995,0.6749992v6.3270006v1.6350002h8.5709991L10.6719999-10.2320004z"
		/>
</g>
<path class="st2" d="M-6.7280006-3.1669998v1.6350002v8.9580002h5.2980008v-8.9580002v-1.6350002h8.5709991H22.407999v-5.3009996
	H7.1409998h-8.5709991v-1.6350002v-6.3270006c-1.8809996,0.816-3.651,1.8390007-5.2980008,3.0150003v3.3119993v1.6350002H-12.092
	C-13.448-6.8419995-14.6149998-5.0629997-15.5959997-3.1669998H-15.302H-6.7280006z"/>
<path class="st2" d="M4.75-10.2290001l14.2380009-7.1189995c-0.8310013-0.2730007-1.6830006-0.5039997-2.546999-0.6989994
	L0.802-10.2290001H4.75z"/>
<polygon class="st2" points="4.75,-1.4030004 22.407999,7.4289989 22.407999,5.4520006 8.698,-1.4030004 "/>
<path class="st2" d="M-12.908-1.4030004l-4.3559999,2.1780009C-17.5189991,1.5339999-17.7350006,2.302-17.9300003,3.0819993
	l8.967001-4.4849997H-12.908z"/>
<path class="st3" d="M10-18.5c15.5999985,0,28.5,12.9000006,28.5,28.5S25.5999985,38.5,10,38.5S-18.5,25.5999985-18.5,10
	S-5.5999994-18.5,10-18.5 M10-20C-6.5-20-20-6.5-20,10s13.5,30,30,30s30-13.5,30-30S26.5-20,10-20L10-20z"/>
</svg>
