<?xml version="1.0" encoding="utf-8"?>
<svg version="1.1" id="Layer_1" xmlns="http://www.w3.org/2000/svg" xmlns:xlink="http://www.w3.org/1999/xlink" x="0px" y="0px"
	 viewBox="-22 -22 64 64" style="enable-background:new 0 0 20 20;" xml:space="preserve">
<style type="text/css">
	.st0{fill:#006A4E;}
	.st1{fill:#F42A41;}
	.st2{fill:#CCCCCC;}
</style>
<g id="Layer_1_1_">
	<circle class="st0" cx="10" cy="10" r="28.8000011"/>
	<path class="st1" d="M29.1999989,10c0,2.5140009-0.5009995,5.0250006-1.4609985,7.3469982
		c-0.9629993,2.3220005-2.3850002,4.4520016-4.1610012,6.2280006c-1.7759991,1.7759991-3.9090004,3.2010021-6.2280006,4.1610012
		c-2.3189983,0.9599953-4.8360004,1.4610004-7.3470001,1.4610004c-2.5140009,0-5.0250006-0.5009995-7.3469996-1.4609985
		c-2.3220005-0.9629993-4.4519992-2.3850002-6.2279992-4.1610012c-1.776-1.7759991-3.2009997-3.9090004-4.1610003-6.2280006
		c-0.9659996-2.3219995-1.467-4.8329992-1.467-7.3470001s0.5010004-5.0250006,1.4610004-7.3469996
		C-6.776,0.3309999-5.3540001-1.7989988-3.5780001-3.5749989S0.3280001-6.776,2.6500006-7.7390003
		C4.9749994-8.6990004,7.4859991-9.2000008,10-9.2000008s5.0250006,0.5010004,7.3469982,1.4610004
		C19.6689987-6.776,21.7989998-5.3540001,23.5749989-3.5780001s3.2010021,3.9089999,4.1610012,6.2280006
		C28.6989994,4.9749994,29.1999989,7.4859991,29.1999989,10z"/>
</g>
<g id="Layer_2_1_">
</g>
<path class="st2" d="M10-18.5c15.5999985,0,28.5,12.9000006,28.5,28.5S25.5999985,38.5,10,38.5S-18.5,25.5999985-18.5,10
	S-5.5999994-18.5,10-18.5 M10-20C-6.5-20-20-6.5-20,10s13.5,30,30,30s30-13.5,30-30S26.5-20,10-20L10-20z"/>
</svg>
