<?xml version="1.0" encoding="utf-8"?>
<svg version="1.1" id="Layer_1" xmlns="http://www.w3.org/2000/svg" xmlns:xlink="http://www.w3.org/1999/xlink" x="0px" y="0px"
	 viewBox="-22 -22 64 64" style="enable-background:new 0 0 20 20;" xml:space="preserve">
<style type="text/css">
	.st0{fill:#00923F;}
	.st1{fill:#F8C300;}
	.st2{fill:#28166F;}
	.st3{fill:#FFFFFF;}
	.st4{fill:#CCCCCC;}
</style>
<circle class="st0" cx="10" cy="10" r="28.8000011"/>
<path class="st1" d="M10-7.0850005L-16.7539997,10L10,27.0849991L36.7539978,10L10-7.0850005z"/>
<circle class="st2" cx="9.9759989" cy="10" r="11.2590008"/>
<path class="st3" d="M11.1159992,12.427l0.1350002,0.342001l0.3690004,0.0240011l-0.2819996,0.2370014l0.0930004,0.3570013
	l-0.3120003-0.198l-0.3120003,0.198l0.0930004-0.3570042l-0.2850008-0.2370014l0.3690004-0.0240011L11.1159992,12.427z
	 M19.5340004,13.6300001l0.1140022,0.2939987l0.3149986,0.0209999l-0.2430019,0.2010012l0.078001,0.3060007l-0.2640018-0.1679993
	l-0.2640018,0.1679993l0.078001-0.3060007l-0.2430019-0.2010012l0.3149986-0.0209999L19.5340004,13.6300001z M18.3279991,14.5629997
	l0.1350021,0.342001l0.3689995,0.0240011l-0.2849998,0.2370014l0.0929985,0.3599997l-0.3120003-0.1949987l-0.3120003,0.1949987
	l0.0930023-0.3570013l-0.2850018-0.2370014l0.3690014-0.0240011L18.3279991,14.5629997z M17.8840008,13.3540001l0.1620007,0.4050007
	l0.4379997,0.0300007l-0.3360023,0.2790012l0.1080017,0.4229994l-0.3690014-0.2340002l-0.3690014,0.2340002l0.1080017-0.4229994
	l-0.3360023-0.2790012l0.4379997-0.0300007L17.8840008,13.3540001z M17.7970009,15.4570007l0.1349983,0.342001l0.3690014,0.0240011
	l-0.2850018,0.2370024l0.0930023,0.3570004l-0.3120003-0.198l-0.3120003,0.198l0.0929985-0.3570004l-0.2849998-0.2370024
	l0.3689995-0.0240011L17.7970009,15.4570007z M16.7409992,16.0119991l0.1140003,0.2910004l0.3149986,0.0209999l-0.243,0.2010021
	l0.0779991,0.3059998l-0.2639999-0.1679993l-0.2640018,0.1679993l0.078001-0.3059998l-0.2430019-0.2010021l0.3149986-0.0209999
	L16.7409992,16.0119991z M15.657999,17.0200005l0.1350002,0.342001l0.3689995,0.0240002l-0.2849998,0.2370033l0.0930004,0.3570004
	l-0.3120003-0.198l-0.3120003,0.198l0.0930004-0.3570004l-0.2819996-0.2370033L15.526,17.3620014L15.657999,17.0200005z
	 M15.6459999,18.282999l0.1140003,0.2910004l0.3149986,0.0209999l-0.243001,0.2010021l0.0780001,0.3059998l-0.2640009-0.1679993
	l-0.2640009,0.1679993l0.0780001-0.3059998l-0.243001-0.2010021l0.3149986-0.0209999L15.6459999,18.282999z M15.6280012,16.0030022
	l0.1140003,0.2910004l0.3149977,0.0209999l-0.243,0.2010002l0.0780001,0.3059998l-0.2640009-0.1679993l-0.2640009,0.1679993
	l0.0780001-0.3059998l-0.243001-0.2010002l0.3149986-0.0209999L15.6280012,16.0030022z M14.2989988,16.2639999l0.1169987,0.2939987
	l0.3149986,0.0209999l-0.243001,0.2010021l0.0780001,0.3060017l-0.2640009-0.1679993l-0.2640009,0.1679993l0.0780001-0.3060017
	l-0.243001-0.2010021l0.3149986-0.0209999L14.2989988,16.2639999z M13.4470005,5.4580002l0.1619997,0.4050007l0.4379997,0.0300007
	l-0.3360014,0.2790012l0.1080008,0.4229994l-0.3690004-0.2310019l-0.3690004,0.2340002l0.1080008-0.4229994l-0.3389997-0.2820024
	l0.4379997-0.0300007L13.4470005,5.4580002z M13.2729988,17.2960014l0.1350002,0.3419991l0.3690004,0.0240021l-0.2850008,0.2370014
	l0.0930004,0.3570004l-0.3120003-0.1949978l-0.3120003,0.1949978l0.0930004-0.3570004l-0.2879992-0.2370014l0.3690004-0.0240021
	L13.2729988,17.2960014z M12.6429987,8.8809996l0.1169987,0.2910004l0.3149986,0.0209999L12.831995,9.394001l0.0780001,0.3060007
	l-0.2640009-0.1679993l-0.2640009,0.1679993l0.0780001-0.3060007L12.217001,9.1899986l0.3149986-0.0209999L12.6429987,8.8809996z
	 M12.3430004,15.9790001l0.1140003,0.2939987l0.3149986,0.0209999l-0.243001,0.2010002l0.0780001,0.3060017l-0.2640009-0.1679993
	l-0.2640009,0.1679993l0.0780001-0.3060017l-0.243001-0.2010002l0.3149986-0.0209999L12.3430004,15.9790001z M10.0870008,11.4639997
	l0.1350002,0.342001l0.3690004,0.0240011l-0.2850008,0.2370014l0.0930004,0.3570013l-0.3120003-0.1949987l-0.3120003,0.1949987
	l0.0930004-0.3570013L9.5830002,11.829999l0.3690004-0.0240011L10.0870008,11.4639997z M10.0209999,14.6560001l0.1619997,0.4050007
	l0.4379997,0.0300007l-0.3360014,0.2790012l0.1080008,0.4229994l-0.3690004-0.2340002l-0.3690004,0.2340002l0.1080008-0.4229994
	l-0.3360014-0.2790012l0.4379997-0.0300007L10.0209999,14.6560001z M10.0539989,18.7299995l0.0600014,0.1560001l0.1679993,0.0119991
	l-0.1290007,0.1080017l0.0389986,0.1650009l-0.1409998-0.0900002l-0.1379986,0.0900002l0.0389986-0.1650009l-0.1259995-0.1080017
	l0.1679993-0.0119991L10.0539989,18.7299995z M9.3459988,13.3480005l0.0870008,0.2189999l0.2340002,0.0150003l-0.1800013,0.1500006
	l0.0570002,0.2280006l-0.198-0.1259995l-0.198,0.1259995l0.0570002-0.2280006l-0.1800013-0.1500006l0.2370014-0.0150003
	L9.3459988,13.3480005z M8.5240011,12.6340008l0.1140003,0.2939987l0.3149986,0.0209999l-0.243001,0.2010012l0.0780001,0.3060007
	L8.5239983,13.288002l-0.2640009,0.1679993l0.0780001-0.3060007l-0.243001-0.2010012l0.3149986-0.0209999L8.5240011,12.6340008z
	 M5.599,9.9489994l0.1350002,0.342001l0.3690004,0.0240011l-0.2819996,0.2370014l0.0930004,0.3570013l-0.3120003-0.198
	l-0.3120003,0.1949959l0.0930004-0.3570013l-0.2850008-0.2370014l0.3690004-0.0240011L5.599,9.9489994z M5.269001,15.6340008
	l0.1619997,0.4050007l0.4379997,0.0300007l-0.3389997,0.2789974l0.1080008,0.4230003l-0.3719988-0.2340012l-0.3660021,0.2340012
	l0.1080008-0.4230003l-0.3360014-0.2789993l0.4379997-0.0300026L5.269001,15.6340008z M4.032999,13.3900003l0.1350002,0.342001
	l0.3690004,0.0240011l-0.2850008,0.2370014l0.0930004,0.3570013l-0.3120003-0.198l-0.3119988,0.1979942l0.0930004-0.3570013
	L3.532001,13.7559967l0.3690004-0.0240011L4.032999,13.3900003z M3.625,14.6529989l0.1140003,0.2939987l0.3149986,0.0209999
	l-0.2429996,0.2010012l0.0809999,0.3029995l-0.2639995-0.1679993l-0.2670007,0.1679993l0.0780001-0.3060007l-0.2429996-0.2010012
	l0.3150001-0.0209999L3.625,14.6529989z M2.7849994,11.776l0.0869994,0.2189999l0.2340002,0.0150003l-0.1799998,0.1500006
	l0.0570002,0.2280006l-0.198-0.1259995l-0.1950002,0.1290007l0.0570002-0.2280006l-0.1799998-0.1500006l0.237-0.0150003
	L2.7849994,11.776z M1.7529998,12.2320013l0.1619997,0.4050007l0.4379997,0.0300007l-0.336,0.2790012l0.1079993,0.4229994
	l-0.3690004-0.2340002l-0.3720002,0.2340002l0.1079993-0.4229994l-0.336-0.2790012L1.593997,12.637002L1.7529998,12.2320013z
	 M0.823,7.5460005l0.1619997,0.407999l0.4379997,0.0300007l-0.336,0.276l0.1079993,0.4229994L0.823,8.4520006l-0.3660007,0.230999
	l0.1080008-0.4229994L0.2260003,7.980999L0.664,7.9509983L0.823,7.5460005z M0.5709996,13.3000011l0.1350002,0.342001
	l0.3690004,0.0240011l-0.2850008,0.2369957l0.0930004,0.3570013l-0.3120003-0.1949987l-0.3150001,0.198L0.349,13.9060001
	l-0.2849994-0.2370014l0.3690004-0.0240011L0.5709996,13.3000011z"/>
<path class="st3" d="M3.2559996,6.5200005c6.6960011,0,12.8370008,2.4630003,17.5589981,6.5280018
	c0.1560001-0.5460005,0.2700005-1.1130009,0.342001-1.6920004c-4.8990002-3.9720011-11.1300001-6.3599997-17.901001-6.3599997
	c-1.1760006,0-2.3339996,0.0749989-3.4710002,0.2130003c-0.2429996,0.5219994-0.4470005,1.0589991-0.612,1.6199999
	C0.5050001,6.6280012,1.8670001,6.5200005,3.2559996,6.5200005z"/>
<path class="st0" d="M0.3579993,5.9350014c0.0090008,0.1109991,0.039,0.1949987,0.0960002,0.2519989
	c0.0540004,0.0570002,0.1229997,0.0810013,0.2130003,0.0749989C0.7540007,6.2530012,0.8200002,6.2199993,0.8679996,6.151
	c0.0419998-0.0660009,0.0599999-0.1500006,0.0510006-0.2609997c-0.0120006-0.1109991-0.0419998-0.1950016-0.099-0.2490005
	C0.7659998,5.5810013,0.6939993,5.5570002,0.6069999,5.5660009c-0.0869994,0.0059996-0.1530004,0.0419998-0.198,0.1079979
	C0.3670001,5.7370014,0.349,5.8270006,0.3579993,5.9350014z M0.1480002,5.9560013
	c-0.0150003-0.1650009,0.0209999-0.2940016,0.099-0.3959999s0.1950002-0.1619997,0.3449993-0.1739988
	C0.7449999,5.3740005,0.8679996,5.4129992,0.9639997,5.5c0.0960002,0.0839996,0.1500006,0.2130003,0.1650009,0.3719988
	c0.0149989,0.1620026-0.0210013,0.2940016-0.099,0.3990011c-0.0810013,0.099-0.2010012,0.1590014-0.3480005,0.1679993
	C0.5319996,6.4539995,0.4089999,6.4149981,0.3129997,6.3280001C0.2169995,6.2409992,0.1630006,6.118001,0.1480002,5.9560013z
	 M1.7830005,5.7700005L2.026,5.7609997c0.0510006-0.0029984,0.0900006-0.0150003,0.1140003-0.0389986
	c0.0269995-0.0209999,0.0360003-0.0539989,0.0360003-0.1020012c0-0.0419998-0.0150003-0.0780001-0.039-0.099
	C2.1129994,5.5,2.0739994,5.4940004,2.026,5.4940004L1.7739997,5.5L1.7830005,5.7700005z M1.5969996,6.3399992L1.5609994,5.3349991
	l0.4860005-0.0179987c0.1079993-0.0030012,0.1890006,0.0179987,0.2459993,0.0600014
	c0.0540004,0.0479994,0.0840011,0.1169987,0.0870008,0.2129974c0.0029998,0.0600014-0.0089993,0.1109991-0.0360003,0.1560001
	C2.3200002,5.7879992,2.2839999,5.8179998,2.2360005,5.8330002c0.0419998,0.0150003,0.0750003,0.0360003,0.0960002,0.0689993
	S2.3650012,5.9830008,2.368001,6.0489988l0.0089993,0.1199999v0.0030012c0.0029998,0.0600014,0.0180001,0.099,0.0419998,0.1080008
	v0.032999L2.1970005,6.3189993C2.1880012,6.3039989,2.1820002,6.2889986,2.1760006,6.2679987
	c-0.0030012-0.0239983-0.006001-0.0449982-0.006001-0.0719976L2.164,6.0880003
	C2.1580005,6.0250006,2.1459999,5.9859991,2.1220002,5.9649992s-0.0599999-0.032999-0.1140003-0.0300007L1.789,5.9410009
	l0.0150003,0.3929987L1.5969996,6.3399992z M3.0789995,6.1149998L3.2470002,6.118001
	c0.0960002,0.0030012,0.1680007-0.0240011,0.2100005-0.0720005c0.0389986-0.0479994,0.0629997-0.1290007,0.0659995-0.243001
	S3.5050001,5.6080008,3.4689999,5.5570002C3.427,5.5,3.3670001,5.4730005,3.2800007,5.4730005L3.0910001,5.467001
	L3.0789995,6.1149998z M2.8720002,6.2919998l0.0209999-1.0050001l0.3930001,0.0030012
	c0.1560001,0.0030012,0.2670007,0.045001,0.3419995,0.131999C3.7030001,5.5090008,3.7359991,5.631999,3.7359991,5.8029995
	c-0.0029998,0.0930004-0.0179987,0.1740017-0.0449996,0.243001C3.6609988,6.1149998,3.618999,6.1690016,3.5679998,6.2139997
	C3.526,6.2440004,3.4810004,6.2650003,3.427,6.2800007C3.3729997,6.2919998,3.3010006,6.2979994,3.2080002,6.2979994
	L2.8720002,6.2919998z M4.1469994,6.3129997l0.0539989-1.0019989l0.729003,0.0419998L4.9239988,5.5240011L4.3989983,5.4940004
	L4.3840008,5.7130003l0.4799995,0.0269995L4.8549995,5.9110003L4.375,5.8809996L4.3599997,6.1419992l0.5489988,0.0300007
	L4.9000006,6.3549995L4.1469994,6.3129997z M5.3289995,6.3850002l0.1080008-0.9990005l0.3029995,0.032999l0.1169987,0.7800007
	l0.276-0.7409992l0.3060007,0.032999L6.3339996,6.493001L6.1419992,6.4720011l0.0870008-0.8070002L5.9379997,6.448
	L5.7280006,6.4239988L5.6080008,5.5959988L5.5209999,6.4060001L5.3289995,6.3850002z M7.993001,6.7270012l0.2099991-0.980999
	l0.7139997,0.1529989L8.8809996,6.0699987L8.368001,5.9589996L8.3199987,6.1660004l0.4680004,0.1020012l-0.032999,0.1679993
	l-0.4709988-0.099L8.2330008,6.5860014l0.5400009,0.1140003L8.730999,6.8859997L7.993001,6.7270012z M10.651,6.7900009
	l0.1920004,0.0510006c0.0510006,0.0150003,0.0930004,0.0119991,0.1230011-0.0030012
	c0.0300007-0.0179987,0.0510006-0.0479994,0.0629997-0.099c0.0119991-0.045001,0.0119991-0.0839996-0.0059996-0.1140003
	s-0.0479994-0.0510006-0.0959988-0.0629997l-0.2039995-0.0539989L10.651,6.7900009z M10.605999,6.9639997l-0.0930004,0.3449993
	l-0.198-0.0539989l0.2609997-0.9720011l0.432003,0.1170015c0.1020012,0.0300007,0.1739988,0.0749989,0.2099991,0.1409998
	s0.0419998,0.1529989,0.0150003,0.2519989c-0.0269995,0.1020012-0.0720005,0.1710005-0.1379986,0.2099991
	s-0.1469994,0.0479994-0.243001,0.0240011L10.605999,6.9639997z M11.8120003,7.1230011l0.2340002,0.0720005
	c0.0479994,0.0150003,0.0930004,0.0179987,0.1199999,0.0030012c0.032999-0.0119991,0.0510006-0.0419998,0.0660009-0.0870008
	c0.0119991-0.0389986,0.0119991-0.0780001-0.0059996-0.1049995c-0.0179987-0.0300007-0.0479994-0.0479994-0.0930004-0.0629997
	l-0.243001-0.0749989L11.8120003,7.1230011z M11.4489994,7.6030006l0.2939987-0.9630003l0.4680004,0.144001
	c0.1049995,0.032999,0.177,0.0780001,0.2130003,0.1379986c0.0360003,0.0600014,0.0389986,0.1350002,0.0119991,0.2280006
	c-0.0179987,0.0570002-0.045001,0.1049995-0.0810013,0.1350002c-0.0360003,0.032999-0.0810013,0.0479994-0.1290007,0.0479994
	c0.0360003,0.0300007,0.0600014,0.0600014,0.0689993,0.0959988c0.0090008,0.0360003,0.0030012,0.0870008-0.0150003,0.1529989
	L12.2439947,7.692997v0.0030012c-0.0179987,0.0570002-0.0150003,0.0959988,0.0059996,0.1140003l-0.0090008,0.0300007
	l-0.2159986-0.0660009c-0.0030012-0.0150003-0.0030012-0.0360003,0-0.0539989s0.0059996-0.045001,0.0150003-0.0720005
	l0.0300007-0.1020012c0.0179987-0.0600014,0.0179987-0.1049995,0.0030012-0.1290007
	c-0.0150003-0.0269995-0.045001-0.0479994-0.1020012-0.0660009l-0.2099991-0.0629997l-0.1140003,0.375L11.4489994,7.6030006z
	 M12.9790001,7.5970011c-0.0360003,0.1049995-0.0419998,0.1920004-0.0179987,0.2669992
	c0.0269995,0.0749989,0.0780001,0.1259995,0.1619997,0.1560001c0.0839996,0.032999,0.1590014,0.0269995,0.2280006-0.0150003
	c0.0689993-0.0389986,0.1199999-0.1109991,0.1590014-0.2159986s0.0419998-0.1920004,0.0179987-0.2669992
	s-0.0810013-0.1259995-0.1650009-0.1590014c-0.0839996-0.032999-0.1590014-0.0269995-0.2249994,0.0150003
	C13.0660009,7.4229994,13.0150003,7.4949999,12.9790001,7.5970011z M12.7779989,7.5250006
	c0.0539989-0.1529989,0.1409998-0.2580013,0.2550001-0.3179998c0.1140003-0.0570002,0.2459993-0.0629997,0.3869991-0.0119991
	s0.2370014,0.1379986,0.2879992,0.2550001c0.0510006,0.1199999,0.0479994,0.2550001-0.0090008,0.407999
	c-0.0539989,0.1529989-0.1409998,0.2580013-0.2580013,0.3179998c-0.1140003,0.0600014-0.2459993,0.0629997-0.3869991,0.0119991
	s-0.2370014-0.1379986-0.2879992-0.2550001C12.7209988,7.8129997,12.724,7.6779995,12.7779989,7.5250006z M14.6409998,8.7070007
	c-0.0539989,0.032999-0.1080008,0.0479994-0.1619997,0.0510006c-0.0510006,0.0030012-0.1080008-0.0090008-0.1679993-0.032999
	c-0.1290007-0.0539989-0.2159986-0.144001-0.2550001-0.2669992c-0.0419998-0.1230011-0.032999-0.2580013,0.032999-0.4050007
	c0.0629997-0.1469994,0.1529989-0.2490005,0.2700005-0.3029995c0.1140003-0.0539989,0.2399998-0.0539989,0.375,0.0030012
	c0.1140003,0.0479994,0.198,0.1169987,0.2490005,0.2039995c0.0479994,0.0870008,0.0600014,0.1800013,0.032999,0.2850008
	l-0.1920004-0.0839996c0.0090008-0.0510006,0-0.1020012-0.0269995-0.1409998s-0.0660009-0.0720005-0.1230011-0.099
	c-0.0780001-0.032999-0.1500006-0.032999-0.2189999,0.0090008c-0.0689993,0.0360003-0.1230011,0.1080008-0.1679993,0.2070007
	c-0.0419998,0.1020012-0.0539989,0.1889992-0.032999,0.2640009c0.0240011,0.0780001,0.0720005,0.131999,0.1529989,0.1679993
	c0.0600014,0.0269995,0.1169987,0.0300007,0.1739988,0.0119991c0.0539989-0.0179987,0.1020012-0.0570002,0.1379986-0.1140003
	l-0.2099991-0.0899992l0.0660009-0.1590014l0.3840008,0.1650009l-0.2189999,0.5039949l-0.1259995-0.0539989L14.6409998,8.7070007z
	 M15.5949993,8.6800013l0.2189999,0.1080008c0.0479994,0.0240011,0.0870008,0.032999,0.1169987,0.0240011
	c0.032999-0.0090008,0.0570002-0.032999,0.078001-0.0749989c0.0179977-0.0360003,0.0240002-0.0749989,0.0119972-0.1049995
	c-0.0119972-0.032999-0.0389977-0.0570002-0.0810003-0.0780001l-0.2280006-0.1109991L15.5949993,8.6800013z M15.1600008,9.0970011
	l0.4410009-0.9000006l0.4379997,0.2130003c0.098999,0.0479994,0.1619987,0.1049995,0.1860008,0.1710005
	c0.0270004,0.0660009,0.0209999,0.1409998-0.0240021,0.2280006c-0.0269985,0.0539989-0.0600014,0.0959988-0.1020012,0.1199999
	c-0.0389977,0.0269995-0.0869999,0.0360003-0.1349993,0.0269995c0.0360003,0.0299978,0.0509996,0.0659981,0.053998,0.099
	c0.0030022,0.0360003-0.0119972,0.0870008-0.0359993,0.1469994l-0.0479994,0.1109991c0,0,0,0.0030012-0.0030012,0.0030012
	c-0.0269995,0.0539989-0.0300007,0.0930004-0.0119991,0.1140003l-0.0150003,0.0300007l-0.2039995-0.0960016
	c0-0.0179987,0.0030012-0.0360003,0.0090008-0.0539989C15.7149992,9.2890015,15.724,9.2680016,15.7359991,9.2410021
	l0.0419998-0.0959988C15.8049984,9.0880032,15.810998,9.0430021,15.802,9.0160027
	c-0.0090008-0.0300007-0.0389986-0.0539989-0.0899992-0.0810013l-0.1949987-0.099l-0.1739988,0.3509989L15.1600008,9.0970011z
	 M16.2849998,9.6760006l0.4890022-0.8790007L17.4099998,9.151L17.323,9.3039989l-0.4619999-0.2550001l-0.1049995,0.1860008
	l0.4200001,0.2340002L17.092001,9.6190004l-0.4200001-0.2340002l-0.1259995,0.2249994l0.4799995,0.2669992l-0.0900002,0.1619997
	L16.2849998,9.6760006z M17.4160004,9.9849997l0.177,0.1049995c-0.0240002,0.0510006-0.0240002,0.099-0.0059986,0.1409998
	c0.0179977,0.0419998,0.0569992,0.0810013,0.1169968,0.1169987c0.0510025,0.032999,0.0960007,0.045001,0.132,0.0419998
	s0.0660019-0.0209999,0.0900002-0.0570002c0.0329971-0.0510006-0.0179996-0.1409998-0.1469994-0.2640009
	c-0.0030022-0.0030012-0.0030022-0.0030012-0.0060005-0.0059996c-0.0030022-0.0030012-0.0090008-0.0090008-0.0149994-0.0150003
	c-0.0690002-0.0660009-0.1140022-0.1199999-0.1350021-0.1650009c-0.0209999-0.0360003-0.0269985-0.0780001-0.0240002-0.1199999
	s0.0209999-0.0870008,0.0450001-0.1290007c0.0480003-0.0839996,0.1170006-0.1290007,0.2010021-0.1409998
	c0.0839996-0.0090008,0.1800022,0.0179987,0.2880001,0.0810013c0.1020012,0.0600014,0.1650009,0.131999,0.1919994,0.2130003
	c0.0300007,0.0810013,0.0179996,0.1679993-0.032999,0.2550001l-0.1650009-0.1019983
	c0.0240021-0.0419998,0.0270004-0.0870008,0.0090008-0.1230011c-0.0150013-0.0389986-0.0479984-0.0749989-0.1049995-0.1080008
	c-0.0450001-0.0300007-0.0869999-0.0389986-0.1230011-0.0360003c-0.0360012,0.0030012-0.0629997,0.0209999-0.0839996,0.0539989
	c-0.0300007,0.045001,0,0.1080008,0.0869999,0.1889992c0.0240021,0.0240011,0.0389996,0.0389986,0.0510025,0.0510006
	C18.0159988,10.0209942,18.052,10.0599957,18.073,10.0839939c0.0209999,0.0269995,0.0360012,0.0479994,0.0479984,0.0720005
	c0.0240021,0.0389986,0.0360012,0.0810013,0.0330009,0.1230011c-0.0030022,0.0419998-0.0179996,0.0870008-0.0419998,0.131999
	c-0.0540009,0.0899992-0.1259995,0.1409998-0.2159996,0.1529989s-0.1889992-0.0150003-0.3000011-0.0810013
	c-0.1079998-0.0660009-0.1800022-0.1409998-0.2099991-0.2280006C17.355999,10.1739988,17.3649998,10.0810013,17.4160004,9.9849997z
	 M18.4749985,10.6479988l0.1710014,0.1140003c-0.0270004,0.0479994-0.0300007,0.0959988-0.0119991,0.1379986
	c0.0150013,0.0419998,0.0510006,0.0839996,0.1109982,0.1230011c0.0480003,0.0360003,0.0930023,0.0479994,0.1290016,0.0479994
	s0.0690002-0.0179987,0.0930004-0.0510006c0.0360012-0.0510006-0.0119991-0.1409998-0.1319981-0.2729988
	c0,0-0.0030022-0.0030012-0.0030022-0.0059996c-0.0030022-0.0030012-0.0090008-0.0090008-0.0149994-0.0179987
	c-0.0660019-0.0689993-0.1080017-0.1259995-0.1259995-0.1710005c-0.0179996-0.0360003-0.0240021-0.0810013-0.0179996-0.1199999
	c0.0059986-0.0419998,0.0240002-0.0870008,0.0539989-0.1290007c0.0539989-0.0810013,0.1230011-0.1230011,0.2070007-0.1290007
	s0.1800003,0.0269995,0.2819996,0.099c0.0990009,0.0660009,0.1590023,0.1409998,0.1800022,0.2220011
	c0.0240002,0.0839996,0.0089989,0.1679993-0.0419998,0.2519989l-0.1650009-0.1109991
	c0.0269985-0.0419998,0.0299988-0.0839996,0.0179977-0.1230011s-0.045002-0.0780001-0.098999-0.1109991
	c-0.045002-0.032999-0.0870018-0.045001-0.1200008-0.0419998c-0.0360012,0-0.066,0.0179987-0.0869999,0.0479994
	c-0.0300026,0.0419998-0.0060005,0.1080008,0.0749969,0.1949987C19,10.6269989,19.0119991,10.6449976,19.0239983,10.6569967
	c0.0480003,0.0539989,0.0870018,0.099,0.1049995,0.1230011c0.0209999,0.0269995,0.0359993,0.0510006,0.045002,0.0749989
	c0.0209999,0.0419998,0.0299988,0.0839996,0.0269985,0.1259995s-0.0209999,0.0870008-0.0479984,0.1290007
	c-0.0570011,0.0870008-0.132,0.1350002-0.2250004,0.1409998c-0.0930004,0.0090008-0.1889992-0.0240011-0.296999-0.0959988
	c-0.1049995-0.0720005-0.1710014-0.1500006-0.1949997-0.2399998C18.4029999,10.8310013,18.4179993,10.7409992,18.4749985,10.6479988
	z M19.7530022,11.3260012C19.6870003,11.4160004,19.6540012,11.5,19.6540012,11.5780001
	c0.0030003,0.0780001,0.0360012,0.144001,0.1079998,0.198c0.0720024,0.0539989,0.144001,0.0720005,0.222002,0.0510006
	c0.0749989-0.0179987,0.1469994-0.0720005,0.2159977-0.1619997c0.0660019-0.0870008,0.0990009-0.1739988,0.0960007-0.2519989
	c-0.0030022-0.0780001-0.0389996-0.144001-0.1110001-0.198c-0.0690002-0.0539989-0.144001-0.0689993-0.2189999-0.0510006
	C19.8909988,11.1850014,19.8190002,11.2359991,19.7530022,11.3260012z M19.5849991,11.1970005
	c0.098999-0.1290007,0.2099991-0.2039995,0.3390007-0.2280006c0.1289997-0.0240011,0.2519989,0.0119991,0.3719978,0.1020012
	c0.1199989,0.0930004,0.1860008,0.2010012,0.198,0.329999c0.0119991,0.1290007-0.0300007,0.2580013-0.1259995,0.3900003
	c-0.0990009,0.1290007-0.2099991,0.2039995-0.3389988,0.2280006c-0.1290016,0.0240011-0.2519989-0.0119991-0.3719997-0.1020012
	c-0.1200008-0.0930004-0.1860008-0.2010012-0.198-0.329999C19.4440002,11.4580002,19.4860001,11.3289995,19.5849991,11.1970005z"/>
<path class="st4" d="M10-18.5c15.5999985,0,28.5,12.9000006,28.5,28.5S25.5999985,38.5,10,38.5S-18.5,25.5999985-18.5,10
	S-5.5999994-18.5,10-18.5 M10-20C-6.5-20-20-6.5-20,10s13.5,30,30,30s30-13.5,30-30S26.5-20,10-20L10-20z"/>
</svg>
