<?xml version="1.0" encoding="utf-8"?>
<svg version="1.1" id="Layer_1" xmlns="http://www.w3.org/2000/svg" xmlns:xlink="http://www.w3.org/1999/xlink" x="0px" y="0px"
	 viewBox="-22 -22 64 64" style="enable-background:new 0 0 20 20;" xml:space="preserve">
<style type="text/css">
	.st0{fill:#DD2E26;}
	.st1{fill:#FFDE00;}
	.st2{fill:#CCCCCC;}
</style>
<circle class="st0" cx="10" cy="10" r="28.8000011"/>
<polygon class="st1" points="-2.4619994,-7.0939999 -4.3969994,-13.04 -6.3380003,-7.0939999 -12.5719995,-7.0819993 
	-7.5380006,-3.3889995 -9.4549999,2.5659995 -4.4030004,-1.0999994 0.6459999,2.5689993 -1.2650003,-3.3859997 
	3.7719994,-7.0759997 "/>
<polygon class="st1" points="11.0109997,4.4229994 9.7180004,6.0610008 7.7679987,5.3470011 8.9169998,7.0810013 
	7.6330013,8.7249994 9.6340008,8.1610003 10.7919998,9.8890009 10.881999,7.8039989 12.8800001,7.2280006 10.9329996,6.5080013 "/>
<polygon class="st1" points="16.3810005,0.4390006 15.657999,-1.5170007 15.0880003,0.487 13.0150003,0.5709996 
	14.7370014,1.7379994 14.1760006,3.7449999 15.8110008,2.461 17.5389977,3.6190004 16.8279991,1.6569996 18.4599991,0.3640003 "/>
<polygon class="st1" points="14.9589996,-6.5180001 15.2650003,-4.4539995 16.2340012,-6.2960005 18.2859993,-5.9450002 
	16.8339996,-7.4450002 17.7939987,-9.2869997 15.9310007,-8.375 14.4730005,-9.8629999 14.7700005,-7.802 12.9100008,-6.8779998 "/>
<polygon class="st1" points="9.5560007,-12.0320005 10.6300001,-10.25 10.8160009,-12.3290005 12.8409986,-12.8059998 
	10.9300013,-13.6189995 11.1070013,-15.698 9.7390003,-14.1230001 7.8220005,-14.9300003 8.8869991,-13.1420002 
	7.5279989,-11.5640001 "/>
<path class="st2" d="M10-18.5c15.5999985,0,28.5,12.9000006,28.5,28.5S25.5999985,38.5,10,38.5S-18.5,25.5999985-18.5,10
	S-5.5999994-18.5,10-18.5 M10-20C-6.5-20-20-6.5-20,10s13.5,30,30,30s30-13.5,30-30S26.5-20,10-20L10-20z"/>
</svg>
