<?xml version="1.0" encoding="utf-8"?>
<svg version="1.1" id="Layer_1" xmlns="http://www.w3.org/2000/svg" xmlns:xlink="http://www.w3.org/1999/xlink" x="0px" y="0px"
	 viewBox="-22 -22 64 64" style="enable-background:new 0 0 20 20;" xml:space="preserve">
<style type="text/css">
	.st0{fill:#FCD116;}
	.st1{fill:#003893;}
	.st2{fill:#CE1126;}
	.st3{fill:#CCCCCC;}
</style>
<g id="Layer_1_1_">
	<path class="st0" d="M10-18.7999992C-5.9060001-18.7999992-18.8000011-5.9060001-18.8000011,10h57.6000061
		C38.8000031-5.9060001,25.9060001-18.7999992,10-18.7999992z"/>
	<path class="st1" d="M38.8000031,10h-57.6000023c0,5.2530012,1.4279995,10.1609993,3.8849993,14.4000015h49.8300018
		C37.3720016,20.1609993,38.8000031,15.2530012,38.8000031,10z"/>
	<path class="st2" d="M34.9150009,24.4000015H-14.915C-9.9320002,33.0009995-0.6529989,38.8000031,10,38.8000031
		S29.9319973,33.0009995,34.9150009,24.4000015z"/>
</g>
<g id="Layer_2_1_">
</g>
<path class="st3" d="M10-18.5c15.5999985,0,28.5,12.9000006,28.5,28.5S25.5999985,38.5,10,38.5S-18.5,25.5999985-18.5,10
	S-5.5999994-18.5,10-18.5 M10-20C-6.5-20-20-6.5-20,10s13.5,30,30,30s30-13.5,30-30S26.5-20,10-20L10-20z"/>
</svg>
