<?xml version="1.0" encoding="utf-8"?>
<svg version="1.1" id="Layer_1" xmlns="http://www.w3.org/2000/svg" xmlns:xlink="http://www.w3.org/1999/xlink" x="0px" y="0px"
	 viewBox="-22 -22 64 64" style="enable-background:new 0 0 20 20;" xml:space="preserve">
<style type="text/css">
	.st0{fill:#FFFFFF;stroke:#B6B6B6;stroke-width:0.15;stroke-miterlimit:10;}
	.st1{fill:#002A8F;}
	.st2{fill:#CF142B;}
	.st3{fill:#FFFFFF;}
	.st4{fill:#CCCCCC;}
</style>
<g id="Layer_1_1_">
	<circle class="st0" cx="10" cy="10" r="28.8000011"/>
	<path class="st1" d="M33.0009995,27.2800007H1.1530004l-9.0750008,5.2380009
		C-3.0020003,36.4419975,3.2199993,38.8000031,10,38.8000031C19.4109993,38.8000031,27.7480011,34.2639999,33.0009995,27.2800007z"
		/>
	<path class="st1" d="M33.0009995-7.2800007C27.7480011-14.2639999,19.4109993-18.7999992,10-18.7999992
		c-6.7800007,0-13.0020008,2.3579998-17.9220009,6.2819996l9.0750008,5.237999H33.0009995z"/>
	<path class="st1" d="M31.0839996,10l-9.9749985,5.7600002h17.1150017C38.5990028,13.9000006,38.8000031,11.974,38.8000031,10
		s-0.2010002-3.9000006-0.5790024-5.7600002H21.105999L31.0839996,10z"/>
	<path class="st2" d="M21.105999,15.7600002L31.0810013,10l-9.9749985-5.7600002L1.1530004-7.2800007l-9.0750008-5.237999
		C-14.5430002-7.2440004-18.7999992,0.8770003-18.7999992,10s4.256999,17.2439995,10.8779993,22.5180016l9.0750008-5.2380009
		L21.105999,15.7600002z"/>
	<polygon class="st3" points="0.9639997,11.0200005 6.0460005,7.329999 -0.2329993,7.329999 -2.1740003,1.3599997 -4.112,7.329999 
		-10.3909998,7.329999 -5.3090005,11.0200005 -7.25,16.9899998 -2.1710005,13.3000011 2.9080005,16.9899998 	"/>
</g>
<g id="Layer_2_1_">
</g>
<path class="st4" d="M10-18.5c15.5999985,0,28.5,12.9000006,28.5,28.5S25.5999985,38.5,10,38.5S-18.5,25.5999985-18.5,10
	S-5.5999994-18.5,10-18.5 M10-20C-6.5-20-20-6.5-20,10s13.5,30,30,30s30-13.5,30-30S26.5-20,10-20L10-20z"/>
</svg>
