<?xml version="1.0" encoding="utf-8"?>
<svg version="1.1" id="Layer_1" xmlns="http://www.w3.org/2000/svg" xmlns:xlink="http://www.w3.org/1999/xlink" x="0px" y="0px"
	 viewBox="-22 -22 64 64" style="enable-background:new 0 0 20 20;" xml:space="preserve">
<style type="text/css">
	.st0{fill:#FFFFFF;stroke:#B6B6B6;stroke-width:0.15;stroke-miterlimit:10;}
	.st1{fill:#D00C33;}
	.st2{fill:#CCCCCC;}
</style>
<g id="Layer_1_1_">
	<circle class="st0" cx="10" cy="10" r="28.8000011"/>
	<path class="st1" d="M-18.4729996,14.1159992c1.3349991,9.3060017,7.092,17.1720028,15.098999,21.3810024V14.1160021
		C-3.3709993,14.1159992-18.4729996,14.1159992-18.4729996,14.1159992z"/>
	<path class="st1" d="M-3.3709993-15.4969997c-8.0100002,4.2119999-13.7670012,12.0749998-15.099,21.3810005h15.099V-15.4969997z"/>
	<path class="st1" d="M38.4729996,14.1159992h-33.618v24.2009983C6.5290012,38.6200027,8.2390003,38.8000031,10,38.8000031
		C24.5050011,38.8000031,36.4690018,28.0659981,38.4729996,14.1159992z"/>
	<path class="st1" d="M38.4729996,5.8840008C36.4690018-8.066,24.5050011-18.7999992,10-18.7999992
		c-1.7609997,0-3.4709988,0.1799984-5.1450005,0.4829998V5.8840008H38.4729996z"/>
</g>
<g id="Layer_2_1_">
</g>
<path class="st2" d="M10-18.5c15.5999985,0,28.5,12.9000006,28.5,28.5S25.5999985,38.5,10,38.5S-18.5,25.5999985-18.5,10
	S-5.5999994-18.5,10-18.5 M10-20C-6.5-20-20-6.5-20,10s13.5,30,30,30s30-13.5,30-30S26.5-20,10-20L10-20z"/>
</svg>
