<?xml version="1.0" encoding="utf-8"?>
<svg version="1.1" id="Layer_1" xmlns="http://www.w3.org/2000/svg" xmlns:xlink="http://www.w3.org/1999/xlink" x="0px" y="0px"
	 viewBox="-22 -22 64 64" style="enable-background:new 0 0 20 20;" xml:space="preserve">
<style type="text/css">
	.st0{fill:#FFFFFF;stroke:#B6B6B6;stroke-width:0.15;stroke-miterlimit:10;}
	.st1{fill:#007229;}
	.st2{fill:#D21034;}
	.st3{fill:#CCCCCC;}
</style>
<g id="Layer_1_1_">
	<circle class="st0" cx="10" cy="10" r="28.8000011"/>
	<path class="st1" d="M-18.7999992,10c0,15.9060001,12.8939991,28.8000031,28.7999992,28.8000031v-57.6000023
		C-5.9060001-18.7999992-18.7999992-5.9060001-18.7999992,10z"/>
	<g>
		<path class="st2" d="M9.6639986,20.8689995C5.1970005,19.3029995,1.9600005,14.7340002,1.9600005,10
			s3.237-9.3029995,7.7040009-10.8690004c4.467001-1.5689993,9.8459988-0.0269995,12.8069992,3.6690001
			c-3.1409988-5.4390006-10.1280003-8.3340015-16.1969986-6.711S-4.3969994,3.7150006-4.3969994,10
			S0.2050004,22.2819996,6.2740011,23.9109993c6.0689993,1.6290016,13.0560007-1.2659988,16.1969986-6.7110004
			C19.5100002,20.8990021,14.1309996,22.4379997,9.6639986,20.8689995z"/>
		<polygon class="st2" points="14.974,12.6159992 18.0489998,16.848999 18.0489998,11.6169987 23.026001,10 18.0489998,8.3830013 
			18.0489998,3.151 14.974,7.3840008 10,5.7700005 13.0749989,10 10,14.2299995 		"/>
	</g>
</g>
<g id="Layer_2_1_">
</g>
<path class="st3" d="M10-18.5c15.5999985,0,28.5,12.9000006,28.5,28.5S25.5999985,38.5,10,38.5S-18.5,25.5999985-18.5,10
	S-5.5999994-18.5,10-18.5 M10-20C-6.5-20-20-6.5-20,10s13.5,30,30,30s30-13.5,30-30S26.5-20,10-20L10-20z"/>
</svg>
