<?xml version="1.0" encoding="utf-8"?>
<svg version="1.1" id="Layer_1" xmlns="http://www.w3.org/2000/svg" xmlns:xlink="http://www.w3.org/1999/xlink" x="0px" y="0px"
	 viewBox="-22 -22 64 64" style="enable-background:new 0 0 20 20;" xml:space="preserve">
<style type="text/css">
	.st0{fill:#FFFFFF;stroke:#B6B6B6;stroke-width:0.15;}
	.st1{fill:#CE1126;}
	.st2{fill:#EA0437;}
	.st3{fill:#FFFFFF;}
	.st4{fill:none;stroke:#FAC800;stroke-width:0.2343;stroke-linecap:round;stroke-linejoin:round;}
	.st5{fill:#FDD220;}
	.st6{fill:none;stroke:#FAC800;stroke-width:0.1251;stroke-linecap:round;stroke-linejoin:round;}
	.st7{fill:#FAC800;}
	.st8{fill:none;stroke:#FAC800;stroke-width:0.0585;stroke-linecap:round;stroke-linejoin:round;}
	.st9{fill:none;stroke:#FAC800;stroke-width:0.1059;stroke-linecap:square;}
	.st10{fill:none;stroke:#FAC800;stroke-width:0.1173;stroke-linecap:round;stroke-linejoin:round;}
	.st11{fill:none;stroke:#FAC800;stroke-width:0.0879;stroke-linecap:round;stroke-linejoin:round;}
	.st12{fill:none;stroke:#FFFFFF;stroke-width:0.1251;stroke-linecap:round;stroke-linejoin:round;}
	.st13{fill:#CCCCCC;}
</style>
<g id="Layer_1_1_">
	<circle class="st0" cx="10" cy="10" r="28.8000011"/>
	<path d="M37.1259995,19.5999985h-54.2519989C-13.1690006,30.7810001-2.5339999,38.8000031,10,38.8000031
		S33.1689987,30.7780018,37.1259995,19.5999985z"/>
	<path class="st1" d="M10-18.7999992c-12.5340004,0-23.1660004,8.0219994-27.1259995,19.2000008h54.2519989
		C33.1660004-10.7779999,22.5340004-18.7999992,10-18.7999992z"/>
	<path class="st2" d="M9.6910009,38.784996c0.1049995,0,0.2039995,0.0149994,0.3089991,0.0149994
		c0.1080008,0,0.2070007-0.0149994,0.3120003-0.0149994H9.6910009z"/>
	<path class="st3" d="M9.4539995,19.1049995c1.8869991,0,3.6929998-0.1500015,4.7519989-0.4470005
		c0.4499989-0.0810013,0.4499989-0.3120003,0.4499989-0.6120014c0.4499989-0.1500015,0.2159986-0.6809998,0.5310001-0.6809998
		c-0.3120003,0.0810013-0.3809996-0.531002-0.7590008-0.4470024c0-0.5309982-0.5310001-0.5970001-0.9749994-0.4499969
		c-0.8969994,0.2999992-2.4840002,0.3659973-3.993001,0.3659973c-1.5059996-0.0689983-3.0809984-0.0689983-3.993001-0.3659973
		c-0.4499989-0.1500015-0.9749994-0.0810013-0.9749994,0.4499969c-0.3809996-0.0810013-0.4499989,0.531002-0.7589993,0.4470024
		c0.3119988,0,0.0809999,0.5309982,0.5309987,0.6809998c0,0.3000011,0,0.5310001,0.4620008,0.6120014
		C5.7580013,18.9580002,7.5639992,19.1049995,9.4539995,19.1049995z"/>
	<path class="st4" d="M9.4539995,19.1049995c1.8869991,0,3.6929998-0.1500015,4.7519989-0.4470005
		c0.4499989-0.0810013,0.4499989-0.3120003,0.4499989-0.6120014c0.4499989-0.1500015,0.2159986-0.6809998,0.5310001-0.6809998
		c-0.3120003,0.0810013-0.3809996-0.531002-0.7590008-0.4470024c0-0.5309982-0.5310001-0.5970001-0.9749994-0.4499969
		c-0.8969994,0.2999992-2.4840002,0.3659973-3.993001,0.3659973c-1.5059996-0.0689983-3.0809984-0.0689983-3.993001-0.3659973
		c-0.4499989-0.1500015-0.9749994-0.0810013-0.9749994,0.4499969c-0.3809996-0.0810013-0.4499989,0.531002-0.7589993,0.4470024
		c0.3119988,0,0.0809999,0.5309982,0.5309987,0.6809998c0,0.3000011,0,0.5310001,0.4620008,0.6120014
		C5.7580013,18.9580002,7.5639992,19.1049995,9.4539995,19.1049995z"/>
	<path class="st5" d="M5.1610003,17.2180004c-0.1500006,0-0.1500006,0.0810013,0,0.0810013
		C5.2299995,17.2989998,5.2299995,17.2180004,5.1610003,17.2180004z"/>
	<path class="st6" d="M5.1610003,17.2180004c-0.1500006,0-0.1500006,0.0810013,0,0.0810013
		C5.2299995,17.2989998,5.2299995,17.2180004,5.1610003,17.2180004z"/>
	<path class="st5" d="M5.1610003,16.9179993c-0.0810013,0-0.0810013,0.1500015,0,0.1500015
		C5.3110008,17.0680008,5.3110008,16.9179993,5.1610003,16.9179993z"/>
	<path class="st6" d="M5.1610003,16.9179993c-0.0810013,0-0.0810013,0.1500015,0,0.1500015
		C5.3110008,17.0680008,5.3110008,16.9179993,5.1610003,16.9179993z"/>
	<path class="st5" d="M5.1610003,18.0460014c-0.0810013,0-0.0810013,0.1499996,0,0.1499996
		C5.2299995,18.1930008,5.2299995,18.0460014,5.1610003,18.0460014z"/>
	<path class="st6" d="M5.1610003,18.0460014c-0.0810013,0-0.0810013,0.1499996,0,0.1499996
		C5.2299995,18.1930008,5.2299995,18.0460014,5.1610003,18.0460014z"/>
	<path class="st5" d="M5.4610014,18.1269989c-0.1500006,0-0.1500006,0.1500015,0,0.1500015
		C5.5419998,18.2770004,5.5419998,18.1269989,5.4610014,18.1269989z"/>
	<path class="st6" d="M5.4610014,18.1269989c-0.1500006,0-0.1500006,0.1500015,0,0.1500015
		C5.5419998,18.2770004,5.5419998,18.1269989,5.4610014,18.1269989z"/>
	<path class="st5" d="M5.7580013,18.1930008c-0.0689993,0-0.0689993,0.1499996,0,0.1499996
		C5.907999,18.3430004,5.907999,18.1930008,5.7580013,18.1930008z"/>
	<path class="st6" d="M5.7580013,18.1930008c-0.0689993,0-0.0689993,0.1499996,0,0.1499996
		C5.907999,18.3430004,5.907999,18.1930008,5.7580013,18.1930008z"/>
	<path class="st5" d="M10.4289989,17.4489994c-0.0689993,0-0.0689993,0.1499996,0,0.1499996
		C10.5129986,17.5959988,10.5129986,17.4489994,10.4289989,17.4489994z"/>
	<path class="st6" d="M10.4289989,17.4489994c-0.0689993,0-0.0689993,0.1499996,0,0.1499996
		C10.5129986,17.5959988,10.5129986,17.4489994,10.4289989,17.4489994z"/>
	<path class="st5" d="M10.5129986,17.7459984c-0.1500006,0-0.1500006,0.0690002,0,0.0690002
		C10.5789995,17.8149986,10.5789995,17.7459984,10.5129986,17.7459984z"/>
	<path class="st6" d="M10.5129986,17.7459984c-0.1500006,0-0.1500006,0.0690002,0,0.0690002
		C10.5789995,17.8149986,10.5789995,17.7459984,10.5129986,17.7459984z"/>
	<path class="st5" d="M10.7290001,18.493c-0.0660009,0-0.0660009,0.1620007,0,0.1620007
		C10.8100014,18.657999,10.8100014,18.493,10.7290001,18.493z"/>
	<path class="st6" d="M10.7290001,18.493c-0.0660009,0-0.0660009,0.1620007,0,0.1620007
		C10.8100014,18.657999,10.8100014,18.493,10.7290001,18.493z"/>
	<path class="st5" d="M11.0410004,18.493c-0.1650009,0-0.1650009,0.1620007,0,0.1620007
		C11.1099997,18.657999,11.1099997,18.493,11.0410004,18.493z"/>
	<path class="st6" d="M11.0410004,18.493c-0.1650009,0-0.1650009,0.1620007,0,0.1620007
		C11.1099997,18.657999,11.1099997,18.493,11.0410004,18.493z"/>
	<path class="st5" d="M14.1219988,17.8959999c-0.1500006,0-0.1500006,0.0810013,0,0.0810013
		C14.2060013,17.9770012,14.2060013,17.8959999,14.1219988,17.8959999z"/>
	<path class="st6" d="M14.1219988,17.8959999c-0.1500006,0-0.1500006,0.0810013,0,0.0810013
		C14.2060013,17.9770012,14.2060013,17.8959999,14.1219988,17.8959999z"/>
	<path class="st6" d="M5.4610014,16.9179993c-0.0810013,0.3000011-0.1500006,0.5970001-0.230999,0.7469978
		c0,0.1500015,0.0810013,0.230999,0.1500006,0.230999c0.230999,0.0810013,0.230999,0.0810013,0.3120003-0.230999
		c0.0689993-0.1499996,0-0.1499996,0,0c-0.0810013,0.230999-0.1500006,0.3120003,0.1500006,0.3810005
		c0.2189999,0.0810013,0.3000011,0,0.3659992-0.3000011c0-0.1499996-0.1500006-0.0810013-0.0660009,0"/>
	<path class="st6" d="M5.3110008,17.5179977c-0.3809996,0.0810013-0.230999,0.3000031,0.0689993,0.3810005"/>
	<path class="st6" d="M6.2889986,18.3430004c0.1500006-0.0689983,0.230999-0.2189999,0.230999-0.3659992
		c-0.0810013-0.230999-0.1500006-0.1650009-0.0810013,0c0,0.1500015,0.0810013,0.2159996,0.3000011,0.2159996
		c0.1500006,0,0.3000011-0.0690002,0.4620008-0.1500015c0.1500006-0.0690002,0.1500006-0.3000011,0-0.3810005
		c-0.230999-0.0689983-0.3809996,0.230999-0.1650009,0.3810005c0.0810013,0.0810013,0.1650009,0.1500015,0.3120003,0.230999
		c0,0.0690002,0,0.2189999,0.1500006,0.2189999c0.0689993,0.0810013,0.2159986-0.1499996,0.2159986-0.3659992v-0.6809998"/>
	<path class="st6" d="M8.026,17.4489994c0,0.2159977-0.0810013,0.597002-0.0810013,0.828001"/>
	<path class="st6" d="M8.1760006,18.723999c0.3000011-0.230999,0.3000011-0.3809986,0.3000011-0.5309982
		c-0.0810013-0.2159996-0.230999-0.1500015-0.1500006,0c0.0689993,0.0810013,0.1500006,0.1499996,0.3000011,0.1499996
		c0.0810013,0,0.1500006-0.0689983,0.1500006-0.3659992c0-0.0810013-0.0689993-0.0810013-0.0689993,0
		c0,0.0690002,0.2159986,0.0690002,0.3000011,0.0690002c0.1500006,0.0810013,0.5310001,0.0810013,0.5999994,0
		c0.0810013,0,0.0810013,0.230999,0.0810013,0.230999c0,0.0689983-0.0810013,0.1499996-0.0810013,0.218998
		c-0.0689993,0.1650009-0.1500006,0.0810013-0.230999,0c0-0.1499996-0.1500006-0.1499996-0.2189999-0.1499996H8.6230011"/>
	<path class="st6" d="M9.6820002,18.3430004c0.0689993,0,0.2189999-0.0689983,0.3000011,0
		c0.0689993,0,0.230999-0.0689983,0.230999-0.1499996c0-0.2159996-0.3809996-0.2159996-0.230999,0.1499996"/>
	<path class="st6" d="M10.7290001,17.4489994c0.0810013,0.3000011,0.0810013,0.6810017,0,0.828001
		c-0.0689993,0.0689983-0.2189999,0.0689983-0.2189999,0c0.0689993-0.0810013,0.2189999-0.1500015,0.3000011-0.0810013
		c0,0.0810013,0.0660009,0.1499996,0.230999,0.0810013c0.1500006,0,0.2159986,0,0.2159986-0.3810005
		c0-0.0810013-0.2159986-0.0810013,0,0.0810013"/>
	<path class="st6" d="M11.4880009,18.5739994c0.1500006-0.1499996,0.3000011-0.4499989,0.2159986-0.597002
		c-0.1500006-0.1650009-0.2159986-0.1650009-0.2159986,0c0,0.0690002,0.0689993,0.1500015,0.2159986,0.2159996"/>
	<path class="st6" d="M12.019001,18.427c0.2189999-0.0810013,0.2189999-0.230999,0.2189999-0.3809986
		c0-0.1500015-0.0689993-0.230999-0.1500006-0.1500015c-0.1500006,0.0810013-0.1500006,0.230999,0,0.230999
		c0.3000011,0,0.8280001-0.0810013,1.2089996-0.3120003"/>
	<path class="st6" d="M12.5500011,18.0460014c0-0.1500015,0.0689993-0.3000031,0.2159986-0.3000031
		c0.0810013-0.0810013,0.3000011,0,0.3000011,0.1500015c0.0810013,0.1500015-0.0689993,0.3000011-0.2159986,0.230999
		c-0.0810013-0.1500015-0.1500006-0.5310001-0.230999-0.8279991"/>
	<path class="st6" d="M13.7409992,17.6679993c-0.1500006-0.1500015-0.5310001,0-0.4499989,0.1500015
		C13.375,18.0460014,13.8249989,17.8959999,13.7409992,17.6679993z"/>
	<path class="st6" d="M13.7409992,17.7459984c0,0,0.1500006-0.0810013,0.230999-0.1499996"/>
	<path class="st6" d="M13.375,16.9179993c0.1500006-0.1500015,0.4499989-0.1500015,0.4499989,0.1500015
		c0,0.5309982,0.2159986,0.7469978,0.5310001,0.5309982c0-0.0810013,0-0.1499996-0.0810013,0"/>
	<line class="st6" x1="6.8170004" y1="17.8149986" x2="6.967001" y2="17.8149986"/>
	<line class="st6" x1="7.3480005" y1="17.8959999" x2="7.4139986" y2="17.8959999"/>
	<path class="st3" d="M9.5290012,10.4560013l6.4829998,6.0149994L15.5500011,5.545001
		c-0.0660009-1.6560001-1.5059996-1.2750006-2.5529995-0.6810007C11.9380026,5.545001,10.729003,5.545001,9.4540024,5.0949993
		c-1.2750006,0.4499989-2.4840002,0.4499989-3.5429993-0.230999C4.8669987,4.2700005,3.427,3.8859997,3.3610005,5.545001
		L2.8990011,16.4710007L9.5290012,10.4560013z"/>
	<path class="st7" d="M16.0119991,16.5310001c-0.0150003,0-0.032999-0.0059986-0.0419998-0.0150013l-6.4410009-5.9820004
		l-6.5910001,5.9819984c-0.0180001,0.0150013-0.0449996,0.0240002-0.0659995,0.0090008
		c-0.0239997-0.0090008-0.0360003-0.032999-0.0360003-0.0569992L3.297998,5.541997
		c0.0420027-1.0289984,0.6060019-1.2479982,1.0710025-1.2479982c0.5789995,0,1.2299995,0.3239994,1.5660009,0.519001
		c0.980999,0.6240005,2.151,0.6960011,3.4949999,0.2280006c0.0119991-0.0059996,0.0300007-0.0059996,0.0389986,0
		c0.5820007,0.2039995,1.1400003,0.3089991,1.6469994,0.3089991c0.6719999,0,1.2929993-0.1800013,1.842001-0.5340014
		c0.342001-0.1949987,0.9959993-0.519001,1.5749989-0.519001c0.4649992,0,1.0290012,0.2159986,1.0710011,1.2480011
		l0.4620018,10.907999c0.0030003,0.0090008,0.0030003,0.0150013,0.0030003,0.0240002
		C16.0720005,16.507,16.0480003,16.5310001,16.0119991,16.5310001L16.0119991,16.5310001L16.0119991,16.5310001z
		 M4.3690004,4.4169998c-0.6030006,0-0.9210005,0.3809996-0.9539995,1.1309996L2.9590011,16.3330002l6.5249991-5.9250011
		c0.0240011-0.0240011,0.0600014-0.0179987,0.0810013,0l6.3719988,5.921999L15.4899998,5.5479994
		c-0.032999-0.7530012-0.3509989-1.1309996-0.9539995-1.1309996c-0.407999,0-0.9449987,0.1800013-1.5090008,0.5009995
		c-0.9899998,0.6359997-2.1960011,0.7259989-3.573,0.243001C8.0770006,5.6409998,6.8769989,5.5570002,5.8779984,4.9150009
		C5.3139992,4.5939999,4.7800007,4.4169998,4.3690004,4.4169998z"/>
	<path class="st3" d="M10.5100002,5.4759989c0.3659992,0.2159986,0.7469988,0.2159986,0.9780006,0.2159986
		c-0.7590008-0.5310001-0.9780006-1.9559999-0.9090014-2.5529995c0.1500006-1.2089996-0.1500006-1.8870006-0.8969994-2.0369997
		c-0.1500006,0-0.230999-0.0809999-0.5310001-0.0809999C8.920001,0.9519992,8.7490005,1.1709991,8.6679993,1.3209982
		C8.4339991,1.1709976,8.2419987,1.2519989,8.026,1.1019983c-0.230999-0.0809999-0.6119986,0-0.6119986,0.5310001
		l0.1499977-0.0629983c0.0660009,0.0119991,0.1920004,0.0839996,0.3450022,0.1679993
		c0.1949987,0.1560001,0.4829979,0.2610011,0.5639992,0.7920012c0.1500006,1.125,0,2.1870003-1.0589991,3.1619997
		c0.230999,0,0.6120014,0,0.9749994-0.2159986C8.2420015,5.6920004,8.1760006,5.7760029,8.026,5.9230022
		c0.4470005-0.0810013,0.8280001-0.230999,1.0439987-0.5970011C9.151,5.4760017,9.3669987,5.6920004,9.4509983,5.842001
		c0.0810013-0.1500006,0.3000011-0.3659992,0.3809996-0.5159998c0.2189999,0.3659992,0.5999994,0.5159998,1.0439987,0.5970011
		C10.7290001,5.776,10.6600008,5.6920004,10.5100002,5.4759989z"/>
	<path class="st7" d="M11.0439987,6.0100002l-0.1800013-0.032999c-0.3480005-0.0629997-0.7740011-0.1829996-1.0350008-0.5460005
		C9.7900009,5.4909992,9.7390003,5.5570002,9.6850014,5.6199999C9.6130009,5.7099991,9.538002,5.8000011,9.5020018,5.8690004
		L9.4539995,5.9589996L9.4000006,5.8659992c-0.0360003-0.0689993-0.111002-0.1589985-0.1800013-0.2459993
		C9.1660004,5.5570002,9.1120014,5.4909992,9.073,5.4279995c-0.2609997,0.3659992-0.6870003,0.4890003-1.0379992,0.552
		L7.8609991,6.0100002l0.1259995-0.1259995c0.099-0.099,0.1590014-0.1679993,0.230999-0.2580013
		C7.9060001,5.7490005,7.605999,5.7490005,7.4169998,5.7490005h-0.144001l0.1020012-0.099
		c0.9060001-0.8370008,1.2180004-1.7700005,1.0410004-3.1170001c-0.0600014-0.414-0.2609997-0.552-0.4379997-0.6779995
		c-0.0360003-0.0210013-0.0720005-0.045001-0.1049995-0.0750003L7.8190022,1.75
		C7.717001,1.6929998,7.618001,1.6420007,7.5670004,1.6270003L7.3570013,1.7139997V1.6329999
		c0-0.5640006,0.4050007-0.6749997,0.6839991-0.5819993l0.0150003,0.0059996
		c0.1020012,0.0659995,0.1949987,0.0839996,0.2969999,0.1019998c0.0959988,0.0150003,0.1889992,0.0300007,0.2969999,0.0869994
		c0.0810013-0.1320004,0.2580013-0.3389997,0.5130014-0.276c0.1800013,0,0.2819996,0.0300007,0.3630009,0.0540004
		C9.583003,1.039,9.6310024,1.0540004,9.682003,1.0540004c0.7860003,0.1560001,1.1070013,0.8610005,0.9539995,2.0999994
		c-0.0689993,0.6240005,0.1650009,1.9950013,0.8850002,2.4989991l0.1500006,0.1049995h-0.1800013
		c-0.1889992,0-0.4890003,0-0.8010006-0.1230011c0.0720005,0.0959988,0.131999,0.1619997,0.230999,0.2580013L11.0439987,6.0100002z
		 M8.3649998,5.4279995l0.0749989,0.0780001C8.3380003,5.6529989,8.2719994,5.7399998,8.1939993,5.829999
		c0.4169998-0.099,0.6719999-0.2640009,0.8280001-0.5340014l0.0479994-0.0870008l0.0479994,0.0870008
		c0.0420027,0.0690022,0.1170015,0.1620026,0.189002,0.2490034C9.3580008,5.611002,9.4119997,5.677,9.4539995,5.7370014
		C9.4959993,5.677,9.5499983,5.6140003,9.6009989,5.5510006C9.6729994,5.4610014,9.7479982,5.3709993,9.7839985,5.302
		l0.0479994-0.0870008L9.8799973,5.302c0.1590014,0.2669992,0.4110003,0.4320002,0.8310013,0.5340014
		c-0.0780001-0.0899992-0.144001-0.177-0.2490005-0.3239994l0.0749989-0.0810013
		c0.2790012,0.1650009,0.5639992,0.198,0.782999,0.2070007c-0.6569996-0.5939999-0.8699999-1.8900003-0.8010006-2.4990005
		c0.1469994-1.1879997-0.131999-1.8330002-0.8520012-1.9769998c0,0-0.0030012,0-0.0059996,0
		c-0.0570002,0-0.1109991-0.0150003-0.1710005-0.0330005C9.4119997,1.1079993,9.3189993,1.0780001,9.1540012,1.0780001
		L9.1390009,1.0750003c-0.2220011-0.0599999-0.3809996,0.198-0.420001,0.2730002L8.6889992,1.4020009L8.6379986,1.3690004
		C8.532999,1.2999997,8.4370003,1.2849994,8.3349991,1.2670007C8.2299995,1.2520003,8.1190004,1.2340002,8.0019989,1.1530004
		C7.9599991,1.1409998,7.9119997,1.1320004,7.8669987,1.1320004c-0.0870008,0-0.3540001,0.0330005-0.3900003,0.414
		l0.0810013-0.0360003L7.5759983,1.513c0.0660009,0.0120006,0.1650009,0.0629997,0.3000011,0.138l0.0600014,0.0360003
		C7.9749994,1.717001,8.0080013,1.7410007,8.0440016,1.7650003c0.185998,0.1289992,0.4139986,0.2879992,0.4859991,0.7559996
		c0.1199999,0.8939996,0.1109991,2.0460005-0.9720011,3.1169987C7.7800007,5.6290007,8.079999,5.5959988,8.3649998,5.4279995z"/>
	<path class="st7" d="M10.5550013,5.6049995c-0.0240011,0-0.0419998-0.0119991-0.0539989-0.032999
		c-0.2189999-0.4229994-0.4289989-0.894001-0.4289989-1.5360003c0-0.0360003,0.0269995-0.0599999,0.0600014-0.0599999
		c0.0360003,0,0.0600014,0.0270009,0.0600014,0.0599999c0,0.6149998,0.2070007,1.0679998,0.420001,1.4790001
		c0.0150003,0.0300007,0.0030012,0.0660009-0.0269995,0.0810013C10.5760012,5.6020012,10.5639992,5.6049995,10.5550013,5.6049995z"
		/>
	<path class="st7" d="M9.8320007,5.3859997c-0.0209999,0-0.0389986-0.0090008-0.0510006-0.0300007
		C9.625,5.1159992,9.5410004,4.6599979,9.5410004,4.032999c0-0.0360003,0.0269995-0.0599999,0.0600014-0.0599999
		S9.6639986,4,9.6639986,4.0360003c0,0.5939999,0.0780001,1.0379992,0.2220011,1.2600002
		C9.901,5.3199987,9.8919992,5.355999,9.868001,5.3769989C9.855999,5.3800001,9.8439999,5.3859997,9.8320007,5.3859997z"/>
	<path class="st7" d="M8.3470011,5.6049995c-0.0090008,0-0.0179987-0.0030012-0.0300007-0.0059996
		C8.2900009,5.5839996,8.2779989,5.5479994,8.2929993,5.5179987c0.2130003-0.4139986,0.420001-0.8699999,0.420001-1.4820013
		c0-0.0360003,0.0269995-0.0599999,0.0600014-0.0599999c0.0360003,0,0.0600014,0.0270009,0.0600014,0.0599999
		c0,0.6390009-0.2130003,1.1099997-0.4320002,1.5360003C8.3859997,5.5899992,8.368001,5.6049995,8.3470011,5.6049995z"/>
	<path class="st7" d="M9.073,5.3859997c-0.0119991,0-0.0240011-0.0030012-0.032999-0.0090008
		C9.0129986,5.355999,9.0040007,5.3199987,9.0219994,5.2929993C9.1629992,5.0709982,9.2440004,4.6269989,9.2440004,4.032999
		c0-0.0360003,0.0269995-0.0599999,0.0600014-0.0599999c0.0360003,0,0.0600014,0.0269995,0.0600014,0.0599999
		c0,0.6209993-0.0839996,1.079999-0.2399998,1.323C9.1090002,5.3769989,9.0939999,5.3859997,9.073,5.3859997z"/>
	<path class="st7" d="M7.4649992,1.5609994c0.1590014,0.0120006,0.230999,0.0659995,0.4439993,0.177
		c0.1469994,0.0839996,0.4830008,0.2609997,0.5639992,0.7260003C8.3919992,2.2329993,8.5419998,2.0020003,8.7039995,2.0830002
		C8.4730005,1.552,7.7619991,1.4110003,7.4649992,1.5609994z"/>
	<path class="st8" d="M7.4649992,1.5609994c0.1590014,0.0120006,0.230999,0.0659995,0.4439993,0.177
		c0.1469994,0.0839996,0.4830008,0.2609997,0.5639992,0.7260003C8.3919992,2.2329993,8.5419998,2.0020003,8.7039995,2.0830002
		C8.4730005,1.552,7.7619991,1.4110003,7.4649992,1.5609994z"/>
	<polygon class="st7" points="9.7509995,11.6500006 10.6600008,15.7929993 10.3599997,16.0900002 10.0479994,15.8620014 
		9.5319996,12.1689987 9.7480011,15.8620014 9.4539995,16.2399998 9.1540012,15.8620014 9.3699999,12.1689987 8.8540001,15.8620014 
		8.5419998,16.0900002 8.2419987,15.7929993 9.1540012,11.6500006 	"/>
	<polygon class="st9" points="9.7509995,11.6500006 10.6600008,15.7929993 10.3599997,16.0900002 10.0479994,15.8620014 
		9.5319996,12.1689987 9.7480011,15.8620014 9.4539995,16.2399998 9.1540012,15.8620014 9.3699999,12.1689987 8.8540001,15.8620014 
		8.5419998,16.0900002 8.2419987,15.7929993 9.1540012,11.6500006 	"/>
	<path class="st7" d="M4.1020012,5.1610003L3.6520009,15.7900009l-0.7589993,0.6809998L3.355001,5.545001
		C3.5709996,5.3950005,3.9520006,5.1610003,4.1020012,5.1610003z"/>
	<path class="st7" d="M5.0109997,5.9229994l-0.3809996,8.8919992l-0.7589993,0.7769995L4.3330002,5.3259983
		C4.4830008,5.4759989,4.9300013,5.842001,5.0109997,5.9229994z"/>
	<path class="st7" d="M5.842001,6.6009989l-0.3000011,7.4160004l-0.6119986,0.5970011l0.3809996-8.4599991
		C5.4610014,6.3010006,5.7580013,6.5200005,5.842001,6.6009989z"/>
	<path class="st7" d="M6.7359991,6.9820013L6.435998,13.3030024l-0.5970011,0.4830008L6.138998,6.7510023
		C6.2889986,6.8199987,6.5860014,6.9820013,6.7359991,6.9820013z"/>
	<path class="st7" d="M7.5639992,6.9820013L7.3480005,12.25L6.736002,12.8470011l0.230999-5.7960005
		C7.1169987,7.0510006,7.4980011,7.0510006,7.5639992,6.9820013z"/>
	<path class="st7" d="M14.8000011,5.1610003L15.25,15.7900009l0.7590008,0.6809998L15.5500011,5.545001
		C15.3310013,5.3950005,14.9499989,5.1610003,14.8000011,5.1610003z"/>
	<path class="st7" d="M13.8909998,5.9229994l0.3809996,8.8919992l0.7590008,0.6660004L14.5689993,5.3259983
		C14.4219999,5.4759989,13.9749994,5.842001,13.8909998,5.9229994z"/>
	<path class="st7" d="M13.0629997,6.6009989L13.375,14.0169992L13.9720011,14.5l-0.3809996-8.349
		C13.4439993,6.3010006,13.144001,6.5200005,13.0629997,6.6009989z"/>
	<path class="st7" d="M12.1660004,6.9820013l0.3000011,6.2099991l0.5970011,0.4830008l-0.2969999-6.9240017
		C12.6159992,6.8199987,12.3160009,6.9820013,12.1660004,6.9820013z"/>
	<path class="st7" d="M11.3380003,6.9820013L11.5539989,12.25l0.6120014,0.5970011l-0.230999-5.7960005
		C11.7879992,7.0510006,11.4069996,7.0510006,11.3380003,6.9820013z"/>
	<polygon class="st3" points="7.4139986,9.8320007 5.6109991,16.2399998 8.092001,16.6209984 9.1540012,11.8000011 	"/>
	<polygon class="st10" points="7.4139986,9.8320007 5.6109991,16.2399998 8.092001,16.6209984 9.1540012,11.8000011 	"/>
	<polygon class="st3" points="11.4880009,9.8320007 13.2939987,16.2399998 10.8100014,16.6209984 9.7509995,11.8000011 	"/>
	<polygon class="st10" points="11.4880009,9.8320007 13.2939987,16.2399998 10.8100014,16.6209984 9.7509995,11.8000011 	"/>
	<path class="st7" d="M7.0360003,12.6070013c-0.0030012,0-0.0059996,0-0.0090008,0
		c-0.0209999-0.0030012-0.0360003-0.0179987-0.045001-0.0360003l-0.2189999-0.5310001
		c-0.0119991-0.032999,0.0030012-0.0629997,0.0360003-0.0780001c0.032999-0.0119991,0.0660009,0.0059996,0.0780001,0.0360003
		l0.1800013,0.4410009l0.6119986-0.6779995c0.0240011-0.0269995,0.0600014-0.032999,0.0870008-0.0059996
		c0.0240011,0.0240011,0.0269995,0.0600014,0.0030012,0.0839996l-0.6779995,0.75
		C7.0689993,12.6009989,7.0539989,12.6070013,7.0360003,12.6070013z"/>
	<path class="st7" d="M7.8759995,13.0570002c-0.0059996,0-0.0119991,0-0.0150003,0
		C7.8399992,13.0479994,7.8189993,13.0269995,7.8189993,13l-0.230999-2.0999994
		c-0.0030012-0.032999,0.0209999-0.0600014,0.0510006-0.0629997c0.0030012,0,0.0030012,0,0.0059996,0
		c0.032999,0,0.0570002,0.0240011,0.0600014,0.0539989l0.2159986,1.9560013l0.6569996-0.8580008
		C8.599,11.9620008,8.6350002,11.9589996,8.6619997,11.9770012c0.0269995,0.0209999,0.032999,0.0600014,0.0119991,0.0839996
		l-0.7439976,0.9749994C7.9119997,13.0479994,7.894001,13.0570002,7.8759995,13.0570002z"/>
	<path class="st7" d="M8.092001,14.4969988c-0.0030012,0-0.0090008,0-0.0150003,0
		c-0.0209999-0.0059996-0.0360003-0.0209999-0.0419998-0.0419998l-0.3360014-1.0710011l-0.3000011,0.5489988
		c-0.0119991,0.0209999-0.032999,0.032999-0.0539989,0.032999c0,0,0,0-0.0030012,0
		c-0.0240011,0-0.0419998-0.0150003-0.0510006-0.0360003l-0.2790012-0.6660004l-0.6030006,0.5400009
		c-0.0300007,0.0240011-0.0629997,0.0209999-0.0870008-0.0059996s-0.0209999-0.0600014,0.0030012-0.0839996l0.6660004-0.5970011
		c0.0150003-0.0119991,0.0360003-0.0119991,0.0539989-0.0150003c0.0209999,0.0059996,0.0360003,0.0179987,0.0419998,0.0360003
		l0.2640009,0.6300001l0.3060007-0.5670004c0.0150003-0.0240011,0.0360003-0.0360003,0.0570002-0.0360003
		c0.0269995-0.0030012,0.0510006,0.0150003,0.0570002,0.0419998l0.3509989,1.1159992l0.5400009-0.5400009
		c0.0240011-0.0240011,0.0600014-0.0240011,0.0839996,0c0.0240011,0.0240011,0.0240011,0.0600014,0,0.0839996l-0.6059961,0.6120071
		C8.125,14.4909992,8.1099997,14.4969988,8.092001,14.4969988z"/>
	<path class="st7" d="M8.323,15.8499994c-0.0300007,0-0.0539989-0.0209999-0.0600014-0.0479994l-0.2039995-1.0109997
		L7.5429993,15.448c-0.0150003,0.0150003-0.0360003,0.0240011-0.0570002,0.0240011
		c-0.0240011-0.0030012-0.0389986-0.0209999-0.0479994-0.0389986l-0.2580013-0.8010006l-0.4620008,0.5880003
		c-0.0150003,0.0179987-0.0389986,0.0240011-0.0570002,0.0240011c-0.020997-0.0090036-0.041997-0.024004-0.0509977-0.0420027
		l-0.4620008-1.125C6.1359997,14.0440016,6.151,14.0140009,6.1839991,13.9990005
		C6.2139997,13.9840002,6.25,14.0050001,6.2619991,14.0350008l0.420001,1.0290012l0.4680004-0.5970011
		c0.0150003-0.0179987,0.032999-0.0300007,0.0570002-0.0240011c0.0240011,0.0030012,0.0389986,0.0209999,0.0479994,0.0389986
		l0.2609997,0.8010006l0.5279989-0.6689987c0.0150003-0.0209999,0.0389986-0.0269995,0.0600014-0.0240011
		c0.0240011,0.0059996,0.0389986,0.0269995,0.045001,0.0479994l0.230999,1.1400003
		c0.0059996,0.032999-0.0150003,0.0629997-0.0479994,0.0689993C8.3320007,15.8499994,8.3289995,15.8499994,8.323,15.8499994z"/>
	<path class="st7" d="M7.717001,16.6779995c-0.0059996,0-0.0119991,0-0.0179987,0
		c-0.0179987-0.0059986-0.0360003-0.0240002-0.0389986-0.0389996l-0.2550001-0.7829981L7.024004,16.5040016
		c-0.0119991,0.0179977-0.032999,0.0299988-0.0510006,0.0299988c-0.0179987-0.0030003-0.045001-0.0149994-0.0570002-0.0359993
		l-0.3389997-0.8909998l-0.3870049,0.5220003c-0.0179987,0.0240002-0.0570002,0.0359993-0.0839996,0.0119972
		C6.0789995,16.1199989,6.073,16.0839996,6.0939999,16.0569992l0.4470005-0.6119976
		c0.0119991-0.0179987,0.032999-0.0269995,0.0570002-0.0240011c0.0209999,0.0030012,0.0389986,0.0179987,0.0479994,0.0360003
		l0.3330002,0.8759995l0.3869991-0.6569996c0.0119991-0.0179987,0.032999-0.0300007,0.0510006-0.0300007
		c0.0030012,0,0.0030012,0,0.0059996,0C7.4470005,15.6490011,7.4649992,15.6639986,7.474,15.6849985l0.2700005,0.8280001
		l0.3959999-0.3239994C8.1640015,16.1679993,8.2000017,16.1679993,8.224,16.198
		c0.0209999,0.0300007,0.0179987,0.0629997-0.0090008,0.0869999l-0.4620008,0.3810005
		C7.7409992,16.6750011,7.7290001,16.6779995,7.717001,16.6779995z"/>
	<path class="st7" d="M11.8659992,12.6070013c-0.0179987,0-0.0360003-0.0059996-0.045001-0.0209999l-0.6779995-0.75
		c-0.0240011-0.0240011-0.0209999-0.0600014,0.0059996-0.0839996c0.0240011-0.0300007,0.0629997-0.0209999,0.0839996,0.0059996
		l0.6120014,0.6779995l0.1800013-0.4410009c0.0179987-0.032999,0.0600014-0.0389986,0.0780001-0.0360003
		c0.032999,0.0150003,0.045001,0.0479994,0.0360003,0.0780001l-0.2189999,0.5310001
		c-0.0090008,0.0209999-0.0269995,0.0360003-0.045001,0.0360003C11.8719988,12.6070013,11.8690004,12.6070013,11.8659992,12.6070013
		z"/>
	<path class="st7" d="M11.0410004,13.0570002c-0.0179987,0-0.0360003-0.0090008-0.0479994-0.0240011l-0.7590008-0.9749994
		c-0.0209999-0.0269995-0.0150003-0.0629997,0.0119991-0.0839996c0.0240011-0.0209999,0.0600014-0.0209999,0.0839996,0.0119991
		l0.6660004,0.8580008l0.2010012-1.9560013c0.0030012-0.0360003,0.032999-0.0600014,0.0629997-0.0539989
		c0.0360003,0.0030012,0.0570002,0.032999,0.0539989,0.0629997L11.0980005,13
		c-0.0030012,0.0269995-0.0209999,0.045001-0.0419998,0.0539989C11.0500011,13.0570002,11.0439987,13.0570002,11.0410004,13.0570002
		z"/>
	<path class="st7" d="M10.8100014,14.4969988c-0.0179987,0-0.032999-0.0059996-0.0419998-0.0179987l-0.5999994-0.6120014
		c-0.0269995-0.0240011-0.0240011-0.0600014,0-0.0839996c0.0269995-0.0269995,0.0600014-0.0240011,0.0839996,0l0.5250006,0.5369997
		l0.2729988-1.1070013c0.0059996-0.0300007,0.045001-0.0510006,0.0600014-0.045001
		c0.0209999,0,0.0389986,0.0090008,0.0510006,0.0269995l0.3869991,0.5849991l0.2669992-0.6419992
		c0.0090008-0.0209999,0.0240011-0.032999,0.0419998-0.0360003c0.0240011,0.0030012,0.0360003,0,0.0539989,0.0150003
		l0.6810007,0.5970011c0.0269995,0.0240011,0.0300007,0.0600014,0.0059996,0.0839996
		c-0.0209999,0.0269995-0.0600014,0.032999-0.0839996,0.0059996l-0.618001-0.5400009l-0.2790012,0.6660004
		c-0.0090008,0.0269995-0.0300007,0.0360003-0.0570002,0.0360003c-0.0209999,0-0.0389986-0.0090008-0.0510006-0.0269995
		l-0.3719988-0.5610008l-0.2640009,1.0739994c-0.0059996,0.0240011-0.0240011,0.0389986-0.0419998,0.045001
		C10.8220005,14.4969988,10.8160009,14.4969988,10.8100014,14.4969988z"/>
	<path class="st7" d="M10.5789995,15.8499994c-0.0030012,0-0.0090008,0-0.0119991,0
		c-0.0360003-0.0059996-0.0539989-0.0389986-0.0479994-0.0689993L10.75,14.6409998
		c0.0059996-0.0240011,0.0240011-0.0419998,0.045001-0.0479994c0.0269995-0.0030012,0.0479994,0.0059996,0.0600014,0.0240011
		l0.5279989,0.6689987l0.2640009-0.8010006c0.0059996-0.0269995,0.045001-0.045001,0.0570002-0.0389986
		c0.0179987,0,0.0360003,0.0090008,0.0479994,0.0240011l0.4680004,0.5970011l0.420001-1.0290012
		c0.0179987-0.0300007,0.0479994-0.0389986,0.0780001-0.0360003c0.032999,0.0150003,0.045001,0.0479994,0.0360003,0.0780001
		l-0.4620008,1.125c-0.0090008,0.0240011-0.0389986,0.0360003-0.0570002,0.0360003
		c-0.0209999,0-0.0360003-0.0090008-0.0479994-0.0240011l-0.4620008-0.5880003l-0.2640009,0.8010006
		c-0.0059996,0.0209999-0.0269995,0.0360003-0.045001,0.0389986c-0.0059996,0-0.0090008,0-0.0119991,0
		c-0.0179987,0-0.0360003-0.0090008-0.0479994-0.0240011l-0.5159998-0.6569996l-0.2039995,1.0109997
		C10.6330013,15.8289995,10.6090002,15.8499994,10.5789995,15.8499994z"/>
	<path class="st7" d="M11.1879997,16.6779995c-0.0150003,0-0.0300007-0.0030003-0.0389986-0.0119991l-0.4620008-0.3810005
		c-0.0269995-0.0240002-0.0300007-0.0600014-0.0090008-0.0869999c0.0269995-0.0300007,0.0600014-0.0269985,0.0870008-0.0090008
		l0.3929987,0.3239994l0.2729988-0.8280001c0.0059996-0.0240011,0.0269995-0.0360003,0.0510006-0.0389986
		c0,0,0.0030012,0,0.0059996,0c0.0240011,0,0.0419998,0.0119991,0.0510006,0.0300007l0.3900003,0.6569996l0.3330002-0.8759995
		c0.0090008-0.0240011,0.032999-0.0389986,0.0570002-0.0360003c0.0209999,0,0.0360003,0.0090008,0.0479994,0.0240011
		l0.4470005,0.6120014c0.0209999,0.0300007,0.0150003,0.0629997-0.0119991,0.0839996
		c-0.032999,0.0270004-0.0629997,0.0119991-0.0839996-0.0119991l-0.3840008-0.5250006l-0.3389997,0.8909998
		c-0.0090008,0.0240021-0.032999,0.0359993-0.0570002,0.0359993s-0.0419998-0.0119972-0.0510006-0.0299988l-0.3840008-0.6479998
		l-0.2580013,0.7829981c-0.0059996,0.0179996-0.0209999,0.0360012-0.0389986,0.0389996
		C11.1999989,16.6779995,11.1939993,16.6779995,11.1879997,16.6779995z"/>
	<path class="st3" d="M9.4539995,6.151c0.7590008,0.5970011,1.7399998,0.8969994,2.8649998,0.8280001
		c-0.0810013,2.6309996-0.8280001,4.4370003-2.8649998,5.7960005C7.4169998,11.4219999,6.670001,9.6159992,6.5860014,6.9820013
		C7.7139997,7.0510006,8.7039995,6.7509995,9.4539995,6.151z"/>
	<path class="st7" d="M9.4539995,12.8199987c-0.0090008,0-0.0179987-0.0030012-0.0240011-0.0090008
		c-1.9350014-1.2869997-2.7960005-3.032999-2.8859997-5.8260012c0-0.0119991,0.0030012-0.0240011,0.0119991-0.032999
		C6.5649986,6.9460011,6.579999,6.9399986,6.5860014,6.9399986c0.1049995,0.0059996,0.2070007,0.0090008,0.3089991,0.0090008
		c0.9749994,0,1.8509989-0.2879992,2.526-0.8280001c0.0179987-0.0150003,0.0360003-0.0119991,0.0539989,0
		c0.6870003,0.5400009,1.5599985,0.8280001,2.526,0.8280001c0.1049995,0,0.2039995-0.0030012,0.3089991-0.0090008h0.0030012
		c0.0119991,0,0.0240011,0.0030012,0.0300007,0.0119991c0.0090008,0.0090008,0.0150003,0.0209999,0.0150003,0.032999
		c-0.0870008,2.7960005-0.9510012,4.5390015-2.8830013,5.8289995C9.4659986,12.8199987,9.4599991,12.8199987,9.4539995,12.8199987z
		 M6.6309996,7.0269995C6.724,9.7540007,7.5699987,11.4609985,9.4509983,12.7269983
		c1.8840008-1.2630014,2.7270012-2.9759989,2.8199987-5.6999989c-0.0899992,0.0030012-0.1800013,0.0059996-0.2669992,0.0059996
		c-0.9720011,0-1.8540001-0.2850008-2.5560007-0.8280001C8.763998,6.7449999,7.8819962,7.032999,6.8979959,7.032999l0,0
		C6.8079996,7.032999,6.7209988,7.0300007,6.6309996,7.0269995z"/>
	<path class="st7" d="M9.4539995,12.480999c1.5899992-1.0589991,2.4840002-2.8620014,2.5650015-5.2800007
		c-0.9749994,0-1.9709988-0.2159986-2.5649986-0.7469988C8.7729988,6.9820013,7.8759995,7.198,6.8170004,7.198
		C6.967001,9.6159992,7.8759995,11.4189987,9.4539995,12.480999z"/>
	<path class="st10" d="M9.4539995,12.480999c1.5899992-1.0589991,2.4840002-2.8620014,2.5650015-5.2800007
		c-0.9749994,0-1.9709988-0.2159986-2.5649986-0.7469988C8.7729988,6.9820013,7.8759995,7.198,6.8170004,7.198
		C6.967001,9.6159992,7.8759995,11.4189987,9.4539995,12.480999z"/>
	<path class="st3" d="M6.8859997,16.2399998c0.6120014,0.0810013,1.2900009,0.1499996,1.8210011,0.0810013
		c0.3000011,0,0.5159998,0.5160007-0.0810013,0.597002c-0.5310001,0.066-1.355999,0-1.8060007-0.0810013
		c-0.3809996-0.0690002-1.2060013-0.2159996-1.7369986-0.3660011C4.552,16.2400017,4.9329996,15.7900009,5.2330008,15.8590031
		C5.6920004,16.0119991,6.2889986,16.1560001,6.8859997,16.2399998z"/>
	<path class="st6" d="M6.8859997,16.2399998c0.6120014,0.0810013,1.2900009,0.1499996,1.8210011,0.0810013
		c0.3000011,0,0.5159998,0.5160007-0.0810013,0.597002c-0.5310001,0.066-1.355999,0-1.8060007-0.0810013
		c-0.3809996-0.0690002-1.2060013-0.2159996-1.7369986-0.3660011C4.552,16.2400017,4.9329996,15.7900009,5.2330008,15.8590031
		C5.6920004,16.0090008,6.2889986,16.1560001,6.8859997,16.2399998z"/>
	<path class="st3" d="M12.019001,16.2399998c-0.6120014,0.0810013-1.2900009,0.1499996-1.8060007,0.0810013
		c-0.3120003,0-0.5310001,0.5160007,0.0689993,0.597002c0.5310001,0.066,1.355999,0,1.8060007-0.0810013
		c0.3809996-0.0690002,1.2089996-0.2159996,1.7369986-0.3660011c0.5310001-0.230999,0.1500006-0.6809998-0.1500006-0.6119976
		C13.2130003,16.0119991,12.6159992,16.1560001,12.019001,16.2399998z"/>
	<path class="st6" d="M12.019001,16.2399998c-0.6120014,0.0810013-1.2900009,0.1499996-1.8060007,0.0810013
		c-0.3120003,0-0.5310001,0.5160007,0.0689993,0.597002c0.5310001,0.066,1.355999,0,1.8060007-0.0810013
		c0.3809996-0.0690002,1.2089996-0.2159996,1.7369986-0.3660011c0.5310001-0.230999,0.1500006-0.6809998-0.1500006-0.6119976
		C13.2130003,16.0090008,12.6159992,16.1560001,12.019001,16.2399998z"/>
	<path class="st3" d="M5.0109997,15.9399986c-0.4620008-0.0810013-0.6810007,0.4499989-0.5310001,0.7469978
		c0.0689993-0.1499996,0.3809996-0.1499996,0.4499989-0.2999992C5.0109997,16.1590004,4.8609991,16.1590004,5.0109997,15.9399986z"
		/>
	<path class="st6" d="M5.0109997,15.9399986c-0.4620008-0.0810013-0.6810007,0.4499989-0.5310001,0.7469978
		c0.0689993-0.1499996,0.3809996-0.1499996,0.4499989-0.2999992C5.0109997,16.1590004,4.8609991,16.1590004,5.0109997,15.9399986z"
		/>
	<path class="st3" d="M6.8170004,17.3289986c0-0.2999992,0.3000011-0.2609978,0.3000011-0.5610008
		c0-0.1499996-0.0810013-0.3809986-0.230999-0.3809986s-0.3000011,0.1499996-0.3000011,0.3000011
		C6.5169992,16.9870014,6.8170004,17.0290012,6.8170004,17.3289986z"/>
	<path class="st6" d="M6.8170004,17.3289986c0-0.2999992,0.3000011-0.2609978,0.3000011-0.5610008
		c0-0.1499996-0.0810013-0.3809986-0.230999-0.3809986s-0.3000011,0.1499996-0.3000011,0.3000011
		C6.5169992,16.9870014,6.8170004,17.0290012,6.8170004,17.3289986z"/>
	<path class="st3" d="M8.9649992,16.4709988c0.4470005,0,0.4019995,0.597002,0.1860008,0.8969994
		c0-0.2189999-0.3809996-0.3000011-0.3809996-0.4499989C8.7729988,16.6870003,9.1149998,16.6870003,8.9649992,16.4709988z"/>
	<path class="st6" d="M8.9649992,16.4709988c0.4470005,0,0.4019995,0.597002,0.1860008,0.8969994
		c0-0.2189999-0.3809996-0.3000011-0.3809996-0.4499989C8.7729988,16.6870003,9.1149998,16.6870003,8.9649992,16.4709988z"/>
	<path class="st3" d="M13.8909998,15.9399986c0.4620008-0.0810013,0.6810007,0.4499989,0.5310001,0.7469978
		c-0.0689993-0.1499996-0.3809996-0.1499996-0.4499989-0.2999992
		C13.8909998,16.1590004,14.0410004,16.1590004,13.8909998,15.9399986z"/>
	<path class="st6" d="M13.8909998,15.9399986c0.4620008-0.0810013,0.6810007,0.4499989,0.5310001,0.7469978
		c-0.0689993-0.1499996-0.3809996-0.1499996-0.4499989-0.2999992
		C13.8909998,16.1590004,14.0410004,16.1590004,13.8909998,15.9399986z"/>
	<path class="st3" d="M12.0849991,17.3289986c0-0.2999992-0.3000011-0.2609978-0.3000011-0.5610008
		c0-0.1499996,0.0810013-0.3809986,0.230999-0.3809986s0.3000011,0.1499996,0.3000011,0.3000011
		C12.3850002,16.9870014,12.0849991,17.0290012,12.0849991,17.3289986z"/>
	<path class="st6" d="M12.0849991,17.3289986c0-0.2999992-0.3000011-0.2609978-0.3000011-0.5610008
		c0-0.1499996,0.0810013-0.3809986,0.230999-0.3809986s0.3000011,0.1499996,0.3000011,0.3000011
		C12.3850002,16.9870014,12.0849991,17.0290012,12.0849991,17.3289986z"/>
	<path class="st3" d="M9.9370003,16.4709988c-0.4499989,0-0.4019995,0.597002-0.1860008,0.8969994
		c0-0.2189999,0.3809996-0.3000011,0.3809996-0.4499989C10.1290007,16.6870003,9.7869997,16.6870003,9.9370003,16.4709988z"/>
	<path class="st6" d="M9.9370003,16.4709988c-0.4499989,0-0.4019995,0.597002-0.1860008,0.8969994
		c0-0.2189999,0.3809996-0.3000011,0.3809996-0.4499989C10.1290007,16.6870003,9.7869997,16.6870003,9.9370003,16.4709988z"/>
	<path class="st3" d="M5.1610003,16.0900002c0.1500006,0,0.3809996,0.0689983,0.4499989,0.1499996L5.1610003,16.0900002z"/>
	<path class="st11" d="M5.1610003,16.0900002c0.1500006,0,0.3809996,0.0689983,0.4499989,0.1499996L5.1610003,16.0900002z"/>
	<path class="st3" d="M5.907999,16.3210011c0.0810013,0,0.3809996,0.0689983,0.5310001,0.1499996L5.907999,16.3210011z"/>
	<path class="st11" d="M5.907999,16.3210011c0.0810013,0,0.3809996,0.0689983,0.5310001,0.1499996L5.907999,16.3210011z"/>
	<path class="st3" d="M8.6230011,16.6209984c-0.1500006,0-0.4499989,0-0.5310001,0.0660019L8.6230011,16.6209984z"/>
	<path class="st11" d="M8.6230011,16.6209984c-0.1500006,0-0.4499989,0-0.5310001,0.0660019L8.6230011,16.6209984z"/>
	<path class="st3" d="M7.7979994,16.6209984c-0.0810013-0.0810013-0.3809996-0.0810013-0.5310001,0H7.7979994z"/>
	<path class="st11" d="M7.7979994,16.6209984c-0.0810013-0.0810013-0.3809996-0.0810013-0.5310001,0H7.7979994z"/>
	<path class="st3" d="M13.7409992,16.0900002c-0.1500006,0-0.3659992,0.0689983-0.4499989,0.1499996L13.7409992,16.0900002z"/>
	<path class="st11" d="M13.7409992,16.0900002c-0.1500006,0-0.3659992,0.0689983-0.4499989,0.1499996L13.7409992,16.0900002z"/>
	<path class="st3" d="M12.9940004,16.3210011c-0.0810013,0-0.3809996,0.0689983-0.5310001,0.1499996L12.9940004,16.3210011z"/>
	<path class="st11" d="M12.9940004,16.3210011c-0.0810013,0-0.3809996,0.0689983-0.5310001,0.1499996L12.9940004,16.3210011z"/>
	<path class="st3" d="M10.2790012,16.6209984c0.1500006,0,0.4499989,0,0.5310001,0.0660019L10.2790012,16.6209984z"/>
	<path class="st11" d="M10.2790012,16.6209984c0.1500006,0,0.4499989,0,0.5310001,0.0660019L10.2790012,16.6209984z"/>
	<path class="st3" d="M11.1099997,16.6209984c0.0810013-0.0810013,0.3809996-0.0810013,0.5310001,0H11.1099997z"/>
	<path class="st11" d="M11.1099997,16.6209984c0.0810013-0.0810013,0.3809996-0.0810013,0.5310001,0H11.1099997z"/>
	<path class="st7" d="M10.5100002,1.7830005c-0.1500006-0.3809996-0.4169998-0.6809993-0.782999-0.75
		c-0.1920004-0.0570002-0.3840008-0.039-0.6030006-0.039c-0.230999-0.0689993-0.420001,0.1799998-0.5009995,0.3239994
		c0.230999,0.1649995,0.2819996,0.3270006,0.3990011,0.3809996c0.230999,0.0809999,0.3449993,0,0.5760012-0.2160001
		C9.8320007,1.2520003,10.3599997,1.3239994,10.5100002,1.7830005z"/>
	<path class="st8" d="M10.5100002,1.7830005c-0.1500006-0.3809996-0.4169998-0.6809993-0.782999-0.75
		c-0.1920004-0.0570002-0.3840008-0.039-0.6030006-0.039c-0.230999-0.0689993-0.420001,0.1799998-0.5009995,0.3239994
		c0.230999,0.1649995,0.2819996,0.3270006,0.3990011,0.3809996c0.230999,0.0809999,0.3449993,0,0.5760012-0.2160001
		C9.8320007,1.2520003,10.3599997,1.3239994,10.5100002,1.7830005z"/>
	<path class="st3" d="M9.073,1.198c-0.1500006,0-0.1500006,0.2310004,0,0.2310004S9.2230005,1.198,9.073,1.198z"/>
	<path class="st12" d="M9.073,1.198c-0.1500006,0-0.1500006,0.2310004,0,0.2310004S9.2230005,1.198,9.073,1.198z"/>
	<path class="st3" d="M10.375,6.954999v4.7369986c-0.2700005,0.3000011-0.5849991,0.5550013-0.9239988,0.7860003
		c-0.342001-0.2279978-0.651-0.4889975-0.9240017-0.7859974V6.9399986c0.3389997-0.1199999,0.651-0.2850008,0.9210005-0.4890003
		C9.7089996,6.670001,10.0240011,6.8320007,10.375,6.954999z"/>
	<path class="st7" d="M10.0899992,13.6600008c-0.0090008,0-0.0150003,0-0.0240011-0.0030012
		c-0.032999-0.0119991-0.045001-0.0479994-0.0360003-0.0780001l0.4949999-1.2600002
		c0.0119991-0.032999,0.045001-0.045001,0.0780001-0.0360003c0.032999,0.0119991,0.045001,0.0479994,0.0360003,0.0780001
		l-0.4949999,1.2600002C10.1379986,13.6450005,10.1140003,13.6600008,10.0899992,13.6600008z"/>
	<path class="st7" d="M8.7850008,13.6600008c0.0090008,0,0.0150003,0,0.0240011-0.0030012
		c0.032999-0.0119991,0.045001-0.0479994,0.0360003-0.0780001l-0.4949999-1.2600002
		c-0.0119991-0.032999-0.045001-0.045001-0.0780001-0.0360003s-0.045001,0.0479994-0.0360003,0.0780001l0.4949999,1.2600002
		C8.7399998,13.6450005,8.7580013,13.6600008,8.7850008,13.6600008z"/>
</g>
<g id="Layer_2_1_">
</g>
<path class="st13" d="M10-18.5c15.5999985,0,28.5,12.9000006,28.5,28.5S25.5999985,38.5,10,38.5S-18.5,25.5999985-18.5,10
	S-5.5999994-18.5,10-18.5 M10-20C-6.5-20-20-6.5-20,10s13.5,30,30,30s30-13.5,30-30S26.5-20,10-20L10-20z"/>
</svg>
