<?xml version="1.0" encoding="utf-8"?>
<svg version="1.1" id="Layer_1" xmlns="http://www.w3.org/2000/svg" xmlns:xlink="http://www.w3.org/1999/xlink" x="0px" y="0px"
	 viewBox="-22 -22 64 64" style="enable-background:new 0 0 20 20;" xml:space="preserve">
<style type="text/css">
	.st0{fill:#EA0437;}
	.st1{fill:#FFC726;}
	.st2{fill:#4189DD;}
	.st3{fill:#12AD2B;}
	.st4{fill:#CCCCCC;}
</style>
<circle class="st0" cx="10" cy="10" r="28.8000011"/>
<path class="st1" d="M-15.3470001-2.0120006c0.8310003-0.0029998,2.1300001-0.1170001,2.6549997-1.302
	c-0.8310003,0.3630009-2.0339994,0.474-2.9909992,0.3330002c-0.1620007,0.3210011-0.3179998,0.6420007-0.4680014,0.9689999
	C-15.8839998-2.0150003-15.6110001-2.0089993-15.3470001-2.0120006z"/>
<path class="st1" d="M-11.3959999,23.6829987c6.0029998-0.1230011,11.2139997-2.3730011,12.1619997-3.8129997
	c-0.9390006-0.4049988-2.0219994,0.2490005-2.7929993,0.0990009c1.836-0.8459988,7.3320007-4.4069996,6.4410009-8.2199993
	c-0.6929998,2.1209993-2.7990003,3.8699999-3.6959996,4.3439999c2.052-3.1199999,4.8600011-6.3659992,2.4240003-8.8800001
	c0.1229997,1.4580002-0.927,3.0599985-1.3889995,3.1800013c1.1879997-3.2939987,2.3279986-7.4310007-0.2520003-10.157999
	C1.8400006,1.2189999,1.7020006,4,1.237,4.1259995c-0.1439996-2.2409992-0.5280004-6.9539995-2.8859997-6.888
	c0.75,0.6690001,1.0770006,2.487,1.0950007,4.3289995c-0.5399995-1.2600002-1.1489997-2.2080002-2.4570007-3.138
	C-4.0700002-3.599-5.948-5.2789998-7.8319993-6.4819999c0.2100005,1.4760003,0.3870006,2.6400003,2.448,4.1699996
	c-1.0739994-0.0659995-2.1480002-2.1030006-3.2970004-2.1600008c-0.9150009-0.0479994-1.632,0.8250017-3.1230001,0.3240008
	c0.165,0.4920001,0.8610001,0.711,1.0080004,1.0739994c-0.3210011,0.2219996-1.0799999-0.0360003-1.71-0.3629994
	c0.8669996,1.1849999,2.2109995,1.8779998,3.3540001,1.6409998c1.355999-0.2639995,2.8139992-0.1229997,4.2030001,0.6690001
	c-0.3540001,0.1829996-1.7340002,0.1799998-2.6220002,0.0720005c0.8070002,0.8159995,1.3439999,1.3560004,2.7449999,1.3469996
	c1.2509995-0.0089993,1.9049993-0.6690001,2.2260003-0.2609997C-1.816999,0.961-1.2859988,1.888-0.631999,2.9830008
	c-1.4460011,0.1589999-1.0080013-1.6410012-2.6250014-2.5590005C-4.1630006,2.302-2.2130003,4.5250006-0.8870006,5.4489994
	c0.0180001,1.4100008,0.2249994,2.592001,0.8250003,3.6660004c0.4019995,0.7559996,0.9240003,1.532999,0.7290001,3.243001
	c-0.7949996-0.5789995-1.5720005-2.5319996-1.2869997-4.079999c-0.9929996,0.2700005-1.3829999,2.019001-0.9149995,2.901
	c0.3480005,0.6719999,0.5850005,1.9530001,0.1799998,2.526c-0.3959999,0.5369997-0.4349999,0.474-0.4290004,1.6199999
	c0.0150003,0.6839991-0.3690004,1.4969988-0.9929996,2.0609999c0.1290007-0.4829998,0.2789998-1.3169994,0.1350002-1.8360004
	c-0.4920001,0.8369999-1.7310004,1.7010021-2.1209993,2.6040001c-0.3839993,0.8999996-0.4799995,2.4660015-2.3339996,2.8260021
	c-2.382,0.4709969-3.2039995,0.8880005-4.7369995,1.5119972c-0.1710005-1.1639977,0.3389988-3.593998,1.3139992-3.4559975
	c0.9510002,0.1710014,3.8340006-0.993,2.802001-3.420001c-0.2039995,0.7650003-0.8850002,1.5120001-1.6199999,1.5479994
	c0.7950001-1.0319996,2.2080002-2.0970011,1.5209999-3.8220005c-0.3839998,0.7349997-0.9869995,1.6140003-1.9020004,2.1090002
	c0.9780006-1.8809996,0.1140003-2.4420004-1.0499992-0.894001c-0.441,0.5970011-0.7049999,1.7939978-0.9840002,3.3119993
	c-0.4590006-1.2359982-0.4259996-2.8619976-0.9689999-4.1849976c-0.5670004-1.4279995,0.7529993-1.8060007,1.3709993-1.6920004
	c1.5149975,0.407999,4.0529985,0.407999,3.8639979-2.1000023c-0.6570001,0.8459988-1.8060002,1.1099997-3.0479999,0.8039989
	c1.3949995-1.0199976,2.4960003-2.9369974,0.9420004-3.935998c-0.0480003,1.0649986-0.8699999,2.2530012-1.9650002,2.7989988
	c-0.2550001-0.8939981-0.2550001-1.8419981-0.0360003-2.8859997c-0.6150007,0.6450005-1.059,1.986002-1.4130001,3.5070019
	c-0.0270004-1.5060024,0.2580004-2.5890026,0.4680004-3.3959999c0.3210001-1.1850014,1.1189995-0.4170027,2.3369999-0.3270006
	C-9.0289993,6.5230017-7.4149995,5.875-7.7210002,4.2850008C-8.1260004,4.9150009-8.948,5.157999-9.7880001,5.092001
	c1.0109997-0.6120014,2.7720003-1.7010012,1.8060002-3.3780012c-0.402,0.6329999-0.5369992,1.1790004-1.7099996,1.3709993
	c0.309-0.7080002,0.3599997-1.7070007,1.2690001-2.1060004c-1.6290007-0.3209982-2.559001,0.7470016-3.033,2.4180007
	c-0.1890001-1.157999-0.420001-1.5869994-0.4650002-2.4329996c0.8789997-0.9749994,0.9720001-2.8889995-0.9330006-3.3150001
	c-0.1110001,0.9840002-0.0780001,1.2210002,0.1380005,2.019001C-13.6099997-0.8599997-14.8730001-1.1539998-15.71-0.4039998
	c0.5670004,0.612,1.4490004,1.1519995,2.8019991,0.4829993c-0.3179989,1.0500011-1.1519985,0.8699999-2.2979984,0.4710002
	C-14.507,1.8640003-13.625,2.0979991-12.6499996,1.948c0.5100002,1.3439999,0.5339994,2.3669987-0.96,4.3260012
	c0.0719995-1.2150021-0.0150003-2.1240005-0.9809999-3.1080008c-0.8250008-0.8129997-1.5,0.0299993-0.2070007,1.8359985
	c-0.782999-0.5789995-1.6709995-1.7519989-1.941-2.9249983C-16.9969997,3.526-16.7630005,5.2359991-15.9589996,6.1960011
	c-0.3810005,0.4049978-0.8129997-0.045001-1.4519997-1.038002c0.243,3.177,1.598999,3.7890015,3.4199991,3.0810013
	c0.0509996,1.743001,0.0509996,3.3569984,0.1560001,5.4630003c-1.0619993-1.5269995-2.4089994-2.6669998-3.1589994-2.9520006
	c-0.2340012,0.8549995,0.6479988,1.9680004,1.1399994,2.5889997c-0.7530003-0.1560001-2.382-1.401-2.382-1.401
	c-0.164999,1.4160004,1.6679993,2.7270012,2.8470001,3.3149986c-1.3920002-0.0600014-2.0009995-0.5880003-2.9009991-1.4489994
	c0.0179996,3.927,4.256999,3.2460003,5.0489988,2.6400013c0.1050005,1.9349976,0.2520008,4.1700001,0.3540001,6.1019974
	c-1.1969995-0.2099991-1.1040001-0.5699997-2.1300001-0.6660004c-0.4679995-0.0179977-0.915-0.1500015-1.3500004-0.3239994
	c0.3059998,0.6960011,0.6300011,1.3859997,0.9870005,2.052c0.5579996,0.0480003,1.1459999,0.0870018,1.7729998,0.1110001
	c-0.5339994,0.1469994-0.9449997,0.4200001-1.2659988,0.7439995c0.2909994,0.4949989,0.5759993,0.993,0.8940001,1.4729996
	l4.5630007-0.0179977C-9.3619995,24.9430008-10.1690006,24.0400009-11.3959999,23.6829987z"/>
<path class="st1" d="M-14.4890003-5.1049995c-0.3449993,0.5609994-0.684,1.1220002-0.993,1.7069993
	c1.5360012-0.5399995,3.4560003-0.7650003,4.5360012-1.6799998C-11.7019997-5.6420007-13.0489998-5.5430007-14.4890003-5.1049995z"
	/>
<path class="st1" d="M-15.8029995-1.4749994c-0.2130013,0.0809999-0.4440002,0.1019998-0.6750011,0.1409998
	c-0.0839996,0.2009997-0.1560001,0.4049993-0.2339993,0.6029992C-16.3190002-0.8720002-15.9589996-1.1060004-15.8029995-1.4749994z"
	/>
<path class="st0" d="M10-18.7999992c-0.1049995,0-0.2039995,0.0149994-0.3089991,0.0149994h0.6209993
	C10.2070007-18.7849998,10.1080008-18.7999992,10-18.7999992z"/>
<path class="st0" d="M9.6910009,38.784996c0.1049995,0,0.2039995,0.0149994,0.3089991,0.0149994
	c0.1080008,0,0.2070007-0.0149994,0.3120003-0.0149994H9.6910009z"/>
<path class="st2" d="M37.1740036,19.4709988L-9.5059996,31.144001c5.0639992,4.6709976,11.7840004,7.5629997,19.1970005,7.6410027
	h0.6209993C22.7590008,38.6499977,33.2859955,30.625,37.1740036,19.4709988z"/>
<path class="st3" d="M10.3120003-18.7849998H9.6879997C2.2779989-18.7040005-4.448-15.8150005-9.5059996-11.1440001
	L37.1740036,0.526C33.2859955-10.625,22.7590008-18.6499996,10.3120003-18.7849998z"/>
<g id="Layer_2_1_">
</g>
<path class="st4" d="M10-18.5c15.5999985,0,28.5,12.9000006,28.5,28.5S25.5999985,38.5,10,38.5S-18.5,25.5999985-18.5,10
	S-5.5999994-18.5,10-18.5 M10-20C-6.5-20-20-6.5-20,10s13.5,30,30,30s30-13.5,30-30S26.5-20,10-20L10-20z"/>
</svg>
