<?xml version="1.0" encoding="utf-8"?>
<svg version="1.1" id="Layer_1" xmlns="http://www.w3.org/2000/svg" xmlns:xlink="http://www.w3.org/1999/xlink" x="0px" y="0px"
	 viewBox="-22 -22 64 64" style="enable-background:new 0 0 20 20;" xml:space="preserve">
<style type="text/css">
	.st0{fill:#E23D28;}
	.st1{fill:#F9DD16;}
	.st2{fill:#006B3F;}
	.st3{fill:none;}
	.st4{fill:#00A5DB;}
	.st5{fill:#CCCCCC;}
</style>
<g id="Layer_1_1_">
	<path class="st0" d="M37.1259995,19.5999985h-16.467001c-0.1679993,0.1860008-0.296999,0.4050026-0.4740009,0.5820007
		C17.5179977,22.848999,13.7709999,24.4000015,10,24.4000015S2.4819999,22.848999-0.1820002,20.1819992
		c-0.1799998-0.1800003-0.3090005-0.3959999-0.474-0.5820007h-16.4699993
		C-13.1689997,30.7810001-2.5339999,38.8000031,10,38.8000031S33.1689987,30.7780018,37.1259995,19.5999985z"/>
	<path class="st1" d="M24.4000015,10c0,3.519001-1.3950005,6.980999-3.7410011,9.5999985h16.4669991
		C38.1879997,16.5939999,38.8000031,13.3719988,38.8000031,10s-0.6120033-6.5910001-1.6740036-9.5999994h-16.467001
		C23.0050011,3.0189996,24.4000015,6.480999,24.4000015,10z"/>
	<path class="st1" d="M-4.4000006,10c0-3.519001,1.3950005-6.980999,3.7409992-9.5999994h-16.4669991
		C-18.1879997,3.4089999-18.7999992,6.6280012-18.7999992,10s0.6119995,6.5910015,1.6739998,9.5999985h16.4669991
		C-3.0050001,16.980999-4.4000006,13.519001-4.4000006,10z"/>
	<path class="st2" d="M-0.1820002-0.1820002C2.4819999-2.849,6.2290001-4.4000006,10-4.4000006
		S17.5180016-2.849,20.1819992-0.1820002c0.1800022,0.1799998,0.309,0.3959999,0.4740009,0.5820007h16.467001
		C33.1689987-10.7779999,22.5340004-18.7999992,10-18.7999992s-23.1690006,8.0219994-27.1259995,19.2000008h16.4669991
		C-0.4879994,0.2139997-0.3590002-0.0050001-0.1820002-0.1820002z"/>
	<line class="st3" x1="-0.9559999" y1="13.5610008" x2="-0.9559999" y2="13.5610008"/>
	<circle class="st4" cx="10" cy="10" r="14.4000006"/>
	<polygon class="st1" points="7.099,7.3570013 6.2440004,9.9940004 7.0600014,10.5880003 9.8110008,2.1220002 9.3070002,0.5709996 
		7.4139986,6.394001 -0.9559999,6.394001 0.3670001,7.3570013 	"/>
	<polygon class="st1" points="20.9560013,6.394001 19.3239994,6.394001 13.8730011,10.3540001 13.0150003,7.717001 
		12.006999,7.717001 14.7550001,16.1800003 16.0779991,17.1399994 14.1850014,11.3170004 	"/>
	<polygon class="st1" points="16.7709999,19.2729988 16.2669983,17.7220001 10.8189993,13.7619991 13.0600014,12.1300001 
		12.7509995,11.1729994 5.5510006,16.4020004 5.0469999,17.9560013 10,14.355999 	"/>
	<polygon class="st1" points="8.8029995,6.394001 8.4909992,7.3570013 17.3889999,7.3570013 18.7089996,6.394001 
		12.5860014,6.394001 10,-1.5650001 9.4959993,-0.0109997 11.5749989,6.394001 	"/>
	<polygon class="st1" points="8.8780012,13.5400009 9.6939993,12.9460011 2.4940004,7.717001 0.862,7.717001 5.8149986,11.3170004 
		3.2290001,19.2729988 4.552,18.3160019 6.6309996,11.907999 	"/>
	<line class="st3" x1="3.2290001" y1="0.6790004" x2="3.2290001" y2="0.6790004"/>
	<line class="st3" x1="4.9780006" y1="11.6290007" x2="4.980999" y2="11.6290007"/>
	
		<rect x="17.7539177" y="9.4716005" transform="matrix(0.3055883 -0.9521638 0.9521638 0.3055883 0.5033448 25.8766155)" class="st1" width="0.4770194" height="6.2432389"/>
	<polygon class="st1" points="5.0529995,11.8599997 4.9780006,11.6290007 4.9029989,11.4040012 -1.0310001,13.3330002 
		-0.9559999,13.5610008 -0.8809996,13.7860003 	"/>
	<rect x="9.7600002" y="15.2800007" class="st1" width="0.4799995" height="6.2399998"/>
	
		<rect x="11.8193798" y="2.9679518" transform="matrix(0.588029 -0.8088399 0.8088399 0.588029 3.5610316 13.4044008)" class="st1" width="6.2396922" height="0.4769762"/>
	<polygon class="st1" points="6.7030001,5.8690004 7.0899992,5.5870008 3.4210005,0.5380006 3.2290001,0.6790004 
		3.0369997,0.8200002 	"/>
</g>
<g id="Layer_2_1_">
</g>
<path class="st5" d="M10-18.5c15.5999985,0,28.5,12.9000006,28.5,28.5S25.5999985,38.5,10,38.5S-18.5,25.5999985-18.5,10
	S-5.5999994-18.5,10-18.5 M10-20C-6.5-20-20-6.5-20,10s13.5,30,30,30s30-13.5,30-30S26.5-20,10-20L10-20z"/>
</svg>
