<?xml version="1.0" encoding="utf-8"?>
<svg version="1.1" id="Layer_1" xmlns="http://www.w3.org/2000/svg" xmlns:xlink="http://www.w3.org/1999/xlink" x="0px" y="0px"
	 viewBox="-22 -22 64 64" style="enable-background:new 0 0 20 20;" xml:space="preserve">
<style type="text/css">
	.st0{fill:#FFFFFF;stroke:#B6B6B6;stroke-width:0.15;}
	.st1{fill:none;}
	.st2{fill:#273476;}
	.st3{fill:#FFFFFF;}
	.st4{fill:#D0202D;}
	.st5{fill:#CCCCCC;}
</style>
<circle class="st0" cx="10" cy="10" r="28.8000011"/>
<path class="st1" d="M-18.7010002,11.9139986c-0.0270004-0.4019995-0.0510006-0.8070002-0.0599995-1.2120008
	C-18.7549992,11.1040001-18.7310009,11.5090008-18.7010002,11.9139986z"/>
<path class="st1" d="M38.4009972,5.1219988c-0.0480003-0.2910004-0.1200027-0.573-0.1769981-0.8580008
	c0.1139984,0.5699987,0.185997,1.157999,0.2669983,1.7399998C38.4489975,5.7099991,38.4489975,5.4189987,38.4009972,5.1219988z"/>
<path class="st1" d="M38.7009964,8.0649986c0.0300026,0.4110003,0.0540009,0.8249989,0.0630035,1.2419987
	C38.7549973,8.8929987,38.7280006,8.4790001,38.7009964,8.0649986z"/>
<path class="st1" d="M38.7220001,11.5660009c-0.0210037,0.3449993-0.0210037,0.6960011-0.0510025,1.0439987
	C38.697998,12.2650003,38.7009964,11.9139986,38.7220001,11.5660009z"/>
<path class="st1" d="M38.2299995,15.7060013c-0.0330009,0.1619997-0.0810013,0.3180008-0.1170006,0.4770012
	C38.1489983,16.0209999,38.1969986,15.868001,38.2299995,15.7060013z"/>
<path class="st1" d="M10.6660004-18.7639999c0.4680004,0.0119991,0.9300013,0.0389996,1.3950005,0.0750008
	C11.5899992-18.7220001,11.125-18.7549992,10.6660004-18.7639999z"/>
<path class="st1" d="M7.3929987-18.6709995c0.3389997-0.0330009,0.6899986-0.0330009,1.0379992-0.0510006
	C8.0860014-18.7010002,7.7349997-18.698,7.3929987-18.6709995z"/>
<path class="st1" d="M26.7970009,33.340004c-0.9659996,0.6930008-1.9740009,1.3320007-3.0209999,1.9049988
	C24.823,34.6689987,25.8310013,34.0359955,26.7970009,33.340004z"/>
<path class="st1" d="M0.6279998,37.2099991c-5.2739997-1.8180008-9.8490009-5.1089973-13.2329998-9.3989983
	c-0.4020004-0.5129986-0.8009996-1.0290012-1.1700001-1.5660019c-0.7229996-1.0559998-1.3589993-2.1779976-1.941-3.329998
	c-0.5459995-1.0859985-1.0229988-2.204998-1.4279995-3.3630009c-0.4349995-1.2390003-0.8129997-2.5019989-1.0769997-3.8129997
	C-15.9499998,27.2740021-6.5209999,36.4899979,5.125,38.4009972c0.3449993,0.0569954,0.6839991,0.0600014,1.026,0.1079979
	c-0.5610008-0.0749969-1.1219988-0.1410027-1.6739988-0.2490005C3.1569996,38.0019989,1.8790007,37.6389999,0.6279998,37.2099991z"
	/>
<path class="st1" d="M-15.71-2.9149995C-16.448-1.4509997-17.0569992,0.0819993-17.5400009,1.6749997
	c0.144001-0.4559999,0.2849998-0.9060001,0.4440002-1.3530006C-16.6970005-0.7940001-16.2350006-1.8679996-15.71-2.9149995z"/>
<path class="st1" d="M-6.3499994-13.6520004c0.9420004-0.651,1.9199996-1.2509995,2.9400001-1.7880001
	C-4.4299998-14.9029999-5.4080005-14.3059998-6.3499994-13.6520004z"/>
<path class="st1" d="M0.6400003-17.2280006C-0.6259995-16.7929993-1.8439999-16.25-3.0230002-15.6529999
	c1.1760006-0.5939999,2.3909998-1.1219997,3.651-1.5569992C0.6339993-17.2159996,0.6370006-17.2220001,0.6400003-17.2280006z"/>
<path class="st1" d="M-9.8780003-10.7989998c-2.2259998,2.1269999-4.092,4.6139998-5.5469999,7.3619995
	c0.8340006-1.5780001,1.7880001-3.0809999,2.8919992-4.4669995C-11.7139997-8.9330006-10.8260002-9.8959999-9.8780003-10.7989998z"
	/>
<path class="st1" d="M19.8610001-17.032999c5.0999985,1.8599987,9.5189972,5.105999,12.8069992,9.3029995
	c0.3989983,0.513,0.8040009,1.026,1.1699982,1.5629997c0.7200012,1.0590005,1.3470001,2.1870003,1.9230042,3.3389997
	c0.507,1.0139995,0.9509964,2.0609994,1.3349991,3.1409998c0.4319954,1.2119994,0.8099976,2.4509997,1.0830002,3.7290001
	C35.8359985-7.3909998,26.4519978-16.5079994,14.8809996-18.4039993c-0.329999-0.0540009-0.6540012-0.0570011-0.980999-0.1020012
	c0.7110014,0.0990009,1.4219999,0.1920013,2.118001,0.3390007C17.3349991-17.882,18.6100006-17.4860001,19.8610001-17.032999z"/>
<path class="st1" d="M15.9849997,38.1669998c-0.4260006,0.090004-0.8699999,0.1380005-1.302,0.2099991
	C15.118001,38.3050003,15.5589991,38.2570038,15.9849997,38.1669998z"/>
<path class="st1" d="M-18.401001,14.8780012c0.0420017,0.2700005,0.1110001,0.5340014,0.1650009,0.8010006
	c-0.1110001-0.5639992-0.1800003-1.1459999-0.2579994-1.7249994C-18.4519997,14.2659998-18.4489994,14.5689993-18.401001,14.8780012
	z"/>
<path class="st1" d="M9.3249989,38.7639999C8.829999,38.7519989,8.3409986,38.7159958,7.849,38.6800003
	C8.3439999,38.7129974,8.8360014,38.7549973,9.3249989,38.7639999z"/>
<path class="st1" d="M12.9129992,38.6230011c-0.5429993,0.0540009-1.0980005,0.0779953-1.6500006,0.1020012
	C11.8179998,38.7009964,12.3669987,38.6800003,12.9129992,38.6230011z"/>
<path class="st1" d="M19.8249989,37.0419998c-0.4859982,0.1800003-0.980999,0.3359985-1.4790001,0.4919968
	C18.8439999,37.3840027,19.3360023,37.2220001,19.8249989,37.0419998z"/>
<path class="st1" d="M23.3979988,35.4489975c-1.1219978,0.5910034-2.282999,1.1160011-3.4890003,1.5600052
	C21.1149998,36.5649986,22.276001,36.0400009,23.3979988,35.4489975z"/>
<path class="st1" d="M-18.7220001,8.4610014c0.0209999-0.3630009,0.0240002-0.7290001,0.0569992-1.0889997
	C-18.698,7.7320013-18.7010002,8.0980005-18.7220001,8.4610014z"/>
<path class="st1" d="M-18.2630005,4.5369997c0.0209999-0.1169987,0.0300007-0.2459993,0.0540009-0.3630009
	C-18.2329998,4.2939987-18.2420006,4.420001-18.2630005,4.5369997z"/>
<path class="st1" d="M-9.5389996-11.1019993c0.8369999-0.7740002,1.7189994-1.5,2.6459994-2.1720009
	C-7.8200002-12.599-8.6990004-11.8760004-9.5389996-11.1019993z"/>
<path class="st1" d="M37.5550003,18.2649994c-0.1320038,0.4290009-0.2610016,0.8610001-0.4109993,1.281002
	c-0.3839989,1.0889988-0.8279991,2.1419983-1.3320007,3.1679993c-0.8610039,1.7459984-1.8899956,3.3899994-3.0720024,4.9139977
	c-1.6200008,2.0849991-3.5249958,3.9330025-5.6489983,5.5019989C32.0319977,29.4760017,35.7490005,24.295002,37.5550003,18.2649994z
	"/>
<path class="st2" d="M-12.6050005,27.8110008c3.3870001,4.2900009,7.9590006,7.586998,13.2329988,9.3989983V21.1899986
	L-12.6050005,27.8110008z"/>
<path class="st2" d="M32.7369995,27.6310005l-12.8789978-6.4410019v15.836998
	c0.0179977-0.0060005,0.0329971-0.0149956,0.0479984-0.0209999c1.203001-0.4409981,2.3640003-0.9720001,3.4890003-1.5600014
	c0.1259995-0.0659981,0.2519989-0.1349983,0.3780022-0.2040024c1.046999-0.5730019,2.0579987-1.2089996,3.0209999-1.9050026
	c0.098999-0.0690002,0.197998-0.1349983,0.296999-0.2070007C29.2150021,31.5639992,31.1200027,29.7160015,32.7369995,27.6310005z"/>
<path class="st2" d="M0.6279998-1.3250003v-15.8849983c-1.2600002,0.4349995-2.4779992,0.9629993-3.651,1.5569992
	c-0.1289992,0.066-0.2579999,0.1409998-0.3869991,0.21c-1.0200005,0.54-1.9979997,1.1370001-2.9400001,1.7880001
	c-0.1800013,0.1260004-0.3630009,0.2519999-0.5400009,0.3809996c-0.9299998,0.6720009-1.809,1.3979998-2.6489992,2.1720009
	c-0.1110001,0.1049995-0.2280006,0.198-0.3390007,0.3029995c-0.948,0.9029999-1.8359995,1.8659992-2.6549997,2.895
	L0.6279998-1.3250003z"/>
<path class="st2" d="M32.6650009-7.7269998c-3.2849979-4.197-7.7070007-7.4430003-12.8069992-9.3030014v15.7080002
	L32.6650009-7.7269998z"/>
<path class="st3" d="M-17.1439991,19.5489998c0.4049988,1.1579971,0.8849983,2.2799988,1.4279995,3.362999l6.7319994-3.362999
	H-17.1439991z"/>
<path class="st4" d="M-8.9840002,19.5489998l-6.7319994,3.362999c0.5789995,1.1520004,1.2149992,2.2709999,1.941,3.3299999
	l13.3889999-6.6929989H-8.9840002z"/>
<path class="st4" d="M-8.9840002,0.3159995l-6.6719999-3.329999C-15.6710005-2.9810004-15.6920004-2.948-15.71-2.9149995
	c-0.5250006,1.0469999-0.9870005,2.1209993-1.3860006,3.230999H-8.9840002z"/>
<path class="st4" d="M29.4760017,0.3159995l6.2849998-3.1409998C35.1850014-3.9799995,34.5580025-5.1019998,33.8379974-6.164
	l-12.9630013,6.480001C20.8749962,0.3160009,29.4760017,0.3160009,29.4760017,0.3159995z"/>
<path class="st4" d="M35.8120003,22.717001c0.5039978-1.0259991,0.9510002-2.0790005,1.3320007-3.1679993h-7.6679993
	L35.8120003,22.717001z"/>
<path class="st4" d="M38.2299995,15.7030001c0.2040024-1.0109997,0.3419991-2.0489988,0.4379997-3.0930004
	c0.0329971-0.342001,0.0359955-0.6929998,0.0510025-1.0439987c0.0390015-0.75,0.0599976-1.5,0.0419998-2.2619991
	c-0.0090027-0.4169998-0.0359993-0.8280001-0.0630035-1.2419987c-0.0419998-0.6839991-0.1169968-1.368001-0.2099991-2.0579996
	c-0.0810013-0.5820007-0.1529999-1.170001-0.2669983-1.7399998c-0.0060043-0.0360003-0.0149994-0.0660009-0.0210037-0.099
	H16.0119991v-22.326004c-0.6929998-0.1470013-1.4040012-0.243-2.118001-0.3390007
	c-0.6149998-0.0809994-1.2299995-0.1469994-1.8389997-0.1889992c-0.4649992-0.0360012-0.9239988-0.0630016-1.3950005-0.0750008
	c-0.7499971-0.0149994-1.4909992,0.0030003-2.2289972,0.0419998c-0.3449993,0.0209999-0.6960011,0.0209999-1.038002,0.0510006
	C6.4060001-18.5809994,5.4309978-18.4430008,4.4769983-18.257V4.1650009h-22.6829987
	c0,0.0030012-0.0030003,0.0090008-0.0030003,0.0119991c-0.0240002,0.1169987-0.0330009,0.243001-0.0540009,0.3599997
	C-18.4430008,5.467001-18.5779991,6.4150009-18.6620007,7.375C-18.698,7.7349997-18.698,8.1009989-18.7189999,8.4639997
	c-0.0389996,0.7409992-0.0599995,1.4820013-0.0419998,2.2380009c0.0089989,0.4050007,0.0359993,0.8129997,0.0599995,1.2120008
	c0.0419998,0.6779995,0.1170006,1.355999,0.210001,2.0429993c0.0809994,0.5760012,0.1469994,1.157999,0.2579994,1.7249994
	c0.0030003,0.0090008,0.0030003,0.0179987,0.0060005,0.0240011H4.4769983v22.557003
	c0.5489988,0.1079979,1.1130009,0.1739998,1.6739988,0.2490005c0.5699987,0.0750008,1.1369991,0.1349983,1.7010012,0.1769981
	c0.4890003,0.0359993,0.9780006,0.0750008,1.4759989,0.0839996c0.651,0.0149994,1.2929993-0.0089989,1.9350014-0.0359955
	c0.552-0.0239983,1.1070013-0.0480042,1.6500006-0.1020012c0.5970011-0.0600014,1.1850014-0.156002,1.7700005-0.2519989
	c0.4350014-0.0690041,0.8759995-0.1170006,1.302-0.2099991c0.0090008-0.0029984,0.0210009-0.0060005,0.0299997-0.0089989V15.7090054
	h22.2150002V15.7030001z"/>
<path class="st5" d="M10-18.5c15.5999985,0,28.5,12.9000006,28.5,28.5S25.5999985,38.5,10,38.5S-18.5,25.5999985-18.5,10
	S-5.5999994-18.5,10-18.5 M10-20C-6.5-20-20-6.5-20,10s13.5,30,30,30s30-13.5,30-30S26.5-20,10-20L10-20z"/>
</svg>
