<?xml version="1.0" encoding="utf-8"?>
<svg version="1.1" id="Layer_1" xmlns="http://www.w3.org/2000/svg" xmlns:xlink="http://www.w3.org/1999/xlink" x="0px" y="0px"
	 viewBox="-22 -22 64 64" style="enable-background:new 0 0 20 20;" xml:space="preserve">
<style type="text/css">
	.st0{fill:#FFFFFF;stroke:#B6B6B6;stroke-width:0.15;}
	.st1{fill:#009E49;}
	.st2{fill:#FCD116;}
	.st3{fill:#CE1126;}
	.st4{fill:#CCCCCC;}
</style>
<circle class="st0" cx="10" cy="10" r="28.8000011"/>
<path class="st1" d="M10-18.7999992c-5.4510012,0-10.532999,1.5449982-14.8800001,4.1759987L35.9799995-2.3660007
	C31.3479977-12.0740004,21.4749985-18.7999992,10-18.7999992z"/>
<path class="st1" d="M35.9799995,22.3659992L-4.8800001,34.6240005C-0.5330005,37.2549973,4.5489988,38.8000031,10,38.8000031
	C21.4749985,38.8000031,31.3479977,32.0739975,35.9799995,22.3659992z"/>
<path class="st2" d="M38.8000031,10c0-3.3359985-0.5970001-6.5250006-1.6380005-9.506999L-7.4359994-12.8839998
	c-0.2220011,0.1680002-0.4530001,0.3240004-0.6720004,0.5010004L29.1999989,10L-8.1079998,32.3830032
	c0.2159991,0.1769981,0.4499993,0.3300018,0.6720004,0.5009995l44.5980034-13.3770008
	C38.2029953,16.5250015,38.8000031,13.3360014,38.8000031,10z"/>
<path d="M-8.1079998-12.3829994c-0.783,0.6329994-1.5390005,1.2989998-2.25,2.0100002L23.6020012,10l-33.9570007,20.3730011
	c0.7110004,0.7109985,1.467,1.3769989,2.25,2.0100021L29.1999989,10L-8.1079998-12.3829994z"/>
<path class="st3" d="M-10.3550005-10.3729992C-15.5720005-5.1589999-18.7999992,2.0440001-18.7999992,10
	s3.2279987,15.1589985,8.4449997,20.3730011L23.6020012,10L-10.3550005-10.3729992z"/>
<path class="st4" d="M10-18.5c15.5999985,0,28.5,12.9000006,28.5,28.5S25.5999985,38.5,10,38.5S-18.5,25.5999985-18.5,10
	S-5.5999994-18.5,10-18.5 M10-20C-6.5-20-20-6.5-20,10s13.5,30,30,30s30-13.5,30-30S26.5-20,10-20L10-20z"/>
</svg>
