<?xml version="1.0" encoding="utf-8"?>
<svg version="1.1" id="Layer_1" xmlns="http://www.w3.org/2000/svg" xmlns:xlink="http://www.w3.org/1999/xlink" x="0px" y="0px"
	 viewBox="-22 -22 64 64" style="enable-background:new 0 0 20 20;" xml:space="preserve">
<style type="text/css">
	.st0{fill:#FFFFFF;stroke:#B6B6B6;stroke-width:0.15;stroke-miterlimit:10;}
	.st1{fill:#0047BA;}
	.st2{fill:#CCCCCC;}
</style>
<circle class="st0" cx="10" cy="10" r="28.8000011"/>
<path class="st1" d="M10-18.7999992c-12.5340004,0-23.1690006,8.0219994-27.1259995,19.2000008h54.2519989
	C33.1689987-10.7779999,22.5340004-18.7999992,10-18.7999992z"/>
<path class="st1" d="M37.1259995,19.5999985h-54.2519989C-13.1690006,30.7810001-2.5339999,38.8000031,10,38.8000031
	S33.1689987,30.7780018,37.1259995,19.5999985z"/>
<path id="path1888_1_" class="st1" d="M26.0019989,11.6020012l0.717001,2.2109985h2.3249989l-1.8810005,1.368001
	l0.7200012,2.2110014l-1.8810005-1.368l-1.8810005,1.368l0.7200012-2.2109985l-1.8810005-1.368001h2.3249989L26.0019989,11.6020012z
	"/>
<path id="path1888" class="st1" d="M10,6.7989988l0.717001,2.2110014h2.3249989l-1.8809996,1.368001l0.7199993,2.2110014
	L10,11.2209988l-1.8809996,1.368001l0.7199993-2.2110014L6.954999,9.0129986h2.3250017L10,6.7989988z"/>
<path id="path1888_2_" class="st1" d="M26.7189999,4.198h2.3249989l-1.8810005,1.368001l0.7170029,2.2110014l-1.8810005-1.368001
	L24.118,7.7770023l0.7170029-2.2109985l-1.8810005-1.368001h2.3249989l0.7199993-2.211L26.7189999,4.198z"/>
<path id="path1888_5_" class="st1" d="M-5.2280006,13.8100014h2.3250003l-1.8809996,1.368001l0.7169995,2.2110014l-1.8809996-1.368
	l-1.8809996,1.368L-7.112,15.1780052l-1.8779998-1.3680038h2.3250003l0.7199993-2.2109985L-5.2280006,13.8100014z"/>
<path id="path1888_3_" class="st1" d="M-5.9450002,1.987l0.7169995,2.211h2.3250003l-1.8809996,1.368001l0.7169995,2.2110014
	l-1.8779998-1.368001l-1.8809996,1.3679981l0.7199993-2.2110014L-8.9869995,4.198h2.3249998L-5.9450002,1.987z"/>
<path class="st2" d="M10-18.5c15.5999985,0,28.5,12.9000006,28.5,28.5S25.5999985,38.5,10,38.5S-18.5,25.5999985-18.5,10
	S-5.5999994-18.5,10-18.5 M10-20C-6.5-20-20-6.5-20,10s13.5,30,30,30s30-13.5,30-30S26.5-20,10-20L10-20z"/>
</svg>
