<?xml version="1.0" encoding="utf-8"?>
<svg version="1.1" id="Layer_1" xmlns="http://www.w3.org/2000/svg" xmlns:xlink="http://www.w3.org/1999/xlink" x="0px" y="0px"
	 viewBox="-22 -22 64 64" style="enable-background:new 0 0 20 20;" xml:space="preserve">
<style type="text/css">
	.st0{fill:#FFFFFF;stroke:#B6B6B6;stroke-width:0.15;}
	.st1{fill:#0038B8;}
	.st2{fill:#CCCCCC;}
</style>
<circle class="st0" cx="10" cy="10" r="28.8000011"/>
<path class="st1" d="M26.7459984-13.3999996H-6.7459993c-3.3210001,2.382-6.1110001,5.447999-8.1689997,8.999999h49.8300018
	C32.8600006-7.9520006,30.0669975-11.0179996,26.7459984-13.3999996z"/>
<path class="st1" d="M34.9150009,24.4000015H-14.915c2.0550003,3.5519981,4.8480005,6.618,8.1720009,8.9999962h33.4920006
	C30.0669975,31.0180016,32.8600006,27.9519997,34.9150009,24.4000015z"/>
<path class="st1" d="M17.1999989,10l3.6000004-6.2340002h-7.2000027L10-2.4710002l-3.5999994,6.237h-7.2000003L2.7999997,10
	l-3.6000009,6.2340012h7.1999989l3.5999994,6.2339993l3.5999994-6.2339993h7.1999989L17.1999989,10z M17.3709984,5.743001
	l-1.3139992,2.2769995L14.743001,5.7459993h2.6279974V5.743001z M14.9139986,10l-2.4570007,4.256999H7.5429993L5.0860014,10
	l2.4570007-4.256999h4.9139986L14.9139986,10z M10,1.4890003L11.3139992,3.763H8.6860008L10,1.4890003z M2.6259995,5.743001
	h2.6280012L3.9429998,8.0200005L2.6259995,5.743001z M2.6259995,14.256999l1.3140006-2.2769995l1.3140006,2.2740011H2.6259995
	V14.256999z M10,18.5109997l-1.3139992-2.2740002h2.6280012L10,18.5109997z M16.0569992,11.9799995l1.3139992,2.2740011h-2.6280003
	L16.0569992,11.9799995z"/>
<path class="st2" d="M10-18.5c15.5999985,0,28.5,12.9000006,28.5,28.5S25.5999985,38.5,10,38.5S-18.5,25.5999985-18.5,10
	S-5.5999994-18.5,10-18.5 M10-20C-6.5-20-20-6.5-20,10s13.5,30,30,30s30-13.5,30-30S26.5-20,10-20L10-20z"/>
</svg>
