<?xml version="1.0" encoding="utf-8"?>
<svg version="1.1" id="Layer_1" xmlns="http://www.w3.org/2000/svg" xmlns:xlink="http://www.w3.org/1999/xlink" x="0px" y="0px"
	 viewBox="-22 -22 64 64" style="enable-background:new 0 0 20 20;" xml:space="preserve">
<style type="text/css">
	.st0{fill:#FFFFFF;stroke:#B6B6B6;stroke-width:0.15;stroke-miterlimit:10;}
	.st1{fill:#007A3D;}
	.st2{fill:#CE1126;}
	.st3{fill:#FFFFFF;}
	.st4{fill:#CCCCCC;}
</style>
<circle class="st0" cx="10" cy="10" r="28.8000011"/>
<path d="M37.1259995,0.4000006C33.1689987-10.7779999,22.5340004-18.7999992,10-18.7999992
	c-6.4799995,0-12.4349995,2.1659985-17.2469997,5.7749996l26.8469982,13.421999L37.1259995,0.4000006L37.1259995,0.4000006z"/>
<path class="st1" d="M37.1259995,19.5999985h-17.526001L-7.2470016,33.0249977
	C-2.4349999,36.6340027,3.5200005,38.8000031,10,38.8000031C22.5340004,38.8000031,33.1689987,30.7780018,37.1259995,19.5999985z"/>
<path class="st2" d="M38.8000031,10L19.6000023,0.4000006l-26.847002-13.4250002
	C-14.2489996-7.7689996-18.7999992,0.5739994-18.7999992,10s4.5509987,17.769001,11.5529995,23.0249977l26.847002-13.4250011
	L38.8000031,10z"/>
<polygon class="st3" points="-1.0009995,5.8840008 -1.8950005,8.1459999 -4.2199993,7.4350014 -3.0050001,9.5410004 
	-5.0120006,10.9150009 -2.612,11.2810001 -2.7860003,13.7080002 -1.0009995,12.0550013 0.7839999,13.7080002 0.6069999,11.2810001 
	3.0100002,10.9150009 1.0029998,9.5410004 2.2150006,7.4350014 -0.1099997,8.1459999 "/>
<path class="st4" d="M10-18.5c15.5999985,0,28.5,12.9000006,28.5,28.5S25.5999985,38.5,10,38.5S-18.5,25.5999985-18.5,10
	S-5.5999994-18.5,10-18.5 M10-20C-6.5-20-20-6.5-20,10s13.5,30,30,30s30-13.5,30-30S26.5-20,10-20L10-20z"/>
</svg>
