<?xml version="1.0" encoding="utf-8"?>
<svg version="1.1" id="Layer_1" xmlns="http://www.w3.org/2000/svg" xmlns:xlink="http://www.w3.org/1999/xlink" x="0px" y="0px"
	 viewBox="-22 -22 64 64" style="enable-background:new 0 0 20 20;" xml:space="preserve">
<style type="text/css">
	.st0{fill:#E8112D;}
	.st1{fill:#FFEF00;}
	.st2{fill:#CCCCCC;}
</style>
<circle class="st0" cx="10" cy="10" r="28.8000011"/>
<g>
	<ellipse class="st1" cx="10.0660009" cy="9.493001" rx="7.6889992" ry="7.7730012"/>
	<path class="st1" d="M27.1330013,12.7629986c-2.0790005,0.1829996-4.0049992-1.5570002-5.9160004-1.8449993
		c0.0090008-0.0810013,0.0179996-0.1590014,0.0240002-0.2399998c2.0639992-0.2519989,4.7519989,0.9000006,6.1019993-0.618001
		c-2.0160007,0.5040007-4.1760006-0.9000006-6.0990009-0.9000006c-0.0059986-0.0839996-0.0179977-0.1619997-0.0269985-0.243001
		c1.9980011-0.5579996,4.8179989,0.1500006,5.9130001-1.5570002c-1.8929996,0.8070002-4.2180023-0.2130003-6.1110001,0.0600014
		c-0.0209999-0.0870008-0.0539989-0.1650009-0.0779991-0.2519989c1.8899994-0.8430004,4.7490005-0.6030006,5.5559998-2.448
		c-1.7370014,1.0859985-4.1789989,0.4589996-6.0029984,1.0109997c-0.0359993-0.0839996-0.0569992-0.1739988-0.0930004-0.2550001
		c1.7370014-1.1040001,4.5539989-1.3289995,5.0580006-3.2609997c-1.5450058,1.3410015-4.0590019,1.1010003-5.7750053,1.9350014
		c-0.0450001-0.0780001-0.0810013-0.1619997-0.1289997-0.237c1.5450001-1.362,4.2900009-2.0250006,4.4880009-4.0109997
		c-1.3170013,1.5690007-3.8339996,1.7249994-5.394001,2.8140006c-0.0569992-0.0689993-0.1110001-0.1409998-0.1739998-0.2069993
		c1.3110008-1.5869994,3.9239998-2.6729994,3.8040009-4.6649995c-1.0500031,1.7520003-3.4950008,2.3010006-4.8719997,3.6090002
		c-0.066-0.0629997-0.1379986-0.1199999-0.2070007-0.1799998c1.046999-1.7670007,3.4499989-3.2489991,3.0240002-5.1959996
		c-0.7589989,1.8840008-3.066,2.8109994-4.2270002,4.3049998c-0.0810013-0.0479994-0.1679993-0.0869994-0.2490005-0.1350002
		c0.7650003-1.9049993,2.8890009-3.7349997,2.1629992-5.5830002c-0.453001,1.9650006-2.5560007,3.237-3.4799995,4.875
		c-0.0899992-0.0360003-0.1889992-0.0510006-0.2819996-0.0869994c0.4680004-1.9920001,2.2560005-4.1190004,1.256999-5.8259997
		c-0.1409998,2.0189996-2.0340014,3.612-2.6820002,5.3820004c-0.0959988-0.0239997-0.1829996-0.0659995-0.2790012-0.0869994
		c0.1619997-2.0369997,1.5749989-4.4039998,0.3239994-5.9279995c0.1800013,2.0220008-1.4580002,3.8970008-1.8120003,5.7539992
		c-0.0959988-0.0089993-0.1860008-0.0239997-0.2819996-0.0300007c-0.177-2.0429993,0.8730011-4.6229997-0.6090002-5.9400001
		C10.5579939-5.251996,9.2379951-3.145997,9.1749954-1.2529955c-0.0929947,0.0089951-0.1889963,0.0209956-0.2819967,0.029995
		C8.3950005-3.2119994,9.0340014-5.9390006,7.3630009-7.0100002c0.7919998,1.8629994-0.177,4.1430001,0.0539989,6.0180001
		C7.3210011-0.9680004,7.2369986-0.9320002,7.144001-0.9080005C6.3400021-2.795001,6.5440016-5.5820007,4.7290001-6.3770003
		C5.7969999-4.670001,5.2089996-2.276,5.7160015-0.4639997c-0.0899992,0.0360003-0.1710005,0.099-0.2580013,0.138
		c-1.079999-1.7399998-1.3199987-4.5120006-3.2340002-5.013c1.3350005,1.5360003,1.1129994,4.0169992,1.920001,5.7299995
		c-0.0839996,0.0510006-0.1740017,0.0839996-0.2520003,0.138C2.5510006-1.0189996,1.8820004-3.7249994-0.0919995-3.920001
		C1.474-2.6060004,1.6329999-0.0950007,2.7189999,1.467999C2.6500006,1.5279989,2.5750003,1.5789995,2.5089993,1.6419992
		C0.9219999,0.3309999-0.1610003-2.276-2.1530004-2.1590014c1.7579999,1.0530009,2.3070002,3.5280018,3.6329999,4.8990011
		C1.4229994,2.8090005,1.3660007,2.875,1.3120003,2.9439993c-1.7850008-1.0379992-3.2670007-3.474-5.2260003-3.0449996
		c1.9080005,0.7709999,2.8350005,3.1350002,4.3649998,4.2810016c-0.0479994,0.0749989-0.0839996,0.1560001-0.1289992,0.230999
		c-1.9290004-0.7410007-3.7800007-2.9310007-5.6520009-2.1990008c2.0039992,0.4619994,3.2880006,2.6489997,4.9769998,3.5430007
		c-0.0359988,0.0810013-0.0509992,0.1710005-0.0780001,0.2490005C-2.4559999,5.5780001-4.6309996,3.7000003-6.3679996,4.717001
		c2.0579996,0.144001,3.6719999,2.1209993,5.487,2.7270012c-0.0209999,0.086998-0.0480008,0.1649981-0.0660009,0.2519989
		c-2.0640006-0.1080008-4.5-1.6169987-6.0570002-0.3389997c2.0760012-0.1860008,3.9990005,1.5509977,5.9040012,1.8449993
		C-1.105999,9.2830019-1.1209993,9.361002-1.1239991,9.4420004c-2.0640006,0.2459993-4.7429996-0.9000006-6.0900006,0.6149998
		c2.0339999-0.5100002,4.2149992,0.9210005,6.1530004,0.8969994c0.0089993,0.0780001,0.0150003,0.1529989,0.0239997,0.2280006
		c-2.0009995,0.5880003-4.8599997-0.144001-5.961,1.5780001c1.9290004-0.8220005,4.3109994,0.2519989,6.2219996-0.0780001
		c0.0209999,0.0720005,0.0449996,0.144001,0.0659995,0.2159986c-1.8870006,0.9000006-4.8330002,0.6209993-5.6549993,2.4990005
		c1.776-1.1130009,4.2899995-0.4260006,6.1259995-1.0469999c0.0300007,0.0689993,0.0780001,0.1290007,0.1079993,0.198
		c-1.7219996,1.1850014-4.677,1.3709993-5.1959996,3.354001c1.5930004-1.3860016,4.2089996-1.0920029,5.9219999-2.0160007
		c0.039,0.0629997,0.0659995,0.1350002,0.1079993,0.1949978c-1.5120006,1.4430008-4.4099994,2.0880013-4.6110005,4.1340027
		c1.3649998-1.6290016,4.0200005-1.7400017,5.5650001-2.946003c0.0449996,0.0510025,0.0869994,0.1080017,0.1320004,0.1620007
		c-1.2540007,1.6889992-4.0590005,2.777998-3.9360008,4.8449993c1.0980005-1.829998,3.7139997-2.3520012,5.0460005-3.795002
		c0.0510006,0.0419998,0.1049995,0.0870018,0.1560001,0.1290016c-0.9630003,1.875-3.5850005,3.3959999-3.1409998,5.4299984
		c0.7979994-1.9799995,3.3029995-2.9069996,4.3919992-4.5390015c0.0570002,0.0360012,0.1169987,0.0629997,0.177,0.0959988
		c-0.6539998,2.0040016-3.0150003,3.9210014-2.2559996,5.8620014c0.4769998-2.0699978,2.7929993-3.375,3.6209993-5.1479988
		c0.0629997,0.0269985,0.131999,0.0360012,0.1920004,0.0600014c-0.3509989,2.0730038-2.3699985,4.3290024-1.3199987,6.123003
		c0.1469994-2.1269989,2.2440004-3.7799988,2.7719994-5.6729984c0.0689993,0.0179996,0.1290007,0.0450001,0.198,0.0600014
		c-0.0179987,2.1030006-1.6500006,4.6410007-0.3360014,6.2430019c-0.1860008-2.1330032,1.6380014-4.1070023,1.8509989-6.0660019
		c0.0660009,0.0060005,0.1290007,0.0149994,0.1949987,0.0209999c0.3330002,2.0849991-0.9029989,4.8719978,0.6540012,6.2580013
		c-0.5219994-2.0790005,0.9749994-4.3110008,0.881999-6.2819996c0.0629997-0.0060005,0.1290007-0.0149994,0.1920004-0.0209999
		c0.6629992,2.007-0.131999,4.9589996,1.6259995,6.0870018c-0.8339996-1.9620018,0.2790012-4.3860016-0.1049995-6.309
		c0.0660009-0.0150013,0.1259995-0.0419998,0.1920004-0.0600014c0.9539995,1.8809986,0.6419992,4.9019985,2.5500011,5.7359982
		c-1.125-1.7999992-0.4139986-4.355999-1.0770006-6.1919994c0.0660009-0.0269985,0.131999-0.0510006,0.1949987-0.078001
		c1.2120008,1.7130013,1.3859997,4.7130013,3.3869991,5.2320023c-1.3979988-1.6080017-1.0889988-4.2509995-2.0460005-5.9640007
		c0.0600014-0.0359993,0.1259995-0.0629997,0.1829996-0.1020012c1.4729996,1.5,2.1120014,4.4430008,4.170002,4.6469994
		c-1.6290016-1.368-1.7400017-4.0259991-2.9490013-5.5679989c0.0510025-0.0450001,0.1080017-0.0869999,0.1620007-0.1319981
		c1.6919994,1.2509995,2.7810001,4.0620003,4.8509998,3.9389992c-1.8180008-1.0920029-2.3430023-3.6870003-3.7679996-5.0250015
		c0.0450001-0.0510006,0.0899982-0.1080017,0.1350002-0.1650009c1.8570023,0.9749985,3.375,3.5670013,5.394001,3.1259995
		c-1.9529991-0.7859993-2.8769989-3.243-4.4729996-4.355999c0.0389977-0.0629997,0.066-0.131999,0.1079998-0.1920004
		c1.9770012,0.6869993,3.8669987,2.9849997,5.7839985,2.2349997c-2.0339985-0.4680004-3.3269997-2.7180004-5.052-3.5820007
		c0.032999-0.0720005,0.0479984-0.1500006,0.078001-0.2220011c2.0459995,0.3959999,4.2509995,2.3310022,6.0119972,1.2989988
		c-2.0849991-0.144001-3.7139988-2.1689987-5.5589981-2.7509995c0.0209999-0.0780001,0.0539989-0.1500006,0.0720005-0.230999
		C23.0890007,12.4959993,25.5610008,14.0500011,27.1330013,12.7629986z M19.1140003,10.9510012
		c-0.0179996,0.1379986-0.0209999,0.2790012-0.0419998,0.4139986c-0.0539989,0.3330002-0.1350002,0.6569996-0.2250004,0.9780006
		c-0.0149994,0.0539989-0.0329971,0.1080008-0.0479984,0.1590014c-0.1469994,0.4859991-0.3210011,0.9570007-0.5400009,1.4040012
		c-0.0389996,0.0720005-0.0810013,0.144001-0.1169987,0.2159986c-0.5820007,1.1070013-1.3740005,2.0670013-2.3370008,2.8470001
		c-0.1500006,0.1230011-0.2910004,0.2580032-0.4499989,0.3719997c-0.618001,0.441-1.2900009,0.7950001-2.0100002,1.0710011
		c-0.1860008,0.0690002-0.3809996,0.1169987-0.573,0.1800003l0,0c-0.4439993,0.1380005-0.9000006,0.2490005-1.368001,0.3180008l0,0
		l0,0c-0.2459993,0.0359993-0.4919987,0.0600014-0.7469988,0.0749989l0,0
		c-0.1949987,0.0119991-0.3840008,0.0570011-0.5820007,0.0570011c-0.2790012,0-0.5429993-0.0570011-0.8189993-0.0839996
		c-0.2189999-0.0209999-0.4379997-0.0330009-0.651-0.0660019c-0.2550001-0.0419998-0.506999-0.0959988-0.7559996-0.1590004
		c-0.2099991-0.0540009-0.4110003-0.1230011-0.6149998-0.1920013l0,0c-0.243001-0.0810013-0.4980011-0.132-0.7320013-0.2340012l0,0
		c-0.1949987-0.0839996-0.3659992-0.2039986-0.5550013-0.3029976l0,0c-0.651-0.3330002-1.2540007-0.7380028-1.8029995-1.2120018
		C4.099,16.7530022,4.0510006,16.7140007,4.0060024,16.6779995C3.2440004,16,2.6110005,15.1960011,2.1129994,14.2960005
		C2.086,14.2480011,2.0619988,14.2000017,2.0349994,14.1550007c-0.1409998-0.2609997-0.2969999-0.5159998-0.4110003-0.795001l0,0
		C1.5909986,13.2819996,1.5729985,13.198,1.5489988,13.1140003C1.2459993,12.3189993,1.0689993,11.4699993,1,10.5849991
		c-0.0059996-0.0570002-0.0120006-0.1140003-0.0180001-0.1739988c-0.0120006-0.177-0.0510006-0.342001-0.0510006-0.5219994
		c0-0.2519989,0.0540004-0.4919987,0.0750003-0.7440004c0.0059996-0.0419998,0.0120006-0.099,0.0180001-0.1529989
		c0.0419998-0.4290018,0.0960002-0.8550024,0.198-1.2660027c0.0300007-0.1140003,0.0720005-0.2249994,0.1049995-0.3360014l0,0
		c0.1020012-0.3599968,0.1890006-0.7229977,0.3330002-1.0589962c0.0180001-0.0389986,0.039-0.0780001,0.0629997-0.1140003
		c0.1770015-0.4050007,0.3930016-0.7860003,0.6240005-1.1520023c0.0029998-0.0059996,0.006001-0.0119991,0.0090008-0.0179987
		c0.2579999-0.4050007,0.552-0.7740011,0.8639989-1.1339993c0.0570002-0.0659995,0.1079993-0.1350002,0.1649995-0.198
		c0.6060004-0.651,1.3019986-1.2000003,2.066999-1.6560001c0.0209999-0.0120006,0.0389986-0.0239997,0.0600014-0.0360003
		C5.907999,1.7919998,6.3159981,1.5759997,6.7479982,1.4080005c0.0660009-0.0269995,0.1409998-0.039,0.2099991-0.0629997
		c0.8280001-0.3029995,1.7070007-0.4829993,2.6280012-0.5339999c0.032999-0.0029998,0.0660009-0.0089993,0.099-0.0120006
		c0.131999-0.0059996,0.2550001-0.039,0.3929987-0.039c0.8310013,0,1.6199999,0.1469994,2.3909998,0.3569999
		C12.5409975,1.138,12.6069956,1.1589999,12.6789961,1.1829996c1.3470011,0.4019995,2.5620003,1.0889997,3.572999,2.0189996
		c0.0090027,0.0089993,0.0179996,0.0150003,0.0270004,0.0209999c0.3959999,0.3660007,0.75,0.7680001,1.0739994,1.2000003
		c0.0090008,0.0119991,0.0209999,0.0240011,0.0300007,0.0360003c0.2879982,0.3869991,0.5369987,0.7979994,0.7619991,1.2270012
		C18.147995,5.6920004,18.1509933,5.698,18.1539955,5.7039995c0.1800003,0.342001,0.342001,0.6870003,0.4770012,1.0529995
		c0,0,0,0,0,0.0030012c0.1739998,0.4680004,0.3239994,0.948,0.420002,1.4520006
		c0.0089989,0.0839996,0.0119972,0.1679993,0.0269985,0.2490005l0,0c0.0570011,0.3570013,0.0959988,0.7199993,0.1079998,1.0889997
		c0.0060005,0.1109991,0.0360012,0.2220011,0.0360012,0.3330002l0,0c0,0.0090008,0.0030003,0.0179987,0.0030003,0.0269995
		C19.2220001,10.2609997,19.1560001,10.6030006,19.1140003,10.9510012z"/>
</g>
<path class="st2" d="M10-18.5c15.5999985,0,28.5,12.9000006,28.5,28.5S25.5999985,38.5,10,38.5S-18.5,25.5999985-18.5,10
	S-5.5999994-18.5,10-18.5 M10-20C-6.5-20-20-6.5-20,10s13.5,30,30,30s30-13.5,30-30S26.5-20,10-20L10-20z"/>
</svg>
