<?xml version="1.0" encoding="utf-8"?>
<svg version="1.1" id="Layer_1" xmlns="http://www.w3.org/2000/svg" xmlns:xlink="http://www.w3.org/1999/xlink" x="0px" y="0px"
	 viewBox="-22 -22 64 64" style="enable-background:new 0 0 20 20;" xml:space="preserve">
<style type="text/css">
	.st0{fill:#CC0000;}
	.st1{fill:#000099;}
	.st2{fill:#FFFFFF;}
	.st3{fill:#CCCCCC;}
</style>
<circle class="st0" cx="10" cy="10" r="28.8000011"/>
<path class="st1" d="M34.9150009,24.4000015H-14.915C-9.9320002,33.0009995-0.6529989,38.8000031,10,38.8000031
	S29.9319973,33.0009995,34.9150009,24.4000015z"/>
<path class="st1" d="M10-18.7999992c-10.6529999,0-19.9319992,5.7989988-24.9150009,14.3999996h49.8300018
	C29.9319973-13.0010004,20.6529999-18.7999992,10-18.7999992z"/>
<rect x="-8.2399998" y="11.3199987" class="st2" width="0.2789998" height="4.4820013"/>
<polygon class="st2" points="-0.6320004,15.7989988 -0.1279998,15.7989988 -0.1279998,12.6610003 0.7180004,12.6610003 
	0.7180004,15.7989988 1.1799998,15.7989988 1.1799998,12.6610003 2.026,12.6610003 2.026,15.7989988 2.3380003,15.7989988 
	2.3380003,12.6610003 3.1870003,12.6610003 3.1870003,15.7989988 3.4990005,15.7989988 3.4990005,12.6610003 4.3480005,12.6610003 
	4.3480005,15.7989988 4.8070002,15.7989988 4.8070002,12.6610003 5.6529989,12.6610003 5.6529989,15.7989988 6.0760012,15.7989988 
	6.0760012,11.3199987 -0.6320004,11.3199987 "/>
<rect x="27.8590012" y="11.3199987" class="st2" width="0.3839979" height="4.4820013"/>
<polygon class="st2" points="14.3649998,12.6610003 15.2110014,12.6610003 15.2110014,15.7989988 15.670001,15.7989988 
	15.670001,12.6610003 16.5159988,12.6610003 16.5159988,15.7989988 16.8310013,15.7989988 16.8310013,12.6610003 
	17.6739998,12.6610003 17.6739998,15.7989988 17.9919987,15.7989988 17.9919987,12.6610003 18.8349991,12.6610003 
	18.8349991,15.7989988 19.3000011,15.7989988 19.3000011,12.6610003 20.1399994,12.6610003 20.1399994,15.7989988 
	20.4729996,15.7989988 20.4729996,11.3199987 13.8520012,11.3199987 13.8520012,15.7989988 14.3649998,15.7989988 "/>
<polygon class="st2" points="28.3449993,16.848999 28.6809978,16.848999 28.2939987,15.9339991 27.8740005,15.9339991 "/>
<polygon class="st2" points="-7.9520006,15.9339991 -7.9639997,15.9339991 -8.2909994,15.9339991 -8.6809998,16.848999 
	-8.4230003,16.848999 "/>
<polygon class="st2" points="-0.0889997,16.848999 5.6230011,16.848999 6.118001,15.9370003 6.0760012,15.9370003 
	6.0760012,15.9339991 -0.5599999,15.9339991 "/>
<polygon class="st2" points="20.4850006,15.9339991 13.8790007,15.9339991 14.3769989,16.848999 20.0139999,16.848999 "/>
<polygon class="st2" points="22.5849991,15.9339991 20.6290016,15.9339991 20.1609993,16.848999 22.3479996,16.848999 "/>
<polygon class="st2" points="27.7270012,15.9339991 26.3620014,15.9339991 26.598999,16.848999 28.198,16.848999 "/>
<polygon class="st2" points="26.2360001,15.9310007 25.7199993,15.9310007 25.8759995,16.848999 26.4699993,16.848999 "/>
<polygon class="st2" points="23.2299995,15.9310007 22.7140007,15.9310007 22.4770012,16.848999 23.0769997,16.848999 "/>
<polygon class="st2" points="25.5400009,15.9370003 25.5400009,16.848999 25.7380009,16.848999 25.5880013,15.9370003 "/>
<polygon class="st2" points="23.2120018,16.848999 23.302,16.848999 23.302,16.8430004 23.3499985,16.8430004 23.3499985,16.032999 
	"/>
<polygon class="st2" points="11.9560013,15.9370003 12.204999,16.848999 14.2270012,16.848999 13.7320013,15.9370003 "/>
<polygon class="st2" points="7.7440004,16.848999 7.9959993,15.9370003 6.2679987,15.9370003 5.7729988,16.848999 "/>
<rect x="27.8590012" y="10.0150003" class="st2" width="0.5880003" height="1.1639986"/>
<rect x="-8.4469995" y="10.0150003" class="st2" width="0.483" height="1.1639986"/>
<rect x="13.8520012" y="10.0150003" class="st2" width="6.618001" height="1.1639986"/>
<rect x="-0.6320004" y="10.0150003" class="st2" width="6.7079988" height="1.1639986"/>
<polygon class="st2" points="20.6020012,15.7929993 22.4890003,15.7929993 22.4890003,12.6760006 23.3079987,12.6760006 
	23.3079987,15.7929993 23.3499985,15.7929993 23.3499985,10.0749989 20.9410019,10.0689993 20.9410019,10.0240011 
	20.6020012,10.0240011 "/>
<polygon class="st2" points="25.5400009,15.7929993 25.6779995,15.7929993 25.6779995,12.6760006 26.5,12.6760006 26.5,15.7929993 
	27.7299995,15.7929993 27.7299995,10.0240011 27.4959984,10.0240011 27.493,10.0839996 27.4329987,10.0839996 
	25.5400009,10.0810013 "/>
<rect x="25.7770004" y="12.769001" class="st2" width="0.6300001" height="3.0390015"/>
<rect x="22.5820007" y="12.769001" class="st2" width="0.6300001" height="3.0390015"/>
<polygon class="st2" points="11.2659998,15.9370003 11.4219999,16.848999 12.0670004,16.848999 11.8239994,15.9370003 "/>
<polygon class="st2" points="8.5780001,16.848999 8.7340002,15.9370003 8.1280012,15.9370003 7.8790007,16.848999 "/>
<polygon class="st2" points="11.1340008,15.9370003 10.9630003,15.9370003 10.9630003,16.848999 11.2900009,16.848999 "/>
<polygon class="st2" points="8.7099991,16.848999 9.1689987,16.848999 9.1689987,15.9370003 8.8659992,15.9370003 "/>
<polygon class="st2" points="11.9050007,15.7989988 12.1719999,15.7989988 12.1719999,12.6610003 13.0179987,12.6610003 
	13.0179987,15.7989988 13.717001,15.7989988 13.717001,10.0150003 11.9050007,10.0150003 "/>
<polygon class="st2" points="6.2080002,15.7989988 7.1199999,15.7989988 7.1199999,12.6610003 7.9659986,12.6610003 
	7.9659986,15.7989988 8.0949993,15.7989988 8.0949993,10.0150003 6.2080002,10.0150003 "/>
<rect x="12.2919998" y="12.7810001" class="st2" width="0.6090002" height="3.0119991"/>
<rect x="7.2399998" y="12.7810001" class="st2" width="0.605999" height="3.0150003"/>
<polygon class="st2" points="11.7099991,15.8170004 11.8000011,15.8170004 11.8000011,10.0150003 11.4580002,10.0150003 
	10.9630003,10.6870003 10.9630003,12.6610003 11.7099991,12.6610003 "/>
<polygon class="st2" points="8.1999989,10.0150003 8.1999989,15.8170004 8.4279995,15.8170004 8.4279995,12.6610003 
	9.1689987,12.6610003 9.1689987,10.9389992 8.5300007,10.0150003 "/>
<rect x="10.9840002" y="12.7810001" class="st2" width="0.605999" height="3.0150003"/>
<rect x="8.5479994" y="12.7810001" class="st2" width="0.605999" height="3.0119991"/>
<polygon class="st2" points="9.1689987,10.7020006 9.1689987,10.0150003 8.6949987,10.0150003 "/>
<polygon class="st2" points="10.9630003,10.0150003 10.9630003,10.4649992 11.2900009,10.0150003 "/>
<rect x="23.4850006" y="10.0749989" class="st2" width="0.2070007" height="6.7650003"/>
<rect x="25.1949997" y="10.0810013" class="st2" width="0.2099991" height="6.7619991"/>
<rect x="23.8269997" y="10.0810013" class="st2" width="1.2359991" height="6.7619991"/>
<polygon class="st2" points="-6.2030001,15.9339991 -7.8049998,15.9339991 -8.276,16.848999 -6.4249997,16.848999 "/>
<polygon class="st2" points="-0.7069993,15.9339991 -2.6630006,15.9339991 -2.4409995,16.848999 -0.2360005,16.848999 "/>
<polygon class="st2" points="-2.7949996,15.9339991 -3.2899995,15.9339991 -3.1459999,16.848999 -2.573,16.848999 "/>
<polygon class="st2" points="-5.5910001,15.9339991 -6.0709996,15.9339991 -6.2899995,16.848999 -5.7349997,16.848999 "/>
<polygon class="st2" points="-3.302,16.848999 -3.2810001,16.848999 -3.302,16.6989994 "/>
<polygon class="st2" points="-5.6030006,16.848999 -5.4979997,16.848999 -5.4979997,16.1500015 "/>
<polygon class="st2" points="-7.8319993,15.802 -6.539,15.802 -6.539,12.6760006 -5.7230005,12.6760006 -5.7230005,15.802 
	-5.573,15.802 -5.4979997,15.802 -5.4979997,10.0749989 -7.5709996,10.0689993 -7.5709996,10.0150003 -7.8319993,10.0150003 "/>
<polygon class="st2" points="-3.302,15.802 -3.2030001,15.802 -3.2030001,12.6760006 -2.3839993,12.6760006 -2.3839993,15.802 
	-0.7639995,15.802 -0.7639995,10.0150003 -1.0159998,10.0150003 -1.0189996,10.0839996 -1.0819993,10.0839996 -3.302,10.0810013 "/>
<rect x="-6.4489994" y="12.769001" class="st2" width="0.6329999" height="3.0390015"/>
<rect x="-3.1099997" y="12.769001" class="st2" width="0.6329999" height="3.0390015"/>
<rect x="-5.3599997" y="10.0749989" class="st2" width="0.2039995" height="6.7680016"/>
<rect x="-3.6469994" y="10.0810013" class="st2" width="0.2069993" height="6.7619991"/>
<rect x="-5.0150003" y="10.0780001" class="st2" width="1.2330008" height="6.7650003"/>
<path class="st2" d="M14.1999989,9.8769989h6.7409992l0.0060005-1.256999h-5.802001l-0.0090008,0.6269989h-0.2070007
	C14.8360014,9.5949993,14.5720005,9.8709993,14.1999989,9.8769989z"/>
<polygon class="st2" points="28.8549995,9.8769989 28.8549995,8.6199999 27.5379982,8.6199999 27.4990005,9.8769989 "/>
<rect x="-8.8550005" y="8.6199999" class="st2" width="1.293" height="1.256999"/>
<path class="st2" d="M5.0679998,9.2469988H4.8640003V9.1929998l-0.0090008-0.573H-0.974l-0.0360003,1.256999h6.8129997
	C5.4279995,9.8709993,5.1610003,9.5949993,5.0679998,9.2469988z"/>
<rect x="10.9630003" y="16.9720001" class="st2" width="12.3419981" height="0.2580013"/>
<rect x="-3.3049998" y="16.9720001" class="st2" width="12.473999" height="0.2580013"/>
<rect x="25.4980011" y="16.9720001" class="st2" width="4.2660027" height="0.2580013"/>
<rect x="-9.9139996" y="16.9720001" class="st2" width="4.4219999" height="0.2580013"/>
<rect x="10.9630003" y="17.3620014" class="st2" width="12.3419981" height="0.8969994"/>
<rect x="-3.3049998" y="17.3620014" class="st2" width="12.473999" height="0.8969994"/>
<rect x="-10.5199995" y="17.3620014" class="st2" width="5.0249996" height="0.8969994"/>
<rect x="25.4980011" y="17.3620014" class="st2" width="4.8689976" height="0.8969994"/>
<rect x="10.9630003" y="18.3850002" class="st2" width="12.3419981" height="1.1459999"/>
<rect x="-3.3049998" y="18.3850002" class="st2" width="12.473999" height="1.1459999"/>
<rect x="25.4980011" y="18.3850002" class="st2" width="6.0839996" height="1.1459999"/>
<rect x="-11.5819998" y="18.3850002" class="st2" width="6.0869999" height="1.1459999"/>
<rect x="10.9630003" y="19.6660004" class="st2" width="12.3419981" height="1.6529989"/>
<rect x="25.4980011" y="19.6660004" class="st2" width="7.6020012" height="1.6529989"/>
<rect x="-3.3049998" y="19.6660004" class="st2" width="12.473999" height="1.6529989"/>
<rect x="-13.1000004" y="19.6660004" class="st2" width="7.6019993" height="1.6529989"/>
<rect x="25.4980011" y="21.4780006" class="st2" width="9.1020012" height="1.6169987"/>
<rect x="-14.5939999" y="21.4780006" class="st2" width="9.1019993" height="1.6169987"/>
<rect x="-3.3049998" y="21.4780006" class="st2" width="12.473999" height="1.6169987"/>
<rect x="10.9630003" y="21.4780006" class="st2" width="12.3419981" height="1.6169987"/>
<rect x="-3.6589999" y="16.9780006" class="st2" width="0.2189999" height="6.1350002"/>
<rect x="-5.3599997" y="16.9780006" class="st2" width="0.2189999" height="6.1350002"/>
<rect x="-5.0300007" y="16.9659996" class="st2" width="1.2600002" height="6.1560001"/>
<rect x="25.144001" y="16.9780006" class="st2" width="0.2189999" height="6.1350002"/>
<rect x="23.4370003" y="16.9780006" class="st2" width="0.2189999" height="6.1350002"/>
<rect x="23.7700005" y="16.9659996" class="st2" width="1.2600002" height="6.1560001"/>
<polygon class="st2" points="9.9219999,10.0150003 9.3100014,10.0150003 9.3100014,23.1100006 10.8249989,23.1100006 
	10.8249989,10.0150003 9.9849997,10.0150003 9.9520006,10.0600014 "/>
<path class="st2" d="M25.9659996,7.6750011l-0.3540001,0.519001h-0.1170006
	c0.1500015,0.3809996,0.2130013,0.6960011,0.2159996,0.7230005l-0.0089989,0.2729959
	c0.1049995-0.0600014,0.2340012-0.131999,0.3719997-0.131999c0.0899982,0,0.1679993,0.0269995,0.2280006,0.0780001
	l0.0600014,0.0510006l-0.0570011,0.0600014l-0.6269989,0.6899986v0.0119991l1.6920013,0.0030012l0.098999-3.2159986
	l-1.0890007,0.9389992H25.9659996z"/>
<path class="st2" d="M23.1219978,9.9399986l-0.6839981-0.75l0.0600014-0.0510006
	c0.0600014-0.0510006,0.1379986-0.0780001,0.2280006-0.0780001c0.1350002,0,0.2639999,0.0720005,0.3689995,0.131999
	l-0.0089989-0.2580013c0.0059986-0.0360003,0.0689983-0.3540001,0.218998-0.7380009h-0.1169968l-0.0240021-0.0360003
	l-0.329998-0.4830008h-0.4589996l-1.2450027-1.0769949l0.0240002-0.0150003
	c-0.0179996-0.0119991-0.0479984-0.0300007-0.0629997-0.0389986l-0.0210018,3.3990011l2.0519981,0.0059996V9.9399986z"/>
<path class="st2" d="M23.1040001,4.8699999C22.9570007,5.0500011,22.8850002,5.1970005,22.882,5.1999989l-0.0300026,0.0810013
	l-0.0719967-0.0419998c-0.0030003-0.0030012-0.3149986-0.1800013-0.5760021-0.1800013
	c-0.0329971,0-0.0600014,0.0030012-0.0869999,0.0059996l0.7679996,0.618001h0.2999992
	c0.0300026-0.0209999,0.0540009-0.0419998,0.0839996-0.0629997c0.0600014-0.144001,0.1500015-0.3089991,0.2610016-0.474h-0.3990021
	L23.1040001,4.8699999z"/>
<path class="st2" d="M25.8759995,5.6860008l0.7709999-0.6149998c-0.0300007-0.0059996-0.0569992-0.0090008-0.0900002-0.0090008
	c-0.2609978,0-0.572998,0.1800013-0.5760002,0.1800013l-0.0749989,0.0419998l-0.0300007-0.0810013
	c0-0.0030012-0.0690002-0.1290007-0.1829987-0.2819996l-0.0209999,0.2280006h-0.3990021
	c0.1259995,0.1860008,0.2159996,0.3630009,0.276001,0.519001c0.0089989,0.0059996,0.0179977,0.0119991,0.0269985,0.0209999
	C25.5760002,5.6860008,25.8759995,5.6860008,25.8759995,5.6860008z"/>
<path class="st2" d="M23.1550007,5.9379997c0.0030003-0.0150003,0.0150013-0.0389986,0.0209999-0.0570002
	c-0.0179996,0.0150003-0.032999,0.0269995-0.0450001,0.0389986C23.1399994,5.9289989,23.1490021,5.9320002,23.1550007,5.9379997z"/>
<polygon class="st2" points="25.6450005,5.9379997 25.6450005,5.9379997 25.6419983,5.9350014 "/>
<path class="st2" d="M22.4919987,7.0689993C22.552,7,22.6359997,6.9609985,22.7290001,6.9609985
	c0.1619987,0,0.3239994,0.1109991,0.4289989,0.198c0.0119991-0.045001,0.0419998-0.1199999,0.0629997-0.1829996h-0.0360012
	l-0.0239983-0.0360003l-0.4319992-0.6330013c-0.2159996,0.276-0.3149986,0.5009995-0.3180008,0.506999l-0.0299988,0.0870008
	l-0.0750008-0.0509977c-0.0030003-0.0030012-0.4139977-0.2519989-0.7589989-0.2519989
	c-0.0600014,0-0.1170006,0.0090008-0.1710014,0.0269995l1.0500011,0.9060001h0.3060017l-0.2850018-0.4169998L22.4919987,7.0689993z"
	/>
<path class="st2" d="M25.6450005,7.1590014c0.1049995-0.0870008,0.2700005-0.198,0.4289989-0.198
	c0.0930004,0,0.177,0.0360003,0.2370014,0.1080008l0.0389977,0.045001L26.0649986,7.531003h0.2609997l1.0500011-0.9060001
	c-0.0510006-0.0179987-0.1080017-0.0269995-0.1710014-0.0269995c-0.3449974,0-0.7559986,0.2519989-0.7589989,0.2519989
	l-0.078001,0.0479994l-0.0300007-0.0870008c-0.0030022-0.0030012-0.1020012-0.2159986-0.2970009-0.474l-0.4319992,0.6330013
	H25.572998C25.5999985,7.0389986,25.6300011,7.1140003,25.6450005,7.1590014z"/>
<path class="st2" d="M24.4119987,0.3549995c-0.0059986,0.006001-0.0089989,0.0150003-0.0119972,0.0240011
	c-0.1830006,0.3809996-0.7469997,1.539-0.4620018,1.9890003h0.0030022c0.1289997-0.0419998,0.2700005-0.0869994,0.4439983-0.1170001
	h0.0150013l0.0149994,0.0029998c0.1379986,0.0269995,0.2490005,0.0599999,0.3570023,0.0960002
	c0.0269985-0.0300007,0.0929985-0.0209999,0.1079998-0.0599999C25.1110001,1.7800007,24.6100006,0.7059999,24.4119987,0.3549995z"/>
<path class="st2" d="M25.9990005,2.9169998c-0.1800003,0.0180001-0.3659992,0.0900006-0.3689995,0.0900006l-0.0629997,0.0269995
	L25.5340004,2.974c-0.0030003-0.0029998-0.2339993-0.3959999-1.1339989-0.5700002
	C23.5,2.5780001,23.269001,2.9649992,23.2659988,2.9710002l-0.0329971,0.0599999L23.170002,3.0070004
	c-0.0030022,0-0.1830006-0.0720005-0.3690014-0.0900006l0.4470005,0.2459993h0.4860001
	c0.0329971-0.0960002,0.1619987-0.4349999,0.6359978-0.6060004l0.0300026-0.0089993L24.427,2.5569987
	c0.4770012,0.1710005,0.605999,0.513,0.6359997,0.6060004h0.4860001L25.9990005,2.9169998z"/>
<path class="st2" d="M24.9399986,3.2529998c-0.0209999-0.0659995-0.1409988-0.3839993-0.5400009-0.5399995
	c-0.3959999,0.1560001-0.519001,0.4710002-0.5400009,0.5399995l0.0030022,0.1079993
	c0.1499996-0.0720005,0.3089981-0.1409998,0.5159988-0.1890006l0.0210037-0.0119991l0.0179977,0.0029998
	c0.2099991,0.0479994,0.3659992,0.1199999,0.5159988,0.1890006L24.9399986,3.2529998z"/>
<path class="st2" d="M25.5550003,4.0660009c-0.0419998-0.0869994-0.3149986-0.5399995-1.1549988-0.7470002
	C23.5600014,3.526,23.2869987,3.9790001,23.2449989,4.0660009l0.0270004,0.3149986h0.0060005
	c0.1739979-0.198,0.4889984-0.4619994,1.1099987-0.6090002h0.0120029l0.0179977,0.0029998
	c0.618,0.1500006,0.9360008,0.4109988,1.1100006,0.6089988h0.0059986L25.5550003,4.0660009z"/>
<path class="st2" d="M25.5550003,4.6779995c-0.0419998-0.0899992-0.3149986-0.5400009-1.1549988-0.7470002
	c-0.8400002,0.2069993-1.1130028,0.6599994-1.1550026,0.7470002l0.0270004,0.3149986h0.3869991
	c0.1800022-0.2280006,0.3959999-0.4470005,0.7110004-0.5999994l0.0300026-0.0209999l0.0359993,0.0179987
	c0.3120003,0.1529989,0.5310001,0.375,0.7110023,0.5999994h0.3869972L25.5550003,4.6779995z"/>
<path class="st2" d="M24.3640003,5.6109991l0.0360012-0.0179987l0.0359993,0.0179987
	c0.5999985,0.2939987,0.9210014,0.8249989,1.0890007,1.2089996h0.0059986l0.6180019-0.9029989
	C26.125,5.9050007,26.1040001,5.8990011,26.0769997,5.8990011c-0.152998,0-0.3509979,0.177-0.4169998,0.243001L25.552,6.2500029
	l-0.0300007-0.1500034c0-0.0119991-0.2249985-1.0860014-1.1219978-1.5510006
	c-0.9000015,0.4680004-1.1219997,1.5419998-1.125,1.5510006l-0.0270004,0.1469994L23.1430016,6.138998
	c-0.0629997-0.0660009-0.2639999-0.243001-0.4169998-0.243001c-0.0300007,0-0.0510006,0.0059996-0.0720005,0.0179987
	l0.6180019,0.9029989h0.0059986C23.4430008,6.4360008,23.7669983,5.9050007,24.3640003,5.6109991z"/>
<path class="st2" d="M24.3610001,6.8320007l0.0390015-0.0240011l0.0389977,0.0240011
	c0.4949989,0.2969999,0.8010006,0.7800007,0.9899998,1.2060013h0.0990009l0.618-0.9029989
	c-0.0240021-0.0119991-0.045002-0.0179987-0.0720005-0.0179987c-0.152998,0-0.3509998,0.177-0.4169998,0.243001
	l-0.1079998,0.1080008l-0.0300026-0.1469994c0-0.0119991-0.2249985-1.0859985-1.1219978-1.5510006
	c-0.9000015,0.4680004-1.1219978,1.5419998-1.125,1.5510006l-0.0270004,0.1469994l-0.1049995-0.1080008
	c-0.0629997-0.0660009-0.2639999-0.243001-0.4169998-0.243001c-0.0299988,0-0.0509987,0.0059996-0.0719986,0.0179987
	l0.618,0.9029989H23.368C23.5629997,7.6090002,23.8659992,7.1290007,24.3610001,6.8320007z"/>
<path class="st2" d="M24.4000015,6.9909992c-0.9239998,0.5909986-1.1550026,1.9379997-1.1580009,1.9530001l0.0030022,0.0899992
	c0.1500015-0.2969999,0.4680004-0.7469988,1.125-0.9899998l0.0300007-0.0090008l0.0300007,0.0090008
	c0.6540012,0.243001,0.9720001,0.6870003,1.1219978,0.980999l0.0030022-0.1020012
	C25.5550003,8.9260006,25.3239994,7.5789995,24.4000015,6.9909992z"/>
<path class="st2" d="M23.2629986,9.868001h0.0119991h2.25h0.0119991l0.5879993-0.6479988
	c-0.0149994-0.0030012-0.0329971-0.0059996-0.0509987-0.0059996c-0.1860008,0-0.420002,0.1800013-0.4230003,0.1800013
	l-0.0930004,0.0720005l-0.032999-0.1140003c0-0.0090008-0.2249985-0.8100014-1.125-1.1550007
	c-0.9000015,0.3480005-1.125,1.1459999-1.125,1.1550007l-0.032999,0.1140003l-0.0930004-0.0720005
	c-0.0030022,0-0.2370014-0.1800013-0.4230003-0.1800013c-0.0209999,0-0.0359993,0.0030012-0.0509987,0.0059996L23.2629986,9.868001z
	"/>
<path class="st2" d="M-2.8850002,5.4279995l0.7680001-0.618001c-0.0239997-0.0089979-0.0540004-0.0119991-0.0869994-0.0119991
	c-0.2609997,0-0.5759997,0.1800013-0.5789995,0.1800013l-0.0690007,0.0419998l-0.0300007-0.0810013
	c0-0.0030012-0.0750003-0.1560001-0.2280006-0.3389997C-3.1070013,4.605999-3.092001,4.6300001-3.092001,4.6329985
	l0.0059996,0.0179987l-0.0419984,0.4950027h-0.4020009C-3.5150003,5.1669998-3.5,5.1879997-3.4849997,5.2120008
	c0.1199999,0.0689993,0.198,0.144001,0.2969999,0.2159986H-2.8850002z"/>
<path class="st2" d="M-5.711,4.6870003c-0.099,0.1379986-0.1619997,0.2519989-0.1649995,0.2550001l-0.0300007,0.0810013
	L-5.9780006,4.980999c-0.0029998-0.0030012-0.3179998-0.1800013-0.5789995-0.1800013
	c-0.0330005,0-0.0599999,0.0030012-0.0869994,0.0090008l0.7680001,0.618001H-5.573
	c0.0809999-0.0600014,0.1409998-0.1199999,0.237-0.1800013c0.0209999-0.0359974,0.0419998-0.0659981,0.0659995-0.1019983h-0.4019995
	L-5.711,4.6870003z"/>
<path class="st2" d="M-1.5469999,6.3370008c-0.3449993,0-0.7559996,0.2519989-0.7620006,0.2550001l-0.0780001,0.0479994
	l-0.0300007-0.0870008c0-0.0030012-0.0839996-0.1710005-0.2249994-0.3780012l-0.5489988,0.8010006h-0.0300007
	c0.0180001,0.045001,0.039,0.099,0.0510006,0.1350002C-3.1339993,7.1079979-3.1040001,7.1019983-3.0650001,7.099
	c0.0960002-0.0689993,0.2130003-0.1379986,0.3419995-0.1379986C-2.657001,6.9610014-2.6060004,7-2.552,7.0390015
	c0.1859994-0.0300007,0.3569999-0.0600014,0.5009995-0.0930004l0.6749997-0.5849991
	C-1.427,6.3459988-1.4840002,6.3370008-1.5469999,6.3370008z"/>
<path class="st2" d="M-5.6090002,6.9759989l-0.0269995-0.0360003L-6.1400003,6.204999
	c-0.1259995,0.1920004-0.2009997,0.3450022-0.2039995,0.3480005l-0.0300007,0.0870008L-6.4489994,6.592001
	C-6.4520006,6.5889997-6.8660007,6.3370008-7.211,6.3370008c-0.0599999,0-0.1170001,0.0090008-0.1680007,0.0269995L-7.112,6.5949993
	c0.2550001,0.1409998,0.7260003,0.3120003,1.5120006,0.4410009c0.0059996-0.0209999,0.0150003-0.0389986,0.0209999-0.0600014
	H-5.6090002z"/>
<path class="st2" d="M-5.8159995,5.8239994c0.0629997,0.0360003,0.1229997,0.0780001,0.1679993,0.1140003
	c0.0300007-0.0930004,0.0809999-0.2340002,0.1530004-0.3929987C-5.6149998,5.644001-5.7260003,5.730999-5.8159995,5.8239994z"/>
<path class="st2" d="M-3.3410001,5.4849997c0.0900006,0.1800013,0.1560001,0.3480005,0.1859994,0.4560013
	c0.0540004-0.045001,0.1200013-0.0930004,0.1950002-0.1320019C-3.0679998,5.7010012-3.1849999,5.5899992-3.3410001,5.4849997z"/>
<path class="st2" d="M-6.3649998,9.1899986l0.0599999-0.0510006c0.0599999-0.0510006,0.138-0.0780001,0.2280006-0.0780001
	c0.138,0,0.2700005,0.0749989,0.375,0.131999L-5.711,8.9350014c0.0059996-0.0360003,0.0689993-0.3540001,0.2189999-0.7380009
	h-0.1170001l-0.0269995-0.0360003l-0.7139997-1.0469999l0.039-0.045001
	c0.0209999-0.0209999,0.0539989-0.0179987,0.0749989-0.0360003c-0.6690001-0.1679993-1.0380006-0.3599997-1.1879997-0.4890003
	l-0.0180001,3.3990011l1.7639995,0.0030012V9.9429998L-6.3649998,9.1899986z"/>
<path class="st2" d="M-3.1909995,8.1939993h-0.1140003C-3.1549993,8.5749989-3.0919995,8.8900003-3.086,8.9169998l-0.0120006,0.276
	c0.1019998-0.0600014,0.2340002-0.131999,0.375-0.131999c0.0900006,0,0.1649995,0.0269995,0.2280006,0.0780001l0.0599999,0.0510006
	l-0.6870003,0.7529984v0.0090008l1.9769998,0.0030012l0.1049995-3.3509989C-1.2230005,6.823-1.6459999,7.0150003-2.474,7.1500006
	L-3.1909995,8.1939993z"/>
<path class="st2" d="M-4.3909998,0.3549995c-0.0029998,0.006001-0.0090008,0.0150003-0.0090008,0.0240011
	C-4.5830002,0.7570004-5.1469994,1.9149995-4.862,2.3679996h0.0029998c0.1290007-0.0419998,0.2700005-0.0869994,0.4439993-0.1170001
	h0.0150003l0.0150003,0.0029998c0.138,0.0239997,0.2459993,0.0599999,0.3569999,0.0960002
	c0.0269995-0.0300007,0.0930004-0.0209999,0.1079993-0.0599999C-3.6890006,1.7800007-4.1900001,0.7059999-4.3909998,0.3549995z"/>
<path class="st2" d="M-2.8010006,2.9169998C-2.9810004,2.9349999-3.1670012,3.0070004-3.170001,3.0070004l-0.0629983,0.0269995
	L-3.2659998,2.974c0-0.0029998-0.2280006-0.3959999-1.1339993-0.5670004C-5.3029995,2.5780001-5.5310001,2.9710002-5.5339999,2.974
	l-0.0330005,0.0599999l-0.0629997-0.0269995c-0.0029998,0-0.1829996-0.0720005-0.3660007-0.0900006l0.4470005,0.2459993h0.4860005
	C-5.0300007,3.0670004-4.901,2.7280006-4.427,2.5570002l0.0269995-0.0090008l0.0269995,0.0089993
	C-3.8989997,2.7280006-3.7700005,3.0700002-3.737,3.1630006h0.4860005L-2.8010006,2.9169998z"/>
<path class="st2" d="M-3.8599997,3.2529998c-0.0209999-0.0659995-0.144001-0.3869991-0.5400009-0.5399995
	c-0.3959999,0.1530004-0.5189996,0.4769998-0.5399995,0.5399995l0.0059996,0.1079993
	c0.1500006-0.0720005,0.3059993-0.1409998,0.5159998-0.1890006l0.0180001-0.0119991l0.0180001,0.0029998
	c0.2100005,0.0479994,0.3660007,0.1199999,0.5159998,0.1890006L-3.8599997,3.2529998z"/>
<path class="st2" d="M-4.4180007,3.7719994h0.0180001l0.0180001,0.0029998c0.6179996,0.1500006,0.9359994,0.4109988,1.1099997,0.612
	h0.0029998l0.0269995-0.3179998c-0.047998-0.0869994-0.3179984-0.5399995-1.157999-0.7469988
	c-0.8400006,0.2069993-1.1099997,0.6599994-1.1550007,0.7469988l0.0269995,0.3179998h0.0029998
	C-5.3540001,4.1860008-5.0360003,3.9219999-4.4180007,3.7719994z"/>
<path class="st2" d="M-3.2449999,4.6779995c-0.0449996-0.0899992-0.3150001-0.5429993-1.1550007-0.7469988
	c-0.8399992,0.2039995-1.1099997,0.6569996-1.1549993,0.7469988l0.0269995,0.3149986h0.3839993
	c0.1799998-0.2280006,0.3989997-0.4470005,0.711-0.6030006L-4.4000006,4.375l0.0360003,0.0150003
	c0.3120003,0.1529989,0.5339999,0.375,0.711,0.6030006h0.3839993L-3.2449999,4.6779995z"/>
<path class="st2" d="M-4.4359994,5.6109991l0.0359988-0.0179987l0.0360003,0.0179987
	c0.5999994,0.2939987,0.9210005,0.8249989,1.0889997,1.2089996h0.0059996l0.6179996-0.9029989
	c-0.0209985-0.0119991-0.047998-0.0209999-0.0719991-0.0209999c-0.1530004,0-0.3540001,0.177-0.4169998,0.243001
	l-0.1049995,0.1079979l-0.0300007-0.1469994C-3.2780004,6.0880003-3.5,5.0140009-4.4000006,4.5489988
	c-0.8999991,0.4650021-1.1219988,1.5390015-1.125,1.5510006l-0.0300007,0.1469994l-0.1049981-0.1079979
	C-5.7230005,6.073-5.9240003,5.8959999-6.0770006,5.8959999c-0.0300007,0-0.0510006,0.0059996-0.0720005,0.0179987
	l0.6179996,0.9029989h0.0059996C-5.3569999,6.4360008-5.0330005,5.9050007-4.4359994,5.6109991z"/>
<path class="st2" d="M-4.4390006,6.8320007l0.039-0.0240011l0.039,0.0240011
	c0.4949999,0.2969999,0.8010006,0.7800007,0.9899998,1.2060013h0.099l0.6179996-0.9029989
	c-0.0179987-0.012002-0.0449982-0.0180044-0.0689993-0.0180044c-0.1530004,0-0.3510003,0.177-0.4169998,0.243001
	l-0.1049995,0.1049995l-0.0300007-0.1469994C-3.2780004,7.3060007-3.5,6.2320013-4.4000006,5.7669992
	c-0.8999991,0.4650021-1.1219988,1.5390015-1.125,1.5510006l-0.0300007,0.1469994l-0.1049981-0.1049995
	c-0.0630012-0.0689993-0.2640009-0.243001-0.4170012-0.243001c-0.0300007,0-0.0510006,0.0059996-0.0720005,0.0179987
	l0.6179996,0.9029989h0.1019998C-5.237,7.6090002-4.9340005,7.1290007-4.4390006,6.8320007z"/>
<path class="st2" d="M-4.4000006,6.9909992c-0.9239988,0.5880003-1.1549993,1.9379997-1.157999,1.9530001l0.0029998,0.0870008
	C-5.4019995,8.7340002-5.0839996,8.2869997-4.427,8.0469999l0.0269995-0.0150003l0.0269995,0.0090008
	c0.6569996,0.243001,0.9749994,0.6870003,1.125,0.980999l0.0029998-0.1020012
	C-3.2449999,8.9260006-3.4760003,7.5789995-4.4000006,6.9909992z"/>
<path class="st2" d="M-5.5369997,9.868001h0.0089993h2.2529998h0.0089993l0.5940013-0.6480017
	C-2.6900001,9.217001-2.7080002,9.2139997-2.7230005,9.2139997c-0.1890006,0-0.4229994,0.1800013-0.4260006,0.1800013
	l-0.092999,0.0749989l-0.0300007-0.1140003C-3.2750006,9.3459988-3.5,8.545001-4.4000006,8.1999989
	c-0.8999991,0.3480005-1.125,1.1459999-1.1279998,1.1550007L-5.558001,9.4689999L-5.651,9.3969994
	c-0.0029998,0-0.237-0.1800013-0.4260006-0.1800013c-0.0180001,0-0.0360003,0.0030012-0.0510006,0.0059996L-5.5369997,9.868001z"/>
<path class="st2" d="M14.1879997,9.7390003c0.3000011,0,0.5100002-0.2189999,0.5999994-0.4859991h-2.3160009l-0.4830008,0.4859991
	H14.1879997z"/>
<path class="st2" d="M5.8120003,9.7390003h2.1989994L7.5279989,9.2469988H5.2120008
	C5.302,9.5200005,5.5119991,9.7390003,5.8120003,9.7390003z"/>
<path class="st2" d="M14.9799995,5.9890003c0.0360003,0.0780001,0.0300007,0.1590014-0.0119991,0.230999
	c-0.1619997,0.2910004-0.894001,0.4350014-1.1159992,0.474l-0.0209999,1.7160015H11.401
	c0.2010012,0.2580013,0.3239994,0.4980011,0.3719988,0.618001c0.1260023-0.0780029,0.3959999-0.2280006,0.6450005-0.2280006
	c0.1169987,0,0.2159986,0.032999,0.2969999,0.0959988l0.0600014,0.045001l-0.1920004,0.1949987h2.4389992l0.0600014-4.3979988
	c-0.1169987,0.3570013-0.3330002,0.782999-0.6989994,0.782999h-1.157999l-0.0119991,0.9179993
	c0.2370014-0.1379986,1.0529995-0.5999994,1.4880009-0.5999994C14.8780012,5.842001,14.9499989,5.920001,14.9799995,5.9890003z"/>
<path class="st2" d="M7.2850008,8.8959999c0.0809984-0.0629997,0.1799984-0.0959988,0.2969999-0.0959988
	c0.2519989,0,0.5219994,0.1500006,0.6479988,0.230999C8.2750006,8.9110003,8.401,8.6710005,8.6019983,8.4129992h-2.435998V8.3470011
	L6.1479988,6.6939993c-0.2249994-0.0419998-0.9569979-0.185998-1.1189976-0.474
	c-0.0390015-0.0720005-0.0419998-0.1529989-0.0090008-0.230999C5.0500011,5.9229994,5.1220016,5.842001,5.2990017,5.842001
	c0.4350014,0,1.256999,0.4649992,1.4880009,0.6030006L6.7779989,5.5209999h-1.157999
	c-0.3630009,0-0.5820007-0.4260006-0.6989994-0.782999l0.0539989,4.3979988h2.4420004L7.2280006,8.9439993L7.2850008,8.8959999z"/>
<path class="st2" d="M8.8060007,6.1779995L8.6409998,5.9770012H8.4160004L8.3950005,5.9589996L7.6149998,5.2750006H7.2669992
	V5.2120008V5.1639986c-0.276-0.1919975-0.8939981-0.5849991-1.1849985-0.5849991
	c-0.0839996,0-0.1080008,0.0360003-0.1169987,0.0629997c-0.0210028,0.0510006-0.0150032,0.0960016,0.0119991,0.144001
	c0.1229982,0.2369986,0.6779995,0.4320002,0.8850002,0.4890003l0.0479994,0.0119991v0.0479994l0.0150003,1.1429987H8.545001
	C8.6169987,6.3790007,8.7010012,6.2860003,8.8060007,6.1779995z"/>
<path class="st2" d="M11.5839996,5.9770012h-0.2370014l-0.1650009,0.1920004
	c0.1080008,0.1080008,0.1949987,0.2099991,0.2700005,0.3149986h1.6230011l0.0150003-1.1939993l0.0510006-0.0150003
	C13.342001,5.2210016,13.9029989,5.0230017,14.026,4.7890015c0.0269995-0.0479994,0.032999-0.099,0.0150003-0.144001
	c-0.0119991-0.0300007-0.0360003-0.0629997-0.1199999-0.0629997c-0.2939987,0-0.9060001,0.3929987-1.1850014,0.5849991v0.1109991
	h-0.3480005L11.5839996,5.9770012z"/>
<path class="st2" d="M8.5269995,8.0080013H8.2840014L7.2280006,6.9399986l0.0570002-0.0479994
	c0.0810013-0.0629997,0.1800013-0.0959988,0.2969999-0.0959988c0.2519989,0,0.5219994,0.1469994,0.6479988,0.2280006
	c0.032999-0.0870008,0.1109991-0.2399998,0.2220011-0.407999H6.823l-0.0179987-0.012002
	C6.7960005,6.5980005,5.7580013,5.974,5.2990017,5.974c-0.1259995,0-0.1500006,0.0510006-0.1560001,0.0660009
	C5.1280012,6.0789995,5.1280012,6.1149998,5.1459999,6.1540012c0.1259995,0.2249994,0.8189993,0.375,1.0739994,0.4169998
	L6.2800007,6.579999v0.0570002l0.0240011,1.644001h2.4000006c0-0.0059996,0.0059996-0.0090008,0.0090008-0.0150003
	L8.5269995,8.0080013z"/>
<path class="st2" d="M13.7230005,6.579999l0.0539989-0.0090008c0.2580013-0.0389986,0.9510012-0.1889992,1.0739994-0.4139986
	C14.875,6.1209993,14.875,6.0820007,14.8569984,6.0429993c-0.0059996-0.0179987-0.0300007-0.0660009-0.1590014-0.0660009
	c-0.4589996,0-1.4969988,0.6240005-1.5059996,0.6300001l-0.0119963,0.0060024h-1.6259995
	c0.1080008,0.1710005,0.1860008,0.3239994,0.2220011,0.407999c0.1259995-0.0810013,0.3959999-0.2280006,0.6479988-0.2280006
	c0.1169987,0,0.2159986,0.032999,0.2969999,0.0959988l0.0600014,0.045001l-1.0560007,1.0679998H11.467001l-0.1829996,0.2519989
	c0.0090008,0.0090008,0.0209999,0.0150003,0.0269995,0.0240011h2.4000006L13.7230005,6.579999z"/>
<path class="st2" d="M10.7860003-1.0070004v0.0270009H9.204999v-0.0240011
	c-0.032999,0.0030012-0.0389986,0.0240011-0.0719976,0.0240011l0.0030012,0.4619994
	c0.0090008,0.0089993,0.0300007,0.0239997,0.0360003,0.0330005h1.6529989
	c0.0059996-0.0059996,0.0209999-0.0180001,0.0300007-0.0239997l0.0030012-0.4680004
	C10.8280001-0.9799995,10.8160009-1.0009995,10.7860003-1.0070004z"/>
<path class="st2" d="M10.0030012-3.1099997c-0.243001,0.131999-0.387002,0.3059993-0.4230022,0.5039992
	C9.5499983-2.4590011,9.6099997-2.3090005,9.6939993-2.183001h0.6390009
	c0.0749989-0.1199999,0.131999-0.2819996,0.0899992-0.4650006C10.3780012-2.8400006,10.2340002-2.9959993,10.0030012-3.1099997z"/>
<path class="st2" d="M10.4770012-2.3419995c-0.0030012,0.0150003-0.0059996,0.0269995-0.0090008,0.039
	C10.4709988-2.3150001,10.474-2.3300004,10.4770012-2.3419995z"/>
<path class="st2" d="M10.7349997,3.0460005C11.0379992,3.2740011,11.2120008,3.5079999,11.302,3.6730008h0.4589996
	c0.0360003-0.0059996,0.0629997-0.0330005,0.1020012-0.0330005c0.0419998,0,0.0720005,0.0239997,0.1080008,0.0330005h0.1889992
	l0.0119991-0.9539995l0.045001-0.0150003c0.1829996-0.0599999,0.6960011-0.2910004,0.6240005-0.5250006
	c-0.0090008-0.0269995-0.0209999-0.039-0.0629997-0.039c-0.2130003,0-0.6989994,0.3660007-0.8699999,0.5070004l-0.0179987,0.0150003
	h-0.0900021l-0.0030012,0.1740003h-0.5040007l-0.2280006,0.2100005C11.0649986,3.0460019,10.7349997,3.0460019,10.7349997,3.0460005
	z"/>
<path class="st2" d="M8.2390003,3.6729994H8.698c0.0899992-0.1680007,0.2640009-0.3989997,0.5670004-0.6270003h-0.329999
	L8.9139986,3.0310001L8.7130003,2.8389997h-0.506999V2.7730002V2.6649995H8.1099997L8.092001,2.6500006
	C7.9210005,2.5090008,7.4350014,2.1400003,7.2220011,2.1400003c-0.0419998,0-0.0570002,0.0150003-0.0629997,0.039
	c-0.0720005,0.230999,0.4409981,0.4619994,0.6269989,0.5249991l0.045001,0.0150003v0.0449996l0.0089979,0.9089999h0.1920004
	C8.0679998,3.664,8.0949993,3.6400003,8.1400003,3.6400003C8.1760006,3.6400003,8.2030001,3.6669998,8.2390003,3.6729994z"/>
<path class="st2" d="M7.4949999,5.0620003c0.0749989-0.0539989,0.1650009-0.0749989,0.2729988-0.0749989
	c0.2070007,0,0.420001,0.0959988,0.5460005,0.1619997h0.0660009c0.0570002-0.1290007,0.1920004-0.3599997,0.4530001-0.605999
	H8.6739988L8.6560001,4.5279989L7.8909998,3.8079996H7.7409992L7.7259989,3.7930007
	c-0.2069979-0.1410012-0.7889986-0.513-1.0559978-0.513c-0.0749989,0-0.0870008,0.0300007-0.0930004,0.0449996
	c-0.012002,0.0360003-0.0090008,0.0689993,0.0059996,0.099c0.1020012,0.177,0.5699987,0.2910004,0.7440004,0.3209996
	l0.0539989,0.0089993v0.0540004l0.0150003,1.3320007h0.0689993l-0.0419998-0.032999L7.4949999,5.0620003z"/>
<path class="st2" d="M11.3260012,4.5429993H11.170001c0.2580013,0.2459993,0.3959999,0.474,0.4560013,0.5999994h0.0629997
	c0.1259995-0.0660009,0.3389997-0.1619997,0.5460005-0.1619997c0.1080008,0,0.198,0.0269995,0.2729988,0.0749989
	l0.0720005,0.0479994l-0.045001,0.0389986h0.0660009l0.0150003-1.3889995L12.670001,3.744997
	c0.1739988-0.0300007,0.6419992-0.1469994,0.7440004-0.3209996c0.0179987-0.0330005,0.0209999-0.0629997,0.0090008-0.099
	c-0.0059996-0.0150003-0.0179987-0.0449996-0.0930004-0.0449996c-0.2640009,0-0.849,0.3690004-1.0529995,0.513l-0.0179987,0.0120006
	h-0.1469994L12.1030035,3.810998L11.3260012,4.5429993z"/>
<polygon class="st2" points="11.3769989,1.4710002 11.0830002,1.7080002 11.3740005,1.7080002 "/>
<polygon class="st2" points="8.6259995,1.7080002 8.9139986,1.7080002 8.6230011,1.4710002 "/>
<path class="st2" d="M8.7130003,1.0330005V1.0209999C8.5570002,0.8919992,8.3139992,0.7089996,8.2030001,0.7089996
	c-0.0150003,0-0.0150003,0-0.0179987,0.0120006C8.1459999,0.8560004,8.4339991,1.0239997,8.5780001,1.0839996l0.0419998,0.0180001
	v0.0449996v0.1079993C8.6469994,1.2459993,8.6650009,1.230999,8.698,1.230999c0.1230011,0,0.2580013,0.0510006,0.3360014,0.0900006
	C9.0639992,1.2700005,9.1479988,1.1799998,9.2230005,1.099H8.7130003V1.0330005z"/>
<path class="st2" d="M11.4219999,1.0839996C11.5660009,1.0239997,11.8540001,0.855999,11.8179998,0.724
	c-0.0030012-0.0120006-0.0030012-0.0120006-0.0209999-0.0120006c-0.1080008,0-0.3509989,0.1799998-0.506999,0.3120003V1.099
	h-0.5100002c0.0749989,0.0839996,0.1590014,0.1740003,0.1860008,0.2249994
	c0.0780001-0.0360003,0.2099991-0.0900006,0.3360014-0.0900006c0.0300007,0,0.0510006,0.0150003,0.0780001,0.0209999
	l0.0030012-0.1530004L11.4219999,1.0839996z"/>
<path class="st2" d="M8.8959999,2.4160004C8.9499989,2.2960005,9.0999994,2.0560007,9.381999,1.8370008H8.5300007
	L8.5150003,1.8280001C8.3800001,1.7319999,8.0109997,1.4829993,7.8459988,1.4829993
	c-0.032999,0-0.0360003,0.0089993-0.0360003,0.0150003C7.8039989,1.513,7.8010006,1.5339999,7.8129997,1.5609994
	c0.0570002,0.1140003,0.3210011,0.2429996,0.4709988,0.2969999l0.0419998,0.0150003v0.0449996l0.0090008,0.4320002
	C8.3859997,2.316999,8.4429998,2.2989988,8.5150003,2.2989988C8.6590014,2.2990003,8.8120003,2.3709993,8.8959999,2.4160004z"/>
<polygon class="st2" points="11.4279995,2.7039995 11.6619997,2.7039995 11.6650009,2.4849997 "/>
<polygon class="st2" points="8.3349991,2.4819999 8.3380003,2.7039995 8.5720005,2.7039995 "/>
<path class="st2" d="M11.1040001,2.4160004c0.0870008-0.0479994,0.2399998-0.1199999,0.3869991-0.1199999
	c0.0689993,0,0.1259995,0.0209999,0.1800013,0.0510006L11.677,1.8700013l0.0419998-0.0150003
	c0.1529989-0.0540004,0.4169998-0.1799998,0.4709988-0.2969999c0.0119991-0.0300007,0.0090008-0.0479994,0.0030012-0.0599999
	c0-0.0059996-0.0059996-0.0150003-0.0360003-0.0150003c-0.1650009,0-0.5400009,0.2490005-0.6689987,0.3419995l-0.0180016,0.0150003
	h-0.8549995C10.8969994,2.0560007,11.0469999,2.2960005,11.1040001,2.4160004z"/>
<path class="st2" d="M10-0.0410004l0.0209999,0.0059996C10.1379986,0.0099988,10.198,0.0819993,10.276,0.144999h0.6779995
	l0.0059996-0.4710002l0.0360003-0.0180001c0.1020012-0.0540004,0.3000011-0.1950002,0.2700005-0.3029995
	c-0.0570002,0-0.2370014,0.1409998-0.3630009,0.2700005L10.881999-0.3560004H9.1149998L9.0999994-0.3740005
	C8.9709988-0.5030012,8.7910004-0.644001,8.7280006-0.644001C8.7070007-0.5360017,8.9080019-0.3920007,9.0070019-0.3410015
	l0.032999,0.0150018l0.0030012,0.4710002h0.6779995c0.0839996-0.0629997,0.1409998-0.1350002,0.2550001-0.1799998L10-0.0410004z"/>
<path class="st2" d="M8.8900003,0.6339993l0.0419998-0.0360003c0.0389986-0.032999,0.0870008-0.0509992,0.1379986-0.0509992
	c0.0870008,0,0.177,0.0449996,0.2340002,0.0809999c0.0300007-0.0839996,0.1080008-0.2160001,0.2280006-0.3479991H8.9530001
	L8.9320002,0.2650003c-0.1350002-0.1140003-0.3659992-0.276-0.4589996-0.276
	C8.4370003,0.0850005,8.6469994,0.2230005,8.7969999,0.289l0.0389986,0.0180001V0.349l0.0090008,0.6149998h0.3389997
	L8.8900003,0.6339993z"/>
<path class="st2" d="M10.6960011,0.6279998c0.0570002-0.0360003,0.1469994-0.0809999,0.2340002-0.0809999
	c0.0539989,0,0.1020012,0.0180001,0.1350002,0.0479994l0.0419998,0.0360003L10.8130026,0.961h0.3389997l0.0090008-0.6599994
	l0.0389986-0.0180001c0.1500006-0.0659995,0.3599997-0.2069993,0.329999-0.2999997c0,0,0,0-0.0030012,0
	c-0.1020012,0-0.3270006,0.1589999-0.4649992,0.2730002l-0.0209999,0.0150003h-0.5820007
	C10.5880003,0.4149995,10.6660004,0.5469999,10.6960011,0.6279998z"/>
<path class="st2" d="M10.9329996,0.6610003L10.9329996,0.6610003c-0.0839996,0-0.1920004,0.0720005-0.230999,0.1019998
	l-0.0660009,0.0540004l-0.0240011-0.0839996c0-0.0029998-0.1230011-0.4530001-0.6119986-0.651
	c-0.4890003,0.198-0.6120014,0.644999-0.6120014,0.6509986L9.3640003,0.8170004L9.2979994,0.7600002
	c-0.0360003-0.0270009-0.1439981-0.099-0.2280006-0.099H9.0670004l0.2790012,0.3150001
	c0.1500006-0.1199999,0.3449993-0.2429996,0.6390009-0.3239994L10,0.6489997l0.0179987,0.0029998
	c0.2939987,0.0809999,0.4890003,0.2009997,0.6390009,0.3239994L10.9329996,0.6610003z"/>
<path class="st2" d="M10,1.5189996l0.0209999,0.0059996c0.1469994,0.0449996,0.2640009,0.1079993,0.3780012,0.1740003h0.4859991
	l0.407999-0.3270006c-0.1500006,0.0029998-0.3239994,0.1049995-0.3239994,0.1049995L10.9000006,1.513l-0.0300007-0.0750003
	C10.8669987,1.4169998,10.6960011,0.9819999,10,0.7869997C9.3039989,0.9819999,9.1330013,1.4169998,9.1269989,1.4349999
	L9.0999994,1.5100002l-0.0689993-0.039c0,0-0.177-0.1019998-0.3239994-0.1049995l0.407999,0.3270006h0.4859991
	C9.711998,1.6300015,9.8319979,1.5700016,9.9790001,1.519001L10,1.5189996z"/>
<path class="st2" d="M11.5240011,2.4340005c-0.0090008,0-0.0240011,0-0.0360003,0c-0.1739988,0-0.3809996,0.138-0.3809996,0.138
	l-0.0749989,0.0510006L11.005003,2.5360017C11.0019989,2.5300007,10.8039989,1.9210005,10,1.6599994
	C9.1960011,1.9210005,8.9980011,2.5300007,8.9949999,2.5360003L8.9680004,2.6199999L8.8929987,2.5689993
	c0,0-0.2099991-0.138-0.3809996-0.138c-0.0119991,0-0.0240011,0-0.0360003,0l0.506999,0.4829993h0.4680004
	c0.1529989-0.0900006,0.3210011-0.177,0.5279989-0.2399998L10,2.6680007l0.0209999,0.0059996
	c0.2070007,0.0659995,0.375,0.1500006,0.5279989,0.2399998h0.4680004L11.5240011,2.4340005z"/>
<path class="st2" d="M11.9410009,3.7810001c-0.0240011-0.0059996-0.0510006-0.0089993-0.0810013-0.0089993
	c-0.2189999,0-0.4830008,0.1799998-0.4859991,0.1799998l-0.0749989,0.0510006l-0.0269995-0.0869994
	C11.269001,3.9099994,11.0169992,3.1359997,10,2.8060007c-1.0169992,0.329999-1.269001,1.1039987-1.2719994,1.1099997
	L8.7010012,4.0030012L8.6259995,3.9520006c0,0-0.2669992-0.1799998-0.4859991-0.1799998
	c-0.0300007,0-0.0570002,0.0029998-0.0810013,0.0089993l0.6689987,0.6300001h0.276
	c0.243001-0.1920004,0.5400009-0.3809996,0.9749994-0.5070004L10,3.901l0.0179987,0.0029998
	c0.4350014,0.1289992,0.7349997,0.3180013,0.9749994,0.5070004h0.276L11.9410009,3.7810001z"/>
<path class="st2" d="M11.1729994,5.9770012h-0.2070007c0.0419998,0.0360003,0.0810013,0.0689993,0.1169987,0.1049995
	L11.1729994,5.9770012z"/>
<path class="st2" d="M9.0340014,5.9770012H8.8120003l0.0930004,0.1140003C8.9470005,6.052,8.9890003,6.0129986,9.0340014,5.9770012z
	"/>
<path class="st2" d="M9.9790001,5.4370003L10,5.4310007l0.0209999,0.0059996
	c0.3179998,0.1080008,0.5760012,0.2519989,0.795001,0.4050007h0.717001l0.8129997-0.7110014
	c-0.0360003-0.0090008-0.0720005-0.0150003-0.1140003-0.0150003c-0.2700005,0-0.5909986,0.198-0.5970011,0.2010012
	l-0.0660009,0.0419998l-0.0269995-0.0810013C11.5389986,5.2750006,11.2330008,4.4110003,10,4.0389986
	c-1.2330008,0.3720016-1.5389986,1.236002-1.5419998,1.2450027L8.4339991,5.3620014L8.3620014,5.3199987
	c-0.0030012,0-0.3239994-0.2010012-0.5970011-0.2010012c-0.0419998,0-0.0810013,0.0030012-0.1140003,0.0150003l0.8129997,0.7110014
	h0.717001C9.4000006,5.6889992,9.6610003,5.5479994,9.9790001,5.4370003z"/>
<path class="st2" d="M10.993001,8.0080013c0.0629997,0.0539989,0.1259995,0.1080008,0.1800013,0.1619997l0.1169987-0.1619997
	H10.993001z"/>
<path class="st2" d="M8.8120003,8.1760006c0.0570002-0.0570002,0.1259995-0.1140003,0.1920004-0.1739988H8.6920004
	L8.8120003,8.1760006z"/>
<path class="st2" d="M11.6619997,7.8759995l0.9060001-0.9150009C12.526,6.9399986,12.4720011,6.9309978,12.4179993,6.9309978
	c-0.2939987,0-0.6419992,0.2519989-0.6450005,0.2519989l-0.0780001,0.0570002l-0.0269995-0.0930004
	c0-0.0119963-0.3330002-1.1069956-1.6679993-1.574996C8.6650009,6.0400009,8.3289995,7.1350002,8.3260012,7.1469994L8.302,7.2370014
	L8.224,7.1800013c-0.0030012,0-0.3509989-0.2519989-0.6419992-0.2519989c-0.0539989,0-0.1080008,0.0090008-0.1500006,0.0300007
	L8.3380003,7.873004h0.8160009C9.3790007,7.708003,9.6430016,7.5580053,9.9790001,7.444005L10,7.4379997l0.0209999,0.0059996
	c0.3330002,0.1140003,0.5999994,0.2640009,0.8249989,0.4289989L11.6619997,7.8759995L11.6619997,7.8759995z"/>
<path class="st2" d="M8.3380003,9.8800001h3.3210011l0.9060001-0.9150009
	c-0.0419998-0.0179987-0.0930004-0.0300007-0.1500006-0.0300007c-0.2939987,0-0.6419992,0.2519989-0.6450005,0.2519989
	l-0.0780001,0.0570002l-0.0240011-0.0930004c0-0.0089979-0.3330002-1.1069984-1.6679993-1.5719976
	C8.6650009,8.0439987,8.3289995,9.1419992,8.3260012,9.1540012L8.2990017,9.2440004L8.224,9.1839991
	c-0.0030012,0-0.3509989-0.2519989-0.6450005-0.2519989c-0.0539989,0-0.1049995,0.0090008-0.1469994,0.0300007L8.3380003,9.8800001z
	"/>
<rect x="-0.0079999" y="12.7810001" class="st2" width="0.6060004" height="3.0119991"/>
<rect x="2.461" y="12.7810001" class="st2" width="0.6060004" height="3.0119991"/>
<rect x="1.2999997" y="12.7810001" class="st2" width="0.6060004" height="3.0119991"/>
<rect x="14.4849997" y="12.7810001" class="st2" width="0.6090002" height="3.0119991"/>
<rect x="19.4169998" y="12.7810001" class="st2" width="0.6090002" height="3.0119991"/>
<rect x="16.948" y="12.7810001" class="st2" width="0.6090002" height="3.0150003"/>
<rect x="15.7900009" y="12.7810001" class="st2" width="0.6090002" height="3.0150003"/>
<rect x="18.1090012" y="12.7810001" class="st2" width="0.6090002" height="3.0150003"/>
<rect x="4.927" y="12.7810001" class="st2" width="0.605999" height="3.0119991"/>
<rect x="3.6220002" y="12.7810001" class="st2" width="0.6060004" height="3.0119991"/>
<rect x="9.2800007" y="-1.5529995" class="st2" width="1.4310007" height="0.4949999"/>
<path class="st3" d="M10-18.5c15.5999985,0,28.5,12.9000006,28.5,28.5S25.5999985,38.5,10,38.5S-18.5,25.5999985-18.5,10
	S-5.5999994-18.5,10-18.5 M10-20C-6.5-20-20-6.5-20,10s13.5,30,30,30s30-13.5,30-30S26.5-20,10-20L10-20z"/>
</svg>
