<?xml version="1.0" encoding="utf-8"?>
<svg version="1.1" id="Layer_1" xmlns="http://www.w3.org/2000/svg" xmlns:xlink="http://www.w3.org/1999/xlink" x="0px" y="0px"
	 viewBox="-22 -22 64 64" style="enable-background:new 0 0 20 20;" xml:space="preserve">
<style type="text/css">
	.st0{fill:#FFFFFF;stroke:#B6B6B6;stroke-width:0.15;}
	.st1{fill:#034DA2;}
	.st2{fill:#ED1D25;}
	.st3{fill:#CCCCCC;}
</style>
<circle class="st0" cx="10" cy="10" r="28.8000011"/>
<path class="st1" d="M10-18.7999992c-8.5200005,0-16.1520004,3.7199993-21.4230003,9.5999994h42.8429985
	C26.1520004-15.0799999,18.5200005-18.7999992,10-18.7999992z"/>
<path class="st1" d="M31.4230022,29.1999989h-42.8460007C-6.1519995,35.0800018,1.4799995,38.8000031,10,38.8000031
	S26.1520004,35.0800018,31.4230022,29.1999989z"/>
<path class="st2" d="M38.8000031,10c0-6.6359997-2.2680054-12.7290001-6.0390015-17.6009998h-45.5220032
	C-16.5319996-2.7290001-18.7999992,3.3640003-18.7999992,10s2.2679996,12.7290001,6.0389996,17.6010017h45.5250015
	C36.5319977,22.7290001,38.8000031,16.6359997,38.8000031,10z M0.1599994,22.7980003
	c-7.0709996,0-12.7980003-5.7299995-12.7980003-12.7980003s5.73-12.7979994,12.7980003-12.7979994
	S12.9580002,2.9320002,12.9580002,10S7.2280006,22.7980003,0.1599994,22.7980003z"/>
<polygon class="st2" points="2.9439993,6.1689987 0.1599994,-2.4019995 -2.6240005,6.1689987 -11.6329994,6.1689987 
	-4.3460002,11.4639997 -7.1300001,20.0319996 0.1599994,14.7370014 7.4470005,20.0319996 4.6629992,11.4639997 
	11.9530001,6.1689987 "/>
<path class="st3" d="M10-18.5c15.5999985,0,28.5,12.9000006,28.5,28.5S25.5999985,38.5,10,38.5S-18.5,25.5999985-18.5,10
	S-5.5999994-18.5,10-18.5 M10-20C-6.5-20-20-6.5-20,10s13.5,30,30,30s30-13.5,30-30S26.5-20,10-20L10-20z"/>
</svg>
