<?xml version="1.0" encoding="utf-8"?>
<svg version="1.1" id="Layer_1" xmlns="http://www.w3.org/2000/svg" xmlns:xlink="http://www.w3.org/1999/xlink" x="0px" y="0px"
	 viewBox="-22 -22 64 64" style="enable-background:new 0 0 20 20;" xml:space="preserve">
<style type="text/css">
	.st0{fill:#FFFFFF;stroke:#B6B6B6;stroke-width:0.15;}
	.st1{fill:#C60C30;}
	.st2{fill:#003478;}
	.st3{fill:#CCCCCC;}
</style>
<circle class="st0" cx="10" cy="10" r="28.8000011"/>
<rect x="25.6069374" y="-9.1942215" transform="matrix(0.8320349 -0.5547233 0.5547233 0.8320349 7.7723598 13.8803577)" width="2.3999" height="6.5997233"/>
<rect x="29.935894" y="-2.7032273" transform="matrix(0.8320656 -0.5546771 0.5546771 0.8320656 4.8977027 17.3706379)" width="2.4000967" height="6.6002717"/>
<rect x="30.7669888" y="-11.8441792" transform="matrix(0.8320656 -0.5546771 0.5546771 0.8320656 7.9442186 16.9515171)" width="2.4000967" height="14.4005938"/>
<rect x="-10.1678734" y="15.4461088" transform="matrix(0.8320656 -0.5546771 0.5546771 0.8320656 -14.0674496 -1.1711377)" width="2.4000995" height="14.4005947"/>
<rect x="-15.3295889" y="18.0979309" transform="matrix(0.8319888 -0.5547925 0.5547925 0.8319888 -14.2453623 -4.2438803)" width="2.4000328" height="6.6000886"/>
<rect x="-11.005517" y="24.5873108" transform="matrix(0.8320349 -0.5547233 0.5547233 0.8320349 -17.1166573 -0.755305)" width="2.3998992" height="6.5997229"/>
<path d="M-13.8529997,26.1429977l-0.0600004-0.0929985C-13.8920002,26.079998-13.8710003,26.1100006-13.8529997,26.1429977z"/>
<rect x="-16.1696701" y="-3.8452294" transform="matrix(0.5546771 -0.8320656 0.8320656 0.5546771 -1.7933033 -8.6410656)" width="14.4005947" height="2.4000995"/>
<rect x="-19.1667099" y="-5.8466744" transform="matrix(0.5547233 -0.8320349 0.8320349 0.5547233 -1.4623946 -12.0260496)" width="14.3993959" height="2.3999"/>
<path d="M-13.9159994-6.0469999l0.0629997-0.0960002C-13.8710003-6.1099997-13.8920002-6.0800004-13.9159994-6.0469999z"/>
<rect x="23.5128174" y="24.6912174" transform="matrix(0.5546771 -0.8320656 0.8320656 0.5546771 -9.6028137 33.8401108)" width="6.6002746" height="2.4000995"/>
<rect x="27.8339901" y="18.2011013" transform="matrix(0.5546771 -0.8320656 0.8320656 0.5546771 -2.2782941 34.545414)" width="6.6002746" height="2.4000995"/>
<rect x="26.4975452" y="26.6892757" transform="matrix(0.5547233 -0.8320349 0.8320349 0.5547233 -9.9367161 37.210907)" width="6.5997257" height="2.3998971"/>
<rect x="30.8298988" y="20.196825" transform="matrix(0.5546771 -0.8320656 0.8320656 0.5546771 -2.6047196 37.9269485)" width="6.6002746" height="2.4000995"/>
<path class="st1" d="M24.1209984,7.1739988c-0.7409973-3.6989994-2.9939995-7.0650001-6.1319981-9.1590004
	C14.8540001-4.0760012,10.8759995-4.8620014,7.177-4.1210008C3.4810004-3.3800001,0.112-1.1240005-1.9819999,2.0109997
	C-3.026,3.5800004-3.4219999,5.5689993-3.0499997,7.4169998c0.3690004,1.8480005,1.4970002,3.5339985,3.0659995,4.5780001
	c1.5659995,1.0439987,3.5579996,1.4399986,5.4060001,1.0679998C7.2700005,12.6970005,8.9560013,11.5689993,10,10
	s2.7299995-2.6970005,4.5780001-3.0660009s3.8370008,0.0240011,5.4060011,1.0679998
	c1.5689983,1.0439987,2.6969986,2.7299995,3.066,4.5780001s-0.0240002,3.8370008-1.0679989,5.4060011
	C24.073,14.8509989,24.8620014,10.8730011,24.1209984,7.1739988z"/>
<path class="st2" d="M23.0529995,12.579999c-0.3690014-1.8480005-1.4969997-3.5340014-3.066-4.5780001
	c-1.5660019-1.0439987-3.5580006-1.4399986-5.4060011-1.0679998C12.7299995,7.3029995,11.0439987,8.4310007,10,10
	s-2.7299995,2.6970005-4.5780001,3.0660009s-3.8399992-0.0240011-5.4060001-1.0679998
	c-1.5689993-1.0439987-2.6970005-2.7299995-3.0659995-4.5780001C-3.4219999,5.5720005-3.026,3.5800004-1.9819999,2.0139995
	C-4.073,5.1489983-4.8590002,9.1269989-4.1179996,12.8259983s2.9940004,7.0649986,6.1320004,9.1589985
	c3.1350002,2.0910015,7.1130009,2.8769989,10.8120003,2.1359997s7.0650015-2.9940014,9.1590014-6.1319981
	C23.026001,16.420002,23.4220009,14.4279995,23.0529995,12.579999z"/>
<path class="st3" d="M10-18.5c15.5999985,0,28.5,12.9000006,28.5,28.5S25.5999985,38.5,10,38.5S-18.5,25.5999985-18.5,10
	S-5.5999994-18.5,10-18.5 M10-20C-6.5-20-20-6.5-20,10s13.5,30,30,30s30-13.5,30-30S26.5-20,10-20L10-20z"/>
</svg>
