<?xml version="1.0" encoding="utf-8"?>
<svg version="1.1" id="Layer_1" xmlns="http://www.w3.org/2000/svg" xmlns:xlink="http://www.w3.org/1999/xlink" x="0px" y="0px"
	 viewBox="-22 -22 64 64" style="enable-background:new 0 0 20 20;" xml:space="preserve">
<style type="text/css">
	.st0{fill:#00AFCA;}
	.st1{fill:#FEC50C;}
	.st2{fill:#CCCCCC;}
</style>
<circle class="st0" cx="10" cy="10" r="28.8000011"/>
<g>
	<path class="st1" d="M22.9990005,24.3129997l0.0090008,0.0240021l0.0360012,0.0479984l0.0359993,0.0360012h0.032999
		c0.0150013,0.0059986,0.0150013,0.0299988,0.0300007,0.0299988s0.0149994-0.0269985,0.0300007-0.0299988h0.0269985
		l0.0480003-0.0360012l0.0179977-0.0479984l0.0060005-0.0150013c0.0030022-0.0150013,0.0270004-0.0119991,0.0270004-0.0269985
		c0-0.0090027-0.0150013-0.0090027-0.0179996-0.0179996l-0.0150013-0.0419998l-0.0179977-0.0479984l-0.0480003-0.0179996
		l-0.0450001-0.0150013c-0.0059986,0-0.0059986-0.0119972-0.0119991-0.0119972
		c-0.0090008,0-0.0060005,0.0149994-0.0149994,0.0149994l-0.045002,0.0119991l-0.0359993,0.0179996l-0.0360012,0.0479984
		L22.993,24.2830009l0,0c0,0.0060005-0.0089989,0.0030022-0.0089989,0.0090027
		C22.9840012,24.3039989,22.9990005,24.3039989,22.9990005,24.3129997z"/>
	<path class="st1" d="M28.980999-4.8770003c0.5100002,0.0960002,0.7619991-0.1829996,0.836998-0.5640006
		c0.1020012-0.5070004-0.1140003-3.0629997-0.1140003-3.0629997s-1.1789989,2.2769995-1.2780018,2.7839999
		C28.3479977-5.3419995,28.4709988-4.9790001,28.980999-4.8770003z"/>
	<path class="st1" d="M31.7709999-4.7059999c0.198-0.4769998,0.4829979-3.0269995,0.4829979-3.0269995
		s-1.6020012,2.0039992-1.8000011,2.4840002c-0.1499977,0.3569999-0.0959988,0.7379994,0.3840008,0.9359994
		C31.3180027-4.1240005,31.6210022-4.349,31.7709999-4.7059999z"/>
	<path class="st1" d="M32.5480042-3.401c0.4349976,0.2819996,0.7739944,0.1199999,0.9899979-0.2009997
		c0.1650009-0.2459993,0.4829979-1.1339993,0.7319984-1.8629994c-0.1020012-0.1560001-0.1860008-0.3239994-0.288002-0.474
		c-0.6030006,0.5250006-1.4430046,1.2780004-1.6230011,1.5479994C32.1399994-4.073,32.1159973-3.6890006,32.5480042-3.401z"/>
	<path class="st1" d="M34.0449982-2.1710005C34.4169998-1.808001,34.7829971-1.901,35.0559998-2.177
		c0.1230011-0.1229997,0.3509979-0.4710002,0.5969963-0.8699999c-0.1530037-0.2999997-0.2970009-0.6060004-0.461998-0.9000006
		c-0.507,0.3029995-0.9900017,0.6090002-1.1430016,0.7589993C33.7749977-2.9089999,33.6790009-2.5369997,34.0449982-2.1710005z"/>
	<path class="st1" d="M35.2749977-0.6740003c0.2939987,0.4260006,0.6689987,0.4080005,0.993,0.1920004
		c0.0900002-0.0599999,0.2369995-0.198,0.4020004-0.3690004c-0.1559982-0.3839993-0.3269958-0.7529998-0.5009995-1.125
		C35.8509979-1.8560004,35.5930023-1.7420001,35.4790001-1.664C35.1549988-1.448,34.9869995-1.1030006,35.2749977-0.6740003z"/>
	<path class="st1" d="M36.1899986,1.0360003c0.2040024,0.474,0.5760002,0.5310001,0.9360008,0.3839993
		c0.0719986-0.0300007,0.1800003-0.0960002,0.3090019-0.1799998c-0.1349983-0.4199996-0.3029976-0.8280001-0.4560013-1.2420001
		c-0.1739998,0.0360003-0.321003,0.0720005-0.3989983,0.1049995C36.2229996,0.2529998,35.9919968,0.5590005,36.1899986,1.0360003z"
		/>
	<path class="st1" d="M36.7509995,2.8930001c0.1079979,0.5070004,0.461998,0.6329999,0.8430023,0.5579996
		c0.0839996-0.0180001,0.2279968-0.0689993,0.3929977-0.1350002c-0.1049957-0.4320002-0.2070007-0.8610005-0.3300018-1.2839999
		c-0.1439972,0.0029998-0.2669983,0.0089993-0.3390007,0.0239997C36.9370003,2.1309996,36.6520004,2.3859997,36.7509995,2.8930001z"
		/>
	<path class="st1" d="M36.9430008,4.8220005c0.0060043,0.519001,0.3269997,0.7110014,0.7170029,0.7110014
		c0.1350021,0,0.4109955-0.0510006,0.7409973-0.1230011C38.3380051,5.0080013,38.2960052,4.5939999,38.2180023,4.198
		c-0.2400017-0.0479994-0.4470024-0.0870008-0.552002-0.0870008C37.2729988,4.1109991,36.9430008,4.3029995,36.9430008,4.8220005z"
		/>
	<path class="st1" d="M36.7509995,6.7509995c-0.0960007,0.5100002,0.1830025,0.7619991,0.5639992,0.8370008
		c0.2099991,0.0419998,0.7739983,0.0300007,1.3589973,0c-0.0299988-0.3330002-0.0569992-0.6689987-0.0990028-0.9990005
		c-0.4259987-0.1949987-0.8129997-0.3599997-0.9839973-0.3959999C37.2160034,6.118001,36.8530006,6.2440004,36.7509995,6.7509995z"
		/>
	<path class="st1" d="M36.1899986,8.6049995c-0.1919975,0.4799995,0.0330009,0.782999,0.3930016,0.9329996
		C36.8860016,9.6610003,38.0080032,9.823,38.7970047,9.9249983c0-0.1860008-0.0240021-0.3690004-0.0300026-0.5550013
		c-0.6120033-0.4680004-1.3710022-1.0319996-1.6410027-1.1429987C36.7660027,8.0770006,36.3880005,8.1309996,36.1899986,8.6049995z"
		/>
	<path class="st1" d="M36.2680016,10.1230011c-0.3240013-0.2159986-0.7050018-0.2370014-0.993,0.1920004
		c-0.2819977,0.4350014-0.1200027,0.7740011,0.2010002,0.9899998c0.428997,0.2879992,2.8740005,1.0649986,2.8740005,1.0649986
		S36.6969986,10.4110003,36.2680016,10.1230011z"/>
	<path class="st1" d="M35.0559998,11.8210011c-0.2730026-0.2729988-0.6450043-0.3719988-1.0110016-0.0059996
		c-0.3600006,0.3719988-0.2700005,0.7380009,0.0060043,1.0109997c0.3659973,0.3659992,2.612999,1.6049995,2.612999,1.6049995
		S35.4220047,12.1870003,35.0559998,11.8210011z"/>
	<path class="st1" d="M34.6030006,16.1230011c0,0-0.7770042-2.4449987-1.0649986-2.8740005
		c-0.2160034-0.3239994-0.5610008-0.4890003-0.9899979-0.2010012c-0.4260025,0.2939987-0.4080009,0.6689987-0.1920013,0.993001
		C32.644001,14.4699993,34.6030006,16.1230011,34.6030006,16.1230011z"/>
	<path class="st1" d="M30.8379974,13.9599991c-0.4740028,0.2039995-0.5310001,0.5760012-0.3840008,0.9360008
		c0.198,0.4770012,1.8000011,2.4840012,1.8000011,2.4840012s-0.2849979-2.5500021-0.4829979-3.0270004
		C31.6210022,13.993001,31.3149986,13.7619991,30.8379974,13.9599991z"/>
	<path class="st1" d="M21.7509995,14.0379992c0.2159996-0.3239994,0.2370014-0.704999-0.1920013-0.993001
		c-0.4350014-0.2819996-0.7740002-0.1199999-0.9899979,0.2010012c-0.2880001,0.4289989-1.0649986,2.8739996-1.0649986,2.8739996
		S21.4630013,14.4699993,21.7509995,14.0379992z"/>
	<path class="st1" d="M20.0559998,11.8179998c-0.3719978-0.3630009-0.737999-0.2700005-1.0109978,0.0059996
		c-0.3660011,0.3659992-1.6080017,2.6130009-1.6080017,2.6130009s2.2469978-1.2390003,2.6130009-1.6049995
		C20.3289986,12.5529995,20.4220009,12.1839991,20.0559998,11.8179998z"/>
	<path class="st1" d="M18.8260002,10.3179998c-0.2939987-0.4260006-0.6689987-0.407999-0.993-0.1920004
		c-0.4289989,0.2879992-2.0849991,2.25-2.0849991,2.25s2.4449997-0.7769995,2.8740005-1.0649986
		C18.9489994,11.092001,19.1140003,10.75,18.8260002,10.3179998z"/>
	<path class="st1" d="M17.9139977,8.6049995c-0.2039986-0.474-0.5760002-0.5310001-0.9360008-0.3840008
		c-0.4770012,0.198-2.4839993,1.7969999-2.4839993,1.7969999s2.5500011-0.2850008,3.0269985-0.4830008
		C17.8810005,9.3909998,18.1120014,9.0880003,17.9139977,8.6049995z"/>
	<path class="st1" d="M17.3499985,6.7509995C17.2419987,6.2440004,16.8879986,6.1179981,16.507,6.1929998
		c-0.507,0.099-2.7870007,1.2779989-2.7870007,1.2779989s2.5560017,0.2159986,3.0629997,0.1140003
		C17.1639977,7.5159998,17.4519997,7.2580013,17.3499985,6.7509995z"/>
	<path class="st1" d="M17.1609993,4.8220005c-0.0059986-0.519001-0.329998-0.7110014-0.7169991-0.7110014
		c-0.519002,0-2.9820023,0.7110014-2.9820023,0.7110014s2.4660015,0.7110014,2.9820023,0.7110014
		C16.8310013,5.532999,17.1609993,5.3409986,17.1609993,4.8220005z"/>
	<path class="st1" d="M17.3499985,2.8930001c0.0960007-0.5100002-0.1829987-0.7620006-0.5639992-0.8369994
		c-0.5069981-0.1020012-3.066,0.1139989-3.066,0.1139989S16,3.3460002,16.507,3.448
		C16.8879986,3.526,17.2480011,3.4000006,17.3499985,2.8930001z"/>
	<path class="st1" d="M17.9139977,1.0360003c0.1920013-0.4799995-0.0329971-0.7830005-0.3929977-0.9329996
		c-0.4770012-0.198-3.0269995-0.4829993-3.0269995-0.4829993s2.0040007,1.6019998,2.4840002,1.7969999
		C17.3349991,1.5670004,17.7159996,1.5159998,17.9139977,1.0360003z"/>
	<path class="st1" d="M17.8360023-0.4790001c0.3239975,0.2160001,0.704998,0.2399998,0.993-0.1920004
		c0.2819996-0.4349999,0.1199989-0.7739997-0.2010002-0.9899998c-0.4290009-0.2880006-2.8740015-1.0650001-2.8740015-1.0650001
		S17.4040012-0.7670007,17.8360023-0.4790001z"/>
	<path class="st1" d="M20.0559998-2.1710005c0.3600006-0.3720002,0.2700005-0.7379994-0.0059986-1.0109997
		c-0.3659992-0.3660007-2.6130009-1.6049995-2.6130009-1.6049995s1.2390003,2.2470002,1.6080017,2.6129994
		C19.3239994-1.9039998,19.6899986-1.8049998,20.0559998-2.1710005z"/>
	<circle class="st1" cx="27.0400009" cy="4.8339996" r="8.7089996"/>
	<path class="st1" d="M27.052-5.0689993c0.519001-0.0059996,0.7110004-0.3300004,0.7110004-0.7169995
		c0-0.5189996-0.7110004-2.9819999-0.7110004-2.9819999s-0.7110004,2.4660001-0.7110004,2.9819999
		C26.3409996-5.3989997,26.532999-5.0689993,27.052-5.0689993z"/>
	<path class="st1" d="M28.980999,14.5240011c-0.5070019,0.1080008-0.6330013,0.4649992-0.5580025,0.8430004
		c0.1020012,0.506999,1.2780018,2.7840014,1.2780018,2.7840014s0.2160015-2.5560007,0.1140003-3.0629997
		C29.7429981,14.7099991,29.4880009,14.4219999,28.980999,14.5240011z"/>
	<path class="st1" d="M26.3409996,15.4329996c0,0.519001,0.7110004,2.9820013,0.7110004,2.9820013
		s0.7110004-2.4660015,0.7110004-2.9820013c0-0.3900003-0.1919994-0.717001-0.7110004-0.717001
		C26.532999,14.7189999,26.3409996,15.0429993,26.3409996,15.4329996z"/>
	<path class="st1" d="M24.2859993,15.0880003c-0.1020012,0.506999,0.1140022,3.0630007,0.1140022,3.0630007
		s1.178997-2.2770004,1.277998-2.7840023c0.0749989-0.3809996-0.0479984-0.7440004-0.5580006-0.8430004
		C24.6130009,14.4279995,24.3610001,14.7099991,24.2859993,15.0880003z"/>
	<path class="st1" d="M23.2659988,13.9599991c-0.4799995-0.1920004-0.7829971,0.032999-0.9329987,0.3929987
		c-0.198,0.4770012-0.4830017,3.0269995-0.4830017,3.0269995s1.6020012-2.0040007,1.8000031-2.4840002
		C23.7970009,14.5389986,23.743,14.157999,23.2659988,13.9599991z"/>
	<path class="st1" d="M21.5559998-3.401c0.4260025-0.2940001,0.4080009-0.6690001,0.1920013-0.9929996
		c-0.2879982-0.4290004-2.25-2.0850005-2.25-2.0850005s0.7770004,2.4450002,1.0649986,2.8740005
		C20.7819996-3.2810001,21.1240005-3.1129994,21.5559998-3.401z"/>
	<path class="st1" d="M23.2659988-4.3159995c0.4740009-0.2039995,0.531002-0.5759997,0.3840027-0.9359994
		c-0.1980019-0.4769998-1.8000031-2.4840002-1.8000031-2.4840002s0.2850018,2.5499997,0.4830017,3.0269995
		C22.4830017-4.349,22.7859993-4.1179996,23.2659988-4.3159995z"/>
	<path class="st1" d="M25.1230011-4.8770003c0.507-0.1079993,0.6330013-0.4650006,0.5579987-0.8430004
		C25.5789986-6.2299995,24.4000015-8.507,24.4000015-8.507s-0.2159996,2.5560002-0.1140022,3.0630007
		C24.3610001-5.0629997,24.6130009-4.7780004,25.1230011-4.8770003z"/>
	<polygon class="st1" points="21.8409996,20.3620014 22.375,20.4279995 22.9420013,20.4640007 23.5270004,20.4759979 
		24.1120014,20.5300007 24.394001,20.5600014 24.6609993,20.6140003 24.9309998,20.6800003 25.1949997,20.7459984 
		25.4440002,20.8449993 25.6779995,20.9650002 25.8969994,21.1149998 26.0949993,21.2800007 26.1789989,21.1960011 
		26.2480011,21.0610008 26.3289986,20.8959999 26.4309998,20.7130013 26.5959988,20.3289986 26.7459984,20.0290012 
		26.1310005,19.993 25.5129986,19.9449997 24.9129982,19.8790016 24.2919998,19.795002 23.7099991,19.6779995 
		23.1100006,19.5429993 22.5250015,19.3959999 21.9580002,19.2099991 21.3549995,18.9939995 20.7550011,18.757 20.1879997,18.493 
		19.6030006,18.2080002 19.2370014,18.0100002 18.8530006,17.7910004 18.4840012,17.5749989 18.1330013,17.3409996 
		17.6140003,16.9720001 17.1159992,16.5880013 16.6300011,16.1889992 16.1619987,15.7540007 15.7149992,15.3189993 
		15.2800007,14.8540001 14.8599997,14.3859997 14.4610014,13.8850002 14.2449999,13.5820007 14.026,13.2819996 
		13.8280001,12.9849997 13.6269989,12.6820002 13.4410009,12.3640003 13.2609997,12.0489988 13.0930004,11.730999 
		12.9250011,11.4129992 12.6910009,10.9300013 12.4899998,10.4470005 12.3070002,9.9759989 12.1390009,9.5109997 
		11.9890003,9.0429993 11.8570013,8.5600014 11.7399998,8.0410004 11.6230011,7.506999 11.4880009,7.4410009 11.355999,7.3900003 
		11.2060013,7.3900003 11.1550007,7.407999 11.1070013,7.4410009 11.0710011,7.474 11.0410004,7.5219994 11.0050001,7.5760012 
		10.9570007,7.7080002 10.9210005,7.8759995 10.9029989,8.0770006 10.8879986,8.3079996 10.9029989,8.5930004 10.9389992,8.907999 
		10.9720011,9.2769995 11.0410004,9.6760006 11.1070013,10.1109991 11.2060013,10.5970011 11.0529995,10.3630009 
		10.9210005,10.1259995 10.8039989,9.8769989 10.704999,9.6280012 10.5040007,9.0939999 10.3540001,8.5240011 10.2039995,7.9570007 
		10.0539989,7.3719988 9.901,6.8050013 9.7359991,6.2709999 9.7209988,6.2199993 9.7030001,6.1870003 9.670001,6.1719999 
		9.6190004,6.1540012 9.5200005,6.1390009 9.4000006,6.1390009 9.2860003,6.1719999 9.1689987,6.2199993 9.1359997,6.2559996 
		9.0849991,6.3039989 9.0699987,6.3549995 9.0340014,6.4060001 9.0009995,6.5560007 8.9859991,6.7060013 8.9680004,6.855999 
		8.9530001,7.0209999 8.9680004,7.3570013 9.0009995,7.7080002 9.0699987,8.0770006 9.1540012,8.4429998 9.2679987,8.8089991 
		9.3879986,9.1929998 9.5200005,9.5589991 9.670001,9.9279995 9.8199987,10.2790012 9.9849997,10.6269989 10.3060007,11.2629986 
		10.5880003,11.8149986 10.3540001,11.6140003 10.1379986,11.3979988 9.9370003,11.1459999 9.7359991,10.8969994 
		9.3520012,10.3630009 8.9859991,9.8439999 8.6679993,9.3609991 8.368001,8.9770012 8.2359991,8.8089991 8.0980005,8.6920004 
		8.0500011,8.644001 7.9840002,8.6080008 7.9329996,8.5930004 7.8669987,8.5749989 7.6330013,8.5749989 7.5310001,8.6080008 
		7.4169998,8.644001 7.3659992,8.6739988 7.3330002,8.7099991 7.3000011,8.7580013 7.2669992,8.8089991 7.2490005,8.8599997 
		7.2490005,8.9919987 7.2669992,9.0760012 7.3659992,9.3100014 7.4830008,9.5949993 7.651,9.8919992 7.849,10.2280006 
		8.0860014,10.5789995 8.3170004,10.948 8.5689993,11.3139992 8.8330002,11.6829996 9.3699999,12.3640003 9.8530006,12.9489994 
		10.0689993,13.2010012 10.2700005,13.4019995 10.420001,13.552 10.552,13.6359997 10.3719988,13.5670004 10.1710005,13.4680004 
		9.9849997,13.3480005 9.7869997,13.2159986 9.3879986,12.8830013 8.9859991,12.5319996 8.5839996,12.1479988 8.2180004,11.7640009 
		7.8669987,11.4129992 7.5670004,11.1159992 7.5159998,11.0620003 7.4470005,11.0140009 7.3809996,10.9959993 7.3000011,10.9780006 
		7.1650009,10.9780006 7.0959988,10.9959993 7.0300007,11.0140009 6.9820013,11.0439987 6.9339991,11.0980005 6.8800001,11.1280012 
		6.8649998,11.1820002 6.8499994,11.2299995 6.8499994,11.3470011 6.8800001,11.4129992 7.0479994,11.6650009 7.230999,11.9289989 
		7.4470005,12.1960011 7.6660004,12.4840002 8.1519995,13.0150003 8.6679993,13.552 9.1839991,14.0529995 9.7030001,14.5 
		10.1529989,14.8869991 10.552,15.1870003 10.420001,15.2349997 10.2700005,15.2349997 10.1379986,15.2199993 9.9849997,15.1870003 
		9.8530006,15.1390009 9.7030001,15.0699987 9.5529995,14.9859991 9.4179993,14.9019995 9.118001,14.7340002 8.8509989,14.5689993 
		8.7189999,14.5179987 8.5839996,14.4699993 8.4520006,14.4520006 8.3349991,14.4520006 8.3499994,14.5689993 8.368001,14.6679993 
		8.401,14.7879992 8.467001,14.8869991 8.532999,15.0040007 8.599,15.1030006 8.7010012,15.204999 8.8029995,15.3189993 
		9.0340014,15.5200005 9.3039989,15.7209988 9.5860014,15.9219999 9.8890009,16.1049995 10.2039995,16.2729988 
		10.5219994,16.4410019 10.8370008,16.5880013 11.1369991,16.7380009 11.6739988,16.9720001 12.073,17.1399994 
		12.006999,17.1730003 11.907999,17.2060013 11.7729988,17.223999 11.3050013,17.223999 10.9389992,17.1910019 
		10.605999,17.1730003 10.3060007,17.157999 10.1710005,17.1399994 10.0870008,17.1399994 10.0209999,17.157999 
		9.9849997,17.1730003 10.0870008,17.323 10.2220011,17.4399986 10.3719988,17.5569992 10.5400009,17.6409988 
		10.7199993,17.7070007 10.9029989,17.7729988 11.0889997,17.8089981 11.2900009,17.8570023 11.6739988,17.907999 
		12.0550013,17.9560013 12.2230005,17.9919987 12.3909998,18.0250015 12.5229988,18.0760002 12.657999,18.1240005 
		12.592001,18.1750011 12.5229988,18.2259979 12.4239988,18.2590008 12.3070002,18.2919998 12.073,18.3580017 
		11.8060007,18.3909988 11.5539989,18.4420013 11.3380003,18.4749985 11.1879997,18.5080013 11.1369991,18.5410004 
		11.1729994,18.592001 11.2209988,18.625 11.2900009,18.6760006 11.355999,18.7089996 11.5389986,18.7750015 11.7729988,18.8260002 
		12.4090014,18.9250011 13.2249994,19.0779991 12.8919992,19.1920013 12.4899998,19.3120003 12.3070002,19.3600006 
		12.1750011,19.4109993 12.1240005,19.4440002 12.073,19.4620018 12.0550013,19.4770012 12.0550013,19.4919987 
		12.1090002,19.5429993 12.1929998,19.5939999 12.2889986,19.6450005 12.4090014,19.6930008 12.6910009,19.7770004 
		13.0240011,19.8790016 13.7080002,20.0109997 14.2120008,20.0949993 13.9239988,20.1940002 13.6090002,20.2960014 
		13.4589996,20.3289986 13.3270006,20.3800011 13.2249994,20.4099998 13.1409998,20.4640007 13.4919987,20.5959988 
		13.8459988,20.7280006 14.2120008,20.8810005 14.5780001,21.0310001 15.3459988,21.3640003 16.1619987,21.6999989 
		16.5820007,21.8649998 17.0169983,22.0149994 17.4640007,22.1469994 17.9350014,22.2819996 18.4000015,22.3810005 
		18.901001,22.4650002 19.4020004,22.5340004 19.9360008,22.5820007 19.6720009,22.5340004 19.3689995,22.4499989 
		19.0359993,22.3659992 18.670002,22.2490005 17.8509979,21.9820023 17.0169983,21.6819992 16.2159996,21.3640003 
		15.480999,21.0489998 15.1600008,20.8959999 14.8959999,20.7639999 14.6590014,20.6469994 14.4940004,20.5300007 
		14.677,20.3979988 14.9289989,20.2600002 15.1600008,20.1130009 15.3459988,19.9780006 15.1479988,19.9780006 14.9289989,19.927 
		14.677,19.8790016 14.4129992,19.795002 14.1760006,19.7110023 13.9420004,19.5939999 13.7590008,19.4919987 
		13.6090002,19.3600006 14.1610003,18.9250011 14.0770006,18.8769989 13.9780006,18.8260002 13.8459988,18.7750015 
		13.7080002,18.7449989 13.4110003,18.6429977 13.1259995,18.5410004 13.1080008,18.4420013 13.0930004,18.3580017 
		13.1080008,18.2919998 13.1080008,18.2259979 13.177,18.1419983 13.243001,18.0760002 13.3089991,18.0250015 13.375,17.973999 
		13.3929987,17.9560013 13.3929987,17.9260006 13.375,17.907999 13.3089991,17.8570023 13.2249994,17.8239994 
		13.1409998,17.7910004 13.0600014,17.7580013 12.9759989,17.7399998 12.9100008,17.7070007 12.855999,17.6739998 
		12.8260012,17.6409988 12.8079996,17.5749989 12.7900009,17.4909992 12.7900009,17.4399986 12.8079996,17.3740005 
		12.8260012,17.2750015 12.855999,17.1730003 12.8740005,17.1399994 12.8740005,17.0739994 12.855999,17.0559998 
		12.8260012,17.0229988 12.7750006,17.0080013 12.7060013,16.9899998 12.625,16.9720001 12.4420004,16.9239998 
		12.2409992,16.8580017 12.0250006,16.7380009 11.8060007,16.605999 11.5899992,16.4529991 11.3890009,16.3029995 
		11.2060013,16.1710014 11.0529995,16.0389977 11.2390003,16.0209999 11.4880009,15.9880009 11.7399998,15.9699993 
		11.9229994,15.954999 11.7580013,15.8380003 11.5720005,15.6879997 11.3890009,15.5050001 11.2060013,15.3189993 
		11.0229988,15.1390009 10.8549995,14.9350014 10.704999,14.7340002 10.5699987,14.5360003 11.2900009,14.5360003 
		11.4730005,14.5360003 11.4730005,14.4339991 11.4580002,14.3199987 11.4219999,14.2180004 11.3890009,14.0830002 
		11.2900009,13.8339996 11.1550007,13.5670004 11.0229988,13.3179998 10.8730011,13.0839996 10.7199993,12.8830013 
		10.605999,12.7330008 10.7199993,12.6820002 10.8370008,12.6490011 11.0529995,12.6490011 11.1550007,12.6820002 
		11.2719994,12.7330008 11.3740005,12.7810001 11.4880009,12.8349991 11.5059996,12.7659998 11.5539989,12.6159992 
		11.5899992,12.5319996 11.6379986,12.4659986 11.6920004,12.4150009 11.7399998,12.4000006 11.9890003,12.5830002 
		12.2230005,12.7509995 12.4420004,12.9310007 12.657999,13.131999 13.0419998,13.5159998 13.4110003,13.9029989 
		14.0439987,14.7039995 14.644001,15.4870014 14.9439993,15.855999 15.2619991,16.2070007 15.4300013,16.3719978 
		15.5949993,16.5400009 15.7629986,16.6899986 15.9639997,16.8400002 16.1469994,16.9720001 16.3479996,17.1070023 
		16.5639992,17.2390003 16.782999,17.3409996 17.0319996,17.454998 17.2840004,17.5389977 17.532999,17.6230011 
		17.8149986,17.6920013 17.9650002,17.7399998 18.1149998,17.8089981 18.282999,17.9260006 18.4510002,18.0400009 
		18.802,18.3580017 19.1829987,18.7089996 19.5699997,19.0779991 19.9539986,19.4440002 20.1369991,19.6120014 
		20.3349991,19.7590008 20.5209999,19.8969994 20.7039986,20.0109997 20.8239994,20.0769997 20.9560013,20.1459999 
		21.105999,20.1940002 21.2560005,20.2449989 21.5410004,20.3139992 	"/>
	<path class="st1" d="M24.7449989,25.2220001l0.9510021-0.0179977l0.9179993,0.0179977l0.8520012,0.0179996l0.6989994,0.0479984
		h0.2160015l0.2670021-0.0479984l0.0359974-0.0179996h0.0359974v-0.0179977l-0.0359974-0.0179977L28.552,25.1380043
		l-0.2849979-0.0359993h-1.269001l-0.3180008-0.0330009l-0.2999992-0.0359993l-0.132-0.0359993l-0.1350002-0.0330009
		l-0.1319981-0.0479984l-0.132-0.066l-0.1169987,0.066l-0.1499996,0.0360012l-0.1500015,0.0329971h-0.3000011l-0.1499996-0.0329971
		l-0.132-0.0360012l-0.132-0.0479984l0.1020012-0.132l0.132-0.1500015l0.132-0.1499996l0.1319981-0.1499996l-0.1830006-0.0360012
		l-0.2159977-0.0479984l0.1679993-0.1140022l0.2339993-0.1829987l0.2010021-0.1500015l0.0839996-0.066l-0.2040024,0.0209942
		l-0.2339993,0.0359993l-0.2519989,0.0660019l-0.2670002,0.0480003l-0.2670002,0.066l-0.2519989,0.066l-0.2339993,0.0330009
		l-0.2010021,0.0179977c0.0240021,0.1110001,0.0300026,0.2399998,0,0.3330002
		c-0.0119972,0.045002-0.0509987,0.098999-0.0839996,0.132c-0.1769981,0.1889992-0.4469986,0.2129993-0.6509991,0.0359993
		c-0.1200008,0.032999-0.2460003,0.045002-0.3509998,0.0359993c-0.1199989-0.0359993-0.243-0.0839996-0.3509979-0.1499996
		l-0.2010002,0.1169987l-0.1830006,0.1169987l-0.066,0.066l-0.0660019,0.0660019l-0.0660019,0.0839996l-0.0359993,0.0660019
		l-0.0480003,0.0839996l-0.0179977,0.0839996l-0.0179977,0.1020012l-0.0179996,0.0839996l0.0179996,0.1020012l0.0179977,0.1169968
		l0.0359993,0.1020012l0.0480003,0.1170006l0.0179977-0.0839996l0.0480003-0.0839996l0.0660019-0.0660019l0.0839996-0.0480003
		l0.1020012-0.0479984l0.1020012-0.0479984l0.1139984-0.0360012l0.1170006-0.0360012l-0.0660019,0.1679993l-0.0359993,0.1679993
		l0.066-0.0479984l0.0839996-0.0360012l0.1020012-0.0359993l0.1020012-0.0359993l0.2850018-0.0660019l0.3179989-0.0480003
		l0.3840008-0.0359993l0.3990021-0.0359993l0.4499969-0.0330009L24.7449989,25.2220001z"/>
	<path class="st1" d="M37.4319992,16.1710014l-0.4830017,0.3990002l-0.5009995,0.3840008l-0.5189972,0.3689995l-0.3510056,0.2340012
		l-0.3689957,0.2340012l-0.3689957,0.2159977l-0.3660011,0.2159977l-0.5849991,0.2670002L33.3040047,18.757l-0.6030006,0.2159977
		l-0.6030006,0.2159977l-0.5009995,0.1500015l-0.5009995,0.1500015l-0.519001,0.1169968l-0.519001,0.1170006l-0.519001,0.0839996
		l-0.5339985,0.066l-0.519001,0.066l-0.5340023,0.0360012l-0.0479984,0.0179996l-0.0479984,0.0179977l-0.1020012,0.0480003
		l-0.1170006,0.0839996l-0.1679993,0.1499996l-0.2159977,0.2010021l-0.2670002,0.2669983l-0.3179989,0.3509979l-0.3000011,0.3509998
		l-0.3509979,0.3840008l-0.1830006,0.1829987l-0.1830006,0.1830006l-0.2159977,0.1679993l-0.2159977,0.1679993l-0.1679993,0.1169987
		l-0.1679993,0.1020012l-0.1830006,0.0839996l-0.1830006,0.0839996l-0.3990002,0.1679993l-0.3990002,0.1500015l-0.3990021,0.1499996
		l-0.3509979,0.1319981l-0.1500015,0.0660019l-0.1500015,0.0839996l-0.1319981,0.0660019l-0.1020012,0.066l-0.1020012,0.1020012
		l-0.0839996,0.0839996l-0.0479984,0.0839996l-0.0330009,0.0839996L22.1500092,24.28899v0.0660019l0.3840008,0.1679993
		l0.1020012-0.0839996l0.1319981-0.1020012l0.1500015-0.0839996l0.1350002-0.0839996l0.5009995-0.2010021l0.4350014-0.2010021
		l0.2159977-0.0839996L24.38801,23.580986l0.1830006-0.1020012l0.1499996-0.1020012l0.3840008-0.2519989l0.3840008-0.2519989
		l0.3690014-0.2339993l0.3330002-0.2339993l0.2519989-0.2010021l0.2010002-0.1830006l0.2159996-0.197998l0.2339993-0.2159996
		l0.0839996-0.0839996l0.1020012-0.0660019l0.1169987-0.066l0.132-0.066l0.2849998-0.132l0.2849979-0.1020012l0.3840008-0.1020012
		l0.4169998-0.1020012l0.4350014-0.0839996l0.4829979-0.0839996l0.5849991-0.0660019l0.5849991-0.0839996l0.6030006-0.066
		l0.5849991-0.1020012l0.2010002-0.0360012l0.1829987-0.0479984l0.2010002-0.0479984l0.2010002-0.0480003l0.2009964-0.2519989
		l0.3180008-0.3509979l0.2160034-0.2159996l0.2519989-0.2010002l0.284996-0.2159996l0.3330002-0.2159996l0.5009995-0.2999992
		l0.5370026-0.2670002l0.5490036-0.2850018l0.5370026-0.2519989l0.5009995-0.2519989l0.4680023-0.2339993l0.2429962-0.1259995
		c0.1410027-0.5610008,0.2819977-1.1190004,0.3899994-1.6920004l-0.3810043,0.3659992L37.4319992,16.1710014z"/>
	<path class="st1" d="M35.6469994,22.4650002l-0.3180046,0.066l-0.3330002,0.066l-0.3509979,0.0480003l0.6149979,0.0179977
		h0.5370026l0.0390015-0.0030003c0.0510025-0.1049995,0.1020012-0.2070007,0.1499977-0.3120003l-0.0390015,0.0150013
		L35.6469994,22.4650002z"/>
	<path class="st1" d="M33.8920021,23.7700005h-0.3330002l-0.3180046,0.0179977l-0.2999992,0.0360012l-0.2849998,0.0479984
		l0.0359993,0.0660019V24.052l-0.0180016,0.066l-0.0359955,0.0480003l-0.0359993,0.0660019l-0.0480003,0.0479984
		l-0.0480042,0.032999l-0.1139984,0.0839996l-0.1320038,0.0660019l-0.1320038,0.0359993l-0.132,0.0179977l0.1679993,0.3330002
		l-0.1499977,0.1830006l-0.1830025,0.1319981l-0.1889877,0.135004l-0.2160015,0.1020012l-0.2339973,0.1020012l-0.2519989,0.066
		l-0.2519989,0.0480003l-0.2819996,0.0480003l-0.2849979,0.0359993l-0.3000011,0.0179977l-0.3000011,0.0179996l-0.3180027,0.0179996
		h-1.2630043l-0.6330013,0.0179977l-0.6149998,0.0359993l-0.2819996,0.0360012l-0.2850018,0.0479984l-0.2819977,0.0480003
		l-0.2519989,0.0660019l-0.2519989,0.0839996l-0.2159996,0.1020012l-0.2159996,0.1319981l-0.1829987,0.1319981l-0.0839996,0.0839996
		l-0.0839996,0.0839996l-0.0660019,0.1020012l-0.066,0.1020012l-0.066,0.1020012l-0.0480003,0.1170006l-0.0480003,0.1169968
		l-0.0479984,0.132l0.1020012,0.0359993l0.1169987,0.0179996h0.1169987l0.1140003-0.032999l0.132-0.0359993l0.1169968-0.0360012
		l0.132-0.066l0.1169987-0.0480003l0.5009995-0.3180008l0.4169998-0.2819977l-0.0179996,0.6329994l0.0179996,0.0839996v0.0660019
		l0.0179996,0.0480003l0.0329971,0.0479984l0.0179996,0.0179996l0.0360012,0.0329971h0.0479984l0.0360012,0.0179996
		l0.0839996-0.0360012l0.1020012-0.0329971l0.1169968-0.0839996l0.1170006-0.0839996l0.2159977-0.2159996l0.2010021-0.2159996
		l0.1679993-0.2159977l0.1020012-0.1499996l0.066,0.1169968l0.0179996,0.1020012l0.0179977,0.1020012l-0.0179977,0.1170006
		l-0.0360012,0.2159977l-0.0179996,0.2159977v0.0480003l0.0179996,0.0480003l0.0360012,0.0329971l0.0359993,0.0179996
		l0.0839996,0.0179996l0.1169987-0.0179996l0.0839996-0.0179996l0.1020012-0.0479984l0.0839996-0.066l0.0839996-0.0660019
		l0.1830025-0.1500015l0.1499977-0.1829987l0.1499977-0.1679993l0.1320019-0.1500015l0.0659981-0.066l0.0659981-0.0360012
		l0.0659981-0.0359993l0.0480022-0.0179977l-0.0719833,0.7320061v0.0660019l0.0180016,0.0359993l0.0480022,0.0480003
		l0.0359974,0.0179977l0.1169987,0.0359993h0.1499977l0.1320019-0.0359993l0.1320019-0.0359993l0.1169987-0.0480003
		l0.0659981-0.0660019l0.4529972-0.7349987h0.0359974l0.0359974,0.0360012l0.0359974,0.066l0.0180016,0.0839996l0.0659981,0.1679993
		l0.0359974,0.1020012l0.032999,0.1020012l0.0659981,0.0839996l0.0480022,0.0479984l0.0659981,0.0360012l0.0659981,0.0179996
		h0.0839996l0.0839996-0.0179996l0.0659981-0.0360012l0.0839996-0.0479984l0.0839996-0.066l0.0839996-0.0839996l0.0839996-0.0839996
		l0.1679993-0.2010021l0.1499977-0.2339993l0.2160015,0.2339993l0.2009983,0.2339993l0.0659981,0.0360012l0.0839996,0.0179996
		l0.0839996-0.0179996h0.0480003l0.102005-0.0360012l0.0839996-0.0359993l0.0839996-0.0480003l0.0659943-0.066l0.1170006-0.1140003
		l0.1170006-0.1500015l0.1019974-0.1499996l0.0839996-0.1319981l0.102005-0.1170006l0.1019974-0.0839996l0.0180054,0.1020012
		l0.0359955,0.1500015l0.0359955,0.0839996l0.0359993,0.0660019l0.0359993,0.0479984l0.0359955,0.0479984l0.1020012,0.0480003
		l0.0839996,0.0359993h0.0270042c0.6210022-0.8819981,1.2089996-1.7879982,1.7339935-2.7389984l-0.6720009-0.0480003
		L33.8920021,23.7700005z"/>
</g>
<g>
	<path class="st1" d="M-12.5089998,27.9370003c0.2130003,0.263998,0.4289999,0.5249977,0.651,0.782999
		c-0.0150003-0.1650009-0.0360003-0.3029995-0.0360003-0.5100002c0-0.4650002,0.1799994-0.9300003,0.5549994-1.3620014
		C-12.0469999,26.9919987-12.4309998,27.4570007-12.5089998,27.9370003z"/>
	<path class="st1" d="M-14.1260004,25.6989994c0.1290007,0.2010021,0.2550001,0.4019985,0.3930006,0.6030006
		c0.2040005-0.1469994,0.3330002-0.3690014,0.4169998-0.6569996
		C-13.5650005,25.7290001-13.8800001,25.7590008-14.1260004,25.6989994z"/>
	<path class="st1" d="M-11.3900003,1.7440004c0.2519999-0.5250006,0.3569994-0.8670001,0.3569994-1.4130006
		c0-0.8729997-0.5699997-1.5299993-1.598999-1.6530004c1.0289993-0.1199999,1.598999-0.7769995,1.598999-1.6530004
		c0-0.5460005-0.1019993-0.8909998-0.3569994-1.4130006c0,0-0.7290001-1.5-1.4879999-3.0570002
		c-0.1679993,0.2190013-0.3359995,0.4380012-0.4949989,0.663002c0.5459995,1.1489997,1.0889988,2.289,1.3619995,2.862
		c0.1259995,0.269999,0.2010002,0.552,0.2010002,0.8549995c0,0.7680001-0.7140007,1.0380006-1.1160002,1.0380006
		c-0.4860001,0.0029998-0.9779997-0.3630009-0.9779997-0.8190007c0-0.2880006,0.1589994-0.4650006,0.3899994-0.4650006
		c0.5460005,0,0.5160007,0.4619994,0.4050007,0.75c0.3389997-0.1530004,0.54-0.4199996,0.4829998-0.7050004
		c0.1949997-0.0239983,0.3780003-0.1139989,0.5489998-0.3059993C-12.2150002-3.737-12.3769999-3.8630009-12.6260004-3.8660007
		c0.1080008-0.4440007-0.1890001-0.6300001-0.4829998-0.7319999c0.0929995,0.3239994,0.1560001,0.6959996-0.4049997,0.6959996
		c-0.408,0-0.7290001,0.0689993-0.9150009,0.3300004c-0.0089998-0.2849994-0.033-1.2089996-0.0359993-1.5599999
		c-0.3239994,0.513-0.6449995,1.0200005-0.927,1.5510006C-15.3950005-3.4879994-15.3979998-3.3770003-15.401-3.323
		c-0.0240002-0.0330005-0.0629997-0.0330005-0.0869999-0.0629997c-0.1800003,0.3449993-0.3390007,0.6989994-0.507,1.0499997
		C-16.0130005-2.2940001-16.0310001-2.2550001-16.052-2.2160001c-0.1830006,0.3900003-0.3810005,0.7709999-0.5430012,1.1729994
		c0.7440014-0.1079993,1.4970007-0.612,1.710001-1.5c0.2910004,0.7230005,0.9840002,1.1280012,1.6560001,1.2180004
		c-0.75,0.105001-1.5179996,0.612-1.7220001,1.5029998c-0.2969999-0.7229991-0.9869995-1.1219988-1.6499996-1.217999
		c-0.0990009,0.237-0.1739998,0.4799995-0.2609997,0.7199993c0.4680004,0.0239997,0.9329996,0.3779998,0.9329996,0.8280001
		c0,0.2940001-0.1589994,0.4680004-0.3900003,0.4680004c-0.5459995,0-0.5160007-0.4680004-0.4049988-0.7620006
		c-0.3390007,0.1530004-0.5370007,0.4260006-0.4830017,0.717001c-0.0509987,0.0059996-0.0959988,0.0659995-0.1439991,0.0809999
		c-0.0480003,0.1499991-0.1140003,0.2940001-0.1590004,0.4469991c0.0869999,0.0480008,0.1860008,0.0809999,0.3059998,0.0840011
		c-0.1110001,0.4469991,0.1890011,0.6389995,0.4829998,0.743999c-0.0959988-0.3300004-0.1560001-0.7080002,0.4020004-0.7080002
		c0.408,0,0.7290001-0.0720005,0.9150009-0.336c0.0119991,0.3540001,0.0419998,1.7579999,0.0419998,1.7579999
		c0.0240002,0.5280004-0.7019997,0.5100002-1.1639996,0.3540001c0.1739998,0.6090002,0.5309992,0.9329996,1.355999,0.849
		c-0.198,0.0810013-0.4109993,0.2730017-0.4109993,0.6390009c0,0.4919987,0.3959999,1.0410004,0.6599998,1.1999989
		l0.0119991-0.4050007c0.2610006-0.1679993,0.651001-0.6899986,0.651001-1.1729994
		c0-0.3599997-0.2130003-0.5429993-0.4140005-0.6270003c0.8249998,0.0780015,1.1820002-0.2429996,1.3559999-0.8399992
		C-13.7779999,3.151-14.5039997,3.1690001-14.4799995,2.6500006c0,0,0.033-1.3800001,0.0419998-1.7280006
		c0.1859999,0.2609997,0.507,0.3300004,0.915,0.3300004c0.5580006,0,0.4980001,0.375,0.4049997,0.6959996
		c0.2969999-0.1019998,0.5970001-0.2880006,0.4860001-0.7319999c0.2519999-0.0059996,0.4140005-0.1290007,0.5489998-0.2969999
		c-0.1680002-0.1860008-0.3509998-0.276-0.5459995-0.3029995c0.0539989-0.2849994-0.144001-0.5549998-0.4829998-0.7050004
		C-13.0039997,0.2020006-12.9710007,0.664-13.5170002,0.664c-0.2279997,0-0.3899994-0.1740003-0.3899994-0.4650006
		c0-0.4559999,0.4920006-0.8220005,0.9750004-0.8220005c0.4049997,0,1.1159992,0.2670007,1.1159992,1.0380006
		c0,0.3059993-0.0779991,0.5880003-0.2009993,0.8549995c-0.5910006,1.2570004-2.4960003,5.2529998-2.9040003,6.0900006
		c-0.0360003,0.0870008-0.0480003,0.1740017-0.0750008,0.2609997C-15.4610004,6.6340008-16.9580002,3.448-17.6450005,1.9749994
		c-0.1110001,0.381001-0.2010002,0.7680001-0.2939987,1.1490011c0.6599998,1.3769989,1.7999992,3.7590008,2.3519993,4.9050007
		c0.1020002,0.2070007,0.132,0.4439993,0.132,0.7890015c0,0.5340014-0.5160007,0.9720011-1.0559998,0.9840002
		c-0.4920006,0.0149975-1.0290012-0.4590025-1.0290012-0.9990034c0-0.6569996,0.3390007-0.948,0.684-0.948
		c0.4290009,0,0.6000004,0.177,0.6000004,0.4770012c0,0.2099991-0.1019993,0.3029995-0.2489986,0.3029995
		c-0.3690014,0-0.2639999-0.4949999-0.2639999-0.4949999c-0.1800003,0.0389986-0.3299999,0.2280006-0.2490005,0.4620008
		c-0.132,0.0269995-0.2580013,0.099-0.3570004,0.2099991c0.1049995,0.0959988,0.2159996,0.1679993,0.3630009,0.1949987
		c-0.0869999,0.2850008,0.0299988,0.4230022,0.2759991,0.4830008c-0.0510006-0.1080008-0.0510006-0.2099991-0.032999-0.3060007
		c0.3929996,0.1109991,0.9899998-0.0660009,0.9899998-0.7469988c0-0.6750011-0.4680004-1.2419987-1.3380013-1.1009989
		c0.2070007-0.0960016,0.3120003-0.3000011,0.3330002-0.5280018c-0.1590004,0.0600014-0.3330002,0.0689993-0.3330002,0.0689993
		c0.1020012-0.1800013,0.2460003-0.3360014,0.2370014-0.6899986c-0.1620007,0.0749989-0.3120003,0.2099991-0.519001,0.1230011
		c0.3000011-0.5909986-0.0389996-1.3649998-0.8850002-1.6500006c-0.0149994,0.0659981-0.0209999,0.131999-0.032999,0.198
		c0.230999,0.3570013,0.3809986,0.7259989,0.3809986,1.0980005c0,1.5269995-0.4230003,1.7819996-0.4230003,2.8439999
		c0,0.3929987,0.2070007,0.7919998,0.5550003,1.1099997c-0.1679993,0.0240011-0.3299999,0.0510006-0.4769993,0.0930004
		c0.0599995,0.1080008,0.2129993,0.1529989,0.3239994,0.2280006c-0.1110001,0.0749989-0.2639999,0.1230011-0.3239994,0.230999
		c0.1439991,0.0389986,0.3059998,0.0689993,0.4680004,0.0930004c-0.342001,0.3120003-0.5459995,0.7020006-0.5459995,1.0830002
		c0,1.0439987,0.4229984,1.2960005,0.4229984,2.7989988c0,0.3389997-0.132,0.6779995-0.3330002,1.0050001
		c0.0150013,0.0810013,0.0210018,0.1679993,0.0360012,0.2490005c0.8039989-0.2969999,1.125-1.0350008,0.8309994-1.6049995
		c0.2070007-0.0870008,0.3570004,0.0479994,0.519001,0.1199999c0.0059986-0.3480005-0.1350002-0.5040007-0.2369995-0.6810007
		c0,0,0.1769981,0.0090008,0.3330002,0.0689993c-0.0240002-0.2249994-0.1260014-0.4260006-0.3330002-0.5250006
		c0.8729992,0.1379986,1.3379993-0.4169998,1.3379993-1.0830002c0-0.6689987-0.6000004-0.8430004-0.9899998-0.7320013
		c-0.0179996-0.0959988-0.0149994-0.1920004,0.0359993-0.3029995c-0.2490005,0.0570002-0.362999,0.1949987-0.2759991,0.474
		c-0.144001,0.0269995-0.2580013,0.099-0.3570004,0.1920004c0.098999,0.1109991,0.2220001,0.1800013,0.3570004,0.2099991
		c-0.0869999,0.230999,0.0629997,0.4139986,0.2489986,0.4560013c0,0-0.1049995-0.4890003,0.2639999-0.4890003
		c0.1470013,0,0.2490005,0.0899992,0.2490005,0.2969999c0,0.2969999-0.1709995,0.4709988-0.6000004,0.4709988
		c-0.3479996,0-0.684-0.2879992-0.684-0.9329996c0-0.5340014,0.5370007-0.9959993,1.0319996-0.9840002
		c0.5400009,0.0150003,1.0560007,0.4439993,1.0560007,0.9689999c0,0.3389997-0.033,0.573-0.132,0.7769995
		c-0.5369997,1.0980005-1.6260004,3.3359985-2.2949991,4.7070007c0.0959988,0.3780003,0.1799984,0.7619991,0.2909985,1.1340008
		c0.7530003-1.5810013,2.3100004-4.8480005,2.6730003-5.5980005c0.4050007,0.8370008,2.3129997,4.8330011,2.9069996,6.0870008
		c0.1260004,0.2640018,0.2010002,0.5489979,0.2010002,0.8549995c0,0.7679996-0.7139997,1.0380001-1.1160002,1.0380001
		c-0.4829998,0-0.9749994-0.3660011-0.9749994-0.8220024c0-0.2879982,0.1589994-0.4649982,0.3899994-0.4649982
		c0.5460005,0,0.5160007,0.4619999,0.4050007,0.75c0.3389997-0.152998,0.54-0.4200001,0.4829998-0.7049999
		c0.1919994-0.0269985,0.3780003-0.1169968,0.5459995-0.3059998c-0.132-0.1679993-0.2969999-0.2910004-0.5459995-0.2970009
		c0.1079998-0.4439983-0.1890001-0.6269989-0.4829998-0.7320004c0.0929995,0.3239994,0.1560001,0.6960011-0.4050007,0.6960011
		c-0.407999,0-0.7290001,0.0690002-0.915,0.329998c-0.0120001-0.3479996-0.0419998-1.7280006-0.0419998-1.7280006
		c-0.0240002-0.519001,0.7020006-0.5039997,1.1639996-0.3479996c-0.1740007-0.5970001-0.5310001-0.9179993-1.3559999-0.8370018
		c0.2010002-0.0839996,0.4139996-0.2669983,0.4139996-0.6269979c0-0.4859991-0.3959999-1.026-0.6599998-1.1850014
		c-0.2609997,0.1590014-0.6599998,0.6960011-0.6599998,1.1850014c0,0.3599997,0.2129993,0.5429983,0.4139996,0.6269979
		c-0.8280001-0.0810013-1.1849995,0.2430019-1.355999,0.8370018c0.4619999-0.1560001,1.1879997-0.1710014,1.1639996,0.3479996
		c0,0-0.0360003,1.3800011-0.0420008,1.7280006c-0.1859999-0.2609978-0.507-0.329998-0.915-0.329998
		c-0.5579987,0-0.4979992-0.375-0.4049988-0.6960011c-0.2940006,0.1049995-0.5939999,0.2910004-0.4829998,0.7320004
		c-0.078001,0-0.1350002,0.0330009-0.1980019,0.0540009c0.1080017,0.3419991,0.2490005,0.671999,0.3690014,1.0079994
		c0.0839996,0.0930023,0.1800003,0.1830006,0.3150005,0.2460003c-0.1080017-0.2910004-0.144001-0.75,0.4049988-0.75
		c0.2280006,0,0.3900003,0.1739979,0.3900003,0.4649982c0,0.4080009-0.3989992,0.7290001-0.8310003,0.795002
		c0.0930004,0.230999,0.1680012,0.4680004,0.2639999,0.6960011c0.6720009-0.1259995,1.335001-0.5610008,1.578001-1.323
		c0.2550001,0.8010006,0.9779997,1.2540016,1.6889992,1.3499985c-0.7080002,0.0990009-1.4309998,0.5489998-1.6889992,1.3500004
		c-0.2400007-0.75-0.8880005-1.1789989-1.5480003-1.3139992c0.5640001,1.3139992,1.2449999,2.5620003,1.9920006,3.7709999
		c0.0089998-0.3509998,0.033-1.277998,0.0389996-1.5600014c0.1859999,0.2609997,0.507,0.3299999,0.915,0.3299999
		c0.5580006,0,0.4980001,0.375,0.4049997,0.6959991c0.2940006-0.1049995,0.5939999-0.2910004,0.4830008-0.7320004
		c0.2519999-0.0059986,0.4110003-0.1289997,0.5459995-0.296999c-0.1709995-0.1889992-0.3540001-0.2790031-0.5459995-0.3060017
		c0.0539999-0.2850018-0.1440001-0.5550022-0.4830008-0.7049999c0.1080008,0.2910004,0.1410007,0.75-0.4049997,0.75
		c-0.2279997,0-0.3899994-0.1739979-0.3899994-0.4619999c0-0.4560013,0.4919996-0.8220005,0.9750004-0.8220005
		c0.4049997,0,1.1160002,0.2669983,1.1160002,1.0379982c0,0.3060017-0.078001,0.5880013-0.2010002,0.8549995
		c-0.2699995,0.5730019-0.816,1.7130013-1.3619995,2.8619995c0.1619987,0.2249985,0.3269997,0.4440002,0.4949989,0.6629982
		c0.7560005-1.5569992,1.4880009-3.0569992,1.4880009-3.0569992c0.2519999-0.5250015,0.3569994-0.8669987,0.3569994-1.4129982
		c0-0.8730011-0.5699997-1.5300026-1.599-1.6529999c1.0290003-0.1199989,1.599-0.7770004,1.599-1.6529999
		c0-0.5459995-0.1019993-0.8909988-0.3569994-1.4129982c0,0-2.0550003-4.2270012-2.8559999-5.8649998
		c-0.1020002-0.2039995-0.1320009-0.4350014-0.1320009-0.7769995c0-0.5250006,0.5160007-0.9570007,1.0560007-0.9689999
		c0.4919996-0.0119991,1.0320005,0.4560013,1.0320005,0.9840002c0,0.6450005-0.3390007,0.9329996-0.684,0.9329996
		c-0.4289999,0-0.6000004-0.1739988-0.6000004-0.4709988c0-0.2070007,0.1019993-0.2969999,0.2489996-0.2969999
		c0.3690004,0,0.2640009,0.4890003,0.2640009,0.4890003c0.1799994-0.0389986,0.329999-0.2249994,0.2489996-0.4560013
		c0.131999-0.0300007,0.2579994-0.099,0.3569994-0.2099991c-0.099-0.0959988-0.2099991-0.1679993-0.3569994-0.1920004
		c0.0869999-0.2790012-0.0299997-0.4169998-0.276-0.474c0.0480003,0.1080008,0.0509996,0.2070007,0.0360003,0.3029995
		c-0.408-0.0930004-1.0080004,0.0810013-1.0080004,0.75c0,0.6629992,0.4680004,1.2209988,1.3380003,1.0830002
		c-0.2069998,0.099-0.3149996,0.3000011-0.3330002,0.5250006c0.1590004-0.0600014,0.3330002-0.0689993,0.3330002-0.0689993
		c-0.1019993,0.1800013-0.2459993,0.329999-0.2399998,0.6810007c0.1619997-0.0720005,0.3120003-0.2070007,0.5190001-0.1199999
		c-0.3239994,0.6330013,0.0750008,1.5030012,1.092001,1.7099991c-0.3840017-0.4289989-0.5700016-0.8909969-0.5700016-1.3589973
		c0-1.5030012,0.4230003-1.7550001,0.4230003-2.7989988c0-0.4320002-0.2280006-0.9000006-0.6690006-1.2180004
		c0.2910004-0.0810013,0.4800005-0.2189999,0.5909996-0.4139986C-11.5580006,10.0030012-11.5640001,10-11.5669994,10
		c0.0060005,0,0.0119991-0.0030012,0.0150003-0.0030012c-0.1080008-0.1919975-0.3000002-0.3330002-0.5880013-0.4139986
		c0.4440002-0.3210011,0.6689997-0.7860003,0.6689997-1.2180004c0-1.0439987-0.4229994-1.2960005-0.4229994-2.7989988
		c0-0.4649992,0.1799994-0.9300013,0.5549994-1.3619986c-1.0199995,0.2039995-1.4159994,1.0770006-1.092,1.7099991
		c-0.21,0.0839996-0.3599997-0.0479994-0.5220003-0.1230011c-0.0060005,0.3509989,0.1350002,0.5040007,0.2399998,0.6839991
		c0,0-0.177-0.0090008-0.3330002-0.0689993c0.0209999,0.2249994,0.1260004,0.4260006,0.3330002,0.5250006
		c-0.8730001-0.1409998-1.3379993,0.4139986-1.3379993,1.079999c0,0.6689987,0.5999994,0.8430004,0.9899998,0.7320013
		c0.0150013,0.0899992,0.012001,0.1889992-0.0359993,0.2969999c0.2490005-0.0570002,0.3630009-0.1949987,0.276001-0.474
		c0.1440001-0.0269995,0.2579994-0.099,0.3569994-0.1920004c-0.099-0.1109991-0.2250004-0.1800013-0.3569994-0.2099991
		c0.0869989-0.2310019-0.0630007-0.4170027-0.2490005-0.4530001c0,0,0.1049995,0.4890003-0.2640009,0.4890003
		c-0.1469994-0.0000029-0.2459993-0.0900021-0.2459993-0.2970028c0-0.2969999,0.1709995-0.4709988,0.6000004-0.4709988
		c0.3479996,0,0.684,0.2879992,0.684,0.9329996c0,0.5340014-0.5369997,0.9990005-1.0320005,0.9840002
		c-0.5369997-0.0119991-1.0500002-0.4439993-1.0500002-0.9689999c0-0.3389997,0.033-0.573,0.132-0.7769995
		C-13.4449997,5.9709988-11.3900003,1.7440004-11.3900003,1.7440004z M-13.7539997,9.9759989
		C-13.7269993,9.9880009-13.6940002,9.9909992-13.6639996,10c-0.0270004,0.0090008-0.0629997,0.0119991-0.0900002,0.0240011
		c-0.6120005,0.0689993-1.0380001,0.5340014-1.1640005,0.7679987c-0.0839996-0.1590014-0.342-0.3840008-0.6689997-0.5579996
		c0.3239994-0.1800013,0.5819998-0.4050007,0.6689997-0.5670004c0.0360003-0.0689993,0.0749998-0.1860008,0.1110001-0.329999
		C-14.6269999,9.5830002-14.2790003,9.9160004-13.7539997,9.9759989z"/>
	<path class="st1" d="M-13.7329998-6.302c-0.1350002,0.198-0.2639999,0.4019995-0.3930006,0.6030006
		c0.2460003-0.0599999,0.5609999-0.0300007,0.8129997,0.0540004C-13.3999996-5.9359994-13.5289993-6.1580005-13.7329998-6.302z"/>
	<path class="st1" d="M-11.342-6.8480005C-11.7139997-7.2800007-11.8970003-7.7479997-11.8970003-8.21
		c0-0.2069998,0.0240002-0.3450003,0.0360003-0.5100002c-0.2189999,0.2580004-0.4349995,0.5190001-0.6479998,0.783
		C-12.4309998-7.4569993-12.0469999-6.9920001-11.342-6.8480005z"/>
</g>
<path class="st2" d="M10-18.5c15.5999985,0,28.5,12.9000006,28.5,28.5S25.5999985,38.5,10,38.5S-18.5,25.5999985-18.5,10
	S-5.5999994-18.5,10-18.5 M10-20C-6.5-20-20-6.5-20,10s13.5,30,30,30s30-13.5,30-30S26.5-20,10-20L10-20z"/>
</svg>
