<?xml version="1.0" encoding="utf-8"?>
<svg version="1.1" id="Layer_1" xmlns="http://www.w3.org/2000/svg" xmlns:xlink="http://www.w3.org/1999/xlink" x="0px" y="0px"
	 viewBox="-22 -22 64 64" style="enable-background:new 0 0 20 20;" xml:space="preserve">
<style type="text/css">
	.st0{fill:#FFFFFF;stroke:#B6B6B6;stroke-width:0.15;}
	.st1{fill:#ED1C24;}
	.st2{fill:#00A651;}
	.st3{fill:#CCCCCC;}
</style>
<circle class="st0" cx="10" cy="10" r="28.8000011"/>
<path class="st1" d="M10-18.7999992c-10.6529999,0-19.9319992,5.7989988-24.9150009,14.3999996h49.8300018
	C29.9319973-13.0010004,20.6529999-18.7999992,10-18.7999992z"/>
<path class="st1" d="M34.9150009,24.4000015H-14.915C-9.9320002,33.0009995-0.6529989,38.8000031,10,38.8000031
	S29.9319973,33.0009995,34.9150009,24.4000015z"/>
<path class="st2" d="M7.3929987,13.9539995C7.4439993,13.948,7.5279989,13.9630003,7.6419992,13.980999
	c0.2280006,0.0360003,0.4379997,0.2249994,0.4709988,0.4260006c0.0419998,0.2459993,0.0209999,0.4169998-0.0389986,0.506999
	c-0.0059996,0.0059996-0.0119991,0.0179987-0.0179987,0.0240011c-0.0059996,0.0059996-0.0150003,0.0150003-0.0209999,0.0209999
	C8.0319996,14.9620008,8.026,14.9649992,8.0230017,14.9680004c-0.0119991,0.0090008-0.0269995,0.0150003-0.0389986,0.0179987
	c-0.0059996,0.0030012-0.0150003,0.0030012-0.0209999,0.0030012c-0.0090008,0-0.0240011,0-0.0360003,0
	C7.8100042,14.974,7.6570024,14.8270006,7.5250034,14.5419998c-0.1530046-0.329999-0.2250023-0.4859991-0.1950045-0.5489988
	c0.0030012-0.0059996,0.0059996-0.0119991,0.0119991-0.0150003C7.3540001,13.9659986,7.3719988,13.9570007,7.3929987,13.9539995z
	 M9.1719999,13.6359997c0.2879992-0.0090008,0.9899998,0.1529989,1.079999,0.2609997l0.0030012,0.0030012l0.0030012,0.0030012
	v0.0030012l0.0030012,0.0030012v0.0030012v0.0030012v0.0030012c-0.0090008,0.0749989-0.1949987,0.3780012-0.420001,0.6839991
	L9.427,15.1600008l-0.2159986-0.7199993C9.1030006,14.0800018,9.0370026,13.7560024,9.052,13.6780024v-0.0030012
	l0.0030012-0.0030012v-0.0030012l0.0030012-0.0030012l0.0030012-0.0030012l0.0030012-0.0030012h0.0030012l0.0030012-0.0030012
	l0.0059996-0.0030012C9.0999994,13.6419992,9.1330013,13.6359997,9.1719999,13.6359997z M5.5179987,13.3630009
	c0.032999-0.0030012,0.0720005,0,0.1109991,0c0.4799995,0,0.7440004,0.3959999,0.7440004,1.1130009
	c0,0.9659986-0.5880003,0.8879986-0.8580008-0.1109991C5.2810001,13.4919987,5.256999,13.3780012,5.5179987,13.3630009z
	 M18.3010006,12.5830002c0.0119991,0,0.0269985,0,0.0360012,0c0.1049995,0,0.3419991,0.1199999,0.5309982,0.2729988
	c0.3360023,0.2700005,0.3330002,0.2879992-0.0839996,0.782999c-0.218998,0.2550001-0.441,0.4560013-0.519001,0.4709988h-0.0030003
	h-0.0030003h-0.0030022h-0.0030022c-0.0569992-0.0179987-0.362999-0.0660009-0.6809998-0.1080008
	c-0.3509979-0.0479994-0.573-0.1889992-0.573-0.3630009c0-0.0090008,0.0030003-0.0179987,0.0030003-0.0269995
	C17.0559998,13.3210011,17.9289989,12.6280012,18.3010006,12.5830002z M15.756999,12.0340014
	c0.6960001-0.032999,1.0739985,0.4410009,0.3179998,1.026c-0.4859991,0.3780012-1.2030001,0.3929987-1.6469994,0.0360003
	c-0.3210011-0.2580013-0.3029995-0.2939987,0.2790012-0.6839991C15.073,12.1600008,15.4449987,12.0489988,15.756999,12.0340014z
	 M3.7059999,10.2790012c0.2579999,0,0.4889989,0.0150003,0.6389995,0.045001
	c0.2490005,0.0510006,0.4110003,0.1199999,0.4919987,0.2039995c0.0179987,0.0179987,0.032999,0.0389986,0.0389986,0.0600014
	c0.0059996,0.0090008,0.0090008,0.0240011,0.0119991,0.0360003c0.0059996,0.0209999,0.0030012,0.045001,0,0.0660009
	c-0.0300007,0.1529989-0.2490005,0.3360014-0.651,0.5489988c-0.336,0.177-0.9030004,0.3809996-1.263,0.4499989
	c-0.5999994,0.1140003-0.6809993,0.0720005-0.9299998-0.4620008C1.8969965,10.9090014,1.7769952,10.6120014,1.7739954,10.552
	v-0.0030012c0,0,0-0.0059996,0-0.0090008l0.0029998-0.0030012c0,0,0.0029998-0.0059996,0.0029998-0.0090008l0.0029998-0.0030012
	C1.9060001,10.3990011,2.9439993,10.2790012,3.7059999,10.2790012z M11.4759989,9.4990005
	c0.131999-0.0179987,0.3089991,0.1800013,0.3540001,0.5100002c0.0269995,0.1920004,0,0.3570013-0.0600014,0.407999
	l-0.0030012,0.0030012c-0.0030012,0.0030012-0.0059996,0.0030012-0.0059996,0.0030012
	c-0.0030012,0-0.0090008,0.0030012-0.0119991,0.0030012l-0.0030012,0.0030012h-0.0030012h-0.0059996h-0.0030012h-0.0030012
	c-0.2519989,0-0.3959999-0.2280006-0.3959999-0.6330013C11.3320007,9.6040001,11.3950005,9.5109997,11.4759989,9.4990005z
	 M10.2399998,8.7640009c0.0689993-0.0059996,0.1409998,0.0600014,0.2609997,0.1949987
	c0.1529989,0.1679993,0.3270006,0.4859991,0.3959999,0.7110014c0.1560001,0.5400009-0.0899992,0.7650003-0.5699987,0.5219994
	c-0.519001-0.2609997-0.6450005-0.6779995-0.3480005-1.1490011C10.0959988,8.8630009,10.1650009,8.7729988,10.2399998,8.7640009z
	 M6.6939993,8.6889992C6.8470011,8.6679993,7.0899992,8.7700005,7.3360014,8.974C7.5040007,9.1149998,7.573,9.25,7.5699987,9.349
	c0,0.0090008-0.0030012,0.0209999-0.0030012,0.032999c0,0.0059996-0.0030012,0.0150003-0.0030012,0.0179987
	c0,0.0059996-0.0030012,0.0119991-0.0059996,0.0179987C7.5550013,9.4179993,7.552,9.427,7.5489988,9.4329996
	c0,0.0030012-0.0030012,0.0059996-0.0030012,0.0059996C7.5429993,9.4420004,7.5400009,9.448,7.5369997,9.448
	C7.5310001,9.4570007,7.5219994,9.4630003,7.5159998,9.4689999c-0.0030012,0-0.0059996,0.0059996-0.0059996,0.0090008
	C7.407999,9.5560007,7.1920004,9.5350008,6.9399986,9.3459988C6.7359991,9.1870003,6.5679998,8.9799995,6.5500011,8.875
	c0-0.0030012,0-0.0059996,0-0.0090008s0-0.0059996,0-0.0090008C6.5529995,8.7580013,6.6040001,8.7039995,6.6939993,8.6889992z
	 M8.9229994,8.2869997c0.0150003,0,0.0300007,0,0.0389986,0c0.0300007,0,0.0570002,0.0059996,0.0810013,0.0150003
	c0.0179987,0.0059996,0.0360003,0.0150003,0.045001,0.0240011c0.0059996,0,0.0119991,0.0059996,0.0150003,0.0089979
	c0.0030012,0.0030012,0.0059996,0.0059996,0.0090008,0.0090008c0,0.0030012,0.0059996,0.0059996,0.0059996,0.0090008
	s0.0059996,0.0059996,0.0059996,0.0090008c0.0539989,0.0689993,0.0720005,0.1889992,0.0510006,0.3509989
	C9.1030006,9.2349997,8.7580013,9.3879986,8.6080008,8.9589996C8.4730005,8.5780001,8.6020012,8.3079996,8.9229994,8.2869997z
	 M15.5949993,7.329999C15.9489994,7.2999983,16.3089981,7.552,16.2579994,7.9509983
	c-0.0660019,0.5100002-0.6210003,0.6569996-1.0799999,0.2879992c-0.2729988-0.2220011-0.2819996-0.3029995-0.0720005-0.6209993
	C15.2259989,7.4379997,15.4090014,7.3449993,15.5949993,7.329999z M3.8439999,5.4909992
	C4.1619997,5.4819984,4.3569984,5.631999,4.6119986,6.0670004l0.3570013,0.6119986L4.4320002,6.888998
	C3.9459996,7.0749989,3.862,7.0389986,3.4600005,6.4719982C3.2080002,6.1149998,3.112,5.8780012,3.1810007,5.7249994
	c0.0059996-0.0150003,0.0150003-0.0300007,0.0239997-0.0389986C3.2080002,5.6829996,3.2139997,5.677,3.217001,5.6740017
	c0.0029998-0.0030012,0.0089993-0.0090008,0.0120006-0.0119991c0.0900006-0.0899992,0.2730002-0.1409998,0.552-0.1650009
	C3.802,5.4969988,3.823,5.4940004,3.8439999,5.4909992z M5.8089991,5.1610003c0.0119991,0,0.0240011,0,0.0360003,0
	c0.7469988,0,0.849,0.1290007,0.4859991,0.6090002C6.2109985,5.9320002,5.9769983,6.1719999,5.8149986,6.3100014
	C5.5629997,6.5170021,5.4849997,6.493001,5.3259983,6.1690016C5.1369991,5.776,5.0770006,5.5179987,5.170001,5.3620014
	C5.2540007,5.224,5.4639997,5.1639986,5.8089991,5.1610003z M13.4139986,5.026
	c0.1920004-0.0090008,0.3990011,0.0269995,0.605999,0.1109991c0.3690004,0.1560001,0.4410009,0.2879992,0.3719988,0.6929998
	c-0.0959988,0.5489988-0.3959999,0.6119986-1.4189987,0.2850008c-0.5040007-0.1619997-0.5550013-0.2370014-0.3959999-0.5699987
	C12.7270012,5.2299995,13.045001,5.0469999,13.4139986,5.026z M9.9759989,4.5760012c0.0119991,0,0.0179987,0,0.0269995,0
	c0.407999,0,0.474,0.3599997,0.1080008,0.5760012c-0.1710005,0.1019983-0.3359985,0.1769972-0.3900003,0.185998
	c-0.0030012,0-0.0059996,0.0030012-0.0059996,0.0030012c-0.0030012,0-0.0059996-0.0030012-0.0059996-0.0030012
	C9.6760006,5.3260012,9.4510012,5.2540007,9.204999,5.1729994L8.763998,5.0229988l0.4980011-0.2249994
	C9.5229988,4.6839991,9.8289995,4.5880003,9.9759989,4.5760012z M11.5720005,4.4890003
	c0.2039995-0.0269995,0.329999,0.198,0.2609997,0.6090002c-0.0389986,0.2280006-0.243001,0.3869991-0.5460005,0.4229994
	c-0.2340002,0.0300007-0.3780012,0.0209999-0.4320002-0.045001l-0.0029984-0.0059996
	C10.849,5.4669981,10.8460016,5.4609985,10.8430004,5.4580002c0,0-0.0030012-0.0059996-0.0030012-0.0090008L10.836998,5.4459982
	c0-0.0030012-0.0030012-0.0119991-0.0030012-0.0150003c-0.0269995-0.1080008,0.0870008-0.3120003,0.3330002-0.6419992
	C11.3110008,4.5999994,11.454999,4.5009995,11.5720005,4.4890003z M7.5670004,2.6229997c0.0119991,0,0.0269995,0,0.0360003,0
	c0.4260006,0,0.1619997,0.8040004-0.3869991,1.1729994c-0.486002,0.3300004-1.0050001,0.4710002-1.1490011,0.3419995
	L6.0639992,4.1350002C6.052,4.1259995,6.0400009,4.1140003,6.0340014,4.1020012
	c0-0.0030012-0.0030012-0.0059996-0.0030012-0.0090008S6.0279989,4.0839996,6.0279989,4.0810013
	c0-0.0030012-0.0030012-0.0059996-0.0030012-0.0090008s0-0.0090008,0-0.0119991
	c0-0.0059996-0.0030012-0.0150003-0.0030012-0.0179987V4.0419998C6.0340014,3.6010003,7.0600014,2.6680007,7.5670004,2.6229997z
	 M12.9460011,1.6690001c0.3509989-0.0120006,0.3959999,0.1560001,0.2249994,0.6480002
	c-0.0600014,0.1710005-0.3060007,0.3090005-0.5429993,0.3090005c-0.3509989,0-0.4260006-0.0869994-0.3809996-0.4379997
	c0.0389986-0.3150001,0.1949987-0.4589996,0.5429993-0.5009995C12.8470011,1.6779995,12.901,1.6719999,12.9460011,1.6690001z
	 M9.7540007,1.6660004C9.9940004,1.6450005,10.0900021,1.789,10.0900021,2.092001
	c0,0.3660007-0.1379986,0.4799995-0.7979994,0.6480002C8.8809996,2.8449993,8.5,2.8959999,8.4189987,2.8569999
	c-0.0030012,0-0.0059996-0.0029998-0.0059996-0.0029998L8.4100008,2.8510003
	C8.1789989,2.599,8.3800001,2.2750006,8.9499989,1.9749994C9.3160009,1.7830005,9.5770006,1.6810007,9.7540007,1.6660004z
	 M11.1429987,1.5490003c0.0059996,0,0.0059996,0,0.0119991,0c0.276,0,0.4620008,0.1290007,0.4980011,0.3449993
	c0.045001,0.2670007-0.0629997,0.3389997-0.4980011,0.3389997c-0.2459993,0-0.3869991-0.0269995-0.4560013-0.0960002
	c-0.0510006-0.0510006-0.0600014-0.1320004-0.0389986-0.2490005C10.6929998,1.6840005,10.8730011,1.552,11.1429987,1.5490003z
	 M6.4090014,1.0629997c0.0209999,0,0.0419998,0,0.0689993,0c0.1800013,0,0.3120003,0.0419998,0.3659992,0.1110005
	c0,0.0029998,0.0059996,0.0059996,0.0059996,0.0089993S6.8530006,1.1889992,6.8530006,1.191999
	C6.8620014,1.2009983,6.868001,1.2129989,6.868001,1.2249994c0,0.0029998,0.0030012,0.0089993,0.0030012,0.0120006
	c0,0.0029998,0,0.0120006,0,0.0150003s0,0.0089993,0,0.0120006c0,0.0059996-0.0030012,0.0150003-0.0030012,0.0180001
	S6.8649998,1.2880006,6.8649998,1.2910004C6.8289995,1.4169998,6.625,1.6450005,6.4089985,1.8010006
	c-0.1650009,0.1199999-0.2609997,0.1829996-0.3179998,0.177c-0.0030012,0-0.0119991-0.0029998-0.0150003-0.0029998
	S6.073,1.9719996,6.073,1.9719996C6.0699987,1.9689999,6.0670004,1.9630003,6.0639992,1.9600005
	C6.0250006,1.9119997,6.019001,1.7919998,6.019001,1.5759997C6.019001,1.1799998,6.0909986,1.0750003,6.4090014,1.0629997z
	 M9.6070013-4.4000006L9.1359997-3.6140003C8.8780012-3.1820002,8.2449999-2.5310001,7.7380009-2.1710005
	C7.2280006-1.8110008,6.6190004-1.2740011,6.3730011-0.980001L5.9320002-0.4429998l0.4709988-0.1229997
	C6.6610003-0.6350002,7-0.7459993,7.1560001-0.8120003C7.3120003-0.8779998,7.4379997-0.842001,7.4379997-0.7280006
	c0,0.0029998,0,0.0089993,0,0.0120006c0,0.0059996-0.0030012,0.0180001-0.0030012,0.0239997
	c-0.0689993,0.276-0.881999,0.9119997-1.5239983,1.1760006C5.2960005,0.7390003,4.3809996,1.4050007,4.2640009,1.6719999
	C4.2609997,1.6810007,4.2580013,1.6870003,4.2550001,1.6959996c0,0.0029998-0.0030012,0.0089993-0.0030012,0.0120006
	c0,0.0029998,0,0.0089993,0,0.0120006v0.0029998v0.0029998v0.0029998v0.0029998
	c0,0.0029998,0.0030012,0.0089993,0.0030012,0.0120006c0,0.0029998,0.0030012,0.0059996,0.0030012,0.0089993l0.0030012,0.0029998
	l0.0030012,0.0029998L4.267005,1.7619991C4.2700005,1.7620006,4.2729988,1.7650003,4.276,1.7680001
	c0.0720005,0.0510006,0.2700005,0.0570002,0.4980011,0.0059996c0.4050007-0.0869994,0.573-0.0300007,0.704999,0.2429996
	c0.2010012,0.4199996,0.0870008,0.6090002-0.3809996,0.6090002c-0.5639992,0-1.3709993,0.5670004-1.4760003,1.0440001
	C3.5469999,3.9879994,3.2379994,4.2519989,2.5750003,4.5550013C1.4949999,5.0469999,0.0999994,5.9919987,0.0040007,6.282999
	C0.0009995,6.2919998,0.0009995,6.3010006,0.0009995,6.3070002c0,0.4110003,0.9089999,0.3840008,2.2290001-0.0720005
	c0.2969999-0.1020012,0.4260006,0.0030012,0.6480002,0.5100002c0.276,0.6269989,0.2700005,0.6450005-0.3720002,1.4730005
	C2.0589991,8.7969999,1.6659989,9.0970011,1.237,9.1870003c-0.8519998,0.1800013-1.1160007,0.3509989-2.2260003,1.4580002
	c-0.5310001,0.5310001-1.0620003,0.9689999-1.1849999,0.9720011c-0.0449996,0.0030012-0.0780001,0.0090008-0.0960002,0.0240011
	l-0.0029998,0.0030012L-2.276,11.6470051l-0.0029998,0.0030012v0.0030012v-0.0030069v0.0030012v0.0030012v0.0030012
	c0,0,0,0.0059996,0,0.0090008v0.0030012c0,0.0030012,0.0029998,0.0090008,0.0029998,0.0119991
	c0,0,0.0029998,0.0059996,0.0029998,0.0090008s0.0029998,0.0059996,0.0029998,0.0090008
	c0.0900006,0.1650009,0.6749997,0.4859991,1.0020003,0.4859991c0.2429996,0,0.8280001-0.276,1.302-0.6120014
	c0.8309999-0.5880003,0.8729997-0.5970011,1.2089996-0.2609997c0.1920004,0.1889992,0.3510003,0.5610008,0.3510003,0.8220005
	c0,0.3959999-0.2130003,0.5760012-1.3049998,1.1309996c-0.8099999,0.4110003-1.7609997,1.1190004-2.5020003,1.8630009
	c-0.9959993,0.9959993-1.2810001,1.1820002-1.7039995,1.1130018c-0.2670007-0.0419998-0.4169998-0.0600014-0.4680004-0.0360012
	c-0.0029998,0-0.0059996,0.0030003-0.0059996,0.0030003l-0.0029998,0.0030022l-0.0029998,0.0030022
	c0,0.0089989-0.0029998,0.0179977-0.0029998,0.0209999c0,0.0509987,0.0900006,0.1559982,0.2520003,0.3330002
	c0.1530004,0.1709995,0.5100002,0.3089981,0.789,0.3089981c0.7620006,0,3.1799998-0.9000006,3.9240003-1.4609985
	c0.6900001-0.5219994,1.362-0.6209993,1.9199996-0.2939987c0.8610005,0.5100002-0.5789995,1.532999-3.2910004,2.3400002
	c-0.9959993,0.2999992-1.8629994,0.5879993-1.974,0.6599998c-0.0029998,0-0.0059996,0.0030022-0.0089993,0.0030022
	L-2.789,18.1300011l-0.0029998,0.0030003v0.0030003c-0.039,0.0629997,0.0180001,0.2340012,0.1350002,0.3900013
	c0.2819996,0.3780003,1.7100005,0.3959999,2.9249997,0.0360012c0.4860005-0.144001,1.698-0.6360016,2.6970005-1.0860023
	c1.8059993-0.8190002,1.8119988-0.8190002,2.441999-0.4860001c1.467001,0.7679996,1.3320007,2.1119995-0.4320002,4.3199997
	C4.2070007,22.2730026,3.526,22.7019997,2.2869997,23.0020027c-0.4589996,0.1109982-1.401,0.9990005-1.401,1.3199978
	c0,0.032999,0.0059996,0.0570011,0.0150003,0.078001h0.3179998c0.0689993-0.0510025,0.1409998-0.1230011,0.2100005-0.2159996
	c0.3930001-0.519001,1.1790004-0.8640003,1.9769998-0.8699989c0.8669987-0.0060005,1.9260006-0.4799995,2.7209988-1.2210007
	c0.6989994-0.6509991,1.4040012-0.8459969,1.9350014-0.5340004c0.2939987,0.1739998,0.5610008,0.1889992,0.9179993,0.0569992
	C9.6130009,21.3760033,9.9249983,21.493,9.9249983,21.9640026c0,0.2129993,0.2220011,0.4980011,0.5279989,0.671999
	c0.2910004,0.1679993,0.8100014,0.5699997,1.1519995,0.9000015c0.2580013,0.2519989,0.4499989,0.3689995,0.5489988,0.3689995
	c0.0030012,0,0.0119991,0,0.0150003,0s0.0090008,0,0.0119991,0l0.0059996-0.0030003l0.0059996-0.0030003
	c0.0030012-0.0030022,0.0090008-0.0060005,0.0150003-0.0090027l0.0030012-0.0030003l0.0030012-0.0030003l0.0030012-0.0030022
	l0.0030012-0.0030022c0-0.0030003,0.0030012-0.0059986,0.0030012-0.0089989c0-0.0030022,0.0030012-0.0060005,0.0030012-0.0060005
	c0-0.0030022,0.0030012-0.0060005,0.0030012-0.0090008s0.0030012-0.0090008,0.0030012-0.0119991
	c0-0.0030022,0-0.0119991,0-0.0149994c0.0119991-0.1110001-0.0749989-0.3330002-0.276-0.6479988
	c-0.1169987-0.1830006-0.1800013-0.3690014-0.1590014-0.4620018c0-0.0030022,0.0030012-0.0119991,0.0030012-0.0149994
	c0-0.0030022,0.0030012-0.0060005,0.0030012-0.0090027v-0.0030003l0.0030012-0.0030003
	c0.0030012-0.0030022,0.0059996-0.0090027,0.0059996-0.012001l0.0030012-0.0030003
	c0.0030012,0,0.0059996-0.0030003,0.0059996-0.0030003l0.0030012-0.0030022c0.0030012,0,0.0059996-0.0030022,0.0059996-0.0030022
	c0.1080008-0.0419998,0.6960011-0.0209999,1.3349991,0.0510025c1.125,0.1289997,1.2600002,0.1949978,1.9260006,0.968998
	c0.3270006,0.3810005,0.5970011,0.6180019,0.8160009,0.7200012h0.4530001
	c0.0959988-0.0419998,0.1650009-0.1080017,0.1800003-0.1710014c0-0.0030022,0.0030022-0.0060005,0.0030022-0.0090008
	s0-0.0090008,0-0.0119991c0-0.0030022,0-0.0060005,0-0.0090008s0-0.0059986,0-0.0090008v-0.0030022v-0.0030003
	c-0.0359993-0.1289997-0.704999-0.7619991-1.5059996-1.4310017c-1.8179998-1.5179977-2.0970011-2.072998-2.1030006-4.1729984
	c-0.0030012-1.2600002,0.0539989-1.578001,0.3480005-1.9050007c0.4589996-0.5040016,0.7080002-0.4919987,1.8359985,0.0959988
	c0.849,0.4439983,1.1159992,0.4799995,3.0450001,0.4379997c2.0730019-0.0450001,2.1330032-0.032999,3.177002,0.5820007
	c0.5849991,0.342001,1.2989979,0.8039989,1.5899982,1.0229988c0.6450005,0.4829998,1.2989979,0.519001,1.4549999,0.0749989
	c0.1800003-0.5250015-1.0439987-1.5419998-3.3480015-2.769001c-2.2919998-1.2209988-2.5319996-1.5600014-1.4759998-2.118001
	c0.6030006-0.3179998,0.6420002-0.3120003,1.5930023,0.2220011c0.7619972,0.4260006,1.112999,0.519001,1.6020012,0.4169998
	l0.6240005-0.131999L22,13.3929987c-0.7560005-0.618001-1.4880009-1.2779989-1.6259995-1.467001
	c-0.4020004-0.5400009-1.1789989-0.9000006-1.9440002-0.9000006c-0.3570004,0-0.6929989-0.0689993-0.7829971-0.1529989
	c-0.0030022-0.0030012-0.0090027-0.0090008-0.012001-0.0119991l-0.0030003-0.0030012c0,0-0.0030003-0.0059996-0.0030003-0.0090008
	c-0.2159996-0.3840008,0.4319992-0.5670004,2.2409973-0.6359997c2.4330006-0.0959988,2.769001-0.3809996,1.0920029-0.9210005
	c-0.6720009-0.2159986-1.6739998-0.4890003-2.2320023-0.6119986c-0.6809998-0.1469994-1.0559998-0.3060007-1.1520004-0.4890003
	c-0.0119972-0.0209999-0.0179977-0.045001-0.0209999-0.0660009c-0.0030003-0.0179987-0.0030003-0.0360003,0-0.0510006
	c0.0090027-0.0629997,0.045002-0.1290007,0.1080017-0.198c0.1140003-0.1259995,0.6599998-0.1109991,1.5900002,0.045001
	c1.0439987,0.177,1.6139984,0.2159986,1.7159977,0.0930004c0.1079998-0.1379986-0.375-0.4890003-1.434-1.0739994
	c-0.968998-0.5369997-2.1870003-1.401-2.7419968-1.9499989C16.2460022,4.4499989,15.427,3.8289995,14.9799995,3.6190004
	c-0.5880003-0.276-0.7800007-0.4680004-0.7020006-0.6840005c0.131999-0.3809996,1.0589991-0.3870006,1.6590014-0.0089993
	c0.2459984,0.1530004,0.882,0.276,1.4160004,0.2730002l0.9749985-0.0089993l-0.6450005-0.2609997
	c-0.6450005-0.2609997-2.3999996-1.5090008-2.5349998-1.7910004c-0.0030012-0.0059996-0.0059996-0.0150003-0.0059996-0.0180001
	s0-0.0059996,0-0.0089993V1.1079993l0,0l0.0030012-0.0029998l0.0030012-0.0029998L15.1510029,1.099
	c0.0720005-0.0510006,0.474-0.0750003,0.9629993-0.0479994l0.9750004,0.0540004l-1.4040012-1.0830002
	c-1.0290012-0.7949996-1.6650009-1.1339993-2.3879986-1.2899995C12.7570019-1.381999,12.130003-1.519999,11.9140015-1.5709982
	c-0.5820007-0.1350002-1.5570002-1.1550007-1.9560013-2.0429993L9.6070013-4.4000006z"/>
<path class="st3" d="M10-18.5c15.5999985,0,28.5,12.9000006,28.5,28.5S25.5999985,38.5,10,38.5S-18.5,25.5999985-18.5,10
	S-5.5999994-18.5,10-18.5 M10-20C-6.5-20-20-6.5-20,10s13.5,30,30,30s30-13.5,30-30S26.5-20,10-20L10-20z"/>
</svg>
