<?xml version="1.0" encoding="utf-8"?>
<svg version="1.1" id="Layer_1" xmlns="http://www.w3.org/2000/svg" xmlns:xlink="http://www.w3.org/1999/xlink" x="0px" y="0px"
	 viewBox="-22 -22 64 64" style="enable-background:new 0 0 20 20;" xml:space="preserve">
<style type="text/css">
	.st0{fill:#FFFFFF;stroke:#B6B6B6;stroke-width:0.15;}
	.st1{fill:#BF0A30;}
	.st2{fill:#002868;}
	.st3{fill:#FFFFFF;}
	.st4{fill:#CCCCCC;}
</style>
<circle class="st0" cx="10" cy="10" r="28.8000011"/>
<path class="st1" d="M35.6320038,23.0890007H-15.632c0.9569998,1.8689995,2.0879993,3.6329975,3.4169998,5.2349987h44.4330025
	C33.5410004,26.7220001,34.6720047,24.9580002,35.6320038,23.0890007z"/>
<path class="st1" d="M-6.5269995,33.5649986C-1.8469996,36.8530006,3.8439999,38.8000031,10,38.8000031
	s11.8469982-1.9470024,16.5270004-5.2350044H-6.5269995z"/>
<path class="st1" d="M26.5270004-13.5650005C21.8439999-16.8530006,16.1560001-18.7999992,10-18.7999992
	c-0.8850002,0-1.7550001,0.0539989-2.6190004,0.132v5.1029987H26.5270004z"/>
<path class="st1" d="M38.6679993,12.6190004h-57.3359985c0.1619987,1.8000011,0.5009995,3.5489988,0.9779987,5.2349997h55.3769989
	C38.1669998,16.1650009,38.5060043,14.4189987,38.6679993,12.6190004z"/>
<path class="st1" d="M7.3809996-3.0889997h28.2509956c-0.9570007-1.8690004-2.0879974-3.6329999-3.4140015-5.2349997H7.3809996
	V-3.0889997z"/>
<g>
	<path class="st2" d="M7.3809996,2.1279998V-3.092001v-5.2349987v-5.2380009v-5.1029987
		C-6.4310007-17.4200001-17.4200001-6.4310007-18.6679993,7.3809996H7.3809996V2.1279998z"/>
</g>
<path class="st1" d="M7.3809996,7.3809996h31.2840004C38.5,5.5780001,38.1640015,3.8259997,37.6840019,2.1339993
	L7.3809996,2.1279998V7.3809996z"/>
<path class="st3" d="M-10.3280001,0.6489997l4.6199999-3.3480005l4.6199999,3.3599997l-1.7669992-5.4449987l4.6199999-3.3510003
	h-5.7089996l-1.7640009-5.4329996l-1.7639995,5.427l-4.8870006,0.0059996
	c-0.1020002,0.1230001-0.1919994,0.2579999-0.2909994,0.3870006l4.0859995,2.9669995L-10.3280001,0.6489997z"/>
<path class="st4" d="M10-18.5c15.5999985,0,28.5,12.9000006,28.5,28.5S25.5999985,38.5,10,38.5S-18.5,25.5999985-18.5,10
	S-5.5999994-18.5,10-18.5 M10-20C-6.5-20-20-6.5-20,10s13.5,30,30,30s30-13.5,30-30S26.5-20,10-20L10-20z"/>
</svg>
