<?xml version="1.0" encoding="utf-8"?>
<svg version="1.1" id="Layer_1" xmlns="http://www.w3.org/2000/svg" xmlns:xlink="http://www.w3.org/1999/xlink" x="0px" y="0px"
	 viewBox="-22 -22 64 64" style="enable-background:new 0 0 20 20;" xml:space="preserve">
<style type="text/css">
	.st0{fill:#C1272D;}
	.st1{fill:#006233;}
	.st2{fill:none;stroke:#000000;stroke-width:0.0999;}
	.st3{fill:#CCCCCC;}
</style>
<circle class="st0" cx="10" cy="10" r="28.8000011"/>
<polygon class="st1" points="6.6009989,6.592001 -4.4000006,6.6040001 8.1219988,16.1619987 10,14.7280006 2.4099994,8.9320002 
	5.8780012,8.920001 "/>
<polygon class="st2" points="6.6009989,6.592001 -4.4000006,6.6040001 8.1219988,16.1619987 10,14.7280006 2.4099994,8.9320002 
	5.8780012,8.920001 "/>
<polygon class="st1" points="13.407999,6.5949993 9.9969988,-4.4000006 5.2180004,11.0770006 7.0959988,12.5109997 
	9.9969988,3.1270003 11.0770006,6.5949993 "/>
<polygon class="st2" points="13.407999,6.5949993 9.9969988,-4.4000006 5.2180004,11.0770006 7.0959988,12.5109997 
	9.9969988,3.1270003 11.0770006,6.5949993 "/>
<polygon class="st1" points="15.5080013,13.4019995 24.4000015,6.5949993 8.9229994,6.5980005 8.2060013,8.920001 
	17.5900002,8.9229994 14.7879992,11.0739994 "/>
<polygon class="st2" points="15.5080013,13.4019995 24.4000015,6.5949993 8.9229994,6.5980005 8.2060013,8.920001 
	17.5900002,8.9229994 14.7879992,11.0739994 "/>
<polygon class="st1" points="9.9969988,17.6049995 18.9040012,24.394001 14.1190004,8.9229994 11.7969999,8.920001 
	14.698,18.3039989 11.8840008,16.1679993 "/>
<polygon class="st2" points="9.9969988,17.6049995 18.9040012,24.394001 14.1190004,8.9229994 11.7969999,8.920001 
	14.698,18.3039989 11.8840008,16.1679993 "/>
<polygon class="st1" points="4.4949999,13.3959999 1.1049995,24.4000015 13.6240005,14.8330002 12.9069996,12.5109997 
	5.3139992,18.3100014 6.3759995,14.8389997 "/>
<polygon class="st2" points="4.4949999,13.3959999 1.1049995,24.4000015 13.6240005,14.8330002 12.9069996,12.5109997 
	5.3139992,18.3100014 6.3759995,14.8389997 "/>
<path class="st3" d="M10-18.5c15.5999985,0,28.5,12.9000006,28.5,28.5S25.5999985,38.5,10,38.5S-18.5,25.5999985-18.5,10
	S-5.5999994-18.5,10-18.5 M10-20C-6.5-20-20-6.5-20,10s13.5,30,30,30s30-13.5,30-30S26.5-20,10-20L10-20z"/>
</svg>
