<?xml version="1.0" encoding="utf-8"?>
<svg version="1.1" id="Layer_1" xmlns="http://www.w3.org/2000/svg" xmlns:xlink="http://www.w3.org/1999/xlink" x="0px" y="0px"
	 viewBox="-22 -22 64 64" style="enable-background:new 0 0 20 20;" xml:space="preserve">
<style type="text/css">
	.st0{fill:#DC171C;}
	.st1{fill:#47AECF;}
	.st2{fill:#FBEA0F;}
	.st3{fill:#CCCCCC;}
</style>
<path class="st0" d="M19.5999985-17.1259995C16.5909996-18.1879997,13.3719988-18.7999992,10-18.7999992
	C-5.9060001-18.7999992-18.8000011-5.9060001-18.8000011,10S-5.9060016,38.8000031,10,38.8000031
	c3.3719988,0,6.5910015-0.6120033,9.5999985-1.6740036V-17.1259995z"/>
<path class="st1" d="M38.8000031,10c0-12.5340004-8.0220013-23.1690006-19.2000008-27.1259995v54.2519989
	C30.7780018,33.1689987,38.8000031,22.5340004,38.8000031,10z"/>
<path class="st2" d="M0.4000006,4.2399998c-2.3580008,0-4.3800001-1.4219999-5.2709999-3.4500003
	c0,0.0330005-0.0089993,0.0599999-0.0089993,0.0930004c0,2.9160004,2.3640003,5.2799993,5.2799993,5.2799993
	s5.2800007-2.3640003,5.2800007-5.2800007c0-0.0330005-0.0090008-0.0599999-0.0090008-0.0900006
	C4.7800007,2.8179998,2.7609997,4.2399998,0.4000006,4.2399998z"/>
<circle class="st2" cx="0.4000006" cy="-0.5599999" r="3.8399999"/>
<path class="st2" d="M0.4000006-5.3599997c1.3289995,0,2.4000006-1.0739994,2.4000006-2.4000006
	c-0.0209999-0.8699999-0.5820007-1.092-0.5939999-1.4400005C2.1939993-9.4939995,2.3109994-9.7010002,2.3109994-9.908
	c0-0.2729998-0.2280006-0.4679995-0.4290004-0.7139997c0.1110005,0.2700005,0.0330005,0.5339994-0.0119991,0.6299992
	C1.8040004-9.8599997,1.513-9.6440001,1.513-9.2119999c0,0.3239994,0.2249994,0.5489998,0.3029995,0.7980003
	c0,0,0,0.0029993,0,0.0059996c0,0,0,0.0030003,0,0.0060005c0,0.0029993,0,0.0029993,0,0.0060005
	c0,0.0029993,0.0059996,0.0059996,0.0059996,0.0120001C1.8249989-8.3779993,1.8249989-8.3719997,1.8279986-8.362999
	c0.0029998,0.0089998,0.0029998,0.0179996,0.0059996,0.0299997c0,0.0059996,0.0059996,0.0120001,0.0059996,0.0179996
	c0,0.0089998,0,0.0180006,0,0.0299997c0,0.0060005,0,0.0120001,0,0.0180006s0.0059996,0.0060005,0.0059996,0.0120001
	c0,0,0,0.0029993,0,0.0060005c0,0.0029993,0,0.0029993,0,0.0059996s0,0.0060005,0,0.0120001
	c0,0.2639995-0.2130003,0.4829993-0.4769998,0.4829993c-0.2069993,0-0.3839993-0.1350002-0.4530001-0.3210006
	c0,0,0-0.0029993,0-0.0060005C0.8920007-8.1350002,0.8800001-8.1859999,0.8800001-8.2460003
	c0-0.0299997,0.0059996-0.0539989,0.0120006-0.0839996c0-0.0030003,0-0.0060005,0-0.0120001
	s0.0059996-0.0120001,0.0059996-0.0180006s0.0059996-0.0119991,0.0059996-0.0179996c0-0.0030003,0-0.0150003,0-0.0180006
	c0-0.0059996,0.0059996-0.0059996,0.0059996-0.0120001c0,0,0.0029998-0.0059996,0.0029998-0.0119991
	c0-0.0030003,0-0.0060005,0-0.0060005c0.0449996-0.1739998,0.1439996-0.3299999,0.1859994-0.4469995
	c0.0780001-0.21,0.2399998-0.552,0.237-0.9899998c0-0.3299999-0.0780001-1.0710001-0.4829993-1.6440001
	c-0.3239994-0.4560003-0.5369997-0.651-0.644999-0.948c-0.0570002-0.1500006-0.0120006-0.3449993,0.099-0.54
	c-0.7319999,0.5310001-0.1829996,1.3830004-0.237,1.8389997C0.013-10.6669998-0.2329993-10.5650005-0.3410001-10.1660004
	c-0.1409998,0.5100002-0.0720005,1.0380001,0.0330005,1.2449999c0.092999,0.1890001,0.1619997,0.354001,0.1950002,0.5010004
	C-0.1099997-8.408-0.1040001-8.3990002-0.1010003-8.3900003c0,0.0029993,0,0.0089998,0,0.0120001c0,0,0,0.0029993,0,0.0060005
	c0,0.0029993,0.0059996,0.0089998,0.0059996,0.0119991c0,0.0090008,0.0029998,0.0150003,0.0059996,0.0240002
	c0,0.0029993,0,0.0029993,0,0.0060005c0,0.0029993,0,0.0029993,0,0.0059996s0,0.0060005,0,0.0060005
	C-0.086-8.2969999-0.0800004-8.2699995-0.0800004-8.2460003c0,0.2640004-0.2189999,0.4830003-0.4829993,0.4830003
	s-0.4769998-0.2189999-0.4769998-0.4830003c0-0.0029993,0-0.0089998,0-0.0119991c0-0.0030003,0-0.0090008,0-0.0120001
	c0-0.0060005,0.0059996-0.0060005,0.0059996-0.0120001v-0.0030003c0-0.0030003,0-0.0090008,0-0.0120001s0-0.0029993,0-0.0060005
	c0-0.0029993,0-0.0029993,0-0.0059996c0-0.0030012,0-0.0090008,0-0.0120001c0-0.0089998,0.0029998-0.0150003,0.0059996-0.0240002
	c0-0.0029993,0-0.0029993,0-0.0059996c0,0,0-0.0030003,0-0.0060005c0,0,0-0.0030003,0-0.0060005
	s0.0059996-0.0030003,0.0059996-0.0060005c0-0.0029993,0-0.0029993,0-0.0060005
	c0-0.0059996,0.0029998-0.0119991,0.0059996-0.0179996c0,0,0-0.0030003,0-0.0060005
	c0-0.0029993,0.0059996-0.0060005,0.0059996-0.0119991c0-0.0030003,0-0.0150013,0-0.0180006
	c0.0720019-0.2339983,0.3000011-0.4589987,0.3000011-0.7829981c0-0.4320002-0.2910004-0.6480007-0.3569999-0.7800007
	c-0.0479994-0.098999-0.1229997-0.3629999-0.0150003-0.6299992C-1.2830005-10.3729992-1.5139995-10.184-1.5109997-9.908
	c0,0.2040005,0.1140003,0.4110003,0.1049995,0.7110004C-1.4180007-8.8519993-1.9819999-8.6300001-2-7.7600002
	C-2-6.4340005-0.9260006-5.3599997,0.4000006-5.3599997z"/>
<rect x="-10.1599998" y="7.1199999" class="st2" width="4.8000002" height="23.0399971"/>
<rect x="6.1600008" y="7.1199999" class="st2" width="4.8000011" height="23.0399971"/>
<polygon class="st2" points="0.4000006,10 5.1999989,7.1199999 -4.4000006,7.1199999 "/>
<rect x="-4.4000006" y="10.9599991" class="st2" width="9.5999994" height="1.920001"/>
<rect x="-4.4000006" y="24.4000015" class="st2" width="9.5999994" height="1.920001"/>
<polygon class="st2" points="0.4000006,30.1599979 5.1999989,27.2800007 -4.4000006,27.2800007 "/>
<circle class="st2" cx="0.4000009" cy="18.6399994" r="4.8000011"/>
<path class="st3" d="M10-18.5c15.5999985,0,28.5,12.9000006,28.5,28.5S25.5999985,38.5,10,38.5S-18.5,25.5999985-18.5,10
	S-5.5999994-18.5,10-18.5 M10-20C-6.5-20-20-6.5-20,10s13.5,30,30,30s30-13.5,30-30S26.5-20,10-20L10-20z"/>
</svg>
