<?xml version="1.0" encoding="utf-8"?>
<svg version="1.1" id="Layer_1" xmlns="http://www.w3.org/2000/svg" xmlns:xlink="http://www.w3.org/1999/xlink" x="0px" y="0px"
	 viewBox="-22 -22 64 64" style="enable-background:new 0 0 20 20;" xml:space="preserve">
<style type="text/css">
	.st0{fill:#006233;}
	.st1{fill:#FFC400;}
	.st2{fill:#CCCCCC;}
</style>
<path class="st0" d="M38.8000031,10c0-15.9060001-12.8940029-28.8000011-28.8000031-28.8000011S-18.7999992-5.9060001-18.7999992,10
	S-5.9060001,38.8000031,10,38.8000031S38.8000031,25.9060001,38.8000031,10z"/>
<path class="st1" d="M22.7259979,10.7290001C19.3929977,14.0620003,14.7099991,16.0030022,10,16.0030022
	s-9.3959999-1.9410019-12.7259998-5.2740021c-3.2969999-3.2939987-5.2230005-7.914-5.2650003-12.5699997
	C-8.375-0.3560004-8.6000004,1.1920004-8.6000004,2.7999997c0,10.2720013,8.328001,18.5999985,18.6000004,18.5999985
	s18.6000023-8.3249989,18.6000023-18.5999985c0-1.6080008-0.2250023-3.1560001-0.6090012-4.6439996
	C27.9489994,2.8150001,26.0229988,7.4350014,22.7259979,10.7290001z"/>
<polygon class="st1" points="5.7700005,3.8259997 10,0.7479997 14.2299995,3.8259997 12.6159992,-1.151 16.848999,-4.2230005 
	11.6169987,-4.2230005 10,-9.2000008 8.3830013,-4.2230005 3.151,-4.2230005 7.3840008,-1.151 "/>
<path class="st2" d="M10-18.5c15.5999985,0,28.5,12.9000006,28.5,28.5S25.5999985,38.5,10,38.5S-18.5,25.5999985-18.5,10
	S-5.5999994-18.5,10-18.5 M10-20C-6.5-20-20-6.5-20,10s13.5,30,30,30s30-13.5,30-30S26.5-20,10-20L10-20z"/>
</svg>
