<?xml version="1.0" encoding="utf-8"?>
<svg version="1.1" id="Layer_1" xmlns="http://www.w3.org/2000/svg" xmlns:xlink="http://www.w3.org/1999/xlink" x="0px" y="0px"
	 viewBox="-22 -22 64 64" style="enable-background:new 0 0 20 20;" xml:space="preserve">
<style type="text/css">
	.st0{fill:#FFFFFF;stroke:#B6B6B6;stroke-width:0.15;}
	.st1{fill:none;}
	.st2{fill:#DC241F;}
	.st3{fill:#0035AD;}
	.st4{fill:#FFD100;}
	.st5{fill:#CCCCCC;}
</style>
<circle class="st0" cx="10" cy="10" r="28.8000011"/>
<path class="st1" d="M28.5820007,31.9839973H-8.5819998c1.4729996,1.2480011,3.0630002,2.3520012,4.7699995,3.2849998h27.6269989
	C25.5159988,34.3390045,27.1090012,33.2290001,28.5820007,31.9839973z"/>
<path class="st1" d="M38.7220001,11.5389986h-57.4440002c0.0599995,1.1159992,0.177,2.2080002,0.3570004,3.2850008h56.7269974
	C38.5480042,13.7469988,38.6650009,12.6519995,38.7220001,11.5389986z"/>
<path class="st1" d="M34.4469986,25.1679993h-48.8939972c0.7140007,1.1490021,1.4850006,2.2560005,2.349,3.2849979h44.1990013
	C32.961998,27.4239998,33.7329979,26.3170013,34.4469986,25.1679993z"/>
<path class="st1" d="M28.6960011,1.1920004h8.7209988c-0.362999-1.1309996-0.8100014-2.2199993-1.3050003-3.2850008h-7.4130001
	L28.6960011,1.1920004L28.6960011,1.1920004z"/>
<path class="st1" d="M37.5580025,18.3549995h-55.1160049c0.342001,1.1280022,0.7560005,2.2199993,1.2300014,3.2849998h52.6590004
	C36.802002,20.5749989,37.2190018,19.4799995,37.5580025,18.3549995z"/>
<path class="st1" d="M28.6960011-5.6209993h5.4780025c-0.75-1.1580005-1.5810013-2.2529998-2.4839993-3.2849998h-2.9909992
	v3.2849998H28.6960011z"/>
<path class="st1" d="M28.6960011,8.0109997h10.001997c-0.0749969-1.1159992-0.2040024-2.2109985-0.4020004-3.2850008h-9.6000023
	C28.6959953,4.7259989,28.6959953,8.0109997,28.6960011,8.0109997z"/>
<path class="st2" d="M31.6899986-8.9060001c-0.9240017-1.059-1.9199982-2.0550003-2.9909992-2.9729996v2.9729996H31.6899986z"/>
<path class="st2" d="M28.6960011-2.0930004h7.4130001c-0.5669937-1.224-1.2089996-2.4060001-1.9379959-3.5280004h-5.4780025
	L28.6960011-2.0930004L28.6960011-2.0930004z"/>
<path class="st2" d="M28.6960011,4.7230005h9.6000042c-0.2250061-1.2030001-0.5130005-2.3850002-0.8789978-3.5310001h-8.7210007
	C28.6960068,1.1920004,28.6960068,4.7230005,28.6960011,4.7230005z"/>
<path class="st2" d="M38.8000031,10c0-0.6719999-0.0540009-1.3320007-0.102005-1.9890003h-10.001997v0.329999h-47.4120026
	c-0.0330009,0.552-0.0839996,1.1010017-0.0839996,1.6590014c0,0.519001,0.0509987,1.026,0.0779991,1.5390015h57.4440041
	C38.7490005,11.026,38.8000031,10.519001,38.8000031,10z"/>
<path class="st2" d="M38.3649979,14.8239994h-56.7299957c0.2010002,1.1999989,0.4589996,2.3819981,0.8039989,3.527998h55.1160011
	C37.9059982,17.2089996,38.1609955,16.0240021,38.3649979,14.8239994z"/>
<path class="st2" d="M36.3279953,21.6399994h-52.6559944c0.5429993,1.2270012,1.1789989,2.4000015,1.8809986,3.5279999h48.8969955
	C35.1520004,24.0400009,35.788002,22.8669987,36.3279953,21.6399994z"/>
<path class="st2" d="M32.0979996,28.4560013h-44.1959991c1.0679998,1.2749977,2.2469997,2.4540024,3.5160007,3.5280018h37.1640015
	C29.8510017,30.9099979,31.032999,29.7339973,32.0979996,28.4560013z"/>
<path class="st2" d="M-3.8150001,35.2719994C0.289,37.519001,4.9959993,38.8000031,10,38.8000031
	s9.7109985-1.281002,13.8149986-3.5280037H-3.8150001z"/>
<path class="st3" d="M10-18.7999992c-15.3449993,0-27.8520012,12.0120001-28.7159996,27.1409988h47.4120026v-0.329999V4.7230005
	V1.1920004v-3.2850008v-3.5279989v-3.2850008v-2.9729996C23.6650009-16.184,17.1429977-18.7999992,10-18.7999992z"/>
<path class="st4" d="M7.4260006,2.362C6.0789995,3.1810007,4.5159998,3.6760006,2.8300004,3.6760006
	c-4.9199996,0-8.9039993-3.9899998-8.9039993-8.9039993s3.9839988-8.9070015,8.9039993-8.9070015
	c1.6890006,0,3.2520003,0.4950008,4.5960002,1.3140011c-1.7969999-1.5900002-4.1309996-2.5860004-6.717001-2.5860004
	c-5.6220002,0-10.1789999,4.5570002-10.1789999,10.1789989S-4.9129992,4.9509983,0.7089996,4.9509983
	C3.2949996,4.948,5.631999,3.9520006,7.4260006,2.362z"/>
<polygon class="st4" points="10.1290007,-8.5369997 7.2070007,-12.8689995 8.7700005,-7.8829999 4.2550001,-10.5170002 
	7.8280001,-6.7009997 2.6170001,-7.1149998 7.4949999,-5.2280006 2.6170001,-3.3439999 7.8280001,-3.7579999 4.2550001,0.0579996 
	8.7700005,-2.5759997 7.2070007,2.4099994 10.1290007,-1.9219999 10.3389997,-0.4849997 10.8879986,3.2529998 
	11.6409998,-1.9219999 14.5660009,2.4099994 13,-2.5759997 17.5179977,0.0579996 13.9420004,-3.7579999 19.1560001,-3.3439999 
	14.2810001,-5.2280006 19.1560001,-7.1149998 13.9420004,-6.7009997 17.5179977,-10.5170002 13,-7.8829999 14.5660009,-12.8689995 
	11.6409998,-8.5369997 10.8879986,-13.7119999 10.3389997,-9.974 "/>
<path class="st5" d="M10-18.5c15.5999985,0,28.5,12.9000006,28.5,28.5S25.5999985,38.5,10,38.5S-18.5,25.5999985-18.5,10
	S-5.5999994-18.5,10-18.5 M10-20C-6.5-20-20-6.5-20,10s13.5,30,30,30s30-13.5,30-30S26.5-20,10-20L10-20z"/>
</svg>
