<?xml version="1.0" encoding="utf-8"?>
<svg version="1.1" id="Layer_1" xmlns="http://www.w3.org/2000/svg" xmlns:xlink="http://www.w3.org/1999/xlink" x="0px" y="0px"
	 viewBox="-22 -22 64 64" style="enable-background:new 0 0 20 20;" xml:space="preserve">
<style type="text/css">
	.st0{fill:#FFFFFF;stroke:#B6B6B6;stroke-width:0.15;}
	.st1{fill:#007168;}
	.st2{fill:#FCE100;}
	.st3{fill:#D21034;}
	.st4{fill:#FFFFFF;}
	.st5{fill:#CCCCCC;}
</style>
<circle class="st0" cx="10" cy="10" r="28.8000011"/>
<path d="M19,10L7.2189999,18.9760017h30.1350002c0.9269981-2.8260002,1.446003-5.8410015,1.446003-8.9760017
	c0-3.144001-0.5220032-6.1650009-1.4550018-9H7.1860008L19,10z"/>
<path class="st1" d="M36.6850014-0.7999997c-4.2749977-10.5480003-14.6010017-18-26.6850014-18
	c-7.3709993,0-14.0699997,2.789999-19.1639996,7.3439999L4.8249989-0.7999997H36.6850014z"/>
<path class="st2" d="M36.6850014,20.8000011H4.8249989L-9.1640015,31.4560013
	C-4.0700002,36.0100021,2.6290007,38.8000031,10,38.8000031C22.0839996,38.8000031,32.413002,31.3479977,36.6850014,20.8000011z"/>
<path class="st3" d="M-8.3599997,5.9470005l-0.2519999-0.2790012C-8.7229996,5.7159986-8.849,5.7399998-8.993,5.7399998
	c-0.0720005,0-0.1499996-0.0059996-0.243-0.0179987c-0.0180006,0-0.0360012-0.0119991-0.045001-0.0240011l-0.5519991-0.618001
	l-0.0780001,0.9660015c0,0.0150003-0.0060005,0.0300007-0.0180006,0.0389986L-11.0240002,7.474l2.1720009,0.0090008
	L-8.3599997,5.9470005z"/>
<path class="st3" d="M7.2189999,18.9759979L19,10L7.1860008,1l-2.361002-1.7999997L-9.1639996-11.4559994
	C-15.0650005-6.1820002-18.7999992,1.4650006-18.7999992,10s3.7349987,16.1819992,9.6359997,21.4560013L4.8249989,20.8000011
	L7.2189999,18.9759979z M-11.3450003,15.105999h-0.9539995c-0.0090008,0-0.0120001-0.0059996-0.0209999-0.0090008
	l-1.6290007,1.9589996c-0.0029993,0.0059986-0.0120001,0.0119991-0.0179996,0.0179996
	c-0.0780001,0.0479984-0.1529999,0.0689983-0.2340002,0.0689983c-0.0780001,0-0.1529999-0.0240002-0.2339993-0.0689983
	c-0.0060005-0.0030022-0.0150003-0.0090027-0.0209999-0.0179996l-1.1880007-1.3950005
	c-0.0269995-0.032999-0.0240002-0.0749989,0.0059996-0.1049995l1.8959999-1.6739988
	c0.2399998-0.1679993,0.4680004-0.2010012,0.7560005-0.230999L-11.948,12.6130009
	c0.0150003-0.0150003,0.0360003-0.0240011,0.0539999-0.0240011h0.0869999l0.0419998-0.1800013
	c-0.0180006,0.0090008-0.0360003,0.0179987-0.0570002,0.0059996c-0.0270004-0.0150003-0.0419998-0.0419998-0.0389996-0.0749989
	l0.066-0.75l-5.7600002-4.1459999l3.2639999,0.0119991l2.3010006-3.2609997
	c0.0120001-0.0149975,0.0299997-0.0269995,0.0480003-0.032999l0.4919987-0.1049995c0.0090008,0,0.0209999,0,0.033,0
	c0.0030003,0,0.3570004,0.0720005,0.6390009,0.0720005c0.2189999,0,0.2819996-0.0419998,0.296999-0.0600014
	c0.1200008-0.7860003,0.6149998-0.9030004,0.9000006-0.9030004c0.1829996,0,0.3540001,0.0449996,0.4649992,0.0839996
	C-9.1070004,3.25-9.0950003,3.2589993-9.0860004,3.2680001l1.1729999,1.2809987l1.7130003-5.3489985l2.0100002,6.2609982
	l0.1500006-0.144001c0.0150003-0.0119991,0.0330005-0.0209999,0.0510006-0.0209999h0.0029998l0.7440004,0.0360003
	l0.9779992-0.9119968l0.0360003-0.6179996c0.0029998-0.0360003,0.0300007-0.0629997,0.0599999-0.0689993
	c0.0059996,0,0.0120006,0,0.0150003,0c0.0300007,0,0.0540004,0.0180001,0.0659995,0.0419998
	C-2,3.9550018-1.5979991,4.1260023-1.4749994,4.1650009c0.0059996-0.0119991,0.0120006-0.0209999,0.0209999-0.0300007
	c0.0750003-0.0810013,0.1859994-0.2009997,0.3179998-0.2009997c0.0419998,0,0.1079993,0.0150003,0.1619997,0.0809999
	c0.1199999,0.1679993,0.0869994,0.2519989,0.039,0.3389997C-0.9409995,4.3659992-0.9470005,4.375-0.9500003,4.3840008
	l0.0599999,0.045001L3.0849991,1.624002c0.0360003-0.0210013,0.0810013-0.0150018,0.105001,0.0149975
	C3.2169995,1.6690001,3.2139997,1.7139997,3.1840005,1.743999l-3.6870003,3.5399995
	c-0.0059996,0-0.0120006,0.0059996-0.0180001,0.0090008C-0.6229997,5.3530006-0.7999997,5.3349991-0.9110003,5.269001
	l-2.1839991,1.8509989C-3.1129994,7.131999-3.1309996,7.1409998-3.1549993,7.1379986s-0.0420012-0.0149975-0.0540004-0.032999
	C-3.3380003,6.9129992-3.4730005,6.7960005-3.6589999,6.724l-0.1019998,0.0870008l0.2160001,0.6779995l8.6969986-0.0390015
	l-5.7299995,4.1340008l0.849,2.7839985c0,0.0030012-0.0029998,0.0030012,0,0.0059996
	c0.8820004,1.0140009,1.5239997,1.7489996,1.5449996,1.7699995c0.0180001,0.0150013,0.0209999,0.0330009,0.0209999,0.0570011
	c-0.0330005,0.4260006-0.1500006,0.5400009-0.5399995,0.6989994c-0.0269995,0.0090008-0.0629997,0.0060005-0.0839996-0.0209999
	l-1.5780001-1.7969999C-0.3829999,15.0969982-0.401,15.1119986-0.4249997,15.0999966
	c-0.0059996-0.0030012-0.2880006-0.0780001-0.6840005-0.1590014l1.9290004,5.8529997l-7.019999-5.1419983L-13.217,20.8000011
	L-11.3450003,15.105999z"/>
<path class="st2" d="M-4.5709996,7.7469988l-0.4830008,0.5159998C-5.0180001,8.3019972-4.961,8.3709993-4.8890009,8.4519978
	c0.2249994-0.0179987,0.4470005-0.0360003,0.6630006-0.0360003c1.5960002,0,2.4299998,0.4890003,2.4660001,0.5100002
	c0,0.0060024,0.0059996,0.0090036,0.0120006,0.0150032l0.5310001,0.5670004
	c0.0089993,0.0090008,0.0150003,0.0209999,0.0180001,0.0300007l0.6240005,2.0489988l5.7329979-4.137002L-3.539,7.4890003
	l-0.2189999-0.6779995l-0.651,0.5670004C-4.4149995,7.5670004-4.4660001,7.6300001-4.5709996,7.7469988z"/>
<path class="st2" d="M-6.2030001,15.6550007l7.0200005,5.1420002L-1.112,14.9439993
	c-0.5250006-0.1080008-1.2689996-0.2280006-2.0430007-0.2280006c-0.7769995,0-1.3980002,0.1259995-1.8510003,0.3719988
	c0,0,0,0.0030012-0.0029998,0.0030012c-0.1589999,0.1080008-0.3120003,0.177-0.4650006,0.2459993
	c-0.0479994,0.0209999-0.0930004,0.0570002-0.1409998,0.0749989c-0.2069993,0.0780001-0.4110003,0.1169987-0.612,0.1169987
	s-0.3930001-0.0419998-0.5880003-0.1169987c0,0,0,0-0.0029998,0c-0.1710005-0.0660009-0.3389997-0.1560001-0.5100002-0.2790012
	c-0.0089993-0.0059996,0-0.0179987-0.0059996-0.0269995h-4.0109992L-13.217,20.8000011L-6.2030001,15.6550007z"/>
<path class="st2" d="M-7.8679996,4.6479988l-0.0960002,0.3480005c0.2130003,0.243001,1.6229997,1.8360014,1.8480005,2.0909986
	c0.0930004-0.0660009,0.3870006-0.3599997,0.5189996-0.4859991c0.1049995-0.1049995,0.1350002-0.1350002,0.1530004-0.1469994
	s0.039-0.0150003,0.0599999-0.0150003C-5.3629994,6.4420004-5.3479991,6.4569979-5.336,6.4749994l0.0900006,0.1350002
	l0.0540004-0.1679993c0.0059996-0.0119991,0.0119991-0.0240011,0.0209985-0.032999l0.9780006-0.948l-2.0070004-6.2610011
	l-1.7130003,5.3489985l0.0300007,0.032999C-7.8679996,4.5970011-7.862,4.6240005-7.8679996,4.6479988z"/>
<path class="st2" d="M-11.7229996,11.467001l0.1889992-0.0240011l0.4470005-1.9019995
	C-11.0840006,9.526-11.0780001,9.5140009-11.066,9.5050001c0.0570002-0.0570002,0.5489998-0.5610008,0.6119995-0.6090002
	c0.5460005-0.276,2.3730011-0.4980011,2.4510002-0.506999c0.006-0.0059996,0.0150008,0,0.0210004,0.0030012l0.7349997-0.6120014
	c0.0180001-0.0180016,0.0570002-0.0209999,0.0780001-0.0059996c0.0269995,0.0150003,0.0419998,0.0419998,0.0419998,0.0720005
	c-0.0029998,0.0510006,0.0330005,0.0899992,0.0449996,0.1379986c0-0.0209999-0.0150003-0.0419998,0.0029998-0.0600014
	l0.2609997-0.2519989l-1.5419984-1.7249994l-0.4919996,1.5360003L-11.0240002,7.474l-2.0760002,2.6340008
	c-0.0150003,0.0209999-0.0480003,0.0300007-0.0599995,0.0300007c-0.0240002,0-0.0419998-0.0090008-0.0570002-0.0300007
	l-1.5539999-1.8690004c-0.0209999-0.0240011-0.0240002-0.0629997-0.0030003-0.0899992l0.4829998-0.6839991l-3.2639999-0.0150032
	l5.7600002,4.1459999l0.0060005-0.0629997C-11.783,11.5-11.7589998,11.4730005-11.7229996,11.467001z"/>
<path class="st2" d="M-6.7219996,8.4460011c0.0570002-0.0360003,0.1109991-0.0720005,0.1649995-0.1170015
	c0.0479994-0.0360003,0.099-0.0720005,0.1500006-0.1080008c-0.0089993-0.0119991-0.0209999-0.0269995-0.0300007-0.0389986
	c-0.0029998-0.0059996-0.0059996-0.0090008-0.0089993-0.0150003C-6.4790001,8.1910009-6.5059996,8.2120008-6.539,8.2359991
	C-6.5930004,8.2779989-6.6439996,8.3170004-6.698,8.3530006c-0.0360003,0.0209999-0.0780001,0.0150003-0.099-0.012002
	c-0.0510006-0.0600014-0.099-0.1080008-0.1409998-0.1560001C-6.974,8.1459999-7.013,8.1009989-7.0549998,8.0589991
	C-6.9860005,8.2089996-6.875,8.3409986-6.7219996,8.4460011z"/>
<path class="st4" d="M-11.6359997,12.5949993l1.8809996-1.6739988c0.0270004-0.0240011,0.0690002-0.0269995,0.0959997-0.0030012
	L-9.566,10.9869986l0.1799994-0.1560001l0.0299997-0.1169987c0.0030003-0.0150003,0.0120001-0.0269995,0.0240002-0.0360003
	c0.9329996-0.8609991,1.257-1.1459999,1.3770003-1.2419987c0,0,0-0.0030012-0.0029998-0.0030012L-9.4820004,10.651
	c-0.0299997,0.0240011-0.066,0.0240011-0.0959997,0l-0.0840006-0.0749989v0.0839996
	c0,0.0240011-0.0089998,0.0419998-0.0299997,0.0570002L-11.573,12.2740011l-0.0750008,0.3179998L-11.6359997,12.5949993
	L-11.6359997,12.5949993z"/>
<path class="st4" d="M-1.8770003,9.0429993l0.0090008-0.0029984c-0.1199999-0.0629997-0.927-0.4709988-2.3579993-0.4709988
	c-0.1740003,0-0.3540001,0.0179987-0.5369997,0.0300007c0.6690001,0.7650003,2.2470002,2.579999,3.6989994,4.2480011
	L-1.8770003,9.0429993z"/>
<path class="st4" d="M-10.9460001,9.5980005l-0.408,1.7490005l0.4589996-0.3809996l0.4230003-1.8449993
	C-10.5830002,9.2290001-10.7810001,9.4300013-10.9460001,9.5980005z"/>
<path d="M-7.3400006,15.0310001c0.0120006-0.0179987,0.0570002-0.0539989,0.0750003-0.0749989h-2.6219997
	c-0.0179996,0.0059996-0.0360003,0.0090008-0.0479994,0.0090008c-0.0030003,0-0.0060005-0.0059996-0.0090008-0.0090008h-2.2560005
	l-0.1169987,0.1439981c0.0060005,0.0030012,0.0119991,0.0090008,0.0209999,0.0090008h0.9569998h4.0169992
	C-7.3400006,15.0820007-7.3579993,15.0579996-7.3400006,15.0310001z"/>
<path d="M-5.4710002,15.3399992C-5.5159998,15.3609991-5.5670004,15.3969994-5.612,15.4149981
	C-5.5640006,15.3969994-5.5189996,15.3609991-5.4710002,15.3399992z"/>
<path d="M-10.4569998,8.8959999C-10.5199995,8.9439993-11.0120001,9.4510012-11.066,9.5050001
	c-0.0120001,0.0119991-0.0180006,0.0240011-0.0209999,0.0360003l-0.4470005,1.9019995l0.0720005-0.0090008l0.1079998-0.0899992
	l0.408-1.7490005c0.165-0.1649981,0.3629999-0.362998,0.4709997-0.4769983l0.0390005-0.1739988
	c0.0059996-0.0389986,0.0419998-0.0689993,0.0899992-0.0539989c0.0390005,0.0090008,0.0660009,0.0479994,0.0570011,0.0899992
	l-0.0030003,0.0149975c0.4800005-0.2010012,1.6619997-0.3719988,2.1000004-0.4289989l0.2099996-0.177
	c-0.0059996,0-0.0150003-0.0059996-0.0210004,0C-8.0809994,8.3979988-9.908,8.6199999-10.4569998,8.8959999z"/>
<path d="M-6.8120003,15.4150009L-6.8120003,15.4150009L-6.8120003,15.4150009z"/>
<path d="M-1.2199993,9.5080013l-0.5280004-0.5670004C-1.7540007,8.9350014-1.7600002,8.9320002-1.763,8.9260006
	c-0.0360003-0.0209999-0.8699999-0.5100002-2.4660001-0.5100002c-0.2130003,0-0.4379997,0.0179987-0.6599994,0.0360003
	C-4.8530006,8.4940004-4.802,8.5479994-4.7600002,8.5959988c0.1799998-0.0119991,0.3629994-0.0300007,0.5369997-0.0300007
	c1.4340005,0,2.2379994,0.407999,2.3580008,0.474L-1.724,9.0099974l0.0449996,0.2189999l0.3389997,0.3690033l1.3709993,4.5
	c0.0809999,0.0930004,0.1619997,0.1860008,0.2399998,0.2729988c0-0.0030012,0.0029998-0.0030012,0-0.0059996l-0.8460002-2.7810001
	l-0.6269989-2.0489988C-1.2050004,9.526-1.211,9.5169992-1.2199993,9.5080013z"/>
<polygon points="-11.6480007,12.5949993 -11.573,12.2740011 -11.7349997,12.4119997 -11.7620001,12.4119997 -11.8039999,12.5949993 
	"/>
<path d="M-0.5059996,14.9289989C-0.836,14.8419981-1.9819999,14.5689993-3.1519995,14.5689993
	c-0.7800007,0-1.4069996,0.1290007-1.8900003,0.3780012c0.0150003,0.0179987,0.039,0.0240011,0.0510006,0.0389986
	c0.0120006,0.0179987,0.0180001,0.0360003,0.0150003,0.0570002s-0.0150003,0.0360003-0.0300007,0.045001
	c0.4559999-0.2459993,1.0739994-0.3719988,1.8510003-0.3719988c0.7709999,0,1.5180001,0.1199999,2.0430007,0.2280006
	c0.3959999,0.0810013,0.6779995,0.1560001,0.6840005,0.1590014c0.0209999,0.0119991,0.039-0.0030012,0.0599999-0.0179987
	L-0.5059996,14.9289989z"/>
<path d="M-6.7429996,15.2740011c0.3540001,0.1350002,0.711,0.1379986,1.0889997-0.0030012
	C-5.8399992,15.3370008-6.0349994,15.3759995-6.224,15.3759995C-6.4099994,15.3699999-6.5869994,15.3339996-6.7429996,15.2740011z"
	/>
<path d="M-7.1660004,15.0579996c0.1199999,0.0839996,0.2429996,0.1350002,0.3629994,0.1829996
	c-0.1229997-0.0539989-0.2310004-0.131999-0.3239994-0.2220011C-7.1329999,15.0279989-7.1599994,15.0489988-7.1660004,15.0579996z"
	/>
<path d="M-5.1589999,15.0129986c-0.0029998-0.0030012-0.0120006-0.0059996-0.0150003-0.0090008
	c-0.1500006,0.1049995-0.3059993,0.1920004-0.4650006,0.2519989C-5.4799995,15.1989994-5.3239994,15.1209993-5.1589999,15.0129986z"
	/>
<path d="M-11.2880001,13.7080002c-0.0389996,0.0059996-0.0690002,0.045001-0.0629997,0.0839996
	c0.0030003,0.0389986,0.0360003,0.0660009,0.0750008,0.0660009c0.0029993,0,0.0060005,0,0.0089998,0
	c0.0120001-0.0030012,0.3629999-0.0389986,0.8730001-0.0660009l-0.0539999-0.1529989
	C-10.9159994,13.6689987-11.2399998,13.704999-11.2880001,13.7080002z"/>
<path d="M-4.9910007,14.9859991c-0.0150003-0.0179987-0.039-0.0269995-0.0510006-0.0389986
	c-0.2310004-0.2879992-0.5310001-0.5250006-0.8909998-0.7020006c0.9000006-0.3900003,2.3339996-0.7080002,4.4550004-0.420001
	l-0.1439996-0.1650009c-2.0609994-0.2519989-3.5189996,0.0720005-4.4459996,0.4799995v0.1379986h-0.1530004v-0.1560001
	c-0.987-0.3990011-2.2380004-0.506999-3.2610002-0.5100002l0.045001,0.1590014
	c0.9869995,0.0059996,2.1900005,0.1080008,3.1289997,0.474c-0.5399995,0.2700005-0.8280001,0.5400009-0.9630003,0.7080002
	C-7.289,14.9769983-7.3339996,15.0099974-7.3460002,15.0279961c-0.0150003,0.0269995,0,0.0510006,0.0150003,0.0749989
	c0.0059996,0.0090008-0.0029998,0.0209999,0.0059996,0.0269995c0.1710005,0.1230011,0.3389997,0.2130003,0.5100002,0.2790012
	c0,0,0,0,0.0029998,0c0.1920004,0.0749989,0.3900003,0.1169987,0.5880003,0.1169987s0.4019995-0.0389986,0.612-0.1169987
	c0.0449996-0.0179987,0.0960002-0.0539989,0.1409998-0.0749989c0.1530004-0.0689993,0.3059993-0.1350002,0.4650006-0.2459993
	c0,0,0-0.0030012,0.0029998-0.0030012c0.0150003-0.0119991,0.0300007-0.0269995,0.0300007-0.045001
	C-4.9730005,15.0219994-4.9760003,15.0040007-4.9910007,14.9859991z M-6.1160007,14.3260012
	C-5.7350011,14.5-5.414,14.7220011-5.1740003,15.0070019c0.0029998,0.0030012,0.0120006,0.0059996,0.0150003,0.0090008
	c-0.1649995,0.1080008-0.3239994,0.1829996-0.4769998,0.2459993C-5.6419992,15.2650032-5.651,15.2710028-5.6569996,15.2740011
	c-0.3779998,0.1409998-0.7349997,0.1379986-1.0889997,0.0030012c-0.0209999-0.0090008-0.039-0.0240011-0.0570002-0.0300007
	c-0.1199999-0.0510006-0.2429996-0.1020012-0.3629994-0.1829996c0.0059996-0.0090008,0.0330005-0.0300007,0.039-0.0360003
	C-6.9949999,14.8840008-6.6859994,14.6020012-6.1160007,14.3260012z"/>
<path d="M-6.1849999,9.2290001l-0.0150003,1.9289989c0.0479994,0.0090008,0.1019998,0.0179987,0.1530004,0.0269995
	l0.0150003-2.0880003L-6.1849999,9.2290001z"/>
<path d="M-6.2210002,14.2779989h0.1500006v-0.1379986l0.0089993-1.3530006
	c-0.0510006-0.0119991-0.099-0.0150003-0.1530004-0.0300007L-6.224,14.1219988L-6.2210002,14.2779989z"/>
<path d="M-1.6820002,9.2349997l-0.0449996-0.2189999l-0.1409998,0.0300007h-0.0090008l0.8129997,3.7979994
	c0.0689993,0.0810013,0.138,0.1590014,0.2069993,0.2399998L-1.6820002,9.2349997z"/>
<path d="M-10.2860003,8.9799995c0.0089998-0.0389986-0.0150003-0.0810013-0.0570002-0.0899992
	C-10.3880005,8.875-10.427001,8.9050007-10.4330006,8.9439993l-0.0419998,0.1740017l-0.4230003,1.8449993l0.1890001-0.1590014
	l0.4169998-1.8120003L-10.2860003,8.9799995z"/>
<path d="M-12.2000008,14.9560013l0.0150013-0.0179987l0.7409992-0.9150009
	c0.1079998-0.1230011,0.1650009-0.2790012,0.1619997-0.4350014l1.3649998-1.2149992
	c0.0419998,0.0030012,0.0810003,0.0090008,0.1170006,0.0119991c0.0450001,0.0059996,0.0959997,0.0119991,0.1529989,0.0150003
	c0.0030003,0,0.0060005,0,0.0060005,0s0,0,0.0030003,0c0.0389996,0,0.0749998-0.0360003,0.0749998-0.0749989
	s-0.0299997-0.0720005-0.066-0.0749989c-0.0959997-0.0269995-0.1079998-0.0539989-0.1079998-0.0600014
	c-0.0030003-0.0090008,0-0.032999,0.0239992-0.0660009l0.2490005-0.1920004l0.165,0.2130003
	c-0.1260004,0.1650009-0.2670002,0.3360014-0.3179998,0.3840008h-0.3689995c-0.0179996,0-0.0360003,0.0059996-0.0509996,0.0209999
	l-0.7410002,0.6719999c-0.0150003,0.0150003-0.0270004,0.0360003-0.0270004,0.0570002
	c0,0.0240011,0.0090008,0.0419998,0.0270004,0.0570002l0.309,0.2729988l0.0150003,0.0389986l0.0539999,0.1529989
	l0.4110003,1.1219988c0.0059996,0.0179987,0.0239992,0.0300007,0.0389996,0.0389986
	c0.0030003,0.0030012,0.0060005,0.0059996,0.0089998,0.0090008c0.0150013,0,0.0360012-0.0030012,0.0480003-0.0090008
	c0.0060005-0.0030012,0.0120001,0,0.0180006-0.0030012l0.5999994-0.420001
	c0.0270004-0.0209999,0.0360012-0.0510006,0.0300007-0.0810013l-0.1860008-0.6839991l-0.0450001-0.1590014l-0.1440001-0.5009909
	l0.8190002-0.8879986c0.0239992-0.0269995,0.0269995-0.0629997,0.0089998-0.0930004l-0.2910004-0.4499989L-8.948,11.5
	c0.2999992,0.1800013,1.599,0.9420004,2.7360005,1.256999c0.0510006,0.0150003,0.099,0.0150003,0.1530004,0.0300007
	c0.237,0.0570002,0.4799995,0.1259995,0.6840005,0.1259995c0.1859994,0,0.3510003-0.0300007,0.4829993-0.0839996
	c0.0780001-0.0059996,0.0930004-0.0839996,0.1290007-1.3890009c0-0.0389986-0.0300007-0.0749989-0.0659995-0.0780001
	c-0.3629994-0.0360003-0.7949996-0.1020012-1.2180004-0.177c-0.051002-0.0059996-0.1020012-0.0149975-0.1530018-0.0239983
	c-0.8579993-0.1650009-1.638-0.3959999-1.6680007-0.6479988c-0.0150003-0.1350002,0.0120006-0.2490005,0.0900006-0.342001
	c0.1680007-0.2070007,0.5100002-0.243001,0.513-0.243001c0.0269995-0.0030012,0.0510006-0.0209999,0.0599999-0.0419998
	C-7.1900001,9.855999-7.1929998,9.8289995-7.211,9.8079996l-0.2940001-0.4289989l0.0209999-0.0689993l0.4379997,0.552
	c0.0150003,0.0179987,0.0300007,0.0209999,0.0599999,0.0300007c0.0180001,0,0.0360003-0.0059996,0.0479994-0.0179987
	l0.7529998-0.6450005l0.1530018-0.1290035l0.237-0.2010012l4.1759992,4.7609997l0.1439996,0.1650009l0.9719996,1.1070013
	l0.138,0.1590014l1.5750003,1.7939987c0.0209999,0.0269985,0.0599999,0.0300007,0.0839996,0.0209999
	c0.3930001-0.1620007,0.5100002-0.2729988,0.5399995-0.6989994c0-0.0270004-0.0029998-0.0419998-0.0209999-0.0569992
	c-0.0209999-0.0240021-0.6630006-0.7560005-1.5449996-1.7700014c-0.0750003-0.0870008-0.1589999-0.1800013-0.2399998-0.2729988
	c-0.2819996-0.3239994-0.5759997-0.6629992-0.888-1.0200005C-0.9260006,13-0.9949999,12.9189987-1.0640006,12.8409986
	c-1.4520006-1.6679993-3.0299993-3.4799995-3.6990008-4.2480011c-0.0419984-0.0449982-0.092999-0.0989971-0.125998-0.1409969
	C-4.961,8.368001-5.0180001,8.302-5.0539989,8.2630014l0.4829993-0.5159998
	c0.1049995-0.1169987,0.1560001-0.1800013,0.1619997-0.3690004l0.651-0.5670004L-3.6560001,6.724
	c0.1829996,0.0720005,0.3239994,0.1860008,0.4500003,0.3809996c0.0120006,0.0179987,0.0330005,0.0300007,0.0540004,0.032999
	s0.039-0.0059996,0.0570002-0.0179987L-0.907999,5.269001c0.1079993,0.0659981,0.2849994,0.0839996,0.3869991,0.0209999
	c0.0059996-0.0030012,0.0120006-0.0059996,0.0150003-0.0119991l3.6870003-3.5399995
	c0.0300007-0.0300007,0.0330005-0.0720005,0.0059996-0.1049995c-0.0239997-0.0240026-0.0660009-0.0330033-0.099-0.0090022
	l-3.9750009,2.8049984l-0.0599999-0.0419998c0.0029998-0.0090008,0.0089993-0.0179987,0.0150003-0.0300007
	c0.0479994-0.0870008,0.0809999-0.177-0.039-0.3389997c-0.0570002-0.0689993-0.1199999-0.0809984-0.1589999-0.0809984
	c-0.1290007,0-0.2429996,0.1199999-0.3179998,0.2010012C-1.4600005,4.144001-1.4660001,4.1529989-1.4719996,4.1590014
	C-1.5949993,4.1200027-2,3.9490008-2.0839996,3.769001C-2.099,3.7449999-2.1259995,3.7269998-2.1530004,3.7269998
	c-0.0029998,0-0.0089993,0-0.0150003,0C-2.2010012,3.7329993-2.2250009,3.763-2.2280006,3.7959991l-0.039,0.624002
	l-0.9779992,0.9089985l-0.7440004-0.0360003c0,0,0,0-0.0029998,0c-0.0209999,0-0.0360003,0.0090008-0.0510006,0.0209999
	l-0.1500006,0.144001l-0.9779992,0.948c-0.0089993,0.0119991-0.0149989,0.0240011-0.0209999,0.032999l-0.0539989,0.1680021
	l-0.0870008-0.1350002c-0.0120006-0.0179987-0.0300007-0.0300007-0.0479994-0.0360003
	c-0.0180001,0-0.039,0.0030012-0.0599999,0.0150003c-0.0180001,0.0119991-0.0510006,0.0479994-0.1530004,0.1469994
	c-0.1350002,0.1290007-0.4260006,0.4199982-0.5189996,0.4859991c-0.2250009-0.2490005-1.6350002-1.8449993-1.8510003-2.0880003
	l0.0960002-0.3480005c0.0059996-0.0269995,0-0.0510006-0.0180001-0.0689993l-0.0300007-0.032999l-1.1700001-1.2719994
	C-9.092,3.2650003-9.1040001,3.2589993-9.1160002,3.2529998c-0.1079998-0.039-0.2789993-0.0839996-0.4619999-0.0839996
	c-0.2849998,0-0.7799997,0.1170001-0.8999996,0.9030004c-0.0180006,0.0179987-0.0780001,0.0600014-0.2969999,0.0600014
	c-0.2849998,0-0.6359997-0.0720005-0.6389999-0.0720005c-0.0120001,0-0.0240002,0-0.033,0l-0.4949999,0.1079979
	C-11.96,4.1710005-11.9779997,4.1829996-11.9899998,4.198l-2.3040009,3.2640009l-0.4799995,0.6839991
	c-0.0209999,0.0300007-0.0179996,0.0660009,0.0030003,0.0930004l1.5509996,1.8690004
	c0.0150003,0.0179987,0.0360003,0.0300007,0.0570002,0.0300007c0.0120001,0,0.0450001-0.0090008,0.0600004-0.0300007
	L-11.0270004,7.474l1.0979996-1.3890009C-9.9200001,6.073-9.9139996,6.0579996-9.9110003,6.0460005l0.0780001-0.9630003
	l0.5489998,0.6120014c0.0120001,0.0119991,0.0300007,0.0240011,0.045001,0.0240011
	C-9.1400003,5.730999-9.0620003,5.7370014-8.993,5.7370014c0.1440001,0,0.2670002-0.0240011,0.3810005-0.0720005
	l0.2519999,0.2790012l1.5479994,1.7220011l-0.2639995,0.2579956c-0.0180001,0.0179987-0.0029998,0.0389986-0.0029998,0.0600014
	c-0.0150003-0.0479994-0.0480008-0.0870008-0.045001-0.1409998c0-0.0300007-0.0150003-0.0570002-0.0419998-0.0720005
	c-0.0239997-0.0150003-0.0599999-0.0090008-0.0809999,0.0090008l-0.7349997,0.6119986l-0.2070003,0.1740017l-0.1169996,0.0959988
	C-8.3210001,8.677-8.3299999,8.6889992-8.3360004,8.7039995l-0.0299997,0.1500006l-2.3429995,1.9530001l-0.1890001,0.1590014
	l-0.4590006,0.3809996l-0.1079998,0.0899992l-0.0719995,0.0090008l-0.1890001,0.0240011
	c-0.0360003,0.0030012-0.0599995,0.032999-0.066,0.0660009l-0.0060005,0.0629997l-0.066,0.75
	c0,0.032999,0.0150003,0.0600014,0.0389996,0.0749989c0.0209999,0.0119991,0.0390005,0,0.0570011-0.0059996
	c0.0089998-0.0030012,0.0179996,0.0030012,0.0269995-0.0030012l0.1619997-0.131999l1.8840008-1.5570002
	C-9.677,10.7110014-9.665,10.6900015-9.665,10.6690016v-0.0870008l0.0869999,0.0720005
	c0.0299997,0.0269995,0.066,0.0240011,0.0959997,0l1.5210004-1.224c0,0,0,0.0030012,0.0029998,0.0030012
	C-8.0780001,9.5290012-8.4020004,9.814002-9.335001,10.6750011c-0.0119991,0.0119991-0.0209999,0.0240011-0.0239992,0.0360003
	l-0.0299997,0.1169987l-0.1800003,0.1560001l-0.0929995-0.0689993c-0.0270004-0.0240011-0.0690002-0.0179987-0.0959997,0.0030012
	l-1.8810005,1.6739988h-0.0090008h-0.1559992h-0.0869999c-0.0209999,0-0.0390005,0.0090008-0.0539999,0.0240011
	l-1.0380001,1.0379992c-0.2910004,0.0300007-0.5190001,0.0629997-0.7559996,0.230999l-1.8959999,1.677
	c-0.033,0.0300007-0.0360003,0.0720005-0.0060005,0.1049995l1.1880007,1.3950005
	c0.0059996,0.0090008,0.0119991,0.0149994,0.0209999,0.0179977c0.0809994,0.0480003,0.1560001,0.0690002,0.2339993,0.0690002
	c0.0780001,0,0.1560001-0.0240021,0.2340002-0.0690002c0.0060005-0.0059986,0.0150003-0.0119972,0.0180006-0.0179977
	l1.6289997-1.9589996L-12.2000008,14.9560013z M-6.9379997,8.1850014c0.0419998,0.0479994,0.0900006,0.0959988,0.1409998,0.1560001
	C-6.776,8.368001-6.7340002,8.3740005-6.698,8.3530006c0.0540004-0.0360003,0.1079993-0.0749989,0.1619997-0.1169987
	c0.0330005-0.0209999,0.0599999-0.0419998,0.0930004-0.0660009c0,0,0.0029998,0.0059996,0.0059996,0.0089979
	c0.0089993,0.0150003,0.0209999,0.0300007,0.0300007,0.0419998c-0.0510006,0.0390015-0.1019998,0.0750017-0.1500006,0.1080008
	c-0.0540004,0.045001-0.1079993,0.0810013-0.1649995,0.1170015C-6.875,8.3409986-6.9860005,8.2089996-7.0549998,8.0589991
	C-7.013,8.1009989-6.974,8.1459999-6.9379997,8.1850014z"/>
<path class="st5" d="M10-18.5c15.5999985,0,28.5,12.9000006,28.5,28.5S25.5999985,38.5,10,38.5S-18.5,25.5999985-18.5,10
	S-5.5999994-18.5,10-18.5 M10-20C-6.5-20-20-6.5-20,10s13.5,30,30,30s30-13.5,30-30S26.5-20,10-20L10-20z"/>
</svg>
