<?xml version="1.0" encoding="utf-8"?>
<svg version="1.1" id="Layer_1" xmlns="http://www.w3.org/2000/svg" xmlns:xlink="http://www.w3.org/1999/xlink" x="0px" y="0px"
	 viewBox="-22 -22 64 64" style="enable-background:new 0 0 20 20;" xml:space="preserve">
<style type="text/css">
	.st0{fill:#FFFFFF;stroke:#B6B6B6;stroke-width:0.15;stroke-miterlimit:10;}
	.st1{fill:#003580;}
	.st2{fill:#009543;}
	.st3{fill:#D21034;}
	.st4{fill:#FFCE00;}
	.st5{fill:#CCCCCC;}
</style>
<circle class="st0" cx="10" cy="10" r="28.8000011"/>
<path class="st1" d="M10-18.7999992c-8.217001,0-15.6119995,3.4589996-20.8590012,8.9790001L-10.382-8.5219994l3.309-2.7510004
	l-0.7260003,4.2419996l4.2390003-0.7260003l-2.7479997,3.3060007l4.0379992,1.4909992l-4.0379992,1.4910007l2.7509995,3.3090005
	l-4.2420001-0.7290001L-7.073,5.3530006l-3.3059998-2.7480011l-1.4910002,4.0350008l-1.4910002-4.0350008l-3.309,2.7509995
	l0.7259998-4.2420001l-1.5389996,0.2640009C-18.3349991,4.099-18.7999992,6.9969988-18.7999992,10
	c0,3.2669992,0.5699997,6.3899994,1.5689983,9.3180008l46.2959976-30.8640003
	C23.9830017-16.0459995,17.3199997-18.7999992,10-18.7999992z"/>
<path class="st2" d="M38.8000031,10c0-1.599-0.1650009-3.1560001-0.4140015-4.6860008l-43.632,29.0880013
	C-0.8209996,37.1740036,4.3929987,38.8000031,10,38.8000031C25.9060001,38.8000031,38.8000031,25.9060001,38.8000031,10z"/>
<path class="st3" d="M30.8379974-9.8450003l-47.1809998,31.4550018c1.9860001,4.5,5.1000004,8.3850021,8.9730005,11.3250008
	L37.8520012,2.7849994C36.6069984-2.0300007,34.1620026-6.3530006,30.8379974-9.8450003z"/>
<path class="st4" d="M-15.9440002,1.1110005l-0.7259998,4.2449985l3.309-2.7509995l1.4910002,4.0379992l1.4910002-4.0379992
	l3.3089995,2.7509995l-0.7290001-4.2449985c-1.0650001,1.0679998-2.5619998,1.6889992-4.0709996,1.6889992
	S-14.8760004,2.1790004-15.9440002,1.1110005z"/>
<path class="st4" d="M-7.0700002-11.276l-3.3089995,2.7510004l-0.4800005-1.2959995
	c-0.342,0.3599987-0.6779995,0.7229996-0.9989996,1.1009989C-10.3550005-8.717-8.8610001-8.099-7.7960005-7.0310001
	L-7.0700002-11.276z"/>
<path class="st4" d="M-7.7990003,1.1110005l4.2390003,0.7259989l-2.7479997-3.3059993l4.0379992-1.4910007l-4.0379992-1.4909992
	l2.7509995-3.3090005l-4.2420001,0.7290001c1.0650001,1.0650001,1.6890006,2.5650001,1.6890006,4.0709996
	C-6.1099997-1.4509997-6.7310004,0.0460005-7.7990003,1.1110005z"/>
<path class="st4" d="M-16.8980007-0.2180004c-0.2039986,0.5280004-0.4169998,1.0499997-0.5849991,1.5960002L-15.941,1.1140003
	C-16.3309994,0.724-16.6369991,0.2650003-16.8980007-0.2180004z"/>
<path class="st1" d="M-11.8699999,2.7999997c1.5089998,0,3.0059996-0.6209993,4.0709996-1.6890006
	c1.0650001-1.0649986,1.6890006-2.5649986,1.6890006-4.0709996c0-1.5089993-0.6209993-3.0059996-1.6890006-4.0709996
	C-8.8610001-8.099-10.3550005-8.717-11.8579998-8.7200003c-0.2910004,0.3389997-0.5700006,0.6900005-0.8430004,1.0439997
	c0.2729998-0.0509992,0.552-0.0839996,0.8339996-0.0839996c1.257,0,2.5050011,0.5189996,3.3959999,1.4039998
	c0.8910003,0.8850002,1.4010005,2.1390009,1.4010005,3.3959999c0,1.2570004-0.5159998,2.5050001-1.4039998,3.3959999
	c-0.8909998,0.888-2.1389999,1.4040012-3.3959999,1.4040012S-14.375,1.3239994-15.2659998,0.4359994
	c-0.5310001-0.5339999-0.9060011-1.1999989-1.1430006-1.914c-0.1800003,0.4110003-0.3269997,0.8339996-0.4890003,1.2600002
	C-16.6369991,0.2649989-16.3309994,0.724-15.941,1.1140003C-14.8760004,2.1790004-13.3760004,2.7999997-11.8699999,2.7999997z"/>
<path class="st4" d="M-11.8699999,1.8400006c1.257,0,2.5050001-0.5189996,3.3959999-1.4039998
	s1.4039998-2.1390009,1.4039998-3.3960013S-7.586-5.4650006-8.474-6.3560004s-2.1389999-1.4039998-3.3959999-1.4039998
	c-0.2790003,0-0.5580006,0.0360003-0.8339996,0.0839996c-1.4760008,1.8930001-2.7330008,3.9660001-3.7050009,6.198
	c0.2340012,0.7139997,0.6120005,1.3800001,1.1430006,1.9110003C-14.375,1.3239994-13.1270008,1.8400006-11.8699999,1.8400006z"/>
<path class="st5" d="M10-18.5c15.5999985,0,28.5,12.9000006,28.5,28.5S25.5999985,38.5,10,38.5S-18.5,25.5999985-18.5,10
	S-5.5999994-18.5,10-18.5 M10-20C-6.5-20-20-6.5-20,10s13.5,30,30,30s30-13.5,30-30S26.5-20,10-20L10-20z"/>
</svg>
