<?xml version="1.0" encoding="utf-8"?>
<svg version="1.1" id="Layer_1" xmlns="http://www.w3.org/2000/svg" xmlns:xlink="http://www.w3.org/1999/xlink" x="0px" y="0px"
	 viewBox="-22 -22 64 64" style="enable-background:new 0 0 20 20;" xml:space="preserve">
<style type="text/css">
	.st0{fill:#FFFFFF;stroke:#B6B6B6;stroke-width:0.15;}
	.st1{fill:#0067C6;}
	.st2{fill:none;stroke:#84D6FF;stroke-width:0.0462;}
	.st3{fill:#FFCE00;}
	.st4{fill:#84D6FF;}
	.st5{fill:none;stroke:#FFFFFF;stroke-width:0.0501;}
	.st6{fill:#317CA6;}
	.st7{fill:#D21734;}
	.st8{fill:none;stroke:#000000;stroke-width:0.0501;stroke-linecap:round;}
	.st9{fill:#57702E;}
	.st10{fill:#1D332F;}
	.st11{fill:#8DC32E;}
	.st12{fill:#C0148C;}
	.st13{fill:#FDCE12;}
	.st14{fill:#4E94C2;}
	.st15{fill:#1B4895;}
	.st16{fill:#FFFFFF;}
	.st17{fill:none;stroke:#000000;stroke-width:0.027;}
	.st18{fill:#CCCCCC;}
</style>
<circle class="st0" cx="10" cy="10" r="28.8000011"/>
<path class="st1" d="M10,38.8000031c12.5339985,0,23.1689987-8.0220013,27.1259995-19.2000008h-54.2519989
	C-13.1690006,30.7780018-2.5339999,38.8000031,10,38.8000031z"/>
<path class="st1" d="M10-18.7999992c-12.5340004,0-23.1690006,8.0219994-27.1259995,19.2000008h54.2519989
	C33.1689987-10.7779999,22.5340004-18.7999992,10-18.7999992z"/>
<path class="st2" d="M5.4310007,12.052H5.467001c-0.0959988,0-0.045001-0.0030012,0.1409998,0.0479994
	c0.1619997,0.0300007,0.3149986,0.0479994,0.4890003,0.0479994"/>
<path class="st2" d="M5.256999,12.7989988v-0.0479994c0,0.1560001-0.0090008,0.0600014,0.177-0.1500006
	c0.1560001-0.0389986,0.230999,0.0389986,0.420001,0.0479994c0.1020012,0.0720005,0.2819996,0.0479994,0.3840008,0
	c0.0510006-0.032999,0.0510006-0.0689993,0.1049995-0.1020012"/>
<path class="st2" d="M5.644001,12.901v-0.0510006c0.0240011,0.0150003,0.1560001,0,0.2459993,0
	c0.1800013,0,0.3239994-0.0119991,0.420001,0.1020012h0.0689993"/>
<g>
	<polygon class="st3" points="4.2070007,13.3449993 10,3.3129997 15.7929993,13.3449993 	"/>
	<polygon class="st4" points="4.7800007,13.0119991 10,3.9730005 15.2199993,13.0119991 	"/>
	<path class="st2" d="M6.9699993,11.8509989h0.0360003h0.1409998c0.1109991-0.0510006,0.2729988-0.0510006,0.3840008,0
		C7.573,12.0579996,7.6330013,12.0969982,7.8100014,12.1029978c0.0570002-0.0629997,0.1800013-0.1080008,0.2459993-0.1500006"/>
	<polyline class="st2" points="7.0749989,12.1989994 7.1080008,12.1989994 7.2490005,12.1989994 7.5639992,12.1989994 	"/>
	<path class="st2" d="M7.3869991,12.6490011v-0.0479994c0,0.1560001-0.0090008,0.0600014,0.177-0.1500006
		c0.1379986-0.099,0.2130003-0.1529989,0.420001-0.1020012c0.1500006,0.1109991,0.2010012,0.1800013,0.3840008,0.198
		c0.1679993,0,0.2399998-0.0360003,0.3840008-0.0479994"/>
	<path class="st2" d="M7.8430004,12.901h0.0360003c-0.099,0-0.045001,0.0059996,0.1409998-0.1020012
		c0.1739988,0.0629997,0.2910004,0.1469994,0.4890003,0.1500006C8.6199999,12.9399986,8.7039995,12.901,8.8239994,12.901"/>
	<path class="st2" d="M9.0999994,11.8509989h0.0360003h0.1409998c0.1710005,0,0.3360014-0.0030012,0.4890003,0.0479994h0.4890003
		c0.045001,0,0.0360003,0.0179987,0.0360003-0.0479994"/>
	<path class="st2" d="M8.9589996,12.2530012h0.0360003c-0.099,0-0.045001,0.0059996,0.1379986-0.1020012
		c0.1469994,0.0179987,0.3120003,0.045001,0.420001,0.1500006c0.1529989,0.0959988,0.2130003,0.1800013,0.420001,0.198
		c0.1169987-0.0090008,0.1230011-0.0749989,0.2459993-0.1020012"/>
	<path class="st2" d="M9.4840002,12.7509995C9.5379992,12.7120008,9.724,12.6130009,9.868001,12.7030001
		c0.1529989,0.0539989,0.3210011,0.0479994,0.4890003,0.0479994c0.1080008-0.0660009,0.2939987-0.1230011,0.3840008-0.198h0.1049995
		"/>
	<path class="st2" d="M10.9539995,12.0999994c0.0689993,0,0.3690004-0.0240011,0.5250006,0.0479994
		c0.1889992-0.032999,0.2550001-0.1650009,0.3840008-0.3000011c0.1290007,0,0.2399998,0.0059996,0.3480005,0.0479994"/>
	<path class="st2" d="M11.6169987,12.6999989c0.0030012,0,0.1409998-0.0389986,0.2459993-0.0479994
		c0.1590014-0.1710005,0.1829996,0.0030012,0.3480005,0.0479994c0.1800013-0.0600014,0.2729988-0.1860008,0.3480005-0.3480005"/>
	<path class="st2" d="M12.0009995,12.349h0.0360003c-0.1049995,0-0.045001,0.0090008,0.1409998-0.1500006
		c0.1230011-0.0870008,0.1379986-0.177,0.3149986-0.198c0.099-0.1049995,0.1710005-0.0150003,0.2459993,0.0479994"/>
	<path class="st2" d="M12.7359991,12.7509995c0.0059996-0.0389986,0.0689993-0.2550001,0.1049995-0.3480005
		c0.1560001-0.0899992,0.230999-0.1290007,0.3480005,0.1020012c0.1259995,0.0479994,0.2459993,0.1469994,0.3840008,0.198
		c0.0510006,0,0.0269995,0.0119991,0.0689993-0.0479994"/>
	<path class="st2" d="M13.2220011,12.052v-0.0479994c0,0.1560001-0.0090008,0.0629997,0.1409998-0.198
		c0.1619997,0.0419998,0.2039995,0.1800013,0.2790012,0.3480005c0.1739988,0,0.2879992-0.0059996,0.3840008-0.1020012"/>
	<path class="st2" d="M14.0649986,12.6009989c0.0209999-0.0419998,0.1619997-0.3690004,0.2790012-0.198
		c0.1560001,0.0600014,0.1800013,0.1619997,0.3480005,0.2519989c0.0300007-0.0749989,0.0629997-0.0899992,0.1409998-0.1020012"/>
	<path class="st2" d="M10.9870014,12.7989988h0.0360003c-0.099,0-0.045001,0.0059996,0.1409998-0.1020012
		c0.144001-0.1199999,0.2189999-0.1710005,0.3149986-0.3480005c0.1619997,0.0090008,0.2879992,0.0479994,0.4560013,0.0479994
		c0-0.0660009-0.0119991-0.0479994,0.0360003-0.0479994"/>
	<path class="st2" d="M6.5140009,12.1989994c0-0.0360003,0.0959988-0.0899992,0.2099991-0.1500006
		c0.0839996-0.0899992,0.1529989-0.0059996,0.2790012,0"/>
	<path class="st2" d="M6.6910009,12.6490011h0.0360003c-0.099,0-0.045001,0.0059996,0.1409998-0.1020012
		c0.1350002,0.0269995,0.1949987,0.1199999,0.3480005,0.1500006"/>
	<line class="st5" x1="10" y1="4.0629997" x2="10" y2="10.9599991"/>
	<line class="st5" x1="7.5100002" y1="8.3079996" x2="12.4899998" y2="8.3079996"/>
	<line class="st5" x1="8.170001" y1="7.2640009" x2="13.7320013" y2="10.474"/>
	<line class="st5" x1="11.8900003" y1="7.2399998" x2="6.2619991" y2="10.4890003"/>
	<line class="st5" x1="8.8780012" y1="10.2850008" x2="10.980999" y2="6.6369991"/>
	<line class="st5" x1="8.9649992" y1="6.5080013" x2="11.3199987" y2="10.5820007"/>
	<circle class="st4" cx="10" cy="8.3079996" r="0.7679987"/>
	<path class="st6" d="M14.2779989,11.3800001l-2.5830002,0.0389986c0,0,0.0150003,0.3840008,0.1800013,0.3959999
		c0.1710005,0.0150003,2.3070002-0.0269995,2.4000006,0.144001s-2.0849991,0.2609997-2.0849991,0.2609997
		s1.9139986-0.0150003,2.019001,0.131999c0.1049995,0.144001-1.0529995,0.1739988-0.9659986,0.198
		c0.0930004,0.0269995,1.355999-0.0269995,1.4730005,0.1169987c0.1169987,0.144001-0.573,0.2399998-0.573,0.2399998
		s1.0439987,0.1020012,1.0710011,0.099C14.9620008,12.5679998,14.2779989,11.3800001,14.2779989,11.3800001z"/>
	<path class="st7" d="M9.6159992,7.8070002c-0.0839996,0.0570002,0.1950016,0.0930004,0.1710005,0.276
		c-0.0209999,0.1290007-0.1710005,0.3000011-0.2369986,0.420001C9.4840002,8.6199999,9.8500023,9.052,10.189002,8.8210011
		c0.3389997-0.2370014,0.3000011-0.6629992,0.1800013-0.7409992C10.1020012,7.9029989,9.9250011,7.6330013,9.6159992,7.8070002z"/>
	<path class="st8" d="M9.6099997,8.5839996c-0.0510006-0.144001,0.177-0.0809984,0.2819996-0.0150003
		C9.9969988,8.6350002,10.177,8.8089991,10.0479994,8.8209982"/>
	<path class="st9" d="M7.782999,9.3730011c0.3060007-0.0720005,0.3929987,0.2879992,0.4890003,0.3449993
		c0.099,0.0600014,0.3630009,0.0899992,0.4289989,0.1290007c0.0689993,0.0389986,0.329999,0.2189999,0.329999,0.2189999
		s0.1169987-0.3179998,0.2519989-0.3449993c0.1379986-0.0300007,0.7230005,0.375,0.7230005,0.375
		s0.0689993-0.375,0.2249994-0.3239994s0.9389992,0.6419992,0.9389992,0.6419992s0.0389986-0.2070007,0.2039995-0.2669992
		c0.1679993-0.0600014,0.7440004,0.2969999,0.7440004,0.2969999s0.0689993-0.2879992,0.1860008-0.2879992
		c0.3389997,0,1.4489994,1.2030001,1.6949987,1.2299995c0.1140003,0.0119991-0.4050007,0.1650009-0.4050007,0.1650009
		s0.0899992,0.0810013,0.0389986,0.1500006c-0.0479994,0.0689993-1.5839996,0.0090008-1.5839996,0.0090008
		s0.045001,0.1049995,0.0209999,0.1379986c-0.045001,0.0600014-6.6779995,0.1080008-6.6779995,0.1080008
		C6.0129986,10.8850002,7.2340002,9.5019989,7.782999,9.3730011z"/>
	<path class="st10" d="M10.3990011,11.8959999c0.2370014-0.0600014,0.0689993-0.7020006-1.1999989-1.6829996
		c2.0130014,1.3919992,0.7349997,1.5810013,2.7900009,1.6409998C11.6199999,11.8809996,10.3990011,11.8959999,10.3990011,11.8959999
		z"/>
	<path class="st10" d="M10.0780001,10.1650009c0,0,1.9019995,1.4730005,1.9799995,1.5419998
		c0.099,0.0030012,0.407999,0.0150003,0.407999,0.0150003S12.2020006,11.7010012,10.0780001,10.1650009z"/>
	<path class="st10" d="M11.2120008,10.4499989c0,0,1.5959988,1.2600002,1.3380003,1.2629986
		c-0.2609997,0.0059996,0.8759995,0.0360003,1.0739994-0.0119991C12.5889997,11.644001,12.802,11.6020012,11.2120008,10.4499989z"/>
	<path class="st10" d="M12.1810007,10.5009995l1.4160004,1.0469999c0,0,0.2189999-0.0600014,0.3330002-0.1080008
		C13.506999,11.5,13.4350014,11.3110008,12.1810007,10.5009995z"/>
	<path class="st11" d="M8.0319996,9.5140009C8.1429987,9.5889997,8.170001,9.7299995,8.2390003,9.769001
		c0.0689993,0.0389986,0.7230005,0.3449993,1.0859985,0.7230005c0.3630009,0.375,0.9090014,0.849,0.7139997,0.9090014
		S9.657999,11.2540035,9.657999,11.2540035s0.2700005,0.4439993-0.0930004,0.4709988
		c-0.3630009,0.0300007-1.2509995-1.3170004-1.2509995-1.3170004s0.4289989,1.2149992-0.1169987,1.1669998
		c-0.5429993-0.045001-0.4859991-0.9150009-0.4859991-0.9150009s-0.1469994,0.4139986-0.2519989,0.4050007
		c-0.1080008-0.0090008,0-0.5429993,0-0.5429993s-0.6240005,1.0469999-0.8699999,0.9300013
		C6.3430004,11.3320007,7.5489988,9.4239988,8.0319996,9.5140009z"/>
	<path class="st11" d="M9.3339996,9.8709993C9.3189993,9.7689981,9.4119997,9.8049984,9.6069984,9.901
		c0.1949987,0.099,1.7669992,1.3170004,1.730999,1.4429998C11.2989988,11.467001,9.4239988,10.4499989,9.3339996,9.8709993z"/>
	<path class="st11" d="M10.4980011,10.0749989c-0.1169987-0.0269995,1.2509995,1.3649998,1.5720005,1.2750006
		C12.3969994,11.2600002,10.5880003,10.0959988,10.4980011,10.0749989z"/>
	<path class="st11" d="M11.4460011,10.1920004c-0.1500006-0.0119991,1.3320007,1.3260012,1.6529989,1.256999
		C13.420001,11.3800001,11.6829996,10.2130003,11.4460011,10.1920004z"/>
	<path class="st11" d="M12.3189993,10.2700005c-0.1650009,0.0300007,1.1040001,1.0050001,1.2600002,0.9959993
		S12.6970005,10.2039995,12.3189993,10.2700005z"/>
	<path class="st12" d="M7.9389992,7.5489988c0,0,0.7800007-0.9150009,2.0610008-0.9150009
		c1.2779989,0,2.0610008,0.9119997,2.0610008,0.9119997L11.7519989,7c0,0-0.6359997-0.6390009-1.7519989-0.6390009
		S8.256999,6.9909992,8.256999,6.9909992L7.9389992,7.5489988z"/>
	<path class="st7" d="M11.5539989,6.657999c0,0-0.5579996-0.474-1.5539989-0.474S8.4460011,6.6639986,8.4460011,6.6639986
		L8.1879997,7.1080008c0,0,0.5999994-0.6839991,1.8120003-0.6839991s1.8149986,0.6870003,1.8149986,0.6870003L11.5539989,6.657999z"
		/>
	<path class="st13" d="M11.3590002,6.2769995c0,0-0.5100002-0.3840008-1.3590002-0.3840008S8.6920004,6.2380009,8.6920004,6.2380009
		L8.4189987,6.7149992c0,0,0.5100002-0.5040007,1.5839996-0.5040007s1.5870008,0.5040007,1.5870008,0.5040007L11.3590002,6.2769995z
		"/>
	<path class="st11" d="M11.1190004,5.9169998l0.2459993,0.420001c0,0-0.5040007-0.375-1.3649998-0.375
		S8.6230011,6.3549995,8.6230011,6.3549995l0.2490005-0.4260006c0,0,0.3449993-0.2550001,1.1280012-0.2550001
		C10.7800007,5.6739988,11.1190004,5.9169998,11.1190004,5.9169998z"/>
	<path class="st14" d="M10.9510012,5.6230011l0.2070007,0.3570013c0,0-0.4919987-0.2519989-1.157999-0.2519989
		S8.8089991,6.0429993,8.8089991,6.0429993l0.198-0.342001c0,0,0.3480005-0.2099991,0.993001-0.2099991
		C10.6450005,5.4880009,10.9510012,5.6230011,10.9510012,5.6230011z"/>
	<path class="st15" d="M10.8399992,5.4310007l0.1650009,0.2879992c0,0-0.3120003-0.2039995-1.0050001-0.2039995
		S8.9919987,5.7159986,8.9919987,5.7159986l0.1710005-0.2969999c0,0,0.3060007-0.1109991,0.8370008-0.1109991
		C10.5429993,5.3110008,10.8399992,5.4310007,10.8399992,5.4310007z"/>
	<path class="st16" d="M8.7340002,12.0400009l2.6070013,0.0269995c0,0-0.4560013,0.0510006-0.4439993,0.1080008
		c0.0119991,0.0510006,0.9239988,0.0810013,0.9239988,0.0810013s-0.5579996,0.0389986-0.573,0.0930004
		c-0.0150003,0.0510006,0.2580013,0.0810013,0.2580013,0.0810013s-0.506999,0.0510006-0.506999,0.1080008
		c0,0.0510006,0.651,0.0810013,0.5999994,0.0810013s-0.8609991,0.0150003-0.8609991,0.0780001
		c0,0.0660009,0.5789995,0.2039995,0.5789995,0.2039995l-3.420001,0.0600014c0,0,0.5369997-0.0810013,0.5369997-0.1829996
		c0-0.1080008-0.3780012-0.131999-0.3780012-0.131999s1.3950005,0.0269995,1.4610014-0.0389986
		c0.0660009-0.0660009-0.2939987-0.1109991-0.2939987-0.1109991s0.552,0.0360003,0.5939999-0.032999
		c0.0389986-0.0660009-0.7440004-0.1710005-0.7440004-0.1710005s0.4560013,0.0150003,0.5219994-0.0660009
		C9.657999,12.1300001,8.7340002,12.0400009,8.7340002,12.0400009z"/>
	<path class="st6" d="M8.2359991,12.105999c0,0-2.5650015,0.0780001-2.7869997,0.2249994
		c-0.2220011,0.144001,1.4339991,0.2910004,1.4339991,0.2910004s-1.7070007,0.0150003-1.8360014,0.1710005
		c-0.1290007,0.1590014,1.0169992,0.131999,1.0169992,0.131999l-1.2810001,0.0899992l0.6119986-1.0589991L8.2359991,12.105999z"/>
</g>
<circle class="st13" cx="2.2839999" cy="12.4539995" r="0.1710005"/>
<circle class="st17" cx="2.2839999" cy="12.4539995" r="0.1710005"/>
<path class="st13" d="M3.2410007,13.144001l-0.6300001,0.0570002l0.177,0.3659992L3.2410007,13.144001z M2.7160001,14.0410004
	c-0.1049995,0.0959988-0.1799998,0.1529989-0.1110005,0.3060007l-0.0540004,0.0269995l-0.2789998-0.5880003l0.0540004-0.0269995
	c0.0540004,0.1049995,0.0900006,0.1199999,0.138,0.0959988c0.0330005-0.0150003,0.0599999-0.0419998,0.0869994-0.0660009
	l0.1680007-0.1560001l-0.2039995-0.4260006l-0.1229997,0.0150003c-0.0479994,0.0059996-0.1079993,0.0119991-0.1530004,0.0360003
	c-0.0869994,0.0389986-0.0809999,0.131999-0.0510006,0.2099991L2.1339993,13.494997l-0.2130003-0.4439993l0.0540004-0.0269995
	c0.1170001,0.1350002,0.2189999,0.1259995,0.3809996,0.1140003l1.026-0.0899992l0.1950002,0.2070007L2.7160001,14.0410004z"/>
<path class="st17" d="M3.2410007,13.144001l-0.6300001,0.0570002l0.177,0.3659992L3.2410007,13.144001z M2.7160001,14.0410004
	c-0.1049995,0.0959988-0.1799998,0.1529989-0.1110005,0.3060007l-0.0540004,0.0269995l-0.2789998-0.5880003l0.0540004-0.0269995
	c0.0540004,0.1049995,0.0900006,0.1199999,0.138,0.0959988c0.0330005-0.0150003,0.0599999-0.0419998,0.0869994-0.0660009
	l0.1680007-0.1560001l-0.2039995-0.4260006l-0.1229997,0.0150003c-0.0479994,0.0059996-0.1079993,0.0119991-0.1530004,0.0360003
	c-0.0869994,0.0389986-0.0809999,0.131999-0.0510006,0.2099991L2.1339993,13.494997l-0.2130003-0.4439993l0.0540004-0.0269995
	c0.1170001,0.1350002,0.2189999,0.1259995,0.3809996,0.1140003l1.026-0.0899992l0.1950002,0.2070007L2.7160001,14.0410004z"/>
<path class="st13" d="M3.6400003,15.493001c-0.1049995,0.0780001-0.1079993,0.1379986-0.0330005,0.2459993l-0.0479994,0.0360003
	l-0.3930001-0.5369997l0.0479994-0.0360003c0.0780001,0.1080008,0.138,0.1199999,0.2459993,0.0419998l0.7800007-0.573v-0.0030012
	l-1.2150006,0.375l-0.039-0.0539989l0.6900001-1.0290012l-0.0029998-0.0030012l-0.6090002,0.4499989
	c-0.2399998,0.177-0.2579999,0.2099991-0.177,0.3540001l-0.0479994,0.0360003l-0.276-0.3780012l0.0479994-0.0360003
	c0.1199999,0.1109991,0.1560001,0.1230011,0.3959999-0.0539989l0.5759997-0.420001
	c0.1110005-0.0810013,0.1049995-0.144001,0.0330005-0.2459993l0.0479994-0.0389986l0.3209996,0.4379997L3.474998,14.8059978
	l0.8639989-0.2580013l0.3120003,0.4260006L4.5999994,15.006999c-0.0870008-0.1020012-0.1290007-0.1259995-0.243001-0.0419998
	L3.6400003,15.493001z"/>
<path class="st17" d="M3.6400003,15.493001c-0.1049995,0.0780001-0.1079993,0.1379986-0.0330005,0.2459993l-0.0479994,0.0360003
	l-0.3930001-0.5369997l0.0479994-0.0360003c0.0780001,0.1080008,0.138,0.1199999,0.2459993,0.0419998l0.7800007-0.573v-0.0030012
	l-1.2150006,0.375l-0.039-0.0539989l0.6900001-1.0290012l-0.0029998-0.0030012l-0.6090002,0.4499989
	c-0.2399998,0.177-0.2579999,0.2099991-0.177,0.3540001l-0.0479994,0.0360003l-0.276-0.3780012l0.0479994-0.0360003
	c0.1199999,0.1109991,0.1560001,0.1230011,0.3959999-0.0539989l0.5759997-0.420001
	c0.1110005-0.0810013,0.1049995-0.144001,0.0330005-0.2459993l0.0479994-0.0389986l0.3209996,0.4379997L3.474998,14.8059978
	l0.8639989-0.2580013l0.3120003,0.4260006L4.5999994,15.006999c-0.0870008-0.1020012-0.1290007-0.1259995-0.243001-0.0419998
	L3.6400003,15.493001z"/>
<path class="st13" d="M3.8590002,15.9759989c0.099,0.0899992,0.1619997,0.0899992,0.2490005-0.0090008l0.5939999-0.6660004
	c0.0870008-0.099,0.0780001-0.1590014-0.0209999-0.2490005l0.0389986-0.045001l0.8310013,0.7440004l-0.1409998,0.3360052
	l-0.0570002-0.0209999c0.0150003-0.2010021-0.0360003-0.4320011-0.1949987-0.5730009
	c-0.1230011-0.1080008-0.1619997-0.0689993-0.2519989,0.0360003l-0.2399998,0.2700005l0.0300007,0.0240011
	c0.1379986,0.1230011,0.2189999,0.1560001,0.3929987,0.0570002l0.0539989,0.0479994L4.782999,16.329998l-0.0570002-0.0509987
	c0.0870008-0.1739998,0.045001-0.2670002-0.0899992-0.3900013l-0.032999-0.0269995l-0.2580013,0.2910013
	c-0.0720005,0.0810013-0.1109991,0.1409988-0.0150003,0.230999c0.1710005,0.152998,0.4110003,0.1919994,0.6300001,0.1650009
	l0.0240011,0.0509987L4.651,16.7649994l-0.8309999-0.7439995L3.8590002,15.9759989z"/>
<path class="st17" d="M3.8590002,15.9759989c0.099,0.0899992,0.1619997,0.0899992,0.2490005-0.0090008l0.5939999-0.6660004
	c0.0870008-0.099,0.0780001-0.1590014-0.0209999-0.2490005l0.0389986-0.045001l0.8310013,0.7440004l-0.1409998,0.3360052
	l-0.0570002-0.0209999c0.0150003-0.2010021-0.0360003-0.4320011-0.1949987-0.5730009
	c-0.1230011-0.1080008-0.1619997-0.0689993-0.2519989,0.0360003l-0.2399998,0.2700005l0.0300007,0.0240011
	c0.1379986,0.1230011,0.2189999,0.1560001,0.3929987,0.0570002l0.0539989,0.0479994L4.782999,16.329998l-0.0570002-0.0509987
	c0.0870008-0.1739998,0.045001-0.2670002-0.0899992-0.3900013l-0.032999-0.0269995l-0.2580013,0.2910013
	c-0.0720005,0.0810013-0.1109991,0.1409988-0.0150003,0.230999c0.1710005,0.152998,0.4110003,0.1919994,0.6300001,0.1650009
	l0.0240011,0.0509987L4.651,16.7649994l-0.8309999-0.7439995L3.8590002,15.9759989z"/>
<path class="st13" d="M5.7220011,16.6149998c0.2580013,0.1620007,0.3929987,0.1259995,0.4949999-0.0389996
	C6.3190022,16.4169998,6.2590008,16.3059998,6.0939999,16.198c-0.1049995-0.066-0.131999-0.0300007-0.1889992,0.0600014
	l-0.2099991,0.3360004L5.7220011,16.6149998z M5.9949999,17.2810001c-0.0090008,0.144001-0.0179987,0.2729988,0.1109991,0.3690014
	L6.073,17.7010002l-0.3900003-0.243c0-0.0569992,0.0090008-0.1140003,0.0150003-0.1739998l0.0300007-0.2519989
	c0.032999-0.2609978-0.0179987-0.3179989-0.0839996-0.3570004L5.4250011,17.026001
	c-0.0689993,0.1079998-0.0510006,0.1709995,0.0600014,0.2399979l-0.032999,0.0480003l-0.5610008-0.3509979l0.032999-0.0510025
	c0.1109991,0.0720024,0.1739988,0.0600014,0.243001-0.0479984l0.4709988-0.7559986
	C5.7070007,16,5.689002,15.9370003,5.5780001,15.868001l0.032999-0.0510006l0.6750011,0.4229994
	c0.2340002,0.144001,0.2969999,0.3599987,0.1920004,0.527998C6.3699999,16.9419975,6.1660004,16.927,5.9980011,16.8610001
	c0.0300007,0.0629997,0.0209999,0.1349983,0.0150003,0.2010002L5.9949999,17.2810001z"/>
<path class="st17" d="M5.7220011,16.6149998c0.2580013,0.1620007,0.3929987,0.1259995,0.4949999-0.0389996
	C6.3190022,16.4169998,6.2590008,16.3059998,6.0939999,16.198c-0.1049995-0.066-0.131999-0.0300007-0.1889992,0.0600014
	l-0.2099991,0.3360004L5.7220011,16.6149998z M5.9949999,17.2810001c-0.0090008,0.144001-0.0179987,0.2729988,0.1109991,0.3690014
	L6.073,17.7010002l-0.3900003-0.243c0-0.0569992,0.0090008-0.1140003,0.0150003-0.1739998l0.0300007-0.2519989
	c0.032999-0.2609978-0.0179987-0.3179989-0.0839996-0.3570004L5.4250011,17.026001
	c-0.0689993,0.1079998-0.0510006,0.1709995,0.0600014,0.2399979l-0.032999,0.0480003l-0.5610008-0.3509979l0.032999-0.0510025
	c0.1109991,0.0720024,0.1739988,0.0600014,0.243001-0.0479984l0.4709988-0.7559986
	C5.7070007,16,5.689002,15.9370003,5.5780001,15.868001l0.032999-0.0510006l0.6750011,0.4229994
	c0.2340002,0.144001,0.2969999,0.3599987,0.1920004,0.527998C6.3699999,16.9419975,6.1660004,16.927,5.9980011,16.8610001
	c0.0300007,0.0629997,0.0209999,0.1349983,0.0150003,0.2010002L5.9949999,17.2810001z"/>
<path class="st13" d="M6.7750006,16.7590008c0.0539989-0.1169987,0.0300007-0.177-0.0930004-0.230999l0.0269995-0.0539989
	l0.605999,0.2729988l-0.0269995,0.0539989c-0.1199999-0.0539989-0.1800013-0.0360012-0.2340002,0.0810013l-0.3690004,0.8129997
	c-0.0539989,0.1169987-0.0300007,0.1739979,0.0930004,0.230999l-0.0269995,0.0539989l-0.605999-0.2729988l0.0269995-0.0539989
	c0.1199999,0.0539989,0.1800013,0.0360012,0.2340002-0.0810013L6.7750006,16.7590008z"/>
<path class="st17" d="M6.7750006,16.7590008c0.0539989-0.1169987,0.0300007-0.177-0.0930004-0.230999l0.0269995-0.0539989
	l0.605999,0.2729988l-0.0269995,0.0539989c-0.1199999-0.0539989-0.1800013-0.0360012-0.2340002,0.0810013l-0.3690004,0.8129997
	c-0.0539989,0.1169987-0.0300007,0.1739979,0.0930004,0.230999l-0.0269995,0.0539989l-0.605999-0.2729988l0.0269995-0.0539989
	c0.1199999,0.0539989,0.1800013,0.0360012,0.2340002-0.0810013L6.7750006,16.7590008z"/>
<path class="st13" d="M8.2509995,17.4610023H8.1639986c-0.0240011-0.1920013-0.1080008-0.4230003-0.3120003-0.4890022
	c-0.2669992-0.0869999-0.4379997,0.2340012-0.5040007,0.4410019c-0.1379986,0.4260006,0.0179987,0.6720009,0.2159986,0.7350006
	c0.177,0.0569992,0.3239994-0.0300026,0.4589996-0.1290016l0.0360003,0.0480003
	c-0.1860008,0.1769981-0.3990011,0.2609978-0.6569996,0.1800003c-0.3509989-0.1110001-0.5040007-0.4830017-0.3959999-0.8249989
	c0.1169987-0.3659992,0.4770012-0.6420002,0.8430004-0.527998c0.0629997,0.0209999,0.1080008,0.0509987,0.1500006,0.0810013
	c0.0389986,0.0299988,0.0720005,0.053997,0.1080008,0.066c0.045001,0.0150013,0.0959988,0.0059986,0.1409998,0l0.0240011-0.0059986
	L8.2509995,17.4610023z"/>
<path class="st17" d="M8.2509995,17.4610023H8.1639986c-0.0240011-0.1920013-0.1080008-0.4230003-0.3120003-0.4890022
	c-0.2669992-0.0869999-0.4379997,0.2340012-0.5040007,0.4410019c-0.1379986,0.4260006,0.0179987,0.6720009,0.2159986,0.7350006
	c0.177,0.0569992,0.3239994-0.0300026,0.4589996-0.1290016l0.0360003,0.0480003
	c-0.1860008,0.1769981-0.3990011,0.2609978-0.6569996,0.1800003c-0.3509989-0.1110001-0.5040007-0.4830017-0.3959999-0.8249989
	c0.1169987-0.3659992,0.4770012-0.6420002,0.8430004-0.527998c0.0629997,0.0209999,0.1080008,0.0509987,0.1500006,0.0810013
	c0.0389986,0.0299988,0.0720005,0.053997,0.1080008,0.066c0.045001,0.0150013,0.0959988,0.0059986,0.1409998,0l0.0240011-0.0059986
	L8.2509995,17.4610023z"/>
<path class="st13" d="M8.7399998,17.355999l-0.3120003,0.552l0.3990011,0.0629997L8.7399998,17.355999z M9.1810007,18.2919998
	c0.0209999,0.1379986,0.0240011,0.2370014,0.1860008,0.2639999l-0.0090008,0.0600014l-0.6419992-0.1049995l0.0090008-0.0600014
	C8.842001,18.4660015,8.8750029,18.448,8.8840036,18.3909988c0.0059996-0.0359993,0-0.0749969-0.0059996-0.1079998
	l-0.032999-0.222002l-0.4650049-0.0749969L8.323,18.0939999c-0.0240011,0.0419998-0.0510006,0.0990009-0.0600014,0.1469994
	c-0.0150003,0.0930004,0.0629997,0.144001,0.144001,0.1620007l-0.0090008,0.0600014l-0.4859991-0.078001l0.0090008-0.0600014
	c0.1800013-0.0209999,0.230999-0.1079998,0.3120003-0.2490005l0.5100002-0.894001l0.2790012-0.0419998L9.1810007,18.2919998z"/>
<path class="st17" d="M8.7399998,17.355999l-0.3120003,0.552l0.3990011,0.0629997L8.7399998,17.355999z M9.1810007,18.2919998
	c0.0209999,0.1379986,0.0240011,0.2370014,0.1860008,0.2639999l-0.0090008,0.0600014l-0.6419992-0.1049995l0.0090008-0.0600014
	C8.842001,18.4660015,8.8750029,18.448,8.8840036,18.3909988c0.0059996-0.0359993,0-0.0749969-0.0059996-0.1079998
	l-0.032999-0.222002l-0.4650049-0.0749969L8.323,18.0939999c-0.0240011,0.0419998-0.0510006,0.0990009-0.0600014,0.1469994
	c-0.0150003,0.0930004,0.0629997,0.144001,0.144001,0.1620007l-0.0090008,0.0600014l-0.4859991-0.078001l0.0090008-0.0600014
	c0.1800013-0.0209999,0.230999-0.1079998,0.3120003-0.2490005l0.5100002-0.894001l0.2790012-0.0419998L9.1810007,18.2919998z"/>
<path class="st13" d="M11.0860014,17.5900002l-0.0810013,0.0329971c-0.0930004-0.1739979-0.2550001-0.3570004-0.4680004-0.3419991
	c-0.2790012,0.0179977-0.3239994,0.3780003-0.3089991,0.593998c0.0269995,0.4470024,0.2580013,0.6180019,0.4680004,0.6090012
	c0.1800013-0.0119991,0.2910004-0.1469994,0.3809996-0.2879982l0.0510006,0.0329971
	c-0.1109991,0.230999-0.276,0.3900013-0.5429993,0.4050026c-0.3690004,0.0240002-0.6450005-0.2670002-0.6660004-0.6240005
	c-0.0240011-0.3840027,0.2099991-0.7740021,0.5939999-0.7980003c0.0660009-0.0030022,0.1199999,0.0090008,0.1679993,0.0209999
	C10.7260017,17.244997,10.7680016,17.257,10.8040018,17.257c0.0479994-0.0030022,0.0930004-0.0300026,0.131999-0.0510025
	l0.0209999-0.0119972L11.0860014,17.5900002z"/>
<path class="st17" d="M11.0860014,17.5900002l-0.0810013,0.0329971c-0.0930004-0.1739979-0.2550001-0.3570004-0.4680004-0.3419991
	c-0.2790012,0.0179977-0.3239994,0.3780003-0.3089991,0.593998c0.0269995,0.4470024,0.2580013,0.6180019,0.4680004,0.6090012
	c0.1800013-0.0119991,0.2910004-0.1469994,0.3809996-0.2879982l0.0510006,0.0329971
	c-0.1109991,0.230999-0.276,0.3900013-0.5429993,0.4050026c-0.3690004,0.0240002-0.6450005-0.2670002-0.6660004-0.6240005
	c-0.0240011-0.3840027,0.2099991-0.7740021,0.5939999-0.7980003c0.0660009-0.0030022,0.1199999,0.0090008,0.1679993,0.0209999
	C10.7260017,17.244997,10.7680016,17.257,10.8040018,17.257c0.0479994-0.0030022,0.0930004-0.0300026,0.131999-0.0510025
	l0.0209999-0.0119972L11.0860014,17.5900002z"/>
<path class="st13" d="M11.3439999,18.4659996c0.1290007-0.0300026,0.1650009-0.0810013,0.1350002-0.2070007l-0.2010012-0.8700008
	c-0.0300007-0.1259995-0.0839996-0.1560001-0.2130003-0.1259995l-0.0150003-0.0600014l1.0889997-0.2519989l0.1920004,0.3120003
	l-0.0479994,0.0360012c-0.1590014-0.1290016-0.3780012-0.2190018-0.5820007-0.1710014
	c-0.1619997,0.0359993-0.1469994,0.0930004-0.1169987,0.2249985l0.0810013,0.3509998l0.0360003-0.0090008
	c0.1800013-0.0389977,0.2519989-0.0930004,0.2700005-0.2879982l0.0689993-0.0179996l0.1199999,0.5219994l-0.0689993,0.0179996
	c-0.0930004-0.1710014-0.1920004-0.1889992-0.3690004-0.1500015l-0.0389986,0.0090008l0.0899992,0.3809986
	c0.0240011,0.1049995,0.0510006,0.1739998,0.1800013,0.1410007c0.2249994-0.0510006,0.3959999-0.2250004,0.4980011-0.4200001
	l0.0539989,0.0149994l-0.0570002,0.3659992l-1.0889997,0.2519989L11.3439999,18.4659996z"/>
<path class="st17" d="M11.3439999,18.4659996c0.1290007-0.0300026,0.1650009-0.0810013,0.1350002-0.2070007l-0.2010012-0.8700008
	c-0.0300007-0.1259995-0.0839996-0.1560001-0.2130003-0.1259995l-0.0150003-0.0600014l1.0889997-0.2519989l0.1920004,0.3120003
	l-0.0479994,0.0360012c-0.1590014-0.1290016-0.3780012-0.2190018-0.5820007-0.1710014
	c-0.1619997,0.0359993-0.1469994,0.0930004-0.1169987,0.2249985l0.0810013,0.3509998l0.0360003-0.0090008
	c0.1800013-0.0389977,0.2519989-0.0930004,0.2700005-0.2879982l0.0689993-0.0179996l0.1199999,0.5219994l-0.0689993,0.0179996
	c-0.0930004-0.1710014-0.1920004-0.1889992-0.3690004-0.1500015l-0.0389986,0.0090008l0.0899992,0.3809986
	c0.0240011,0.1049995,0.0510006,0.1739998,0.1800013,0.1410007c0.2249994-0.0510006,0.3959999-0.2250004,0.4980011-0.4200001
	l0.0539989,0.0149994l-0.0570002,0.3659992l-1.0889997,0.2519989L11.3439999,18.4659996z"/>
<path class="st13" d="M13.6689987,17.3470001l-0.2489977-0.5669994c-0.0629997-0.144001-0.1109991-0.2189999-0.2879992-0.1620007
	l-0.0240011-0.053997l0.4470005-0.1949997l0.0240011,0.0539989c-0.1500006,0.0990009-0.1350002,0.1709995-0.0720005,0.3210011
	l0.4139986,0.9449997l-0.1560001,0.0689983l-1.1040001-0.6660004L12.9460011,17.743
	c0.0810013,0.1830006,0.1169987,0.2130013,0.3120003,0.1710014l0.0240011,0.0539989l-0.4799995,0.2099991l-0.0269995-0.0539989
	c0.1529989-0.098999,0.1619997-0.1619987,0.0930004-0.3180008l-0.342001-0.7799988
	C12.451004,16.9899998,12.361002,16.9780006,12.2800035,16.993l-0.0240011-0.053997l0.4320002-0.1889992L13.6689987,17.3470001z"/>
<path class="st17" d="M13.6689987,17.3470001l-0.2489977-0.5669994c-0.0629997-0.144001-0.1109991-0.2189999-0.2879992-0.1620007
	l-0.0240011-0.053997l0.4470005-0.1949997l0.0240011,0.0539989c-0.1500006,0.0990009-0.1350002,0.1709995-0.0720005,0.3210011
	l0.4139986,0.9449997l-0.1560001,0.0689983l-1.1040001-0.6660004L12.9460011,17.743
	c0.0810013,0.1830006,0.1169987,0.2130013,0.3120003,0.1710014l0.0240011,0.0539989l-0.4799995,0.2099991l-0.0269995-0.0539989
	c0.1529989-0.098999,0.1619997-0.1619987,0.0930004-0.3180008l-0.342001-0.7799988
	C12.451004,16.9899998,12.361002,16.9780006,12.2800035,16.993l-0.0240011-0.053997l0.4320002-0.1889992L13.6689987,17.3470001z"/>
<path class="st13" d="M14.5419998,15.6850014l0.2910004,0.2519989l-0.045001,0.0539989
	c-0.1529989-0.0629997-0.3869991-0.1140003-0.5369997-0.0179987l0.5939999,0.8669996
	c0.0720005,0.1079998,0.1350002,0.1139984,0.2459993,0.0389977l0.0360003,0.0510006l-0.5460005,0.375l-0.0360003-0.0510006
	c0.1080008-0.0749989,0.1259995-0.1350002,0.0510006-0.243l-0.5939999-0.8670006
	c-0.1409998,0.1230011-0.1800013,0.3240013-0.177,0.5040016l-0.0660009,0.0240021l-0.1350002-0.3570023L14.5419998,15.6850014z"/>
<path class="st17" d="M14.5419998,15.6850014l0.2910004,0.2519989l-0.045001,0.0539989
	c-0.1529989-0.0629997-0.3869991-0.1140003-0.5369997-0.0179987l0.5939999,0.8669996
	c0.0720005,0.1079998,0.1350002,0.1139984,0.2459993,0.0389977l0.0360003,0.0510006l-0.5460005,0.375l-0.0360003-0.0510006
	c0.1080008-0.0749989,0.1259995-0.1350002,0.0510006-0.243l-0.5939999-0.8670006
	c-0.1409998,0.1230011-0.1800013,0.3240013-0.177,0.5040016l-0.0660009,0.0240021l-0.1350002-0.3570023L14.5419998,15.6850014z"/>
<path class="st13" d="M15.4210005,15.7209988c0.2189999-0.2130003,0.2130003-0.3509989,0.0780001-0.4890003
	c-0.131999-0.131999-0.2519989-0.1080008-0.3959999,0.032999c-0.0870008,0.0870008-0.0570002,0.1199999,0.0150003,0.198
	l0.2790012,0.2850008L15.4210005,15.7209988z M16.1290016,15.6130009c0.1379967,0.0389986,0.2609978,0.0810013,0.3839989-0.0240011
	l0.0419998,0.0419998l-0.3239975,0.3210011c-0.0540009-0.0119991-0.1080017-0.0360003-0.1650009-0.0539989l-0.2400007-0.0899992
	c-0.2490005-0.0930004-0.3149986-0.0570002-0.3690004-0.0030012l0.2910004,0.2969999
	c0.0930004,0.0930004,0.1529989,0.0900002,0.2490005-0.0030022l0.0419998,0.0419998l-0.4709988,0.4650002l-0.0419998-0.0419998
	c0.0959988-0.0930004,0.1020012-0.1560001,0.0090008-0.2490005l-0.6240005-0.6359997
	c-0.0930004-0.0930004-0.1529989-0.0899992-0.2490005,0.0030012l-0.0419998-0.0419998l0.5670004-0.5579996
	c0.1949987-0.1920004,0.420001-0.2039995,0.5579996-0.0629997c0.1409998,0.144001,0.0810013,0.3389997-0.0240011,0.4859991
	c0.0689993-0.0119991,0.1350002,0.0150003,0.198,0.0360003L16.1290016,15.6130009z"/>
<path class="st17" d="M15.4210005,15.7209988c0.2189999-0.2130003,0.2130003-0.3509989,0.0780001-0.4890003
	c-0.131999-0.131999-0.2519989-0.1080008-0.3959999,0.032999c-0.0870008,0.0870008-0.0570002,0.1199999,0.0150003,0.198
	l0.2790012,0.2850008L15.4210005,15.7209988z M16.1290016,15.6130009c0.1379967,0.0389986,0.2609978,0.0810013,0.3839989-0.0240011
	l0.0419998,0.0419998l-0.3239975,0.3210011c-0.0540009-0.0119991-0.1080017-0.0360003-0.1650009-0.0539989l-0.2400007-0.0899992
	c-0.2490005-0.0930004-0.3149986-0.0570002-0.3690004-0.0030012l0.2910004,0.2969999
	c0.0930004,0.0930004,0.1529989,0.0900002,0.2490005-0.0030022l0.0419998,0.0419998l-0.4709988,0.4650002l-0.0419998-0.0419998
	c0.0959988-0.0930004,0.1020012-0.1560001,0.0090008-0.2490005l-0.6240005-0.6359997
	c-0.0930004-0.0930004-0.1529989-0.0899992-0.2490005,0.0030012l-0.0419998-0.0419998l0.5670004-0.5579996
	c0.1949987-0.1920004,0.420001-0.2039995,0.5579996-0.0629997c0.1409998,0.144001,0.0810013,0.3389997-0.0240011,0.4859991
	c0.0689993-0.0119991,0.1350002,0.0150003,0.198,0.0360003L16.1290016,15.6130009z"/>
<path class="st13" d="M16.0389977,14.3800001l0.3570023,0.5250006l0.2370014-0.329999L16.0389977,14.3800001z
	 M17.0739994,14.4040012c0.1319981,0.0419998,0.222002,0.0839996,0.3210011-0.0479994l0.0480003,0.0360003l-0.3780022,0.5310001
	l-0.0480003-0.0360003c0.0660019-0.099,0.0629997-0.1350002,0.0179996-0.1679993
	c-0.0300007-0.0209999-0.066-0.0360003-0.1020012-0.0419998l-0.2159977-0.0720005l-0.2729988,0.3869991l0.0719986,0.1020012
	c0.0300026,0.0389986,0.0629997,0.0899992,0.1049995,0.1199999c0.078001,0.0539989,0.156002,0.0059996,0.2070007-0.0570002
	l0.0480003,0.0360003l-0.2849998,0.3990011l-0.0480003-0.0360003c0.0600014-0.1679993,0.0060005-0.2519989-0.0839996-0.3869991
	l-0.5760012-0.8520012l0.0870008-0.2700005L17.0739994,14.4040012z"/>
<path class="st17" d="M16.0389977,14.3800001l0.3570023,0.5250006l0.2370014-0.329999L16.0389977,14.3800001z
	 M17.0739994,14.4040012c0.1319981,0.0419998,0.222002,0.0839996,0.3210011-0.0479994l0.0480003,0.0360003l-0.3780022,0.5310001
	l-0.0480003-0.0360003c0.0660019-0.099,0.0629997-0.1350002,0.0179996-0.1679993
	c-0.0300007-0.0209999-0.066-0.0360003-0.1020012-0.0419998l-0.2159977-0.0720005l-0.2729988,0.3869991l0.0719986,0.1020012
	c0.0300026,0.0389986,0.0629997,0.0899992,0.1049995,0.1199999c0.078001,0.0539989,0.156002,0.0059996,0.2070007-0.0570002
	l0.0480003,0.0360003l-0.2849998,0.3990011l-0.0480003-0.0360003c0.0600014-0.1679993,0.0060005-0.2519989-0.0839996-0.3869991
	l-0.5760012-0.8520012l0.0870008-0.2700005L17.0739994,14.4040012z"/>
<path class="st13" d="M17.4220009,14.2810001c0.0600014-0.1199999,0.0419998-0.1800013-0.0720024-0.2370014l-0.8009987-0.3959999
	c-0.1140022-0.0570002-0.1739998-0.0360003-0.2340012,0.0870008l-0.0539989-0.0269995l0.2939987-0.5939999l0.0539989,0.0269995
	c-0.0600014,0.1199999-0.0419998,0.1800013,0.0720005,0.2370014l0.8010006,0.3959999
	c0.1020012,0.0479994,0.144001,0.0689993,0.2039986-0.0539989c0.1020012-0.2039995,0.0510025-0.4439993-0.0329971-0.6419992
	l0.0359993-0.0360003l0.2790012,0.2669992l-0.4950008,0.9990005L17.4220009,14.2810001z"/>
<path class="st17" d="M17.4220009,14.2810001c0.0600014-0.1199999,0.0419998-0.1800013-0.0720024-0.2370014l-0.8009987-0.3959999
	c-0.1140022-0.0570002-0.1739998-0.0360003-0.2340012,0.0870008l-0.0539989-0.0269995l0.2939987-0.5939999l0.0539989,0.0269995
	c-0.0600014,0.1199999-0.0419998,0.1800013,0.0720005,0.2370014l0.8010006,0.3959999
	c0.1020012,0.0479994,0.144001,0.0689993,0.2039986-0.0539989c0.1020012-0.2039995,0.0510025-0.4439993-0.0329971-0.6419992
	l0.0359993-0.0360003l0.2790012,0.2669992l-0.4950008,0.9990005L17.4220009,14.2810001z"/>
<circle class="st13" cx="17.7220001" cy="12.4539995" r="0.1710005"/>
<circle class="st17" cx="17.7220001" cy="12.4539995" r="0.1710005"/>
<path class="st13" d="M2.1279998,11.3800001c-0.0449996-0.3029995-0.1619997-0.3780012-0.3540001-0.3480005
	c-0.1829996,0.0300007-0.2340002,0.144001-0.2039995,0.3389997c0.0209999,0.1199999,0.0659995,0.1169987,0.1710005,0.1049995
	l0.3959999-0.0600014L2.1279998,11.3800001z M2.4550004,10.7409992C2.5690007,10.6539984,2.6740003,10.573,2.6589999,10.4169998
	l0.0599999-0.0090008l0.0689993,0.4530001c-0.0419998,0.0360003-0.0960002,0.0689993-0.1409998,0.1049995l-0.2130003,0.144001
	c-0.2189999,0.1469994-0.2280006,0.2220011-0.2160001,0.2969999l0.4080005-0.0629997
	C2.7519989,11.323,2.7879992,11.2719994,2.7669992,11.1400003l0.0599999-0.0090008l0.1019998,0.6540012l-0.0570002,0.0059996
	c-0.0209999-0.131999-0.0689993-0.1710005-0.1950002-0.1500006l-0.8820004,0.1379986
	c-0.1290007,0.0209999-0.1619997,0.0720005-0.1409998,0.2039995l-0.0599999,0.0090008l-0.125998-0.7919998
	c-0.0419998-0.2700005,0.0780001-0.4620008,0.2730002-0.4890003c0.2009997-0.032999,0.3239994,0.131999,0.3839993,0.3029995
	c0.0300007-0.0629997,0.0900006-0.1020012,0.1439996-0.1409998L2.4550004,10.7409992z"/>
<path class="st17" d="M2.1279998,11.3800001c-0.0449996-0.3029995-0.1619997-0.3780012-0.3540001-0.3480005
	c-0.1829996,0.0300007-0.2340002,0.144001-0.2039995,0.3389997c0.0209999,0.1199999,0.0659995,0.1169987,0.1710005,0.1049995
	l0.3959999-0.0600014L2.1279998,11.3800001z M2.4550004,10.7409992C2.5690007,10.6539984,2.6740003,10.573,2.6589999,10.4169998
	l0.0599999-0.0090008l0.0689993,0.4530001c-0.0419998,0.0360003-0.0960002,0.0689993-0.1409998,0.1049995l-0.2130003,0.144001
	c-0.2189999,0.1469994-0.2280006,0.2220011-0.2160001,0.2969999l0.4080005-0.0629997
	C2.7519989,11.323,2.7879992,11.2719994,2.7669992,11.1400003l0.0599999-0.0090008l0.1019998,0.6540012l-0.0570002,0.0059996
	c-0.0209999-0.131999-0.0689993-0.1710005-0.1950002-0.1500006l-0.8820004,0.1379986
	c-0.1290007,0.0209999-0.1619997,0.0720005-0.1409998,0.2039995l-0.0599999,0.0090008l-0.125998-0.7919998
	c-0.0419998-0.2700005,0.0780001-0.4620008,0.2730002-0.4890003c0.2009997-0.032999,0.3239994,0.131999,0.3839993,0.3029995
	c0.0300007-0.0629997,0.0900006-0.1020012,0.1439996-0.1409998L2.4550004,10.7409992z"/>
<path class="st13" d="M2.6680007,10.3360014c0.0059996-0.131999-0.0360003-0.1800013-0.1649995-0.1829996l-0.8939996-0.0360003
	c-0.1290007-0.0059996-0.1740003,0.0389986-0.177,0.1739988l-0.0599999-0.0030012l0.0419998-1.1159992l0.3539987-0.1020012
	L1.789,9.1269989C1.6240005,9.2440004,1.4769998,9.4329996,1.4710002,9.6429987
	C1.4680004,9.8079996,1.5219994,9.8110008,1.6599994,9.8170004L2.019999,9.8320007V9.7929993
	C2.0259986,9.6069984,1.9959993,9.526,1.8129997,9.4539995L1.8159995,9.381999l0.5339999,0.0180016L2.3469996,9.4749994
	c-0.1889992,0.045001-0.2340002,0.1350002-0.2399998,0.3179998L2.1040001,9.8320007l0.3930001,0.0150003
	c0.1049995,0.0029984,0.177-0.0060024,0.1829996-0.1350002c0.0089993-0.230999-0.1110005-0.4410009-0.276-0.5909986
	l0.0300007-0.0479994l0.3389997,0.1500006l-0.0419998,1.1159992H2.6680007V10.3360014z"/>
<path class="st17" d="M2.6680007,10.3360014c0.0059996-0.131999-0.0360003-0.1800013-0.1649995-0.1829996l-0.8939996-0.0360003
	c-0.1290007-0.0059996-0.1740003,0.0389986-0.177,0.1739988l-0.0599999-0.0030012l0.0419998-1.1159992l0.3539987-0.1020012
	L1.789,9.1269989C1.6240005,9.2440004,1.4769998,9.4329996,1.4710002,9.6429987
	C1.4680004,9.8079996,1.5219994,9.8110008,1.6599994,9.8170004L2.019999,9.8320007V9.7929993
	C2.0259986,9.6069984,1.9959993,9.526,1.8129997,9.4539995L1.8159995,9.381999l0.5339999,0.0180016L2.3469996,9.4749994
	c-0.1889992,0.045001-0.2340002,0.1350002-0.2399998,0.3179998L2.1040001,9.8320007l0.3930001,0.0150003
	c0.1049995,0.0029984,0.177-0.0060024,0.1829996-0.1350002c0.0089993-0.230999-0.1110005-0.4410009-0.276-0.5909986
	l0.0300007-0.0479994l0.3389997,0.1500006l-0.0419998,1.1159992H2.6680007V10.3360014z"/>
<path class="st13" d="M2.2119994,8.401l0.0239997-0.1080008C2.2839999,8.079999,2.2269998,7.9599991,2.0139995,7.9150009
	c-0.198-0.0419998-0.3059993,0.0419998-0.3449993,0.2130003c-0.0330005,0.1469994,0.0209999,0.1589985,0.1469994,0.185998
	L2.2119994,8.401z M2.2810001,8.4189987l0.3809996,0.0870008c0.1259995,0.0300007,0.177-0.0090008,0.2039995-0.1379986
	l0.0599999,0.0150003L2.7819996,9.0279989L2.7249994,9.0129986c0.0300007-0.1290007,0-0.1829996-0.1259995-0.2130003
	L1.7260003,8.6049995c-0.1260009-0.0269995-0.177,0.0090008-0.2040009,0.1380014L1.4619994,8.7280006l0.144001-0.6480017
	c0.0899992-0.4049978,0.2940001-0.5189981,0.474-0.4799995c0.3300004,0.0749989,0.2940001,0.4050007,0.237,0.6629992
	L2.2810001,8.4189987z"/>
<path class="st17" d="M2.2119994,8.401l0.0239997-0.1080008C2.2839999,8.079999,2.2269998,7.9599991,2.0139995,7.9150009
	c-0.198-0.0419998-0.3059993,0.0419998-0.3449993,0.2130003c-0.0330005,0.1469994,0.0209999,0.1589985,0.1469994,0.185998
	L2.2119994,8.401z M2.2810001,8.4189987l0.3809996,0.0870008c0.1259995,0.0300007,0.177-0.0090008,0.2039995-0.1379986
	l0.0599999,0.0150003L2.7819996,9.0279989L2.7249994,9.0129986c0.0300007-0.1290007,0-0.1829996-0.1259995-0.2130003
	L1.7260003,8.6049995c-0.1260009-0.0269995-0.177,0.0090008-0.2040009,0.1380014L1.4619994,8.7280006l0.144001-0.6480017
	c0.0899992-0.4049978,0.2940001-0.5189981,0.474-0.4799995c0.3300004,0.0749989,0.2940001,0.4050007,0.237,0.6629992
	L2.2810001,8.4189987z"/>
<path class="st13" d="M2.7639995,7.2879992c0.3060007,0.1320019,0.4380012,0.0690022,0.513-0.1169987
	C3.3789992,6.9219999,3.2559996,6.7810001,3.006999,6.6820002L2.4039998,6.4360008
	C2.2839999,6.3879986,2.2299995,6.4150009,2.1820002,6.5379992L2.1220002,6.5140009l0.1740003-0.420001L2.3530006,6.118001
	C2.3050013,6.2410021,2.323,6.2980022,2.4430013,6.349L3.058001,6.6009989c0.2999997,0.1199999,0.4019995,0.3179998,0.2639995,0.651
	C3.1810007,7.5909986,2.9590011,7.7019978,2.6920004,7.5909986L2.0440001,7.3210011
	c-0.1229997-0.0480022-0.177-0.0209999-0.2250009,0.1049995L1.7589993,7.4019995l0.2520003-0.6119986L2.0679998,6.814002
	C2.0169992,6.9370031,2.0349994,6.9940033,2.1580005,7.045001L2.7639995,7.2879992z"/>
<path class="st17" d="M2.7639995,7.2879992c0.3060007,0.1320019,0.4380012,0.0690022,0.513-0.1169987
	C3.3789992,6.9219999,3.2559996,6.7810001,3.006999,6.6820002L2.4039998,6.4360008
	C2.2839999,6.3879986,2.2299995,6.4150009,2.1820002,6.5379992L2.1220002,6.5140009l0.1740003-0.420001L2.3530006,6.118001
	C2.3050013,6.2410021,2.323,6.2980022,2.4430013,6.349L3.058001,6.6009989c0.2999997,0.1199999,0.4019995,0.3179998,0.2639995,0.651
	C3.1810007,7.5909986,2.9590011,7.7019978,2.6920004,7.5909986L2.0440001,7.3210011
	c-0.1229997-0.0480022-0.177-0.0209999-0.2250009,0.1049995L1.7589993,7.4019995l0.2520003-0.6119986L2.0679998,6.814002
	C2.0169992,6.9370031,2.0349994,6.9940033,2.1580005,7.045001L2.7639995,7.2879992z"/>
<path class="st13" d="M3.5289998,6.118001C3.664,6.2050018,3.7210002,6.2440004,3.823,6.0820007
	c0.0960002-0.1500006,0.0930004-0.3120003-0.1079993-0.4410009c-0.138-0.0899992-0.276-0.1080008-0.4589996,0.1800013
	L3.1990008,5.9110003L3.5289998,6.118001z M3.1840005,5.7729988c0.1229997-0.1949987,0.1140003-0.3239994-0.0449996-0.4289989
	C2.974,5.2390003,2.8599997,5.2989988,2.7639995,5.4520006c-0.0209999,0.0360003-0.0479994,0.086998-0.039,0.1259995
	c0.0090008,0.0360003,0.0420012,0.0570002,0.0720005,0.0720005l0.3300004,0.2099991L3.1840005,5.7729988z M3.5170007,6.6820002
	l-0.0510006-0.032999c0.0720005-0.1109991,0.0629997-0.1739988-0.0449996-0.243001l-0.756001-0.4770012
	C2.5540004,5.8599997,2.4940004,5.875,2.4219999,5.9890003L2.3709993,5.9530001L2.730999,5.3859997
	c0.2520003-0.3959999,0.4320016-0.407999,0.5730014-0.3179998c0.1619997,0.1020012,0.131999,0.3150015,0.0719991,0.4680004
	l0.0029998,0.0030012c0.144001-0.1530018,0.3210011-0.288002,0.5340014-0.1560001
	C4.0959988,5.5,4.131999,5.7130003,3.9370003,6.0159998L3.5170007,6.6820002z"/>
<path class="st17" d="M3.5289998,6.118001C3.664,6.2050018,3.7210002,6.2440004,3.823,6.0820007
	c0.0960002-0.1500006,0.0930004-0.3120003-0.1079993-0.4410009c-0.138-0.0899992-0.276-0.1080008-0.4589996,0.1800013
	L3.1990008,5.9110003L3.5289998,6.118001z M3.1840005,5.7729988c0.1229997-0.1949987,0.1140003-0.3239994-0.0449996-0.4289989
	C2.974,5.2390003,2.8599997,5.2989988,2.7639995,5.4520006c-0.0209999,0.0360003-0.0479994,0.086998-0.039,0.1259995
	c0.0090008,0.0360003,0.0420012,0.0570002,0.0720005,0.0720005l0.3300004,0.2099991L3.1840005,5.7729988z M3.5170007,6.6820002
	l-0.0510006-0.032999c0.0720005-0.1109991,0.0629997-0.1739988-0.0449996-0.243001l-0.756001-0.4770012
	C2.5540004,5.8599997,2.4940004,5.875,2.4219999,5.9890003L2.3709993,5.9530001L2.730999,5.3859997
	c0.2520003-0.3959999,0.4320016-0.407999,0.5730014-0.3179998c0.1619997,0.1020012,0.131999,0.3150015,0.0719991,0.4680004
	l0.0029998,0.0030012c0.144001-0.1530018,0.3210011-0.288002,0.5340014-0.1560001
	C4.0959988,5.5,4.131999,5.7130003,3.9370003,6.0159998L3.5170007,6.6820002z"/>
<path class="st13" d="M4.2130003,5.4969988c0.0899992-0.099,0.0930004-0.1619997-0.0059996-0.2490005L3.5470014,4.6479988
	C3.4539995,4.5639992,3.3909998,4.5670004,3.3010006,4.6689987l-0.045001-0.0419998L3.7000003,4.131999l0.0449996,0.0389986
	C3.6549993,4.2729988,3.6549993,4.3359985,3.7509995,4.4229965l0.6629992,0.5999994
	c0.0810013,0.0749989,0.1169987,0.1080008,0.2099991,0.0030012c0.1529989-0.1710005,0.1710005-0.4110003,0.144001-0.6269989
	l0.045001-0.0240011l0.1949987,0.329999l-0.75,0.8280001L4.2130003,5.4969988z"/>
<path class="st17" d="M4.2130003,5.4969988c0.0899992-0.099,0.0930004-0.1619997-0.0059996-0.2490005L3.5470014,4.6479988
	C3.4539995,4.5639992,3.3909998,4.5670004,3.3010006,4.6689987l-0.045001-0.0419998L3.7000003,4.131999l0.0449996,0.0389986
	C3.6549993,4.2729988,3.6549993,4.3359985,3.7509995,4.4229965l0.6629992,0.5999994
	c0.0810013,0.0749989,0.1169987,0.1080008,0.2099991,0.0030012c0.1529989-0.1710005,0.1710005-0.4110003,0.144001-0.6269989
	l0.045001-0.0240011l0.1949987,0.329999l-0.75,0.8280001L4.2130003,5.4969988z"/>
<path class="st13" d="M4.5310001,3.6550007c-0.0839996-0.099-0.144001-0.099-0.2490005-0.0180001l-0.0360003-0.045001
	l0.5100002-0.4229994l0.0389986,0.0449996C4.6929998,3.2979994,4.6839991,3.3610005,4.7679987,3.4600005L5.3379974,4.144001
	c0.0839996,0.1020012,0.144001,0.1020012,0.2490005,0.0179987l0.0360031,0.0479994L5.1130009,4.6329985L5.0710011,4.5880003
	C5.1760006,4.5009995,5.1820002,4.4410009,5.1010017,4.342001L4.5310001,3.6550007z"/>
<path class="st17" d="M4.5310001,3.6550007c-0.0839996-0.099-0.144001-0.099-0.2490005-0.0180001l-0.0360003-0.045001
	l0.5100002-0.4229994l0.0389986,0.0449996C4.6929998,3.2979994,4.6839991,3.3610005,4.7679987,3.4600005L5.3379974,4.144001
	c0.0839996,0.1020012,0.144001,0.1020012,0.2490005,0.0179987l0.0360031,0.0479994L5.1130009,4.6329985L5.0710011,4.5880003
	C5.1760006,4.5009995,5.1820002,4.4410009,5.1010017,4.342001L4.5310001,3.6550007z"/>
<path class="st13" d="M6.1269989,2.7189999L6.0699987,2.7849994C5.9050007,2.6799998,5.6710005,2.599,5.4940004,2.7100005
	c-0.2370014,0.1529989-0.099,0.4889989,0.0150003,0.6719999c0.2399998,0.3809996,0.5279989,0.414,0.7020006,0.3059993
	c0.1560001-0.099,0.1829996-0.2670007,0.1920004-0.4349999l0.0600014,0.0029998
	c0.0179958,0.2550001-0.0510035,0.474-0.2760029,0.618001C5.8719988,4.0689993,5.4909992,3.9489994,5.2960005,3.6489997
	C5.092001,3.3250003,5.1099997,2.8720002,5.4310007,2.6649995c0.0570002-0.0360003,0.1080008-0.0510006,0.1560001-0.0629997
	C5.6379986,2.5900006,5.677,2.5809999,5.7099991,2.5599999C5.7490005,2.5360003,5.776,2.4910007,5.8000011,2.4520006
	l0.0119991-0.0209999L6.1269989,2.7189999z"/>
<path class="st17" d="M6.1269989,2.7189999L6.0699987,2.7849994C5.9050007,2.6799998,5.6710005,2.599,5.4940004,2.7100005
	c-0.2370014,0.1529989-0.099,0.4889989,0.0150003,0.6719999c0.2399998,0.3809996,0.5279989,0.414,0.7020006,0.3059993
	c0.1560001-0.099,0.1829996-0.2670007,0.1920004-0.4349999l0.0600014,0.0029998
	c0.0179958,0.2550001-0.0510035,0.474-0.2760029,0.618001C5.8719988,4.0689993,5.4909992,3.9489994,5.2960005,3.6489997
	C5.092001,3.3250003,5.1099997,2.8720002,5.4310007,2.6649995c0.0570002-0.0360003,0.1080008-0.0510006,0.1560001-0.0629997
	C5.6379986,2.5900006,5.677,2.5809999,5.7099991,2.5599999C5.7490005,2.5360003,5.776,2.4910007,5.8000011,2.4520006
	l0.0119991-0.0209999L6.1269989,2.7189999z"/>
<path class="st13" d="M6.769001,2.2420001L6.7900009,2.875l0.375-0.1530004L6.769001,2.2420001z M7.6300001,2.8179998
	C7.717001,2.9260006,7.7709999,3.0070004,7.927,2.9500003l0.0240011,0.0570002L7.3480005,3.25L7.3239994,3.1929998
	c0.111002-0.0479994,0.1259995-0.0780001,0.1049995-0.1320004c-0.0119991-0.032999-0.0389986-0.0659995-0.0599985-0.0899992
	l-0.144001-0.1799998L6.7869997,2.9710002l0.0059996,0.1229997c0.0059996,0.0510006,0.0059996,0.1079993,0.0269995,0.1589999
	c0.0330019,0.0870008,0.1260023,0.0870008,0.2040024,0.0629997l0.0240011,0.0570002l-0.4590025,0.183001L6.5679998,3.4990005
	C6.7089996,3.3910012,6.7089996,3.289,6.7059984,3.1270003L6.6759977,2.0980005l0.2189999-0.1799998L7.6300001,2.8179998z"/>
<path class="st17" d="M6.769001,2.2420001L6.7900009,2.875l0.375-0.1530004L6.769001,2.2420001z M7.6300001,2.8179998
	C7.717001,2.9260006,7.7709999,3.0070004,7.927,2.9500003l0.0240011,0.0570002L7.3480005,3.25L7.3239994,3.1929998
	c0.111002-0.0479994,0.1259995-0.0780001,0.1049995-0.1320004c-0.0119991-0.032999-0.0389986-0.0659995-0.0599985-0.0899992
	l-0.144001-0.1799998L6.7869997,2.9710002l0.0059996,0.1229997c0.0059996,0.0510006,0.0059996,0.1079993,0.0269995,0.1589999
	c0.0330019,0.0870008,0.1260023,0.0870008,0.2040024,0.0629997l0.0240011,0.0570002l-0.4590025,0.183001L6.5679998,3.4990005
	C6.7089996,3.3910012,6.7089996,3.289,6.7059984,3.1270003L6.6759977,2.0980005l0.2189999-0.1799998L7.6300001,2.8179998z"/>
<path class="st13" d="M8.9560013,2.5659995c0.0150003,0.138,0.0209999,0.1799998,0.1800013,0.1619997
	c0.230999-0.0269995,0.3869991-0.1740003,0.329999-0.6809993c-0.0510006-0.4500003-0.2340002-0.5490003-0.486002-0.5189996
	C8.8389997,1.5399995,8.8449993,1.5999994,8.8599997,1.7139997L8.9560013,2.5659995z M8.4940004,2.8120003
	c0.131999-0.0150003,0.1739988-0.0599999,0.1590014-0.1890006l-0.0960016-0.888
	c-0.0150003-0.1289992-0.0660009-0.1649995-0.198-0.1499991L8.3530006,1.5250006l0.6390009-0.0720005
	c0.1140003-0.0120006,0.2189999-0.0120006,0.3210011,0.0150003c0.2490005,0.0689993,0.4439993,0.2670007,0.4799995,0.5939999
	C9.8290024,2.362,9.6730022,2.6049995,9.4600019,2.7189999C9.3669987,2.7639995,9.2590008,2.7849994,9.1419992,2.7999997
	l-0.638998,0.0720005L8.4940004,2.8120003z"/>
<path class="st17" d="M8.9560013,2.5659995c0.0150003,0.138,0.0209999,0.1799998,0.1800013,0.1619997
	c0.230999-0.0269995,0.3869991-0.1740003,0.329999-0.6809993c-0.0510006-0.4500003-0.2340002-0.5490003-0.486002-0.5189996
	C8.8389997,1.5399995,8.8449993,1.5999994,8.8599997,1.7139997L8.9560013,2.5659995z M8.4940004,2.8120003
	c0.131999-0.0150003,0.1739988-0.0599999,0.1590014-0.1890006l-0.0960016-0.888
	c-0.0150003-0.1289992-0.0660009-0.1649995-0.198-0.1499991L8.3530006,1.5250006l0.6390009-0.0720005
	c0.1140003-0.0120006,0.2189999-0.0120006,0.3210011,0.0150003c0.2490005,0.0689993,0.4439993,0.2670007,0.4799995,0.5939999
	C9.8290024,2.362,9.6730022,2.6049995,9.4600019,2.7189999C9.3669987,2.7639995,9.2590008,2.7849994,9.1419992,2.7999997
	l-0.638998,0.0720005L8.4940004,2.8120003z"/>
<path class="st13" d="M9.8890009,2.6649995c0.131999,0.0089993,0.1800013-0.0300007,0.1889992-0.1589999l0.0600014-0.8909998
	c0.0090008-0.1290007-0.0360003-0.1740003-0.1679993-0.1799998L9.9730034,1.375l1.1159992,0.0750003l0.0930004,0.3540001
	l-0.0570002,0.0180001C11.0140038,1.651,10.8280029,1.5010009,10.6180038,1.4890003
	c-0.1650009-0.0120006-0.1679993,0.0419998-0.1800013,0.1799998l-0.0240011,0.3599997l0.0360003,0.0029998
	c0.1829996,0.0120006,0.2669992-0.0150003,0.342001-0.1950002l0.0720005,0.0059996l-0.0360003,0.5339999l-0.0720005-0.0059996
	c-0.0360003-0.1890006-0.1290007-0.2399998-0.3120003-0.2520003l-0.0389986-0.0029998l-0.0269995,0.3900003
	c-0.0059996,0.1079993,0,0.1799998,0.1290007,0.1890006c0.2280006,0.0150003,0.4439993-0.1019998,0.5999994-0.2579999
	l0.0479994,0.0300007l-0.1590042,0.3329988l-1.112998-0.0750003L9.8890009,2.6649995z"/>
<path class="st17" d="M9.8890009,2.6649995c0.131999,0.0089993,0.1800013-0.0300007,0.1889992-0.1589999l0.0600014-0.8909998
	c0.0090008-0.1290007-0.0360003-0.1740003-0.1679993-0.1799998L9.9730034,1.375l1.1159992,0.0750003l0.0930004,0.3540001
	l-0.0570002,0.0180001C11.0140038,1.651,10.8280029,1.5010009,10.6180038,1.4890003
	c-0.1650009-0.0120006-0.1679993,0.0419998-0.1800013,0.1799998l-0.0240011,0.3599997l0.0360003,0.0029998
	c0.1829996,0.0120006,0.2669992-0.0150003,0.342001-0.1950002l0.0720005,0.0059996l-0.0360003,0.5339999l-0.0720005-0.0059996
	c-0.0360003-0.1890006-0.1290007-0.2399998-0.3120003-0.2520003l-0.0389986-0.0029998l-0.0269995,0.3900003
	c-0.0059996,0.1079993,0,0.1799998,0.1290007,0.1890006c0.2280006,0.0150003,0.4439993-0.1019998,0.5999994-0.2579999
	l0.0479994,0.0300007l-0.1590042,0.3329988l-1.112998-0.0750003L9.8890009,2.6649995z"/>
<path class="st13" d="M12.8470011,2.8690004l0.198-0.5850005c0.0479994-0.1500006,0.0629997-0.2399998-0.1049995-0.3150001
	l0.0209999-0.0570002l0.4620008,0.1560001L13.4020023,2.125c-0.177-0.0300007-0.2159986,0.0360003-0.2669992,0.1859994
	L12.8080025,3.289l-0.1590014-0.0540004l-0.3690004-1.2329993L12.052,2.677c-0.0629997,0.1890006-0.0539989,0.237,0.1140003,0.336
	l-0.0180016,0.0570002l-0.4949999-0.1680007l0.0209999-0.0570002C11.8540001,2.875,11.9019995,2.8329988,11.9530001,2.6709991
	l0.2700005-0.8070002c-0.0300007-0.0780001-0.0870008-0.1469994-0.1590014-0.1859994l0.0209999-0.0570002l0.4470005,0.1500006
	L12.8470011,2.8690004z"/>
<path class="st17" d="M12.8470011,2.8690004l0.198-0.5850005c0.0479994-0.1500006,0.0629997-0.2399998-0.1049995-0.3150001
	l0.0209999-0.0570002l0.4620008,0.1560001L13.4020023,2.125c-0.177-0.0300007-0.2159986,0.0360003-0.2669992,0.1859994
	L12.8080025,3.289l-0.1590014-0.0540004l-0.3690004-1.2329993L12.052,2.677c-0.0629997,0.1890006-0.0539989,0.237,0.1140003,0.336
	l-0.0180016,0.0570002l-0.4949999-0.1680007l0.0209999-0.0570002C11.8540001,2.875,11.9019995,2.8329988,11.9530001,2.6709991
	l0.2700005-0.8070002c-0.0300007-0.0780001-0.0870008-0.1469994-0.1590014-0.1859994l0.0209999-0.0570002l0.4470005,0.1500006
	L12.8470011,2.8690004z"/>
<path class="st13" d="M13.6330013,2.4489994c0.0570002-0.1140003,0.0360003-0.1740003-0.0839996-0.2340002l0.0269995-0.0540004
	l0.5939999,0.2999997l-0.0300007,0.0540018c-0.1169987-0.0599999-0.1800013-0.0419998-0.2370014,0.0720005l-0.3990011,0.7979994
	c-0.0570002,0.1140003-0.0360003,0.1740003,0.0839996,0.2340002L13.560998,3.6730008l-0.5970011-0.2999997l0.0269995-0.0540004
	c0.1169987,0.0599999,0.1800013,0.0419998,0.2370014-0.0720005L13.6330013,2.4489994z"/>
<path class="st17" d="M13.6330013,2.4489994c0.0570002-0.1140003,0.0360003-0.1740003-0.0839996-0.2340002l0.0269995-0.0540004
	l0.5939999,0.2999997l-0.0300007,0.0540018c-0.1169987-0.0599999-0.1800013-0.0419998-0.2370014,0.0720005l-0.3990011,0.7979994
	c-0.0570002,0.1140003-0.0360003,0.1740003,0.0839996,0.2340002L13.560998,3.6730008l-0.5970011-0.2999997l0.0269995-0.0540004
	c0.1169987,0.0599999,0.1800013,0.0419998,0.2370014-0.0720005L13.6330013,2.4489994z"/>
<path class="st13" d="M15.1269989,3.5380006l-0.0839996-0.0269995c0.032999-0.1920004,0.0150003-0.4379997-0.1619997-0.5549998
	c-0.2340002-0.1589999-0.4859991,0.1019998-0.6090002,0.2819996c-0.2519989,0.3720002-0.1739988,0.6480002,0,0.7650003
	c0.1529989,0.1049995,0.3210011,0.0629997,0.4770012,0.0030012l0.0209999,0.0570002
	c-0.230999,0.1140003-0.4589996,0.1409998-0.6810007-0.0119991c-0.3060007-0.2069993-0.3449993-0.6090002-0.1469994-0.9000006
	c0.2159986-0.3209996,0.6390009-0.4829993,0.9570007-0.2670007c0.0539989,0.0360003,0.0930004,0.0809999,0.1199999,0.1170001
	C15.0490017,3.0370026,15.073,3.0730028,15.1030006,3.0940027c0.0389986,0.0269995,0.0899992,0.0360003,0.1350002,0.039
	l0.0240011,0.0029998L15.1269989,3.5380006z"/>
<path class="st17" d="M15.1269989,3.5380006l-0.0839996-0.0269995c0.032999-0.1920004,0.0150003-0.4379997-0.1619997-0.5549998
	c-0.2340002-0.1589999-0.4859991,0.1019998-0.6090002,0.2819996c-0.2519989,0.3720002-0.1739988,0.6480002,0,0.7650003
	c0.1529989,0.1049995,0.3210011,0.0629997,0.4770012,0.0030012l0.0209999,0.0570002
	c-0.230999,0.1140003-0.4589996,0.1409998-0.6810007-0.0119991c-0.3060007-0.2069993-0.3449993-0.6090002-0.1469994-0.9000006
	c0.2159986-0.3209996,0.6390009-0.4829993,0.9570007-0.2670007c0.0539989,0.0360003,0.0930004,0.0809999,0.1199999,0.1170001
	C15.0490017,3.0370026,15.073,3.0730028,15.1030006,3.0940027c0.0389986,0.0269995,0.0899992,0.0360003,0.1350002,0.039
	l0.0240011,0.0029998L15.1269989,3.5380006z"/>
<path class="st13" d="M15.8199987,3.9340005l-0.573,0.269999l0.2910004,0.2819996L15.8199987,3.9340005z M15.6400003,4.9539995
	c-0.0629997,0.1230011-0.1169987,0.2070007,0,0.3239994l-0.0419998,0.0419998l-0.4680004-0.4499989l0.0419998-0.0419998
	c0.0870008,0.0810013,0.1230011,0.0839996,0.1650009,0.0419998c0.0240011-0.0269995,0.0419998-0.0600014,0.0600014-0.0930004
	l0.1049995-0.2010012l-0.3389997-0.329999l-0.1109991,0.0510006c-0.045001,0.0240011-0.099,0.0479994-0.1350002,0.0870008
	c-0.0660009,0.0689993-0.032999,0.1529989,0.0240011,0.2159986l-0.0389986,0.0419998l-0.3540001-0.3449993l0.0419998-0.0419998
	c0.1590014,0.0870008,0.2490005,0.045001,0.3959999-0.0240011l0.9300013-0.4379997l0.2519989,0.1259995L15.6400003,4.9539995z"/>
<path class="st17" d="M15.8199987,3.9340005l-0.573,0.269999l0.2910004,0.2819996L15.8199987,3.9340005z M15.6400003,4.9539995
	c-0.0629997,0.1230011-0.1169987,0.2070007,0,0.3239994l-0.0419998,0.0419998l-0.4680004-0.4499989l0.0419998-0.0419998
	c0.0870008,0.0810013,0.1230011,0.0839996,0.1650009,0.0419998c0.0240011-0.0269995,0.0419998-0.0600014,0.0600014-0.0930004
	l0.1049995-0.2010012l-0.3389997-0.329999l-0.1109991,0.0510006c-0.045001,0.0240011-0.099,0.0479994-0.1350002,0.0870008
	c-0.0660009,0.0689993-0.032999,0.1529989,0.0240011,0.2159986l-0.0389986,0.0419998l-0.3540001-0.3449993l0.0419998-0.0419998
	c0.1590014,0.0870008,0.2490005,0.045001,0.3959999-0.0240011l0.9300013-0.4379997l0.2519989,0.1259995L15.6400003,4.9539995z"/>
<path class="st13" d="M16.5279999,5.3950005c0.1739979,0.2519989,0.3089981,0.2729988,0.4679985,0.1619997
	c0.156002-0.1080008,0.1500015-0.230999,0.0360012-0.3959999c-0.0689983-0.1020012-0.1079998-0.0810013-0.198-0.0209999
	l-0.3239994,0.2249994L16.5279999,5.3950005z M16.5129986,6.1120014c-0.066,0.1259995-0.1230011,0.2459993-0.0419998,0.3840008
	l-0.0509968,0.032999L16.1619987,6.151c0.0240021-0.0510006,0.0540009-0.1049995,0.0839996-0.1529989L16.375,5.776
	c0.1350002-0.2280006,0.1080017-0.2969999,0.0660019-0.3630009L16.098999,5.6469994
	c-0.1079998,0.0720005-0.1139994,0.1350002-0.0389977,0.2459993l-0.0510006,0.0360003l-0.3780012-0.5489988l0.0510006-0.0360003
	c0.0749989,0.1080008,0.1350002,0.1259995,0.243001,0.0510006l0.7380009-0.5040007
	c0.1080017-0.0720005,0.1140003-0.1350002,0.0389977-0.2459993L16.75,4.6090002l0.4499989,0.6600008
	c0.1560001,0.2249994,0.1259995,0.4499989-0.0360012,0.5579996c-0.1679993,0.1140003-0.3479996,0.0209999-0.4770012-0.1080008
	c0,0.0689993-0.0359993,0.1290007-0.0689983,0.1889992L16.5129986,6.1120014z"/>
<path class="st17" d="M16.5279999,5.3950005c0.1739979,0.2519989,0.3089981,0.2729988,0.4679985,0.1619997
	c0.156002-0.1080008,0.1500015-0.230999,0.0360012-0.3959999c-0.0689983-0.1020012-0.1079998-0.0810013-0.198-0.0209999
	l-0.3239994,0.2249994L16.5279999,5.3950005z M16.5129986,6.1120014c-0.066,0.1259995-0.1230011,0.2459993-0.0419998,0.3840008
	l-0.0509968,0.032999L16.1619987,6.151c0.0240021-0.0510006,0.0540009-0.1049995,0.0839996-0.1529989L16.375,5.776
	c0.1350002-0.2280006,0.1080017-0.2969999,0.0660019-0.3630009L16.098999,5.6469994
	c-0.1079998,0.0720005-0.1139994,0.1350002-0.0389977,0.2459993l-0.0510006,0.0360003l-0.3780012-0.5489988l0.0510006-0.0360003
	c0.0749989,0.1080008,0.1350002,0.1259995,0.243001,0.0510006l0.7380009-0.5040007
	c0.1080017-0.0720005,0.1140003-0.1350002,0.0389977-0.2459993L16.75,4.6090002l0.4499989,0.6600008
	c0.1560001,0.2249994,0.1259995,0.4499989-0.0360012,0.5579996c-0.1679993,0.1140003-0.3479996,0.0209999-0.4770012-0.1080008
	c0,0.0689993-0.0359993,0.1290007-0.0689983,0.1889992L16.5129986,6.1120014z"/>
<path class="st13" d="M17.7580013,6.7540007L17.125,6.7750006l0.1529999,0.375L17.7580013,6.7540007z M17.1850014,7.618001
	c-0.1080017,0.0899992-0.1889992,0.1409998-0.1290016,0.2969999L16.9990005,7.939002l-0.2459984-0.6030006l0.0569992-0.0240011
	c0.0480003,0.1080008,0.0810013,0.1230011,0.132,0.1049995c0.0329971-0.0150003,0.0629997-0.0360003,0.0929985-0.0600014
	l0.1800022-0.144001l-0.1830006-0.4379997l-0.1230011,0.0059996C16.8580017,6.7839985,16.8010006,6.7869968,16.75,6.8049984
	c-0.0870018,0.0360003-0.0900002,0.1290007-0.0629997,0.2070007l-0.0569992,0.0240011L16.4410019,6.579999l0.0569992-0.0240011
	c0.1080017,0.1409998,0.2099991,0.1409998,0.3719978,0.1350002l1.0290031-0.032999l0.1800003,0.2159986L17.1850014,7.618001z"/>
<path class="st17" d="M17.7580013,6.7540007L17.125,6.7750006l0.1529999,0.375L17.7580013,6.7540007z M17.1850014,7.618001
	c-0.1080017,0.0899992-0.1889992,0.1409998-0.1290016,0.2969999L16.9990005,7.939002l-0.2459984-0.6030006l0.0569992-0.0240011
	c0.0480003,0.1080008,0.0810013,0.1230011,0.132,0.1049995c0.0329971-0.0150003,0.0629997-0.0360003,0.0929985-0.0600014
	l0.1800022-0.144001l-0.1830006-0.4379997l-0.1230011,0.0059996C16.8580017,6.7839985,16.8010006,6.7869968,16.75,6.8049984
	c-0.0870018,0.0360003-0.0900002,0.1290007-0.0629997,0.2070007l-0.0569992,0.0240011L16.4410019,6.579999l0.0569992-0.0240011
	c0.1080017,0.1409998,0.2099991,0.1409998,0.3719978,0.1350002l1.0290031-0.032999l0.1800003,0.2159986L17.1850014,7.618001z"/>
<path class="st13" d="M18.2019997,8.9050007l-0.0359993-0.0539989c0.1829987-0.2099991,0.2790012-0.3449993,0.2490005-0.5100002
	c-0.0359993-0.177-0.2370014-0.3239994-0.6989994-0.230999c-0.4560013,0.0930004-0.6000004,0.2640009-0.5580006,0.4680004
	c0.0389996,0.198,0.1920013,0.2010012,0.3630028,0.1679993c0.1499996-0.0300007,0.152998-0.0720005,0.1349983-0.2130003
	l0.0720024-0.0150003l0.1230011,0.618001l-0.0720024,0.0150003c-0.0450001-0.144001-0.0929985-0.1529989-0.230999-0.1230011
	l-0.2639999,0.0510006c-0.0300007-0.1259995-0.0359993-0.1350002-0.0930004-0.243001
	c-0.0479984-0.0899992-0.0899982-0.1650009-0.1079998-0.2640009c-0.078001-0.3900003,0.1319981-0.6839991,0.5219994-0.7619991
	c0.3689995-0.0749989,0.7979984,0.1080008,0.8789997,0.506999c0.0119991,0.0539989,0.0090008,0.1020012,0.0030003,0.1469994
	c-0.0059986,0.0419998-0.0119972,0.0839996-0.0059986,0.1140003c0.0090008,0.045001,0.0479984,0.1080008,0.0839996,0.1409998
	L18.2019997,8.9050007z"/>
<path class="st17" d="M18.2019997,8.9050007l-0.0359993-0.0539989c0.1829987-0.2099991,0.2790012-0.3449993,0.2490005-0.5100002
	c-0.0359993-0.177-0.2370014-0.3239994-0.6989994-0.230999c-0.4560013,0.0930004-0.6000004,0.2640009-0.5580006,0.4680004
	c0.0389996,0.198,0.1920013,0.2010012,0.3630028,0.1679993c0.1499996-0.0300007,0.152998-0.0720005,0.1349983-0.2130003
	l0.0720024-0.0150003l0.1230011,0.618001l-0.0720024,0.0150003c-0.0450001-0.144001-0.0929985-0.1529989-0.230999-0.1230011
	l-0.2639999,0.0510006c-0.0300007-0.1259995-0.0359993-0.1350002-0.0930004-0.243001
	c-0.0479984-0.0899992-0.0899982-0.1650009-0.1079998-0.2640009c-0.078001-0.3900003,0.1319981-0.6839991,0.5219994-0.7619991
	c0.3689995-0.0749989,0.7979984,0.1080008,0.8789997,0.506999c0.0119991,0.0539989,0.0090008,0.1020012,0.0030003,0.1469994
	c-0.0059986,0.0419998-0.0119972,0.0839996-0.0059986,0.1140003c0.0090008,0.045001,0.0479984,0.1080008,0.0839996,0.1409998
	L18.2019997,8.9050007z"/>
<path class="st13" d="M17.7280006,9.6340008c-0.3330002,0-0.4319992,0.1080008-0.4260006,0.3120003
	c0.0059986,0.2669992,0.1739979,0.3480005,0.441,0.342001l0.651001-0.0119991
	c0.1290016-0.0030012,0.1710014-0.0479994,0.1679993-0.1800013h0.0600014l0.0090008,0.4560013h-0.0600014
	c-0.0030003-0.131999-0.0419998-0.1800013-0.1739979-0.177l-0.6660004,0.0150003
	c-0.3240013,0.0059996-0.4950008-0.131999-0.5009995-0.4919987c-0.0060005-0.3690004,0.1559982-0.5550013,0.4439983-0.5610008
	l0.7020016-0.0150003c0.1289997-0.0030012,0.1709995-0.0479994,0.1679993-0.1800013h0.0600014l0.0119972,0.6629992h-0.0600014
	c-0.0030003-0.131999-0.0419998-0.1800013-0.1739979-0.177L17.7280006,9.6340008z"/>
<path class="st17" d="M17.7280006,9.6340008c-0.3330002,0-0.4319992,0.1080008-0.4260006,0.3120003
	c0.0059986,0.2669992,0.1739979,0.3480005,0.441,0.342001l0.651001-0.0119991
	c0.1290016-0.0030012,0.1710014-0.0479994,0.1679993-0.1800013h0.0600014l0.0090008,0.4560013h-0.0600014
	c-0.0030003-0.131999-0.0419998-0.1800013-0.1739979-0.177l-0.6660004,0.0150003
	c-0.3240013,0.0059996-0.4950008-0.131999-0.5009995-0.4919987c-0.0060005-0.3690004,0.1559982-0.5550013,0.4439983-0.5610008
	l0.7020016-0.0150003c0.1289997-0.0030012,0.1709995-0.0479994,0.1679993-0.1800013h0.0600014l0.0119972,0.6629992h-0.0600014
	c-0.0030003-0.131999-0.0419998-0.1800013-0.1739979-0.177L17.7280006,9.6340008z"/>
<path class="st13" d="M18.3160019,11.2929993l-0.552002-0.3149986l-0.0629997,0.3990011L18.3160019,11.2929993z
	 M17.3740005,11.7280006c-0.1379986,0.0209999-0.2370014,0.0209999-0.2639999,0.1829996l-0.0600014-0.0090008l0.1049995-0.6419992
	l0.0600014,0.0090008c-0.0150013,0.1169987,0.0030003,0.1500006,0.0600014,0.1590014
	c0.0359993,0.0059996,0.0749969,0,0.1079998-0.0059996l0.2280006-0.032999l0.0749989-0.4680004l-0.1080017-0.0600014
	c-0.0450001-0.0240011-0.098999-0.0539989-0.1469994-0.0600014c-0.0929985-0.0150003-0.144001,0.0629997-0.1619987,0.1409998
	l-0.0600014-0.0090008l0.0779991-0.4859991l0.0600014,0.0090008c0.0209999,0.1800013,0.1080017,0.230999,0.2460003,0.3120003
	l0.894001,0.5100002l0.0419998,0.2790012L17.3740005,11.7280006z"/>
<path class="st17" d="M18.3160019,11.2929993l-0.552002-0.3149986l-0.0629997,0.3990011L18.3160019,11.2929993z
	 M17.3740005,11.7280006c-0.1379986,0.0209999-0.2370014,0.0209999-0.2639999,0.1829996l-0.0600014-0.0090008l0.1049995-0.6419992
	l0.0600014,0.0090008c-0.0150013,0.1169987,0.0030003,0.1500006,0.0600014,0.1590014
	c0.0359993,0.0059996,0.0749969,0,0.1079998-0.0059996l0.2280006-0.032999l0.0749989-0.4680004l-0.1080017-0.0600014
	c-0.0450001-0.0240011-0.098999-0.0539989-0.1469994-0.0600014c-0.0929985-0.0150003-0.144001,0.0629997-0.1619987,0.1409998
	l-0.0600014-0.0090008l0.0779991-0.4859991l0.0600014,0.0090008c0.0209999,0.1800013,0.1080017,0.230999,0.2460003,0.3120003
	l0.894001,0.5100002l0.0419998,0.2790012L17.3740005,11.7280006z"/>
<path class="st18" d="M10-18.5c15.5999985,0,28.5,12.9000006,28.5,28.5S25.5999985,38.5,10,38.5S-18.5,25.5999985-18.5,10
	S-5.5999994-18.5,10-18.5 M10-20C-6.5-20-20-6.5-20,10s13.5,30,30,30s30-13.5,30-30S26.5-20,10-20L10-20z"/>
</svg>
