<?xml version="1.0" encoding="utf-8"?>
<svg version="1.1" id="Layer_1" xmlns="http://www.w3.org/2000/svg" xmlns:xlink="http://www.w3.org/1999/xlink" x="0px" y="0px"
	 viewBox="-22 -22 64 64" style="enable-background:new 0 0 20 20;" xml:space="preserve">
<style type="text/css">
	.st0{fill:#FFFFFF;stroke:#B6B6B6;stroke-width:0.15;stroke-miterlimit:10;}
	.st1{fill:none;}
	.st2{fill:#003893;}
	.st3{fill:#CE1126;}
	.st4{fill:#FFFFFF;}
	.st5{fill:#CCCCCC;}
</style>
<circle class="st0" cx="10" cy="10" r="28.8000011"/>
<polygon class="st1" points="9.9969988,38.8000031 10,38.8000031 10.0030012,38.8000031 "/>
<path class="st1" d="M-18.7999992,10c0,6.6839981,2.2979984,12.8220005,6.1199989,17.7089996V-7.7089996
	C-16.5020008-2.8220005-18.7999992,3.3159995-18.7999992,10z"/>
<path class="st2" d="M-12.6800003-7.7089996v35.4179993c0.5400009,0.6870003,1.1100006,1.3469982,1.7040005,1.9829979V-9.6919994
	C-11.5699997-9.0559998-12.1400003-8.3959999-12.6800003-7.7089996z"/>
<path class="st2" d="M19.6839981,37.0960007H0.3159995c3.0299993,1.0830002,6.282001,1.7040024,9.684,1.7040024h0.0059996
	C13.4050007,38.8000031,16.6569996,38.1790009,19.6839981,37.0960007z"/>
<path class="st2" d="M0.625,9.0849991l25.0529995,25.0530014c0.4829998-0.3150024,0.9510021-0.6540031,1.4130001-0.9960022
	L4.737998,10.791997h29.8289986L-5.4530001-14.276c-0.5250006,0.3359995-1.0319996,0.6899996-1.5299993,1.0559998
	L28.638998,9.0849991H0.625z"/>
<path class="st3" d="M25.6779995,34.1380005L0.625,9.0849991h28.0109997L-6.9829993-13.2200003
	c-1.4400001,1.0530005-2.7719998,2.2320004-3.9929996,3.5279999v39.3869972
	c3.0930004,3.2939987,6.948,5.8500023,11.2889996,7.4009972h19.3710003
	C21.8079987,36.3339996,23.8210011,35.3500023,25.6779995,34.1380005z"/>
<path class="st4" d="M6.8170004-0.2180004C6.1300001,1.5369997,4.8699999,3.0009995,3.2739997,3.9580002L2.599,3.4539995
	L3.9310007,2.461l-1.6110005-0.414l0,0l0,0l0,0l0.8460002-1.4279995L1.5250006,0.8590002l0,0l0,0l0.237-1.6439996
	L0.3309999,0.0609994l0,0l0,0l0,0l-0.4080005-1.6079993l-0.9929996,1.3289995l-0.9959993-1.3289995l-0.4110003,1.6079993l0,0
	c0,0,0,0-0.0029998,0l0,0l-1.4250011-0.8459988l0.237,1.6439996l0,0l-1.6439996-0.237l0.8460002,1.4279995L-6.0739994,2.461
	l1.3289995,0.9929996L-5.4199996,3.961c-1.599-0.9569993-2.8530011-2.4240003-3.5430007-4.1760006l0,0
	c0,4.3560004,3.5310001,7.8870006,7.8869991,7.8870006S6.8170004,4.1379986,6.8170004-0.2180004L6.8170004-0.2180004"/>
<polygon class="st4" points="6.2709999,27.3279991 4.1230011,24.4840012 4.1230011,24.480999 7.4050007,23.0890007 
	4.1230011,21.6999989 4.1230011,21.6999989 6.2709999,18.8530006 2.7310004,19.2879982 2.7280006,19.2879982 3.1660004,15.7480011 
	0.3189993,17.8959999 0.3159995,17.8959999 -1.0700002,14.6140003 -2.4650006,17.8959999 -2.4650006,17.8959999 
	-5.3090005,15.7480011 -4.8740005,19.2879982 -4.8740005,19.2879982 -8.4139996,18.8530006 -6.2659998,21.6999989 
	-6.2659998,21.6999989 -9.5480003,23.0890007 -6.2659998,24.480999 -6.2659998,24.480999 -8.4139996,27.3279991 
	-4.8709993,26.8899994 -4.8740005,26.8899994 -4.8709993,26.8899994 -4.8709993,26.8899994 -5.3090005,30.4299984 
	-2.4650006,28.2819996 -2.4650006,28.2819996 -1.0700002,31.5669975 0.3189993,28.2819996 0.3189993,28.2819996 
	3.1660004,30.4299984 2.7280006,26.8899994 2.7280006,26.8899994 "/>
<path class="st5" d="M10-18.5c15.5999985,0,28.5,12.9000006,28.5,28.5S25.5999985,38.5,10,38.5S-18.5,25.5999985-18.5,10
	S-5.5999994-18.5,10-18.5 M10-20C-6.5-20-20-6.5-20,10s13.5,30,30,30s30-13.5,30-30S26.5-20,10-20L10-20z"/>
</svg>
