<?xml version="1.0" encoding="utf-8"?>
<svg version="1.1" id="Layer_1" xmlns="http://www.w3.org/2000/svg" xmlns:xlink="http://www.w3.org/1999/xlink" x="0px" y="0px"
	 viewBox="-22 -22 64 64" style="enable-background:new 0 0 20 20;" xml:space="preserve">
<style type="text/css">
	.st0{fill:#FFFFFF;stroke:#B6B6B6;stroke-width:0.15;}
	.st1{fill:#00247D;}
	.st2{fill:#FFFFFF;}
	.st3{fill:#CC142B;}
	.st4{fill:#CCCCCC;}
</style>
<circle class="st0" cx="10" cy="10" r="28.8000011"/>
<path class="st1" d="M35.5329971,23.2900009c0.4140015-0.7980003,0.7980042-1.6140003,1.137001-2.4510002l-1.5629997,1.1369972
	L35.5329971,23.2900009z"/>
<path class="st1" d="M8.4699993-15.9829998l-11.1629992,5.5799999H8.4699993v1.6799994v5.0399995v1.6799998H-2.6929998
	L8.4699993,3.5769992v0.9390006v1.8179998V6.394001H2.836l-15.3600006-7.6799998V6.394001h-1.6799994h-4.3440008
	C-18.698,7.5789995-18.7999992,8.776-18.7999992,10c0,15.9060001,12.8939991,28.8000031,28.7999992,28.8000031
	c10.7879982,0,20.1779995-5.9400024,25.1099968-14.7210007l-1.446003-1.0500011l-2.3369961,1.6949978l0.8940029-2.7449989
	l-2.3369999-1.6949997h2.8859997l0.894001-2.7449989l0.894001,2.7449989h2.3220024
	C38.1010017,17.0860023,38.8000031,13.6300001,38.8000031,10c0-6.3779998-2.1000061-12.2550001-5.6100044-17.0279999
	l-1.6020012,1.164l0.75-2.3040009c-0.1230011-0.1529999-0.2519989-0.296999-0.3810024-0.4469995l-1.6530018-1.1969995h0.5610008
	C25.618-15.3380003,18.2199993-18.7999992,10-18.7999992c-0.5159998,0-1.0200005,0.0509987-1.5300007,0.0779991V-15.9829998z
	 M21.2290001,1.9000006L22.0209999-0.539l0.7919998,2.4390006h2.5649986l-2.073,1.5090008l0.7919998,2.4389992l-2.0760021-1.5090008
	l-2.0760002,1.5090008l0.7919998-2.4390006l-2.0759964-1.5089993H21.2290001z"/>
<path class="st2" d="M-8.0780001-12.4039993l10.9320002-5.4660015C-1.2020006-16.8320007-4.9190001-14.9569998-8.0780001-12.4039993
	z"/>
<polygon class="st2" points="8.4699993,4.5159998 8.4699993,3.5770006 -2.6929998,-2.0029998 -4.5709996,-2.0029998 "/>
<path class="st3" d="M8.2989988-18.7129993c-1.8689976,0.1079998-3.6869974,0.3929996-5.4449987,0.8429985l-10.9320002,5.4660015
	c-0.7799997,0.6299992-1.5360003,1.2929993-2.2470007,2.0009995h1.9980001L8.2989988-18.7129993z"/>
<polygon class="st3" points="-8.2040005,-2.0029998 8.4699993,6.3339996 8.4699993,4.5159998 -4.5709996,-2.0029998 "/>
<path class="st3" d="M-14.2039995-3.6829996H8.4699993v-5.04h-20.3250008
	c-3.5819998,4.1759996-5.9759989,9.3810005-6.6929998,15.1170006h4.3470001
	C-14.2039995,6.394001-14.2039995-3.6829996-14.2039995-3.6829996z"/>
<path class="st2" d="M33.1899986-7.0280004c-0.053997-0.0720005-0.1079979-0.1469994-0.1650009-0.2189999l-0.9179993,0.6690001
	l0.428997-1.323c-0.0690002-0.0869994-0.1289978-0.1799994-0.197998-0.2670002l-0.75,2.3039999L33.1899986-7.0280004z"/>
<path class="st2" d="M31.9540024-8.6149998C31.6060047-9.026,31.2370014-9.4219999,30.8649998-9.8119993h-0.5610008
	L31.9540024-8.6149998z"/>
<path class="st3" d="M33.0249977-7.2470002C32.8599968-7.4660001,32.7039948-7.6879997,32.5359955-7.901l-0.428997,1.323
	L33.0249977-7.2470002z"/>
<path class="st2" d="M19.9449997,5.8509989l2.0760002-1.5090008l2.0760002,1.5090008l-0.7919998-2.4420004l2.0760002-1.5089979
	h-2.5650024L22.0209961-0.539l-0.791996,2.4390006h-2.5649986l2.0760002,1.5090008L19.9449997,5.8509989z M19.5009995,2.1729994
	h1.9230003l0.5970001-1.8330002L22.618,2.1729994h1.9230003l-1.5569992,1.1309996l0.5970001,1.8330002l-1.5569992-1.1309996
	L20.467001,5.1369991l0.597002-1.8330002L19.5009995,2.1729994z"/>
<polygon class="st3" points="20.4640007,5.1369991 22.0209999,4.0030012 23.5779991,5.1369991 22.9840012,3.3040004 
	24.5410004,2.1729994 22.6149998,2.1729994 22.0209999,0.3430004 21.4239998,2.1729994 19.5009995,2.1729994 21.0579987,3.3040004 
	"/>
<path class="st2" d="M33.6640015,17.5359993l-0.894001,2.7450008h-2.8859997l2.3369999,1.6949978l-0.8940029,2.7450008
	l2.3369961-1.6949978l1.446003,1.0499992c0.0449982-0.0810013,0.0990028-0.152998,0.1410027-0.2339993l-1.590004-1.1550007
	L31.8429947,24.007l0.6930008-2.1330032l-1.8180008-1.3199978h2.2470016l0.6930008-2.1359997l0.6930046,2.1359997h2.2470016
	l-1.8180046,1.3199978l0.5760002,1.7729988c0.0629997-0.1139984,0.1079979-0.2399979,0.1739998-0.3540001l-0.4259987-1.3139992
	l1.5629997-1.1369972c0.0749969-0.1830006,0.1350021-0.375,0.2040024-0.5610008h-2.3219986L33.6640015,17.5359993z"/>
<path class="st3" d="M36.6040001,20.5539989h-2.2470016l-0.6930046-2.1359997l-0.6930008,2.1359997h-2.2470016l1.8180008,1.3199978
	L31.8489914,24.007l1.8180008-1.3199997l1.590004,1.1550007c0.0359955-0.066,0.0749969-0.1289997,0.1079979-0.1949978
	l-0.5760002-1.7729988L36.6040001,20.5539989z"/>
<path class="st4" d="M10-18.5c15.5999985,0,28.5,12.9000006,28.5,28.5S25.5999985,38.5,10,38.5S-18.5,25.5999985-18.5,10
	S-5.5999994-18.5,10-18.5 M10-20C-6.5-20-20-6.5-20,10s13.5,30,30,30s30-13.5,30-30S26.5-20,10-20L10-20z"/>
</svg>
