<?xml version="1.0" encoding="utf-8"?>
<svg version="1.1" id="Layer_1" xmlns="http://www.w3.org/2000/svg" xmlns:xlink="http://www.w3.org/1999/xlink" x="0px" y="0px"
	 viewBox="-22 -22 64 64" style="enable-background:new 0 0 20 20;" xml:space="preserve">
<style type="text/css">
	.st0{fill:#0084C9;}
	.st1{fill:#F9D616;}
	.st2{fill:#007C59;}
	.st3{fill:#EAAF0F;}
	.st4{fill:#CCCCCC;}
</style>
<circle class="st0" cx="10" cy="10" r="28.8000011"/>
<path class="st0" d="M35.7700005-2.8699999c-0.4500008-0.8969994-0.9419975-1.7639995-1.4760017-2.6069999l-3.6479988,0.4799995
	L35.7700005-2.8699999z"/>
<path class="st0" d="M29.6200027-11.0809994c-0.1830025-0.1740007-0.375-0.342001-0.5639992-0.5130005l-0.576004,1.3859997
	L29.6200027-11.0809994z"/>
<path class="st0" d="M30.9519978-9.7609997c-0.1799984-0.1890001-0.3600025-0.3780003-0.5429993-0.5609999l-0.8819962,1.1519995
	L30.9519978-9.7609997z"/>
<path class="st0" d="M33.9280014-6.0349994c-0.3180046-0.4710002-0.6480026-0.9329996-0.9900017-1.3829999l-2.2919998,0.9509997
	L33.9280014-6.0349994z"/>
<path class="st0" d="M32.3500023-8.1680002c-0.2219963-0.2729998-0.4499989-0.54-0.6809978-0.8070002l-1.4040012,1.0799999
	L32.3500023-8.1680002z"/>
<path class="st0" d="M26.677-13.4809999c-0.4229984-0.2999992-0.8520012-0.5879993-1.2929993-0.8669996l0.3990002,3.0209999
	L26.677-13.4809999z"/>
<path class="st0" d="M28.2399998-12.2869997c-0.2519989-0.2069998-0.5129986-0.4110003-0.7740002-0.6120005l-0.2550011,1.953001
	L28.2399998-12.2869997z"/>
<path class="st0" d="M24.7600002-14.7320004c-0.7740002-0.4649992-1.5720005-0.8939991-2.394001-1.2810001l1.9439983,4.6890001
	L24.7600002-14.7320004z"/>
<path class="st1" d="M-14.948,24.4000015h49.8929977C37.3959999,20.1640015,38.7970047,15.2470016,38.7970047,10h-57.5970039
	C-18.7999992,15.2469988-17.3959999,20.1639977-14.948,24.4000015"/>
<path class="st2" d="M10,38.8000031c10.6589985,0,19.9680004-5.7929993,24.947998-14.4000015H-14.948
	C-9.9679995,33.0070038-0.6589999,38.8000031,10,38.8000031"/>
<path class="st3" d="M19.4589996-15.4099998l2.1540012,5.2019997l-4.467001-3.4259996l3.4230003,4.4700003l-5.2020016-2.1540003
	l4.4639988,3.4290004l-5.579998-0.7349992l5.2019997,2.1569991l-5.579998,0.7379994l5.579998,0.7349997l-5.2019997,2.1539998
	l5.579998-0.7349997l-4.4639988,3.4290004l5.2020016-2.1539998L17.1459999,2.170001l4.467001-3.4260006l-2.1540012,5.2050004
	l3.4289989-4.4669995l-0.7349987,5.579999l2.1569977-5.2020006l0.7380028,5.579999l0.737999-5.5800004l2.1540031,5.2019992
	L27.2080002-0.518003l3.4260006,4.4669995l-2.1510029-5.2050004l4.4669991,3.4259992L29.5239983-2.300004l5.2050018,2.1539998
	l-4.467001-3.4290004l5.5170002,0.7260003c-0.0029984-0.0089993-0.0060005-0.0150003-0.0119972-0.0239997l-5.1240005-2.1240005
	l3.6479988-0.4799995c-0.1200027-0.1859994-0.2429962-0.375-0.3689957-0.5579996l-3.2790031-0.4320002l2.2890015-0.9509997
	c-0.1889992-0.2520003-0.3869972-0.5009995-0.5879974-0.7499995l-2.0849991,0.2759995l1.4040012-1.0800004
	c-0.2339973-0.2670002-0.4709988-0.5310001-0.7140026-0.7860003l-1.4279995,0.5910006l0.8850002-1.1520004
	c-0.2549973-0.2580004-0.5219994-0.5130005-0.7890015-0.7620001l-1.1340008,0.8730001l0.573-1.3830004
	c-0.2700005-0.2370005-0.5400009-0.4679995-0.8190022-0.6960001l-1.0319996,1.3410006l0.2550011-1.9530001
	c-0.2580032-0.198-0.5219994-0.3959999-0.7860012-0.585l-0.894001,2.1570005l-0.3990002-3.0209999
	c-0.2010002-0.1319962-0.4110012-0.2579966-0.6210003-0.383997l-0.4499989,3.4080009l-1.9440002-4.6889992
	c-0.0509987-0.0270004-0.1049995-0.0480003-0.152998-0.0720005l0.6750011,5.1419992L19.4589996-15.4099998z M25.0480003-10.0010004
	c1.1219978,0,2.2229996,0.4560003,3.0179977,1.2510004s1.2509995,1.8959999,1.2509995,3.0209999
	c0,1.1220002-0.4560013,2.2230005-1.2509995,3.0180001c-0.7919998,0.7949996-1.8959999,1.2509995-3.0180016,1.2509995
	c-1.1219978,0-2.2229996-0.4559999-3.0180016-1.2509995s-1.2540016-1.8959999-1.2540016-3.0180001
	c0-1.125,0.4589996-2.2260003,1.2540016-3.0209999S23.9260006-10.0010004,25.0480003-10.0010004"/>
<path class="st3" d="M22.3149986-2.9959993C23.0349979-2.276,24.0310001-1.8649998,25.0480003-1.8649998
	c1.0200005,0,2.0159988-0.4110003,2.7359982-1.1309996c0.717001-0.7199993,1.1310024-1.7160001,1.1310024-2.7330008
	c0-1.0200005-0.4140015-2.0159998-1.1310005-2.7360001c-0.7199974-0.717-1.7159977-1.1310005-2.7359982-1.1310005
	c-1.0170002,0-2.0129986,0.4140005-2.7329998,1.1310005c-0.7200012,0.7200003-1.1310005,1.7159996-1.1310005,2.7360001
	C21.1839981-4.7150006,21.5949993-3.7160001,22.3149986-2.9959993"/>
<path class="st0" d="M20.776001-5.7319999c0,1.1220002,0.4589996,2.2230005,1.2539997,3.0180001
	s1.8959999,1.2509995,3.0180016,1.2509995c1.1219997,0,2.2259998-0.4559999,3.0180016-1.2509995
	c0.7949982-0.7949996,1.2509995-1.8959999,1.2509995-3.0180001c0-1.125-0.4560013-2.2260003-1.2509995-3.0210004
	c-0.7950001-0.7949991-1.8959999-1.2509995-3.0180016-1.2509995c-1.1219997,0-2.2230015,0.4559994-3.0180016,1.2509995
	S20.776001-6.8569999,20.776001-5.7319999 M25.0480003-9.599c1.0169983,0,2.0130005,0.4110003,2.7329998,1.1310005
	s1.1310024,1.7160006,1.1310024,2.7359996c0,1.0170007-0.4109974,2.013-1.1310005,2.7329993
	C27.064003-2.2790012,26.0680027-1.868001,25.0480022-1.868001c-1.0170002,0-2.0129986-0.4110003-2.7329998-1.1309996
	s-1.1340027-1.7160001-1.1340027-2.7330008c0-1.0200005,0.4139996-2.0159998,1.1340027-2.7360001
	C23.0349998-9.1879997,24.0310001-9.599,25.0480003-9.599"/>
<path class="st4" d="M10-18.5c15.5999985,0,28.5,12.9000006,28.5,28.5S25.5999985,38.5,10,38.5S-18.5,25.5999985-18.5,10
	S-5.5999994-18.5,10-18.5 M10-20C-6.5-20-20-6.5-20,10s13.5,30,30,30s30-13.5,30-30S26.5-20,10-20L10-20z"/>
</svg>
