<?xml version="1.0" encoding="utf-8"?>
<svg version="1.1" id="Layer_1" xmlns="http://www.w3.org/2000/svg" xmlns:xlink="http://www.w3.org/1999/xlink" x="0px" y="0px"
	 viewBox="-22 -22 64 64" style="enable-background:new 0 0 20 20;" xml:space="preserve">
<style type="text/css">
	.st0{fill:#FFFFFF;stroke:#B6B6B6;stroke-width:0.15;stroke-miterlimit:10;}
	.st1{fill:#D62828;}
	.st2{fill:#FCD856;}
	.st3{fill:#003F87;}
	.st4{fill:#007A3D;}
	.st5{fill:#CCCCCC;}
</style>
<circle class="st0" cx="10" cy="10" r="28.8000011"/>
<path class="st1" d="M38.8000031,10c0-6.7709999-2.340004-12.9959993-6.2460022-17.9099998l-46.0650024,34.5479965
	c1.3590002,1.9109974,2.9429998,3.6540012,4.7159996,5.1840019l46.9260025-15.6420021
	C38.5690002,14.1879997,38.8000031,12.1240005,38.8000031,10"/>
<path class="st2" d="M10-18.7999992c-0.4530001,0-0.9029989,0.0119991-1.3499994,0.032999l-25.730999,38.5950012
	c0.8879986,2.4389992,2.0939999,4.7250004,3.5669994,6.8099995L32.5540009-7.9099994
	C27.2770004-14.5460005,19.1350002-18.7999992,10-18.7999992"/>
<path class="st3" d="M-18.7999992,10c0,3.4499989,0.6089993,6.7590008,1.7189999,9.8279991l25.730999-38.5950012
	C-6.6290007-18.0620003-18.7999992-5.4530001-18.7999992,10"/>
<path class="st4" d="M32.0680008,28.5009995L-4.8829999,34.659996C-0.5449996,37.288002,4.552,38.8000031,10,38.8000031
	C18.8620014,38.8000031,26.7879982,34.7980042,32.0680008,28.5009995"/>
<path class="st5" d="M10-18.5c15.5999985,0,28.5,12.9000006,28.5,28.5S25.5999985,38.5,10,38.5S-18.5,25.5999985-18.5,10
	S-5.5999994-18.5,10-18.5 M10-20C-6.5-20-20-6.5-20,10s13.5,30,30,30s30-13.5,30-30S26.5-20,10-20L10-20z"/>
</svg>
