<?xml version="1.0" encoding="utf-8"?>
<svg version="1.1" id="Layer_1" xmlns="http://www.w3.org/2000/svg" xmlns:xlink="http://www.w3.org/1999/xlink" x="0px" y="0px"
	 viewBox="-22 -22 64 64" style="enable-background:new 0 0 20 20;" xml:space="preserve">
<style type="text/css">
	.st0{fill:#005B99;}
	.st1{fill:#FCD116;}
	.st2{fill:#CCCCCC;}
</style>
<circle class="st0" cx="10" cy="10" r="28.8000011"/>
<path class="st1" d="M38.2240028,4.2399998H6.7750006v-22.8600006c-4.1729994,0.4650002-8.0789995,1.8240013-11.5200005,3.8760014
	V4.2399998H-18.223999C-18.6019993,6.0999994-18.7999992,8.026-18.7999992,10s0.198,3.9000006,0.5760002,5.7600002h13.4789991
	v18.9809971c3.4409995,2.052002,7.3469996,3.4140015,11.5200005,3.8759995V15.756999h31.4490013
	C38.6020012,13.9000006,38.8000031,11.974,38.8000031,10S38.6020012,6.0999994,38.2240028,4.2399998"/>
<path class="st2" d="M10-18.5c15.5999985,0,28.5,12.9000006,28.5,28.5S25.5999985,38.5,10,38.5S-18.5,25.5999985-18.5,10
	S-5.5999994-18.5,10-18.5 M10-20C-6.5-20-20-6.5-20,10s13.5,30,30,30s30-13.5,30-30S26.5-20,10-20L10-20z"/>
</svg>
