<?xml version="1.0" encoding="utf-8"?>
<svg version="1.1" id="Layer_1" xmlns="http://www.w3.org/2000/svg" xmlns:xlink="http://www.w3.org/1999/xlink" x="0px" y="0px"
	 viewBox="-22 -22 64 64" style="enable-background:new 0 0 20 20;" xml:space="preserve">
<style type="text/css">
	.st0{fill:#FFFFFF;stroke:#B6B6B6;stroke-width:0.15;stroke-miterlimit:10;}
	.st1{fill:#DE1018;}
	.st2{fill:#00247D;}
	.st3{fill:#CCCCCC;}
</style>
<circle class="st0" cx="10" cy="10" r="28.8000011"/>
<path class="st1" d="M31.4650021,29.1999989h-42.9300003C-6.1909995,35.0920029,1.4709988,38.8000031,10,38.8000031
	C18.5319996,38.8000031,26.1910019,35.0920029,31.4650021,29.1999989"/>
<path class="st1" d="M10-18.7999992c-8.5289993,0-16.191,3.7079992-21.4650002,9.5999994h42.9300003
	C26.1910019-15.092,18.5290012-18.7999992,10-18.7999992"/>
<path class="st2" d="M38.8000031,10c0-3.3659992-0.5790024-6.5969996-1.6410065-9.5999994h-54.317997
	C-18.2210007,3.4030004-18.7999992,6.6340008-18.7999992,10s0.5789986,6.5969982,1.6409988,9.5999985h54.3180046
	C38.2210007,16.5970001,38.8000031,13.3659992,38.8000031,10"/>
<path class="st3" d="M10-18.5c15.5999985,0,28.5,12.9000006,28.5,28.5S25.5999985,38.5,10,38.5S-18.5,25.5999985-18.5,10
	S-5.5999994-18.5,10-18.5 M10-20C-6.5-20-20-6.5-20,10s13.5,30,30,30s30-13.5,30-30S26.5-20,10-20L10-20z"/>
</svg>
