<?xml version="1.0" encoding="utf-8"?>
<svg version="1.1" id="Layer_1" xmlns="http://www.w3.org/2000/svg" xmlns:xlink="http://www.w3.org/1999/xlink" x="0px" y="0px"
	 viewBox="-22 -22 64 64" style="enable-background:new 0 0 20 20;" xml:space="preserve">
<style type="text/css">
	.st0{fill:#1EB53A;}
	.st1{fill:#00A3DD;}
	.st2{fill:#FCD116;}
	.st3{fill:#CCCCCC;}
</style>
<g>
	<path class="st0" d="M10-18.7999992C-5.9060001-18.7999992-18.8000011-5.9060001-18.8000011,10
		c0,1.7669992,0.1830006,3.4919987,0.4890003,5.1719999l43.9770012-29.3190002
		C21.1569996-17.0809994,15.7840014-18.7999992,10-18.7999992z"/>
	<path class="st1" d="M38.8000031,10c0-1.7669992-0.1830063-3.4919987-0.4890022-5.1719999L-5.6660004,34.1469994
		C-1.1539998,37.0810013,4.2159986,38.8000031,10,38.8000031C25.9060001,38.8000031,38.8000031,25.9060001,38.8000031,10z"/>
	<path class="st2" d="M25.6660004-14.1470003l-43.9770012,29.3190002c0.2310009,1.2659998,0.5340004,2.5080004,0.9240017,3.7110014
		l46.1099968-30.7409992C27.757-12.6859999,26.7399998-13.448,25.6660004-14.1470003z"/>
	<path class="st2" d="M37.3899994,1.1140003l-46.112999,30.7409992c0.9690003,0.8279991,1.9829998,1.5929985,3.0569992,2.2890015
		L38.3110008,4.8250017C38.0800018,3.5590005,37.7770004,2.3200002,37.3899994,1.1140003z"/>
	<path d="M28.7229977-11.8550005l-46.112999,30.7410011c1.6529999,5.097002,4.6889992,9.5610008,8.6669989,12.9719982
		l46.112999-30.7439976C35.7369995-3.9829993,32.7009964-8.4469995,28.7229977-11.8550005z"/>
</g>
<path class="st3" d="M10-18.5c15.5999985,0,28.5,12.9000006,28.5,28.5S25.5999985,38.5,10,38.5S-18.5,25.5999985-18.5,10
	S-5.5999994-18.5,10-18.5 M10-20C-6.5-20-20-6.5-20,10s13.5,30,30,30s30-13.5,30-30S26.5-20,10-20L10-20z"/>
</svg>
