<?xml version="1.0" encoding="utf-8"?>
<svg version="1.1" id="Layer_1" xmlns="http://www.w3.org/2000/svg" xmlns:xlink="http://www.w3.org/1999/xlink" x="0px" y="0px"
	 viewBox="-22 -22 64 64" style="enable-background:new 0 0 20 20;" xml:space="preserve">
<style type="text/css">
	.st0{fill:#FFFFFF;stroke:#B6B6B6;stroke-width:0.15;stroke-miterlimit:10;}
	.st1{fill:#BB133E;}
	.st2{fill:#FFFFFF;}
	.st3{fill:#002664;}
	.st4{fill:#CCCCCC;}
</style>
<circle class="st0" cx="10" cy="10" r="28.8000011"/>
<path class="st1" d="M37.9990005,16.6479988h-55.9980011c0.3600006,1.5240021,0.8220005,3.0090008,1.4099998,4.4279995h53.1720009
	C37.1800003,19.6569996,37.6360016,18.1720009,37.9990005,16.6479988z"/>
<path class="st1" d="M34.2429962,25.5100002H-14.243c1.0200005,1.5899982,2.1870003,3.0720005,3.4920006,4.4279995h41.5049973
	C32.0559998,28.5820007,33.2200012,27.0999985,34.2429962,25.5100002z"/>
<path class="st1" d="M-5.2999997,34.3720016C-0.8629994,37.1620026,4.3719988,38.8000031,10,38.8000031
	s10.8630009-1.6380005,15.3000011-4.4280014H-5.2999997z"/>
<path class="st1" d="M25.3000011-14.3719997c-0.1079998-0.066-0.2159977-0.1289997-0.3239994-0.1949997v0.1949997
	C24.9760017-14.3719997,25.3000011-14.3719997,25.3000011-14.3719997z"/>
<path class="st1" d="M24.9759979-5.5100002h9.2669983c-1.0199966-1.5899992-2.1869965-3.0720005-3.4919968-4.4279995h-5.7779999
	v4.4279995H24.9759979z"/>
<g>
	<path class="st2" d="M-11.4259996-1.9550004l-0.3990011,1.224h-1.29l1.0440006,0.7559996l-0.3990002,1.2270012l1.0440006-0.7559996
		L-10.382,1.2520003l-0.3990002-1.224l1.0410004-0.7590008h-1.29L-11.4259996-1.9550004z M-11.4259996-0.1820002
		L-11.4259996-0.1820002L-11.4259996-0.1820002L-11.4259996-0.1820002z"/>
	<polygon class="st2" points="-11.0299997,5.4909992 -11.4259996,4.2669992 -11.8250008,5.4909992 -13.1149998,5.4909992 
		-12.0710001,6.2469988 -12.4700003,7.474 -11.4259996,6.7180004 -10.3850002,7.474 -10.7810001,6.2469988 -9.7399998,5.4909992 	
		"/>
	<polygon class="st2" points="-11.4259996,-8.177 -11.8250008,-6.9530001 -13.1149998,-6.9530001 -12.0710001,-6.1939993 
		-12.4700003,-4.9669995 -11.4259996,-5.7260003 -10.3850002,-4.9669995 -10.7810001,-6.1939993 -9.7399998,-6.9530001 
		-11.0299997,-6.9530001 	"/>
	<polygon class="st2" points="-7.7990003,1.1560001 -8.1949997,2.3800001 -9.4849997,2.3800001 -8.4440002,3.1359997 
		-8.8400002,4.3630009 -7.7990003,3.6069999 -6.7550001,4.3630009 -7.1539998,3.1359997 -6.1099997,2.3800001 -7.4000006,2.3800001 
			"/>
	<polygon class="st2" points="-7.4000006,8.599 -7.7990003,7.375 -8.1949997,8.599 -9.4849997,8.599 -8.4440002,9.3580008 
		-8.8400002,10.5849991 -7.7990003,9.8260012 -6.7550001,10.5849991 -7.1539998,9.3580008 -6.1099997,8.599 	"/>
	<polygon class="st2" points="-15.0559998,1.1560001 -15.4519997,2.3800001 -16.7449989,2.3800001 -15.7010002,3.1359997 
		-16.1000004,4.3630009 -15.0559998,3.6069999 -14.0120001,4.3630009 -14.4110003,3.1359997 -13.3670006,2.3800001 
		-14.6599998,2.3800001 	"/>
	<polygon class="st2" points="-14.6599998,8.599 -15.0559998,7.375 -15.4519997,8.599 -16.7449989,8.599 -15.7010002,9.3580008 
		-16.1000004,10.5849991 -15.0559998,9.8260012 -14.0120001,10.5849991 -14.4110003,9.3580008 -13.3670006,8.599 	"/>
	<path class="st2" d="M19.5429993-16.2830009l1.0439987,0.7560005l-0.3989983,1.2270002l1.0439987-0.7559996l1.0440025,0.7559996
		l-0.3959999-1.2270002L22.4529991-15.941c-0.2369995-0.1140003-0.4679985-0.2339993-0.7080002-0.342001h-0.1079998
		l-0.0209999-0.0629997c-0.222002-0.098999-0.4379997-0.1949997-0.6630001-0.2880001l-0.1139984,0.3509998
		C20.8360023-16.2830009,19.5429993-16.2830009,19.5429993-16.2830009z"/>
	<polygon class="st2" points="-7.7990003,-5.0659995 -8.1949997,-3.8419995 -9.4849997,-3.8419995 -8.4440002,-3.0830002 
		-8.8400002,-1.8560004 -7.7990003,-2.6149998 -6.7550001,-1.8560004 -7.1539998,-3.0830002 -6.1099997,-3.8419995 
		-7.4000006,-3.8419995 	"/>
	<path class="st2" d="M-1.5830002-14.3000002L-0.539-15.0559998l1.0410004,0.7559996l-0.3989997-1.224l1.0440001-0.7560005
		h-1.2899995l-0.1890006-0.5789986c-0.1560001,0.0599995-0.3180013,0.1110001-0.4770012,0.177l-0.1289992,0.3989983h-0.8010006
		C-1.8410001-16.2380009-1.9340005-16.184-2.0330005-16.1420002l0.8460002,0.6150007L-1.5830002-14.3000002z"/>
	<path class="st2" d="M-15.0559998-2.6149998l1.0439997,0.7559996l-0.3990002-1.224l1.0439997-0.7559996h-1.2929993
		l-0.2070007-0.6420007c-0.3449993,0.5939999-0.6689997,1.2000003-0.9719992,1.8179998l-0.2610006,0.8070002L-15.0559998-2.6149998z
		"/>
	<polygon class="st2" points="6.7180004,-11.2849998 6.3189993,-10.0609999 5.0290012,-10.0609999 6.073,-9.3050003 
		5.6739988,-8.0780001 6.7180004,-8.8340006 7.7590008,-8.0780001 7.3630009,-9.3050003 8.4040012,-10.0609999 
		7.1140003,-10.0609999 	"/>
	<polygon class="st2" points="6.7180004,-5.0659995 6.3189993,-3.8419995 5.0290012,-3.8419995 6.073,-3.0830002 
		5.6739988,-1.8560004 6.7180004,-2.6149998 7.7590008,-1.8560004 7.3630009,-3.0830002 8.4040012,-3.8419995 7.1140003,-3.8419995 
			"/>
	<polygon class="st2" points="10.3449993,-14.3959999 9.9489994,-13.1719999 8.6590014,-13.1719999 9.6999989,-12.4159994 
		9.3039989,-11.1890001 10.3449993,-11.9449997 11.3890009,-11.1890001 10.9899998,-12.4159994 12.0340014,-13.1719999 
		10.7440004,-13.1719999 	"/>
	<polygon class="st2" points="6.7180004,1.1560001 6.3189993,2.3800001 5.0290012,2.3800001 6.073,3.1359997 5.6739988,4.3630009 
		6.7180004,3.6069999 7.7590008,4.3630009 7.3630009,3.1359997 8.4040012,2.3800001 7.1140003,2.3800001 	"/>
	<polygon class="st2" points="6.7180004,-17.507 6.3189993,-16.2830009 5.0290012,-16.2830009 6.073,-15.5240002 
		5.6739988,-14.3000002 6.7180004,-15.0559998 7.7590008,-14.3000002 7.3630009,-15.5240002 8.4040012,-16.2830009 
		7.1140003,-16.2830009 	"/>
	<polygon class="st2" points="13.9749994,1.1560001 13.5760012,2.3800001 12.2860003,2.3800001 13.329999,3.1359997 
		12.9310007,4.3630009 13.9749994,3.6069999 15.0159998,4.3630009 14.6199999,3.1359997 15.6610003,2.3800001 14.3709993,2.3800001 
			"/>
	<polygon class="st2" points="7.1140003,8.599 6.7180004,7.375 6.3189993,8.599 5.0290012,8.599 6.073,9.3580008 
		5.6739988,10.5849991 6.7180004,9.8260012 7.7590008,10.5849991 7.3630009,9.3580008 8.4040012,8.599 	"/>
	<polygon class="st2" points="14.3709993,8.599 13.9749994,7.375 13.5760012,8.599 12.2860003,8.599 13.329999,9.3580008 
		12.9310007,10.5849991 13.9749994,9.8260012 15.0159998,10.5849991 14.6199999,9.3580008 15.6610003,8.599 	"/>
	<polygon class="st2" points="21.6280022,8.599 21.2320023,7.375 20.8360023,8.599 19.5429993,8.599 20.5870018,9.3580008 
		20.1879997,10.5849991 21.2320023,9.8260012 22.276001,10.5849991 21.8769989,9.3580008 22.9210014,8.599 	"/>
	<polygon class="st2" points="17.6020012,-14.3959999 17.2060013,-13.1719999 15.9160004,-13.1719999 16.9570007,-12.4159994 
		16.5610008,-11.1890001 17.6020012,-11.9449997 18.6459999,-11.1890001 18.2469978,-12.4159994 19.2910004,-13.1719999 
		18.0009995,-13.1719999 	"/>
	<path class="st2" d="M10.3449993-1.9550004l-0.3959999,1.224H8.6589985l1.0410004,0.7590008l-0.3959999,1.224l1.0439987-0.7559996
		l1.0439987,0.7559996l-0.4019966-1.224l1.0439987-0.7559996h-1.2869997L10.3449993-1.9550004z M10.3449993-0.1820002
		L10.3449993-0.1820002L10.3449993-0.1820002L10.3449993-0.1820002z"/>
	<polygon class="st2" points="17.6020012,-1.9550004 17.2060013,-0.7310004 15.9160004,-0.7310004 16.9570007,0.0280004 
		16.5610008,1.2520003 17.6020012,0.4959993 18.6459999,1.2520003 18.2469978,0.0280004 19.2910004,-0.7310004 
		18.0009995,-0.7310004 	"/>
	<polygon class="st2" points="10.7440004,5.4909992 10.3449993,4.2669992 9.9489994,5.4909992 8.6590014,5.4909992 
		9.6999989,6.2469988 9.3039989,7.474 10.3449993,6.7180004 11.3890009,7.474 10.9899998,6.2469988 12.0340014,5.4909992 	"/>
	<polygon class="st2" points="21.2320023,-5.0659995 20.8360023,-3.8419995 19.5429993,-3.8419995 20.5870018,-3.0830002 
		20.1879997,-1.8560004 21.2320023,-2.6149998 22.276001,-1.8560004 21.8769989,-3.0830002 22.9210014,-3.8419995 
		21.6280022,-3.8419995 	"/>
	<polygon class="st2" points="21.2320023,1.1560001 20.8360023,2.3800001 19.5429993,2.3800001 20.5870018,3.1359997 
		20.1879997,4.3630009 21.2320023,3.6069999 22.276001,4.3630009 21.8769989,3.1359997 22.9210014,2.3800001 21.6280022,2.3800001 	
		"/>
	<polygon class="st2" points="21.2320023,-11.2849998 20.8360023,-10.0609999 19.5429993,-10.0609999 20.5870018,-9.3050003 
		20.1879997,-8.0780001 21.2320023,-8.8340006 22.276001,-8.0780001 21.8769989,-9.3050003 22.9210014,-10.0609999 
		21.6280022,-10.0609999 	"/>
	<polygon class="st2" points="10.3449993,-8.177 9.9489994,-6.9530001 8.6590014,-6.9530001 9.6999989,-6.1939993 
		9.3039989,-4.9669995 10.3449993,-5.7260003 11.3890009,-4.9669995 10.9899998,-6.1939993 12.0340014,-6.9530001 
		10.7440004,-6.9530001 	"/>
	<polygon class="st2" points="3.0880003,-8.177 2.6920004,-6.9530001 1.3989997,-6.9530001 2.4429998,-6.1939993 
		2.0440001,-4.9669995 3.0880003,-5.7260003 4.131999,-4.9669995 3.7329993,-6.1939993 4.7769995,-6.9530001 3.4840002,-6.9530001 	
		"/>
	<polygon class="st2" points="-0.5419998,1.1560001 -0.9379997,2.3800001 -2.2280006,2.3800001 -1.1870003,3.1359997 
		-1.5830002,4.3630009 -0.5419998,3.6069999 0.5020003,4.3630009 0.1030006,3.1359997 1.1469994,2.3800001 -0.1430001,2.3800001 	
		"/>
	<polygon class="st2" points="-0.1430001,8.599 -0.5419998,7.375 -0.9379997,8.599 -2.2280006,8.599 -1.1870003,9.3580008 
		-1.5830002,10.5849991 -0.5419998,9.8260012 0.5020003,10.5849991 0.1030006,9.3580008 1.1469994,8.599 	"/>
	<polygon class="st2" points="-0.5419998,-5.0659995 -0.9379997,-3.8419995 -2.2280006,-3.8419995 -1.1870003,-3.0830002 
		-1.5830002,-1.8560004 -0.5419998,-2.6149998 0.5020003,-1.8560004 0.1030006,-3.0830002 1.1469994,-3.8419995 
		-0.1430001,-3.8419995 	"/>
	<polygon class="st2" points="-4.1690001,-14.3959999 -4.5679998,-13.1719999 -5.8579993,-13.1719999 -4.8140006,-12.4159994 
		-5.2130003,-11.1890001 -4.1690001,-11.9449997 -3.1279998,-11.1890001 -3.5239997,-12.4159994 -2.4829993,-13.1719999 
		-3.7730002,-13.1719999 	"/>
	<polygon class="st2" points="-7.7990003,-11.2849998 -8.1949997,-10.0609999 -9.4849997,-10.0609999 -8.4440002,-9.3050003 
		-8.8400002,-8.0780001 -7.7990003,-8.8340006 -6.7550001,-8.0780001 -7.1539998,-9.3050003 -6.1099997,-10.0609999 
		-7.4000006,-10.0609999 	"/>
	<polygon class="st2" points="-4.1690001,-1.9550004 -4.5679998,-0.7310004 -5.8579993,-0.7310004 -4.8140006,0.0280004 
		-5.2130003,1.2520003 -4.1690001,0.4959993 -3.1279998,1.2520003 -3.5239997,0.0280004 -2.4829993,-0.7310004 
		-3.7730002,-0.7310004 	"/>
	<polygon class="st2" points="-3.7730002,5.4909992 -4.1690001,4.2669992 -4.5679998,5.4909992 -5.8579993,5.4909992 
		-4.8140006,6.2469988 -5.2130003,7.474 -4.1690001,6.7180004 -3.1279998,7.474 -3.5239997,6.2469988 -2.4829993,5.4909992 	"/>
	<polygon class="st2" points="13.9749994,-5.0659995 13.5760012,-3.8419995 12.2860003,-3.8419995 13.329999,-3.0830002 
		12.9310007,-1.8560004 13.9749994,-2.6149998 15.0159998,-1.8560004 14.6199999,-3.0830002 15.6610003,-3.8419995 
		14.3709993,-3.8419995 	"/>
	<polygon class="st2" points="-4.1690001,-8.177 -4.5679998,-6.9530001 -5.8579993,-6.9530001 -4.8140006,-6.1939993 
		-5.2130003,-4.9669995 -4.1690001,-5.7260003 -3.1279998,-4.9669995 -3.5239997,-6.1939993 -2.4829993,-6.9530001 
		-3.7730002,-6.9530001 	"/>
	<polygon class="st2" points="-0.5419998,-11.2849998 -0.9379997,-10.0609999 -2.2280006,-10.0609999 -1.1870003,-9.3050003 
		-1.5830002,-8.0780001 -0.5419998,-8.8340006 0.5020003,-8.0780001 0.1030006,-9.3050003 1.1469994,-10.0609999 
		-0.1430001,-10.0609999 	"/>
	<polygon class="st2" points="3.4840002,5.4909992 3.0880003,4.2669992 2.6920004,5.4909992 1.3989997,5.4909992 
		2.4429998,6.2469988 2.0440001,7.474 3.0880003,6.7180004 4.131999,7.474 3.7329993,6.2469988 4.7769995,5.4909992 	"/>
	<polygon class="st2" points="18.0009995,5.4909992 17.6020012,4.2669992 17.2060013,5.4909992 15.9160004,5.4909992 
		16.9570007,6.2469988 16.5610008,7.474 17.6020012,6.7180004 18.6459999,7.474 18.2469978,6.2469988 19.2910004,5.4909992 	"/>
	<polygon class="st2" points="3.0880003,-14.3959999 2.6920004,-13.1719999 1.3989997,-13.1719999 2.4429998,-12.4159994 
		2.0440001,-11.1890001 3.0880003,-11.9449997 4.131999,-11.1890001 3.7329993,-12.4159994 4.7769995,-13.1719999 
		3.4840002,-13.1719999 	"/>
	<polygon class="st2" points="3.0880003,-1.9550004 2.6920004,-0.7310004 1.3989997,-0.7310004 2.4429998,0.0280004 
		2.0440001,1.2520003 3.0880003,0.4959993 4.131999,1.2520003 3.7329993,0.0280004 4.7769995,-0.7310004 3.4840002,-0.7310004 	"/>
	<polygon class="st2" points="17.6020012,-8.177 17.2060013,-6.9530001 15.9160004,-6.9530001 16.9570007,-6.1939993 
		16.5610008,-4.9669995 17.6020012,-5.7260003 18.6459999,-4.9669995 18.2469978,-6.1939993 19.2910004,-6.9530001 
		18.0009995,-6.9530001 	"/>
	<polygon class="st2" points="13.9749994,-11.2849998 13.5760012,-10.0609999 12.2860003,-10.0609999 13.329999,-9.3050003 
		12.9310007,-8.0780001 13.9749994,-8.8340006 15.0159998,-8.0780001 14.6199999,-9.3050003 15.6610003,-10.0609999 
		14.3709993,-10.0609999 	"/>
	<polygon class="st2" points="13.9749994,-17.507 13.5760012,-16.2830009 12.2860003,-16.2830009 13.329999,-15.5240002 
		12.9310007,-14.3000002 13.9749994,-15.0559998 15.0159998,-14.3000002 14.6199999,-15.5240002 15.6610003,-16.2830009 
		14.3709993,-16.2830009 	"/>
	<path class="st3" d="M10.3449993-0.1820002L10.3449993-0.1820002L10.3449993-0.1820002z"/>
	<path class="st3" d="M-11.4259996-0.1820002L-11.4259996-0.1820002L-11.4259996-0.1820002z"/>
	<path class="st3" d="M24.9759979,7.7860003V3.3519998v-4.4279995v-4.4340005v-4.4279995v-4.434v-0.1950006
		c-0.8189983-0.4980001-1.6590004-0.9569998-2.5289993-1.3739996l-0.5730019,0.4139996l0.3990021,1.2270002l-1.0410004-0.7559996
		l-1.0439987,0.7559996l0.3959999-1.2270002l-1.0439987-0.7560005h1.2900009l0.1140003-0.3509998
		C17.5720005-18.0230007,13.8759995-18.7999992,10-18.7999992c-3.6450005,0-7.1190004,0.7049999-10.3320007,1.941
		l0.1859994,0.5760002h1.2899995l-1.0409975,0.7589989l0.3989997,1.224l-1.0440001-0.7559996l-1.0410004,0.7559996
		l0.3959999-1.2270002l-0.8460002-0.6149998c-5.3850002,2.4840002-9.8610001,6.5700006-12.8339996,11.658l0.2070007,0.6420007h1.29
		l-1.0410004,0.7589993l0.3959999,1.2269998l-1.0409994-0.7589993l-1.0440006,0.7589993l0.2610006-0.8070002
		C-17.717001,1.1619997-18.7999992,5.4489994-18.7999992,10c0,0.75,0.0539989,1.4820013,0.1110001,2.2139997h43.6650009
		C24.9760017,12.2139997,24.9760017,7.7860003,24.9759979,7.7860003z M-14.0120001,10.5849991l-1.0439997-0.7589979
		l-1.0440006,0.7589979l0.3959999-1.2270012L-16.7449989,8.599h1.289999L-15.059,7.375l0.3990002,1.2270012h1.29
		l-1.0410004,0.7559996L-14.0120001,10.5849991z M-14.4110003,3.1359997l0.3959999,1.2270012l-1.0409994-0.756001
		l-1.0440006,0.756001l0.3959999-1.2269998l-1.0409985-0.756001h1.289999l0.3959999-1.224l0.3990002,1.2269998h1.29
		L-14.4110003,3.1359997z M-10.3850002,7.474l-1.0409994-0.7559996L-12.4700003,7.474l0.3959999-1.2270012l-1.0409994-0.7559996
		h1.2869997l0.3989992-1.224l0.3990011,1.2270012h1.29l-1.0410004,0.7529984L-10.3850002,7.474z M-10.7810001,0.0280004
		l0.3959999,1.2269998l-1.0409994-0.7590008l-1.0440006,0.756001l0.3959999-1.2269998l-1.0409994-0.756001h1.2869997
		l0.3989992-1.224l0.3990011,1.2269998h1.29L-10.7810001,0.0280004z M-10.7810001-6.1939993l0.3959999,1.2269998
		l-1.0409994-0.7590008l-1.0440006,0.7590008l0.3959999-1.2269998l-1.0409994-0.7590008h1.2869997l0.3989992-1.224
		l0.3990011,1.2269998h1.29L-10.7810001-6.1939993z M-6.7550001,10.5849991l-1.0440001-0.7589979l-1.0409999,0.7589979
		l0.3959999-1.2270012L-9.4849997,8.599h1.29l0.3960009-1.224l0.3989983,1.2270012h1.2899995l-1.0439987,0.7559996
		L-6.7550001,10.5849991z M-7.1539998,3.1359997l0.3959999,1.2270012l-1.0410004-0.756001l-1.0409999,0.756001l0.3959999-1.2269998
		l-1.0409994-0.756001h1.29l0.3960009-1.224l0.3989983,1.2269998h1.2899995L-7.1539998,3.1359997z M-7.1539998-3.0830002
		l0.3959999,1.2269998l-1.0410004-0.7589993l-1.0409999,0.7589993l0.3959999-1.2269998l-1.0409994-0.7589993h1.29l0.3960009-1.224
		l0.3989983,1.2269998h1.2899995L-7.1539998-3.0830002z M-7.1539998-9.3050003l0.3959999,1.2270002l-1.0410004-0.7560005
		l-1.0409999,0.7560005l0.3959999-1.2270002l-1.0409994-0.7559996h1.29l0.3960009-1.224l0.3989983,1.2269993h1.2899995
		L-7.1539998-9.3050003z M-3.1279998,7.474l-1.0410004-0.7559996L-5.2130003,7.474l0.3959999-1.2270012l-1.0409989-0.7559996
		h1.2899995l0.3959999-1.224L-3.776,5.4940004h1.2899995l-1.0379992,0.7529984L-3.1279998,7.474z M-3.5239997,0.0280004
		l0.3959999,1.2269998l-1.0410004-0.7590008l-1.0440001,0.756001l0.3959999-1.2269998l-1.0409989-0.756001h1.2899995
		l0.3959999-1.224L-3.776-0.7280006h1.2899995L-3.5239997,0.0280004z M-3.5239997-6.1939993l0.3959999,1.2269998
		l-1.0410004-0.7590008l-1.0440001,0.7590008l0.3959999-1.2269998l-1.0409989-0.7590008h1.2899995l0.3959999-1.224
		l0.3989997,1.2269998h1.2899995L-3.5239997-6.1939993z M-3.5239997-12.4159994l0.3959999,1.2269993l-1.0410004-0.7559996
		l-1.0440001,0.7559996l0.3959999-1.2269993l-1.0409989-0.7560005h1.2899995l0.3959999-1.224L-3.776-13.1690006h1.2899995
		L-3.5239997-12.4159994z M0.5020003,10.5849991l-1.0440001-0.7589979L-1.586,10.5820007l0.3959999-1.2270012L-2.2280006,8.599
		h1.2899995l0.3959999-1.224l0.3959999,1.2270012h1.2899995L0.1030006,9.3580008L0.5020003,10.5849991z M0.1030006,3.1359997
		l0.3959999,1.2270012l-1.0410004-0.756001l-1.0410004,0.756001l0.3959999-1.2269998l-1.0410004-0.756001h1.2899995l0.3959999-1.224
		l0.3959999,1.2269998h1.2899995L0.1030006,3.1359997z M0.1030006-3.0830002l0.3959999,1.2269998l-1.0410004-0.7589993
		l-1.0410004,0.7589993l0.3959999-1.2269998l-1.0410004-0.7589993h1.2899995l0.3959999-1.224l0.3959999,1.2269998h1.2899995
		L0.1030006-3.0830002z M0.1030006-9.3050003l0.3959999,1.2270002l-1.0410004-0.7560005l-1.0410004,0.7560005l0.3959999-1.2270002
		l-1.0410004-0.7559996h1.2899995l0.3959999-1.224l0.3959999,1.2269993h1.2899995L0.1030006-9.3050003z M4.131999,7.474
		L3.0880003,6.7180004L2.0440001,7.474l0.3959999-1.2270012L1.3989997,5.4909992h1.2899995l0.3959999-1.224L3.480999,5.4940004
		h1.2900009L3.7329993,6.2469988L4.131999,7.474z M3.7329993,0.0280004l0.3960013,1.2269998L3.0880003,0.4959993
		l-1.0440001,0.756001l0.3959999-1.2269998l-1.0410004-0.756001h1.2899995l0.3959999-1.224L3.480999-0.7280006h1.2900009
		L3.7329993,0.0280004z M3.7329993-6.1939993l0.3960013,1.2269998L3.0880003-5.7260003L2.0440001-4.9669995l0.3959999-1.2269998
		L1.3989997-6.9530001h1.2899995l0.3959999-1.224l0.3990011,1.2269998h1.2900009L3.7329993-6.1939993z M3.7329993-12.4159994
		l0.3960013,1.2269993l-1.0410004-0.7559996l-1.0440001,0.7559996l0.3959999-1.2269993l-1.0410004-0.7560005h1.2899995
		l0.3959999-1.224l0.3959999,1.2269993h1.2900009L3.7329993-12.4159994z M7.7590008,10.5849991L6.7180004,9.8260012
		l-1.0439987,0.7559996l0.3959999-1.2270012L5.0290012,8.599h1.2900009l0.3959999-1.224L7.111002,8.6020012h1.2900009
		l-1.038002,0.7559996L7.7590008,10.5849991z M7.3630009,3.1359997l0.3959999,1.2270012l-1.0410004-0.756001l-1.0440016,0.756001
		l0.3959999-1.2269998l-1.0409975-0.756001h1.2900009l0.3959999-1.224L7.111002,2.3829999h1.2900009L7.3630009,3.1359997z
		 M7.3630009-3.0830002l0.3959999,1.2269998L6.7180004-2.6149998L5.6739988-1.8560004l0.3959999-1.2269998L5.0290012-3.8419995
		h1.2900009l0.3959999-1.224L7.111002-3.8389997h1.2900009L7.3630009-3.0830002z M7.3630009-9.3050003l0.3959999,1.2270002
		L6.7180004-8.8340006L5.6739988-8.0780001l0.3959999-1.2270002l-1.0409975-0.7559996h1.2900009l0.3959999-1.224
		l0.3959999,1.2269993h1.2900009L7.3630009-9.3050003z M7.3630009-15.5240002l0.3959999,1.224l-1.0410004-0.7559996
		l-1.0440016,0.7559996l0.3959999-1.2270002l-1.0409975-0.7560005h1.2900009L6.7150021-17.507l0.3989983,1.2269993h1.2900009
		L7.3630009-15.5240002z M11.3890009,7.474l-1.0439987-0.7559996L9.3039989,7.474l0.3959999-1.2270012L8.6590014,5.4909992
		h1.2900009l0.3959999-1.2270012l0.3959999,1.2270012h1.2869997l-1.0439987,0.7559996L11.3890009,7.474z M10.9899998,0.0280004
		l0.3959999,1.2269998L10.342001,0.4990005l-1.038002,0.7529998l0.3959999-1.224L8.6590014-0.7310004h1.2900009l0.3959999-1.2269998
		l0.3959999,1.2269998h1.2869997L10.9899998,0.0280004z M10.9899998-6.1939993l0.3959999,1.2269998L10.342001-5.7229991
		l-1.038002,0.7559996l0.3959999-1.2269998L8.6590014-6.9530001h1.2900009l0.3959999-1.2270002l0.3959999,1.2270002h1.2869997
		L10.9899998-6.1939993z M10.9899998-12.4159994l0.3959999,1.2269993l-1.0439987-0.7559996l-1.038002,0.7559996l0.3959999-1.2269993
		l-1.0409975-0.7560005h1.2900009l0.3959999-1.2270002l0.3959999,1.2270002h1.2869997L10.9899998-12.4159994z
		 M15.0159998,10.5849991l-1.0439987-0.7559996l-1.0439987,0.7559996l0.3959999-1.2270012l-1.0439987-0.7559996h1.2869997
		l0.3959999-1.2270012l0.3959999,1.2270012h1.2900009l-1.0439987,0.7559996L15.0159998,10.5849991z M14.6199999,3.1359997
		l0.3959999,1.2270012l-1.0439987-0.7559996l-1.0439987,0.7559996l0.3959999-1.2269998l-1.038002-0.756001H13.573
		l0.3959999-1.2269998l0.3959999,1.2269998h1.2900009L14.6199999,3.1359997z M14.6199999-3.0830002l0.3959999,1.2269998
		L13.9720011-2.612l-1.0439987,0.7559996l0.3959999-1.2269998l-1.0439987-0.7559996h1.2869997l0.3959999-1.2269998
		l0.3959999,1.2269998h1.2900009L14.6199999-3.0830002z M14.6199999-9.3050003l0.3959999,1.2270002l-1.0439987-0.7560005
		l-1.0439987,0.7560005l0.3959999-1.2270002l-1.0439987-0.7559996h1.2869997l0.3959999-1.2270002l0.3959999,1.2270002h1.2900009
		L14.6199999-9.3050003z M14.6199999-15.5240002l0.3959999,1.224l-1.0439987-0.7559996l-1.0410004,0.7559996l0.3959999-1.2270002
		l-1.0439987-0.7560005h1.2869997l0.3959999-1.2269993l0.3959999,1.2269993h1.2900009L14.6199999-15.5240002z M18.6459999,7.474
		l-1.0439987-0.7559996L16.5580025,7.474l0.3959999-1.2270012l-1.0439987-0.7559996h1.2900009l0.3959999-1.2270012
		l0.3959999,1.2270012h1.2900009l-1.0439987,0.7559996L18.6459999,7.474z M18.2469978,0.0280004l0.3959999,1.2269998
		L17.598999,0.4990005l-1.0439987,0.7559996l0.3959999-1.2269998l-1.0439978-0.7559996h1.29l0.3959999-1.2269998
		l0.3959999,1.2269998h1.2900009L18.2469978,0.0280004z M18.2469978-6.1939993l0.3959999,1.2269998L17.598999-5.7229991
		l-1.0439987,0.7559996l0.3959999-1.2269998l-1.0439978-0.7559996h1.29l0.3959999-1.2269993l0.3959999,1.2269993h1.2900009
		L18.2469978-6.1939993z M18.2469978-12.4159994l0.3959999,1.2269993l-1.0439987-0.7559996l-1.0439987,0.7559996
		l0.3959999-1.2269993l-1.0439978-0.7560005h1.29l0.3959999-1.2270002l0.3959999,1.2270002h1.2900009L18.2469978-12.4159994z
		 M22.276001,10.5849991l-1.0439987-0.7559996l-1.0439987,0.7559996l0.3959999-1.2270012l-1.0439987-0.7559996h1.2900009
		l0.3959999-1.224l0.3959999,1.2270012h1.2900009l-1.0439987,0.7559996L22.276001,10.5849991z M21.8769989,3.1359997
		l0.3959999,1.2270012l-1.0439987-0.7559996l-1.0439987,0.7559996l0.3959999-1.2269998l-1.038002-0.756001h1.2900009
		l0.3959999-1.224L21.625,2.3829999h1.2900009L21.8769989,3.1359997z M21.8769989-3.0830002l0.3959999,1.2269998L21.2290001-2.612
		l-1.0439987,0.7559996l0.3959999-1.2269998l-1.0439987-0.7559996h1.2900009l0.3959999-1.224L21.6190033-3.836h1.2900009
		L21.8769989-3.0830002z M21.8769989-9.3050003l0.3959999,1.2270002l-1.0439987-0.7560005l-1.0439987,0.7560005l0.3959999-1.2270002
		l-1.0439987-0.7559996h1.2900009l0.3959999-1.224l0.3959999,1.2269993h1.2900009L21.8769989-9.3050003z"/>
	<path class="st3" d="M21.7390003-16.2830009c-0.0419998-0.0209999-0.0869999-0.0419998-0.1289997-0.0629997l0.0209999,0.0629997
		H21.7390003z"/>
	<path class="st3" d="M-0.8090005-16.6819992c-0.3150001,0.1259995-0.6209993,0.2609997-0.9299998,0.3989983h0.8010006
		L-0.8090005-16.6819992z"/>
</g>
<path class="st1" d="M24.9759979,3.3519998h13.0230026c-0.3600006-1.5239997-0.8219986-3.0089993-1.409996-4.4279995H24.9760017
	C24.9760017-1.0759997,24.9760017,3.3519998,24.9759979,3.3519998z"/>
<path class="st1" d="M24.9759979,12.2139997h13.7130013C38.7460022,11.4820013,38.8000031,10.75,38.8000031,10
	s-0.0540009-1.4820013-0.1110039-2.2139997H24.9759979V12.2139997z"/>
<path class="st4" d="M10-18.5c15.5999985,0,28.5,12.9000006,28.5,28.5S25.5999985,38.5,10,38.5S-18.5,25.5999985-18.5,10
	S-5.5999994-18.5,10-18.5 M10-20C-6.5-20-20-6.5-20,10s13.5,30,30,30s30-13.5,30-30S26.5-20,10-20L10-20z"/>
</svg>
