<?xml version="1.0" encoding="utf-8"?>
<!-- Generator: Adobe Illustrator 23.1.0, SVG Export Plug-In . SVG Version: 6.00 Build 0)  -->
<svg version="1.1" id="Слой_1" xmlns="http://www.w3.org/2000/svg" xmlns:xlink="http://www.w3.org/1999/xlink" x="0px" y="0px"
	 viewBox="0 0 40.4 41" style="enable-background:new 0 0 40.4 41;" xml:space="preserve">
<style type="text/css">
	.st0{fill-rule:evenodd;clip-rule:evenodd;fill:#17181B;}
</style>
<path class="st0" d="M35.1,24.5c-0.7,0.5-1.6,0.5-2.2,0.1c-0.8-0.5-1.3-1.5-1.3-3v-4.5c0-2.2-0.9-3.7-2.3-4.1
	c-2.4-0.7-4.2,2.3-4.9,3.4l-4.3,6.9v-8.5c0-1.9-0.7-3.1-1.9-3.5c-0.8-0.2-2-0.1-3.1,1.6L5.6,28.4c-1.3-2.4-1.9-5.1-1.9-7.9
	c0-9.2,7.4-16.8,16.5-16.8s16.5,7.5,16.5,16.8c0,0,0,0,0,0c0,0,0,0,0,0C36.8,22.4,36.2,23.8,35.1,24.5L35.1,24.5z M40.4,20.5
	L40.4,20.5L40.4,20.5L40.4,20.5C40.3,9.1,31.3,0,20.2,0C9.1,0,0,9.2,0,20.5C0,31.8,9.1,41,20.2,41c5.1,0,10-1.9,13.7-5.5
	c0.7-0.7,0.8-1.9,0.1-2.6c-0.7-0.7-1.8-0.8-2.6-0.1c0,0,0,0,0,0c-3,2.9-7.1,4.5-11.2,4.5c-4.9,0-9.3-2.2-12.3-5.6l8.6-13.8v6.4
	c0,3.1,1.2,4.1,2.2,4.3c1,0.3,2.5,0.1,4.1-2.5l4.7-7.7c0.2-0.2,0.3-0.5,0.4-0.6v3.9c0,2.9,1.1,5.2,3.1,6.3c1.8,1,4.1,0.9,5.9-0.2
	C39.3,26.3,40.5,23.6,40.4,20.5z"/>
</svg>
