<svg viewBox="0 0 18 18" xmlns="http://www.w3.org/2000/svg"><title>instagram</title><path d="M12.744 18H5.256A5.262 5.262 0 0 1 0 12.744V5.256A5.262 5.262 0 0 1 5.256 0h7.488A5.262 5.262 0 0 1 18 5.256v7.488A5.262 5.262 0 0 1 12.744 18zM5.256 1.525a3.735 3.735 0 0 0-3.73 3.73v7.49a3.735 3.735 0 0 0 3.73 3.73h7.488a3.735 3.735 0 0 0 3.73-3.73v-7.49a3.735 3.735 0 0 0-3.73-3.73H5.256zM9 13.881A4.887 4.887 0 0 1 4.119 9 4.887 4.887 0 0 1 9 4.119 4.887 4.887 0 0 1 13.881 9 4.887 4.887 0 0 1 9 13.881zm0-8.237A3.36 3.36 0 0 0 5.644 9 3.36 3.36 0 0 0 9 12.356 3.36 3.36 0 0 0 12.356 9 3.36 3.36 0 0 0 9 5.644zm5.585-1.53a.698.698 0 1 1-1.397 0 .698.698 0 0 1 1.397 0z" fill="#8C979B" fill-rule="nonzero"></path></svg>