<svg xmlns="http://www.w3.org/2000/svg" viewBox="0 0 25 25" height="25" width="25"><path d="M22.034132 7.5120503a10.288429 10.116517 0 0 0-3.609619-2.2930906c.765523-2.2133308 3.478821-3.0208975 3.478821-3.0208975A22.980904 22.596912 0 0 0 8.581203.25392022 10.796411 10.616012 0 0 0 2.3809723 3.8829853 9.7236651 9.5611905 0 0 0 3.4334399 17.442129c.6347252.528408 2.0522105 1.355915 2.0775589 1.405764-.9297811 2.323001-3.9036611 2.961078-3.9036611 2.961078a24.810048 24.395492 0 0 0 9.2085853 3.040838 19.478762 19.153288 0 0 0 4.425839.04985 11.2466 11.058678 0 0 0 6.73052-3.260176 10.108962 9.9400489 0 0 0 .06185-14.1274317zM20.225267 20.104108a9.4864036 9.3278934 0 0 1-5.452958 2.48252 17.404245 17.113434 0 0 1-3.773878-.01994 17.675981 17.380629 0 0 1-4.4785639-1.206365 6.63521 6.524341 0 0 0 1.5918826-2.233271 1.7561406 1.7267969 0 0 0-.052725-1.365884 7.4331792 7.3089768 0 0 1 1.5138094-8.4345852 7.6603013 7.5323038 0 0 1 6.2955419-2.0737515 7.5477542 7.4216373 0 0 1 4.486675 2.1335712 7.7829878 7.6529403 0 0 1-.129784 10.7177055z" fill="#fff" fill-rule="evenodd"/></svg>