<svg viewBox="0 0 18 15" xmlns="http://www.w3.org/2000/svg"><title>Twitter</title><path d="M18 1.776a7.226 7.226 0 0 1-2.121.595A3.782 3.782 0 0 0 17.503.277a7.283 7.283 0 0 1-2.345.918A3.647 3.647 0 0 0 12.462 0c-2.04 0-3.693 1.696-3.693 3.787 0 .297.032.585.096.863-3.07-.158-5.79-1.666-7.612-3.957-.318.559-.5 1.21-.5 1.904 0 1.313.652 2.473 1.642 3.152a3.598 3.598 0 0 1-1.672-.475v.049c0 1.834 1.273 3.365 2.962 3.712a3.594 3.594 0 0 1-1.667.066c.47 1.504 1.833 2.599 3.45 2.63A7.294 7.294 0 0 1 0 13.299 10.259 10.259 0 0 0 5.66 15c6.793 0 10.508-5.77 10.508-10.775 0-.164-.004-.327-.011-.49A7.597 7.597 0 0 0 18 1.776z" fill="#8C979B" fill-rule="nonzero"></path></svg>