<svg viewBox="0 0 18 13" xmlns="http://www.w3.org/2000/svg"><title>YouTube</title><path d="M17.685 10.909c-.22.992-1.003 1.723-1.945 1.832-2.232.259-4.49.26-6.74.259-2.25.001-4.51 0-6.741-.259-.943-.109-1.725-.84-1.945-1.832C0 9.496 0 7.954 0 6.5c0-1.454.004-2.996.317-4.409C.537 1.1 1.32.368 2.262.26 4.495 0 6.754-.001 9.003 0c2.25-.001 4.508 0 6.74.259.943.109 1.726.84 1.946 1.832.314 1.413.311 2.955.311 4.41 0 1.453 0 2.995-.315 4.408zM6.677 9.395L12.4 6.321 6.677 3.227v6.168z" fill="#8C979B" fill-rule="evenodd"></path></svg>