<svg xmlns="http://www.w3.org/2000/svg" viewBox="0 0 19 26" height="26" width="19"><path d="M18.225098 13.639673a4.7112499 4.6655555 0 0 0-2.760905-1.609524 3.7506633 3.7142856 0 0 0 2.067033-4.0341269 4.0423816 4.0031745 0 0 0-.576144-1.7849206 3.5422931 3.5079364 0 0 0-1.302314-1.2174603 6.8522535 6.7857935 0 0 0-1.782607-.7015873 14.753651 14.610555 0 0 0-2.209765-.3611111V-.00000954H9.2307992V3.8277682q-.6313617 0-1.9253405.030952V-.00000954H4.8758623V3.9309428c-.3469363.0103174-.8574433.0206349-1.530479.0206349L0 3.9309428v2.5690475h1.7513514a1.2502211 1.2380952 0 0 1 1.404415 1.0626984v4.4880953a1.7180122 1.7013492 0 0 1 .252128.01032h-.252128v6.283334a.84389925.83571427 0 0 1-.9147451.794441H.48966993L0 21.996815h3.1557664c.2000354 0 .48967.01032.8678619.01032.3781919 0 .6626172.01032.852234.01032v3.98254h2.4306382v-3.94127c.4417448.01032 1.083525.02064 1.9242987.02064V26h2.4306378v-3.98254a19.082542 18.89746 0 0 0 2.292072-.237301 9.7392224 9.6447617 0 0 0 1.917006-.536508 5.318649 5.2670634 0 0 0 1.530479-.918254 4.2788817 4.2373809 0 0 0 1.017888-1.392857 5.8833322 5.8262697 0 0 0 .512591-1.95 4.6758269 4.6304761 0 0 0-.706375-3.342857zM7.3533838 6.6650697h.6251106c.3417271-.010317.6251105-.010317.852234-.020635.2271235-.010317.531344.010317.9147451.04127a8.7859288 8.7007141 0 0 1 .9710055.1238096 5.0071355 4.9585713 0 0 1 .867861.2579365 2.5764973 2.5515079 0 0 1 .757426.4333333 2.2378958 2.2161904 0 0 1 .480293.6603174 2.0649485 2.0449206 0 0 1 .197952.918254 2.1764266 2.1553174 0 0 1-.141692.7944444 1.4752609 1.4609524 0 0 1-.426117.5984131 3.6308505 3.5956349 0 0 1-.584478.423015 2.5379489 2.5133333 0 0 1-.764719.288889c-.312555.07222-.581353.134127-.812643.175397a5.9604291 5.9026189 0 0 1-.8678622.08254c-.3469364.02063-.6105247.03095-.7886812.03095-.1781565 0-.4240333.01032-.7345049 0-.3104716-.01031-.4917536-.01031-.5438462-.01031V6.6650747zM13.988932 17.312689a2.2441469 2.2223809 0 0 1-.386526.619047 2.0461952 2.0263492 0 0 1-.625111.474603 5.4363781 5.3836507 0 0 1-.749091.330159 6.0896187 6.0305554 0 0 1-.876196.216667c-.341727.0619-.64178.103174-.899118.134127-.257337.03095-.5657247.04127-.9230796.0619-.3573549.02064-.6365709.02064-.8334807.02064-.1969099 0-.4521633 0-.7574257-.01032h-.5844783v-5.28254c.08439 0 .3344341-.01032.7501326-.02064.4156986-.01032.7543001-.01032 1.0178884-.01032.2635883 0 .6251105.01032 1.0887343.04127a9.3141473 9.2238094 0 0 1 1.167915.144444 7.0647911 6.9962697 0 0 1 1.033516.288889 2.9109315 2.8826984 0 0 1 .907452.474603 2.2691513 2.2471428 0 0 1 .583437.722223 2.2587328 2.2368254 0 0 1 .08335 1.795238z" data-name="Forma 1" fill="#fff" fill-rule="evenodd"/></svg>