<svg xmlns="http://www.w3.org/2000/svg" height="25" width="25"><path d="M18.102041 0H6.8979592A6.9020408 6.9020408 0 0 0 0 6.8979592V18.102041A6.9020408 6.9020408 0 0 0 6.8979592 25H18.102041A6.9020408 6.9020408 0 0 0 25 18.102041V6.8979592A6.9020408 6.9020408 0 0 0 18.102041 0zm4.683673 18.102041a4.6938776 4.6938776 0 0 1-4.683673 4.683673H6.8979592a4.6938776 4.6938776 0 0 1-4.6836735-4.683673V6.8979592a4.6938776 4.6938776 0 0 1 4.6836735-4.6836735H18.102041a4.6938776 4.6938776 0 0 1 4.683673 4.6836735zM12.5 6.0612245A6.4387755 6.4387755 0 1 0 18.938776 12.5 6.444898 6.444898 0 0 0 12.5 6.0612245zm0 10.6632655A4.2244898 4.2244898 0 1 1 16.72449 12.5 4.2326531 4.2326531 0 0 1 12.5 16.72449zm6.714286-12.5510206a1.6326531 1.6326531 0 0 0-1.153062 2.7857143 1.6326531 1.6326531 0 0 0 2.306123-2.3061225 1.6387755 1.6387755 0 0 0-1.153061-.4795918z" data-name="Forma 1" fill="#fff" fill-rule="evenodd"/></svg>