<svg xmlns="http://www.w3.org/2000/svg" viewBox="0 0 22 23" height="23" width="22"><path d="M9.8569341 8.8435763a4.5964978 4.5748203 0 0 0 2.9141799-4.2494997 4.7139638 4.6917323 0 0 0-9.4258851 0 4.5566614 4.5351718 0 0 0 1.6179672 3.4565309l-2.4810873 1.596104s4.9774963.4066505 7.3748253-.8031352zM19.936543 13.855545c-2.36975-.813301-5.674121.76247-5.674121.76247a14.073455 14.007083 0 0 0 2.495387-8.1228464c-.02758-3.537861-1.338091-4.6968155-2.342171-5.55078196a8.6608232 8.619978 0 0 1 .125638 1.47410876c0 5.133965-3.31765 8.5904946-8.6577589 8.5904946-2.2165333 0-4.2522711-.010166-5.8835171-1.2097845a5.1378631 5.1136324 0 0 0 1.2134754 2.0840835A6.442247 6.4118648 0 0 0 2.94278 13.174405a11.826278 11.770504 0 0 0 4.4187665 1.402945c.0143.02033.0143.04066.027579.061 0 2.551733-1.868221 6.211589-4.5168251 6.211589a5.6628852 5.6361786 0 0 1-1.1715962-.14233 4.1256121 4.1061553 0 0 1-1.67312521-.701472 3.5679037 3.5510772 0 0 0 3.34625041 2.927885c3.2767921.294822 4.7824005-.386318 8.0305926-2.28741 3.472909-2.033254 6.106192-4.188502 8.128651-3.659856 1.532166.40665 1.783441 2.744892 1.783441 2.744892a7.5831999 7.5474368 0 0 0 .599587-1.738432c.139938-.853966.391213-3.314203-1.979558-4.137671zM7.8487753 1.3205386a3.0142811 3.0000655 0 0 1 2.3922217 1.2809497l.363634-.3558194A3.4729094 3.4565309 0 0 0 7.8467324.78172637a3.3145856 3.2989537 0 0 0-2.0704669.74213753l.2696612.4574821a2.8763862 2.8628209 0 0 1 1.8028486-.6608074z" fill="#fff" fill-rule="evenodd"/></svg>