<svg xmlns="http://www.w3.org/2000/svg" height="23" width="20"><path d="M7.9300991 9.6464473A1.2723381 1.2805459 0 1 0 9.0955014 10.92201a1.2188702 1.2267331 0 0 0-1.1654023-1.2755627zm4.1704959 0a1.2723381 1.2805459 0 1 0 1.165403 1.2755627 1.2188702 1.2267331 0 0 0-1.165403-1.2755627zM17.653336 0H2.3427032A2.347637 2.3627816 0 0 0 .00001693 2.3717505V17.917678a2.354568 2.3697574 0 0 0 2.34268627 2.37175H15.299758l-.604979-2.132582 1.462446 1.365251 1.386205 1.295494L19.999983 23V2.3717505A2.347637 2.3627816 0 0 0 17.653336 0zm-4.410112 15.017764s-.41091-.498267-.754491-.926776a3.6120539 3.6353553 0 0 0 2.068416-1.375217 6.6062565 6.6488735 0 0 1-1.313925.677643 7.0419209 7.0873484 0 0 1-1.656515.498267 7.9924614 8.0440208 0 0 1-2.9595469-.01 9.3687648 9.4292028 0 0 1-1.6832488-.498267 6.3557495 6.3967505 0 0 1-.8346933-.388648.5831962.58695841 0 0 1-.099015-.05979.1643643.16542461 0 0 1-.045547-.0299c-.2059499-.119547-.3198167-.19927-.3198167-.19927a3.5645269 3.5875217 0 0 0 2.0000956 1.355286c-.3435807.438475-.7663732.956672-.7663732.956672a4.1417822 4.1685009 0 0 1-3.4843251-1.743934 15.29281 15.391465 0 0 1 1.6456233-6.7066722 5.6042284 5.6403813 0 0 1 3.2100545-1.2058059l.114857.1395147a7.7132401 7.7629983 0 0 0-3.0050942 1.5047661s.250507-.1395148.6732995-.3388215a8.4310962 8.4854853 0 0 1 2.5941834-.7175044.66042762.66468805 0 0 1 .1980293-.029896 9.9212665 9.9852687 0 0 1 2.3080306-.0199306 9.3331196 9.3933276 0 0 1 3.439769 1.1061525A7.5686787 7.6175044 0 0 0 11.72731 5.540728l.160404-.1793761a5.608189 5.6443675 0 0 1 3.211045 1.2058059 15.299741 15.39844 0 0 1 1.644633 6.7066722 4.1774275 4.2043761 0 0 1-3.500168 1.743934z" fill="#fff" fill-rule="evenodd"/></svg>