<svg xmlns="http://www.w3.org/2000/svg" xmlns:xlink="http://www.w3.org/1999/xlink" width="23" height="20"><defs><path id="a" d="M729.76 4103.25l-3.9 16.56a1.33 1.33 0 0 1-1.3 1.03c-.3 0-.6-.1-.85-.3l-4.18-3.42-3.53 2.65 1.47-5.33 7.18-7.5a.65.65 0 0 0-.78-1.03l-11.53 6.4-3.91-1.71a1.33 1.33 0 0 1-.8-1.3c.03-.55.39-1.03.92-1.2l19.49-6.43a1.34 1.34 0 0 1 1.72 1.58zm-9.01 5.88l-4.33 4.53a.65.65 0 0 0-.16.28l-1.54 5.57-1.36-6.28z"/></defs><use fill="#fff" xlink:href="#a" transform="translate(-707 -4101)"/></svg>