<svg xmlns="http://www.w3.org/2000/svg" xmlns:xlink="http://www.w3.org/1999/xlink" width="19" height="16"><defs><path id="a" d="M824.77 4105.2c-.67.3-1.4.5-2.15.59a3.76 3.76 0 0 0 1.64-2.07 7.5 7.5 0 0 1-2.38.9 3.74 3.74 0 0 0-6.38 3.42 10.64 10.64 0 0 1-7.73-3.91 3.73 3.73 0 0 0 1.16 5 3.73 3.73 0 0 1-1.7-.47v.05c0 1.82 1.3 3.33 3.01 3.68a3.77 3.77 0 0 1-1.7.06 3.75 3.75 0 0 0 3.5 2.6 7.52 7.52 0 0 1-5.54 1.56 10.6 10.6 0 0 0 5.75 1.68c6.89 0 10.66-5.71 10.66-10.66l-.01-.49a7.61 7.61 0 0 0 1.87-1.94z"/></defs><use fill="#fff" xlink:href="#a" transform="translate(-806 -4103)"/></svg>