<svg xmlns="http://www.w3.org/2000/svg" viewBox="0 0 1487.61 283.39"><defs><style>.cls-1{fill:#bfd3ff;}</style></defs><title>background</title><g id="Слой_2" data-name="Слой 2"><g id="Layer_1" data-name="Layer 1"><polygon class="cls-1" points="1487.61 3.84 1487.61 0 1485.1 0 1487.61 3.84"/><polygon class="cls-1" points="1362.44 0 1339.03 0 1363 36.66 1387.01 0 1363.59 0 1363 0.86 1362.44 0"/><polygon class="cls-1" points="1427.85 0 1435.94 12.38 1444.04 0 1427.85 0"/><polygon class="cls-1" points="1487.61 170.83 1487.61 128.69 1473.84 149.76 1487.61 170.83"/><polygon class="cls-1" points="1470.09 0 1462.5 0 1454.37 12.36 1487.61 63.19 1487.61 27.17 1470.09 0"/><polygon class="cls-1" points="1487.61 100.32 1487.61 92.14 1478.85 78.53 1436.04 143.93 1393.3 77.67 1381.34 95.85 1435.94 179.36 1487.61 100.32"/><polygon class="cls-1" points="1400.8 66.27 1436.03 120.15 1471.32 66.27 1459.96 49.2 1436.03 84.35 1424.22 66.27 1448.08 31.27 1436.03 12.38 1436.03 12.38 1400.8 66.27"/><polygon class="cls-1" points="1363 60.44 1324.02 0 1316.43 0 1308.3 12.36 1362.91 95.87 1417.23 12.77 1409.01 0 1402.57 0 1363 60.44"/><polygon class="cls-1" points="1349.57 283.39 1373.92 283.39 1375.04 281.75 1363 262.85 1349.57 283.39"/><polygon class="cls-1" points="1487.61 194.16 1466.33 161.16 1454.37 179.34 1487.61 230.18 1487.61 194.16"/><polygon class="cls-1" points="1487.61 259.12 1478.85 245.51 1454.05 283.39 1477.09 283.39 1487.61 267.3 1487.61 259.12"/><polygon class="cls-1" points="1393.3 244.65 1381.34 262.83 1394.78 283.39 1418.28 283.39 1393.3 244.65"/><polygon class="cls-1" points="1459.96 216.18 1436.03 251.34 1424.22 233.25 1448.08 198.26 1436.03 179.36 1436.03 179.36 1400.8 233.25 1433.59 283.39 1438.48 283.39 1471.32 233.25 1459.96 216.18"/><polygon class="cls-1" points="1405.82 162.02 1363 227.43 1320.26 161.16 1308.3 179.34 1362.91 262.85 1417.23 179.75 1405.82 162.02"/><polygon class="cls-1" points="1216.37 0 1192.96 0 1216.93 36.66 1240.94 0 1217.52 0 1216.93 0.86 1216.37 0"/><polygon class="cls-1" points="1289.88 12.38 1297.97 0 1281.79 0 1289.88 12.38"/><polygon class="cls-1" points="1344.2 96.26 1332.78 78.53 1289.97 143.93 1247.23 77.67 1235.27 95.85 1289.88 179.36 1344.2 96.26"/><polygon class="cls-1" points="1289.97 120.15 1325.26 66.27 1313.89 49.2 1289.97 84.35 1278.15 66.27 1302.01 31.27 1289.97 12.38 1289.96 12.38 1254.74 66.27 1289.97 120.15"/><polygon class="cls-1" points="1216.93 60.44 1177.95 0 1170.37 0 1162.24 12.36 1216.84 95.87 1271.16 12.77 1262.94 0 1256.5 0 1216.93 60.44"/><polygon class="cls-1" points="1203.5 283.39 1227.85 283.39 1228.98 281.75 1216.93 262.85 1203.5 283.39"/><polygon class="cls-1" points="1363 203.65 1398.29 149.76 1386.93 132.69 1363 167.84 1351.19 149.76 1375.04 114.77 1363 95.87 1327.77 149.76 1363 203.65"/><polygon class="cls-1" points="1247.23 244.65 1235.27 262.83 1248.71 283.39 1272.22 283.39 1247.23 244.65"/><polygon class="cls-1" points="1332.78 245.51 1307.99 283.39 1331.03 283.39 1344.2 263.24 1332.78 245.51"/><polygon class="cls-1" points="1313.89 216.18 1289.97 251.34 1278.15 233.25 1302.01 198.26 1289.97 179.36 1289.96 179.36 1254.74 233.25 1287.52 283.39 1292.42 283.39 1325.26 233.25 1313.89 216.18"/><polygon class="cls-1" points="1259.75 162.02 1216.93 227.43 1174.2 161.16 1162.24 179.34 1216.84 262.85 1271.16 179.75 1259.75 162.02"/><polygon class="cls-1" points="1070.3 0 1046.9 0 1070.87 36.66 1094.87 0 1071.45 0 1070.87 0.86 1070.3 0"/><polygon class="cls-1" points="1143.81 12.38 1151.9 0 1135.72 0 1143.81 12.38"/><polygon class="cls-1" points="1198.13 96.26 1186.71 78.53 1143.9 143.93 1101.16 77.67 1089.2 95.85 1143.81 179.36 1198.13 96.26"/><polygon class="cls-1" points="1143.9 120.15 1179.19 66.27 1167.83 49.2 1143.9 84.35 1132.09 66.27 1155.94 31.27 1143.9 12.38 1143.9 12.38 1108.67 66.27 1143.9 120.15"/><polygon class="cls-1" points="1070.87 60.44 1031.88 0 1024.3 0 1016.17 12.36 1070.78 95.87 1125.1 12.77 1116.88 0 1110.43 0 1070.87 60.44"/><polygon class="cls-1" points="1057.43 283.39 1081.79 283.39 1082.91 281.75 1070.87 262.85 1057.43 283.39"/><polygon class="cls-1" points="1216.93 203.65 1252.22 149.76 1240.86 132.69 1216.93 167.84 1205.12 149.76 1228.98 114.77 1216.93 95.87 1181.7 149.76 1216.93 203.65"/><polygon class="cls-1" points="1186.71 245.51 1161.92 283.39 1184.96 283.39 1198.13 263.24 1186.71 245.51"/><polygon class="cls-1" points="1101.16 244.65 1089.2 262.83 1102.65 283.39 1126.15 283.39 1101.16 244.65"/><polygon class="cls-1" points="1167.83 216.18 1143.9 251.34 1132.09 233.25 1155.94 198.26 1143.9 179.36 1143.9 179.36 1108.67 233.25 1141.45 283.39 1146.35 283.39 1179.19 233.25 1167.83 216.18"/><polygon class="cls-1" points="1113.68 162.02 1070.87 227.43 1028.13 161.16 1016.17 179.34 1070.78 262.85 1125.1 179.75 1113.68 162.02"/><polygon class="cls-1" points="924.24 0 900.83 0 924.8 36.66 948.81 0 925.38 0 924.8 0.86 924.24 0"/><polygon class="cls-1" points="997.74 12.38 1005.83 0 989.65 0 997.74 12.38"/><polygon class="cls-1" points="1052.06 96.26 1040.65 78.53 997.83 143.93 955.1 77.67 943.14 95.85 997.74 179.36 1052.06 96.26"/><polygon class="cls-1" points="997.83 120.15 1033.12 66.27 1021.76 49.2 997.83 84.35 986.02 66.27 1009.88 31.27 997.83 12.38 997.83 12.38 962.6 66.27 997.83 120.15"/><polygon class="cls-1" points="924.8 60.44 885.82 0 878.23 0 870.1 12.36 924.71 95.87 979.03 12.77 970.81 0 964.37 0 924.8 60.44"/><polygon class="cls-1" points="911.37 283.39 935.72 283.39 936.84 281.75 924.8 262.85 911.37 283.39"/><polygon class="cls-1" points="1070.87 203.65 1106.15 149.76 1094.79 132.69 1070.87 167.84 1059.05 149.76 1082.91 114.77 1070.87 95.87 1035.64 149.76 1070.87 203.65"/><polygon class="cls-1" points="1040.65 245.51 1015.85 283.39 1038.89 283.39 1052.06 263.24 1040.65 245.51"/><polygon class="cls-1" points="955.1 244.65 943.14 262.83 956.58 283.39 980.08 283.39 955.1 244.65"/><polygon class="cls-1" points="1021.76 216.18 997.83 251.34 986.02 233.25 1009.88 198.26 997.83 179.36 997.83 179.36 962.6 233.25 995.38 283.39 1000.28 283.39 1033.12 233.25 1021.76 216.18"/><polygon class="cls-1" points="967.62 162.02 924.8 227.43 882.06 161.16 870.1 179.34 924.71 262.85 979.03 179.75 967.62 162.02"/><polygon class="cls-1" points="778.17 0 754.76 0 778.73 36.66 802.74 0 779.32 0 778.73 0.86 778.17 0"/><polygon class="cls-1" points="851.68 12.38 859.77 0 843.58 0 851.68 12.38"/><polygon class="cls-1" points="906 96.26 894.58 78.53 851.77 143.93 809.03 77.67 797.07 95.85 851.68 179.36 906 96.26"/><polygon class="cls-1" points="851.76 120.15 887.05 66.27 875.69 49.2 851.76 84.35 839.95 66.27 863.81 31.27 851.76 12.38 851.76 12.38 816.53 66.27 851.76 120.15"/><polygon class="cls-1" points="778.73 60.44 739.75 0 732.16 0 724.03 12.36 778.64 95.87 832.96 12.77 824.74 0 818.3 0 778.73 60.44"/><polygon class="cls-1" points="765.3 283.39 789.65 283.39 790.77 281.75 778.73 262.85 765.3 283.39"/><polygon class="cls-1" points="924.8 203.65 960.09 149.76 948.73 132.69 924.8 167.84 912.99 149.76 936.84 114.77 924.8 95.87 889.57 149.76 924.8 203.65"/><polygon class="cls-1" points="809.03 244.65 797.07 262.83 810.51 283.39 834.02 283.39 809.03 244.65"/><polygon class="cls-1" points="894.58 245.51 869.78 283.39 892.82 283.39 906 263.24 894.58 245.51"/><polygon class="cls-1" points="875.69 216.18 851.76 251.34 839.95 233.25 863.81 198.26 851.76 179.36 851.76 179.36 816.53 233.25 849.32 283.39 854.22 283.39 887.05 233.25 875.69 216.18"/><polygon class="cls-1" points="821.55 162.02 778.73 227.43 736 161.16 724.03 179.34 778.64 262.85 832.96 179.75 821.55 162.02"/><polygon class="cls-1" points="632.1 0 608.7 0 632.66 36.66 656.67 0 633.25 0 632.66 0.86 632.1 0"/><polygon class="cls-1" points="705.61 12.38 713.7 0 697.52 0 705.61 12.38"/><polygon class="cls-1" points="759.93 96.26 748.51 78.53 705.7 143.93 662.96 77.67 651 95.85 705.61 179.36 759.93 96.26"/><polygon class="cls-1" points="705.7 120.15 740.99 66.27 729.63 49.2 705.7 84.35 693.88 66.27 717.74 31.27 705.7 12.38 705.7 12.38 670.47 66.27 705.7 120.15"/><polygon class="cls-1" points="632.67 60.44 593.68 0 586.1 0 577.97 12.36 632.58 95.87 686.9 12.77 678.67 0 672.23 0 632.67 60.44"/><polygon class="cls-1" points="619.23 283.39 643.59 283.39 644.71 281.75 632.66 262.85 619.23 283.39"/><polygon class="cls-1" points="778.73 203.65 814.02 149.76 802.66 132.69 778.73 167.84 766.92 149.76 790.77 114.77 778.73 95.87 743.5 149.76 778.73 203.65"/><polygon class="cls-1" points="748.51 245.51 723.72 283.39 746.76 283.39 759.93 263.24 748.51 245.51"/><polygon class="cls-1" points="662.96 244.65 651 262.83 664.45 283.39 687.95 283.39 662.96 244.65"/><polygon class="cls-1" points="729.63 216.18 705.7 251.34 693.88 233.25 717.74 198.26 705.7 179.36 705.7 179.36 670.47 233.25 703.25 283.39 708.15 283.39 740.99 233.25 729.63 216.18"/><polygon class="cls-1" points="675.48 162.02 632.67 227.43 589.93 161.16 577.97 179.34 632.58 262.85 686.9 179.75 675.48 162.02"/><polygon class="cls-1" points="486.03 0 462.63 0 486.6 36.66 510.61 0 487.18 0 486.6 0.86 486.03 0"/><polygon class="cls-1" points="559.54 12.38 567.63 0 551.45 0 559.54 12.38"/><polygon class="cls-1" points="613.86 96.26 602.45 78.53 559.63 143.93 516.89 77.67 504.93 95.85 559.54 179.36 613.86 96.26"/><polygon class="cls-1" points="559.63 120.15 594.92 66.27 583.56 49.2 559.63 84.35 547.82 66.27 571.67 31.27 559.63 12.38 559.63 12.38 524.4 66.27 559.63 120.15"/><polygon class="cls-1" points="486.6 60.44 447.62 0 440.03 0 431.9 12.36 486.51 95.87 540.83 12.77 532.61 0 526.17 0 486.6 60.44"/><polygon class="cls-1" points="473.17 283.39 497.52 283.39 498.64 281.75 486.6 262.85 473.17 283.39"/><polygon class="cls-1" points="632.66 203.65 667.95 149.76 656.59 132.69 632.66 167.84 620.85 149.76 644.71 114.77 632.66 95.87 597.43 149.76 632.66 203.65"/><polygon class="cls-1" points="602.45 245.51 577.65 283.39 600.69 283.39 613.86 263.24 602.45 245.51"/><polygon class="cls-1" points="516.89 244.65 504.93 262.83 518.38 283.39 541.88 283.39 516.89 244.65"/><polygon class="cls-1" points="583.56 216.18 559.63 251.34 547.82 233.25 571.67 198.26 559.63 179.36 559.63 179.36 524.4 233.25 557.18 283.39 562.08 283.39 594.92 233.25 583.56 216.18"/><polygon class="cls-1" points="529.41 162.02 486.6 227.43 443.86 161.16 431.9 179.34 486.51 262.85 540.83 179.75 529.41 162.02"/><polygon class="cls-1" points="339.97 0 316.56 0 340.53 36.66 364.54 0 341.12 0 340.53 0.86 339.97 0"/><polygon class="cls-1" points="413.48 12.38 421.56 0 405.38 0 413.48 12.38"/><polygon class="cls-1" points="467.8 96.26 456.38 78.53 413.56 143.93 370.83 77.67 358.87 95.85 413.48 179.36 467.8 96.26"/><polygon class="cls-1" points="413.56 120.15 448.85 66.27 437.49 49.2 413.56 84.35 401.75 66.27 425.61 31.27 413.56 12.38 413.56 12.38 378.33 66.27 413.56 120.15"/><polygon class="cls-1" points="340.53 60.44 301.55 0 293.96 0 285.83 12.36 340.44 95.87 394.76 12.77 386.54 0 380.1 0 340.53 60.44"/><polygon class="cls-1" points="327.1 283.39 351.45 283.39 352.57 281.75 340.53 262.85 327.1 283.39"/><polygon class="cls-1" points="486.6 203.65 521.88 149.76 510.52 132.69 486.6 167.84 474.78 149.76 498.64 114.77 486.6 95.87 451.37 149.76 486.6 203.65"/><polygon class="cls-1" points="456.38 245.51 431.58 283.39 454.62 283.39 467.8 263.24 456.38 245.51"/><polygon class="cls-1" points="370.83 244.65 358.87 262.83 372.31 283.39 395.81 283.39 370.83 244.65"/><polygon class="cls-1" points="437.49 216.18 413.56 251.34 401.75 233.25 425.61 198.26 413.56 179.36 413.56 179.36 378.33 233.25 411.12 283.39 416.01 283.39 448.85 233.25 437.49 216.18"/><polygon class="cls-1" points="383.35 162.02 340.53 227.43 297.79 161.16 285.83 179.34 340.44 262.85 394.76 179.75 383.35 162.02"/><polygon class="cls-1" points="193.9 0 170.5 0 194.46 36.66 218.47 0 195.05 0 194.46 0.86 193.9 0"/><polygon class="cls-1" points="267.41 12.38 275.5 0 259.31 0 267.41 12.38"/><polygon class="cls-1" points="321.73 96.26 310.31 78.53 267.5 143.93 224.76 77.67 212.8 95.85 267.41 179.36 321.73 96.26"/><polygon class="cls-1" points="267.5 120.15 302.79 66.27 291.42 49.2 267.5 84.35 255.68 66.27 279.54 31.27 267.5 12.38 267.5 12.38 232.27 66.27 267.5 120.15"/><polygon class="cls-1" points="194.47 60.44 155.48 0 147.9 0 139.77 12.36 194.37 95.87 248.69 12.77 240.47 0 234.03 0 194.47 60.44"/><polygon class="cls-1" points="181.03 283.39 205.38 283.39 206.51 281.75 194.46 262.85 181.03 283.39"/><polygon class="cls-1" points="340.53 203.65 375.82 149.76 364.46 132.69 340.53 167.84 328.72 149.76 352.57 114.77 340.53 95.87 305.3 149.76 340.53 203.65"/><polygon class="cls-1" points="310.31 245.51 285.52 283.39 308.56 283.39 321.73 263.24 310.31 245.51"/><polygon class="cls-1" points="224.76 244.65 212.8 262.83 226.25 283.39 249.75 283.39 224.76 244.65"/><polygon class="cls-1" points="291.42 216.18 267.5 251.34 255.68 233.25 279.54 198.26 267.5 179.36 267.5 179.36 232.27 233.25 265.05 283.39 269.95 283.39 302.79 233.25 291.42 216.18"/><polygon class="cls-1" points="237.28 162.02 194.47 227.43 151.73 161.16 139.77 179.34 194.37 262.85 248.69 179.75 237.28 162.02"/><polygon class="cls-1" points="47.83 0 24.43 0 48.4 36.66 72.4 0 48.98 0 48.4 0.86 47.83 0"/><polygon class="cls-1" points="121.34 12.38 129.43 0 113.25 0 121.34 12.38"/><polygon class="cls-1" points="175.66 96.26 164.25 78.53 121.43 143.93 78.69 77.67 66.73 95.85 121.34 179.36 175.66 96.26"/><polygon class="cls-1" points="121.43 120.15 156.72 66.27 145.36 49.2 121.43 84.35 109.62 66.27 133.47 31.27 121.43 12.38 121.43 12.38 86.2 66.27 121.43 120.15"/><polygon class="cls-1" points="48.4 60.44 9.41 0 1.83 0 0 2.78 0 21.99 48.31 95.87 102.63 12.77 94.41 0 87.97 0 48.4 60.44"/><polygon class="cls-1" points="34.97 283.39 59.32 283.39 60.44 281.75 48.4 262.85 34.97 283.39"/><polygon class="cls-1" points="194.46 203.65 229.75 149.76 218.39 132.69 194.46 167.84 182.65 149.76 206.51 114.77 194.46 95.87 159.23 149.76 194.46 203.65"/><polygon class="cls-1" points="164.25 245.51 139.45 283.39 162.49 283.39 175.66 263.24 164.25 245.51"/><polygon class="cls-1" points="78.69 244.65 66.73 262.83 80.18 283.39 103.68 283.39 78.69 244.65"/><polygon class="cls-1" points="145.36 216.18 121.43 251.34 109.62 233.25 133.47 198.26 121.43 179.36 121.43 179.36 86.2 233.25 118.98 283.39 123.88 283.39 156.72 233.25 145.36 216.18"/><polygon class="cls-1" points="91.21 162.02 48.4 227.43 5.66 161.16 0 169.76 0 188.98 48.31 262.85 102.63 179.75 91.21 162.02"/><polygon class="cls-1" points="18.18 78.53 0 106.3 0 141.53 29.59 96.26 18.18 78.53"/><polygon class="cls-1" points="0 50.26 0 82.53 10.65 66.27 0 50.26"/><polygon class="cls-1" points="48.4 203.65 83.68 149.76 72.32 132.69 48.4 167.84 36.58 149.76 60.44 114.77 48.4 95.87 13.17 149.76 48.4 203.65"/><polygon class="cls-1" points="18.18 245.51 0 273.28 0 283.39 16.42 283.39 29.59 263.24 18.18 245.51"/><polygon class="cls-1" points="0 217.25 0 249.51 10.65 233.25 0 217.25"/></g></g></svg>