<svg xmlns="http://www.w3.org/2000/svg" fill="#001b60" width="100%" height="100%" viewBox="0 0 18.375 18.375">
  <path d="M951.855,311.867l-1.325,1.31V306.53a0.718,0.718,0,1,0-1.435,0v6.576l-1.254-1.239a0.717,0.717,0,0,0-1.008,1.021l1.492,1.474a2.145,2.145,0,0,0,3.047,0l1.492-1.474A0.718,0.718,0,0,0,951.855,311.867Zm6.424-5.337a0.717,0.717,0,0,0-.717.718,1.436,1.436,0,0,1-1.435,1.434h-3.444a0.718,0.718,0,1,0,0,1.436h3.444a2.874,2.874,0,0,0,2.87-2.87A0.718,0.718,0,0,0,958.279,306.53Zm-6.487-.8a0.718,0.718,0,0,0,.992-0.215,4.04,4.04,0,0,0,.652-2.186,3.632,3.632,0,1,0-7.247,0,3.947,3.947,0,0,0,.618,2.189,0.717,0.717,0,0,0,1.2-.782,2.54,2.54,0,0,1-.386-1.407,2.2,2.2,0,1,1,4.377,0,2.6,2.6,0,0,1-.424,1.409A0.717,0.717,0,0,0,951.792,305.734Zm3.725-3.114a0.718,0.718,0,1,1-.718.717A0.717,0.717,0,0,1,955.517,302.62Zm-11.409,0a0.718,0.718,0,1,1-.717.717A0.717,0.717,0,0,1,944.108,302.62Zm12.019-5.992H943.5a2.874,2.874,0,0,0-2.87,2.87v7.75a2.874,2.874,0,0,0,2.87,2.87h3.444a0.718,0.718,0,1,0,0-1.436H943.5a1.436,1.436,0,0,1-1.435-1.434V299.5a1.437,1.437,0,0,1,1.435-1.435h12.629a1.437,1.437,0,0,1,1.435,1.435v4.162a0.718,0.718,0,0,0,1.435,0V299.5A2.874,2.874,0,0,0,956.127,296.628Z" transform="translate(-940.625 -296.625)"/>
</svg>
