<svg xmlns="http://www.w3.org/2000/svg" fill="#00195b" width="18.312" height="15.687" viewBox="0 0 18.312 15.687">
  <path  d="M355.557,349.525H354.9a0.316,0.316,0,0,0-.327.327v3.269a1.637,1.637,0,0,1-1.634,1.635h-8.5a1.639,1.639,0,0,1-1.634-1.635v-8.5a1.639,1.639,0,0,1,1.634-1.634h7.192a0.315,0.315,0,0,0,.327-0.327v-0.654a0.315,0.315,0,0,0-.327-0.327h-7.192a2.948,2.948,0,0,0-2.942,2.943v8.5a2.946,2.946,0,0,0,2.942,2.942h8.5a2.946,2.946,0,0,0,2.942-2.942v-3.269A0.315,0.315,0,0,0,355.557,349.525Zm4.056-8.959a0.626,0.626,0,0,0-.46-0.194h-5.23a0.65,0.65,0,0,0-.46,1.113l1.8,1.8-6.661,6.661a0.322,0.322,0,0,0,0,.47l1.165,1.165a0.322,0.322,0,0,0,.47,0l6.661-6.661,1.8,1.8a0.654,0.654,0,0,0,1.113-.46v-5.23A0.628,0.628,0,0,0,359.613,340.566Z" transform="translate(-341.5 -340.375)"/>
</svg>
