<svg xmlns="http://www.w3.org/2000/svg" fill="#001b60" width="24.59" height="18.531" viewBox="0 0 24.59 18.531">
  <path d="M1149.26,310.618h-1.12V294.454a1.364,1.364,0,0,0-1.36-1.364h-2.49a1.366,1.366,0,0,0-1.37,1.364v16.164h-2.83v-8.84a1.364,1.364,0,0,0-1.36-1.365h-2.49a1.372,1.372,0,0,0-1.37,1.365v8.84h-2.83V306.04a1.364,1.364,0,0,0-1.36-1.365h-2.49a1.373,1.373,0,0,0-1.37,1.365v4.578h-1.17a0.508,0.508,0,1,0,0,1.015h23.61A0.508,0.508,0,0,0,1149.26,310.618Zm-18.23,0h-3.19V306.04a0.351,0.351,0,0,1,.35-0.349h2.49a0.351,0.351,0,0,1,.35.349v4.578h0Zm8.05,0h-3.19v-8.84a0.352,0.352,0,0,1,.35-0.35h2.49a0.352,0.352,0,0,1,.35.35v8.84Zm8.05,0h-3.19V294.454a0.346,0.346,0,0,1,.35-0.349h2.49a0.352,0.352,0,0,1,.35.349v16.164h0Z" transform="translate(-1125.16 -293.094)"/>
</svg>
