<?xml version="1.0" encoding="iso-8859-1"?>
<!-- Generator: Adobe Illustrator 19.0.0, SVG Export Plug-In . SVG Version: 6.00 Build 0)  -->
<svg version="1.1" id="Layer_1" xmlns="http://www.w3.org/2000/svg" xmlns:xlink="http://www.w3.org/1999/xlink" x="0px" y="0px"
	 viewBox="0 0 512 512" style="enable-background:new 0 0 512 512;" xml:space="preserve" width="23" height="23">
     <defs>
    <style>
      path {
        fill: #fff;
        fill-rule: evenodd;
      }
    </style>
  </defs>
<g>
	<g>
		<path d="M172.522,244.87V512h333.913V244.87H172.522z M356.174,390.653v49h-33.391v-49c-9.977-5.774-16.696-16.555-16.696-28.914
			c0-18.442,14.949-33.391,33.391-33.391s33.391,14.949,33.391,33.391C372.87,374.096,366.151,384.878,356.174,390.653z"/>
	</g>
</g>
<g>
	<g>
		<path d="M139.13,0C65.365,0,5.565,59.799,5.565,133.565s0,77.913,0,77.913h66.783v-77.913c0-36.824,29.959-66.783,66.783-66.783
			s66.783,29.959,66.783,66.783v77.913h66.783c0,0,0-4.147,0-77.913S212.896,0,139.13,0z"/>
	</g>
</g>
<g>
</g>
<g>
</g>
<g>
</g>
<g>
</g>
<g>
</g>
<g>
</g>
<g>
</g>
<g>
</g>
<g>
</g>
<g>
</g>
<g>
</g>
<g>
</g>
<g>
</g>
<g>
</g>
<g>
</g>
</svg>
