<svg xmlns="http://www.w3.org/2000/svg" viewBox="0 0 27 25" height="25" width="27.000002"><path d="M26.239138 12.95008l.13481-.202349a3.3602793 3.4045323 0 0 0-5.192705-4.2999295A18.011696 18.2489 0 0 0 14.77025 6.859357a5.8987131 5.976396 0 0 1 4.550607-3.6422932 2.2438477 2.273398 0 1 0-.06391-1.7300892 7.6073127 7.707497 0 0 0-6.274186 5.3521474 18.198434 18.438097 0 0 0-7.1839076 1.6086795A3.3602793 3.4045323 0 0 0 .61114143 12.747731l.13481061.202349A6.3141295 6.3972832 0 0 0 0 15.904385C0 20.932773 6.0405139 25 13.490048 25c7.449535 0 13.491047-4.067227 13.491047-9.095615a6.3151281 6.398295 0 0 0-.741957-2.954305zm-12.744097 9.773487c-6.0914421 0-11.2422059-3.116184-11.2422059-6.819182 0-3.702998 5.1497652-6.8191822 11.2422059-6.8191822 6.092441 0 11.242206 3.1263012 11.242206 6.8191822 0 3.69288-5.147768 6.819182-11.242206 6.819182zm4.428778-5.827669a6.2801772 6.3628838 0 0 1-8.8575559 0l-1.1923249 1.20398a7.9658091 8.0707146 0 0 0 11.2422058 0zm-7.80104-4.967683a1.4030289 1.4215061 0 1 0 1.405026 1.426564 1.4060247 1.4245413 0 0 0-1.405026-1.426564zm6.745523 0a1.4030289 1.4215061 0 1 0 1.405026 1.426564 1.4060247 1.4245413 0 0 0-1.404027-1.426564z" data-name="Forma 1" fill="#fff" fill-rule="evenodd"/></svg>