<svg viewBox="0 0 18 12" xmlns="http://www.w3.org/2000/svg"><title>vk</title><path d="M12.752 11.464l-1.495-1.888a1.034 1.034 0 0 0-.197-.192l-.052-.03-.022.05-.34 1.52-.058.314c-.096.325-.306.656-.735.739l-.264.017H7.861c-3.074 0-5.85-4.373-7.792-9.821l-.014-.051c-.066-.327-.1-.69.06-.983C.3.802.654.694 1.024.683L3.679.7c.164 0 .31.108.356.265.598 1.96 1.331 3.159 2.228 4.525l.025.044c.097.204.3.146.406-.016l.064-.19V2.253c0-.452-.206-.516-.707-.587a.375.375 0 0 1-.304-.485C5.988.415 6.78.024 7.88.024L8.893 0c.82 0 1.562.351 1.562 1.398v4.049l.072.04c.134.047.398.057.611-.277.921-1.297 1.982-2.847 2.131-3.657a.382.382 0 0 1 .03-.094c.188-.393.7-.67.906-.733A.525.525 0 0 1 14.36.7l2.767.002.171.002a.9.9 0 0 1 .192.044c.166.06.283.169.36.293.152.246.13.522.145.633a.357.357 0 0 1 0 .113c-.259 1.621-2.126 3.439-2.91 4.618-.202.277-.205.484-.017.712l2.604 3.256c.3.429.284.898-.035 1.234-.209.219-.511.341-.83.378l-.301.009h-2.768l.05-.003c-.364.048-.647-.102-.86-.315l-.176-.212z" fill="#8C979B" fill-rule="evenodd"></path></svg>