<svg xmlns="http://www.w3.org/2000/svg" xmlns:xlink="http://www.w3.org/1999/xlink" width="24" height="16"><defs><path id="a" d="M923.14 4110c0 3.25-.31 5.12-.94 6.18-.6 1.07-1.26 1.27-2.6 1.36-1.33.08-4.69.12-7.6.12-2.91 0-6.27-.04-7.6-.12-1.33-.1-2-.29-2.6-1.36-.62-1.07-.94-2.93-.94-6.17v-.01c0-3.26.32-5.11.94-6.19.6-1.07 1.27-1.27 2.6-1.34 1.33-.1 4.69-.13 7.6-.13 2.91 0 6.27.04 7.6.13 1.34.07 2 .27 2.6 1.34.63 1.08.94 2.93.94 6.19zm-6.96 0l-6.97-4.18v8.36z"/></defs><use fill="#fff" xlink:href="#a" transform="translate(-900 -4102)"/></svg>